%TF.GenerationSoftware,KiCad,Pcbnew,8.0.4*%
%TF.CreationDate,2024-11-21T15:02:23+00:00*%
%TF.ProjectId,Rail_adaptor,5261696c-5f61-4646-9170-746f722e6b69,rev?*%
%TF.SameCoordinates,Original*%
%TF.FileFunction,Legend,Bot*%
%TF.FilePolarity,Positive*%
%FSLAX46Y46*%
G04 Gerber Fmt 4.6, Leading zero omitted, Abs format (unit mm)*
G04 Created by KiCad (PCBNEW 8.0.4) date 2024-11-21 15:02:23*
%MOMM*%
%LPD*%
G01*
G04 APERTURE LIST*
%ADD10C,0.150000*%
%ADD11C,0.200000*%
%ADD12R,1.700000X1.700000*%
%ADD13O,1.700000X1.700000*%
G04 APERTURE END LIST*
D10*
X160999999Y-53602312D02*
X160857142Y-53649931D01*
X160857142Y-53649931D02*
X160619047Y-53649931D01*
X160619047Y-53649931D02*
X160523809Y-53602312D01*
X160523809Y-53602312D02*
X160476190Y-53554692D01*
X160476190Y-53554692D02*
X160428571Y-53459454D01*
X160428571Y-53459454D02*
X160428571Y-53364216D01*
X160428571Y-53364216D02*
X160476190Y-53268978D01*
X160476190Y-53268978D02*
X160523809Y-53221359D01*
X160523809Y-53221359D02*
X160619047Y-53173740D01*
X160619047Y-53173740D02*
X160809523Y-53126121D01*
X160809523Y-53126121D02*
X160904761Y-53078502D01*
X160904761Y-53078502D02*
X160952380Y-53030883D01*
X160952380Y-53030883D02*
X160999999Y-52935645D01*
X160999999Y-52935645D02*
X160999999Y-52840407D01*
X160999999Y-52840407D02*
X160952380Y-52745169D01*
X160952380Y-52745169D02*
X160904761Y-52697550D01*
X160904761Y-52697550D02*
X160809523Y-52649931D01*
X160809523Y-52649931D02*
X160571428Y-52649931D01*
X160571428Y-52649931D02*
X160428571Y-52697550D01*
X159999999Y-53649931D02*
X159999999Y-52649931D01*
X159999999Y-52649931D02*
X159619047Y-52649931D01*
X159619047Y-52649931D02*
X159523809Y-52697550D01*
X159523809Y-52697550D02*
X159476190Y-52745169D01*
X159476190Y-52745169D02*
X159428571Y-52840407D01*
X159428571Y-52840407D02*
X159428571Y-52983264D01*
X159428571Y-52983264D02*
X159476190Y-53078502D01*
X159476190Y-53078502D02*
X159523809Y-53126121D01*
X159523809Y-53126121D02*
X159619047Y-53173740D01*
X159619047Y-53173740D02*
X159999999Y-53173740D01*
X158999999Y-53126121D02*
X158666666Y-53126121D01*
X158523809Y-53649931D02*
X158999999Y-53649931D01*
X158999999Y-53649931D02*
X158999999Y-52649931D01*
X158999999Y-52649931D02*
X158523809Y-52649931D01*
X158142856Y-53364216D02*
X157666666Y-53364216D01*
X158238094Y-53649931D02*
X157904761Y-52649931D01*
X157904761Y-52649931D02*
X157571428Y-53649931D01*
X157238094Y-53649931D02*
X157238094Y-52649931D01*
X156666666Y-53649931D02*
X157095237Y-53078502D01*
X156666666Y-52649931D02*
X157238094Y-53221359D01*
X156238094Y-53126121D02*
X155904761Y-53126121D01*
X155761904Y-53649931D02*
X156238094Y-53649931D01*
X156238094Y-53649931D02*
X156238094Y-52649931D01*
X156238094Y-52649931D02*
X155761904Y-52649931D01*
X154761904Y-53649931D02*
X155095237Y-53173740D01*
X155333332Y-53649931D02*
X155333332Y-52649931D01*
X155333332Y-52649931D02*
X154952380Y-52649931D01*
X154952380Y-52649931D02*
X154857142Y-52697550D01*
X154857142Y-52697550D02*
X154809523Y-52745169D01*
X154809523Y-52745169D02*
X154761904Y-52840407D01*
X154761904Y-52840407D02*
X154761904Y-52983264D01*
X154761904Y-52983264D02*
X154809523Y-53078502D01*
X154809523Y-53078502D02*
X154857142Y-53126121D01*
X154857142Y-53126121D02*
X154952380Y-53173740D01*
X154952380Y-53173740D02*
X155333332Y-53173740D01*
X160261904Y-54259875D02*
X159690476Y-54259875D01*
X159976190Y-55259875D02*
X159976190Y-54259875D01*
X159166666Y-54259875D02*
X158976190Y-54259875D01*
X158976190Y-54259875D02*
X158880952Y-54307494D01*
X158880952Y-54307494D02*
X158785714Y-54402732D01*
X158785714Y-54402732D02*
X158738095Y-54593208D01*
X158738095Y-54593208D02*
X158738095Y-54926541D01*
X158738095Y-54926541D02*
X158785714Y-55117017D01*
X158785714Y-55117017D02*
X158880952Y-55212256D01*
X158880952Y-55212256D02*
X158976190Y-55259875D01*
X158976190Y-55259875D02*
X159166666Y-55259875D01*
X159166666Y-55259875D02*
X159261904Y-55212256D01*
X159261904Y-55212256D02*
X159357142Y-55117017D01*
X159357142Y-55117017D02*
X159404761Y-54926541D01*
X159404761Y-54926541D02*
X159404761Y-54593208D01*
X159404761Y-54593208D02*
X159357142Y-54402732D01*
X159357142Y-54402732D02*
X159261904Y-54307494D01*
X159261904Y-54307494D02*
X159166666Y-54259875D01*
X156976190Y-55259875D02*
X157309523Y-54783684D01*
X157547618Y-55259875D02*
X157547618Y-54259875D01*
X157547618Y-54259875D02*
X157166666Y-54259875D01*
X157166666Y-54259875D02*
X157071428Y-54307494D01*
X157071428Y-54307494D02*
X157023809Y-54355113D01*
X157023809Y-54355113D02*
X156976190Y-54450351D01*
X156976190Y-54450351D02*
X156976190Y-54593208D01*
X156976190Y-54593208D02*
X157023809Y-54688446D01*
X157023809Y-54688446D02*
X157071428Y-54736065D01*
X157071428Y-54736065D02*
X157166666Y-54783684D01*
X157166666Y-54783684D02*
X157547618Y-54783684D01*
X156595237Y-54974160D02*
X156119047Y-54974160D01*
X156690475Y-55259875D02*
X156357142Y-54259875D01*
X156357142Y-54259875D02*
X156023809Y-55259875D01*
X155690475Y-55259875D02*
X155690475Y-54259875D01*
X154738095Y-55259875D02*
X155214285Y-55259875D01*
X155214285Y-55259875D02*
X155214285Y-54259875D01*
X160571428Y-56584104D02*
X160095238Y-56584104D01*
X160666666Y-56869819D02*
X160333333Y-55869819D01*
X160333333Y-55869819D02*
X160000000Y-56869819D01*
X159666666Y-56869819D02*
X159666666Y-55869819D01*
X159666666Y-55869819D02*
X159428571Y-55869819D01*
X159428571Y-55869819D02*
X159285714Y-55917438D01*
X159285714Y-55917438D02*
X159190476Y-56012676D01*
X159190476Y-56012676D02*
X159142857Y-56107914D01*
X159142857Y-56107914D02*
X159095238Y-56298390D01*
X159095238Y-56298390D02*
X159095238Y-56441247D01*
X159095238Y-56441247D02*
X159142857Y-56631723D01*
X159142857Y-56631723D02*
X159190476Y-56726961D01*
X159190476Y-56726961D02*
X159285714Y-56822200D01*
X159285714Y-56822200D02*
X159428571Y-56869819D01*
X159428571Y-56869819D02*
X159666666Y-56869819D01*
X158714285Y-56584104D02*
X158238095Y-56584104D01*
X158809523Y-56869819D02*
X158476190Y-55869819D01*
X158476190Y-55869819D02*
X158142857Y-56869819D01*
X157809523Y-56869819D02*
X157809523Y-55869819D01*
X157809523Y-55869819D02*
X157428571Y-55869819D01*
X157428571Y-55869819D02*
X157333333Y-55917438D01*
X157333333Y-55917438D02*
X157285714Y-55965057D01*
X157285714Y-55965057D02*
X157238095Y-56060295D01*
X157238095Y-56060295D02*
X157238095Y-56203152D01*
X157238095Y-56203152D02*
X157285714Y-56298390D01*
X157285714Y-56298390D02*
X157333333Y-56346009D01*
X157333333Y-56346009D02*
X157428571Y-56393628D01*
X157428571Y-56393628D02*
X157809523Y-56393628D01*
X156952380Y-55869819D02*
X156380952Y-55869819D01*
X156666666Y-56869819D02*
X156666666Y-55869819D01*
X155857142Y-55869819D02*
X155666666Y-55869819D01*
X155666666Y-55869819D02*
X155571428Y-55917438D01*
X155571428Y-55917438D02*
X155476190Y-56012676D01*
X155476190Y-56012676D02*
X155428571Y-56203152D01*
X155428571Y-56203152D02*
X155428571Y-56536485D01*
X155428571Y-56536485D02*
X155476190Y-56726961D01*
X155476190Y-56726961D02*
X155571428Y-56822200D01*
X155571428Y-56822200D02*
X155666666Y-56869819D01*
X155666666Y-56869819D02*
X155857142Y-56869819D01*
X155857142Y-56869819D02*
X155952380Y-56822200D01*
X155952380Y-56822200D02*
X156047618Y-56726961D01*
X156047618Y-56726961D02*
X156095237Y-56536485D01*
X156095237Y-56536485D02*
X156095237Y-56203152D01*
X156095237Y-56203152D02*
X156047618Y-56012676D01*
X156047618Y-56012676D02*
X155952380Y-55917438D01*
X155952380Y-55917438D02*
X155857142Y-55869819D01*
X154428571Y-56869819D02*
X154761904Y-56393628D01*
X154999999Y-56869819D02*
X154999999Y-55869819D01*
X154999999Y-55869819D02*
X154619047Y-55869819D01*
X154619047Y-55869819D02*
X154523809Y-55917438D01*
X154523809Y-55917438D02*
X154476190Y-55965057D01*
X154476190Y-55965057D02*
X154428571Y-56060295D01*
X154428571Y-56060295D02*
X154428571Y-56203152D01*
X154428571Y-56203152D02*
X154476190Y-56298390D01*
X154476190Y-56298390D02*
X154523809Y-56346009D01*
X154523809Y-56346009D02*
X154619047Y-56393628D01*
X154619047Y-56393628D02*
X154999999Y-56393628D01*
D11*
G36*
X161601884Y-60837815D02*
G01*
X161655164Y-60834715D01*
X161706011Y-60825412D01*
X161754426Y-60809909D01*
X161763817Y-60806064D01*
X161807370Y-60782379D01*
X161844913Y-60751014D01*
X161876445Y-60711968D01*
X161882030Y-60703237D01*
X161904957Y-60654203D01*
X161918330Y-60602445D01*
X161924444Y-60550371D01*
X161925505Y-60514926D01*
X161925505Y-60121207D01*
X161923425Y-60072220D01*
X161915953Y-60021616D01*
X161901051Y-59971547D01*
X161882030Y-59933140D01*
X161851700Y-59892429D01*
X161815360Y-59859447D01*
X161773008Y-59834193D01*
X161763817Y-59830069D01*
X161715746Y-59813325D01*
X161664956Y-59802783D01*
X161611446Y-59798442D01*
X161600418Y-59798318D01*
X161546887Y-59800926D01*
X161497026Y-59808751D01*
X161445931Y-59823563D01*
X161426762Y-59831290D01*
X161382893Y-59854427D01*
X161341911Y-59885717D01*
X161308548Y-59923126D01*
X161284074Y-59966422D01*
X161269759Y-60015375D01*
X161265561Y-60064787D01*
X161272748Y-60114392D01*
X161288276Y-60136838D01*
X161335445Y-60153325D01*
X161357152Y-60154424D01*
X161405516Y-60147484D01*
X161421144Y-60140990D01*
X161448221Y-60099674D01*
X161448499Y-60095806D01*
X161453384Y-60055261D01*
X161472435Y-60009099D01*
X161508446Y-59974531D01*
X161515422Y-59970509D01*
X161562610Y-59956509D01*
X161594801Y-59954633D01*
X161644019Y-59960369D01*
X161689720Y-59981560D01*
X161705443Y-59995422D01*
X161731823Y-60038986D01*
X161742676Y-60089200D01*
X161744033Y-60118764D01*
X161744033Y-60517369D01*
X161739386Y-60570076D01*
X161721914Y-60618897D01*
X161704710Y-60641688D01*
X161663684Y-60668903D01*
X161614118Y-60680528D01*
X161592114Y-60681500D01*
X161542241Y-60675989D01*
X161516154Y-60665868D01*
X161479124Y-60633688D01*
X161474633Y-60626545D01*
X161456959Y-60580406D01*
X161456315Y-60577208D01*
X161448499Y-60528604D01*
X161424974Y-60485490D01*
X161420411Y-60482930D01*
X161371717Y-60470441D01*
X161358374Y-60469986D01*
X161308666Y-60477141D01*
X161288276Y-60488304D01*
X161267358Y-60532581D01*
X161265561Y-60559867D01*
X161269759Y-60610481D01*
X161284074Y-60661417D01*
X161308548Y-60707390D01*
X161341998Y-60747249D01*
X161383240Y-60780182D01*
X161427494Y-60804110D01*
X161477163Y-60821884D01*
X161525618Y-60832253D01*
X161577627Y-60837289D01*
X161601884Y-60837815D01*
G37*
G36*
X161064549Y-60830000D02*
G01*
X161113089Y-60818780D01*
X161119504Y-60815345D01*
X161144661Y-60772114D01*
X161144661Y-59854738D01*
X161117614Y-59812606D01*
X161115840Y-59811751D01*
X161067827Y-59798961D01*
X161053314Y-59798318D01*
X161004542Y-59805874D01*
X160990055Y-59811751D01*
X160961995Y-59853136D01*
X160961967Y-59854982D01*
X160961967Y-60673684D01*
X160617096Y-60673684D01*
X160577285Y-60697620D01*
X160563970Y-60746219D01*
X160563852Y-60751842D01*
X160574884Y-60800669D01*
X160577285Y-60805331D01*
X160617096Y-60830000D01*
X161064549Y-60830000D01*
G37*
G36*
X160175829Y-59800136D02*
G01*
X160223133Y-59813705D01*
X160237031Y-59821173D01*
X160267585Y-59859867D01*
X160538939Y-60740362D01*
X160540404Y-60754528D01*
X160522086Y-60793607D01*
X160519764Y-60795686D01*
X160477145Y-60820230D01*
X160473822Y-60821413D01*
X160425122Y-60830000D01*
X160385799Y-60822428D01*
X160363084Y-60794096D01*
X160311060Y-60611158D01*
X159987438Y-60611158D01*
X159934193Y-60794096D01*
X159912456Y-60822428D01*
X159873621Y-60830000D01*
X159870441Y-60829961D01*
X159821598Y-60820230D01*
X159818271Y-60818978D01*
X159775924Y-60792875D01*
X159756873Y-60754528D01*
X159759560Y-60740362D01*
X159842810Y-60470474D01*
X160027006Y-60470474D01*
X160271737Y-60470474D01*
X160149371Y-60038653D01*
X160027006Y-60470474D01*
X159842810Y-60470474D01*
X160031158Y-59859867D01*
X160037554Y-59845441D01*
X160074877Y-59813705D01*
X160098887Y-59804944D01*
X160149371Y-59798318D01*
X160175829Y-59800136D01*
G37*
G36*
X159351919Y-60837815D02*
G01*
X159405199Y-60834715D01*
X159456046Y-60825412D01*
X159504461Y-60809909D01*
X159513852Y-60806064D01*
X159557405Y-60782379D01*
X159594948Y-60751014D01*
X159626480Y-60711968D01*
X159632065Y-60703237D01*
X159654991Y-60654203D01*
X159668365Y-60602445D01*
X159674479Y-60550371D01*
X159675540Y-60514926D01*
X159675540Y-60121207D01*
X159673460Y-60072220D01*
X159665988Y-60021616D01*
X159651086Y-59971547D01*
X159632065Y-59933140D01*
X159601735Y-59892429D01*
X159565394Y-59859447D01*
X159523043Y-59834193D01*
X159513852Y-59830069D01*
X159465781Y-59813325D01*
X159414990Y-59802783D01*
X159361481Y-59798442D01*
X159350453Y-59798318D01*
X159296922Y-59800926D01*
X159247061Y-59808751D01*
X159195966Y-59823563D01*
X159176796Y-59831290D01*
X159132928Y-59854427D01*
X159091946Y-59885717D01*
X159058583Y-59923126D01*
X159034109Y-59966422D01*
X159019794Y-60015375D01*
X159015596Y-60064787D01*
X159022783Y-60114392D01*
X159038311Y-60136838D01*
X159085480Y-60153325D01*
X159107187Y-60154424D01*
X159155551Y-60147484D01*
X159171179Y-60140990D01*
X159198255Y-60099674D01*
X159198534Y-60095806D01*
X159203419Y-60055261D01*
X159222470Y-60009099D01*
X159258480Y-59974531D01*
X159265457Y-59970509D01*
X159312645Y-59956509D01*
X159344836Y-59954633D01*
X159394054Y-59960369D01*
X159439755Y-59981560D01*
X159455478Y-59995422D01*
X159481858Y-60038986D01*
X159492711Y-60089200D01*
X159494068Y-60118764D01*
X159494068Y-60517369D01*
X159489421Y-60570076D01*
X159471949Y-60618897D01*
X159454745Y-60641688D01*
X159413719Y-60668903D01*
X159364153Y-60680528D01*
X159342149Y-60681500D01*
X159292276Y-60675989D01*
X159266189Y-60665868D01*
X159229159Y-60633688D01*
X159224668Y-60626545D01*
X159206994Y-60580406D01*
X159206350Y-60577208D01*
X159198534Y-60528604D01*
X159175009Y-60485490D01*
X159170446Y-60482930D01*
X159121752Y-60470441D01*
X159108408Y-60469986D01*
X159058701Y-60477141D01*
X159038311Y-60488304D01*
X159017393Y-60532581D01*
X159015596Y-60559867D01*
X159019794Y-60610481D01*
X159034109Y-60661417D01*
X159058583Y-60707390D01*
X159092032Y-60747249D01*
X159133274Y-60780182D01*
X159177529Y-60804110D01*
X159227198Y-60821884D01*
X159275653Y-60832253D01*
X159327662Y-60837289D01*
X159351919Y-60837815D01*
G37*
G36*
X158803349Y-60830000D02*
G01*
X158853033Y-60821055D01*
X158865875Y-60815345D01*
X158894583Y-60775603D01*
X158894696Y-60772114D01*
X158894696Y-59854738D01*
X158867648Y-59812606D01*
X158865875Y-59811751D01*
X158817862Y-59798961D01*
X158803349Y-59798318D01*
X158754577Y-59805874D01*
X158740090Y-59811751D01*
X158712030Y-59853136D01*
X158712002Y-59854982D01*
X158712002Y-60241863D01*
X158406699Y-59825184D01*
X158364918Y-59798738D01*
X158357362Y-59798318D01*
X158309002Y-59812484D01*
X158270709Y-59843977D01*
X158267480Y-59847899D01*
X158250383Y-59893328D01*
X158253314Y-59910425D01*
X158263084Y-59928743D01*
X158513433Y-60246259D01*
X158206908Y-60707634D01*
X158196894Y-60739630D01*
X158213258Y-60782861D01*
X158251641Y-60815132D01*
X158254780Y-60816810D01*
X158303452Y-60829948D01*
X158306803Y-60830000D01*
X158342707Y-60821695D01*
X158371528Y-60795317D01*
X158636043Y-60400865D01*
X158712002Y-60496608D01*
X158712002Y-60772358D01*
X158738362Y-60814401D01*
X158740090Y-60815345D01*
X158788301Y-60829298D01*
X158803349Y-60830000D01*
G37*
G36*
X157836880Y-60830000D02*
G01*
X157885652Y-60821756D01*
X157900139Y-60815345D01*
X157928200Y-60774345D01*
X157928227Y-60772602D01*
X157928227Y-59970265D01*
X158135101Y-59970265D01*
X158177355Y-59943886D01*
X158192201Y-59895949D01*
X158192742Y-59883558D01*
X158182831Y-59834235D01*
X158178820Y-59825673D01*
X158136933Y-59798344D01*
X158135101Y-59798318D01*
X157540125Y-59798318D01*
X157497421Y-59822360D01*
X157495673Y-59825673D01*
X157482568Y-59874031D01*
X157482240Y-59883558D01*
X157491333Y-59931900D01*
X157497138Y-59943886D01*
X157538368Y-59970239D01*
X157540125Y-59970265D01*
X157745289Y-59970265D01*
X157745289Y-60772602D01*
X157772566Y-60814416D01*
X157774354Y-60815345D01*
X157822368Y-60829298D01*
X157836880Y-60830000D01*
G37*
G36*
X157373063Y-59814926D02*
G01*
X157389183Y-59853761D01*
X157389183Y-60772114D01*
X157389070Y-60775603D01*
X157360362Y-60815345D01*
X157347520Y-60821055D01*
X157297836Y-60830000D01*
X157282788Y-60829275D01*
X157234577Y-60814856D01*
X157231176Y-60812881D01*
X157206489Y-60770648D01*
X157206489Y-60392316D01*
X157088276Y-60392316D01*
X156888485Y-60785792D01*
X156861130Y-60818764D01*
X156825226Y-60830000D01*
X156818181Y-60829778D01*
X156771004Y-60815833D01*
X156764616Y-60812158D01*
X156728018Y-60778953D01*
X156711165Y-60733279D01*
X156712630Y-60722777D01*
X156716782Y-60710565D01*
X156902407Y-60365205D01*
X156895797Y-60363062D01*
X156849143Y-60342665D01*
X156807641Y-60314647D01*
X156800010Y-60308086D01*
X156766494Y-60269421D01*
X156742184Y-60224521D01*
X156730613Y-60191010D01*
X156721076Y-60140377D01*
X156719105Y-60103866D01*
X156901186Y-60103866D01*
X156902182Y-60127973D01*
X156912697Y-60176390D01*
X156941974Y-60218171D01*
X156952610Y-60226014D01*
X157000313Y-60246110D01*
X157051639Y-60251632D01*
X157206489Y-60251632D01*
X157206489Y-59954633D01*
X157051639Y-59954633D01*
X157034859Y-59955145D01*
X156986385Y-59963870D01*
X156941974Y-59987362D01*
X156924129Y-60006916D01*
X156906006Y-60052302D01*
X156901186Y-60103866D01*
X156719105Y-60103866D01*
X156718248Y-60087990D01*
X156719351Y-60054507D01*
X156725705Y-60005795D01*
X156739605Y-59958148D01*
X156763433Y-59914089D01*
X156794478Y-59878282D01*
X156835461Y-59847160D01*
X156883600Y-59824696D01*
X156897860Y-59819982D01*
X156947624Y-59807617D01*
X157000824Y-59800404D01*
X157051639Y-59798318D01*
X157330076Y-59798318D01*
X157373063Y-59814926D01*
G37*
G36*
X156292202Y-59798597D02*
G01*
X156342560Y-59802783D01*
X156394753Y-59813325D01*
X156442986Y-59830069D01*
X156452089Y-59834193D01*
X156494083Y-59859447D01*
X156530209Y-59892429D01*
X156560467Y-59933140D01*
X156579487Y-59971547D01*
X156594390Y-60021616D01*
X156601862Y-60072220D01*
X156603942Y-60121207D01*
X156603942Y-60514926D01*
X156602881Y-60550371D01*
X156596767Y-60602445D01*
X156583393Y-60654203D01*
X156560467Y-60703237D01*
X156554882Y-60711968D01*
X156523350Y-60751014D01*
X156485807Y-60782379D01*
X156442254Y-60806064D01*
X156428081Y-60811738D01*
X156378546Y-60826622D01*
X156325480Y-60835304D01*
X156274703Y-60837815D01*
X156257455Y-60837536D01*
X156207567Y-60833350D01*
X156155398Y-60822808D01*
X156106664Y-60806064D01*
X156097355Y-60801941D01*
X156054560Y-60776720D01*
X156018014Y-60743819D01*
X155987718Y-60703237D01*
X155968590Y-60664723D01*
X155953604Y-60614571D01*
X155946090Y-60563925D01*
X155943998Y-60514926D01*
X155943998Y-60121207D01*
X155944072Y-60118764D01*
X156126936Y-60118764D01*
X156126936Y-60517369D01*
X156128327Y-60547413D01*
X156139455Y-60598178D01*
X156166503Y-60641688D01*
X156179513Y-60653157D01*
X156223618Y-60674929D01*
X156274703Y-60681500D01*
X156291464Y-60680878D01*
X156339612Y-60670264D01*
X156383147Y-60641688D01*
X156400351Y-60618897D01*
X156417823Y-60570076D01*
X156422470Y-60517369D01*
X156422470Y-60118764D01*
X156421087Y-60088728D01*
X156410028Y-60038033D01*
X156383147Y-59994689D01*
X156370066Y-59983149D01*
X156325828Y-59961244D01*
X156274703Y-59954633D01*
X156257946Y-59955259D01*
X156209862Y-59965938D01*
X156166503Y-59994689D01*
X156149193Y-60017373D01*
X156131611Y-60066086D01*
X156126936Y-60118764D01*
X155944072Y-60118764D01*
X155945065Y-60085768D01*
X155951214Y-60033729D01*
X155964662Y-59982046D01*
X155987718Y-59933140D01*
X155993277Y-59924379D01*
X156024823Y-59885215D01*
X156062619Y-59853778D01*
X156106664Y-59830069D01*
X156120923Y-59824395D01*
X156170688Y-59809511D01*
X156223887Y-59800829D01*
X156274703Y-59798318D01*
X156292202Y-59798597D01*
G37*
G36*
X155699511Y-60830000D02*
G01*
X155749194Y-60821055D01*
X155762037Y-60815345D01*
X155790745Y-60775603D01*
X155790858Y-60772114D01*
X155790858Y-59856203D01*
X155765527Y-59814315D01*
X155762037Y-59812484D01*
X155714023Y-59798996D01*
X155699511Y-59798318D01*
X155649689Y-59803741D01*
X155644068Y-59805401D01*
X155603279Y-59833000D01*
X155574758Y-59873722D01*
X155562979Y-59895771D01*
X155291625Y-60423335D01*
X155291625Y-59854982D01*
X155264578Y-59812607D01*
X155262805Y-59811751D01*
X155214558Y-59798961D01*
X155200034Y-59798318D01*
X155151262Y-59805874D01*
X155136775Y-59811751D01*
X155108715Y-59852906D01*
X155108688Y-59854738D01*
X155108688Y-60772114D01*
X155135047Y-60814401D01*
X155136775Y-60815345D01*
X155184986Y-60829298D01*
X155200034Y-60830000D01*
X155249435Y-60821615D01*
X155259874Y-60817299D01*
X155297393Y-60783761D01*
X155304082Y-60772358D01*
X155608164Y-60206692D01*
X155608164Y-60772358D01*
X155634524Y-60814401D01*
X155636252Y-60815345D01*
X155684463Y-60829298D01*
X155699511Y-60830000D01*
G37*
G36*
X154851500Y-60830000D02*
G01*
X154901183Y-60821055D01*
X154914026Y-60815345D01*
X154942734Y-60775603D01*
X154942847Y-60772114D01*
X154942847Y-59854738D01*
X154915799Y-59812606D01*
X154914026Y-59811751D01*
X154866012Y-59798961D01*
X154851500Y-59798318D01*
X154802728Y-59805874D01*
X154788241Y-59811751D01*
X154760180Y-59852906D01*
X154760153Y-59854738D01*
X154760153Y-60772114D01*
X154786513Y-60814401D01*
X154788241Y-60815345D01*
X154836451Y-60829298D01*
X154851500Y-60830000D01*
G37*
G36*
X154278506Y-60837815D02*
G01*
X154331786Y-60834715D01*
X154382634Y-60825412D01*
X154431048Y-60809909D01*
X154440439Y-60806064D01*
X154483993Y-60782379D01*
X154521535Y-60751014D01*
X154553068Y-60711968D01*
X154558653Y-60703237D01*
X154581579Y-60654203D01*
X154594953Y-60602445D01*
X154601066Y-60550371D01*
X154602128Y-60514926D01*
X154602128Y-60121207D01*
X154600048Y-60072220D01*
X154592575Y-60021616D01*
X154577673Y-59971547D01*
X154558653Y-59933140D01*
X154528323Y-59892429D01*
X154491982Y-59859447D01*
X154449631Y-59834193D01*
X154440439Y-59830069D01*
X154392368Y-59813325D01*
X154341578Y-59802783D01*
X154288069Y-59798442D01*
X154277041Y-59798318D01*
X154223509Y-59800926D01*
X154173649Y-59808751D01*
X154122553Y-59823563D01*
X154103384Y-59831290D01*
X154059516Y-59854427D01*
X154018533Y-59885717D01*
X153985170Y-59923126D01*
X153960697Y-59966422D01*
X153946382Y-60015375D01*
X153942184Y-60064787D01*
X153949371Y-60114392D01*
X153964898Y-60136838D01*
X154012068Y-60153325D01*
X154033775Y-60154424D01*
X154082139Y-60147484D01*
X154097766Y-60140990D01*
X154124843Y-60099674D01*
X154125122Y-60095806D01*
X154130006Y-60055261D01*
X154149057Y-60009099D01*
X154185068Y-59974531D01*
X154192044Y-59970509D01*
X154239233Y-59956509D01*
X154271423Y-59954633D01*
X154320642Y-59960369D01*
X154366343Y-59981560D01*
X154382065Y-59995422D01*
X154408445Y-60038986D01*
X154419299Y-60089200D01*
X154420655Y-60118764D01*
X154420655Y-60517369D01*
X154416009Y-60570076D01*
X154398536Y-60618897D01*
X154381332Y-60641688D01*
X154340306Y-60668903D01*
X154290741Y-60680528D01*
X154268736Y-60681500D01*
X154218863Y-60675989D01*
X154192777Y-60665868D01*
X154155747Y-60633688D01*
X154151256Y-60626545D01*
X154133581Y-60580406D01*
X154132937Y-60577208D01*
X154125122Y-60528604D01*
X154101597Y-60485490D01*
X154097034Y-60482930D01*
X154048340Y-60470441D01*
X154034996Y-60469986D01*
X153985289Y-60477141D01*
X153964898Y-60488304D01*
X153943980Y-60532581D01*
X153942184Y-60559867D01*
X153946382Y-60610481D01*
X153960697Y-60661417D01*
X153985170Y-60707390D01*
X154018620Y-60747249D01*
X154059862Y-60780182D01*
X154104117Y-60804110D01*
X154153786Y-60821884D01*
X154202240Y-60832253D01*
X154254250Y-60837289D01*
X154278506Y-60837815D01*
G37*
G36*
X153546999Y-60837815D02*
G01*
X153597108Y-60835613D01*
X153649478Y-60827999D01*
X153698364Y-60814948D01*
X153712351Y-60809972D01*
X153759426Y-60789213D01*
X153802485Y-60762880D01*
X153829099Y-60740607D01*
X153859954Y-60701290D01*
X153872086Y-60656343D01*
X153861584Y-60614333D01*
X153832763Y-60575498D01*
X153791730Y-60559623D01*
X153749720Y-60575498D01*
X153710985Y-60607582D01*
X153704780Y-60612868D01*
X153662461Y-60640637D01*
X153642742Y-60649993D01*
X153593295Y-60663248D01*
X153552616Y-60665868D01*
X153502375Y-60660812D01*
X153474703Y-60652923D01*
X153432031Y-60628670D01*
X153417062Y-60613600D01*
X153396819Y-60567859D01*
X153395080Y-60545701D01*
X153404430Y-60495879D01*
X153419016Y-60471207D01*
X153455518Y-60436383D01*
X153483740Y-60418695D01*
X153529077Y-60395493D01*
X153572400Y-60375708D01*
X153617441Y-60355654D01*
X153662803Y-60334420D01*
X153668876Y-60331500D01*
X153712389Y-60307425D01*
X153752252Y-60279164D01*
X153757292Y-60275080D01*
X153793501Y-60238077D01*
X153820459Y-60196510D01*
X153822016Y-60193503D01*
X153838879Y-60146933D01*
X153846083Y-60096072D01*
X153846685Y-60074556D01*
X153843106Y-60024299D01*
X153831039Y-59976254D01*
X153816399Y-59944863D01*
X153786158Y-59902749D01*
X153748438Y-59868301D01*
X153736287Y-59859867D01*
X153690512Y-59834903D01*
X153644491Y-59817917D01*
X153625889Y-59812972D01*
X153576674Y-59803484D01*
X153527459Y-59798833D01*
X153504745Y-59798318D01*
X153454758Y-59800742D01*
X153428297Y-59803447D01*
X153378365Y-59811493D01*
X153339637Y-59821277D01*
X153292360Y-59839717D01*
X153266364Y-59856203D01*
X153238922Y-59898236D01*
X153237543Y-59912623D01*
X153245359Y-59950969D01*
X153269295Y-59989804D01*
X153310816Y-60006901D01*
X153355024Y-59993956D01*
X153400748Y-59971873D01*
X153411200Y-59967822D01*
X153460792Y-59956810D01*
X153504745Y-59954633D01*
X153553581Y-59958355D01*
X153590718Y-59967822D01*
X153633920Y-59991955D01*
X153645673Y-60004214D01*
X153663306Y-60051304D01*
X153663747Y-60061856D01*
X153650008Y-60109895D01*
X153639323Y-60123161D01*
X153600318Y-60153760D01*
X153574598Y-60167857D01*
X153529711Y-60188427D01*
X153486671Y-60206692D01*
X153441630Y-60226405D01*
X153396268Y-60248910D01*
X153390195Y-60252121D01*
X153346346Y-60278525D01*
X153305931Y-60309652D01*
X153300802Y-60314159D01*
X153266266Y-60351911D01*
X153240714Y-60394120D01*
X153236078Y-60404040D01*
X153220580Y-60451531D01*
X153213287Y-60502524D01*
X153212142Y-60535443D01*
X153215600Y-60588611D01*
X153225975Y-60636834D01*
X153245615Y-60684614D01*
X153255861Y-60702016D01*
X153286158Y-60741033D01*
X153322704Y-60773515D01*
X153365499Y-60799461D01*
X153374808Y-60803866D01*
X153423947Y-60821769D01*
X153471803Y-60832212D01*
X153523097Y-60837285D01*
X153546999Y-60837815D01*
G37*
G36*
X161267969Y-47330000D02*
G01*
X161317652Y-47321055D01*
X161330495Y-47315345D01*
X161359203Y-47275818D01*
X161359316Y-47272358D01*
X161359316Y-46520823D01*
X161404256Y-46565764D01*
X161421353Y-46575045D01*
X161436741Y-46578464D01*
X161479727Y-46555261D01*
X161495784Y-46508535D01*
X161495847Y-46505191D01*
X161487543Y-46468066D01*
X161461898Y-46439002D01*
X161296057Y-46312484D01*
X161278471Y-46301981D01*
X161256734Y-46298318D01*
X161209022Y-46310847D01*
X161202512Y-46314682D01*
X161176378Y-46357424D01*
X161176378Y-47272358D01*
X161202967Y-47314401D01*
X161204710Y-47315345D01*
X161252920Y-47329298D01*
X161267969Y-47330000D01*
G37*
G36*
X160981716Y-47330000D02*
G01*
X161030245Y-47315832D01*
X161033740Y-47313879D01*
X161061828Y-47272602D01*
X161061828Y-47136559D01*
X161054744Y-47085612D01*
X161033492Y-47038099D01*
X161029588Y-47032023D01*
X160997424Y-46990643D01*
X160960860Y-46953893D01*
X160945080Y-46940188D01*
X160905272Y-46907994D01*
X160863884Y-46876624D01*
X160835415Y-46856168D01*
X160793077Y-46825405D01*
X160752525Y-46794299D01*
X160726482Y-46773370D01*
X160687674Y-46738837D01*
X160652732Y-46701197D01*
X160641974Y-46687641D01*
X160617245Y-46642761D01*
X160609002Y-46595073D01*
X160618565Y-46545897D01*
X160622435Y-46536943D01*
X160652584Y-46498023D01*
X160664445Y-46489316D01*
X160712385Y-46472125D01*
X160739672Y-46470265D01*
X160789858Y-46478468D01*
X160827843Y-46499330D01*
X160856811Y-46540567D01*
X160864932Y-46590469D01*
X160864968Y-46594584D01*
X160887293Y-46638104D01*
X160890369Y-46640746D01*
X160936879Y-46660090D01*
X160960711Y-46661751D01*
X161009226Y-46648633D01*
X161019818Y-46640258D01*
X161040094Y-46593850D01*
X161042288Y-46561612D01*
X161038162Y-46512796D01*
X161024091Y-46464114D01*
X161000034Y-46420683D01*
X160967752Y-46383170D01*
X160929006Y-46352236D01*
X160888171Y-46329825D01*
X160839391Y-46311887D01*
X160788764Y-46301395D01*
X160741137Y-46298318D01*
X160691058Y-46301729D01*
X160642791Y-46311961D01*
X160596337Y-46329015D01*
X160587264Y-46333244D01*
X160544693Y-46357759D01*
X160504257Y-46391282D01*
X160470516Y-46431674D01*
X160445208Y-46478704D01*
X160431316Y-46527018D01*
X160426107Y-46580628D01*
X160426064Y-46586280D01*
X160429902Y-46636325D01*
X160442845Y-46687100D01*
X160458548Y-46722568D01*
X160485304Y-46766749D01*
X160517212Y-46807701D01*
X160541346Y-46833210D01*
X160580192Y-46869125D01*
X160620893Y-46902498D01*
X160649057Y-46923335D01*
X160690880Y-46952805D01*
X160730986Y-46980763D01*
X160756769Y-46998562D01*
X160797548Y-47028816D01*
X160835680Y-47063162D01*
X160839811Y-47067438D01*
X160866730Y-47109304D01*
X160872051Y-47139734D01*
X160872051Y-47173684D01*
X160480774Y-47173684D01*
X160439986Y-47196399D01*
X160423396Y-47242641D01*
X160423133Y-47250376D01*
X160435131Y-47298393D01*
X160439986Y-47306064D01*
X160480774Y-47330000D01*
X160981716Y-47330000D01*
G37*
G36*
X159988381Y-47337815D02*
G01*
X160037888Y-47331189D01*
X160062142Y-47322428D01*
X160099236Y-47290325D01*
X160105129Y-47275778D01*
X160377948Y-46388688D01*
X160380879Y-46374521D01*
X160362561Y-46334954D01*
X160320271Y-46309581D01*
X160316887Y-46308332D01*
X160268911Y-46298406D01*
X160264131Y-46298318D01*
X160224808Y-46306133D01*
X160203558Y-46334954D01*
X159988381Y-47100167D01*
X159774424Y-46334954D01*
X159751465Y-46306133D01*
X159712630Y-46298318D01*
X159663930Y-46307119D01*
X159660607Y-46308332D01*
X159617960Y-46332875D01*
X159615666Y-46334954D01*
X159597348Y-46374521D01*
X159598080Y-46380872D01*
X159598569Y-46388688D01*
X159870167Y-47275778D01*
X159901150Y-47316025D01*
X159913154Y-47322428D01*
X159961089Y-47335997D01*
X159988381Y-47337815D01*
G37*
G36*
X161096266Y-44837815D02*
G01*
X161147043Y-44835304D01*
X161200109Y-44826622D01*
X161249644Y-44811738D01*
X161263817Y-44806064D01*
X161307370Y-44782379D01*
X161344913Y-44751014D01*
X161376445Y-44711968D01*
X161382030Y-44703237D01*
X161404957Y-44654203D01*
X161418330Y-44602445D01*
X161424444Y-44550371D01*
X161425505Y-44514926D01*
X161425505Y-44121207D01*
X161423425Y-44072220D01*
X161415953Y-44021616D01*
X161401051Y-43971547D01*
X161382030Y-43933140D01*
X161351772Y-43892429D01*
X161315646Y-43859447D01*
X161273652Y-43834193D01*
X161264549Y-43830069D01*
X161216865Y-43813325D01*
X161166318Y-43802783D01*
X161112909Y-43798442D01*
X161101884Y-43798318D01*
X161048352Y-43800849D01*
X160998492Y-43808441D01*
X160947396Y-43822815D01*
X160928227Y-43830314D01*
X160884182Y-43853030D01*
X160842951Y-43884299D01*
X160809281Y-43922149D01*
X160784390Y-43966088D01*
X160769831Y-44015626D01*
X160765561Y-44065519D01*
X160773569Y-44114663D01*
X160788276Y-44134396D01*
X160835445Y-44150653D01*
X160857152Y-44151737D01*
X160906383Y-44144593D01*
X160920411Y-44139036D01*
X160948218Y-44098049D01*
X160948499Y-44094096D01*
X160956605Y-44044545D01*
X160961933Y-44028639D01*
X160990188Y-43987056D01*
X161004187Y-43975882D01*
X161051141Y-43958140D01*
X161096266Y-43954633D01*
X161147391Y-43961365D01*
X161191630Y-43983671D01*
X161204710Y-43995422D01*
X161231591Y-44038986D01*
X161242651Y-44089200D01*
X161244033Y-44118764D01*
X161244033Y-44517369D01*
X161239386Y-44569328D01*
X161221914Y-44617936D01*
X161204710Y-44640956D01*
X161164479Y-44668671D01*
X161117074Y-44680510D01*
X161096266Y-44681500D01*
X161045181Y-44674526D01*
X161001076Y-44651419D01*
X160988066Y-44639246D01*
X160961019Y-44593905D01*
X160949890Y-44541721D01*
X160948499Y-44511018D01*
X160948499Y-44423579D01*
X161062561Y-44423579D01*
X161104082Y-44401598D01*
X161118722Y-44354867D01*
X161118736Y-44353237D01*
X161104082Y-44305122D01*
X161062561Y-44282896D01*
X160823203Y-44282896D01*
X160780460Y-44300725D01*
X160765561Y-44342735D01*
X160765561Y-44511995D01*
X160767653Y-44561410D01*
X160775168Y-44612502D01*
X160790153Y-44663121D01*
X160809281Y-44702016D01*
X160839577Y-44743008D01*
X160876123Y-44776224D01*
X160918918Y-44801664D01*
X160928227Y-44805819D01*
X160976961Y-44822692D01*
X161029130Y-44833316D01*
X161079018Y-44837534D01*
X161096266Y-44837815D01*
G37*
G36*
X160534752Y-44830000D02*
G01*
X160584435Y-44821055D01*
X160597278Y-44815345D01*
X160625986Y-44775603D01*
X160626099Y-44772114D01*
X160626099Y-43856203D01*
X160600768Y-43814315D01*
X160597278Y-43812484D01*
X160549264Y-43798996D01*
X160534752Y-43798318D01*
X160484930Y-43803741D01*
X160479309Y-43805401D01*
X160438520Y-43833000D01*
X160409999Y-43873722D01*
X160398220Y-43895771D01*
X160126866Y-44423335D01*
X160126866Y-43854982D01*
X160099819Y-43812607D01*
X160098046Y-43811751D01*
X160049799Y-43798961D01*
X160035275Y-43798318D01*
X159986503Y-43805874D01*
X159972016Y-43811751D01*
X159943956Y-43852906D01*
X159943928Y-43854738D01*
X159943928Y-44772114D01*
X159970288Y-44814401D01*
X159972016Y-44815345D01*
X160020227Y-44829298D01*
X160035275Y-44830000D01*
X160084676Y-44821615D01*
X160095115Y-44817299D01*
X160132634Y-44783761D01*
X160139323Y-44772358D01*
X160443405Y-44206692D01*
X160443405Y-44772358D01*
X160469765Y-44814401D01*
X160471493Y-44815345D01*
X160519703Y-44829298D01*
X160534752Y-44830000D01*
G37*
G36*
X159709061Y-43798723D02*
G01*
X159756350Y-43814926D01*
X159778087Y-43853761D01*
X159778087Y-44773579D01*
X159756350Y-44813147D01*
X159746127Y-44819713D01*
X159697976Y-44830000D01*
X159449092Y-44830000D01*
X159431589Y-44829720D01*
X159381166Y-44825534D01*
X159328811Y-44814992D01*
X159280321Y-44798248D01*
X159271097Y-44794124D01*
X159228560Y-44768870D01*
X159191986Y-44735888D01*
X159161374Y-44695177D01*
X159141926Y-44656663D01*
X159126689Y-44606511D01*
X159119049Y-44555865D01*
X159116922Y-44506866D01*
X159116922Y-44121451D01*
X159116997Y-44119009D01*
X159299860Y-44119009D01*
X159299860Y-44509309D01*
X159301251Y-44538881D01*
X159312379Y-44589165D01*
X159339427Y-44632896D01*
X159352473Y-44644646D01*
X159397059Y-44666952D01*
X159449092Y-44673684D01*
X159595394Y-44673684D01*
X159595394Y-43954633D01*
X159447627Y-43954633D01*
X159430870Y-43955270D01*
X159382786Y-43966145D01*
X159339427Y-43995422D01*
X159322117Y-44018442D01*
X159304535Y-44067049D01*
X159299860Y-44119009D01*
X159116997Y-44119009D01*
X159118007Y-44086006D01*
X159124258Y-44033933D01*
X159137933Y-43982174D01*
X159161374Y-43933140D01*
X159167019Y-43924379D01*
X159198824Y-43885215D01*
X159236591Y-43853778D01*
X159280321Y-43830069D01*
X159299253Y-43822628D01*
X159349290Y-43808364D01*
X159397626Y-43800829D01*
X159449092Y-43798318D01*
X159697976Y-43798318D01*
X159709061Y-43798723D01*
G37*
G36*
X161846824Y-40798527D02*
G01*
X161689043Y-40798527D01*
X161637131Y-40791836D01*
X161592946Y-40769663D01*
X161580111Y-40757983D01*
X161553731Y-40714512D01*
X161542877Y-40664526D01*
X161541521Y-40635129D01*
X161541521Y-40618032D01*
X161546081Y-40566379D01*
X161563228Y-40518060D01*
X161580111Y-40495177D01*
X161623266Y-40466076D01*
X161671954Y-40455267D01*
X161689043Y-40454633D01*
X161846824Y-40454633D01*
X161846824Y-40798527D01*
G37*
G36*
X162992812Y-40751632D02*
G01*
X162837962Y-40751632D01*
X162786635Y-40746110D01*
X162738933Y-40726014D01*
X162728297Y-40718171D01*
X162699020Y-40676390D01*
X162688504Y-40627973D01*
X162687508Y-40603866D01*
X162692328Y-40552302D01*
X162710452Y-40506916D01*
X162728297Y-40487362D01*
X162772708Y-40463870D01*
X162821182Y-40455145D01*
X162837962Y-40454633D01*
X162992812Y-40454633D01*
X162992812Y-40751632D01*
G37*
G36*
X164797991Y-41448926D02*
G01*
X160500089Y-41448926D01*
X160500089Y-40375010D01*
X160611200Y-40375010D01*
X160621806Y-40423870D01*
X160626099Y-40431430D01*
X160669085Y-40454633D01*
X161067201Y-40454633D01*
X161067201Y-40751632D01*
X160853244Y-40751632D01*
X160810502Y-40773126D01*
X160795661Y-40819837D01*
X160795603Y-40823440D01*
X160809036Y-40869602D01*
X160853244Y-40892316D01*
X161067201Y-40892316D01*
X161067201Y-41173684D01*
X160669085Y-41173684D01*
X160626099Y-41197131D01*
X160611433Y-41245217D01*
X160611200Y-41253307D01*
X160623006Y-41302237D01*
X160624633Y-41305331D01*
X160667164Y-41329975D01*
X160669085Y-41330000D01*
X161169783Y-41330000D01*
X161218323Y-41318780D01*
X161224738Y-41315345D01*
X161249895Y-41272114D01*
X161249895Y-40613147D01*
X161358583Y-40613147D01*
X161358583Y-40618032D01*
X161358583Y-40621451D01*
X161361315Y-40676055D01*
X161369513Y-40725071D01*
X161385267Y-40773536D01*
X161402302Y-40806343D01*
X161432575Y-40846257D01*
X161473038Y-40881511D01*
X161516334Y-40905697D01*
X161521004Y-40907704D01*
X161569738Y-40924319D01*
X161621907Y-40934780D01*
X161671796Y-40938934D01*
X161689043Y-40939211D01*
X161846824Y-40939211D01*
X161846824Y-41271381D01*
X161873184Y-41314141D01*
X161874912Y-41315101D01*
X161923123Y-41329287D01*
X161938171Y-41330000D01*
X161987855Y-41321055D01*
X162000697Y-41315345D01*
X162029405Y-41275603D01*
X162029518Y-41272114D01*
X162029518Y-40354738D01*
X162197557Y-40354738D01*
X162197557Y-41272114D01*
X162223917Y-41314401D01*
X162225645Y-41315345D01*
X162273856Y-41329298D01*
X162288904Y-41330000D01*
X162338587Y-41321055D01*
X162351430Y-41315345D01*
X162380138Y-41275603D01*
X162380251Y-41272114D01*
X162380251Y-41233279D01*
X162497487Y-41233279D01*
X162514340Y-41278953D01*
X162550938Y-41312158D01*
X162557327Y-41315833D01*
X162604504Y-41329778D01*
X162611549Y-41330000D01*
X162647452Y-41318764D01*
X162674808Y-41285792D01*
X162874598Y-40892316D01*
X162992812Y-40892316D01*
X162992812Y-41270648D01*
X163017498Y-41312881D01*
X163020900Y-41314856D01*
X163069110Y-41329275D01*
X163084159Y-41330000D01*
X163133842Y-41321055D01*
X163146685Y-41315345D01*
X163175393Y-41275603D01*
X163175505Y-41272114D01*
X163175505Y-40383558D01*
X163268562Y-40383558D01*
X163277655Y-40431900D01*
X163283461Y-40443886D01*
X163324690Y-40470239D01*
X163326448Y-40470265D01*
X163531612Y-40470265D01*
X163531612Y-41272602D01*
X163558888Y-41314416D01*
X163560676Y-41315345D01*
X163608690Y-41329298D01*
X163623203Y-41330000D01*
X163671975Y-41321756D01*
X163686461Y-41315345D01*
X163714522Y-41274345D01*
X163714549Y-41272602D01*
X163714549Y-41035443D01*
X164026936Y-41035443D01*
X164030394Y-41088611D01*
X164040769Y-41136834D01*
X164060409Y-41184614D01*
X164070655Y-41202016D01*
X164100952Y-41241033D01*
X164137498Y-41273515D01*
X164180293Y-41299461D01*
X164189602Y-41303866D01*
X164238741Y-41321769D01*
X164286597Y-41332212D01*
X164337891Y-41337285D01*
X164361793Y-41337815D01*
X164411903Y-41335613D01*
X164464272Y-41327999D01*
X164513158Y-41314948D01*
X164527145Y-41309972D01*
X164574220Y-41289213D01*
X164617279Y-41262880D01*
X164643893Y-41240607D01*
X164674748Y-41201290D01*
X164686880Y-41156343D01*
X164676378Y-41114333D01*
X164647557Y-41075498D01*
X164606524Y-41059623D01*
X164564515Y-41075498D01*
X164525779Y-41107582D01*
X164519574Y-41112868D01*
X164477255Y-41140637D01*
X164457536Y-41149993D01*
X164408089Y-41163248D01*
X164367411Y-41165868D01*
X164317169Y-41160812D01*
X164289497Y-41152923D01*
X164246825Y-41128670D01*
X164231856Y-41113600D01*
X164211613Y-41067859D01*
X164209874Y-41045701D01*
X164219224Y-40995879D01*
X164233810Y-40971207D01*
X164270313Y-40936383D01*
X164298534Y-40918695D01*
X164343871Y-40895493D01*
X164387194Y-40875708D01*
X164432235Y-40855654D01*
X164477597Y-40834420D01*
X164483670Y-40831500D01*
X164527183Y-40807425D01*
X164567047Y-40779164D01*
X164572086Y-40775080D01*
X164608295Y-40738077D01*
X164635254Y-40696510D01*
X164636810Y-40693503D01*
X164653674Y-40646933D01*
X164660877Y-40596072D01*
X164661479Y-40574556D01*
X164657900Y-40524299D01*
X164645833Y-40476254D01*
X164631193Y-40444863D01*
X164600952Y-40402749D01*
X164563232Y-40368301D01*
X164551081Y-40359867D01*
X164505307Y-40334903D01*
X164459285Y-40317917D01*
X164440683Y-40312972D01*
X164391468Y-40303484D01*
X164342254Y-40298833D01*
X164319539Y-40298318D01*
X164269552Y-40300742D01*
X164243091Y-40303447D01*
X164193159Y-40311493D01*
X164154431Y-40321277D01*
X164107155Y-40339717D01*
X164081158Y-40356203D01*
X164053716Y-40398236D01*
X164052337Y-40412623D01*
X164060153Y-40450969D01*
X164084089Y-40489804D01*
X164125610Y-40506901D01*
X164169818Y-40493956D01*
X164215542Y-40471873D01*
X164225994Y-40467822D01*
X164275586Y-40456810D01*
X164319539Y-40454633D01*
X164368375Y-40458355D01*
X164405512Y-40467822D01*
X164448714Y-40491955D01*
X164460467Y-40504214D01*
X164478100Y-40551304D01*
X164478541Y-40561856D01*
X164464802Y-40609895D01*
X164454117Y-40623161D01*
X164415113Y-40653760D01*
X164389392Y-40667857D01*
X164344506Y-40688427D01*
X164301465Y-40706692D01*
X164256424Y-40726405D01*
X164211062Y-40748910D01*
X164204989Y-40752121D01*
X164161140Y-40778525D01*
X164120725Y-40809652D01*
X164115596Y-40814159D01*
X164081060Y-40851911D01*
X164055508Y-40894120D01*
X164050872Y-40904040D01*
X164035374Y-40951531D01*
X164028081Y-41002524D01*
X164026936Y-41035443D01*
X163714549Y-41035443D01*
X163714549Y-40470265D01*
X163921423Y-40470265D01*
X163963677Y-40443886D01*
X163978523Y-40395949D01*
X163979064Y-40383558D01*
X163969153Y-40334235D01*
X163965143Y-40325673D01*
X163923255Y-40298344D01*
X163921423Y-40298318D01*
X163326448Y-40298318D01*
X163283743Y-40322360D01*
X163281995Y-40325673D01*
X163268890Y-40374031D01*
X163268562Y-40383558D01*
X163175505Y-40383558D01*
X163175505Y-40353761D01*
X163159385Y-40314926D01*
X163116399Y-40298318D01*
X162837962Y-40298318D01*
X162787146Y-40300404D01*
X162733947Y-40307617D01*
X162684182Y-40319982D01*
X162669923Y-40324696D01*
X162621783Y-40347160D01*
X162580801Y-40378282D01*
X162549755Y-40414089D01*
X162525927Y-40458148D01*
X162512028Y-40505795D01*
X162505673Y-40554507D01*
X162504570Y-40587990D01*
X162505427Y-40603866D01*
X162507399Y-40640377D01*
X162516936Y-40691010D01*
X162528506Y-40724521D01*
X162552816Y-40769421D01*
X162586333Y-40808086D01*
X162593963Y-40814647D01*
X162635465Y-40842665D01*
X162682120Y-40863062D01*
X162688729Y-40865205D01*
X162503105Y-41210565D01*
X162498953Y-41222777D01*
X162497487Y-41233279D01*
X162380251Y-41233279D01*
X162380251Y-40354738D01*
X162353203Y-40312606D01*
X162351430Y-40311751D01*
X162303416Y-40298961D01*
X162288904Y-40298318D01*
X162240132Y-40305874D01*
X162225645Y-40311751D01*
X162197585Y-40352906D01*
X162197557Y-40354738D01*
X162029518Y-40354738D01*
X162029518Y-40353761D01*
X162009979Y-40314926D01*
X161963010Y-40298383D01*
X161959176Y-40298318D01*
X161677808Y-40298318D01*
X161628622Y-40300752D01*
X161577188Y-40309167D01*
X161529140Y-40323593D01*
X161515387Y-40329092D01*
X161469123Y-40354810D01*
X161430074Y-40389647D01*
X161400837Y-40429232D01*
X161378555Y-40476893D01*
X161365556Y-40527414D01*
X161359614Y-40578389D01*
X161358583Y-40613147D01*
X161249895Y-40613147D01*
X161249895Y-40356203D01*
X161224738Y-40313217D01*
X161177107Y-40298551D01*
X161169783Y-40298318D01*
X160669085Y-40298318D01*
X160625490Y-40321469D01*
X160624633Y-40322986D01*
X160611252Y-40371601D01*
X160611200Y-40375010D01*
X160500089Y-40375010D01*
X160500089Y-40187207D01*
X164797991Y-40187207D01*
X164797991Y-41448926D01*
G37*
%LPC*%
D12*
%TO.C,J2*%
X163000000Y-47000000D03*
D13*
X163000000Y-44460000D03*
%TD*%
%LPD*%
M02*
