%TF.GenerationSoftware,KiCad,Pcbnew,8.0.4*%
%TF.CreationDate,2024-12-22T16:55:12+00:00*%
%TF.ProjectId,EuroClack_Mini_speaker_MKII_panel,4575726f-436c-4616-936b-5f4d696e695f,rev?*%
%TF.SameCoordinates,Original*%
%TF.FileFunction,Copper,L2,Bot*%
%TF.FilePolarity,Positive*%
%FSLAX46Y46*%
G04 Gerber Fmt 4.6, Leading zero omitted, Abs format (unit mm)*
G04 Created by KiCad (PCBNEW 8.0.4) date 2024-12-22 16:55:12*
%MOMM*%
%LPD*%
G01*
G04 APERTURE LIST*
%TA.AperFunction,ComponentPad*%
%ADD10O,6.000000X4.200000*%
%TD*%
G04 APERTURE END LIST*
D10*
%TO.P,REF\u002A\u002A,1*%
%TO.N,N/C*%
X157000000Y-150500000D03*
%TD*%
%TO.P,REF\u002A\u002A,1*%
%TO.N,N/C*%
X121500000Y-28000000D03*
%TD*%
%TO.P,REF\u002A\u002A,1*%
%TO.N,N/C*%
X121500000Y-150500000D03*
%TD*%
%TO.P,REF\u002A\u002A,1*%
%TO.N,N/C*%
X157000000Y-28000000D03*
%TD*%
%TA.AperFunction,NonConductor*%
G36*
X119326693Y-25520185D02*
G01*
X119372448Y-25572989D01*
X119382392Y-25642147D01*
X119353367Y-25705703D01*
X119325626Y-25729494D01*
X119092795Y-25875791D01*
X118864435Y-26057901D01*
X118657901Y-26264435D01*
X118475791Y-26492795D01*
X118320393Y-26740109D01*
X118193665Y-27003261D01*
X118097197Y-27278953D01*
X118097196Y-27278955D01*
X118032202Y-27563714D01*
X118032199Y-27563728D01*
X117999500Y-27853952D01*
X117999500Y-28146047D01*
X118032199Y-28436271D01*
X118032202Y-28436285D01*
X118097196Y-28721044D01*
X118097197Y-28721046D01*
X118193665Y-28996738D01*
X118320393Y-29259890D01*
X118320395Y-29259893D01*
X118475792Y-29507206D01*
X118657902Y-29735565D01*
X118864435Y-29942098D01*
X119092794Y-30124208D01*
X119340107Y-30279605D01*
X119603263Y-30406335D01*
X119878955Y-30502803D01*
X120163714Y-30567798D01*
X120163723Y-30567799D01*
X120163728Y-30567800D01*
X120357210Y-30589599D01*
X120453953Y-30600499D01*
X120453956Y-30600500D01*
X120453959Y-30600500D01*
X122546044Y-30600500D01*
X122546045Y-30600499D01*
X122694371Y-30583787D01*
X122836271Y-30567800D01*
X122836274Y-30567799D01*
X122836286Y-30567798D01*
X123121045Y-30502803D01*
X123396737Y-30406335D01*
X123659893Y-30279605D01*
X123907206Y-30124208D01*
X124135565Y-29942098D01*
X124342098Y-29735565D01*
X124524208Y-29507206D01*
X124679605Y-29259893D01*
X124806335Y-28996737D01*
X124902803Y-28721045D01*
X124967798Y-28436286D01*
X125000500Y-28146041D01*
X125000500Y-27853959D01*
X124967798Y-27563714D01*
X124902803Y-27278955D01*
X124806335Y-27003263D01*
X124679605Y-26740107D01*
X124524208Y-26492794D01*
X124342098Y-26264435D01*
X124135565Y-26057902D01*
X123907206Y-25875792D01*
X123674374Y-25729494D01*
X123628083Y-25677159D01*
X123617435Y-25608106D01*
X123645810Y-25544257D01*
X123704199Y-25505885D01*
X123740346Y-25500500D01*
X154759654Y-25500500D01*
X154826693Y-25520185D01*
X154872448Y-25572989D01*
X154882392Y-25642147D01*
X154853367Y-25705703D01*
X154825626Y-25729494D01*
X154592795Y-25875791D01*
X154364435Y-26057901D01*
X154157901Y-26264435D01*
X153975791Y-26492795D01*
X153820393Y-26740109D01*
X153693665Y-27003261D01*
X153597197Y-27278953D01*
X153597196Y-27278955D01*
X153532202Y-27563714D01*
X153532199Y-27563728D01*
X153499500Y-27853952D01*
X153499500Y-28146047D01*
X153532199Y-28436271D01*
X153532202Y-28436285D01*
X153597196Y-28721044D01*
X153597197Y-28721046D01*
X153693665Y-28996738D01*
X153820393Y-29259890D01*
X153820395Y-29259893D01*
X153975792Y-29507206D01*
X154157902Y-29735565D01*
X154364435Y-29942098D01*
X154592794Y-30124208D01*
X154840107Y-30279605D01*
X155103263Y-30406335D01*
X155378955Y-30502803D01*
X155663714Y-30567798D01*
X155663723Y-30567799D01*
X155663728Y-30567800D01*
X155857210Y-30589599D01*
X155953953Y-30600499D01*
X155953956Y-30600500D01*
X155953959Y-30600500D01*
X158046044Y-30600500D01*
X158046045Y-30600499D01*
X158194371Y-30583787D01*
X158336271Y-30567800D01*
X158336274Y-30567799D01*
X158336286Y-30567798D01*
X158621045Y-30502803D01*
X158896737Y-30406335D01*
X159159893Y-30279605D01*
X159407206Y-30124208D01*
X159635565Y-29942098D01*
X159842098Y-29735565D01*
X160024208Y-29507206D01*
X160179605Y-29259893D01*
X160306335Y-28996737D01*
X160402803Y-28721045D01*
X160467798Y-28436286D01*
X160500500Y-28146041D01*
X160500500Y-27853959D01*
X160467798Y-27563714D01*
X160402803Y-27278955D01*
X160306335Y-27003263D01*
X160179605Y-26740107D01*
X160024208Y-26492794D01*
X159842098Y-26264435D01*
X159635565Y-26057902D01*
X159407206Y-25875792D01*
X159174374Y-25729494D01*
X159128083Y-25677159D01*
X159117435Y-25608106D01*
X159145810Y-25544257D01*
X159204199Y-25505885D01*
X159240346Y-25500500D01*
X163875500Y-25500500D01*
X163942539Y-25520185D01*
X163988294Y-25572989D01*
X163999500Y-25624500D01*
X163999500Y-152875500D01*
X163979815Y-152942539D01*
X163927011Y-152988294D01*
X163875500Y-152999500D01*
X159240346Y-152999500D01*
X159173307Y-152979815D01*
X159127552Y-152927011D01*
X159117608Y-152857853D01*
X159146633Y-152794297D01*
X159174374Y-152770506D01*
X159176577Y-152769121D01*
X159407206Y-152624208D01*
X159635565Y-152442098D01*
X159842098Y-152235565D01*
X160024208Y-152007206D01*
X160179605Y-151759893D01*
X160306335Y-151496737D01*
X160402803Y-151221045D01*
X160467798Y-150936286D01*
X160500500Y-150646041D01*
X160500500Y-150353959D01*
X160467798Y-150063714D01*
X160402803Y-149778955D01*
X160306335Y-149503263D01*
X160179605Y-149240107D01*
X160024208Y-148992794D01*
X159842098Y-148764435D01*
X159635565Y-148557902D01*
X159407206Y-148375792D01*
X159159893Y-148220395D01*
X159159890Y-148220393D01*
X158896738Y-148093665D01*
X158621046Y-147997197D01*
X158621044Y-147997196D01*
X158401280Y-147947036D01*
X158336286Y-147932202D01*
X158336283Y-147932201D01*
X158336271Y-147932199D01*
X158046047Y-147899500D01*
X158046041Y-147899500D01*
X155953959Y-147899500D01*
X155953952Y-147899500D01*
X155663728Y-147932199D01*
X155663714Y-147932202D01*
X155378955Y-147997196D01*
X155378953Y-147997197D01*
X155103261Y-148093665D01*
X154840109Y-148220393D01*
X154592795Y-148375791D01*
X154364435Y-148557901D01*
X154157901Y-148764435D01*
X153975791Y-148992795D01*
X153820393Y-149240109D01*
X153693665Y-149503261D01*
X153597197Y-149778953D01*
X153597196Y-149778955D01*
X153532202Y-150063714D01*
X153532199Y-150063728D01*
X153499500Y-150353952D01*
X153499500Y-150646047D01*
X153532199Y-150936271D01*
X153532202Y-150936285D01*
X153597196Y-151221044D01*
X153597197Y-151221046D01*
X153693665Y-151496738D01*
X153820393Y-151759890D01*
X153820395Y-151759893D01*
X153975792Y-152007206D01*
X154157902Y-152235565D01*
X154364435Y-152442098D01*
X154592794Y-152624208D01*
X154821259Y-152767762D01*
X154825626Y-152770506D01*
X154871917Y-152822841D01*
X154882565Y-152891894D01*
X154854190Y-152955743D01*
X154795801Y-152994115D01*
X154759654Y-152999500D01*
X123740346Y-152999500D01*
X123673307Y-152979815D01*
X123627552Y-152927011D01*
X123617608Y-152857853D01*
X123646633Y-152794297D01*
X123674374Y-152770506D01*
X123676577Y-152769121D01*
X123907206Y-152624208D01*
X124135565Y-152442098D01*
X124342098Y-152235565D01*
X124524208Y-152007206D01*
X124679605Y-151759893D01*
X124806335Y-151496737D01*
X124902803Y-151221045D01*
X124967798Y-150936286D01*
X125000500Y-150646041D01*
X125000500Y-150353959D01*
X124967798Y-150063714D01*
X124902803Y-149778955D01*
X124806335Y-149503263D01*
X124679605Y-149240107D01*
X124524208Y-148992794D01*
X124342098Y-148764435D01*
X124135565Y-148557902D01*
X123907206Y-148375792D01*
X123659893Y-148220395D01*
X123659890Y-148220393D01*
X123396738Y-148093665D01*
X123121046Y-147997197D01*
X123121044Y-147997196D01*
X122901280Y-147947036D01*
X122836286Y-147932202D01*
X122836283Y-147932201D01*
X122836271Y-147932199D01*
X122546047Y-147899500D01*
X122546041Y-147899500D01*
X120453959Y-147899500D01*
X120453952Y-147899500D01*
X120163728Y-147932199D01*
X120163714Y-147932202D01*
X119878955Y-147997196D01*
X119878953Y-147997197D01*
X119603261Y-148093665D01*
X119340109Y-148220393D01*
X119092795Y-148375791D01*
X118864435Y-148557901D01*
X118657901Y-148764435D01*
X118475791Y-148992795D01*
X118320393Y-149240109D01*
X118193665Y-149503261D01*
X118097197Y-149778953D01*
X118097196Y-149778955D01*
X118032202Y-150063714D01*
X118032199Y-150063728D01*
X117999500Y-150353952D01*
X117999500Y-150646047D01*
X118032199Y-150936271D01*
X118032202Y-150936285D01*
X118097196Y-151221044D01*
X118097197Y-151221046D01*
X118193665Y-151496738D01*
X118320393Y-151759890D01*
X118320395Y-151759893D01*
X118475792Y-152007206D01*
X118657902Y-152235565D01*
X118864435Y-152442098D01*
X119092794Y-152624208D01*
X119321259Y-152767762D01*
X119325626Y-152770506D01*
X119371917Y-152822841D01*
X119382565Y-152891894D01*
X119354190Y-152955743D01*
X119295801Y-152994115D01*
X119259654Y-152999500D01*
X114624500Y-152999500D01*
X114557461Y-152979815D01*
X114511706Y-152927011D01*
X114500500Y-152875500D01*
X114500500Y-134249999D01*
X121394559Y-134249999D01*
X121394559Y-134250000D01*
X121414310Y-134626872D01*
X121473346Y-134999607D01*
X121473347Y-134999614D01*
X121571023Y-135364147D01*
X121706267Y-135716468D01*
X121877599Y-136052725D01*
X122083135Y-136369223D01*
X122083137Y-136369225D01*
X122320635Y-136662511D01*
X122587489Y-136929365D01*
X122750841Y-137061644D01*
X122880776Y-137166864D01*
X123192473Y-137369282D01*
X123197279Y-137372403D01*
X123533535Y-137543734D01*
X123885857Y-137678978D01*
X124250387Y-137776653D01*
X124623129Y-137835690D01*
X124979155Y-137854348D01*
X124999999Y-137855441D01*
X125000000Y-137855441D01*
X125000001Y-137855441D01*
X125019752Y-137854405D01*
X125376871Y-137835690D01*
X125749613Y-137776653D01*
X126114143Y-137678978D01*
X126466465Y-137543734D01*
X126802721Y-137372403D01*
X127119225Y-137166863D01*
X127412511Y-136929365D01*
X127679365Y-136662511D01*
X127916863Y-136369225D01*
X128122403Y-136052721D01*
X128293734Y-135716465D01*
X128428978Y-135364143D01*
X128526653Y-134999613D01*
X128585690Y-134626871D01*
X128605441Y-134250000D01*
X149294434Y-134250000D01*
X149314685Y-134662218D01*
X149314685Y-134662223D01*
X149314686Y-134662227D01*
X149375244Y-135070471D01*
X149425776Y-135272205D01*
X149472327Y-135458048D01*
X149475527Y-135470821D01*
X149614555Y-135859379D01*
X149614562Y-135859395D01*
X149614564Y-135859400D01*
X149791022Y-136232490D01*
X150003200Y-136586487D01*
X150072980Y-136680575D01*
X150249058Y-136917988D01*
X150526215Y-137223784D01*
X150753058Y-137429382D01*
X150832017Y-137500946D01*
X151163513Y-137746800D01*
X151517510Y-137958978D01*
X151890600Y-138135436D01*
X151890609Y-138135439D01*
X151890620Y-138135444D01*
X152251738Y-138264654D01*
X152279189Y-138274476D01*
X152679535Y-138374757D01*
X153087782Y-138435315D01*
X153500000Y-138455566D01*
X153912218Y-138435315D01*
X154320465Y-138374757D01*
X154720811Y-138274476D01*
X154901380Y-138209866D01*
X155109379Y-138135444D01*
X155109385Y-138135441D01*
X155109400Y-138135436D01*
X155482490Y-137958978D01*
X155836487Y-137746800D01*
X156167983Y-137500946D01*
X156473784Y-137223784D01*
X156750946Y-136917983D01*
X156996800Y-136586487D01*
X157208978Y-136232490D01*
X157385436Y-135859400D01*
X157524476Y-135470811D01*
X157624757Y-135070465D01*
X157685315Y-134662218D01*
X157705566Y-134250000D01*
X157685315Y-133837782D01*
X157624757Y-133429535D01*
X157524476Y-133029189D01*
X157464579Y-132861789D01*
X157385444Y-132640620D01*
X157385437Y-132640604D01*
X157385436Y-132640600D01*
X157208978Y-132267510D01*
X156996800Y-131913513D01*
X156750946Y-131582017D01*
X156740630Y-131570635D01*
X156473784Y-131276215D01*
X156167988Y-130999058D01*
X155927935Y-130821023D01*
X155836487Y-130753200D01*
X155786680Y-130723347D01*
X155482493Y-130541024D01*
X155482494Y-130541024D01*
X155482490Y-130541022D01*
X155109400Y-130364564D01*
X155109396Y-130364562D01*
X155109395Y-130364562D01*
X155109379Y-130364555D01*
X154720821Y-130225527D01*
X154720815Y-130225525D01*
X154720811Y-130225524D01*
X154522205Y-130175776D01*
X154320471Y-130125244D01*
X154320466Y-130125243D01*
X154320465Y-130125243D01*
X154219577Y-130110277D01*
X153912227Y-130064686D01*
X153912223Y-130064685D01*
X153912218Y-130064685D01*
X153500000Y-130044434D01*
X153087782Y-130064685D01*
X153087776Y-130064685D01*
X153087772Y-130064686D01*
X152679528Y-130125244D01*
X152377316Y-130200944D01*
X152279189Y-130225524D01*
X152279186Y-130225524D01*
X152279178Y-130225527D01*
X151890620Y-130364555D01*
X151890604Y-130364562D01*
X151517506Y-130541024D01*
X151163515Y-130753198D01*
X150832011Y-130999058D01*
X150526215Y-131276215D01*
X150249058Y-131582011D01*
X150003198Y-131913515D01*
X149791024Y-132267506D01*
X149614562Y-132640604D01*
X149614555Y-132640620D01*
X149475527Y-133029178D01*
X149375244Y-133429528D01*
X149375243Y-133429535D01*
X149314685Y-133837782D01*
X149294434Y-134250000D01*
X128605441Y-134250000D01*
X128585690Y-133873129D01*
X128526653Y-133500387D01*
X128428978Y-133135857D01*
X128293734Y-132783535D01*
X128122403Y-132447280D01*
X128029516Y-132304246D01*
X127916864Y-132130776D01*
X127769063Y-131948257D01*
X127679365Y-131837489D01*
X127412511Y-131570635D01*
X127119225Y-131333137D01*
X127119223Y-131333135D01*
X126802725Y-131127599D01*
X126466468Y-130956267D01*
X126114147Y-130821023D01*
X125749614Y-130723347D01*
X125749607Y-130723346D01*
X125376872Y-130664310D01*
X125000001Y-130644559D01*
X124999999Y-130644559D01*
X124623127Y-130664310D01*
X124250392Y-130723346D01*
X124250385Y-130723347D01*
X123885852Y-130821023D01*
X123533531Y-130956267D01*
X123197275Y-131127599D01*
X122880776Y-131333135D01*
X122587493Y-131570631D01*
X122587485Y-131570638D01*
X122320638Y-131837485D01*
X122320631Y-131837493D01*
X122083135Y-132130776D01*
X121877599Y-132447275D01*
X121706267Y-132783531D01*
X121571023Y-133135852D01*
X121473347Y-133500385D01*
X121473346Y-133500392D01*
X121414310Y-133873127D01*
X121394559Y-134249999D01*
X114500500Y-134249999D01*
X114500500Y-64250000D01*
X118744482Y-64250000D01*
X118764552Y-65157035D01*
X118824724Y-66062282D01*
X118924878Y-66963981D01*
X119064820Y-67860374D01*
X119244278Y-68749704D01*
X119462892Y-69630206D01*
X119462895Y-69630216D01*
X119653830Y-70275677D01*
X119720252Y-70500216D01*
X119927502Y-71101633D01*
X120015829Y-71357949D01*
X120178524Y-71769935D01*
X120349066Y-72201793D01*
X120719295Y-73030049D01*
X121125805Y-73841133D01*
X121567791Y-74633438D01*
X121789292Y-74992216D01*
X122044394Y-75405420D01*
X122554676Y-76155563D01*
X122866572Y-76573082D01*
X123097646Y-76882409D01*
X123672225Y-77584512D01*
X124162400Y-78132146D01*
X124277300Y-78260515D01*
X124911687Y-78909094D01*
X125574141Y-79528978D01*
X126263367Y-80118952D01*
X126978015Y-80677862D01*
X127716686Y-81204614D01*
X128050697Y-81421173D01*
X128477942Y-81698181D01*
X128781485Y-81876429D01*
X129260268Y-82157583D01*
X130062158Y-82581935D01*
X130512110Y-82795127D01*
X130882025Y-82970397D01*
X130882029Y-82970399D01*
X130882034Y-82970401D01*
X131718290Y-83322221D01*
X132569290Y-83636706D01*
X133433368Y-83913241D01*
X134308832Y-84151285D01*
X135193969Y-84350370D01*
X136087046Y-84510108D01*
X136986314Y-84630186D01*
X137890013Y-84710369D01*
X138796375Y-84750500D01*
X138796383Y-84750500D01*
X139703617Y-84750500D01*
X139703625Y-84750500D01*
X140609987Y-84710369D01*
X141513686Y-84630186D01*
X142412954Y-84510108D01*
X143306031Y-84350370D01*
X144191168Y-84151285D01*
X145066632Y-83913241D01*
X145930710Y-83636706D01*
X146781710Y-83322221D01*
X147617966Y-82970401D01*
X148437842Y-82581935D01*
X149239732Y-82157583D01*
X150022066Y-81698176D01*
X150783314Y-81204614D01*
X151521985Y-80677862D01*
X152236633Y-80118952D01*
X152925859Y-79528978D01*
X153588313Y-78909094D01*
X154222700Y-78260515D01*
X154827777Y-77584509D01*
X155171748Y-77164194D01*
X155402353Y-76882409D01*
X155402360Y-76882400D01*
X155945324Y-76155563D01*
X156455606Y-75405420D01*
X156932207Y-74633440D01*
X157374194Y-73841134D01*
X157780703Y-73030052D01*
X158150937Y-72201784D01*
X158484171Y-71357949D01*
X158779753Y-70500200D01*
X159037105Y-69630216D01*
X159255723Y-68749700D01*
X159435179Y-67860376D01*
X159575121Y-66963984D01*
X159675276Y-66062280D01*
X159735448Y-65157028D01*
X159755518Y-64250000D01*
X159735448Y-63342972D01*
X159675276Y-62437720D01*
X159575121Y-61536016D01*
X159435179Y-60639624D01*
X159255723Y-59750300D01*
X159037105Y-58869784D01*
X158779753Y-57999800D01*
X158484171Y-57142051D01*
X158150937Y-56298216D01*
X157780703Y-55469948D01*
X157374194Y-54658866D01*
X156932207Y-53866560D01*
X156455606Y-53094580D01*
X155945324Y-52344437D01*
X155402360Y-51617600D01*
X155402353Y-51617590D01*
X154827774Y-50915487D01*
X154222706Y-50239492D01*
X154222700Y-50239485D01*
X153588313Y-49590906D01*
X152925859Y-48971022D01*
X152236633Y-48381048D01*
X151521985Y-47822138D01*
X150783314Y-47295386D01*
X150022066Y-46801824D01*
X150022057Y-46801818D01*
X149239737Y-46342420D01*
X149239738Y-46342420D01*
X149239732Y-46342417D01*
X148437842Y-45918065D01*
X148203334Y-45806952D01*
X147617974Y-45529602D01*
X146781706Y-45177777D01*
X145930700Y-44863290D01*
X145066647Y-44586763D01*
X144191165Y-44348714D01*
X143551198Y-44204773D01*
X143306031Y-44149630D01*
X143306028Y-44149629D01*
X143306026Y-44149629D01*
X142412951Y-43989891D01*
X141737681Y-43899723D01*
X141513686Y-43869814D01*
X140937796Y-43818716D01*
X140609990Y-43789631D01*
X140362797Y-43778686D01*
X139703625Y-43749500D01*
X138796375Y-43749500D01*
X138192133Y-43776254D01*
X137890009Y-43789631D01*
X137452934Y-43828411D01*
X136986314Y-43869814D01*
X136986307Y-43869815D01*
X136087048Y-43989891D01*
X135193973Y-44149629D01*
X134308834Y-44348714D01*
X133433352Y-44586763D01*
X132569299Y-44863290D01*
X131718293Y-45177777D01*
X130882025Y-45529602D01*
X130062164Y-45918062D01*
X129260262Y-46342420D01*
X128477942Y-46801818D01*
X127716679Y-47295390D01*
X126978017Y-47822136D01*
X126263364Y-48381050D01*
X125574142Y-48971020D01*
X124911689Y-49590904D01*
X124277293Y-50239492D01*
X123672225Y-50915487D01*
X123097646Y-51617590D01*
X122554671Y-52344444D01*
X122044393Y-53094580D01*
X121567791Y-53866561D01*
X121125805Y-54658866D01*
X120719295Y-55469950D01*
X120349066Y-56298206D01*
X120015824Y-57142064D01*
X119720252Y-57999783D01*
X119462892Y-58869793D01*
X119244278Y-59750295D01*
X119064820Y-60639625D01*
X118924878Y-61536018D01*
X118824724Y-62437717D01*
X118764552Y-63342964D01*
X118744482Y-64250000D01*
X114500500Y-64250000D01*
X114500500Y-25624500D01*
X114520185Y-25557461D01*
X114572989Y-25511706D01*
X114624500Y-25500500D01*
X119259654Y-25500500D01*
X119326693Y-25520185D01*
G37*
%TD.AperFunction*%
M02*
