%TF.GenerationSoftware,KiCad,Pcbnew,8.0.4*%
%TF.CreationDate,2024-12-22T16:55:13+00:00*%
%TF.ProjectId,EuroClack_Mini_speaker_MKII_panel,4575726f-436c-4616-936b-5f4d696e695f,rev?*%
%TF.SameCoordinates,Original*%
%TF.FileFunction,Other,Comment*%
%FSLAX46Y46*%
G04 Gerber Fmt 4.6, Leading zero omitted, Abs format (unit mm)*
G04 Created by KiCad (PCBNEW 8.0.4) date 2024-12-22 16:55:13*
%MOMM*%
%LPD*%
G01*
G04 APERTURE LIST*
%ADD10C,0.100000*%
%ADD11C,0.150000*%
%ADD12C,0.050000*%
G04 APERTURE END LIST*
D10*
X139250000Y-25000000D02*
X139250000Y-153500000D01*
X164500000Y-134250000D02*
X114000000Y-134250000D01*
X164500000Y-64250000D02*
X114000000Y-64250000D01*
X153500000Y-134250000D02*
X153500000Y-153500000D01*
X121500000Y-153500000D02*
X121500000Y-144250000D01*
X164500000Y-150500000D02*
X114000000Y-150500000D01*
X121500000Y-25000000D02*
X121500000Y-34250000D01*
X157000000Y-153500000D02*
X157000000Y-144250000D01*
X114000000Y-34250000D02*
X164500000Y-34250000D01*
X164500000Y-144250000D01*
X114000000Y-144250000D01*
X114000000Y-34250000D01*
X164500000Y-28000000D02*
X114000000Y-28000000D01*
X125000000Y-126000000D02*
X125000000Y-153500000D01*
X157000000Y-25000000D02*
X157000000Y-34250000D01*
D11*
X187054819Y-53916665D02*
X187054819Y-53297618D01*
X187054819Y-53297618D02*
X187435771Y-53630951D01*
X187435771Y-53630951D02*
X187435771Y-53488094D01*
X187435771Y-53488094D02*
X187483390Y-53392856D01*
X187483390Y-53392856D02*
X187531009Y-53345237D01*
X187531009Y-53345237D02*
X187626247Y-53297618D01*
X187626247Y-53297618D02*
X187864342Y-53297618D01*
X187864342Y-53297618D02*
X187959580Y-53345237D01*
X187959580Y-53345237D02*
X188007200Y-53392856D01*
X188007200Y-53392856D02*
X188054819Y-53488094D01*
X188054819Y-53488094D02*
X188054819Y-53773808D01*
X188054819Y-53773808D02*
X188007200Y-53869046D01*
X188007200Y-53869046D02*
X187959580Y-53916665D01*
X187054819Y-52678570D02*
X187054819Y-52583332D01*
X187054819Y-52583332D02*
X187102438Y-52488094D01*
X187102438Y-52488094D02*
X187150057Y-52440475D01*
X187150057Y-52440475D02*
X187245295Y-52392856D01*
X187245295Y-52392856D02*
X187435771Y-52345237D01*
X187435771Y-52345237D02*
X187673866Y-52345237D01*
X187673866Y-52345237D02*
X187864342Y-52392856D01*
X187864342Y-52392856D02*
X187959580Y-52440475D01*
X187959580Y-52440475D02*
X188007200Y-52488094D01*
X188007200Y-52488094D02*
X188054819Y-52583332D01*
X188054819Y-52583332D02*
X188054819Y-52678570D01*
X188054819Y-52678570D02*
X188007200Y-52773808D01*
X188007200Y-52773808D02*
X187959580Y-52821427D01*
X187959580Y-52821427D02*
X187864342Y-52869046D01*
X187864342Y-52869046D02*
X187673866Y-52916665D01*
X187673866Y-52916665D02*
X187435771Y-52916665D01*
X187435771Y-52916665D02*
X187245295Y-52869046D01*
X187245295Y-52869046D02*
X187150057Y-52821427D01*
X187150057Y-52821427D02*
X187102438Y-52773808D01*
X187102438Y-52773808D02*
X187054819Y-52678570D01*
X187959580Y-51916665D02*
X188007200Y-51869046D01*
X188007200Y-51869046D02*
X188054819Y-51916665D01*
X188054819Y-51916665D02*
X188007200Y-51964284D01*
X188007200Y-51964284D02*
X187959580Y-51916665D01*
X187959580Y-51916665D02*
X188054819Y-51916665D01*
X187054819Y-51249999D02*
X187054819Y-51154761D01*
X187054819Y-51154761D02*
X187102438Y-51059523D01*
X187102438Y-51059523D02*
X187150057Y-51011904D01*
X187150057Y-51011904D02*
X187245295Y-50964285D01*
X187245295Y-50964285D02*
X187435771Y-50916666D01*
X187435771Y-50916666D02*
X187673866Y-50916666D01*
X187673866Y-50916666D02*
X187864342Y-50964285D01*
X187864342Y-50964285D02*
X187959580Y-51011904D01*
X187959580Y-51011904D02*
X188007200Y-51059523D01*
X188007200Y-51059523D02*
X188054819Y-51154761D01*
X188054819Y-51154761D02*
X188054819Y-51249999D01*
X188054819Y-51249999D02*
X188007200Y-51345237D01*
X188007200Y-51345237D02*
X187959580Y-51392856D01*
X187959580Y-51392856D02*
X187864342Y-51440475D01*
X187864342Y-51440475D02*
X187673866Y-51488094D01*
X187673866Y-51488094D02*
X187435771Y-51488094D01*
X187435771Y-51488094D02*
X187245295Y-51440475D01*
X187245295Y-51440475D02*
X187150057Y-51392856D01*
X187150057Y-51392856D02*
X187102438Y-51345237D01*
X187102438Y-51345237D02*
X187054819Y-51249999D01*
X187054819Y-50297618D02*
X187054819Y-50202380D01*
X187054819Y-50202380D02*
X187102438Y-50107142D01*
X187102438Y-50107142D02*
X187150057Y-50059523D01*
X187150057Y-50059523D02*
X187245295Y-50011904D01*
X187245295Y-50011904D02*
X187435771Y-49964285D01*
X187435771Y-49964285D02*
X187673866Y-49964285D01*
X187673866Y-49964285D02*
X187864342Y-50011904D01*
X187864342Y-50011904D02*
X187959580Y-50059523D01*
X187959580Y-50059523D02*
X188007200Y-50107142D01*
X188007200Y-50107142D02*
X188054819Y-50202380D01*
X188054819Y-50202380D02*
X188054819Y-50297618D01*
X188054819Y-50297618D02*
X188007200Y-50392856D01*
X188007200Y-50392856D02*
X187959580Y-50440475D01*
X187959580Y-50440475D02*
X187864342Y-50488094D01*
X187864342Y-50488094D02*
X187673866Y-50535713D01*
X187673866Y-50535713D02*
X187435771Y-50535713D01*
X187435771Y-50535713D02*
X187245295Y-50488094D01*
X187245295Y-50488094D02*
X187150057Y-50440475D01*
X187150057Y-50440475D02*
X187102438Y-50392856D01*
X187102438Y-50392856D02*
X187054819Y-50297618D01*
X187054819Y-49345237D02*
X187054819Y-49249999D01*
X187054819Y-49249999D02*
X187102438Y-49154761D01*
X187102438Y-49154761D02*
X187150057Y-49107142D01*
X187150057Y-49107142D02*
X187245295Y-49059523D01*
X187245295Y-49059523D02*
X187435771Y-49011904D01*
X187435771Y-49011904D02*
X187673866Y-49011904D01*
X187673866Y-49011904D02*
X187864342Y-49059523D01*
X187864342Y-49059523D02*
X187959580Y-49107142D01*
X187959580Y-49107142D02*
X188007200Y-49154761D01*
X188007200Y-49154761D02*
X188054819Y-49249999D01*
X188054819Y-49249999D02*
X188054819Y-49345237D01*
X188054819Y-49345237D02*
X188007200Y-49440475D01*
X188007200Y-49440475D02*
X187959580Y-49488094D01*
X187959580Y-49488094D02*
X187864342Y-49535713D01*
X187864342Y-49535713D02*
X187673866Y-49583332D01*
X187673866Y-49583332D02*
X187435771Y-49583332D01*
X187435771Y-49583332D02*
X187245295Y-49535713D01*
X187245295Y-49535713D02*
X187150057Y-49488094D01*
X187150057Y-49488094D02*
X187102438Y-49440475D01*
X187102438Y-49440475D02*
X187054819Y-49345237D01*
X187054819Y-48392856D02*
X187054819Y-48297618D01*
X187054819Y-48297618D02*
X187102438Y-48202380D01*
X187102438Y-48202380D02*
X187150057Y-48154761D01*
X187150057Y-48154761D02*
X187245295Y-48107142D01*
X187245295Y-48107142D02*
X187435771Y-48059523D01*
X187435771Y-48059523D02*
X187673866Y-48059523D01*
X187673866Y-48059523D02*
X187864342Y-48107142D01*
X187864342Y-48107142D02*
X187959580Y-48154761D01*
X187959580Y-48154761D02*
X188007200Y-48202380D01*
X188007200Y-48202380D02*
X188054819Y-48297618D01*
X188054819Y-48297618D02*
X188054819Y-48392856D01*
X188054819Y-48392856D02*
X188007200Y-48488094D01*
X188007200Y-48488094D02*
X187959580Y-48535713D01*
X187959580Y-48535713D02*
X187864342Y-48583332D01*
X187864342Y-48583332D02*
X187673866Y-48630951D01*
X187673866Y-48630951D02*
X187435771Y-48630951D01*
X187435771Y-48630951D02*
X187245295Y-48583332D01*
X187245295Y-48583332D02*
X187150057Y-48535713D01*
X187150057Y-48535713D02*
X187102438Y-48488094D01*
X187102438Y-48488094D02*
X187054819Y-48392856D01*
X188054819Y-46869046D02*
X187388152Y-46869046D01*
X187483390Y-46869046D02*
X187435771Y-46821427D01*
X187435771Y-46821427D02*
X187388152Y-46726189D01*
X187388152Y-46726189D02*
X187388152Y-46583332D01*
X187388152Y-46583332D02*
X187435771Y-46488094D01*
X187435771Y-46488094D02*
X187531009Y-46440475D01*
X187531009Y-46440475D02*
X188054819Y-46440475D01*
X187531009Y-46440475D02*
X187435771Y-46392856D01*
X187435771Y-46392856D02*
X187388152Y-46297618D01*
X187388152Y-46297618D02*
X187388152Y-46154761D01*
X187388152Y-46154761D02*
X187435771Y-46059522D01*
X187435771Y-46059522D02*
X187531009Y-46011903D01*
X187531009Y-46011903D02*
X188054819Y-46011903D01*
X188054819Y-45535713D02*
X187388152Y-45535713D01*
X187483390Y-45535713D02*
X187435771Y-45488094D01*
X187435771Y-45488094D02*
X187388152Y-45392856D01*
X187388152Y-45392856D02*
X187388152Y-45249999D01*
X187388152Y-45249999D02*
X187435771Y-45154761D01*
X187435771Y-45154761D02*
X187531009Y-45107142D01*
X187531009Y-45107142D02*
X188054819Y-45107142D01*
X187531009Y-45107142D02*
X187435771Y-45059523D01*
X187435771Y-45059523D02*
X187388152Y-44964285D01*
X187388152Y-44964285D02*
X187388152Y-44821428D01*
X187388152Y-44821428D02*
X187435771Y-44726189D01*
X187435771Y-44726189D02*
X187531009Y-44678570D01*
X187531009Y-44678570D02*
X188054819Y-44678570D01*
D10*
X165000000Y-34250000D02*
X189336420Y-34250000D01*
X165000000Y-64250000D02*
X189336420Y-64250000D01*
X188750000Y-34250000D02*
X188750000Y-64250000D01*
X188750000Y-34250000D02*
X188750000Y-64250000D01*
X188750000Y-34250000D02*
X189336421Y-35376504D01*
X188750000Y-34250000D02*
X188163579Y-35376504D01*
X188750000Y-64250000D02*
X188163579Y-63123496D01*
X188750000Y-64250000D02*
X189336421Y-63123496D01*
D11*
X199554819Y-93773809D02*
X199554819Y-94345237D01*
X199554819Y-94059523D02*
X198554819Y-94059523D01*
X198554819Y-94059523D02*
X198697676Y-94154761D01*
X198697676Y-94154761D02*
X198792914Y-94249999D01*
X198792914Y-94249999D02*
X198840533Y-94345237D01*
X199554819Y-92821428D02*
X199554819Y-93392856D01*
X199554819Y-93107142D02*
X198554819Y-93107142D01*
X198554819Y-93107142D02*
X198697676Y-93202380D01*
X198697676Y-93202380D02*
X198792914Y-93297618D01*
X198792914Y-93297618D02*
X198840533Y-93392856D01*
X198554819Y-92202380D02*
X198554819Y-92107142D01*
X198554819Y-92107142D02*
X198602438Y-92011904D01*
X198602438Y-92011904D02*
X198650057Y-91964285D01*
X198650057Y-91964285D02*
X198745295Y-91916666D01*
X198745295Y-91916666D02*
X198935771Y-91869047D01*
X198935771Y-91869047D02*
X199173866Y-91869047D01*
X199173866Y-91869047D02*
X199364342Y-91916666D01*
X199364342Y-91916666D02*
X199459580Y-91964285D01*
X199459580Y-91964285D02*
X199507200Y-92011904D01*
X199507200Y-92011904D02*
X199554819Y-92107142D01*
X199554819Y-92107142D02*
X199554819Y-92202380D01*
X199554819Y-92202380D02*
X199507200Y-92297618D01*
X199507200Y-92297618D02*
X199459580Y-92345237D01*
X199459580Y-92345237D02*
X199364342Y-92392856D01*
X199364342Y-92392856D02*
X199173866Y-92440475D01*
X199173866Y-92440475D02*
X198935771Y-92440475D01*
X198935771Y-92440475D02*
X198745295Y-92392856D01*
X198745295Y-92392856D02*
X198650057Y-92345237D01*
X198650057Y-92345237D02*
X198602438Y-92297618D01*
X198602438Y-92297618D02*
X198554819Y-92202380D01*
X199459580Y-91440475D02*
X199507200Y-91392856D01*
X199507200Y-91392856D02*
X199554819Y-91440475D01*
X199554819Y-91440475D02*
X199507200Y-91488094D01*
X199507200Y-91488094D02*
X199459580Y-91440475D01*
X199459580Y-91440475D02*
X199554819Y-91440475D01*
X198554819Y-90773809D02*
X198554819Y-90678571D01*
X198554819Y-90678571D02*
X198602438Y-90583333D01*
X198602438Y-90583333D02*
X198650057Y-90535714D01*
X198650057Y-90535714D02*
X198745295Y-90488095D01*
X198745295Y-90488095D02*
X198935771Y-90440476D01*
X198935771Y-90440476D02*
X199173866Y-90440476D01*
X199173866Y-90440476D02*
X199364342Y-90488095D01*
X199364342Y-90488095D02*
X199459580Y-90535714D01*
X199459580Y-90535714D02*
X199507200Y-90583333D01*
X199507200Y-90583333D02*
X199554819Y-90678571D01*
X199554819Y-90678571D02*
X199554819Y-90773809D01*
X199554819Y-90773809D02*
X199507200Y-90869047D01*
X199507200Y-90869047D02*
X199459580Y-90916666D01*
X199459580Y-90916666D02*
X199364342Y-90964285D01*
X199364342Y-90964285D02*
X199173866Y-91011904D01*
X199173866Y-91011904D02*
X198935771Y-91011904D01*
X198935771Y-91011904D02*
X198745295Y-90964285D01*
X198745295Y-90964285D02*
X198650057Y-90916666D01*
X198650057Y-90916666D02*
X198602438Y-90869047D01*
X198602438Y-90869047D02*
X198554819Y-90773809D01*
X198554819Y-89821428D02*
X198554819Y-89726190D01*
X198554819Y-89726190D02*
X198602438Y-89630952D01*
X198602438Y-89630952D02*
X198650057Y-89583333D01*
X198650057Y-89583333D02*
X198745295Y-89535714D01*
X198745295Y-89535714D02*
X198935771Y-89488095D01*
X198935771Y-89488095D02*
X199173866Y-89488095D01*
X199173866Y-89488095D02*
X199364342Y-89535714D01*
X199364342Y-89535714D02*
X199459580Y-89583333D01*
X199459580Y-89583333D02*
X199507200Y-89630952D01*
X199507200Y-89630952D02*
X199554819Y-89726190D01*
X199554819Y-89726190D02*
X199554819Y-89821428D01*
X199554819Y-89821428D02*
X199507200Y-89916666D01*
X199507200Y-89916666D02*
X199459580Y-89964285D01*
X199459580Y-89964285D02*
X199364342Y-90011904D01*
X199364342Y-90011904D02*
X199173866Y-90059523D01*
X199173866Y-90059523D02*
X198935771Y-90059523D01*
X198935771Y-90059523D02*
X198745295Y-90011904D01*
X198745295Y-90011904D02*
X198650057Y-89964285D01*
X198650057Y-89964285D02*
X198602438Y-89916666D01*
X198602438Y-89916666D02*
X198554819Y-89821428D01*
X198554819Y-88869047D02*
X198554819Y-88773809D01*
X198554819Y-88773809D02*
X198602438Y-88678571D01*
X198602438Y-88678571D02*
X198650057Y-88630952D01*
X198650057Y-88630952D02*
X198745295Y-88583333D01*
X198745295Y-88583333D02*
X198935771Y-88535714D01*
X198935771Y-88535714D02*
X199173866Y-88535714D01*
X199173866Y-88535714D02*
X199364342Y-88583333D01*
X199364342Y-88583333D02*
X199459580Y-88630952D01*
X199459580Y-88630952D02*
X199507200Y-88678571D01*
X199507200Y-88678571D02*
X199554819Y-88773809D01*
X199554819Y-88773809D02*
X199554819Y-88869047D01*
X199554819Y-88869047D02*
X199507200Y-88964285D01*
X199507200Y-88964285D02*
X199459580Y-89011904D01*
X199459580Y-89011904D02*
X199364342Y-89059523D01*
X199364342Y-89059523D02*
X199173866Y-89107142D01*
X199173866Y-89107142D02*
X198935771Y-89107142D01*
X198935771Y-89107142D02*
X198745295Y-89059523D01*
X198745295Y-89059523D02*
X198650057Y-89011904D01*
X198650057Y-89011904D02*
X198602438Y-88964285D01*
X198602438Y-88964285D02*
X198554819Y-88869047D01*
X198554819Y-87916666D02*
X198554819Y-87821428D01*
X198554819Y-87821428D02*
X198602438Y-87726190D01*
X198602438Y-87726190D02*
X198650057Y-87678571D01*
X198650057Y-87678571D02*
X198745295Y-87630952D01*
X198745295Y-87630952D02*
X198935771Y-87583333D01*
X198935771Y-87583333D02*
X199173866Y-87583333D01*
X199173866Y-87583333D02*
X199364342Y-87630952D01*
X199364342Y-87630952D02*
X199459580Y-87678571D01*
X199459580Y-87678571D02*
X199507200Y-87726190D01*
X199507200Y-87726190D02*
X199554819Y-87821428D01*
X199554819Y-87821428D02*
X199554819Y-87916666D01*
X199554819Y-87916666D02*
X199507200Y-88011904D01*
X199507200Y-88011904D02*
X199459580Y-88059523D01*
X199459580Y-88059523D02*
X199364342Y-88107142D01*
X199364342Y-88107142D02*
X199173866Y-88154761D01*
X199173866Y-88154761D02*
X198935771Y-88154761D01*
X198935771Y-88154761D02*
X198745295Y-88107142D01*
X198745295Y-88107142D02*
X198650057Y-88059523D01*
X198650057Y-88059523D02*
X198602438Y-88011904D01*
X198602438Y-88011904D02*
X198554819Y-87916666D01*
X199554819Y-86392856D02*
X198888152Y-86392856D01*
X198983390Y-86392856D02*
X198935771Y-86345237D01*
X198935771Y-86345237D02*
X198888152Y-86249999D01*
X198888152Y-86249999D02*
X198888152Y-86107142D01*
X198888152Y-86107142D02*
X198935771Y-86011904D01*
X198935771Y-86011904D02*
X199031009Y-85964285D01*
X199031009Y-85964285D02*
X199554819Y-85964285D01*
X199031009Y-85964285D02*
X198935771Y-85916666D01*
X198935771Y-85916666D02*
X198888152Y-85821428D01*
X198888152Y-85821428D02*
X198888152Y-85678571D01*
X198888152Y-85678571D02*
X198935771Y-85583332D01*
X198935771Y-85583332D02*
X199031009Y-85535713D01*
X199031009Y-85535713D02*
X199554819Y-85535713D01*
X199554819Y-85059523D02*
X198888152Y-85059523D01*
X198983390Y-85059523D02*
X198935771Y-85011904D01*
X198935771Y-85011904D02*
X198888152Y-84916666D01*
X198888152Y-84916666D02*
X198888152Y-84773809D01*
X198888152Y-84773809D02*
X198935771Y-84678571D01*
X198935771Y-84678571D02*
X199031009Y-84630952D01*
X199031009Y-84630952D02*
X199554819Y-84630952D01*
X199031009Y-84630952D02*
X198935771Y-84583333D01*
X198935771Y-84583333D02*
X198888152Y-84488095D01*
X198888152Y-84488095D02*
X198888152Y-84345238D01*
X198888152Y-84345238D02*
X198935771Y-84249999D01*
X198935771Y-84249999D02*
X199031009Y-84202380D01*
X199031009Y-84202380D02*
X199554819Y-84202380D01*
D12*
X165000000Y-144250000D02*
X200836420Y-144250000D01*
X165000000Y-34250000D02*
X200836420Y-34250000D01*
X200250000Y-144250000D02*
X200250000Y-34250000D01*
X200250000Y-144250000D02*
X200250000Y-34250000D01*
X200250000Y-144250000D02*
X199663579Y-143123496D01*
X200250000Y-144250000D02*
X200836421Y-143123496D01*
X200250000Y-34250000D02*
X200836421Y-35376504D01*
X200250000Y-34250000D02*
X199663579Y-35376504D01*
D11*
X113559524Y-156304819D02*
X114226190Y-156304819D01*
X114226190Y-156304819D02*
X113797619Y-157304819D01*
X114607143Y-157209580D02*
X114654762Y-157257200D01*
X114654762Y-157257200D02*
X114607143Y-157304819D01*
X114607143Y-157304819D02*
X114559524Y-157257200D01*
X114559524Y-157257200D02*
X114607143Y-157209580D01*
X114607143Y-157209580D02*
X114607143Y-157304819D01*
X115559523Y-156304819D02*
X115083333Y-156304819D01*
X115083333Y-156304819D02*
X115035714Y-156781009D01*
X115035714Y-156781009D02*
X115083333Y-156733390D01*
X115083333Y-156733390D02*
X115178571Y-156685771D01*
X115178571Y-156685771D02*
X115416666Y-156685771D01*
X115416666Y-156685771D02*
X115511904Y-156733390D01*
X115511904Y-156733390D02*
X115559523Y-156781009D01*
X115559523Y-156781009D02*
X115607142Y-156876247D01*
X115607142Y-156876247D02*
X115607142Y-157114342D01*
X115607142Y-157114342D02*
X115559523Y-157209580D01*
X115559523Y-157209580D02*
X115511904Y-157257200D01*
X115511904Y-157257200D02*
X115416666Y-157304819D01*
X115416666Y-157304819D02*
X115178571Y-157304819D01*
X115178571Y-157304819D02*
X115083333Y-157257200D01*
X115083333Y-157257200D02*
X115035714Y-157209580D01*
X116226190Y-156304819D02*
X116321428Y-156304819D01*
X116321428Y-156304819D02*
X116416666Y-156352438D01*
X116416666Y-156352438D02*
X116464285Y-156400057D01*
X116464285Y-156400057D02*
X116511904Y-156495295D01*
X116511904Y-156495295D02*
X116559523Y-156685771D01*
X116559523Y-156685771D02*
X116559523Y-156923866D01*
X116559523Y-156923866D02*
X116511904Y-157114342D01*
X116511904Y-157114342D02*
X116464285Y-157209580D01*
X116464285Y-157209580D02*
X116416666Y-157257200D01*
X116416666Y-157257200D02*
X116321428Y-157304819D01*
X116321428Y-157304819D02*
X116226190Y-157304819D01*
X116226190Y-157304819D02*
X116130952Y-157257200D01*
X116130952Y-157257200D02*
X116083333Y-157209580D01*
X116083333Y-157209580D02*
X116035714Y-157114342D01*
X116035714Y-157114342D02*
X115988095Y-156923866D01*
X115988095Y-156923866D02*
X115988095Y-156685771D01*
X115988095Y-156685771D02*
X116035714Y-156495295D01*
X116035714Y-156495295D02*
X116083333Y-156400057D01*
X116083333Y-156400057D02*
X116130952Y-156352438D01*
X116130952Y-156352438D02*
X116226190Y-156304819D01*
X117178571Y-156304819D02*
X117273809Y-156304819D01*
X117273809Y-156304819D02*
X117369047Y-156352438D01*
X117369047Y-156352438D02*
X117416666Y-156400057D01*
X117416666Y-156400057D02*
X117464285Y-156495295D01*
X117464285Y-156495295D02*
X117511904Y-156685771D01*
X117511904Y-156685771D02*
X117511904Y-156923866D01*
X117511904Y-156923866D02*
X117464285Y-157114342D01*
X117464285Y-157114342D02*
X117416666Y-157209580D01*
X117416666Y-157209580D02*
X117369047Y-157257200D01*
X117369047Y-157257200D02*
X117273809Y-157304819D01*
X117273809Y-157304819D02*
X117178571Y-157304819D01*
X117178571Y-157304819D02*
X117083333Y-157257200D01*
X117083333Y-157257200D02*
X117035714Y-157209580D01*
X117035714Y-157209580D02*
X116988095Y-157114342D01*
X116988095Y-157114342D02*
X116940476Y-156923866D01*
X116940476Y-156923866D02*
X116940476Y-156685771D01*
X116940476Y-156685771D02*
X116988095Y-156495295D01*
X116988095Y-156495295D02*
X117035714Y-156400057D01*
X117035714Y-156400057D02*
X117083333Y-156352438D01*
X117083333Y-156352438D02*
X117178571Y-156304819D01*
X118130952Y-156304819D02*
X118226190Y-156304819D01*
X118226190Y-156304819D02*
X118321428Y-156352438D01*
X118321428Y-156352438D02*
X118369047Y-156400057D01*
X118369047Y-156400057D02*
X118416666Y-156495295D01*
X118416666Y-156495295D02*
X118464285Y-156685771D01*
X118464285Y-156685771D02*
X118464285Y-156923866D01*
X118464285Y-156923866D02*
X118416666Y-157114342D01*
X118416666Y-157114342D02*
X118369047Y-157209580D01*
X118369047Y-157209580D02*
X118321428Y-157257200D01*
X118321428Y-157257200D02*
X118226190Y-157304819D01*
X118226190Y-157304819D02*
X118130952Y-157304819D01*
X118130952Y-157304819D02*
X118035714Y-157257200D01*
X118035714Y-157257200D02*
X117988095Y-157209580D01*
X117988095Y-157209580D02*
X117940476Y-157114342D01*
X117940476Y-157114342D02*
X117892857Y-156923866D01*
X117892857Y-156923866D02*
X117892857Y-156685771D01*
X117892857Y-156685771D02*
X117940476Y-156495295D01*
X117940476Y-156495295D02*
X117988095Y-156400057D01*
X117988095Y-156400057D02*
X118035714Y-156352438D01*
X118035714Y-156352438D02*
X118130952Y-156304819D01*
X119654762Y-157304819D02*
X119654762Y-156638152D01*
X119654762Y-156733390D02*
X119702381Y-156685771D01*
X119702381Y-156685771D02*
X119797619Y-156638152D01*
X119797619Y-156638152D02*
X119940476Y-156638152D01*
X119940476Y-156638152D02*
X120035714Y-156685771D01*
X120035714Y-156685771D02*
X120083333Y-156781009D01*
X120083333Y-156781009D02*
X120083333Y-157304819D01*
X120083333Y-156781009D02*
X120130952Y-156685771D01*
X120130952Y-156685771D02*
X120226190Y-156638152D01*
X120226190Y-156638152D02*
X120369047Y-156638152D01*
X120369047Y-156638152D02*
X120464286Y-156685771D01*
X120464286Y-156685771D02*
X120511905Y-156781009D01*
X120511905Y-156781009D02*
X120511905Y-157304819D01*
X120988095Y-157304819D02*
X120988095Y-156638152D01*
X120988095Y-156733390D02*
X121035714Y-156685771D01*
X121035714Y-156685771D02*
X121130952Y-156638152D01*
X121130952Y-156638152D02*
X121273809Y-156638152D01*
X121273809Y-156638152D02*
X121369047Y-156685771D01*
X121369047Y-156685771D02*
X121416666Y-156781009D01*
X121416666Y-156781009D02*
X121416666Y-157304819D01*
X121416666Y-156781009D02*
X121464285Y-156685771D01*
X121464285Y-156685771D02*
X121559523Y-156638152D01*
X121559523Y-156638152D02*
X121702380Y-156638152D01*
X121702380Y-156638152D02*
X121797619Y-156685771D01*
X121797619Y-156685771D02*
X121845238Y-156781009D01*
X121845238Y-156781009D02*
X121845238Y-157304819D01*
D10*
X114000000Y-154000000D02*
X114000000Y-158586420D01*
X121500000Y-154000000D02*
X121500000Y-158586420D01*
X114000000Y-158000000D02*
X121500000Y-158000000D01*
X114000000Y-158000000D02*
X121500000Y-158000000D01*
X114000000Y-158000000D02*
X115126504Y-157413579D01*
X114000000Y-158000000D02*
X115126504Y-158586421D01*
X121500000Y-158000000D02*
X120373496Y-158586421D01*
X121500000Y-158000000D02*
X120373496Y-157413579D01*
D11*
X175554819Y-143297618D02*
X175554819Y-143869046D01*
X175554819Y-143583332D02*
X174554819Y-143583332D01*
X174554819Y-143583332D02*
X174697676Y-143678570D01*
X174697676Y-143678570D02*
X174792914Y-143773808D01*
X174792914Y-143773808D02*
X174840533Y-143869046D01*
X174554819Y-142678570D02*
X174554819Y-142583332D01*
X174554819Y-142583332D02*
X174602438Y-142488094D01*
X174602438Y-142488094D02*
X174650057Y-142440475D01*
X174650057Y-142440475D02*
X174745295Y-142392856D01*
X174745295Y-142392856D02*
X174935771Y-142345237D01*
X174935771Y-142345237D02*
X175173866Y-142345237D01*
X175173866Y-142345237D02*
X175364342Y-142392856D01*
X175364342Y-142392856D02*
X175459580Y-142440475D01*
X175459580Y-142440475D02*
X175507200Y-142488094D01*
X175507200Y-142488094D02*
X175554819Y-142583332D01*
X175554819Y-142583332D02*
X175554819Y-142678570D01*
X175554819Y-142678570D02*
X175507200Y-142773808D01*
X175507200Y-142773808D02*
X175459580Y-142821427D01*
X175459580Y-142821427D02*
X175364342Y-142869046D01*
X175364342Y-142869046D02*
X175173866Y-142916665D01*
X175173866Y-142916665D02*
X174935771Y-142916665D01*
X174935771Y-142916665D02*
X174745295Y-142869046D01*
X174745295Y-142869046D02*
X174650057Y-142821427D01*
X174650057Y-142821427D02*
X174602438Y-142773808D01*
X174602438Y-142773808D02*
X174554819Y-142678570D01*
X175459580Y-141916665D02*
X175507200Y-141869046D01*
X175507200Y-141869046D02*
X175554819Y-141916665D01*
X175554819Y-141916665D02*
X175507200Y-141964284D01*
X175507200Y-141964284D02*
X175459580Y-141916665D01*
X175459580Y-141916665D02*
X175554819Y-141916665D01*
X174554819Y-141249999D02*
X174554819Y-141154761D01*
X174554819Y-141154761D02*
X174602438Y-141059523D01*
X174602438Y-141059523D02*
X174650057Y-141011904D01*
X174650057Y-141011904D02*
X174745295Y-140964285D01*
X174745295Y-140964285D02*
X174935771Y-140916666D01*
X174935771Y-140916666D02*
X175173866Y-140916666D01*
X175173866Y-140916666D02*
X175364342Y-140964285D01*
X175364342Y-140964285D02*
X175459580Y-141011904D01*
X175459580Y-141011904D02*
X175507200Y-141059523D01*
X175507200Y-141059523D02*
X175554819Y-141154761D01*
X175554819Y-141154761D02*
X175554819Y-141249999D01*
X175554819Y-141249999D02*
X175507200Y-141345237D01*
X175507200Y-141345237D02*
X175459580Y-141392856D01*
X175459580Y-141392856D02*
X175364342Y-141440475D01*
X175364342Y-141440475D02*
X175173866Y-141488094D01*
X175173866Y-141488094D02*
X174935771Y-141488094D01*
X174935771Y-141488094D02*
X174745295Y-141440475D01*
X174745295Y-141440475D02*
X174650057Y-141392856D01*
X174650057Y-141392856D02*
X174602438Y-141345237D01*
X174602438Y-141345237D02*
X174554819Y-141249999D01*
X174554819Y-140297618D02*
X174554819Y-140202380D01*
X174554819Y-140202380D02*
X174602438Y-140107142D01*
X174602438Y-140107142D02*
X174650057Y-140059523D01*
X174650057Y-140059523D02*
X174745295Y-140011904D01*
X174745295Y-140011904D02*
X174935771Y-139964285D01*
X174935771Y-139964285D02*
X175173866Y-139964285D01*
X175173866Y-139964285D02*
X175364342Y-140011904D01*
X175364342Y-140011904D02*
X175459580Y-140059523D01*
X175459580Y-140059523D02*
X175507200Y-140107142D01*
X175507200Y-140107142D02*
X175554819Y-140202380D01*
X175554819Y-140202380D02*
X175554819Y-140297618D01*
X175554819Y-140297618D02*
X175507200Y-140392856D01*
X175507200Y-140392856D02*
X175459580Y-140440475D01*
X175459580Y-140440475D02*
X175364342Y-140488094D01*
X175364342Y-140488094D02*
X175173866Y-140535713D01*
X175173866Y-140535713D02*
X174935771Y-140535713D01*
X174935771Y-140535713D02*
X174745295Y-140488094D01*
X174745295Y-140488094D02*
X174650057Y-140440475D01*
X174650057Y-140440475D02*
X174602438Y-140392856D01*
X174602438Y-140392856D02*
X174554819Y-140297618D01*
X174554819Y-139345237D02*
X174554819Y-139249999D01*
X174554819Y-139249999D02*
X174602438Y-139154761D01*
X174602438Y-139154761D02*
X174650057Y-139107142D01*
X174650057Y-139107142D02*
X174745295Y-139059523D01*
X174745295Y-139059523D02*
X174935771Y-139011904D01*
X174935771Y-139011904D02*
X175173866Y-139011904D01*
X175173866Y-139011904D02*
X175364342Y-139059523D01*
X175364342Y-139059523D02*
X175459580Y-139107142D01*
X175459580Y-139107142D02*
X175507200Y-139154761D01*
X175507200Y-139154761D02*
X175554819Y-139249999D01*
X175554819Y-139249999D02*
X175554819Y-139345237D01*
X175554819Y-139345237D02*
X175507200Y-139440475D01*
X175507200Y-139440475D02*
X175459580Y-139488094D01*
X175459580Y-139488094D02*
X175364342Y-139535713D01*
X175364342Y-139535713D02*
X175173866Y-139583332D01*
X175173866Y-139583332D02*
X174935771Y-139583332D01*
X174935771Y-139583332D02*
X174745295Y-139535713D01*
X174745295Y-139535713D02*
X174650057Y-139488094D01*
X174650057Y-139488094D02*
X174602438Y-139440475D01*
X174602438Y-139440475D02*
X174554819Y-139345237D01*
X174554819Y-138392856D02*
X174554819Y-138297618D01*
X174554819Y-138297618D02*
X174602438Y-138202380D01*
X174602438Y-138202380D02*
X174650057Y-138154761D01*
X174650057Y-138154761D02*
X174745295Y-138107142D01*
X174745295Y-138107142D02*
X174935771Y-138059523D01*
X174935771Y-138059523D02*
X175173866Y-138059523D01*
X175173866Y-138059523D02*
X175364342Y-138107142D01*
X175364342Y-138107142D02*
X175459580Y-138154761D01*
X175459580Y-138154761D02*
X175507200Y-138202380D01*
X175507200Y-138202380D02*
X175554819Y-138297618D01*
X175554819Y-138297618D02*
X175554819Y-138392856D01*
X175554819Y-138392856D02*
X175507200Y-138488094D01*
X175507200Y-138488094D02*
X175459580Y-138535713D01*
X175459580Y-138535713D02*
X175364342Y-138583332D01*
X175364342Y-138583332D02*
X175173866Y-138630951D01*
X175173866Y-138630951D02*
X174935771Y-138630951D01*
X174935771Y-138630951D02*
X174745295Y-138583332D01*
X174745295Y-138583332D02*
X174650057Y-138535713D01*
X174650057Y-138535713D02*
X174602438Y-138488094D01*
X174602438Y-138488094D02*
X174554819Y-138392856D01*
X175554819Y-136869046D02*
X174888152Y-136869046D01*
X174983390Y-136869046D02*
X174935771Y-136821427D01*
X174935771Y-136821427D02*
X174888152Y-136726189D01*
X174888152Y-136726189D02*
X174888152Y-136583332D01*
X174888152Y-136583332D02*
X174935771Y-136488094D01*
X174935771Y-136488094D02*
X175031009Y-136440475D01*
X175031009Y-136440475D02*
X175554819Y-136440475D01*
X175031009Y-136440475D02*
X174935771Y-136392856D01*
X174935771Y-136392856D02*
X174888152Y-136297618D01*
X174888152Y-136297618D02*
X174888152Y-136154761D01*
X174888152Y-136154761D02*
X174935771Y-136059522D01*
X174935771Y-136059522D02*
X175031009Y-136011903D01*
X175031009Y-136011903D02*
X175554819Y-136011903D01*
X175554819Y-135535713D02*
X174888152Y-135535713D01*
X174983390Y-135535713D02*
X174935771Y-135488094D01*
X174935771Y-135488094D02*
X174888152Y-135392856D01*
X174888152Y-135392856D02*
X174888152Y-135249999D01*
X174888152Y-135249999D02*
X174935771Y-135154761D01*
X174935771Y-135154761D02*
X175031009Y-135107142D01*
X175031009Y-135107142D02*
X175554819Y-135107142D01*
X175031009Y-135107142D02*
X174935771Y-135059523D01*
X174935771Y-135059523D02*
X174888152Y-134964285D01*
X174888152Y-134964285D02*
X174888152Y-134821428D01*
X174888152Y-134821428D02*
X174935771Y-134726189D01*
X174935771Y-134726189D02*
X175031009Y-134678570D01*
X175031009Y-134678570D02*
X175554819Y-134678570D01*
D10*
X165000000Y-144250000D02*
X176836420Y-144250000D01*
X165000000Y-134250000D02*
X176836420Y-134250000D01*
X176250000Y-144250000D02*
X176250000Y-134250000D01*
X176250000Y-144250000D02*
X176250000Y-134250000D01*
X176250000Y-144250000D02*
X175663579Y-143123496D01*
X176250000Y-144250000D02*
X176836421Y-143123496D01*
X176250000Y-134250000D02*
X176836421Y-135376504D01*
X176250000Y-134250000D02*
X175663579Y-135376504D01*
D11*
X108304819Y-156190475D02*
X108304819Y-155571428D01*
X108304819Y-155571428D02*
X108685771Y-155904761D01*
X108685771Y-155904761D02*
X108685771Y-155761904D01*
X108685771Y-155761904D02*
X108733390Y-155666666D01*
X108733390Y-155666666D02*
X108781009Y-155619047D01*
X108781009Y-155619047D02*
X108876247Y-155571428D01*
X108876247Y-155571428D02*
X109114342Y-155571428D01*
X109114342Y-155571428D02*
X109209580Y-155619047D01*
X109209580Y-155619047D02*
X109257200Y-155666666D01*
X109257200Y-155666666D02*
X109304819Y-155761904D01*
X109304819Y-155761904D02*
X109304819Y-156047618D01*
X109304819Y-156047618D02*
X109257200Y-156142856D01*
X109257200Y-156142856D02*
X109209580Y-156190475D01*
X109209580Y-155142856D02*
X109257200Y-155095237D01*
X109257200Y-155095237D02*
X109304819Y-155142856D01*
X109304819Y-155142856D02*
X109257200Y-155190475D01*
X109257200Y-155190475D02*
X109209580Y-155142856D01*
X109209580Y-155142856D02*
X109304819Y-155142856D01*
X108304819Y-154476190D02*
X108304819Y-154380952D01*
X108304819Y-154380952D02*
X108352438Y-154285714D01*
X108352438Y-154285714D02*
X108400057Y-154238095D01*
X108400057Y-154238095D02*
X108495295Y-154190476D01*
X108495295Y-154190476D02*
X108685771Y-154142857D01*
X108685771Y-154142857D02*
X108923866Y-154142857D01*
X108923866Y-154142857D02*
X109114342Y-154190476D01*
X109114342Y-154190476D02*
X109209580Y-154238095D01*
X109209580Y-154238095D02*
X109257200Y-154285714D01*
X109257200Y-154285714D02*
X109304819Y-154380952D01*
X109304819Y-154380952D02*
X109304819Y-154476190D01*
X109304819Y-154476190D02*
X109257200Y-154571428D01*
X109257200Y-154571428D02*
X109209580Y-154619047D01*
X109209580Y-154619047D02*
X109114342Y-154666666D01*
X109114342Y-154666666D02*
X108923866Y-154714285D01*
X108923866Y-154714285D02*
X108685771Y-154714285D01*
X108685771Y-154714285D02*
X108495295Y-154666666D01*
X108495295Y-154666666D02*
X108400057Y-154619047D01*
X108400057Y-154619047D02*
X108352438Y-154571428D01*
X108352438Y-154571428D02*
X108304819Y-154476190D01*
X108304819Y-153523809D02*
X108304819Y-153428571D01*
X108304819Y-153428571D02*
X108352438Y-153333333D01*
X108352438Y-153333333D02*
X108400057Y-153285714D01*
X108400057Y-153285714D02*
X108495295Y-153238095D01*
X108495295Y-153238095D02*
X108685771Y-153190476D01*
X108685771Y-153190476D02*
X108923866Y-153190476D01*
X108923866Y-153190476D02*
X109114342Y-153238095D01*
X109114342Y-153238095D02*
X109209580Y-153285714D01*
X109209580Y-153285714D02*
X109257200Y-153333333D01*
X109257200Y-153333333D02*
X109304819Y-153428571D01*
X109304819Y-153428571D02*
X109304819Y-153523809D01*
X109304819Y-153523809D02*
X109257200Y-153619047D01*
X109257200Y-153619047D02*
X109209580Y-153666666D01*
X109209580Y-153666666D02*
X109114342Y-153714285D01*
X109114342Y-153714285D02*
X108923866Y-153761904D01*
X108923866Y-153761904D02*
X108685771Y-153761904D01*
X108685771Y-153761904D02*
X108495295Y-153714285D01*
X108495295Y-153714285D02*
X108400057Y-153666666D01*
X108400057Y-153666666D02*
X108352438Y-153619047D01*
X108352438Y-153619047D02*
X108304819Y-153523809D01*
X108304819Y-152571428D02*
X108304819Y-152476190D01*
X108304819Y-152476190D02*
X108352438Y-152380952D01*
X108352438Y-152380952D02*
X108400057Y-152333333D01*
X108400057Y-152333333D02*
X108495295Y-152285714D01*
X108495295Y-152285714D02*
X108685771Y-152238095D01*
X108685771Y-152238095D02*
X108923866Y-152238095D01*
X108923866Y-152238095D02*
X109114342Y-152285714D01*
X109114342Y-152285714D02*
X109209580Y-152333333D01*
X109209580Y-152333333D02*
X109257200Y-152380952D01*
X109257200Y-152380952D02*
X109304819Y-152476190D01*
X109304819Y-152476190D02*
X109304819Y-152571428D01*
X109304819Y-152571428D02*
X109257200Y-152666666D01*
X109257200Y-152666666D02*
X109209580Y-152714285D01*
X109209580Y-152714285D02*
X109114342Y-152761904D01*
X109114342Y-152761904D02*
X108923866Y-152809523D01*
X108923866Y-152809523D02*
X108685771Y-152809523D01*
X108685771Y-152809523D02*
X108495295Y-152761904D01*
X108495295Y-152761904D02*
X108400057Y-152714285D01*
X108400057Y-152714285D02*
X108352438Y-152666666D01*
X108352438Y-152666666D02*
X108304819Y-152571428D01*
X108304819Y-151619047D02*
X108304819Y-151523809D01*
X108304819Y-151523809D02*
X108352438Y-151428571D01*
X108352438Y-151428571D02*
X108400057Y-151380952D01*
X108400057Y-151380952D02*
X108495295Y-151333333D01*
X108495295Y-151333333D02*
X108685771Y-151285714D01*
X108685771Y-151285714D02*
X108923866Y-151285714D01*
X108923866Y-151285714D02*
X109114342Y-151333333D01*
X109114342Y-151333333D02*
X109209580Y-151380952D01*
X109209580Y-151380952D02*
X109257200Y-151428571D01*
X109257200Y-151428571D02*
X109304819Y-151523809D01*
X109304819Y-151523809D02*
X109304819Y-151619047D01*
X109304819Y-151619047D02*
X109257200Y-151714285D01*
X109257200Y-151714285D02*
X109209580Y-151761904D01*
X109209580Y-151761904D02*
X109114342Y-151809523D01*
X109114342Y-151809523D02*
X108923866Y-151857142D01*
X108923866Y-151857142D02*
X108685771Y-151857142D01*
X108685771Y-151857142D02*
X108495295Y-151809523D01*
X108495295Y-151809523D02*
X108400057Y-151761904D01*
X108400057Y-151761904D02*
X108352438Y-151714285D01*
X108352438Y-151714285D02*
X108304819Y-151619047D01*
X109304819Y-150095237D02*
X108638152Y-150095237D01*
X108733390Y-150095237D02*
X108685771Y-150047618D01*
X108685771Y-150047618D02*
X108638152Y-149952380D01*
X108638152Y-149952380D02*
X108638152Y-149809523D01*
X108638152Y-149809523D02*
X108685771Y-149714285D01*
X108685771Y-149714285D02*
X108781009Y-149666666D01*
X108781009Y-149666666D02*
X109304819Y-149666666D01*
X108781009Y-149666666D02*
X108685771Y-149619047D01*
X108685771Y-149619047D02*
X108638152Y-149523809D01*
X108638152Y-149523809D02*
X108638152Y-149380952D01*
X108638152Y-149380952D02*
X108685771Y-149285713D01*
X108685771Y-149285713D02*
X108781009Y-149238094D01*
X108781009Y-149238094D02*
X109304819Y-149238094D01*
X109304819Y-148761904D02*
X108638152Y-148761904D01*
X108733390Y-148761904D02*
X108685771Y-148714285D01*
X108685771Y-148714285D02*
X108638152Y-148619047D01*
X108638152Y-148619047D02*
X108638152Y-148476190D01*
X108638152Y-148476190D02*
X108685771Y-148380952D01*
X108685771Y-148380952D02*
X108781009Y-148333333D01*
X108781009Y-148333333D02*
X109304819Y-148333333D01*
X108781009Y-148333333D02*
X108685771Y-148285714D01*
X108685771Y-148285714D02*
X108638152Y-148190476D01*
X108638152Y-148190476D02*
X108638152Y-148047619D01*
X108638152Y-148047619D02*
X108685771Y-147952380D01*
X108685771Y-147952380D02*
X108781009Y-147904761D01*
X108781009Y-147904761D02*
X109304819Y-147904761D01*
D10*
X113500000Y-153500000D02*
X109413580Y-153500000D01*
X113500000Y-150500000D02*
X109413580Y-150500000D01*
X110000000Y-153500000D02*
X110000000Y-150500000D01*
X110000000Y-153500000D02*
X110000000Y-150500000D01*
X110000000Y-153500000D02*
X109413579Y-152373496D01*
X110000000Y-153500000D02*
X110586421Y-152373496D01*
X110000000Y-150500000D02*
X110586421Y-151626504D01*
X110000000Y-150500000D02*
X109413579Y-151626504D01*
D11*
X182304819Y-33672618D02*
X182304819Y-33482142D01*
X182304819Y-33482142D02*
X182257200Y-33386904D01*
X182257200Y-33386904D02*
X182209580Y-33339285D01*
X182209580Y-33339285D02*
X182066723Y-33244047D01*
X182066723Y-33244047D02*
X181876247Y-33196428D01*
X181876247Y-33196428D02*
X181495295Y-33196428D01*
X181495295Y-33196428D02*
X181400057Y-33244047D01*
X181400057Y-33244047D02*
X181352438Y-33291666D01*
X181352438Y-33291666D02*
X181304819Y-33386904D01*
X181304819Y-33386904D02*
X181304819Y-33577380D01*
X181304819Y-33577380D02*
X181352438Y-33672618D01*
X181352438Y-33672618D02*
X181400057Y-33720237D01*
X181400057Y-33720237D02*
X181495295Y-33767856D01*
X181495295Y-33767856D02*
X181733390Y-33767856D01*
X181733390Y-33767856D02*
X181828628Y-33720237D01*
X181828628Y-33720237D02*
X181876247Y-33672618D01*
X181876247Y-33672618D02*
X181923866Y-33577380D01*
X181923866Y-33577380D02*
X181923866Y-33386904D01*
X181923866Y-33386904D02*
X181876247Y-33291666D01*
X181876247Y-33291666D02*
X181828628Y-33244047D01*
X181828628Y-33244047D02*
X181733390Y-33196428D01*
X182209580Y-32767856D02*
X182257200Y-32720237D01*
X182257200Y-32720237D02*
X182304819Y-32767856D01*
X182304819Y-32767856D02*
X182257200Y-32815475D01*
X182257200Y-32815475D02*
X182209580Y-32767856D01*
X182209580Y-32767856D02*
X182304819Y-32767856D01*
X181400057Y-32339285D02*
X181352438Y-32291666D01*
X181352438Y-32291666D02*
X181304819Y-32196428D01*
X181304819Y-32196428D02*
X181304819Y-31958333D01*
X181304819Y-31958333D02*
X181352438Y-31863095D01*
X181352438Y-31863095D02*
X181400057Y-31815476D01*
X181400057Y-31815476D02*
X181495295Y-31767857D01*
X181495295Y-31767857D02*
X181590533Y-31767857D01*
X181590533Y-31767857D02*
X181733390Y-31815476D01*
X181733390Y-31815476D02*
X182304819Y-32386904D01*
X182304819Y-32386904D02*
X182304819Y-31767857D01*
X181304819Y-30863095D02*
X181304819Y-31339285D01*
X181304819Y-31339285D02*
X181781009Y-31386904D01*
X181781009Y-31386904D02*
X181733390Y-31339285D01*
X181733390Y-31339285D02*
X181685771Y-31244047D01*
X181685771Y-31244047D02*
X181685771Y-31005952D01*
X181685771Y-31005952D02*
X181733390Y-30910714D01*
X181733390Y-30910714D02*
X181781009Y-30863095D01*
X181781009Y-30863095D02*
X181876247Y-30815476D01*
X181876247Y-30815476D02*
X182114342Y-30815476D01*
X182114342Y-30815476D02*
X182209580Y-30863095D01*
X182209580Y-30863095D02*
X182257200Y-30910714D01*
X182257200Y-30910714D02*
X182304819Y-31005952D01*
X182304819Y-31005952D02*
X182304819Y-31244047D01*
X182304819Y-31244047D02*
X182257200Y-31339285D01*
X182257200Y-31339285D02*
X182209580Y-31386904D01*
X181304819Y-30196428D02*
X181304819Y-30101190D01*
X181304819Y-30101190D02*
X181352438Y-30005952D01*
X181352438Y-30005952D02*
X181400057Y-29958333D01*
X181400057Y-29958333D02*
X181495295Y-29910714D01*
X181495295Y-29910714D02*
X181685771Y-29863095D01*
X181685771Y-29863095D02*
X181923866Y-29863095D01*
X181923866Y-29863095D02*
X182114342Y-29910714D01*
X182114342Y-29910714D02*
X182209580Y-29958333D01*
X182209580Y-29958333D02*
X182257200Y-30005952D01*
X182257200Y-30005952D02*
X182304819Y-30101190D01*
X182304819Y-30101190D02*
X182304819Y-30196428D01*
X182304819Y-30196428D02*
X182257200Y-30291666D01*
X182257200Y-30291666D02*
X182209580Y-30339285D01*
X182209580Y-30339285D02*
X182114342Y-30386904D01*
X182114342Y-30386904D02*
X181923866Y-30434523D01*
X181923866Y-30434523D02*
X181685771Y-30434523D01*
X181685771Y-30434523D02*
X181495295Y-30386904D01*
X181495295Y-30386904D02*
X181400057Y-30339285D01*
X181400057Y-30339285D02*
X181352438Y-30291666D01*
X181352438Y-30291666D02*
X181304819Y-30196428D01*
X181304819Y-29244047D02*
X181304819Y-29148809D01*
X181304819Y-29148809D02*
X181352438Y-29053571D01*
X181352438Y-29053571D02*
X181400057Y-29005952D01*
X181400057Y-29005952D02*
X181495295Y-28958333D01*
X181495295Y-28958333D02*
X181685771Y-28910714D01*
X181685771Y-28910714D02*
X181923866Y-28910714D01*
X181923866Y-28910714D02*
X182114342Y-28958333D01*
X182114342Y-28958333D02*
X182209580Y-29005952D01*
X182209580Y-29005952D02*
X182257200Y-29053571D01*
X182257200Y-29053571D02*
X182304819Y-29148809D01*
X182304819Y-29148809D02*
X182304819Y-29244047D01*
X182304819Y-29244047D02*
X182257200Y-29339285D01*
X182257200Y-29339285D02*
X182209580Y-29386904D01*
X182209580Y-29386904D02*
X182114342Y-29434523D01*
X182114342Y-29434523D02*
X181923866Y-29482142D01*
X181923866Y-29482142D02*
X181685771Y-29482142D01*
X181685771Y-29482142D02*
X181495295Y-29434523D01*
X181495295Y-29434523D02*
X181400057Y-29386904D01*
X181400057Y-29386904D02*
X181352438Y-29339285D01*
X181352438Y-29339285D02*
X181304819Y-29244047D01*
X182304819Y-27720237D02*
X181638152Y-27720237D01*
X181733390Y-27720237D02*
X181685771Y-27672618D01*
X181685771Y-27672618D02*
X181638152Y-27577380D01*
X181638152Y-27577380D02*
X181638152Y-27434523D01*
X181638152Y-27434523D02*
X181685771Y-27339285D01*
X181685771Y-27339285D02*
X181781009Y-27291666D01*
X181781009Y-27291666D02*
X182304819Y-27291666D01*
X181781009Y-27291666D02*
X181685771Y-27244047D01*
X181685771Y-27244047D02*
X181638152Y-27148809D01*
X181638152Y-27148809D02*
X181638152Y-27005952D01*
X181638152Y-27005952D02*
X181685771Y-26910713D01*
X181685771Y-26910713D02*
X181781009Y-26863094D01*
X181781009Y-26863094D02*
X182304819Y-26863094D01*
X182304819Y-26386904D02*
X181638152Y-26386904D01*
X181733390Y-26386904D02*
X181685771Y-26339285D01*
X181685771Y-26339285D02*
X181638152Y-26244047D01*
X181638152Y-26244047D02*
X181638152Y-26101190D01*
X181638152Y-26101190D02*
X181685771Y-26005952D01*
X181685771Y-26005952D02*
X181781009Y-25958333D01*
X181781009Y-25958333D02*
X182304819Y-25958333D01*
X181781009Y-25958333D02*
X181685771Y-25910714D01*
X181685771Y-25910714D02*
X181638152Y-25815476D01*
X181638152Y-25815476D02*
X181638152Y-25672619D01*
X181638152Y-25672619D02*
X181685771Y-25577380D01*
X181685771Y-25577380D02*
X181781009Y-25529761D01*
X181781009Y-25529761D02*
X182304819Y-25529761D01*
D10*
X165000000Y-34250000D02*
X183586420Y-34250000D01*
X165000000Y-25000000D02*
X183586420Y-25000000D01*
X183000000Y-34250000D02*
X183000000Y-25000000D01*
X183000000Y-34250000D02*
X183000000Y-25000000D01*
X183000000Y-34250000D02*
X182413579Y-33123496D01*
X183000000Y-34250000D02*
X183586421Y-33123496D01*
X183000000Y-25000000D02*
X183586421Y-26126504D01*
X183000000Y-25000000D02*
X182413579Y-26126504D01*
D11*
X156559524Y-155554819D02*
X157226190Y-155554819D01*
X157226190Y-155554819D02*
X156797619Y-156554819D01*
X157607143Y-156459580D02*
X157654762Y-156507200D01*
X157654762Y-156507200D02*
X157607143Y-156554819D01*
X157607143Y-156554819D02*
X157559524Y-156507200D01*
X157559524Y-156507200D02*
X157607143Y-156459580D01*
X157607143Y-156459580D02*
X157607143Y-156554819D01*
X158559523Y-155554819D02*
X158083333Y-155554819D01*
X158083333Y-155554819D02*
X158035714Y-156031009D01*
X158035714Y-156031009D02*
X158083333Y-155983390D01*
X158083333Y-155983390D02*
X158178571Y-155935771D01*
X158178571Y-155935771D02*
X158416666Y-155935771D01*
X158416666Y-155935771D02*
X158511904Y-155983390D01*
X158511904Y-155983390D02*
X158559523Y-156031009D01*
X158559523Y-156031009D02*
X158607142Y-156126247D01*
X158607142Y-156126247D02*
X158607142Y-156364342D01*
X158607142Y-156364342D02*
X158559523Y-156459580D01*
X158559523Y-156459580D02*
X158511904Y-156507200D01*
X158511904Y-156507200D02*
X158416666Y-156554819D01*
X158416666Y-156554819D02*
X158178571Y-156554819D01*
X158178571Y-156554819D02*
X158083333Y-156507200D01*
X158083333Y-156507200D02*
X158035714Y-156459580D01*
X159226190Y-155554819D02*
X159321428Y-155554819D01*
X159321428Y-155554819D02*
X159416666Y-155602438D01*
X159416666Y-155602438D02*
X159464285Y-155650057D01*
X159464285Y-155650057D02*
X159511904Y-155745295D01*
X159511904Y-155745295D02*
X159559523Y-155935771D01*
X159559523Y-155935771D02*
X159559523Y-156173866D01*
X159559523Y-156173866D02*
X159511904Y-156364342D01*
X159511904Y-156364342D02*
X159464285Y-156459580D01*
X159464285Y-156459580D02*
X159416666Y-156507200D01*
X159416666Y-156507200D02*
X159321428Y-156554819D01*
X159321428Y-156554819D02*
X159226190Y-156554819D01*
X159226190Y-156554819D02*
X159130952Y-156507200D01*
X159130952Y-156507200D02*
X159083333Y-156459580D01*
X159083333Y-156459580D02*
X159035714Y-156364342D01*
X159035714Y-156364342D02*
X158988095Y-156173866D01*
X158988095Y-156173866D02*
X158988095Y-155935771D01*
X158988095Y-155935771D02*
X159035714Y-155745295D01*
X159035714Y-155745295D02*
X159083333Y-155650057D01*
X159083333Y-155650057D02*
X159130952Y-155602438D01*
X159130952Y-155602438D02*
X159226190Y-155554819D01*
X160178571Y-155554819D02*
X160273809Y-155554819D01*
X160273809Y-155554819D02*
X160369047Y-155602438D01*
X160369047Y-155602438D02*
X160416666Y-155650057D01*
X160416666Y-155650057D02*
X160464285Y-155745295D01*
X160464285Y-155745295D02*
X160511904Y-155935771D01*
X160511904Y-155935771D02*
X160511904Y-156173866D01*
X160511904Y-156173866D02*
X160464285Y-156364342D01*
X160464285Y-156364342D02*
X160416666Y-156459580D01*
X160416666Y-156459580D02*
X160369047Y-156507200D01*
X160369047Y-156507200D02*
X160273809Y-156554819D01*
X160273809Y-156554819D02*
X160178571Y-156554819D01*
X160178571Y-156554819D02*
X160083333Y-156507200D01*
X160083333Y-156507200D02*
X160035714Y-156459580D01*
X160035714Y-156459580D02*
X159988095Y-156364342D01*
X159988095Y-156364342D02*
X159940476Y-156173866D01*
X159940476Y-156173866D02*
X159940476Y-155935771D01*
X159940476Y-155935771D02*
X159988095Y-155745295D01*
X159988095Y-155745295D02*
X160035714Y-155650057D01*
X160035714Y-155650057D02*
X160083333Y-155602438D01*
X160083333Y-155602438D02*
X160178571Y-155554819D01*
X161130952Y-155554819D02*
X161226190Y-155554819D01*
X161226190Y-155554819D02*
X161321428Y-155602438D01*
X161321428Y-155602438D02*
X161369047Y-155650057D01*
X161369047Y-155650057D02*
X161416666Y-155745295D01*
X161416666Y-155745295D02*
X161464285Y-155935771D01*
X161464285Y-155935771D02*
X161464285Y-156173866D01*
X161464285Y-156173866D02*
X161416666Y-156364342D01*
X161416666Y-156364342D02*
X161369047Y-156459580D01*
X161369047Y-156459580D02*
X161321428Y-156507200D01*
X161321428Y-156507200D02*
X161226190Y-156554819D01*
X161226190Y-156554819D02*
X161130952Y-156554819D01*
X161130952Y-156554819D02*
X161035714Y-156507200D01*
X161035714Y-156507200D02*
X160988095Y-156459580D01*
X160988095Y-156459580D02*
X160940476Y-156364342D01*
X160940476Y-156364342D02*
X160892857Y-156173866D01*
X160892857Y-156173866D02*
X160892857Y-155935771D01*
X160892857Y-155935771D02*
X160940476Y-155745295D01*
X160940476Y-155745295D02*
X160988095Y-155650057D01*
X160988095Y-155650057D02*
X161035714Y-155602438D01*
X161035714Y-155602438D02*
X161130952Y-155554819D01*
X162654762Y-156554819D02*
X162654762Y-155888152D01*
X162654762Y-155983390D02*
X162702381Y-155935771D01*
X162702381Y-155935771D02*
X162797619Y-155888152D01*
X162797619Y-155888152D02*
X162940476Y-155888152D01*
X162940476Y-155888152D02*
X163035714Y-155935771D01*
X163035714Y-155935771D02*
X163083333Y-156031009D01*
X163083333Y-156031009D02*
X163083333Y-156554819D01*
X163083333Y-156031009D02*
X163130952Y-155935771D01*
X163130952Y-155935771D02*
X163226190Y-155888152D01*
X163226190Y-155888152D02*
X163369047Y-155888152D01*
X163369047Y-155888152D02*
X163464286Y-155935771D01*
X163464286Y-155935771D02*
X163511905Y-156031009D01*
X163511905Y-156031009D02*
X163511905Y-156554819D01*
X163988095Y-156554819D02*
X163988095Y-155888152D01*
X163988095Y-155983390D02*
X164035714Y-155935771D01*
X164035714Y-155935771D02*
X164130952Y-155888152D01*
X164130952Y-155888152D02*
X164273809Y-155888152D01*
X164273809Y-155888152D02*
X164369047Y-155935771D01*
X164369047Y-155935771D02*
X164416666Y-156031009D01*
X164416666Y-156031009D02*
X164416666Y-156554819D01*
X164416666Y-156031009D02*
X164464285Y-155935771D01*
X164464285Y-155935771D02*
X164559523Y-155888152D01*
X164559523Y-155888152D02*
X164702380Y-155888152D01*
X164702380Y-155888152D02*
X164797619Y-155935771D01*
X164797619Y-155935771D02*
X164845238Y-156031009D01*
X164845238Y-156031009D02*
X164845238Y-156554819D01*
D10*
X164500000Y-154000000D02*
X164500000Y-157836420D01*
X157000000Y-154000000D02*
X157000000Y-157836420D01*
X164500000Y-157250000D02*
X157000000Y-157250000D01*
X164500000Y-157250000D02*
X157000000Y-157250000D01*
X164500000Y-157250000D02*
X163373496Y-157836421D01*
X164500000Y-157250000D02*
X163373496Y-156663579D01*
X157000000Y-157250000D02*
X158126504Y-156663579D01*
X157000000Y-157250000D02*
X158126504Y-157836421D01*
D11*
X154952381Y-126304819D02*
X154380953Y-126304819D01*
X154666667Y-126304819D02*
X154666667Y-125304819D01*
X154666667Y-125304819D02*
X154571429Y-125447676D01*
X154571429Y-125447676D02*
X154476191Y-125542914D01*
X154476191Y-125542914D02*
X154380953Y-125590533D01*
X155904762Y-126304819D02*
X155333334Y-126304819D01*
X155619048Y-126304819D02*
X155619048Y-125304819D01*
X155619048Y-125304819D02*
X155523810Y-125447676D01*
X155523810Y-125447676D02*
X155428572Y-125542914D01*
X155428572Y-125542914D02*
X155333334Y-125590533D01*
X156333334Y-126209580D02*
X156380953Y-126257200D01*
X156380953Y-126257200D02*
X156333334Y-126304819D01*
X156333334Y-126304819D02*
X156285715Y-126257200D01*
X156285715Y-126257200D02*
X156333334Y-126209580D01*
X156333334Y-126209580D02*
X156333334Y-126304819D01*
X157000000Y-125304819D02*
X157095238Y-125304819D01*
X157095238Y-125304819D02*
X157190476Y-125352438D01*
X157190476Y-125352438D02*
X157238095Y-125400057D01*
X157238095Y-125400057D02*
X157285714Y-125495295D01*
X157285714Y-125495295D02*
X157333333Y-125685771D01*
X157333333Y-125685771D02*
X157333333Y-125923866D01*
X157333333Y-125923866D02*
X157285714Y-126114342D01*
X157285714Y-126114342D02*
X157238095Y-126209580D01*
X157238095Y-126209580D02*
X157190476Y-126257200D01*
X157190476Y-126257200D02*
X157095238Y-126304819D01*
X157095238Y-126304819D02*
X157000000Y-126304819D01*
X157000000Y-126304819D02*
X156904762Y-126257200D01*
X156904762Y-126257200D02*
X156857143Y-126209580D01*
X156857143Y-126209580D02*
X156809524Y-126114342D01*
X156809524Y-126114342D02*
X156761905Y-125923866D01*
X156761905Y-125923866D02*
X156761905Y-125685771D01*
X156761905Y-125685771D02*
X156809524Y-125495295D01*
X156809524Y-125495295D02*
X156857143Y-125400057D01*
X156857143Y-125400057D02*
X156904762Y-125352438D01*
X156904762Y-125352438D02*
X157000000Y-125304819D01*
X157952381Y-125304819D02*
X158047619Y-125304819D01*
X158047619Y-125304819D02*
X158142857Y-125352438D01*
X158142857Y-125352438D02*
X158190476Y-125400057D01*
X158190476Y-125400057D02*
X158238095Y-125495295D01*
X158238095Y-125495295D02*
X158285714Y-125685771D01*
X158285714Y-125685771D02*
X158285714Y-125923866D01*
X158285714Y-125923866D02*
X158238095Y-126114342D01*
X158238095Y-126114342D02*
X158190476Y-126209580D01*
X158190476Y-126209580D02*
X158142857Y-126257200D01*
X158142857Y-126257200D02*
X158047619Y-126304819D01*
X158047619Y-126304819D02*
X157952381Y-126304819D01*
X157952381Y-126304819D02*
X157857143Y-126257200D01*
X157857143Y-126257200D02*
X157809524Y-126209580D01*
X157809524Y-126209580D02*
X157761905Y-126114342D01*
X157761905Y-126114342D02*
X157714286Y-125923866D01*
X157714286Y-125923866D02*
X157714286Y-125685771D01*
X157714286Y-125685771D02*
X157761905Y-125495295D01*
X157761905Y-125495295D02*
X157809524Y-125400057D01*
X157809524Y-125400057D02*
X157857143Y-125352438D01*
X157857143Y-125352438D02*
X157952381Y-125304819D01*
X158904762Y-125304819D02*
X159000000Y-125304819D01*
X159000000Y-125304819D02*
X159095238Y-125352438D01*
X159095238Y-125352438D02*
X159142857Y-125400057D01*
X159142857Y-125400057D02*
X159190476Y-125495295D01*
X159190476Y-125495295D02*
X159238095Y-125685771D01*
X159238095Y-125685771D02*
X159238095Y-125923866D01*
X159238095Y-125923866D02*
X159190476Y-126114342D01*
X159190476Y-126114342D02*
X159142857Y-126209580D01*
X159142857Y-126209580D02*
X159095238Y-126257200D01*
X159095238Y-126257200D02*
X159000000Y-126304819D01*
X159000000Y-126304819D02*
X158904762Y-126304819D01*
X158904762Y-126304819D02*
X158809524Y-126257200D01*
X158809524Y-126257200D02*
X158761905Y-126209580D01*
X158761905Y-126209580D02*
X158714286Y-126114342D01*
X158714286Y-126114342D02*
X158666667Y-125923866D01*
X158666667Y-125923866D02*
X158666667Y-125685771D01*
X158666667Y-125685771D02*
X158714286Y-125495295D01*
X158714286Y-125495295D02*
X158761905Y-125400057D01*
X158761905Y-125400057D02*
X158809524Y-125352438D01*
X158809524Y-125352438D02*
X158904762Y-125304819D01*
X159857143Y-125304819D02*
X159952381Y-125304819D01*
X159952381Y-125304819D02*
X160047619Y-125352438D01*
X160047619Y-125352438D02*
X160095238Y-125400057D01*
X160095238Y-125400057D02*
X160142857Y-125495295D01*
X160142857Y-125495295D02*
X160190476Y-125685771D01*
X160190476Y-125685771D02*
X160190476Y-125923866D01*
X160190476Y-125923866D02*
X160142857Y-126114342D01*
X160142857Y-126114342D02*
X160095238Y-126209580D01*
X160095238Y-126209580D02*
X160047619Y-126257200D01*
X160047619Y-126257200D02*
X159952381Y-126304819D01*
X159952381Y-126304819D02*
X159857143Y-126304819D01*
X159857143Y-126304819D02*
X159761905Y-126257200D01*
X159761905Y-126257200D02*
X159714286Y-126209580D01*
X159714286Y-126209580D02*
X159666667Y-126114342D01*
X159666667Y-126114342D02*
X159619048Y-125923866D01*
X159619048Y-125923866D02*
X159619048Y-125685771D01*
X159619048Y-125685771D02*
X159666667Y-125495295D01*
X159666667Y-125495295D02*
X159714286Y-125400057D01*
X159714286Y-125400057D02*
X159761905Y-125352438D01*
X159761905Y-125352438D02*
X159857143Y-125304819D01*
X161380953Y-126304819D02*
X161380953Y-125638152D01*
X161380953Y-125733390D02*
X161428572Y-125685771D01*
X161428572Y-125685771D02*
X161523810Y-125638152D01*
X161523810Y-125638152D02*
X161666667Y-125638152D01*
X161666667Y-125638152D02*
X161761905Y-125685771D01*
X161761905Y-125685771D02*
X161809524Y-125781009D01*
X161809524Y-125781009D02*
X161809524Y-126304819D01*
X161809524Y-125781009D02*
X161857143Y-125685771D01*
X161857143Y-125685771D02*
X161952381Y-125638152D01*
X161952381Y-125638152D02*
X162095238Y-125638152D01*
X162095238Y-125638152D02*
X162190477Y-125685771D01*
X162190477Y-125685771D02*
X162238096Y-125781009D01*
X162238096Y-125781009D02*
X162238096Y-126304819D01*
X162714286Y-126304819D02*
X162714286Y-125638152D01*
X162714286Y-125733390D02*
X162761905Y-125685771D01*
X162761905Y-125685771D02*
X162857143Y-125638152D01*
X162857143Y-125638152D02*
X163000000Y-125638152D01*
X163000000Y-125638152D02*
X163095238Y-125685771D01*
X163095238Y-125685771D02*
X163142857Y-125781009D01*
X163142857Y-125781009D02*
X163142857Y-126304819D01*
X163142857Y-125781009D02*
X163190476Y-125685771D01*
X163190476Y-125685771D02*
X163285714Y-125638152D01*
X163285714Y-125638152D02*
X163428571Y-125638152D01*
X163428571Y-125638152D02*
X163523810Y-125685771D01*
X163523810Y-125685771D02*
X163571429Y-125781009D01*
X163571429Y-125781009D02*
X163571429Y-126304819D01*
D10*
X164500000Y-133750000D02*
X164500000Y-126413580D01*
X153500000Y-133750000D02*
X153500000Y-126413580D01*
X164500000Y-127000000D02*
X153500000Y-127000000D01*
X164500000Y-127000000D02*
X153500000Y-127000000D01*
X164500000Y-127000000D02*
X163373496Y-127586421D01*
X164500000Y-127000000D02*
X163373496Y-126413579D01*
X153500000Y-127000000D02*
X154626504Y-126413579D01*
X153500000Y-127000000D02*
X154626504Y-127586421D01*
D11*
X166304819Y-30690475D02*
X166304819Y-30071428D01*
X166304819Y-30071428D02*
X166685771Y-30404761D01*
X166685771Y-30404761D02*
X166685771Y-30261904D01*
X166685771Y-30261904D02*
X166733390Y-30166666D01*
X166733390Y-30166666D02*
X166781009Y-30119047D01*
X166781009Y-30119047D02*
X166876247Y-30071428D01*
X166876247Y-30071428D02*
X167114342Y-30071428D01*
X167114342Y-30071428D02*
X167209580Y-30119047D01*
X167209580Y-30119047D02*
X167257200Y-30166666D01*
X167257200Y-30166666D02*
X167304819Y-30261904D01*
X167304819Y-30261904D02*
X167304819Y-30547618D01*
X167304819Y-30547618D02*
X167257200Y-30642856D01*
X167257200Y-30642856D02*
X167209580Y-30690475D01*
X167209580Y-29642856D02*
X167257200Y-29595237D01*
X167257200Y-29595237D02*
X167304819Y-29642856D01*
X167304819Y-29642856D02*
X167257200Y-29690475D01*
X167257200Y-29690475D02*
X167209580Y-29642856D01*
X167209580Y-29642856D02*
X167304819Y-29642856D01*
X166304819Y-28976190D02*
X166304819Y-28880952D01*
X166304819Y-28880952D02*
X166352438Y-28785714D01*
X166352438Y-28785714D02*
X166400057Y-28738095D01*
X166400057Y-28738095D02*
X166495295Y-28690476D01*
X166495295Y-28690476D02*
X166685771Y-28642857D01*
X166685771Y-28642857D02*
X166923866Y-28642857D01*
X166923866Y-28642857D02*
X167114342Y-28690476D01*
X167114342Y-28690476D02*
X167209580Y-28738095D01*
X167209580Y-28738095D02*
X167257200Y-28785714D01*
X167257200Y-28785714D02*
X167304819Y-28880952D01*
X167304819Y-28880952D02*
X167304819Y-28976190D01*
X167304819Y-28976190D02*
X167257200Y-29071428D01*
X167257200Y-29071428D02*
X167209580Y-29119047D01*
X167209580Y-29119047D02*
X167114342Y-29166666D01*
X167114342Y-29166666D02*
X166923866Y-29214285D01*
X166923866Y-29214285D02*
X166685771Y-29214285D01*
X166685771Y-29214285D02*
X166495295Y-29166666D01*
X166495295Y-29166666D02*
X166400057Y-29119047D01*
X166400057Y-29119047D02*
X166352438Y-29071428D01*
X166352438Y-29071428D02*
X166304819Y-28976190D01*
X166304819Y-28023809D02*
X166304819Y-27928571D01*
X166304819Y-27928571D02*
X166352438Y-27833333D01*
X166352438Y-27833333D02*
X166400057Y-27785714D01*
X166400057Y-27785714D02*
X166495295Y-27738095D01*
X166495295Y-27738095D02*
X166685771Y-27690476D01*
X166685771Y-27690476D02*
X166923866Y-27690476D01*
X166923866Y-27690476D02*
X167114342Y-27738095D01*
X167114342Y-27738095D02*
X167209580Y-27785714D01*
X167209580Y-27785714D02*
X167257200Y-27833333D01*
X167257200Y-27833333D02*
X167304819Y-27928571D01*
X167304819Y-27928571D02*
X167304819Y-28023809D01*
X167304819Y-28023809D02*
X167257200Y-28119047D01*
X167257200Y-28119047D02*
X167209580Y-28166666D01*
X167209580Y-28166666D02*
X167114342Y-28214285D01*
X167114342Y-28214285D02*
X166923866Y-28261904D01*
X166923866Y-28261904D02*
X166685771Y-28261904D01*
X166685771Y-28261904D02*
X166495295Y-28214285D01*
X166495295Y-28214285D02*
X166400057Y-28166666D01*
X166400057Y-28166666D02*
X166352438Y-28119047D01*
X166352438Y-28119047D02*
X166304819Y-28023809D01*
X166304819Y-27071428D02*
X166304819Y-26976190D01*
X166304819Y-26976190D02*
X166352438Y-26880952D01*
X166352438Y-26880952D02*
X166400057Y-26833333D01*
X166400057Y-26833333D02*
X166495295Y-26785714D01*
X166495295Y-26785714D02*
X166685771Y-26738095D01*
X166685771Y-26738095D02*
X166923866Y-26738095D01*
X166923866Y-26738095D02*
X167114342Y-26785714D01*
X167114342Y-26785714D02*
X167209580Y-26833333D01*
X167209580Y-26833333D02*
X167257200Y-26880952D01*
X167257200Y-26880952D02*
X167304819Y-26976190D01*
X167304819Y-26976190D02*
X167304819Y-27071428D01*
X167304819Y-27071428D02*
X167257200Y-27166666D01*
X167257200Y-27166666D02*
X167209580Y-27214285D01*
X167209580Y-27214285D02*
X167114342Y-27261904D01*
X167114342Y-27261904D02*
X166923866Y-27309523D01*
X166923866Y-27309523D02*
X166685771Y-27309523D01*
X166685771Y-27309523D02*
X166495295Y-27261904D01*
X166495295Y-27261904D02*
X166400057Y-27214285D01*
X166400057Y-27214285D02*
X166352438Y-27166666D01*
X166352438Y-27166666D02*
X166304819Y-27071428D01*
X166304819Y-26119047D02*
X166304819Y-26023809D01*
X166304819Y-26023809D02*
X166352438Y-25928571D01*
X166352438Y-25928571D02*
X166400057Y-25880952D01*
X166400057Y-25880952D02*
X166495295Y-25833333D01*
X166495295Y-25833333D02*
X166685771Y-25785714D01*
X166685771Y-25785714D02*
X166923866Y-25785714D01*
X166923866Y-25785714D02*
X167114342Y-25833333D01*
X167114342Y-25833333D02*
X167209580Y-25880952D01*
X167209580Y-25880952D02*
X167257200Y-25928571D01*
X167257200Y-25928571D02*
X167304819Y-26023809D01*
X167304819Y-26023809D02*
X167304819Y-26119047D01*
X167304819Y-26119047D02*
X167257200Y-26214285D01*
X167257200Y-26214285D02*
X167209580Y-26261904D01*
X167209580Y-26261904D02*
X167114342Y-26309523D01*
X167114342Y-26309523D02*
X166923866Y-26357142D01*
X166923866Y-26357142D02*
X166685771Y-26357142D01*
X166685771Y-26357142D02*
X166495295Y-26309523D01*
X166495295Y-26309523D02*
X166400057Y-26261904D01*
X166400057Y-26261904D02*
X166352438Y-26214285D01*
X166352438Y-26214285D02*
X166304819Y-26119047D01*
X167304819Y-24595237D02*
X166638152Y-24595237D01*
X166733390Y-24595237D02*
X166685771Y-24547618D01*
X166685771Y-24547618D02*
X166638152Y-24452380D01*
X166638152Y-24452380D02*
X166638152Y-24309523D01*
X166638152Y-24309523D02*
X166685771Y-24214285D01*
X166685771Y-24214285D02*
X166781009Y-24166666D01*
X166781009Y-24166666D02*
X167304819Y-24166666D01*
X166781009Y-24166666D02*
X166685771Y-24119047D01*
X166685771Y-24119047D02*
X166638152Y-24023809D01*
X166638152Y-24023809D02*
X166638152Y-23880952D01*
X166638152Y-23880952D02*
X166685771Y-23785713D01*
X166685771Y-23785713D02*
X166781009Y-23738094D01*
X166781009Y-23738094D02*
X167304819Y-23738094D01*
X167304819Y-23261904D02*
X166638152Y-23261904D01*
X166733390Y-23261904D02*
X166685771Y-23214285D01*
X166685771Y-23214285D02*
X166638152Y-23119047D01*
X166638152Y-23119047D02*
X166638152Y-22976190D01*
X166638152Y-22976190D02*
X166685771Y-22880952D01*
X166685771Y-22880952D02*
X166781009Y-22833333D01*
X166781009Y-22833333D02*
X167304819Y-22833333D01*
X166781009Y-22833333D02*
X166685771Y-22785714D01*
X166685771Y-22785714D02*
X166638152Y-22690476D01*
X166638152Y-22690476D02*
X166638152Y-22547619D01*
X166638152Y-22547619D02*
X166685771Y-22452380D01*
X166685771Y-22452380D02*
X166781009Y-22404761D01*
X166781009Y-22404761D02*
X167304819Y-22404761D01*
D10*
X165000000Y-25000000D02*
X168586420Y-25000000D01*
X165000000Y-28000000D02*
X168586420Y-28000000D01*
X168000000Y-25000000D02*
X168000000Y-28000000D01*
X168000000Y-25000000D02*
X168000000Y-28000000D01*
X168000000Y-25000000D02*
X168586421Y-26126504D01*
X168000000Y-25000000D02*
X167413579Y-26126504D01*
X168000000Y-28000000D02*
X167413579Y-26873496D01*
X168000000Y-28000000D02*
X168586421Y-26873496D01*
D11*
X106983390Y-134202380D02*
X106935771Y-134297618D01*
X106935771Y-134297618D02*
X106888152Y-134345237D01*
X106888152Y-134345237D02*
X106792914Y-134392856D01*
X106792914Y-134392856D02*
X106745295Y-134392856D01*
X106745295Y-134392856D02*
X106650057Y-134345237D01*
X106650057Y-134345237D02*
X106602438Y-134297618D01*
X106602438Y-134297618D02*
X106554819Y-134202380D01*
X106554819Y-134202380D02*
X106554819Y-134011904D01*
X106554819Y-134011904D02*
X106602438Y-133916666D01*
X106602438Y-133916666D02*
X106650057Y-133869047D01*
X106650057Y-133869047D02*
X106745295Y-133821428D01*
X106745295Y-133821428D02*
X106792914Y-133821428D01*
X106792914Y-133821428D02*
X106888152Y-133869047D01*
X106888152Y-133869047D02*
X106935771Y-133916666D01*
X106935771Y-133916666D02*
X106983390Y-134011904D01*
X106983390Y-134011904D02*
X106983390Y-134202380D01*
X106983390Y-134202380D02*
X107031009Y-134297618D01*
X107031009Y-134297618D02*
X107078628Y-134345237D01*
X107078628Y-134345237D02*
X107173866Y-134392856D01*
X107173866Y-134392856D02*
X107364342Y-134392856D01*
X107364342Y-134392856D02*
X107459580Y-134345237D01*
X107459580Y-134345237D02*
X107507200Y-134297618D01*
X107507200Y-134297618D02*
X107554819Y-134202380D01*
X107554819Y-134202380D02*
X107554819Y-134011904D01*
X107554819Y-134011904D02*
X107507200Y-133916666D01*
X107507200Y-133916666D02*
X107459580Y-133869047D01*
X107459580Y-133869047D02*
X107364342Y-133821428D01*
X107364342Y-133821428D02*
X107173866Y-133821428D01*
X107173866Y-133821428D02*
X107078628Y-133869047D01*
X107078628Y-133869047D02*
X107031009Y-133916666D01*
X107031009Y-133916666D02*
X106983390Y-134011904D01*
X107459580Y-133392856D02*
X107507200Y-133345237D01*
X107507200Y-133345237D02*
X107554819Y-133392856D01*
X107554819Y-133392856D02*
X107507200Y-133440475D01*
X107507200Y-133440475D02*
X107459580Y-133392856D01*
X107459580Y-133392856D02*
X107554819Y-133392856D01*
X106554819Y-132726190D02*
X106554819Y-132630952D01*
X106554819Y-132630952D02*
X106602438Y-132535714D01*
X106602438Y-132535714D02*
X106650057Y-132488095D01*
X106650057Y-132488095D02*
X106745295Y-132440476D01*
X106745295Y-132440476D02*
X106935771Y-132392857D01*
X106935771Y-132392857D02*
X107173866Y-132392857D01*
X107173866Y-132392857D02*
X107364342Y-132440476D01*
X107364342Y-132440476D02*
X107459580Y-132488095D01*
X107459580Y-132488095D02*
X107507200Y-132535714D01*
X107507200Y-132535714D02*
X107554819Y-132630952D01*
X107554819Y-132630952D02*
X107554819Y-132726190D01*
X107554819Y-132726190D02*
X107507200Y-132821428D01*
X107507200Y-132821428D02*
X107459580Y-132869047D01*
X107459580Y-132869047D02*
X107364342Y-132916666D01*
X107364342Y-132916666D02*
X107173866Y-132964285D01*
X107173866Y-132964285D02*
X106935771Y-132964285D01*
X106935771Y-132964285D02*
X106745295Y-132916666D01*
X106745295Y-132916666D02*
X106650057Y-132869047D01*
X106650057Y-132869047D02*
X106602438Y-132821428D01*
X106602438Y-132821428D02*
X106554819Y-132726190D01*
X106554819Y-131773809D02*
X106554819Y-131678571D01*
X106554819Y-131678571D02*
X106602438Y-131583333D01*
X106602438Y-131583333D02*
X106650057Y-131535714D01*
X106650057Y-131535714D02*
X106745295Y-131488095D01*
X106745295Y-131488095D02*
X106935771Y-131440476D01*
X106935771Y-131440476D02*
X107173866Y-131440476D01*
X107173866Y-131440476D02*
X107364342Y-131488095D01*
X107364342Y-131488095D02*
X107459580Y-131535714D01*
X107459580Y-131535714D02*
X107507200Y-131583333D01*
X107507200Y-131583333D02*
X107554819Y-131678571D01*
X107554819Y-131678571D02*
X107554819Y-131773809D01*
X107554819Y-131773809D02*
X107507200Y-131869047D01*
X107507200Y-131869047D02*
X107459580Y-131916666D01*
X107459580Y-131916666D02*
X107364342Y-131964285D01*
X107364342Y-131964285D02*
X107173866Y-132011904D01*
X107173866Y-132011904D02*
X106935771Y-132011904D01*
X106935771Y-132011904D02*
X106745295Y-131964285D01*
X106745295Y-131964285D02*
X106650057Y-131916666D01*
X106650057Y-131916666D02*
X106602438Y-131869047D01*
X106602438Y-131869047D02*
X106554819Y-131773809D01*
X106554819Y-130821428D02*
X106554819Y-130726190D01*
X106554819Y-130726190D02*
X106602438Y-130630952D01*
X106602438Y-130630952D02*
X106650057Y-130583333D01*
X106650057Y-130583333D02*
X106745295Y-130535714D01*
X106745295Y-130535714D02*
X106935771Y-130488095D01*
X106935771Y-130488095D02*
X107173866Y-130488095D01*
X107173866Y-130488095D02*
X107364342Y-130535714D01*
X107364342Y-130535714D02*
X107459580Y-130583333D01*
X107459580Y-130583333D02*
X107507200Y-130630952D01*
X107507200Y-130630952D02*
X107554819Y-130726190D01*
X107554819Y-130726190D02*
X107554819Y-130821428D01*
X107554819Y-130821428D02*
X107507200Y-130916666D01*
X107507200Y-130916666D02*
X107459580Y-130964285D01*
X107459580Y-130964285D02*
X107364342Y-131011904D01*
X107364342Y-131011904D02*
X107173866Y-131059523D01*
X107173866Y-131059523D02*
X106935771Y-131059523D01*
X106935771Y-131059523D02*
X106745295Y-131011904D01*
X106745295Y-131011904D02*
X106650057Y-130964285D01*
X106650057Y-130964285D02*
X106602438Y-130916666D01*
X106602438Y-130916666D02*
X106554819Y-130821428D01*
X106554819Y-129869047D02*
X106554819Y-129773809D01*
X106554819Y-129773809D02*
X106602438Y-129678571D01*
X106602438Y-129678571D02*
X106650057Y-129630952D01*
X106650057Y-129630952D02*
X106745295Y-129583333D01*
X106745295Y-129583333D02*
X106935771Y-129535714D01*
X106935771Y-129535714D02*
X107173866Y-129535714D01*
X107173866Y-129535714D02*
X107364342Y-129583333D01*
X107364342Y-129583333D02*
X107459580Y-129630952D01*
X107459580Y-129630952D02*
X107507200Y-129678571D01*
X107507200Y-129678571D02*
X107554819Y-129773809D01*
X107554819Y-129773809D02*
X107554819Y-129869047D01*
X107554819Y-129869047D02*
X107507200Y-129964285D01*
X107507200Y-129964285D02*
X107459580Y-130011904D01*
X107459580Y-130011904D02*
X107364342Y-130059523D01*
X107364342Y-130059523D02*
X107173866Y-130107142D01*
X107173866Y-130107142D02*
X106935771Y-130107142D01*
X106935771Y-130107142D02*
X106745295Y-130059523D01*
X106745295Y-130059523D02*
X106650057Y-130011904D01*
X106650057Y-130011904D02*
X106602438Y-129964285D01*
X106602438Y-129964285D02*
X106554819Y-129869047D01*
X107554819Y-128345237D02*
X106888152Y-128345237D01*
X106983390Y-128345237D02*
X106935771Y-128297618D01*
X106935771Y-128297618D02*
X106888152Y-128202380D01*
X106888152Y-128202380D02*
X106888152Y-128059523D01*
X106888152Y-128059523D02*
X106935771Y-127964285D01*
X106935771Y-127964285D02*
X107031009Y-127916666D01*
X107031009Y-127916666D02*
X107554819Y-127916666D01*
X107031009Y-127916666D02*
X106935771Y-127869047D01*
X106935771Y-127869047D02*
X106888152Y-127773809D01*
X106888152Y-127773809D02*
X106888152Y-127630952D01*
X106888152Y-127630952D02*
X106935771Y-127535713D01*
X106935771Y-127535713D02*
X107031009Y-127488094D01*
X107031009Y-127488094D02*
X107554819Y-127488094D01*
X107554819Y-127011904D02*
X106888152Y-127011904D01*
X106983390Y-127011904D02*
X106935771Y-126964285D01*
X106935771Y-126964285D02*
X106888152Y-126869047D01*
X106888152Y-126869047D02*
X106888152Y-126726190D01*
X106888152Y-126726190D02*
X106935771Y-126630952D01*
X106935771Y-126630952D02*
X107031009Y-126583333D01*
X107031009Y-126583333D02*
X107554819Y-126583333D01*
X107031009Y-126583333D02*
X106935771Y-126535714D01*
X106935771Y-126535714D02*
X106888152Y-126440476D01*
X106888152Y-126440476D02*
X106888152Y-126297619D01*
X106888152Y-126297619D02*
X106935771Y-126202380D01*
X106935771Y-126202380D02*
X107031009Y-126154761D01*
X107031009Y-126154761D02*
X107554819Y-126154761D01*
D10*
X124500000Y-134250000D02*
X107663580Y-134250000D01*
X124500000Y-126250000D02*
X107663580Y-126250000D01*
X108250000Y-134250000D02*
X108250000Y-126250000D01*
X108250000Y-134250000D02*
X108250000Y-126250000D01*
X108250000Y-134250000D02*
X107663579Y-133123496D01*
X108250000Y-134250000D02*
X108836421Y-133123496D01*
X108250000Y-126250000D02*
X108836421Y-127376504D01*
X108250000Y-126250000D02*
X107663579Y-127376504D01*
D11*
X115052381Y-143154819D02*
X114480953Y-143154819D01*
X114766667Y-143154819D02*
X114766667Y-142154819D01*
X114766667Y-142154819D02*
X114671429Y-142297676D01*
X114671429Y-142297676D02*
X114576191Y-142392914D01*
X114576191Y-142392914D02*
X114480953Y-142440533D01*
X116004762Y-143154819D02*
X115433334Y-143154819D01*
X115719048Y-143154819D02*
X115719048Y-142154819D01*
X115719048Y-142154819D02*
X115623810Y-142297676D01*
X115623810Y-142297676D02*
X115528572Y-142392914D01*
X115528572Y-142392914D02*
X115433334Y-142440533D01*
X116433334Y-143059580D02*
X116480953Y-143107200D01*
X116480953Y-143107200D02*
X116433334Y-143154819D01*
X116433334Y-143154819D02*
X116385715Y-143107200D01*
X116385715Y-143107200D02*
X116433334Y-143059580D01*
X116433334Y-143059580D02*
X116433334Y-143154819D01*
X117100000Y-142154819D02*
X117195238Y-142154819D01*
X117195238Y-142154819D02*
X117290476Y-142202438D01*
X117290476Y-142202438D02*
X117338095Y-142250057D01*
X117338095Y-142250057D02*
X117385714Y-142345295D01*
X117385714Y-142345295D02*
X117433333Y-142535771D01*
X117433333Y-142535771D02*
X117433333Y-142773866D01*
X117433333Y-142773866D02*
X117385714Y-142964342D01*
X117385714Y-142964342D02*
X117338095Y-143059580D01*
X117338095Y-143059580D02*
X117290476Y-143107200D01*
X117290476Y-143107200D02*
X117195238Y-143154819D01*
X117195238Y-143154819D02*
X117100000Y-143154819D01*
X117100000Y-143154819D02*
X117004762Y-143107200D01*
X117004762Y-143107200D02*
X116957143Y-143059580D01*
X116957143Y-143059580D02*
X116909524Y-142964342D01*
X116909524Y-142964342D02*
X116861905Y-142773866D01*
X116861905Y-142773866D02*
X116861905Y-142535771D01*
X116861905Y-142535771D02*
X116909524Y-142345295D01*
X116909524Y-142345295D02*
X116957143Y-142250057D01*
X116957143Y-142250057D02*
X117004762Y-142202438D01*
X117004762Y-142202438D02*
X117100000Y-142154819D01*
X118052381Y-142154819D02*
X118147619Y-142154819D01*
X118147619Y-142154819D02*
X118242857Y-142202438D01*
X118242857Y-142202438D02*
X118290476Y-142250057D01*
X118290476Y-142250057D02*
X118338095Y-142345295D01*
X118338095Y-142345295D02*
X118385714Y-142535771D01*
X118385714Y-142535771D02*
X118385714Y-142773866D01*
X118385714Y-142773866D02*
X118338095Y-142964342D01*
X118338095Y-142964342D02*
X118290476Y-143059580D01*
X118290476Y-143059580D02*
X118242857Y-143107200D01*
X118242857Y-143107200D02*
X118147619Y-143154819D01*
X118147619Y-143154819D02*
X118052381Y-143154819D01*
X118052381Y-143154819D02*
X117957143Y-143107200D01*
X117957143Y-143107200D02*
X117909524Y-143059580D01*
X117909524Y-143059580D02*
X117861905Y-142964342D01*
X117861905Y-142964342D02*
X117814286Y-142773866D01*
X117814286Y-142773866D02*
X117814286Y-142535771D01*
X117814286Y-142535771D02*
X117861905Y-142345295D01*
X117861905Y-142345295D02*
X117909524Y-142250057D01*
X117909524Y-142250057D02*
X117957143Y-142202438D01*
X117957143Y-142202438D02*
X118052381Y-142154819D01*
X119004762Y-142154819D02*
X119100000Y-142154819D01*
X119100000Y-142154819D02*
X119195238Y-142202438D01*
X119195238Y-142202438D02*
X119242857Y-142250057D01*
X119242857Y-142250057D02*
X119290476Y-142345295D01*
X119290476Y-142345295D02*
X119338095Y-142535771D01*
X119338095Y-142535771D02*
X119338095Y-142773866D01*
X119338095Y-142773866D02*
X119290476Y-142964342D01*
X119290476Y-142964342D02*
X119242857Y-143059580D01*
X119242857Y-143059580D02*
X119195238Y-143107200D01*
X119195238Y-143107200D02*
X119100000Y-143154819D01*
X119100000Y-143154819D02*
X119004762Y-143154819D01*
X119004762Y-143154819D02*
X118909524Y-143107200D01*
X118909524Y-143107200D02*
X118861905Y-143059580D01*
X118861905Y-143059580D02*
X118814286Y-142964342D01*
X118814286Y-142964342D02*
X118766667Y-142773866D01*
X118766667Y-142773866D02*
X118766667Y-142535771D01*
X118766667Y-142535771D02*
X118814286Y-142345295D01*
X118814286Y-142345295D02*
X118861905Y-142250057D01*
X118861905Y-142250057D02*
X118909524Y-142202438D01*
X118909524Y-142202438D02*
X119004762Y-142154819D01*
X119957143Y-142154819D02*
X120052381Y-142154819D01*
X120052381Y-142154819D02*
X120147619Y-142202438D01*
X120147619Y-142202438D02*
X120195238Y-142250057D01*
X120195238Y-142250057D02*
X120242857Y-142345295D01*
X120242857Y-142345295D02*
X120290476Y-142535771D01*
X120290476Y-142535771D02*
X120290476Y-142773866D01*
X120290476Y-142773866D02*
X120242857Y-142964342D01*
X120242857Y-142964342D02*
X120195238Y-143059580D01*
X120195238Y-143059580D02*
X120147619Y-143107200D01*
X120147619Y-143107200D02*
X120052381Y-143154819D01*
X120052381Y-143154819D02*
X119957143Y-143154819D01*
X119957143Y-143154819D02*
X119861905Y-143107200D01*
X119861905Y-143107200D02*
X119814286Y-143059580D01*
X119814286Y-143059580D02*
X119766667Y-142964342D01*
X119766667Y-142964342D02*
X119719048Y-142773866D01*
X119719048Y-142773866D02*
X119719048Y-142535771D01*
X119719048Y-142535771D02*
X119766667Y-142345295D01*
X119766667Y-142345295D02*
X119814286Y-142250057D01*
X119814286Y-142250057D02*
X119861905Y-142202438D01*
X119861905Y-142202438D02*
X119957143Y-142154819D01*
X121480953Y-143154819D02*
X121480953Y-142488152D01*
X121480953Y-142583390D02*
X121528572Y-142535771D01*
X121528572Y-142535771D02*
X121623810Y-142488152D01*
X121623810Y-142488152D02*
X121766667Y-142488152D01*
X121766667Y-142488152D02*
X121861905Y-142535771D01*
X121861905Y-142535771D02*
X121909524Y-142631009D01*
X121909524Y-142631009D02*
X121909524Y-143154819D01*
X121909524Y-142631009D02*
X121957143Y-142535771D01*
X121957143Y-142535771D02*
X122052381Y-142488152D01*
X122052381Y-142488152D02*
X122195238Y-142488152D01*
X122195238Y-142488152D02*
X122290477Y-142535771D01*
X122290477Y-142535771D02*
X122338096Y-142631009D01*
X122338096Y-142631009D02*
X122338096Y-143154819D01*
X122814286Y-143154819D02*
X122814286Y-142488152D01*
X122814286Y-142583390D02*
X122861905Y-142535771D01*
X122861905Y-142535771D02*
X122957143Y-142488152D01*
X122957143Y-142488152D02*
X123100000Y-142488152D01*
X123100000Y-142488152D02*
X123195238Y-142535771D01*
X123195238Y-142535771D02*
X123242857Y-142631009D01*
X123242857Y-142631009D02*
X123242857Y-143154819D01*
X123242857Y-142631009D02*
X123290476Y-142535771D01*
X123290476Y-142535771D02*
X123385714Y-142488152D01*
X123385714Y-142488152D02*
X123528571Y-142488152D01*
X123528571Y-142488152D02*
X123623810Y-142535771D01*
X123623810Y-142535771D02*
X123671429Y-142631009D01*
X123671429Y-142631009D02*
X123671429Y-143154819D01*
D10*
X114000000Y-134750000D02*
X114000000Y-141386420D01*
X125000000Y-134750000D02*
X125000000Y-141386420D01*
X114000000Y-140800000D02*
X125000000Y-140800000D01*
X114000000Y-140800000D02*
X125000000Y-140800000D01*
X114000000Y-140800000D02*
X115126504Y-140213579D01*
X114000000Y-140800000D02*
X115126504Y-141386421D01*
X125000000Y-140800000D02*
X123873496Y-141386421D01*
X125000000Y-140800000D02*
X123873496Y-140213579D01*
D11*
X166304819Y-156190475D02*
X166304819Y-155571428D01*
X166304819Y-155571428D02*
X166685771Y-155904761D01*
X166685771Y-155904761D02*
X166685771Y-155761904D01*
X166685771Y-155761904D02*
X166733390Y-155666666D01*
X166733390Y-155666666D02*
X166781009Y-155619047D01*
X166781009Y-155619047D02*
X166876247Y-155571428D01*
X166876247Y-155571428D02*
X167114342Y-155571428D01*
X167114342Y-155571428D02*
X167209580Y-155619047D01*
X167209580Y-155619047D02*
X167257200Y-155666666D01*
X167257200Y-155666666D02*
X167304819Y-155761904D01*
X167304819Y-155761904D02*
X167304819Y-156047618D01*
X167304819Y-156047618D02*
X167257200Y-156142856D01*
X167257200Y-156142856D02*
X167209580Y-156190475D01*
X167209580Y-155142856D02*
X167257200Y-155095237D01*
X167257200Y-155095237D02*
X167304819Y-155142856D01*
X167304819Y-155142856D02*
X167257200Y-155190475D01*
X167257200Y-155190475D02*
X167209580Y-155142856D01*
X167209580Y-155142856D02*
X167304819Y-155142856D01*
X166304819Y-154476190D02*
X166304819Y-154380952D01*
X166304819Y-154380952D02*
X166352438Y-154285714D01*
X166352438Y-154285714D02*
X166400057Y-154238095D01*
X166400057Y-154238095D02*
X166495295Y-154190476D01*
X166495295Y-154190476D02*
X166685771Y-154142857D01*
X166685771Y-154142857D02*
X166923866Y-154142857D01*
X166923866Y-154142857D02*
X167114342Y-154190476D01*
X167114342Y-154190476D02*
X167209580Y-154238095D01*
X167209580Y-154238095D02*
X167257200Y-154285714D01*
X167257200Y-154285714D02*
X167304819Y-154380952D01*
X167304819Y-154380952D02*
X167304819Y-154476190D01*
X167304819Y-154476190D02*
X167257200Y-154571428D01*
X167257200Y-154571428D02*
X167209580Y-154619047D01*
X167209580Y-154619047D02*
X167114342Y-154666666D01*
X167114342Y-154666666D02*
X166923866Y-154714285D01*
X166923866Y-154714285D02*
X166685771Y-154714285D01*
X166685771Y-154714285D02*
X166495295Y-154666666D01*
X166495295Y-154666666D02*
X166400057Y-154619047D01*
X166400057Y-154619047D02*
X166352438Y-154571428D01*
X166352438Y-154571428D02*
X166304819Y-154476190D01*
X166304819Y-153523809D02*
X166304819Y-153428571D01*
X166304819Y-153428571D02*
X166352438Y-153333333D01*
X166352438Y-153333333D02*
X166400057Y-153285714D01*
X166400057Y-153285714D02*
X166495295Y-153238095D01*
X166495295Y-153238095D02*
X166685771Y-153190476D01*
X166685771Y-153190476D02*
X166923866Y-153190476D01*
X166923866Y-153190476D02*
X167114342Y-153238095D01*
X167114342Y-153238095D02*
X167209580Y-153285714D01*
X167209580Y-153285714D02*
X167257200Y-153333333D01*
X167257200Y-153333333D02*
X167304819Y-153428571D01*
X167304819Y-153428571D02*
X167304819Y-153523809D01*
X167304819Y-153523809D02*
X167257200Y-153619047D01*
X167257200Y-153619047D02*
X167209580Y-153666666D01*
X167209580Y-153666666D02*
X167114342Y-153714285D01*
X167114342Y-153714285D02*
X166923866Y-153761904D01*
X166923866Y-153761904D02*
X166685771Y-153761904D01*
X166685771Y-153761904D02*
X166495295Y-153714285D01*
X166495295Y-153714285D02*
X166400057Y-153666666D01*
X166400057Y-153666666D02*
X166352438Y-153619047D01*
X166352438Y-153619047D02*
X166304819Y-153523809D01*
X166304819Y-152571428D02*
X166304819Y-152476190D01*
X166304819Y-152476190D02*
X166352438Y-152380952D01*
X166352438Y-152380952D02*
X166400057Y-152333333D01*
X166400057Y-152333333D02*
X166495295Y-152285714D01*
X166495295Y-152285714D02*
X166685771Y-152238095D01*
X166685771Y-152238095D02*
X166923866Y-152238095D01*
X166923866Y-152238095D02*
X167114342Y-152285714D01*
X167114342Y-152285714D02*
X167209580Y-152333333D01*
X167209580Y-152333333D02*
X167257200Y-152380952D01*
X167257200Y-152380952D02*
X167304819Y-152476190D01*
X167304819Y-152476190D02*
X167304819Y-152571428D01*
X167304819Y-152571428D02*
X167257200Y-152666666D01*
X167257200Y-152666666D02*
X167209580Y-152714285D01*
X167209580Y-152714285D02*
X167114342Y-152761904D01*
X167114342Y-152761904D02*
X166923866Y-152809523D01*
X166923866Y-152809523D02*
X166685771Y-152809523D01*
X166685771Y-152809523D02*
X166495295Y-152761904D01*
X166495295Y-152761904D02*
X166400057Y-152714285D01*
X166400057Y-152714285D02*
X166352438Y-152666666D01*
X166352438Y-152666666D02*
X166304819Y-152571428D01*
X166304819Y-151619047D02*
X166304819Y-151523809D01*
X166304819Y-151523809D02*
X166352438Y-151428571D01*
X166352438Y-151428571D02*
X166400057Y-151380952D01*
X166400057Y-151380952D02*
X166495295Y-151333333D01*
X166495295Y-151333333D02*
X166685771Y-151285714D01*
X166685771Y-151285714D02*
X166923866Y-151285714D01*
X166923866Y-151285714D02*
X167114342Y-151333333D01*
X167114342Y-151333333D02*
X167209580Y-151380952D01*
X167209580Y-151380952D02*
X167257200Y-151428571D01*
X167257200Y-151428571D02*
X167304819Y-151523809D01*
X167304819Y-151523809D02*
X167304819Y-151619047D01*
X167304819Y-151619047D02*
X167257200Y-151714285D01*
X167257200Y-151714285D02*
X167209580Y-151761904D01*
X167209580Y-151761904D02*
X167114342Y-151809523D01*
X167114342Y-151809523D02*
X166923866Y-151857142D01*
X166923866Y-151857142D02*
X166685771Y-151857142D01*
X166685771Y-151857142D02*
X166495295Y-151809523D01*
X166495295Y-151809523D02*
X166400057Y-151761904D01*
X166400057Y-151761904D02*
X166352438Y-151714285D01*
X166352438Y-151714285D02*
X166304819Y-151619047D01*
X167304819Y-150095237D02*
X166638152Y-150095237D01*
X166733390Y-150095237D02*
X166685771Y-150047618D01*
X166685771Y-150047618D02*
X166638152Y-149952380D01*
X166638152Y-149952380D02*
X166638152Y-149809523D01*
X166638152Y-149809523D02*
X166685771Y-149714285D01*
X166685771Y-149714285D02*
X166781009Y-149666666D01*
X166781009Y-149666666D02*
X167304819Y-149666666D01*
X166781009Y-149666666D02*
X166685771Y-149619047D01*
X166685771Y-149619047D02*
X166638152Y-149523809D01*
X166638152Y-149523809D02*
X166638152Y-149380952D01*
X166638152Y-149380952D02*
X166685771Y-149285713D01*
X166685771Y-149285713D02*
X166781009Y-149238094D01*
X166781009Y-149238094D02*
X167304819Y-149238094D01*
X167304819Y-148761904D02*
X166638152Y-148761904D01*
X166733390Y-148761904D02*
X166685771Y-148714285D01*
X166685771Y-148714285D02*
X166638152Y-148619047D01*
X166638152Y-148619047D02*
X166638152Y-148476190D01*
X166638152Y-148476190D02*
X166685771Y-148380952D01*
X166685771Y-148380952D02*
X166781009Y-148333333D01*
X166781009Y-148333333D02*
X167304819Y-148333333D01*
X166781009Y-148333333D02*
X166685771Y-148285714D01*
X166685771Y-148285714D02*
X166638152Y-148190476D01*
X166638152Y-148190476D02*
X166638152Y-148047619D01*
X166638152Y-148047619D02*
X166685771Y-147952380D01*
X166685771Y-147952380D02*
X166781009Y-147904761D01*
X166781009Y-147904761D02*
X167304819Y-147904761D01*
D10*
X165000000Y-150500000D02*
X168586420Y-150500000D01*
X165000000Y-153500000D02*
X168586420Y-153500000D01*
X168000000Y-150500000D02*
X168000000Y-153500000D01*
X168000000Y-150500000D02*
X168000000Y-153500000D01*
X168000000Y-150500000D02*
X168586421Y-151626504D01*
X168000000Y-150500000D02*
X167413579Y-151626504D01*
X168000000Y-153500000D02*
X167413579Y-152373496D01*
X168000000Y-153500000D02*
X168586421Y-152373496D01*
D11*
X156559524Y-21554819D02*
X157226190Y-21554819D01*
X157226190Y-21554819D02*
X156797619Y-22554819D01*
X157607143Y-22459580D02*
X157654762Y-22507200D01*
X157654762Y-22507200D02*
X157607143Y-22554819D01*
X157607143Y-22554819D02*
X157559524Y-22507200D01*
X157559524Y-22507200D02*
X157607143Y-22459580D01*
X157607143Y-22459580D02*
X157607143Y-22554819D01*
X158559523Y-21554819D02*
X158083333Y-21554819D01*
X158083333Y-21554819D02*
X158035714Y-22031009D01*
X158035714Y-22031009D02*
X158083333Y-21983390D01*
X158083333Y-21983390D02*
X158178571Y-21935771D01*
X158178571Y-21935771D02*
X158416666Y-21935771D01*
X158416666Y-21935771D02*
X158511904Y-21983390D01*
X158511904Y-21983390D02*
X158559523Y-22031009D01*
X158559523Y-22031009D02*
X158607142Y-22126247D01*
X158607142Y-22126247D02*
X158607142Y-22364342D01*
X158607142Y-22364342D02*
X158559523Y-22459580D01*
X158559523Y-22459580D02*
X158511904Y-22507200D01*
X158511904Y-22507200D02*
X158416666Y-22554819D01*
X158416666Y-22554819D02*
X158178571Y-22554819D01*
X158178571Y-22554819D02*
X158083333Y-22507200D01*
X158083333Y-22507200D02*
X158035714Y-22459580D01*
X159226190Y-21554819D02*
X159321428Y-21554819D01*
X159321428Y-21554819D02*
X159416666Y-21602438D01*
X159416666Y-21602438D02*
X159464285Y-21650057D01*
X159464285Y-21650057D02*
X159511904Y-21745295D01*
X159511904Y-21745295D02*
X159559523Y-21935771D01*
X159559523Y-21935771D02*
X159559523Y-22173866D01*
X159559523Y-22173866D02*
X159511904Y-22364342D01*
X159511904Y-22364342D02*
X159464285Y-22459580D01*
X159464285Y-22459580D02*
X159416666Y-22507200D01*
X159416666Y-22507200D02*
X159321428Y-22554819D01*
X159321428Y-22554819D02*
X159226190Y-22554819D01*
X159226190Y-22554819D02*
X159130952Y-22507200D01*
X159130952Y-22507200D02*
X159083333Y-22459580D01*
X159083333Y-22459580D02*
X159035714Y-22364342D01*
X159035714Y-22364342D02*
X158988095Y-22173866D01*
X158988095Y-22173866D02*
X158988095Y-21935771D01*
X158988095Y-21935771D02*
X159035714Y-21745295D01*
X159035714Y-21745295D02*
X159083333Y-21650057D01*
X159083333Y-21650057D02*
X159130952Y-21602438D01*
X159130952Y-21602438D02*
X159226190Y-21554819D01*
X160178571Y-21554819D02*
X160273809Y-21554819D01*
X160273809Y-21554819D02*
X160369047Y-21602438D01*
X160369047Y-21602438D02*
X160416666Y-21650057D01*
X160416666Y-21650057D02*
X160464285Y-21745295D01*
X160464285Y-21745295D02*
X160511904Y-21935771D01*
X160511904Y-21935771D02*
X160511904Y-22173866D01*
X160511904Y-22173866D02*
X160464285Y-22364342D01*
X160464285Y-22364342D02*
X160416666Y-22459580D01*
X160416666Y-22459580D02*
X160369047Y-22507200D01*
X160369047Y-22507200D02*
X160273809Y-22554819D01*
X160273809Y-22554819D02*
X160178571Y-22554819D01*
X160178571Y-22554819D02*
X160083333Y-22507200D01*
X160083333Y-22507200D02*
X160035714Y-22459580D01*
X160035714Y-22459580D02*
X159988095Y-22364342D01*
X159988095Y-22364342D02*
X159940476Y-22173866D01*
X159940476Y-22173866D02*
X159940476Y-21935771D01*
X159940476Y-21935771D02*
X159988095Y-21745295D01*
X159988095Y-21745295D02*
X160035714Y-21650057D01*
X160035714Y-21650057D02*
X160083333Y-21602438D01*
X160083333Y-21602438D02*
X160178571Y-21554819D01*
X161130952Y-21554819D02*
X161226190Y-21554819D01*
X161226190Y-21554819D02*
X161321428Y-21602438D01*
X161321428Y-21602438D02*
X161369047Y-21650057D01*
X161369047Y-21650057D02*
X161416666Y-21745295D01*
X161416666Y-21745295D02*
X161464285Y-21935771D01*
X161464285Y-21935771D02*
X161464285Y-22173866D01*
X161464285Y-22173866D02*
X161416666Y-22364342D01*
X161416666Y-22364342D02*
X161369047Y-22459580D01*
X161369047Y-22459580D02*
X161321428Y-22507200D01*
X161321428Y-22507200D02*
X161226190Y-22554819D01*
X161226190Y-22554819D02*
X161130952Y-22554819D01*
X161130952Y-22554819D02*
X161035714Y-22507200D01*
X161035714Y-22507200D02*
X160988095Y-22459580D01*
X160988095Y-22459580D02*
X160940476Y-22364342D01*
X160940476Y-22364342D02*
X160892857Y-22173866D01*
X160892857Y-22173866D02*
X160892857Y-21935771D01*
X160892857Y-21935771D02*
X160940476Y-21745295D01*
X160940476Y-21745295D02*
X160988095Y-21650057D01*
X160988095Y-21650057D02*
X161035714Y-21602438D01*
X161035714Y-21602438D02*
X161130952Y-21554819D01*
X162654762Y-22554819D02*
X162654762Y-21888152D01*
X162654762Y-21983390D02*
X162702381Y-21935771D01*
X162702381Y-21935771D02*
X162797619Y-21888152D01*
X162797619Y-21888152D02*
X162940476Y-21888152D01*
X162940476Y-21888152D02*
X163035714Y-21935771D01*
X163035714Y-21935771D02*
X163083333Y-22031009D01*
X163083333Y-22031009D02*
X163083333Y-22554819D01*
X163083333Y-22031009D02*
X163130952Y-21935771D01*
X163130952Y-21935771D02*
X163226190Y-21888152D01*
X163226190Y-21888152D02*
X163369047Y-21888152D01*
X163369047Y-21888152D02*
X163464286Y-21935771D01*
X163464286Y-21935771D02*
X163511905Y-22031009D01*
X163511905Y-22031009D02*
X163511905Y-22554819D01*
X163988095Y-22554819D02*
X163988095Y-21888152D01*
X163988095Y-21983390D02*
X164035714Y-21935771D01*
X164035714Y-21935771D02*
X164130952Y-21888152D01*
X164130952Y-21888152D02*
X164273809Y-21888152D01*
X164273809Y-21888152D02*
X164369047Y-21935771D01*
X164369047Y-21935771D02*
X164416666Y-22031009D01*
X164416666Y-22031009D02*
X164416666Y-22554819D01*
X164416666Y-22031009D02*
X164464285Y-21935771D01*
X164464285Y-21935771D02*
X164559523Y-21888152D01*
X164559523Y-21888152D02*
X164702380Y-21888152D01*
X164702380Y-21888152D02*
X164797619Y-21935771D01*
X164797619Y-21935771D02*
X164845238Y-22031009D01*
X164845238Y-22031009D02*
X164845238Y-22554819D01*
D10*
X164500000Y-24500000D02*
X164500000Y-22663580D01*
X157000000Y-24500000D02*
X157000000Y-22663580D01*
X164500000Y-23250000D02*
X157000000Y-23250000D01*
X164500000Y-23250000D02*
X157000000Y-23250000D01*
X164500000Y-23250000D02*
X163373496Y-23836421D01*
X164500000Y-23250000D02*
X163373496Y-22663579D01*
X157000000Y-23250000D02*
X158126504Y-22663579D01*
X157000000Y-23250000D02*
X158126504Y-23836421D01*
D11*
X178054819Y-152922618D02*
X178054819Y-152732142D01*
X178054819Y-152732142D02*
X178007200Y-152636904D01*
X178007200Y-152636904D02*
X177959580Y-152589285D01*
X177959580Y-152589285D02*
X177816723Y-152494047D01*
X177816723Y-152494047D02*
X177626247Y-152446428D01*
X177626247Y-152446428D02*
X177245295Y-152446428D01*
X177245295Y-152446428D02*
X177150057Y-152494047D01*
X177150057Y-152494047D02*
X177102438Y-152541666D01*
X177102438Y-152541666D02*
X177054819Y-152636904D01*
X177054819Y-152636904D02*
X177054819Y-152827380D01*
X177054819Y-152827380D02*
X177102438Y-152922618D01*
X177102438Y-152922618D02*
X177150057Y-152970237D01*
X177150057Y-152970237D02*
X177245295Y-153017856D01*
X177245295Y-153017856D02*
X177483390Y-153017856D01*
X177483390Y-153017856D02*
X177578628Y-152970237D01*
X177578628Y-152970237D02*
X177626247Y-152922618D01*
X177626247Y-152922618D02*
X177673866Y-152827380D01*
X177673866Y-152827380D02*
X177673866Y-152636904D01*
X177673866Y-152636904D02*
X177626247Y-152541666D01*
X177626247Y-152541666D02*
X177578628Y-152494047D01*
X177578628Y-152494047D02*
X177483390Y-152446428D01*
X177959580Y-152017856D02*
X178007200Y-151970237D01*
X178007200Y-151970237D02*
X178054819Y-152017856D01*
X178054819Y-152017856D02*
X178007200Y-152065475D01*
X178007200Y-152065475D02*
X177959580Y-152017856D01*
X177959580Y-152017856D02*
X178054819Y-152017856D01*
X177150057Y-151589285D02*
X177102438Y-151541666D01*
X177102438Y-151541666D02*
X177054819Y-151446428D01*
X177054819Y-151446428D02*
X177054819Y-151208333D01*
X177054819Y-151208333D02*
X177102438Y-151113095D01*
X177102438Y-151113095D02*
X177150057Y-151065476D01*
X177150057Y-151065476D02*
X177245295Y-151017857D01*
X177245295Y-151017857D02*
X177340533Y-151017857D01*
X177340533Y-151017857D02*
X177483390Y-151065476D01*
X177483390Y-151065476D02*
X178054819Y-151636904D01*
X178054819Y-151636904D02*
X178054819Y-151017857D01*
X177054819Y-150113095D02*
X177054819Y-150589285D01*
X177054819Y-150589285D02*
X177531009Y-150636904D01*
X177531009Y-150636904D02*
X177483390Y-150589285D01*
X177483390Y-150589285D02*
X177435771Y-150494047D01*
X177435771Y-150494047D02*
X177435771Y-150255952D01*
X177435771Y-150255952D02*
X177483390Y-150160714D01*
X177483390Y-150160714D02*
X177531009Y-150113095D01*
X177531009Y-150113095D02*
X177626247Y-150065476D01*
X177626247Y-150065476D02*
X177864342Y-150065476D01*
X177864342Y-150065476D02*
X177959580Y-150113095D01*
X177959580Y-150113095D02*
X178007200Y-150160714D01*
X178007200Y-150160714D02*
X178054819Y-150255952D01*
X178054819Y-150255952D02*
X178054819Y-150494047D01*
X178054819Y-150494047D02*
X178007200Y-150589285D01*
X178007200Y-150589285D02*
X177959580Y-150636904D01*
X177054819Y-149446428D02*
X177054819Y-149351190D01*
X177054819Y-149351190D02*
X177102438Y-149255952D01*
X177102438Y-149255952D02*
X177150057Y-149208333D01*
X177150057Y-149208333D02*
X177245295Y-149160714D01*
X177245295Y-149160714D02*
X177435771Y-149113095D01*
X177435771Y-149113095D02*
X177673866Y-149113095D01*
X177673866Y-149113095D02*
X177864342Y-149160714D01*
X177864342Y-149160714D02*
X177959580Y-149208333D01*
X177959580Y-149208333D02*
X178007200Y-149255952D01*
X178007200Y-149255952D02*
X178054819Y-149351190D01*
X178054819Y-149351190D02*
X178054819Y-149446428D01*
X178054819Y-149446428D02*
X178007200Y-149541666D01*
X178007200Y-149541666D02*
X177959580Y-149589285D01*
X177959580Y-149589285D02*
X177864342Y-149636904D01*
X177864342Y-149636904D02*
X177673866Y-149684523D01*
X177673866Y-149684523D02*
X177435771Y-149684523D01*
X177435771Y-149684523D02*
X177245295Y-149636904D01*
X177245295Y-149636904D02*
X177150057Y-149589285D01*
X177150057Y-149589285D02*
X177102438Y-149541666D01*
X177102438Y-149541666D02*
X177054819Y-149446428D01*
X177054819Y-148494047D02*
X177054819Y-148398809D01*
X177054819Y-148398809D02*
X177102438Y-148303571D01*
X177102438Y-148303571D02*
X177150057Y-148255952D01*
X177150057Y-148255952D02*
X177245295Y-148208333D01*
X177245295Y-148208333D02*
X177435771Y-148160714D01*
X177435771Y-148160714D02*
X177673866Y-148160714D01*
X177673866Y-148160714D02*
X177864342Y-148208333D01*
X177864342Y-148208333D02*
X177959580Y-148255952D01*
X177959580Y-148255952D02*
X178007200Y-148303571D01*
X178007200Y-148303571D02*
X178054819Y-148398809D01*
X178054819Y-148398809D02*
X178054819Y-148494047D01*
X178054819Y-148494047D02*
X178007200Y-148589285D01*
X178007200Y-148589285D02*
X177959580Y-148636904D01*
X177959580Y-148636904D02*
X177864342Y-148684523D01*
X177864342Y-148684523D02*
X177673866Y-148732142D01*
X177673866Y-148732142D02*
X177435771Y-148732142D01*
X177435771Y-148732142D02*
X177245295Y-148684523D01*
X177245295Y-148684523D02*
X177150057Y-148636904D01*
X177150057Y-148636904D02*
X177102438Y-148589285D01*
X177102438Y-148589285D02*
X177054819Y-148494047D01*
X178054819Y-146970237D02*
X177388152Y-146970237D01*
X177483390Y-146970237D02*
X177435771Y-146922618D01*
X177435771Y-146922618D02*
X177388152Y-146827380D01*
X177388152Y-146827380D02*
X177388152Y-146684523D01*
X177388152Y-146684523D02*
X177435771Y-146589285D01*
X177435771Y-146589285D02*
X177531009Y-146541666D01*
X177531009Y-146541666D02*
X178054819Y-146541666D01*
X177531009Y-146541666D02*
X177435771Y-146494047D01*
X177435771Y-146494047D02*
X177388152Y-146398809D01*
X177388152Y-146398809D02*
X177388152Y-146255952D01*
X177388152Y-146255952D02*
X177435771Y-146160713D01*
X177435771Y-146160713D02*
X177531009Y-146113094D01*
X177531009Y-146113094D02*
X178054819Y-146113094D01*
X178054819Y-145636904D02*
X177388152Y-145636904D01*
X177483390Y-145636904D02*
X177435771Y-145589285D01*
X177435771Y-145589285D02*
X177388152Y-145494047D01*
X177388152Y-145494047D02*
X177388152Y-145351190D01*
X177388152Y-145351190D02*
X177435771Y-145255952D01*
X177435771Y-145255952D02*
X177531009Y-145208333D01*
X177531009Y-145208333D02*
X178054819Y-145208333D01*
X177531009Y-145208333D02*
X177435771Y-145160714D01*
X177435771Y-145160714D02*
X177388152Y-145065476D01*
X177388152Y-145065476D02*
X177388152Y-144922619D01*
X177388152Y-144922619D02*
X177435771Y-144827380D01*
X177435771Y-144827380D02*
X177531009Y-144779761D01*
X177531009Y-144779761D02*
X178054819Y-144779761D01*
D10*
X165000000Y-153500000D02*
X179336420Y-153500000D01*
X165000000Y-144250000D02*
X179336420Y-144250000D01*
X178750000Y-153500000D02*
X178750000Y-144250000D01*
X178750000Y-153500000D02*
X178750000Y-144250000D01*
X178750000Y-153500000D02*
X178163579Y-152373496D01*
X178750000Y-153500000D02*
X179336421Y-152373496D01*
X178750000Y-144250000D02*
X179336421Y-145376504D01*
X178750000Y-144250000D02*
X178163579Y-145376504D01*
D11*
X113559524Y-21554819D02*
X114226190Y-21554819D01*
X114226190Y-21554819D02*
X113797619Y-22554819D01*
X114607143Y-22459580D02*
X114654762Y-22507200D01*
X114654762Y-22507200D02*
X114607143Y-22554819D01*
X114607143Y-22554819D02*
X114559524Y-22507200D01*
X114559524Y-22507200D02*
X114607143Y-22459580D01*
X114607143Y-22459580D02*
X114607143Y-22554819D01*
X115559523Y-21554819D02*
X115083333Y-21554819D01*
X115083333Y-21554819D02*
X115035714Y-22031009D01*
X115035714Y-22031009D02*
X115083333Y-21983390D01*
X115083333Y-21983390D02*
X115178571Y-21935771D01*
X115178571Y-21935771D02*
X115416666Y-21935771D01*
X115416666Y-21935771D02*
X115511904Y-21983390D01*
X115511904Y-21983390D02*
X115559523Y-22031009D01*
X115559523Y-22031009D02*
X115607142Y-22126247D01*
X115607142Y-22126247D02*
X115607142Y-22364342D01*
X115607142Y-22364342D02*
X115559523Y-22459580D01*
X115559523Y-22459580D02*
X115511904Y-22507200D01*
X115511904Y-22507200D02*
X115416666Y-22554819D01*
X115416666Y-22554819D02*
X115178571Y-22554819D01*
X115178571Y-22554819D02*
X115083333Y-22507200D01*
X115083333Y-22507200D02*
X115035714Y-22459580D01*
X116226190Y-21554819D02*
X116321428Y-21554819D01*
X116321428Y-21554819D02*
X116416666Y-21602438D01*
X116416666Y-21602438D02*
X116464285Y-21650057D01*
X116464285Y-21650057D02*
X116511904Y-21745295D01*
X116511904Y-21745295D02*
X116559523Y-21935771D01*
X116559523Y-21935771D02*
X116559523Y-22173866D01*
X116559523Y-22173866D02*
X116511904Y-22364342D01*
X116511904Y-22364342D02*
X116464285Y-22459580D01*
X116464285Y-22459580D02*
X116416666Y-22507200D01*
X116416666Y-22507200D02*
X116321428Y-22554819D01*
X116321428Y-22554819D02*
X116226190Y-22554819D01*
X116226190Y-22554819D02*
X116130952Y-22507200D01*
X116130952Y-22507200D02*
X116083333Y-22459580D01*
X116083333Y-22459580D02*
X116035714Y-22364342D01*
X116035714Y-22364342D02*
X115988095Y-22173866D01*
X115988095Y-22173866D02*
X115988095Y-21935771D01*
X115988095Y-21935771D02*
X116035714Y-21745295D01*
X116035714Y-21745295D02*
X116083333Y-21650057D01*
X116083333Y-21650057D02*
X116130952Y-21602438D01*
X116130952Y-21602438D02*
X116226190Y-21554819D01*
X117178571Y-21554819D02*
X117273809Y-21554819D01*
X117273809Y-21554819D02*
X117369047Y-21602438D01*
X117369047Y-21602438D02*
X117416666Y-21650057D01*
X117416666Y-21650057D02*
X117464285Y-21745295D01*
X117464285Y-21745295D02*
X117511904Y-21935771D01*
X117511904Y-21935771D02*
X117511904Y-22173866D01*
X117511904Y-22173866D02*
X117464285Y-22364342D01*
X117464285Y-22364342D02*
X117416666Y-22459580D01*
X117416666Y-22459580D02*
X117369047Y-22507200D01*
X117369047Y-22507200D02*
X117273809Y-22554819D01*
X117273809Y-22554819D02*
X117178571Y-22554819D01*
X117178571Y-22554819D02*
X117083333Y-22507200D01*
X117083333Y-22507200D02*
X117035714Y-22459580D01*
X117035714Y-22459580D02*
X116988095Y-22364342D01*
X116988095Y-22364342D02*
X116940476Y-22173866D01*
X116940476Y-22173866D02*
X116940476Y-21935771D01*
X116940476Y-21935771D02*
X116988095Y-21745295D01*
X116988095Y-21745295D02*
X117035714Y-21650057D01*
X117035714Y-21650057D02*
X117083333Y-21602438D01*
X117083333Y-21602438D02*
X117178571Y-21554819D01*
X118130952Y-21554819D02*
X118226190Y-21554819D01*
X118226190Y-21554819D02*
X118321428Y-21602438D01*
X118321428Y-21602438D02*
X118369047Y-21650057D01*
X118369047Y-21650057D02*
X118416666Y-21745295D01*
X118416666Y-21745295D02*
X118464285Y-21935771D01*
X118464285Y-21935771D02*
X118464285Y-22173866D01*
X118464285Y-22173866D02*
X118416666Y-22364342D01*
X118416666Y-22364342D02*
X118369047Y-22459580D01*
X118369047Y-22459580D02*
X118321428Y-22507200D01*
X118321428Y-22507200D02*
X118226190Y-22554819D01*
X118226190Y-22554819D02*
X118130952Y-22554819D01*
X118130952Y-22554819D02*
X118035714Y-22507200D01*
X118035714Y-22507200D02*
X117988095Y-22459580D01*
X117988095Y-22459580D02*
X117940476Y-22364342D01*
X117940476Y-22364342D02*
X117892857Y-22173866D01*
X117892857Y-22173866D02*
X117892857Y-21935771D01*
X117892857Y-21935771D02*
X117940476Y-21745295D01*
X117940476Y-21745295D02*
X117988095Y-21650057D01*
X117988095Y-21650057D02*
X118035714Y-21602438D01*
X118035714Y-21602438D02*
X118130952Y-21554819D01*
X119654762Y-22554819D02*
X119654762Y-21888152D01*
X119654762Y-21983390D02*
X119702381Y-21935771D01*
X119702381Y-21935771D02*
X119797619Y-21888152D01*
X119797619Y-21888152D02*
X119940476Y-21888152D01*
X119940476Y-21888152D02*
X120035714Y-21935771D01*
X120035714Y-21935771D02*
X120083333Y-22031009D01*
X120083333Y-22031009D02*
X120083333Y-22554819D01*
X120083333Y-22031009D02*
X120130952Y-21935771D01*
X120130952Y-21935771D02*
X120226190Y-21888152D01*
X120226190Y-21888152D02*
X120369047Y-21888152D01*
X120369047Y-21888152D02*
X120464286Y-21935771D01*
X120464286Y-21935771D02*
X120511905Y-22031009D01*
X120511905Y-22031009D02*
X120511905Y-22554819D01*
X120988095Y-22554819D02*
X120988095Y-21888152D01*
X120988095Y-21983390D02*
X121035714Y-21935771D01*
X121035714Y-21935771D02*
X121130952Y-21888152D01*
X121130952Y-21888152D02*
X121273809Y-21888152D01*
X121273809Y-21888152D02*
X121369047Y-21935771D01*
X121369047Y-21935771D02*
X121416666Y-22031009D01*
X121416666Y-22031009D02*
X121416666Y-22554819D01*
X121416666Y-22031009D02*
X121464285Y-21935771D01*
X121464285Y-21935771D02*
X121559523Y-21888152D01*
X121559523Y-21888152D02*
X121702380Y-21888152D01*
X121702380Y-21888152D02*
X121797619Y-21935771D01*
X121797619Y-21935771D02*
X121845238Y-22031009D01*
X121845238Y-22031009D02*
X121845238Y-22554819D01*
D10*
X121500000Y-24500000D02*
X121500000Y-22663580D01*
X114000000Y-24500000D02*
X114000000Y-22663580D01*
X121500000Y-23250000D02*
X114000000Y-23250000D01*
X121500000Y-23250000D02*
X114000000Y-23250000D01*
X121500000Y-23250000D02*
X120373496Y-23836421D01*
X121500000Y-23250000D02*
X120373496Y-22663579D01*
X114000000Y-23250000D02*
X115126504Y-22663579D01*
X114000000Y-23250000D02*
X115126504Y-23836421D01*
D11*
X135154762Y-19304819D02*
X134678572Y-19304819D01*
X134678572Y-19304819D02*
X134630953Y-19781009D01*
X134630953Y-19781009D02*
X134678572Y-19733390D01*
X134678572Y-19733390D02*
X134773810Y-19685771D01*
X134773810Y-19685771D02*
X135011905Y-19685771D01*
X135011905Y-19685771D02*
X135107143Y-19733390D01*
X135107143Y-19733390D02*
X135154762Y-19781009D01*
X135154762Y-19781009D02*
X135202381Y-19876247D01*
X135202381Y-19876247D02*
X135202381Y-20114342D01*
X135202381Y-20114342D02*
X135154762Y-20209580D01*
X135154762Y-20209580D02*
X135107143Y-20257200D01*
X135107143Y-20257200D02*
X135011905Y-20304819D01*
X135011905Y-20304819D02*
X134773810Y-20304819D01*
X134773810Y-20304819D02*
X134678572Y-20257200D01*
X134678572Y-20257200D02*
X134630953Y-20209580D01*
X135821429Y-19304819D02*
X135916667Y-19304819D01*
X135916667Y-19304819D02*
X136011905Y-19352438D01*
X136011905Y-19352438D02*
X136059524Y-19400057D01*
X136059524Y-19400057D02*
X136107143Y-19495295D01*
X136107143Y-19495295D02*
X136154762Y-19685771D01*
X136154762Y-19685771D02*
X136154762Y-19923866D01*
X136154762Y-19923866D02*
X136107143Y-20114342D01*
X136107143Y-20114342D02*
X136059524Y-20209580D01*
X136059524Y-20209580D02*
X136011905Y-20257200D01*
X136011905Y-20257200D02*
X135916667Y-20304819D01*
X135916667Y-20304819D02*
X135821429Y-20304819D01*
X135821429Y-20304819D02*
X135726191Y-20257200D01*
X135726191Y-20257200D02*
X135678572Y-20209580D01*
X135678572Y-20209580D02*
X135630953Y-20114342D01*
X135630953Y-20114342D02*
X135583334Y-19923866D01*
X135583334Y-19923866D02*
X135583334Y-19685771D01*
X135583334Y-19685771D02*
X135630953Y-19495295D01*
X135630953Y-19495295D02*
X135678572Y-19400057D01*
X135678572Y-19400057D02*
X135726191Y-19352438D01*
X135726191Y-19352438D02*
X135821429Y-19304819D01*
X136583334Y-20209580D02*
X136630953Y-20257200D01*
X136630953Y-20257200D02*
X136583334Y-20304819D01*
X136583334Y-20304819D02*
X136535715Y-20257200D01*
X136535715Y-20257200D02*
X136583334Y-20209580D01*
X136583334Y-20209580D02*
X136583334Y-20304819D01*
X137535714Y-19304819D02*
X137059524Y-19304819D01*
X137059524Y-19304819D02*
X137011905Y-19781009D01*
X137011905Y-19781009D02*
X137059524Y-19733390D01*
X137059524Y-19733390D02*
X137154762Y-19685771D01*
X137154762Y-19685771D02*
X137392857Y-19685771D01*
X137392857Y-19685771D02*
X137488095Y-19733390D01*
X137488095Y-19733390D02*
X137535714Y-19781009D01*
X137535714Y-19781009D02*
X137583333Y-19876247D01*
X137583333Y-19876247D02*
X137583333Y-20114342D01*
X137583333Y-20114342D02*
X137535714Y-20209580D01*
X137535714Y-20209580D02*
X137488095Y-20257200D01*
X137488095Y-20257200D02*
X137392857Y-20304819D01*
X137392857Y-20304819D02*
X137154762Y-20304819D01*
X137154762Y-20304819D02*
X137059524Y-20257200D01*
X137059524Y-20257200D02*
X137011905Y-20209580D01*
X138202381Y-19304819D02*
X138297619Y-19304819D01*
X138297619Y-19304819D02*
X138392857Y-19352438D01*
X138392857Y-19352438D02*
X138440476Y-19400057D01*
X138440476Y-19400057D02*
X138488095Y-19495295D01*
X138488095Y-19495295D02*
X138535714Y-19685771D01*
X138535714Y-19685771D02*
X138535714Y-19923866D01*
X138535714Y-19923866D02*
X138488095Y-20114342D01*
X138488095Y-20114342D02*
X138440476Y-20209580D01*
X138440476Y-20209580D02*
X138392857Y-20257200D01*
X138392857Y-20257200D02*
X138297619Y-20304819D01*
X138297619Y-20304819D02*
X138202381Y-20304819D01*
X138202381Y-20304819D02*
X138107143Y-20257200D01*
X138107143Y-20257200D02*
X138059524Y-20209580D01*
X138059524Y-20209580D02*
X138011905Y-20114342D01*
X138011905Y-20114342D02*
X137964286Y-19923866D01*
X137964286Y-19923866D02*
X137964286Y-19685771D01*
X137964286Y-19685771D02*
X138011905Y-19495295D01*
X138011905Y-19495295D02*
X138059524Y-19400057D01*
X138059524Y-19400057D02*
X138107143Y-19352438D01*
X138107143Y-19352438D02*
X138202381Y-19304819D01*
X139154762Y-19304819D02*
X139250000Y-19304819D01*
X139250000Y-19304819D02*
X139345238Y-19352438D01*
X139345238Y-19352438D02*
X139392857Y-19400057D01*
X139392857Y-19400057D02*
X139440476Y-19495295D01*
X139440476Y-19495295D02*
X139488095Y-19685771D01*
X139488095Y-19685771D02*
X139488095Y-19923866D01*
X139488095Y-19923866D02*
X139440476Y-20114342D01*
X139440476Y-20114342D02*
X139392857Y-20209580D01*
X139392857Y-20209580D02*
X139345238Y-20257200D01*
X139345238Y-20257200D02*
X139250000Y-20304819D01*
X139250000Y-20304819D02*
X139154762Y-20304819D01*
X139154762Y-20304819D02*
X139059524Y-20257200D01*
X139059524Y-20257200D02*
X139011905Y-20209580D01*
X139011905Y-20209580D02*
X138964286Y-20114342D01*
X138964286Y-20114342D02*
X138916667Y-19923866D01*
X138916667Y-19923866D02*
X138916667Y-19685771D01*
X138916667Y-19685771D02*
X138964286Y-19495295D01*
X138964286Y-19495295D02*
X139011905Y-19400057D01*
X139011905Y-19400057D02*
X139059524Y-19352438D01*
X139059524Y-19352438D02*
X139154762Y-19304819D01*
X140107143Y-19304819D02*
X140202381Y-19304819D01*
X140202381Y-19304819D02*
X140297619Y-19352438D01*
X140297619Y-19352438D02*
X140345238Y-19400057D01*
X140345238Y-19400057D02*
X140392857Y-19495295D01*
X140392857Y-19495295D02*
X140440476Y-19685771D01*
X140440476Y-19685771D02*
X140440476Y-19923866D01*
X140440476Y-19923866D02*
X140392857Y-20114342D01*
X140392857Y-20114342D02*
X140345238Y-20209580D01*
X140345238Y-20209580D02*
X140297619Y-20257200D01*
X140297619Y-20257200D02*
X140202381Y-20304819D01*
X140202381Y-20304819D02*
X140107143Y-20304819D01*
X140107143Y-20304819D02*
X140011905Y-20257200D01*
X140011905Y-20257200D02*
X139964286Y-20209580D01*
X139964286Y-20209580D02*
X139916667Y-20114342D01*
X139916667Y-20114342D02*
X139869048Y-19923866D01*
X139869048Y-19923866D02*
X139869048Y-19685771D01*
X139869048Y-19685771D02*
X139916667Y-19495295D01*
X139916667Y-19495295D02*
X139964286Y-19400057D01*
X139964286Y-19400057D02*
X140011905Y-19352438D01*
X140011905Y-19352438D02*
X140107143Y-19304819D01*
X141630953Y-20304819D02*
X141630953Y-19638152D01*
X141630953Y-19733390D02*
X141678572Y-19685771D01*
X141678572Y-19685771D02*
X141773810Y-19638152D01*
X141773810Y-19638152D02*
X141916667Y-19638152D01*
X141916667Y-19638152D02*
X142011905Y-19685771D01*
X142011905Y-19685771D02*
X142059524Y-19781009D01*
X142059524Y-19781009D02*
X142059524Y-20304819D01*
X142059524Y-19781009D02*
X142107143Y-19685771D01*
X142107143Y-19685771D02*
X142202381Y-19638152D01*
X142202381Y-19638152D02*
X142345238Y-19638152D01*
X142345238Y-19638152D02*
X142440477Y-19685771D01*
X142440477Y-19685771D02*
X142488096Y-19781009D01*
X142488096Y-19781009D02*
X142488096Y-20304819D01*
X142964286Y-20304819D02*
X142964286Y-19638152D01*
X142964286Y-19733390D02*
X143011905Y-19685771D01*
X143011905Y-19685771D02*
X143107143Y-19638152D01*
X143107143Y-19638152D02*
X143250000Y-19638152D01*
X143250000Y-19638152D02*
X143345238Y-19685771D01*
X143345238Y-19685771D02*
X143392857Y-19781009D01*
X143392857Y-19781009D02*
X143392857Y-20304819D01*
X143392857Y-19781009D02*
X143440476Y-19685771D01*
X143440476Y-19685771D02*
X143535714Y-19638152D01*
X143535714Y-19638152D02*
X143678571Y-19638152D01*
X143678571Y-19638152D02*
X143773810Y-19685771D01*
X143773810Y-19685771D02*
X143821429Y-19781009D01*
X143821429Y-19781009D02*
X143821429Y-20304819D01*
D10*
X114000000Y-24500000D02*
X114000000Y-20413580D01*
X164500000Y-24500000D02*
X164500000Y-20413580D01*
X114000000Y-21000000D02*
X164500000Y-21000000D01*
X114000000Y-21000000D02*
X164500000Y-21000000D01*
X114000000Y-21000000D02*
X115126504Y-20413579D01*
X114000000Y-21000000D02*
X115126504Y-21586421D01*
X164500000Y-21000000D02*
X163373496Y-21586421D01*
X164500000Y-21000000D02*
X163373496Y-20413579D01*
D11*
X122005953Y-21150057D02*
X122053572Y-21102438D01*
X122053572Y-21102438D02*
X122148810Y-21054819D01*
X122148810Y-21054819D02*
X122386905Y-21054819D01*
X122386905Y-21054819D02*
X122482143Y-21102438D01*
X122482143Y-21102438D02*
X122529762Y-21150057D01*
X122529762Y-21150057D02*
X122577381Y-21245295D01*
X122577381Y-21245295D02*
X122577381Y-21340533D01*
X122577381Y-21340533D02*
X122529762Y-21483390D01*
X122529762Y-21483390D02*
X121958334Y-22054819D01*
X121958334Y-22054819D02*
X122577381Y-22054819D01*
X123482143Y-21054819D02*
X123005953Y-21054819D01*
X123005953Y-21054819D02*
X122958334Y-21531009D01*
X122958334Y-21531009D02*
X123005953Y-21483390D01*
X123005953Y-21483390D02*
X123101191Y-21435771D01*
X123101191Y-21435771D02*
X123339286Y-21435771D01*
X123339286Y-21435771D02*
X123434524Y-21483390D01*
X123434524Y-21483390D02*
X123482143Y-21531009D01*
X123482143Y-21531009D02*
X123529762Y-21626247D01*
X123529762Y-21626247D02*
X123529762Y-21864342D01*
X123529762Y-21864342D02*
X123482143Y-21959580D01*
X123482143Y-21959580D02*
X123434524Y-22007200D01*
X123434524Y-22007200D02*
X123339286Y-22054819D01*
X123339286Y-22054819D02*
X123101191Y-22054819D01*
X123101191Y-22054819D02*
X123005953Y-22007200D01*
X123005953Y-22007200D02*
X122958334Y-21959580D01*
X123958334Y-21959580D02*
X124005953Y-22007200D01*
X124005953Y-22007200D02*
X123958334Y-22054819D01*
X123958334Y-22054819D02*
X123910715Y-22007200D01*
X123910715Y-22007200D02*
X123958334Y-21959580D01*
X123958334Y-21959580D02*
X123958334Y-22054819D01*
X124386905Y-21150057D02*
X124434524Y-21102438D01*
X124434524Y-21102438D02*
X124529762Y-21054819D01*
X124529762Y-21054819D02*
X124767857Y-21054819D01*
X124767857Y-21054819D02*
X124863095Y-21102438D01*
X124863095Y-21102438D02*
X124910714Y-21150057D01*
X124910714Y-21150057D02*
X124958333Y-21245295D01*
X124958333Y-21245295D02*
X124958333Y-21340533D01*
X124958333Y-21340533D02*
X124910714Y-21483390D01*
X124910714Y-21483390D02*
X124339286Y-22054819D01*
X124339286Y-22054819D02*
X124958333Y-22054819D01*
X125863095Y-21054819D02*
X125386905Y-21054819D01*
X125386905Y-21054819D02*
X125339286Y-21531009D01*
X125339286Y-21531009D02*
X125386905Y-21483390D01*
X125386905Y-21483390D02*
X125482143Y-21435771D01*
X125482143Y-21435771D02*
X125720238Y-21435771D01*
X125720238Y-21435771D02*
X125815476Y-21483390D01*
X125815476Y-21483390D02*
X125863095Y-21531009D01*
X125863095Y-21531009D02*
X125910714Y-21626247D01*
X125910714Y-21626247D02*
X125910714Y-21864342D01*
X125910714Y-21864342D02*
X125863095Y-21959580D01*
X125863095Y-21959580D02*
X125815476Y-22007200D01*
X125815476Y-22007200D02*
X125720238Y-22054819D01*
X125720238Y-22054819D02*
X125482143Y-22054819D01*
X125482143Y-22054819D02*
X125386905Y-22007200D01*
X125386905Y-22007200D02*
X125339286Y-21959580D01*
X126529762Y-21054819D02*
X126625000Y-21054819D01*
X126625000Y-21054819D02*
X126720238Y-21102438D01*
X126720238Y-21102438D02*
X126767857Y-21150057D01*
X126767857Y-21150057D02*
X126815476Y-21245295D01*
X126815476Y-21245295D02*
X126863095Y-21435771D01*
X126863095Y-21435771D02*
X126863095Y-21673866D01*
X126863095Y-21673866D02*
X126815476Y-21864342D01*
X126815476Y-21864342D02*
X126767857Y-21959580D01*
X126767857Y-21959580D02*
X126720238Y-22007200D01*
X126720238Y-22007200D02*
X126625000Y-22054819D01*
X126625000Y-22054819D02*
X126529762Y-22054819D01*
X126529762Y-22054819D02*
X126434524Y-22007200D01*
X126434524Y-22007200D02*
X126386905Y-21959580D01*
X126386905Y-21959580D02*
X126339286Y-21864342D01*
X126339286Y-21864342D02*
X126291667Y-21673866D01*
X126291667Y-21673866D02*
X126291667Y-21435771D01*
X126291667Y-21435771D02*
X126339286Y-21245295D01*
X126339286Y-21245295D02*
X126386905Y-21150057D01*
X126386905Y-21150057D02*
X126434524Y-21102438D01*
X126434524Y-21102438D02*
X126529762Y-21054819D01*
X127482143Y-21054819D02*
X127577381Y-21054819D01*
X127577381Y-21054819D02*
X127672619Y-21102438D01*
X127672619Y-21102438D02*
X127720238Y-21150057D01*
X127720238Y-21150057D02*
X127767857Y-21245295D01*
X127767857Y-21245295D02*
X127815476Y-21435771D01*
X127815476Y-21435771D02*
X127815476Y-21673866D01*
X127815476Y-21673866D02*
X127767857Y-21864342D01*
X127767857Y-21864342D02*
X127720238Y-21959580D01*
X127720238Y-21959580D02*
X127672619Y-22007200D01*
X127672619Y-22007200D02*
X127577381Y-22054819D01*
X127577381Y-22054819D02*
X127482143Y-22054819D01*
X127482143Y-22054819D02*
X127386905Y-22007200D01*
X127386905Y-22007200D02*
X127339286Y-21959580D01*
X127339286Y-21959580D02*
X127291667Y-21864342D01*
X127291667Y-21864342D02*
X127244048Y-21673866D01*
X127244048Y-21673866D02*
X127244048Y-21435771D01*
X127244048Y-21435771D02*
X127291667Y-21245295D01*
X127291667Y-21245295D02*
X127339286Y-21150057D01*
X127339286Y-21150057D02*
X127386905Y-21102438D01*
X127386905Y-21102438D02*
X127482143Y-21054819D01*
X129005953Y-22054819D02*
X129005953Y-21388152D01*
X129005953Y-21483390D02*
X129053572Y-21435771D01*
X129053572Y-21435771D02*
X129148810Y-21388152D01*
X129148810Y-21388152D02*
X129291667Y-21388152D01*
X129291667Y-21388152D02*
X129386905Y-21435771D01*
X129386905Y-21435771D02*
X129434524Y-21531009D01*
X129434524Y-21531009D02*
X129434524Y-22054819D01*
X129434524Y-21531009D02*
X129482143Y-21435771D01*
X129482143Y-21435771D02*
X129577381Y-21388152D01*
X129577381Y-21388152D02*
X129720238Y-21388152D01*
X129720238Y-21388152D02*
X129815477Y-21435771D01*
X129815477Y-21435771D02*
X129863096Y-21531009D01*
X129863096Y-21531009D02*
X129863096Y-22054819D01*
X130339286Y-22054819D02*
X130339286Y-21388152D01*
X130339286Y-21483390D02*
X130386905Y-21435771D01*
X130386905Y-21435771D02*
X130482143Y-21388152D01*
X130482143Y-21388152D02*
X130625000Y-21388152D01*
X130625000Y-21388152D02*
X130720238Y-21435771D01*
X130720238Y-21435771D02*
X130767857Y-21531009D01*
X130767857Y-21531009D02*
X130767857Y-22054819D01*
X130767857Y-21531009D02*
X130815476Y-21435771D01*
X130815476Y-21435771D02*
X130910714Y-21388152D01*
X130910714Y-21388152D02*
X131053571Y-21388152D01*
X131053571Y-21388152D02*
X131148810Y-21435771D01*
X131148810Y-21435771D02*
X131196429Y-21531009D01*
X131196429Y-21531009D02*
X131196429Y-22054819D01*
D10*
X114000000Y-24500000D02*
X114000000Y-22163580D01*
X139250000Y-24500000D02*
X139250000Y-22163580D01*
X114000000Y-22750000D02*
X139250000Y-22750000D01*
X114000000Y-22750000D02*
X139250000Y-22750000D01*
X114000000Y-22750000D02*
X115126504Y-22163579D01*
X114000000Y-22750000D02*
X115126504Y-23336421D01*
X139250000Y-22750000D02*
X138123496Y-23336421D01*
X139250000Y-22750000D02*
X138123496Y-22163579D01*
D11*
X169304819Y-93773809D02*
X169304819Y-94345237D01*
X169304819Y-94059523D02*
X168304819Y-94059523D01*
X168304819Y-94059523D02*
X168447676Y-94154761D01*
X168447676Y-94154761D02*
X168542914Y-94249999D01*
X168542914Y-94249999D02*
X168590533Y-94345237D01*
X168400057Y-93392856D02*
X168352438Y-93345237D01*
X168352438Y-93345237D02*
X168304819Y-93249999D01*
X168304819Y-93249999D02*
X168304819Y-93011904D01*
X168304819Y-93011904D02*
X168352438Y-92916666D01*
X168352438Y-92916666D02*
X168400057Y-92869047D01*
X168400057Y-92869047D02*
X168495295Y-92821428D01*
X168495295Y-92821428D02*
X168590533Y-92821428D01*
X168590533Y-92821428D02*
X168733390Y-92869047D01*
X168733390Y-92869047D02*
X169304819Y-93440475D01*
X169304819Y-93440475D02*
X169304819Y-92821428D01*
X168733390Y-92249999D02*
X168685771Y-92345237D01*
X168685771Y-92345237D02*
X168638152Y-92392856D01*
X168638152Y-92392856D02*
X168542914Y-92440475D01*
X168542914Y-92440475D02*
X168495295Y-92440475D01*
X168495295Y-92440475D02*
X168400057Y-92392856D01*
X168400057Y-92392856D02*
X168352438Y-92345237D01*
X168352438Y-92345237D02*
X168304819Y-92249999D01*
X168304819Y-92249999D02*
X168304819Y-92059523D01*
X168304819Y-92059523D02*
X168352438Y-91964285D01*
X168352438Y-91964285D02*
X168400057Y-91916666D01*
X168400057Y-91916666D02*
X168495295Y-91869047D01*
X168495295Y-91869047D02*
X168542914Y-91869047D01*
X168542914Y-91869047D02*
X168638152Y-91916666D01*
X168638152Y-91916666D02*
X168685771Y-91964285D01*
X168685771Y-91964285D02*
X168733390Y-92059523D01*
X168733390Y-92059523D02*
X168733390Y-92249999D01*
X168733390Y-92249999D02*
X168781009Y-92345237D01*
X168781009Y-92345237D02*
X168828628Y-92392856D01*
X168828628Y-92392856D02*
X168923866Y-92440475D01*
X168923866Y-92440475D02*
X169114342Y-92440475D01*
X169114342Y-92440475D02*
X169209580Y-92392856D01*
X169209580Y-92392856D02*
X169257200Y-92345237D01*
X169257200Y-92345237D02*
X169304819Y-92249999D01*
X169304819Y-92249999D02*
X169304819Y-92059523D01*
X169304819Y-92059523D02*
X169257200Y-91964285D01*
X169257200Y-91964285D02*
X169209580Y-91916666D01*
X169209580Y-91916666D02*
X169114342Y-91869047D01*
X169114342Y-91869047D02*
X168923866Y-91869047D01*
X168923866Y-91869047D02*
X168828628Y-91916666D01*
X168828628Y-91916666D02*
X168781009Y-91964285D01*
X168781009Y-91964285D02*
X168733390Y-92059523D01*
X169209580Y-91440475D02*
X169257200Y-91392856D01*
X169257200Y-91392856D02*
X169304819Y-91440475D01*
X169304819Y-91440475D02*
X169257200Y-91488094D01*
X169257200Y-91488094D02*
X169209580Y-91440475D01*
X169209580Y-91440475D02*
X169304819Y-91440475D01*
X168304819Y-90488095D02*
X168304819Y-90964285D01*
X168304819Y-90964285D02*
X168781009Y-91011904D01*
X168781009Y-91011904D02*
X168733390Y-90964285D01*
X168733390Y-90964285D02*
X168685771Y-90869047D01*
X168685771Y-90869047D02*
X168685771Y-90630952D01*
X168685771Y-90630952D02*
X168733390Y-90535714D01*
X168733390Y-90535714D02*
X168781009Y-90488095D01*
X168781009Y-90488095D02*
X168876247Y-90440476D01*
X168876247Y-90440476D02*
X169114342Y-90440476D01*
X169114342Y-90440476D02*
X169209580Y-90488095D01*
X169209580Y-90488095D02*
X169257200Y-90535714D01*
X169257200Y-90535714D02*
X169304819Y-90630952D01*
X169304819Y-90630952D02*
X169304819Y-90869047D01*
X169304819Y-90869047D02*
X169257200Y-90964285D01*
X169257200Y-90964285D02*
X169209580Y-91011904D01*
X168304819Y-89821428D02*
X168304819Y-89726190D01*
X168304819Y-89726190D02*
X168352438Y-89630952D01*
X168352438Y-89630952D02*
X168400057Y-89583333D01*
X168400057Y-89583333D02*
X168495295Y-89535714D01*
X168495295Y-89535714D02*
X168685771Y-89488095D01*
X168685771Y-89488095D02*
X168923866Y-89488095D01*
X168923866Y-89488095D02*
X169114342Y-89535714D01*
X169114342Y-89535714D02*
X169209580Y-89583333D01*
X169209580Y-89583333D02*
X169257200Y-89630952D01*
X169257200Y-89630952D02*
X169304819Y-89726190D01*
X169304819Y-89726190D02*
X169304819Y-89821428D01*
X169304819Y-89821428D02*
X169257200Y-89916666D01*
X169257200Y-89916666D02*
X169209580Y-89964285D01*
X169209580Y-89964285D02*
X169114342Y-90011904D01*
X169114342Y-90011904D02*
X168923866Y-90059523D01*
X168923866Y-90059523D02*
X168685771Y-90059523D01*
X168685771Y-90059523D02*
X168495295Y-90011904D01*
X168495295Y-90011904D02*
X168400057Y-89964285D01*
X168400057Y-89964285D02*
X168352438Y-89916666D01*
X168352438Y-89916666D02*
X168304819Y-89821428D01*
X168304819Y-88869047D02*
X168304819Y-88773809D01*
X168304819Y-88773809D02*
X168352438Y-88678571D01*
X168352438Y-88678571D02*
X168400057Y-88630952D01*
X168400057Y-88630952D02*
X168495295Y-88583333D01*
X168495295Y-88583333D02*
X168685771Y-88535714D01*
X168685771Y-88535714D02*
X168923866Y-88535714D01*
X168923866Y-88535714D02*
X169114342Y-88583333D01*
X169114342Y-88583333D02*
X169209580Y-88630952D01*
X169209580Y-88630952D02*
X169257200Y-88678571D01*
X169257200Y-88678571D02*
X169304819Y-88773809D01*
X169304819Y-88773809D02*
X169304819Y-88869047D01*
X169304819Y-88869047D02*
X169257200Y-88964285D01*
X169257200Y-88964285D02*
X169209580Y-89011904D01*
X169209580Y-89011904D02*
X169114342Y-89059523D01*
X169114342Y-89059523D02*
X168923866Y-89107142D01*
X168923866Y-89107142D02*
X168685771Y-89107142D01*
X168685771Y-89107142D02*
X168495295Y-89059523D01*
X168495295Y-89059523D02*
X168400057Y-89011904D01*
X168400057Y-89011904D02*
X168352438Y-88964285D01*
X168352438Y-88964285D02*
X168304819Y-88869047D01*
X168304819Y-87916666D02*
X168304819Y-87821428D01*
X168304819Y-87821428D02*
X168352438Y-87726190D01*
X168352438Y-87726190D02*
X168400057Y-87678571D01*
X168400057Y-87678571D02*
X168495295Y-87630952D01*
X168495295Y-87630952D02*
X168685771Y-87583333D01*
X168685771Y-87583333D02*
X168923866Y-87583333D01*
X168923866Y-87583333D02*
X169114342Y-87630952D01*
X169114342Y-87630952D02*
X169209580Y-87678571D01*
X169209580Y-87678571D02*
X169257200Y-87726190D01*
X169257200Y-87726190D02*
X169304819Y-87821428D01*
X169304819Y-87821428D02*
X169304819Y-87916666D01*
X169304819Y-87916666D02*
X169257200Y-88011904D01*
X169257200Y-88011904D02*
X169209580Y-88059523D01*
X169209580Y-88059523D02*
X169114342Y-88107142D01*
X169114342Y-88107142D02*
X168923866Y-88154761D01*
X168923866Y-88154761D02*
X168685771Y-88154761D01*
X168685771Y-88154761D02*
X168495295Y-88107142D01*
X168495295Y-88107142D02*
X168400057Y-88059523D01*
X168400057Y-88059523D02*
X168352438Y-88011904D01*
X168352438Y-88011904D02*
X168304819Y-87916666D01*
X169304819Y-86392856D02*
X168638152Y-86392856D01*
X168733390Y-86392856D02*
X168685771Y-86345237D01*
X168685771Y-86345237D02*
X168638152Y-86249999D01*
X168638152Y-86249999D02*
X168638152Y-86107142D01*
X168638152Y-86107142D02*
X168685771Y-86011904D01*
X168685771Y-86011904D02*
X168781009Y-85964285D01*
X168781009Y-85964285D02*
X169304819Y-85964285D01*
X168781009Y-85964285D02*
X168685771Y-85916666D01*
X168685771Y-85916666D02*
X168638152Y-85821428D01*
X168638152Y-85821428D02*
X168638152Y-85678571D01*
X168638152Y-85678571D02*
X168685771Y-85583332D01*
X168685771Y-85583332D02*
X168781009Y-85535713D01*
X168781009Y-85535713D02*
X169304819Y-85535713D01*
X169304819Y-85059523D02*
X168638152Y-85059523D01*
X168733390Y-85059523D02*
X168685771Y-85011904D01*
X168685771Y-85011904D02*
X168638152Y-84916666D01*
X168638152Y-84916666D02*
X168638152Y-84773809D01*
X168638152Y-84773809D02*
X168685771Y-84678571D01*
X168685771Y-84678571D02*
X168781009Y-84630952D01*
X168781009Y-84630952D02*
X169304819Y-84630952D01*
X168781009Y-84630952D02*
X168685771Y-84583333D01*
X168685771Y-84583333D02*
X168638152Y-84488095D01*
X168638152Y-84488095D02*
X168638152Y-84345238D01*
X168638152Y-84345238D02*
X168685771Y-84249999D01*
X168685771Y-84249999D02*
X168781009Y-84202380D01*
X168781009Y-84202380D02*
X169304819Y-84202380D01*
D10*
X165000000Y-153500000D02*
X170586420Y-153500000D01*
X165000000Y-25000000D02*
X170586420Y-25000000D01*
X170000000Y-153500000D02*
X170000000Y-25000000D01*
X170000000Y-153500000D02*
X170000000Y-25000000D01*
X170000000Y-153500000D02*
X169413579Y-152373496D01*
X170000000Y-153500000D02*
X170586421Y-152373496D01*
X170000000Y-25000000D02*
X170586421Y-26126504D01*
X170000000Y-25000000D02*
X169413579Y-26126504D01*
M02*
