%TF.GenerationSoftware,KiCad,Pcbnew,8.0.4*%
%TF.CreationDate,2024-12-22T16:55:12+00:00*%
%TF.ProjectId,EuroClack_Mini_speaker_MKII_panel,4575726f-436c-4616-936b-5f4d696e695f,rev?*%
%TF.SameCoordinates,Original*%
%TF.FileFunction,Legend,Top*%
%TF.FilePolarity,Positive*%
%FSLAX46Y46*%
G04 Gerber Fmt 4.6, Leading zero omitted, Abs format (unit mm)*
G04 Created by KiCad (PCBNEW 8.0.4) date 2024-12-22 16:55:12*
%MOMM*%
%LPD*%
G01*
G04 APERTURE LIST*
%ADD10C,0.400000*%
%ADD11O,6.000000X4.200000*%
G04 APERTURE END LIST*
D10*
G36*
X131096231Y-151675631D02*
G01*
X130989671Y-151669430D01*
X130887976Y-151650825D01*
X130791147Y-151619818D01*
X130772365Y-151612128D01*
X130685258Y-151564758D01*
X130610173Y-151502028D01*
X130547108Y-151423937D01*
X130535938Y-151406475D01*
X130490085Y-151308406D01*
X130463338Y-151204890D01*
X130451110Y-151100743D01*
X130448988Y-151029853D01*
X130448988Y-150242414D01*
X130453148Y-150144440D01*
X130468093Y-150043232D01*
X130497897Y-149943094D01*
X130535938Y-149866280D01*
X130596598Y-149784859D01*
X130669279Y-149718895D01*
X130753982Y-149668386D01*
X130772365Y-149660139D01*
X130868507Y-149626651D01*
X130970087Y-149605566D01*
X131077106Y-149596884D01*
X131099162Y-149596636D01*
X131206225Y-149601852D01*
X131305946Y-149617502D01*
X131408137Y-149647126D01*
X131446475Y-149662581D01*
X131534212Y-149708854D01*
X131616176Y-149771435D01*
X131682903Y-149846252D01*
X131731850Y-149932845D01*
X131760480Y-150030751D01*
X131768876Y-150129574D01*
X131754502Y-150228784D01*
X131723447Y-150273677D01*
X131629108Y-150306650D01*
X131585694Y-150308848D01*
X131488966Y-150294969D01*
X131457711Y-150281981D01*
X131403557Y-150199349D01*
X131403000Y-150191612D01*
X131393230Y-150110523D01*
X131355129Y-150018199D01*
X131283107Y-149949063D01*
X131269155Y-149941018D01*
X131174778Y-149913019D01*
X131110397Y-149909267D01*
X131011960Y-149920739D01*
X130920558Y-149963120D01*
X130889113Y-149990844D01*
X130836353Y-150077972D01*
X130814646Y-150178401D01*
X130811933Y-150237529D01*
X130811933Y-151034738D01*
X130821226Y-151140153D01*
X130856171Y-151237795D01*
X130890579Y-151283377D01*
X130972631Y-151337807D01*
X131071762Y-151361056D01*
X131115771Y-151363000D01*
X131215517Y-151351979D01*
X131267690Y-151331737D01*
X131341750Y-151267376D01*
X131350732Y-151253091D01*
X131386081Y-151160813D01*
X131387369Y-151154417D01*
X131403000Y-151057208D01*
X131450050Y-150970980D01*
X131459176Y-150965861D01*
X131556564Y-150940882D01*
X131583251Y-150939972D01*
X131682666Y-150954283D01*
X131723447Y-150976608D01*
X131765282Y-151065162D01*
X131768876Y-151119734D01*
X131760480Y-151220962D01*
X131731850Y-151322835D01*
X131682903Y-151414780D01*
X131616003Y-151494498D01*
X131533519Y-151560364D01*
X131445010Y-151608220D01*
X131345672Y-151643769D01*
X131248763Y-151664506D01*
X131144744Y-151674578D01*
X131096231Y-151675631D01*
G37*
G36*
X132170900Y-151660000D02*
G01*
X132073821Y-151637560D01*
X132060990Y-151630690D01*
X132010676Y-151544228D01*
X132010676Y-149709476D01*
X132064771Y-149625213D01*
X132068318Y-149623503D01*
X132164345Y-149597922D01*
X132193370Y-149596636D01*
X132290915Y-149611748D01*
X132319888Y-149623503D01*
X132376009Y-149706272D01*
X132376064Y-149709965D01*
X132376064Y-151347369D01*
X133065806Y-151347369D01*
X133145429Y-151395240D01*
X133172059Y-151492438D01*
X133172295Y-151503684D01*
X133150230Y-151601339D01*
X133145429Y-151610662D01*
X133065806Y-151660000D01*
X132170900Y-151660000D01*
G37*
G36*
X134102225Y-149609889D02*
G01*
X134150244Y-149627411D01*
X134224890Y-149690883D01*
X134237683Y-149719734D01*
X134780879Y-151480725D01*
X134786252Y-151509057D01*
X134748150Y-151585750D01*
X134663457Y-151637957D01*
X134656803Y-151640460D01*
X134559116Y-151659923D01*
X134552756Y-151660000D01*
X134475087Y-151644856D01*
X134431612Y-151588192D01*
X134325122Y-151222316D01*
X133677878Y-151222316D01*
X133573831Y-151588192D01*
X133528401Y-151644856D01*
X133449755Y-151660000D01*
X133352354Y-151642826D01*
X133345708Y-151640460D01*
X133260471Y-151591373D01*
X133255826Y-151587215D01*
X133219190Y-151509057D01*
X133222121Y-151480725D01*
X133388471Y-150940949D01*
X133756524Y-150940949D01*
X134245987Y-150940949D01*
X134001256Y-150077306D01*
X133756524Y-150940949D01*
X133388471Y-150940949D01*
X133764829Y-149719734D01*
X133825937Y-149642347D01*
X133853733Y-149627411D01*
X133948341Y-149600272D01*
X134001256Y-149596636D01*
X134102225Y-149609889D01*
G37*
G36*
X135596161Y-151675631D02*
G01*
X135489601Y-151669430D01*
X135387906Y-151650825D01*
X135291077Y-151619818D01*
X135272295Y-151612128D01*
X135185188Y-151564758D01*
X135110103Y-151502028D01*
X135047039Y-151423937D01*
X135035868Y-151406475D01*
X134990016Y-151308406D01*
X134963268Y-151204890D01*
X134951041Y-151100743D01*
X134948918Y-151029853D01*
X134948918Y-150242414D01*
X134953079Y-150144440D01*
X134968023Y-150043232D01*
X134997827Y-149943094D01*
X135035868Y-149866280D01*
X135096528Y-149784859D01*
X135169210Y-149718895D01*
X135253912Y-149668386D01*
X135272295Y-149660139D01*
X135368437Y-149626651D01*
X135470018Y-149605566D01*
X135577036Y-149596884D01*
X135599092Y-149596636D01*
X135706155Y-149601852D01*
X135805876Y-149617502D01*
X135908067Y-149647126D01*
X135946406Y-149662581D01*
X136034142Y-149708854D01*
X136116107Y-149771435D01*
X136182833Y-149846252D01*
X136231781Y-149932845D01*
X136260410Y-150030751D01*
X136268806Y-150129574D01*
X136254432Y-150228784D01*
X136223377Y-150273677D01*
X136129038Y-150306650D01*
X136085624Y-150308848D01*
X135988896Y-150294969D01*
X135957641Y-150281981D01*
X135903488Y-150199349D01*
X135902930Y-150191612D01*
X135893161Y-150110523D01*
X135855059Y-150018199D01*
X135783038Y-149949063D01*
X135769085Y-149941018D01*
X135674708Y-149913019D01*
X135610327Y-149909267D01*
X135511890Y-149920739D01*
X135420488Y-149963120D01*
X135389043Y-149990844D01*
X135336283Y-150077972D01*
X135314576Y-150178401D01*
X135311863Y-150237529D01*
X135311863Y-151034738D01*
X135321156Y-151140153D01*
X135356101Y-151237795D01*
X135390509Y-151283377D01*
X135472561Y-151337807D01*
X135571692Y-151361056D01*
X135615701Y-151363000D01*
X135715447Y-151351979D01*
X135767620Y-151331737D01*
X135841680Y-151267376D01*
X135850662Y-151253091D01*
X135886011Y-151160813D01*
X135887299Y-151154417D01*
X135902930Y-151057208D01*
X135949980Y-150970980D01*
X135959106Y-150965861D01*
X136056494Y-150940882D01*
X136083182Y-150939972D01*
X136182596Y-150954283D01*
X136223377Y-150976608D01*
X136265213Y-151065162D01*
X136268806Y-151119734D01*
X136260410Y-151220962D01*
X136231781Y-151322835D01*
X136182833Y-151414780D01*
X136115934Y-151494498D01*
X136033450Y-151560364D01*
X135944940Y-151608220D01*
X135845602Y-151643769D01*
X135748693Y-151664506D01*
X135644674Y-151674578D01*
X135596161Y-151675631D01*
G37*
G36*
X136693300Y-151660000D02*
G01*
X136593933Y-151642111D01*
X136568248Y-151630690D01*
X136510832Y-151551206D01*
X136510607Y-151544228D01*
X136510607Y-149709476D01*
X136564702Y-149625213D01*
X136568248Y-149623503D01*
X136664275Y-149597922D01*
X136693300Y-149596636D01*
X136790845Y-149611748D01*
X136819818Y-149623503D01*
X136875939Y-149706272D01*
X136875994Y-149709965D01*
X136875994Y-150483726D01*
X137486601Y-149650369D01*
X137570163Y-149597476D01*
X137585275Y-149596636D01*
X137681995Y-149624968D01*
X137758581Y-149687955D01*
X137765038Y-149695799D01*
X137799232Y-149786657D01*
X137793370Y-149820851D01*
X137773831Y-149857487D01*
X137273133Y-150492519D01*
X137886182Y-151415268D01*
X137906210Y-151479260D01*
X137873482Y-151565722D01*
X137796717Y-151630265D01*
X137790439Y-151633621D01*
X137693095Y-151659896D01*
X137686392Y-151660000D01*
X137614584Y-151643391D01*
X137556943Y-151590635D01*
X137027913Y-150801730D01*
X136875994Y-150993217D01*
X136875994Y-151544717D01*
X136823274Y-151628802D01*
X136819818Y-151630690D01*
X136723397Y-151658597D01*
X136693300Y-151660000D01*
G37*
G36*
X138626238Y-151660000D02*
G01*
X138528694Y-151643513D01*
X138499720Y-151630690D01*
X138443599Y-151548690D01*
X138443545Y-151545205D01*
X138443545Y-149940530D01*
X138029797Y-149940530D01*
X137945289Y-149887773D01*
X137915596Y-149791899D01*
X137914515Y-149767117D01*
X137934337Y-149668470D01*
X137942358Y-149651346D01*
X138026133Y-149596689D01*
X138029797Y-149596636D01*
X139219748Y-149596636D01*
X139305157Y-149644721D01*
X139308653Y-149651346D01*
X139334863Y-149748062D01*
X139335519Y-149767117D01*
X139317332Y-149863801D01*
X139305722Y-149887773D01*
X139223263Y-149940478D01*
X139219748Y-149940530D01*
X138809420Y-149940530D01*
X138809420Y-151545205D01*
X138754867Y-151628832D01*
X138751290Y-151630690D01*
X138655263Y-151658597D01*
X138626238Y-151660000D01*
G37*
G36*
X140298351Y-149600809D02*
G01*
X140404750Y-149615235D01*
X140504279Y-149639964D01*
X140532798Y-149649392D01*
X140629077Y-149694321D01*
X140711042Y-149756565D01*
X140773133Y-149828178D01*
X140820789Y-149916296D01*
X140848588Y-150011591D01*
X140861296Y-150109014D01*
X140863503Y-150175980D01*
X140857846Y-150280755D01*
X140838772Y-150382020D01*
X140815631Y-150449043D01*
X140767011Y-150538843D01*
X140699978Y-150616173D01*
X140684717Y-150629295D01*
X140601712Y-150685330D01*
X140508404Y-150726124D01*
X140495184Y-150730411D01*
X140866434Y-151421130D01*
X140874738Y-151445554D01*
X140877669Y-151466559D01*
X140843963Y-151557906D01*
X140770767Y-151624317D01*
X140757990Y-151631667D01*
X140663636Y-151659557D01*
X140649546Y-151660000D01*
X140577739Y-151637529D01*
X140523028Y-151571584D01*
X140123447Y-150784633D01*
X139887020Y-150784633D01*
X139887020Y-151541297D01*
X139837646Y-151625762D01*
X139830844Y-151629713D01*
X139734423Y-151658550D01*
X139704326Y-151660000D01*
X139604959Y-151642111D01*
X139579274Y-151630690D01*
X139521858Y-151551206D01*
X139521632Y-151544228D01*
X139521632Y-150503265D01*
X139887020Y-150503265D01*
X140196720Y-150503265D01*
X140299373Y-150492221D01*
X140394778Y-150452028D01*
X140416050Y-150436343D01*
X140474604Y-150352780D01*
X140495635Y-150255946D01*
X140497627Y-150207732D01*
X140487987Y-150104604D01*
X140451740Y-150013833D01*
X140416050Y-149974724D01*
X140327228Y-149927740D01*
X140230280Y-149910290D01*
X140196720Y-149909267D01*
X139887020Y-149909267D01*
X139887020Y-150503265D01*
X139521632Y-150503265D01*
X139521632Y-149707522D01*
X139553872Y-149629853D01*
X139639846Y-149596636D01*
X140196720Y-149596636D01*
X140298351Y-149600809D01*
G37*
G36*
X141852224Y-149601659D02*
G01*
X141958623Y-149619023D01*
X142058152Y-149648790D01*
X142086671Y-149660139D01*
X142174760Y-149707557D01*
X142250352Y-149770430D01*
X142313445Y-149848759D01*
X142324563Y-149866280D01*
X142370674Y-149964092D01*
X142397571Y-150067458D01*
X142409868Y-150171536D01*
X142412002Y-150242414D01*
X142412002Y-151029853D01*
X142407818Y-151127850D01*
X142392790Y-151229142D01*
X142362818Y-151329447D01*
X142324563Y-151406475D01*
X142263970Y-151487638D01*
X142190879Y-151553441D01*
X142105289Y-151603883D01*
X142086671Y-151612128D01*
X141989203Y-151645616D01*
X141884865Y-151666701D01*
X141785088Y-151675073D01*
X141750593Y-151675631D01*
X141649038Y-151670608D01*
X141542907Y-151653244D01*
X141443836Y-151623477D01*
X141415491Y-151612128D01*
X141328385Y-151564758D01*
X141253299Y-151502028D01*
X141190235Y-151423937D01*
X141179064Y-151406475D01*
X141133212Y-151308406D01*
X141106464Y-151204890D01*
X141094237Y-151100743D01*
X141092114Y-151029853D01*
X141092114Y-150242414D01*
X141092321Y-150237529D01*
X141455059Y-150237529D01*
X141455059Y-151034738D01*
X141464352Y-151140153D01*
X141499297Y-151237795D01*
X141533705Y-151283377D01*
X141620774Y-151340528D01*
X141717070Y-151361756D01*
X141750593Y-151363000D01*
X141852762Y-151349859D01*
X141940972Y-151306315D01*
X141966992Y-151283377D01*
X142021088Y-151196356D01*
X142043344Y-151094827D01*
X142046127Y-151034738D01*
X142046127Y-150237529D01*
X142036776Y-150132172D01*
X142001613Y-150034747D01*
X141966992Y-149989378D01*
X141880274Y-149931876D01*
X141784107Y-149910519D01*
X141750593Y-149909267D01*
X141648343Y-149922488D01*
X141559866Y-149966299D01*
X141533705Y-149989378D01*
X141479943Y-150076066D01*
X141457824Y-150177457D01*
X141455059Y-150237529D01*
X141092321Y-150237529D01*
X141096275Y-150144440D01*
X141111219Y-150043232D01*
X141141024Y-149943094D01*
X141179064Y-149866280D01*
X141239581Y-149784859D01*
X141311833Y-149718895D01*
X141395820Y-149668386D01*
X141414026Y-149660139D01*
X141510492Y-149626651D01*
X141614878Y-149605566D01*
X141715595Y-149597194D01*
X141750593Y-149596636D01*
X141852224Y-149601659D01*
G37*
G36*
X142900976Y-151660000D02*
G01*
X142801610Y-151642111D01*
X142775924Y-151630690D01*
X142718508Y-151551206D01*
X142718283Y-151544228D01*
X142718283Y-149712407D01*
X142768944Y-149628630D01*
X142775924Y-149624968D01*
X142871952Y-149597992D01*
X142900976Y-149596636D01*
X143000620Y-149607482D01*
X143011863Y-149610802D01*
X143093440Y-149666001D01*
X143150482Y-149747445D01*
X143174040Y-149791542D01*
X143716748Y-150846671D01*
X143716748Y-149709965D01*
X143770843Y-149625214D01*
X143774389Y-149623503D01*
X143870882Y-149597922D01*
X143899930Y-149596636D01*
X143997474Y-149611748D01*
X144026448Y-149623503D01*
X144082569Y-149705813D01*
X144082623Y-149709476D01*
X144082623Y-151544228D01*
X144029904Y-151628802D01*
X144026448Y-151630690D01*
X143930026Y-151658597D01*
X143899930Y-151660000D01*
X143801128Y-151643231D01*
X143780251Y-151634598D01*
X143705213Y-151567523D01*
X143691835Y-151544717D01*
X143083670Y-150413384D01*
X143083670Y-151544717D01*
X143030950Y-151628802D01*
X143027494Y-151630690D01*
X142931073Y-151658597D01*
X142900976Y-151660000D01*
G37*
G36*
X144596999Y-151660000D02*
G01*
X144497632Y-151642111D01*
X144471946Y-151630690D01*
X144414530Y-151551206D01*
X144414305Y-151544228D01*
X144414305Y-149709476D01*
X144468400Y-149625213D01*
X144471946Y-149623503D01*
X144567974Y-149597922D01*
X144596999Y-149596636D01*
X144694543Y-149611748D01*
X144723517Y-149623503D01*
X144779638Y-149705813D01*
X144779692Y-149709476D01*
X144779692Y-151544228D01*
X144726973Y-151628802D01*
X144723517Y-151630690D01*
X144627096Y-151658597D01*
X144596999Y-151660000D01*
G37*
G36*
X145742986Y-151675631D02*
G01*
X145636426Y-151669430D01*
X145534731Y-151650825D01*
X145437902Y-151619818D01*
X145419120Y-151612128D01*
X145332013Y-151564758D01*
X145256928Y-151502028D01*
X145193863Y-151423937D01*
X145182693Y-151406475D01*
X145136840Y-151308406D01*
X145110093Y-151204890D01*
X145097866Y-151100743D01*
X145095743Y-151029853D01*
X145095743Y-150242414D01*
X145099903Y-150144440D01*
X145114848Y-150043232D01*
X145144652Y-149943094D01*
X145182693Y-149866280D01*
X145243353Y-149784859D01*
X145316034Y-149718895D01*
X145400737Y-149668386D01*
X145419120Y-149660139D01*
X145515262Y-149626651D01*
X145616842Y-149605566D01*
X145723861Y-149596884D01*
X145745917Y-149596636D01*
X145852980Y-149601852D01*
X145952701Y-149617502D01*
X146054892Y-149647126D01*
X146093230Y-149662581D01*
X146180967Y-149708854D01*
X146262932Y-149771435D01*
X146329658Y-149846252D01*
X146378605Y-149932845D01*
X146407235Y-150030751D01*
X146415631Y-150129574D01*
X146401257Y-150228784D01*
X146370202Y-150273677D01*
X146275863Y-150306650D01*
X146232449Y-150308848D01*
X146135721Y-150294969D01*
X146104466Y-150281981D01*
X146050312Y-150199349D01*
X146049755Y-150191612D01*
X146039986Y-150110523D01*
X146001884Y-150018199D01*
X145929863Y-149949063D01*
X145915910Y-149941018D01*
X145821533Y-149913019D01*
X145757152Y-149909267D01*
X145658715Y-149920739D01*
X145567313Y-149963120D01*
X145535868Y-149990844D01*
X145483108Y-150077972D01*
X145461401Y-150178401D01*
X145458688Y-150237529D01*
X145458688Y-151034738D01*
X145467981Y-151140153D01*
X145502926Y-151237795D01*
X145537334Y-151283377D01*
X145619386Y-151337807D01*
X145718517Y-151361056D01*
X145762526Y-151363000D01*
X145862272Y-151351979D01*
X145914445Y-151331737D01*
X145988505Y-151267376D01*
X145997487Y-151253091D01*
X146032836Y-151160813D01*
X146034124Y-151154417D01*
X146049755Y-151057208D01*
X146096805Y-150970980D01*
X146105931Y-150965861D01*
X146203319Y-150940882D01*
X146230006Y-150939972D01*
X146329421Y-150954283D01*
X146370202Y-150976608D01*
X146412038Y-151065162D01*
X146415631Y-151119734D01*
X146407235Y-151220962D01*
X146378605Y-151322835D01*
X146329658Y-151414780D01*
X146262758Y-151494498D01*
X146180274Y-151560364D01*
X146091765Y-151608220D01*
X145992427Y-151643769D01*
X145895518Y-151664506D01*
X145791499Y-151674578D01*
X145742986Y-151675631D01*
G37*
G36*
X147206001Y-151675631D02*
G01*
X147105782Y-151671226D01*
X147001043Y-151655999D01*
X146903270Y-151629896D01*
X146875296Y-151619944D01*
X146781147Y-151578426D01*
X146695029Y-151525761D01*
X146641800Y-151481214D01*
X146580090Y-151402581D01*
X146555826Y-151312686D01*
X146576831Y-151228667D01*
X146634473Y-151150997D01*
X146716538Y-151119246D01*
X146800558Y-151150997D01*
X146878029Y-151215165D01*
X146890439Y-151225736D01*
X146975076Y-151281275D01*
X147014515Y-151299986D01*
X147113409Y-151326497D01*
X147194766Y-151331737D01*
X147295249Y-151321624D01*
X147350593Y-151305847D01*
X147435936Y-151257340D01*
X147465875Y-151227201D01*
X147506361Y-151135718D01*
X147509839Y-151091402D01*
X147491139Y-150991759D01*
X147461967Y-150942414D01*
X147388962Y-150872767D01*
X147332519Y-150837390D01*
X147241845Y-150790986D01*
X147155198Y-150751416D01*
X147065117Y-150711309D01*
X146974392Y-150668841D01*
X146962247Y-150663000D01*
X146875221Y-150614850D01*
X146795494Y-150558329D01*
X146785415Y-150550160D01*
X146712997Y-150476154D01*
X146659080Y-150393021D01*
X146655966Y-150387006D01*
X146622240Y-150293867D01*
X146607833Y-150192144D01*
X146606629Y-150149113D01*
X146613786Y-150048599D01*
X146637921Y-149952509D01*
X146667201Y-149889727D01*
X146727682Y-149805498D01*
X146803122Y-149736602D01*
X146827424Y-149719734D01*
X146918974Y-149669806D01*
X147011016Y-149635834D01*
X147048220Y-149625945D01*
X147146650Y-149606969D01*
X147245080Y-149597666D01*
X147290509Y-149596636D01*
X147390482Y-149601485D01*
X147443405Y-149606894D01*
X147543268Y-149622986D01*
X147620725Y-149642554D01*
X147715278Y-149679434D01*
X147767271Y-149712407D01*
X147822154Y-149796473D01*
X147824912Y-149825247D01*
X147809281Y-149901939D01*
X147761409Y-149979609D01*
X147678367Y-150013803D01*
X147589951Y-149987913D01*
X147498503Y-149943747D01*
X147477599Y-149935645D01*
X147378415Y-149913620D01*
X147290509Y-149909267D01*
X147192837Y-149916711D01*
X147118562Y-149935645D01*
X147032159Y-149983910D01*
X147008653Y-150008429D01*
X146973387Y-150102608D01*
X146972505Y-150123712D01*
X146999982Y-150219791D01*
X147021353Y-150246322D01*
X147099362Y-150307520D01*
X147150802Y-150335715D01*
X147240576Y-150376855D01*
X147326657Y-150413384D01*
X147416738Y-150452811D01*
X147507463Y-150497820D01*
X147519609Y-150504242D01*
X147607307Y-150557050D01*
X147688136Y-150619304D01*
X147698394Y-150628318D01*
X147767467Y-150703823D01*
X147818571Y-150788240D01*
X147827843Y-150808080D01*
X147858838Y-150903062D01*
X147873424Y-151005049D01*
X147875715Y-151070886D01*
X147868798Y-151177223D01*
X147848049Y-151273668D01*
X147808769Y-151369228D01*
X147788276Y-151404033D01*
X147727683Y-151482067D01*
X147654591Y-151547030D01*
X147569001Y-151598922D01*
X147550383Y-151607732D01*
X147452104Y-151643538D01*
X147356393Y-151664425D01*
X147253804Y-151674570D01*
X147206001Y-151675631D01*
G37*
%LPC*%
D11*
%TO.C,REF\u002A\u002A*%
X157000000Y-150500000D03*
%TD*%
%TO.C,REF\u002A\u002A*%
X121500000Y-28000000D03*
%TD*%
%TO.C,REF\u002A\u002A*%
X121500000Y-150500000D03*
%TD*%
%TO.C,REF\u002A\u002A*%
X157000000Y-28000000D03*
%TD*%
%LPD*%
M02*
