#VRML V2.0 utf8
#created by JLC2KiCad_lib using the JLCPCB library
#for more info see https://github.com/TousstNicolas/JLC2KICAD_lib

Shape{
	appearance Appearance {
		material  Material 	{ 
			diffuseColor 0.8823529411764706 0.8823529411764706 0.8823529411764706 
			specularColor 0.7529411764705882 0.7529411764705882 0.7529411764705882
			ambientIntensity 0.2
			transparency 1.0
			shininess 0.5
		}
	}
	geometry IndexedFaceSet {
		ccw TRUE 
		solid FALSE
		coord DEF co Coordinate {
			point [
				-0.1557 0.0282 0.0, -0.1557 0.0282 -0.0039, -0.1582 0.0154 -0.0039, -0.1582 0.0154 0.0, -0.4724 0.5315 0.0378, -0.4724 0.5315 0.0568, -0.4724 0.9252 0.0568, -0.4724 0.5315 0.0189, -0.4724 0.9252 -0.0023, -0.4724 0.5315 0.0, -0.4724 0.5315 -0.0023, -0.315 0.5315 0.0, -0.315 0.5315 -0.0023, -0.315 0.5315 0.0378, -0.315 0.9252 0.0568, -0.315 0.5315 0.0568, -0.315 0.9252 -0.0023, -0.315 0.5315 0.0189, -0.0787 0.5315 0.0378, -0.0787 0.5315 0.0568, -0.0787 0.9252 0.0568, -0.0787 0.5315 0.0189, -0.0787 0.9252 -0.0023, -0.0787 0.5315 0.0, -0.0787 0.5315 -0.0023, 0.0262 0.5315 0.0, 0.0787 0.5315 -0.0023, 0.0787 0.5315 0.0, -0.0262 0.5315 0.0, 0.0787 0.5315 0.0378, 0.0787 0.9252 0.0568, 0.0787 0.5315 0.0568, 0.0787 0.9252 -0.0023, 0.0787 0.5315 0.0189, 0.315 0.5315 0.0378, 0.315 0.5315 0.0568, 0.315 0.9252 0.0568, 0.315 0.5315 0.0189, 0.315 0.9252 -0.0023, 0.315 0.5315 0.0, 0.315 0.5315 -0.0023, 0.4724 0.5315 0.0, 0.4724 0.5315 -0.0023, 0.4724 0.5315 0.0378, 0.4724 0.9252 0.0568, 0.4724 0.5315 0.0568, 0.4724 0.9252 -0.0023, 0.4724 0.5315 0.0189, -0.2684 0.0563 0.0, -0.2684 0.0563 -0.0039, -0.2684 -0.0639 -0.0039, -0.2684 -0.0639 0.0, -0.2534 -0.0639 -0.0039, -0.2534 -0.0639 0.0, -0.2534 0.041 -0.0039, -0.2534 0.041 0.0, -0.1782 0.041 -0.0039, -0.1782 0.041 0.0, -0.1782 0.0563 -0.0039, -0.1782 0.0563 0.0, -0.1357 -0.0408 -0.0039, -0.1507 -0.046 -0.0039, -0.1407 -0.0332 -0.0039, -0.0605 -0.0332 -0.0039, -0.063 -0.046 -0.0039, -0.0756 -0.0332 -0.0039, -0.1307 0.0538 -0.0039, -0.1181 0.041 -0.0039, -0.1282 0.0384 -0.0039, -0.0956 0.041 -0.0039, -0.0831 0.0538 -0.0039, -0.0856 0.0384 -0.0039, -0.0731 0.0487 -0.0039, -0.0781 0.0333 -0.0039, -0.0956 0.0563 -0.0039, -0.1181 0.0563 -0.0039, -0.1357 0.0333 -0.0039, -0.1407 0.0487 -0.0039, -0.1407 0.0257 -0.0039, -0.1507 0.0384 -0.0039, -0.1432 0.0154 -0.0039, -0.1557 -0.0357 -0.0039, -0.1432 -0.0229 -0.0039, -0.1582 -0.0229 -0.0039, -0.1282 -0.046 -0.0039, -0.1407 -0.0562 -0.0039, -0.1307 -0.0613 -0.0039, -0.1181 -0.0485 -0.0039, -0.0956 -0.0639 -0.0039, -0.1181 -0.0639 -0.0039, -0.0956 -0.0485 -0.0039, -0.0856 -0.046 -0.0039, -0.0831 -0.0613 -0.0039, -0.0781 -0.0408 -0.0039, -0.0731 -0.0562 -0.0039, -0.063 0.0384 -0.0039, -0.0756 0.0257 -0.0039, -0.0605 0.0257 -0.0039, -0.0405 0.0563 -0.0039, -0.0255 0.0001 -0.0039, -0.0405 -0.0639 -0.0039, -0.0255 -0.0153 -0.0039, 0.0496 0.0563 -0.0039, -0.0255 0.041 -0.0039, 0.0396 0.0001 -0.0039, 0.0396 -0.0153 -0.0039, -0.0255 -0.0485 -0.0039, 0.0496 -0.0485 -0.0039, 0.0496 -0.0639 -0.0039, 0.0496 0.041 -0.0039, 0.1673 0.0282 -0.0039, 0.1548 0.0154 -0.0039, 0.1523 0.0257 -0.0039, 0.1698 0.0154 -0.0039, 0.1548 -0.0229 -0.0039, 0.1698 -0.0229 -0.0039, 0.1623 -0.046 -0.0039, 0.1473 -0.0408 -0.0039, 0.1523 -0.0332 -0.0039, 0.1398 -0.046 -0.0039, 0.1523 -0.0562 -0.0039, 0.1423 -0.0613 -0.0039, 0.1298 -0.0485 -0.0039, 0.1298 -0.0639 -0.0039, 0.1673 -0.0357 -0.0039, 0.0847 -0.0485 -0.0039, 0.0697 -0.0639 -0.0039, 0.0847 0.041 -0.0039, 0.0697 0.0563 -0.0039, 0.1298 0.041 -0.0039, 0.1423 0.0538 -0.0039, 0.1398 0.0384 -0.0039, 0.1473 0.0333 -0.0039, 0.1523 0.0487 -0.0039, 0.1623 0.0384 -0.0039, 0.1298 0.0563 -0.0039, 0.29 0.0563 -0.0039, 0.25 -0.0639 -0.0039, 0.2625 0.0154 -0.0039, 0.2149 0.0257 -0.0039, 0.1899 0.0563 -0.0039, 0.2049 0.0563 -0.0039, 0.2174 0.0154 -0.0039, 0.275 0.0563 -0.0039, 0.265 0.0257 -0.0039, 0.2299 -0.0639 -0.0039, 0.2399 -0.0536 -0.0039, -0.0756 0.0257 0.0, -0.0605 0.0257 0.0, -0.063 0.0384 0.0, -0.0731 0.0487 0.0, -0.0831 0.0538 0.0, -0.0956 0.0563 0.0, -0.1181 0.0563 0.0, -0.1307 0.0538 0.0, -0.1407 0.0487 0.0, -0.1507 0.0384 0.0, -0.0781 0.0333 0.0, -0.0856 0.0384 0.0, -0.0956 0.041 0.0, -0.1181 0.041 0.0, -0.1282 0.0384 0.0, -0.1357 0.0333 0.0, -0.1407 0.0257 0.0, -0.1432 0.0154 0.0, -0.1432 -0.0229 0.0, -0.1407 -0.0332 0.0, -0.1357 -0.0408 0.0, -0.1282 -0.046 0.0, -0.1181 -0.0485 0.0, -0.0956 -0.0485 0.0, -0.0856 -0.046 0.0, -0.0781 -0.0408 0.0, -0.0756 -0.0332 0.0, -0.0605 -0.0332 0.0, -0.063 -0.046 0.0, -0.0731 -0.0562 0.0, -0.0831 -0.0613 0.0, -0.0956 -0.0639 0.0, -0.1181 -0.0639 0.0, -0.1307 -0.0613 0.0, -0.1407 -0.0562 0.0, -0.1507 -0.046 0.0, -0.1557 -0.0357 0.0, -0.1582 -0.0229 0.0, -0.0255 0.041 0.0, 0.0496 0.041 0.0, 0.0496 0.0563 0.0, -0.0405 0.0563 0.0, -0.0405 -0.0639 0.0, 0.0496 -0.0639 0.0, 0.0496 -0.0485 0.0, -0.0255 -0.0485 0.0, -0.0255 -0.0153 0.0, 0.0396 -0.0153 0.0, 0.0396 0.0001 0.0, -0.0255 0.0001 0.0, 0.0697 -0.0639 0.0, 0.1298 -0.0639 0.0, 0.1423 -0.0613 0.0, 0.1523 -0.0562 0.0, 0.1623 -0.046 0.0, 0.1673 -0.0357 0.0, 0.1698 -0.0229 0.0, 0.1698 0.0154 0.0, 0.1673 0.0282 0.0, 0.1623 0.0384 0.0, 0.1523 0.0487 0.0, 0.1423 0.0538 0.0, 0.1298 0.0563 0.0, 0.0697 0.0563 0.0, 0.1298 -0.0485 0.0, 0.0847 -0.0485 0.0, 0.0847 0.041 0.0, 0.1298 0.041 0.0, 0.1398 0.0384 0.0, 0.1473 0.0333 0.0, 0.1523 0.0257 0.0, 0.1548 0.0154 0.0, 0.1548 -0.0229 0.0, 0.1523 -0.0332 0.0, 0.1473 -0.0408 0.0, 0.1398 -0.046 0.0, 0.2299 -0.0639 0.0, 0.25 -0.0639 0.0, 0.29 0.0563 0.0, 0.275 0.0563 0.0, 0.265 0.0257 0.0, 0.2149 0.0257 0.0, 0.2049 0.0563 0.0, 0.1899 0.0563 0.0, 0.2625 0.0154 0.0, 0.2399 -0.0536 0.0, 0.2174 0.0154 0.0, 0.9843 0.343 0.2953, 0.9843 0.5315 0.2953, 0.9252 0.5315 0.2953, 0.9252 0.343 0.2953, 0.9843 -0.343 0.2953, 0.9843 -0.5315 0.2953, 0.9843 -0.5315 0.0984, 0.9843 0.343 0.4724, 0.9843 -0.343 0.4724, 0.9843 0.5315 0.0984, 1.0086 0.5315 0.0621, 0.9983 0.374 0.0683, 1.0102 0.374 0.0614, 0.9983 -0.374 0.0683, 1.0086 -0.5315 0.0621, 1.0102 -0.374 0.0614, 0.9872 -0.5315 0.0834, 0.9958 -0.5315 0.0706, 0.9895 -0.374 0.0787, 0.9872 0.5315 0.0834, 0.9895 0.374 0.0787, 0.9958 0.5315 0.0706, 1.0236 -0.5315 0.0591, 1.0236 -0.374 0.0591, 1.0236 0.374 0.0591, 1.0236 0.5315 0.0591, 0.9252 -0.374 0.0787, 0.9252 0.374 0.0787, 0.9291 -0.374 0.0544, 1.1811 -0.374 0.0, 1.0039 -0.374 0.0, 0.9402 -0.374 0.0325, 1.1811 -0.374 0.0591, 0.9796 -0.374 0.0039, 0.9577 -0.374 0.015, 1.1811 -0.5315 0.0591, 1.1811 0.374 0.0591, 1.1811 0.5315 0.0591, 1.1811 -0.5315 0.0, 1.1811 0.5315 0.0, 1.0039 0.374 0.0, 1.0039 0.5315 0.0, 1.1811 0.374 0.0, 1.0039 -0.5315 0.0, 0.9577 0.5315 0.015, 0.9402 0.374 0.0325, 0.9402 0.5315 0.0325, 0.9291 0.5315 0.0544, 0.9291 0.374 0.0544, 0.9252 0.5315 0.0787, 0.9577 0.374 0.015, 0.9796 0.5315 0.0039, 0.9796 0.374 0.0039, 0.9252 -0.343 0.2953, 0.9252 -0.5315 0.2953, 0.9252 -0.5315 0.0787, 0.9252 -0.343 0.4921, 0.9252 0.343 0.4921, 0.9055 0.343 0.5512, 0.7933 0.343 0.4921, 0.7933 0.343 0.5512, 0.9298 0.343 0.5473, 0.9518 0.343 0.5361, 0.9692 0.343 0.5187, 0.9804 0.343 0.4968, 0.9692 -0.343 0.5187, 0.9518 -0.343 0.5361, 0.9298 -0.343 0.5473, 0.9055 -0.343 0.5512, 0.9804 -0.343 0.4968, 0.7933 -0.343 0.5512, 0.7933 -0.343 0.4921, 0.9796 -0.5315 0.0039, 0.9402 -0.5315 0.0325, 0.9577 -0.5315 0.015, 0.9291 -0.5315 0.0544, -0.7441 0.5315 0.4921, -0.7687 0.5173 0.4921, -0.7583 0.5277 0.4921, -0.7725 0.3638 0.4921, -0.7725 0.5031 0.4921, 0.7687 0.5173 0.4921, 0.7441 0.5315 0.4921, 0.7583 0.5277 0.4921, 0.7725 0.3638 0.4921, 0.7725 0.5031 0.4921, 0.7753 0.3534 0.4921, 0.7441 -0.5315 0.4921, -0.7725 -0.3638 0.4921, 0.7725 -0.3638 0.4921, -0.7753 0.3534 0.4921, 0.7829 0.3458 0.4921, -0.7829 0.3458 0.4921, -0.9252 0.343 0.4921, -0.7933 0.343 0.4921, -0.7933 -0.343 0.4921, -0.7829 -0.3458 0.4921, -0.9252 -0.343 0.4921, -0.7753 -0.3534 0.4921, 0.7753 -0.3534 0.4921, 0.7687 -0.5173 0.4921, 0.7725 -0.5031 0.4921, -0.7583 -0.5277 0.4921, -0.7687 -0.5173 0.4921, -0.7441 -0.5315 0.4921, -0.7725 -0.5031 0.4921, 0.7583 -0.5277 0.4921, 0.7829 -0.3458 0.4921, 0.7753 0.3534 0.5512, 0.7829 0.3458 0.5512, 0.7725 0.3638 0.5512, -0.7829 -0.3458 0.5512, -0.7753 -0.3534 0.5512, 0.7753 -0.3534 0.5512, -0.7583 0.5277 0.5512, -0.7687 0.5173 0.5512, -0.7441 0.5315 0.5512, -0.7725 0.5031 0.5512, -0.7725 0.3638 0.5512, 0.7687 0.5173 0.5512, 0.7583 0.5277 0.5512, 0.7441 0.5315 0.5512, 0.7725 0.5031 0.5512, -0.7441 -0.5315 0.5512, -0.7687 -0.5173 0.5512, -0.7583 -0.5277 0.5512, -0.7753 0.3534 0.5512, -0.7829 0.3458 0.5512, -0.9055 0.343 0.5512, -0.7933 -0.343 0.5512, -0.7933 0.343 0.5512, -0.9055 -0.343 0.5512, 0.7725 -0.3638 0.5512, 0.7441 -0.5315 0.5512, -0.7725 -0.3638 0.5512, 0.7725 -0.5031 0.5512, 0.7687 -0.5173 0.5512, -0.7725 -0.5031 0.5512, 0.7583 -0.5277 0.5512, 0.7829 -0.3458 0.5512, -0.9843 -0.343 0.4724, -0.9252 -0.343 0.2953, -0.9843 -0.343 0.2953, -0.9298 -0.343 0.5473, -0.9518 -0.343 0.5361, -0.9692 -0.343 0.5187, -0.9804 -0.343 0.4968, -0.9692 0.343 0.5187, -0.9518 0.343 0.5361, -0.9298 0.343 0.5473, -0.9804 0.343 0.4968, -0.9843 0.343 0.4724, -0.9843 0.5315 0.2953, -0.9843 0.5315 0.0984, -0.9843 0.374 0.0984, -0.9843 -0.5315 0.2953, -0.9843 -0.374 0.0984, -0.9843 0.343 0.2953, -0.9843 -0.374 0.0787, -0.9843 0.374 0.0787, -0.9843 -0.5315 0.0984, -0.9958 -0.5315 0.0706, -0.9872 -0.374 0.0834, -0.9958 -0.374 0.0706, -0.9872 -0.5315 0.0834, -1.0086 -0.5315 0.0621, -1.0086 -0.374 0.0621, -1.0236 -0.5315 0.0591, -1.0236 -0.374 0.0591, -1.1811 -0.5315 0.0591, -1.1811 -0.374 0.0591, -1.1811 0.374 0.0591, -1.0236 0.5315 0.0591, -1.1811 0.5315 0.0591, -1.0236 0.374 0.0591, -1.0039 -0.5315 0.0, -0.9252 -0.5315 0.2953, -0.9252 -0.5315 0.0787, -0.9402 -0.5315 0.0325, -0.9291 -0.5315 0.0544, -0.9796 -0.5315 0.0039, -0.9577 -0.5315 0.015, -1.1811 -0.5315 0.0, -0.9252 0.374 0.0787, -0.9252 0.343 0.2953, -0.9252 -0.374 0.0787, -0.9252 0.5315 0.0787, -0.9252 0.5315 0.2953, -0.9577 -0.374 0.015, -0.9402 -0.374 0.0325, -0.9796 -0.374 0.0039, -1.0039 -0.374 0.0, -0.9291 -0.374 0.0544, -1.1811 -0.374 0.0, -0.9577 0.374 0.015, -1.0039 0.374 -0.0, -0.9958 0.374 0.0706, -0.9872 0.374 0.0834, -0.9796 0.374 0.0039, -1.0086 0.374 0.0621, -0.9402 0.374 0.0325, -0.9291 0.374 0.0544, -1.1811 0.374 0.0, -0.9958 0.5315 0.0706, -1.0086 0.5315 0.0621, -0.9872 0.5315 0.0834, -0.9796 0.5315 0.0039, -0.9577 0.5315 0.015, -1.0039 0.5315 0.0, -0.9402 0.5315 0.0325, -1.1811 0.5315 0.0, -0.9291 0.5315 0.0544, -0.9291 0.5315 0.0544
			]
		}
		coordIndex [
			0,1,2,-1,0,2,3,-1,4,5,6,-1,7,4,6,-1,6,8,7,-1,8,9,7,-1,9,8,10,-1,11,10,12,-1,10,11,9,-1,13,14,15,-1,11,12,16,-1,17,16,14,-1,17,11,16,-1,13,17,14,-1,14,6,5,-1,14,5,15,-1,6,14,16,-1,6,16,8,-1,8,16,12,-1,8,12,10,-1,18,19,20,-1,21,18,20,-1,20,22,21,-1,22,23,21,-1,23,22,24,-1,25,26,27,-1,25,24,26,-1,23,24,28,-1,25,28,24,-1,29,30,31,-1,27,26,32,-1,33,32,30,-1,33,27,32,-1,29,33,30,-1,30,20,19,-1,30,19,31,-1,20,30,32,-1,20,32,22,-1,22,32,26,-1,22,26,24,-1,34,35,36,-1,37,34,36,-1,36,38,37,-1,38,39,37,-1,39,38,40,-1,41,40,42,-1,40,41,39,-1,43,44,45,-1,41,42,46,-1,47,46,44,-1,47,41,46,-1,43,47,44,-1,44,36,35,-1,44,35,45,-1,36,44,46,-1,36,46,38,-1,38,46,42,-1,38,42,40,-1,48,49,50,-1,48,50,51,-1,51,50,52,-1,51,52,53,-1,53,52,54,-1,53,54,55,-1,55,54,56,-1,55,56,57,-1,57,56,58,-1,57,58,59,-1,59,58,49,-1,59,49,48,-1,54,58,56,-1,54,50,49,-1,54,52,50,-1,58,54,49,-1,60,61,62,-1,63,64,65,-1,66,67,68,-1,69,70,71,-1,71,72,73,-1,74,67,75,-1,76,77,68,-1,78,79,76,-1,1,79,78,-1,78,80,1,-1,62,81,82,-1,80,83,2,-1,84,85,60,-1,86,85,84,-1,87,86,84,-1,88,89,90,-1,91,92,90,-1,93,94,91,-1,65,64,93,-1,73,95,96,-1,64,94,93,-1,94,92,91,-1,92,88,90,-1,89,87,90,-1,89,86,87,-1,60,85,61,-1,61,81,62,-1,81,83,82,-1,82,83,80,-1,2,1,80,-1,76,79,77,-1,68,77,66,-1,66,75,67,-1,74,69,67,-1,74,70,69,-1,70,72,71,-1,72,95,73,-1,95,97,96,-1,98,99,100,-1,99,101,100,-1,98,102,103,-1,101,104,105,-1,106,107,108,-1,108,100,106,-1,106,100,101,-1,104,101,99,-1,99,98,103,-1,102,109,103,-1,110,111,112,-1,113,111,110,-1,113,114,111,-1,113,115,114,-1,116,117,118,-1,119,117,120,-1,121,119,120,-1,121,122,119,-1,122,121,123,-1,114,124,118,-1,125,123,126,-1,127,126,128,-1,129,130,131,-1,125,122,123,-1,132,131,133,-1,120,117,116,-1,116,118,124,-1,124,114,115,-1,132,134,112,-1,134,110,112,-1,134,132,133,-1,133,131,130,-1,135,129,127,-1,130,129,135,-1,126,127,125,-1,135,127,128,-1,136,137,138,-1,139,140,141,-1,139,142,140,-1,143,136,144,-1,138,142,144,-1,138,144,136,-1,137,145,146,-1,142,139,144,-1,137,146,138,-1,146,145,142,-1,140,142,145,-1,147,96,97,-1,147,97,148,-1,148,97,95,-1,148,95,149,-1,149,95,72,-1,149,72,150,-1,150,72,70,-1,150,70,151,-1,151,70,74,-1,151,74,152,-1,152,74,75,-1,152,75,153,-1,153,75,66,-1,153,66,154,-1,154,66,77,-1,154,77,155,-1,155,77,79,-1,155,79,156,-1,156,79,1,-1,156,1,0,-1,157,73,96,-1,157,96,147,-1,158,71,73,-1,158,73,157,-1,159,69,71,-1,159,71,158,-1,160,67,69,-1,160,69,159,-1,161,68,67,-1,161,67,160,-1,162,76,68,-1,162,68,161,-1,163,78,76,-1,163,76,162,-1,164,80,78,-1,164,78,163,-1,165,82,80,-1,165,80,164,-1,166,62,82,-1,166,82,165,-1,167,60,62,-1,167,62,166,-1,168,84,60,-1,168,60,167,-1,169,87,84,-1,169,84,168,-1,170,90,87,-1,170,87,169,-1,171,91,90,-1,171,90,170,-1,172,93,91,-1,172,91,171,-1,173,65,93,-1,173,93,172,-1,174,63,65,-1,174,65,173,-1,175,64,63,-1,175,63,174,-1,176,94,64,-1,176,64,175,-1,177,92,94,-1,177,94,176,-1,178,88,92,-1,178,92,177,-1,179,89,88,-1,179,88,178,-1,180,86,89,-1,180,89,179,-1,181,85,86,-1,181,86,180,-1,182,61,85,-1,182,85,181,-1,183,81,61,-1,183,61,182,-1,184,83,81,-1,184,81,183,-1,3,2,83,-1,3,83,184,-1,185,103,109,-1,185,109,186,-1,186,109,102,-1,186,102,187,-1,187,102,98,-1,187,98,188,-1,188,98,100,-1,188,100,189,-1,189,100,108,-1,189,108,190,-1,190,108,107,-1,190,107,191,-1,191,107,106,-1,191,106,192,-1,192,106,101,-1,192,101,193,-1,193,101,105,-1,193,105,194,-1,194,105,104,-1,194,104,195,-1,195,104,99,-1,195,99,196,-1,196,99,103,-1,196,103,185,-1,197,126,123,-1,197,123,198,-1,198,123,121,-1,198,121,199,-1,199,121,120,-1,199,120,200,-1,200,120,116,-1,200,116,201,-1,201,116,124,-1,201,124,202,-1,202,124,115,-1,202,115,203,-1,203,115,113,-1,203,113,204,-1,204,113,110,-1,204,110,205,-1,205,110,134,-1,205,134,206,-1,206,134,133,-1,206,133,207,-1,207,133,130,-1,207,130,208,-1,208,130,135,-1,208,135,209,-1,209,135,128,-1,209,128,210,-1,210,128,126,-1,210,126,197,-1,211,122,125,-1,211,125,212,-1,212,125,127,-1,212,127,213,-1,213,127,129,-1,213,129,214,-1,214,129,131,-1,214,131,215,-1,215,131,132,-1,215,132,216,-1,216,132,112,-1,216,112,217,-1,217,112,111,-1,217,111,218,-1,218,111,114,-1,218,114,219,-1,219,114,118,-1,219,118,220,-1,220,118,117,-1,220,117,221,-1,221,117,119,-1,221,119,222,-1,222,119,122,-1,222,122,211,-1,223,145,137,-1,223,137,224,-1,224,137,136,-1,224,136,225,-1,225,136,143,-1,225,143,226,-1,226,143,144,-1,226,144,227,-1,227,144,139,-1,227,139,228,-1,228,139,141,-1,228,141,229,-1,229,141,140,-1,229,140,230,-1,230,140,145,-1,230,145,223,-1,231,138,146,-1,231,146,232,-1,232,146,142,-1,232,142,233,-1,233,142,138,-1,233,138,231,-1,234,235,236,-1,236,237,234,-1,238,239,240,-1,234,241,242,-1,243,235,234,-1,242,238,234,-1,243,238,240,-1,234,238,243,-1,244,245,246,-1,247,248,249,-1,250,251,252,-1,253,250,254,-1,255,253,254,-1,249,248,256,-1,249,256,257,-1,247,251,248,-1,247,252,251,-1,240,253,243,-1,253,240,250,-1,246,258,259,-1,244,246,259,-1,255,245,244,-1,245,255,254,-1,250,252,254,-1,254,252,260,-1,260,261,254,-1,247,262,260,-1,263,264,257,-1,265,249,257,-1,257,266,263,-1,267,268,264,-1,257,264,268,-1,268,265,257,-1,265,262,249,-1,260,252,247,-1,262,247,249,-1,257,269,266,-1,269,257,256,-1,259,270,271,-1,270,259,258,-1,272,263,266,-1,266,269,272,-1,273,274,275,-1,273,276,274,-1,263,277,264,-1,263,272,277,-1,278,279,280,-1,281,280,282,-1,279,282,280,-1,261,283,281,-1,281,282,261,-1,279,278,284,-1,284,285,286,-1,285,284,278,-1,285,275,286,-1,286,275,274,-1,274,284,286,-1,258,276,270,-1,282,245,261,-1,258,274,276,-1,279,284,258,-1,274,258,284,-1,279,246,282,-1,261,245,254,-1,279,258,246,-1,282,246,245,-1,276,273,271,-1,271,270,276,-1,243,236,235,-1,283,253,281,-1,259,271,273,-1,243,283,236,-1,255,280,253,-1,275,285,244,-1,255,285,278,-1,259,275,244,-1,273,275,259,-1,255,244,285,-1,278,280,255,-1,280,281,253,-1,283,243,253,-1,287,260,288,-1,260,289,288,-1,287,290,291,-1,287,237,260,-1,260,237,261,-1,287,291,237,-1,237,236,261,-1,261,236,283,-1,241,237,291,-1,237,241,234,-1,292,291,293,-1,293,294,292,-1,291,295,296,-1,292,295,291,-1,291,297,298,-1,296,297,291,-1,291,298,241,-1,299,296,300,-1,301,300,295,-1,296,295,300,-1,292,302,301,-1,301,295,292,-1,296,299,297,-1,297,303,298,-1,303,297,299,-1,303,242,298,-1,298,242,241,-1,302,304,305,-1,290,242,303,-1,302,305,290,-1,242,290,287,-1,287,238,242,-1,290,299,300,-1,303,299,290,-1,302,290,301,-1,300,301,290,-1,239,238,287,-1,287,288,239,-1,306,248,251,-1,256,272,269,-1,240,239,288,-1,251,307,308,-1,256,277,272,-1,250,309,307,-1,289,309,250,-1,289,250,240,-1,288,289,240,-1,308,306,251,-1,250,307,251,-1,306,277,248,-1,256,248,277,-1,268,307,265,-1,262,265,309,-1,307,309,265,-1,289,260,262,-1,262,309,289,-1,307,268,308,-1,308,267,306,-1,267,308,268,-1,267,264,306,-1,306,264,277,-1,310,311,312,-1,290,293,291,-1,310,313,314,-1,310,314,311,-1,315,316,317,-1,318,313,310,-1,319,318,316,-1,319,316,315,-1,316,318,310,-1,320,313,318,-1,321,322,323,-1,320,324,313,-1,325,324,320,-1,326,324,325,-1,327,328,329,-1,328,330,329,-1,330,328,326,-1,331,327,329,-1,332,330,333,-1,334,321,335,-1,323,332,333,-1,336,337,338,-1,337,339,338,-1,322,338,339,-1,338,322,321,-1,321,323,335,-1,321,334,340,-1,341,325,305,-1,330,326,341,-1,330,341,333,-1,323,322,332,-1,341,326,325,-1,325,293,305,-1,293,290,305,-1,342,325,320,-1,293,343,294,-1,343,325,342,-1,344,320,318,-1,344,342,320,-1,293,325,343,-1,345,346,347,-1,348,349,350,-1,350,351,352,-1,353,354,355,-1,350,349,351,-1,344,350,352,-1,356,355,344,-1,356,353,355,-1,355,350,344,-1,342,344,352,-1,357,358,359,-1,342,352,360,-1,343,342,360,-1,361,343,360,-1,362,363,364,-1,364,363,345,-1,345,361,364,-1,365,363,362,-1,366,347,346,-1,367,366,368,-1,369,367,370,-1,357,371,358,-1,371,357,368,-1,368,357,367,-1,372,370,367,-1,366,367,369,-1,373,361,345,-1,361,373,343,-1,345,347,373,-1,366,346,368,-1,343,304,294,-1,304,343,373,-1,304,302,294,-1,302,292,294,-1,373,333,341,-1,323,347,366,-1,347,333,373,-1,304,341,305,-1,304,373,341,-1,323,333,347,-1,323,366,369,-1,323,369,335,-1,334,370,372,-1,335,370,334,-1,335,369,370,-1,334,372,340,-1,372,367,340,-1,340,367,321,-1,321,367,357,-1,321,357,338,-1,336,359,358,-1,338,359,336,-1,338,357,359,-1,336,358,337,-1,358,371,337,-1,337,371,339,-1,339,371,368,-1,339,368,322,-1,346,330,332,-1,329,345,363,-1,345,330,346,-1,368,332,322,-1,368,346,332,-1,329,330,345,-1,374,375,331,-1,375,374,376,-1,365,331,329,-1,329,363,365,-1,331,377,378,-1,365,377,331,-1,331,379,380,-1,378,379,331,-1,331,380,374,-1,381,378,382,-1,383,382,377,-1,378,377,382,-1,365,362,383,-1,383,377,365,-1,378,381,379,-1,379,384,380,-1,384,379,381,-1,384,385,380,-1,380,385,374,-1,386,387,388,-1,376,374,385,-1,389,376,390,-1,385,391,376,-1,392,390,388,-1,388,390,391,-1,393,392,388,-1,386,388,391,-1,389,390,394,-1,390,376,391,-1,395,396,397,-1,390,396,398,-1,395,398,396,-1,394,390,398,-1,399,395,397,-1,400,401,399,-1,399,397,400,-1,400,402,401,-1,403,402,404,-1,403,401,402,-1,405,406,407,-1,405,408,406,-1,409,399,401,-1,410,389,394,-1,394,398,411,-1,398,412,413,-1,411,398,413,-1,398,395,412,-1,399,414,395,-1,410,394,411,-1,415,395,414,-1,395,415,412,-1,414,399,409,-1,403,416,401,-1,409,401,416,-1,389,375,376,-1,375,389,410,-1,417,418,419,-1,375,327,331,-1,327,375,418,-1,417,420,421,-1,417,421,418,-1,418,375,419,-1,375,410,419,-1,410,411,419,-1,422,423,415,-1,414,424,422,-1,409,424,414,-1,414,422,415,-1,409,425,424,-1,423,412,415,-1,412,426,413,-1,426,412,423,-1,426,419,413,-1,413,419,411,-1,425,422,424,-1,426,397,392,-1,402,427,404,-1,425,402,422,-1,402,425,427,-1,402,423,422,-1,397,396,392,-1,402,400,423,-1,426,400,397,-1,423,400,426,-1,390,392,396,-1,426,392,419,-1,393,419,392,-1,419,393,417,-1,428,408,429,-1,430,393,431,-1,432,428,429,-1,433,434,435,-1,435,417,430,-1,433,435,430,-1,417,393,430,-1,393,388,431,-1,434,408,428,-1,434,433,408,-1,405,436,408,-1,429,408,436,-1,433,430,437,-1,433,438,408,-1,438,433,437,-1,408,438,406,-1,439,437,430,-1,431,387,439,-1,439,430,431,-1,431,388,387,-1,440,437,441,-1,439,387,420,-1,438,440,442,-1,440,438,437,-1,443,441,437,-1,438,442,406,-1,407,406,444,-1,444,406,442,-1,445,443,439,-1,437,439,443,-1,445,439,420,-1,386,421,387,-1,420,387,421,-1,436,407,444,-1,407,436,405,-1,409,416,427,-1,409,427,425,-1,429,436,444,-1,429,444,442,-1,416,404,427,-1,404,416,403,-1,428,443,434,-1,435,434,445,-1,443,445,434,-1,420,417,435,-1,435,445,420,-1,443,428,441,-1,441,432,440,-1,432,441,428,-1,432,429,440,-1,440,429,442,-1,391,421,386,-1,421,391,418,-1,362,364,328,-1,327,385,384,-1,362,328,327,-1,385,327,418,-1,418,391,385,-1,327,381,382,-1,384,381,327,-1,362,327,383,-1,382,383,327,-1,361,324,326,-1,313,360,352,-1,360,324,361,-1,364,326,328,-1,364,361,326,-1,313,324,360,-1,313,352,351,-1,313,351,314,-1,311,349,348,-1,314,349,311,-1,314,351,349,-1,311,348,312,-1,348,350,312,-1,312,350,310,-1,310,350,355,-1,310,355,316,-1,317,354,353,-1,316,354,317,-1,316,355,354,-1,317,353,315,-1,353,356,315,-1,315,356,319,-1,319,356,344,-1,319,344,318,-1,
		]
	}
}
Shape{
	appearance Appearance {
		material  Material 	{ 
			diffuseColor 0.2549019607843137 0.2549019607843137 0.2549019607843137 
			specularColor 0.7529411764705882 0.7529411764705882 0.7529411764705882
			ambientIntensity 0.2
			transparency 1.0
			shininess 0.5
		}
	}
	geometry IndexedFaceSet {
		ccw TRUE 
		solid FALSE
		coord DEF co Coordinate {
			point [
				0.5599 0.1343 0.0, 0.5308 0.1241 0.0, 0.2197 0.1675 0.0, 0.4664 0.0598 0.0, 0.4562 0.0307 0.0, 0.29 0.0563 0.0, 0.0528 0.1675 0.0, 0.0787 0.5315 0.0, 0.2197 0.0903 0.0, 0.0496 0.0563 0.0, -0.0405 0.0563 0.0, 0.0528 0.0903 0.0, -0.1181 0.0563 0.0, -0.0528 0.0903 0.0, -0.0956 0.0563 0.0, -0.6949 0.5315 0.0, -0.5837 0.5315 0.0, -0.7099 0.1675 0.0, -0.6212 0.1343 0.0, -0.5906 0.1378 0.0, -0.2534 0.041 0.0, -0.1582 -0.0229 0.0, -0.2534 -0.0639 0.0, -0.1181 0.041 0.0, -0.0956 0.041 0.0, -0.0756 0.0257 0.0, -0.0856 0.0384 0.0, -0.0781 0.0333 0.0, -0.8768 0.1675 0.0, -0.9173 0.5315 0.0, -0.8061 0.5315 0.0, 0.1298 -0.0639 0.0, 0.1423 -0.0613 0.0, 0.2197 -0.0903 0.0, 0.7099 0.1675 0.0, 0.5837 0.5315 0.0, 0.6949 0.5315 0.0, 0.315 0.5315 0.0, 0.4724 0.5315 0.0, -0.0262 0.5315 0.0, 0.0262 0.5315 0.0, 0.2049 0.0563 0.0, 0.265 0.0257 0.0, 0.2149 0.0257 0.0, 0.275 0.0563 0.0, 0.8061 0.5315 0.0, 0.8768 0.1675 0.0, 0.25 -0.0639 0.0, 0.2299 -0.0639 0.0, 0.4528 0.0 0.0, 0.0528 -0.0903 0.0, -0.0405 -0.0639 0.0, 0.0496 -0.0639 0.0, 0.1899 0.0563 0.0, 0.1423 0.0538 0.0, 0.1298 0.0563 0.0, 0.1523 0.0487 0.0, 0.1673 0.0282 0.0, 0.1623 0.0384 0.0, 0.1698 0.0154 0.0, 0.1698 -0.0229 0.0, 0.1673 -0.0357 0.0, 0.1623 -0.046 0.0, 0.1523 -0.0562 0.0, 0.0697 -0.0639 0.0, -0.0255 0.041 0.0, 0.0396 0.0001 0.0, -0.0255 0.0001 0.0, -0.0787 0.5315 0.0, -0.0528 0.1675 0.0, 0.0697 0.0563 0.0, 0.0396 -0.0153 0.0, -0.0255 -0.0153 0.0, -0.0255 -0.0485 0.0, 0.0496 -0.0485 0.0, -0.0528 -0.0903 0.0, -0.1181 -0.0639 0.0, -0.0956 -0.0639 0.0, 0.0528 -0.1675 0.0, 0.2197 -0.1675 0.0, 0.9173 -0.5315 0.0, 0.0496 0.041 0.0, -0.1782 0.0563 0.0, -0.1407 0.0487 0.0, -0.1507 0.0384 0.0, -0.2197 0.1675 0.0, -0.315 0.5315 0.0, -0.1307 0.0538 0.0, -0.063 0.0384 0.0, -0.0731 0.0487 0.0, -0.2197 0.0903 0.0, -0.1782 0.041 0.0, -0.1357 0.0333 0.0, -0.1282 0.0384 0.0, -0.0831 0.0538 0.0, -0.1407 0.0257 0.0, -0.1582 0.0154 0.0, -0.1557 0.0282 0.0, -0.1432 0.0154 0.0, -0.1432 -0.0229 0.0, -0.0756 -0.0332 0.0, -0.0956 -0.0485 0.0, -0.1181 -0.0485 0.0, -0.1357 -0.0408 0.0, -0.1282 -0.046 0.0, -0.1407 -0.0332 0.0, -0.0781 -0.0408 0.0, -0.0856 -0.046 0.0, -0.0605 -0.0332 0.0, -0.0605 0.0257 0.0, -0.063 -0.046 0.0, -0.0731 -0.0562 0.0, -0.0831 -0.0613 0.0, -0.1307 -0.0613 0.0, -0.2197 -0.0903 0.0, -0.2684 -0.0639 0.0, -0.1507 -0.046 0.0, -0.1407 -0.0562 0.0, -0.8768 -0.0903 0.0, -0.9173 -0.5315 0.0, -0.4724 0.5315 0.0, -0.6983 0.0859 0.0, -0.7099 0.0903 0.0, -0.6765 0.1077 0.0, -0.1557 -0.0357 0.0, -0.2197 -0.1675 0.0, -0.0528 -0.1675 0.0, 0.5599 -0.1343 0.0, 0.7099 -0.1675 0.0, 0.9173 0.5315 0.0, 0.8768 0.0903 0.0, 0.7099 -0.0903 0.0, 0.6765 -0.1077 0.0, 0.6983 -0.0859 0.0, 0.8768 -0.0903 0.0, 0.7147 0.0598 0.0, 0.7099 0.0903 0.0, 0.8768 -0.1675 0.0, 0.6983 0.0859 0.0, 0.5046 -0.1077 -0.0, 0.5308 -0.1241 0.0, -0.8768 0.0903 0.0, -0.7283 0.0 0.0, -0.7147 0.0598 0.0, -0.8768 -0.1675 0.0, -0.4528 0.0 0.0, -0.4562 -0.0307 0.0, -0.7099 -0.1675 0.0, -0.7147 -0.0598 -0.0, -0.7099 -0.0903 0.0, -0.5046 0.1077 0.0, -0.4828 0.0859 0.0, -0.2684 0.0563 0.0, -0.4664 -0.0598 0.0, 0.6765 0.1077 0.0, 0.5906 0.1378 0.0, 0.4828 0.0859 0.0, 0.5046 0.1077 0.0, 0.6503 0.1241 0.0, 0.6212 0.1343 0.0, 0.7147 -0.0598 0.0, 0.7249 0.0307 0.0, 0.7283 0.0 0.0, 0.7249 -0.0307 0.0, 0.4828 -0.0859 -0.0, 0.6212 -0.1343 0.0, 0.6503 -0.1241 0.0, 0.5906 -0.1378 0.0, 0.4562 -0.0307 -0.0, 0.4664 -0.0598 -0.0, -0.5308 0.1241 0.0, -0.7249 0.0307 0.0, -0.5599 0.1343 0.0, -0.6503 0.1241 0.0, -0.4664 0.0598 0.0, -0.6983 -0.0859 -0.0, -0.6765 -0.1077 -0.0, -0.4562 0.0307 0.0, -0.5906 -0.1378 0.0, -0.5599 -0.1343 0.0, -0.4828 -0.0859 0.0, -0.5046 -0.1077 0.0, -0.5308 -0.1241 0.0, -0.6503 -0.1241 0.0, -0.6212 -0.1343 0.0, -0.7249 -0.0307 -0.0, 0.1548 -0.0229 0.0, 0.1523 -0.0332 0.0, 0.1473 -0.0408 0.0, 0.1548 0.0154 0.0, 0.1298 0.041 0.0, 0.1398 0.0384 0.0, 0.1398 -0.046 0.0, 0.1473 0.0333 0.0, 0.1523 0.0257 0.0, 0.1298 -0.0485 0.0, 0.0847 -0.0485 0.0, 0.0847 0.041 0.0, 0.2174 0.0154 0.0, 0.2625 0.0154 0.0, 0.2399 -0.0536 0.0, -0.5599 -0.1343 -0.1575, -0.5906 -0.1378 -0.1575, -0.5308 -0.1241 -0.1575, -0.5046 -0.1077 -0.1575, -0.4828 -0.0859 -0.1575, -0.4664 -0.0598 -0.1575, -0.4562 -0.0307 -0.1575, -0.4528 0.0 -0.1575, -0.6212 -0.1343 -0.1575, -0.6503 -0.1241 -0.1575, -0.6765 -0.1077 -0.1575, -0.6983 -0.0859 -0.1575, -0.7147 -0.0598 -0.1575, -0.7249 -0.0307 -0.1575, -0.7283 0.0 -0.1575, -0.4675 -0.0281 -0.1853, -0.4768 -0.0548 -0.1853, -0.4799 -0.0253 -0.1939, -0.4591 -0.03 -0.1725, -0.4558 -0.0 -0.1725, -0.4852 -0.084 -0.1725, -0.4691 -0.0585 -0.1725, -0.5065 -0.1054 -0.1725, -0.5321 -0.1215 -0.1725, -0.5906 -0.1348 -0.1725, -0.5606 -0.1314 -0.1725, -0.4918 -0.0787 -0.1853, -0.5118 -0.0987 -0.1853, -0.5018 -0.0708 -0.1939, -0.6613 -0.0887 -0.1939, -0.6332 -0.0887 -0.1969, -0.6398 -0.1023 -0.1939, -0.5653 -0.1106 -0.1939, -0.5625 -0.1231 -0.1853, -0.5906 -0.1263 -0.1853, -0.689 0.0 -0.1969, -0.6865 -0.0219 -0.1969, -0.704 -0.0 -0.1939, -0.6453 -0.1138 -0.1853, -0.6693 -0.0987 -0.1853, -0.7012 -0.0253 -0.1939, -0.6792 -0.0428 -0.1969, -0.6928 -0.0492 -0.1939, -0.7136 -0.0281 -0.1853, -0.7254 -0.0 -0.1725, -0.7168 -0.0 -0.1853, -0.7043 -0.0548 -0.1853, -0.722 -0.03 -0.1725, -0.6793 -0.0708 -0.1939, -0.6674 -0.0614 -0.1969, -0.6518 -0.077 -0.1969, -0.712 -0.0585 -0.1725, -0.6746 -0.1054 -0.1725, -0.6959 -0.084 -0.1725, -0.6158 -0.1106 -0.1939, -0.6124 -0.096 -0.1969, -0.5906 -0.0984 -0.1969, -0.649 -0.1215 -0.1725, -0.6205 -0.1314 -0.1725, -0.5413 -0.1023 -0.1939, -0.5358 -0.1138 -0.1853, -0.5291 -0.0769 -0.1969, -0.5478 -0.0886 -0.1969, -0.5135 -0.0613 -0.1969, -0.5018 -0.0426 -0.1969, -0.4643 -0.0 -0.1853, -0.4921 0.0 -0.1969, -0.4946 -0.0219 -0.1969, -0.4771 -0.0 -0.1939, -0.4883 -0.0492 -0.1939, -0.5198 -0.0887 -0.1939, -0.5906 -0.1135 -0.1939, -0.5686 -0.0959 -0.1969, -0.6186 -0.1231 -0.1853, -0.6893 -0.0787 -0.1853, -0.5291 0.0769 -0.1969, -0.5018 0.0426 -0.1969, -0.4946 0.0219 -0.1969, -0.5478 0.0886 -0.1969, -0.6865 0.0219 -0.1969, -0.6792 0.0428 -0.1969, -0.6124 0.096 -0.1969, -0.5906 0.0984 -0.1969, -0.5686 0.0959 -0.1969, -0.6332 0.0887 -0.1969, -0.6674 0.0614 -0.1969, -0.6518 0.077 -0.1969, -0.5135 0.0613 -0.1969, 0.5135 -0.0613 -0.1969, 0.652 0.0769 -0.1969, 0.5291 -0.0769 -0.1969, 0.6674 -0.0614 -0.1969, 0.6518 -0.077 -0.1969, 0.6332 -0.0887 -0.1969, 0.6792 -0.0428 -0.1969, 0.6124 -0.096 -0.1969, 0.6865 -0.0219 -0.1969, 0.5906 -0.0984 -0.1969, 0.689 0.0 -0.1969, 0.5478 -0.0886 -0.1969, 0.6793 0.0426 -0.1969, 0.6865 0.0219 -0.1969, 0.5686 -0.0959 -0.1969, 0.6333 0.0886 -0.1969, 0.5018 -0.0426 -0.1969, 0.4946 -0.0219 -0.1969, 0.4946 0.0219 -0.1969, 0.5019 0.0428 -0.1969, 0.5687 0.096 -0.1969, 0.4921 0.0 -0.1969, 0.5906 0.0984 -0.1969, 0.6125 0.0959 -0.1969, 0.5479 0.0887 -0.1969, 0.5137 0.0614 -0.1969, 0.5293 0.077 -0.1969, 0.6676 0.0613 -0.1969, -0.7136 0.0281 -0.1853, -0.7043 0.0548 -0.1853, -0.7012 0.0253 -0.1939, -0.722 0.03 -0.1725, -0.7249 0.0307 -0.1575, -0.6959 0.084 -0.1725, -0.712 0.0585 -0.1725, -0.6983 0.0859 -0.1575, -0.6503 0.1241 -0.1575, -0.6746 0.1054 -0.1725, -0.6765 0.1077 -0.1575, -0.649 0.1215 -0.1725, -0.5906 0.1378 -0.1575, -0.5906 0.1348 -0.1725, -0.6205 0.1314 -0.1725, -0.6893 0.0787 -0.1853, -0.6693 0.0987 -0.1853, -0.6793 0.0708 -0.1939, -0.5198 0.0887 -0.1939, -0.5413 0.1023 -0.1939, -0.6158 0.1106 -0.1939, -0.6186 0.1231 -0.1853, -0.5906 0.1263 -0.1853, -0.5358 0.1138 -0.1853, -0.5118 0.0987 -0.1853, -0.4799 0.0253 -0.1939, -0.4883 0.0492 -0.1939, -0.4675 0.0281 -0.1853, -0.4768 0.0548 -0.1853, -0.4591 0.03 -0.1725, -0.4562 0.0307 -0.1575, -0.5018 0.0708 -0.1939, -0.4691 0.0585 -0.1725, -0.4664 0.0598 -0.1575, -0.5065 0.1054 -0.1725, -0.4828 0.0859 -0.1575, -0.4852 0.084 -0.1725, -0.5653 0.1106 -0.1939, -0.5321 0.1215 -0.1725, -0.5606 0.1314 -0.1725, -0.5308 0.1241 -0.1575, -0.6398 0.1023 -0.1939, -0.6453 0.1138 -0.1853, -0.5599 0.1343 -0.1575, -0.6212 0.1343 -0.1575, -0.7147 0.0598 -0.1575, -0.6928 0.0492 -0.1939, -0.6613 0.0887 -0.1939, -0.5046 0.1077 -0.1575, -0.5906 0.1135 -0.1939, -0.5625 0.1231 -0.1853, -0.4918 0.0787 -0.1853, 0.4675 0.0281 -0.1853, 0.4768 0.0548 -0.1853, 0.4799 0.0253 -0.1939, 0.4591 0.03 -0.1725, 0.4558 0.0 -0.1725, 0.4562 0.0307 -0.1575, 0.4852 0.084 -0.1725, 0.4691 0.0585 -0.1725, 0.4828 0.0859 -0.1575, 0.4528 -0.0 -0.1575, 0.5308 0.1241 -0.1575, 0.5065 0.1054 -0.1725, 0.5046 0.1077 -0.1575, 0.5321 0.1215 -0.1725, 0.5906 0.1378 -0.1575, 0.5906 0.1348 -0.1725, 0.5606 0.1314 -0.1725, 0.4918 0.0787 -0.1853, 0.5118 0.0987 -0.1853, 0.5018 0.0708 -0.1939, 0.6613 0.0887 -0.1939, 0.6398 0.1023 -0.1939, 0.5653 0.1106 -0.1939, 0.5625 0.1231 -0.1853, 0.5906 0.1263 -0.1853, 0.704 0.0 -0.1939, 0.6453 0.1138 -0.1853, 0.6693 0.0987 -0.1853, 0.7012 0.0253 -0.1939, 0.6928 0.0492 -0.1939, 0.7136 0.0281 -0.1853, 0.7254 0.0 -0.1725, 0.7168 0.0 -0.1853, 0.7043 0.0548 -0.1853, 0.722 0.03 -0.1725, 0.7283 -0.0 -0.1575, 0.7249 0.0307 -0.1575, 0.6793 0.0708 -0.1939, 0.712 0.0585 -0.1725, 0.7147 0.0598 -0.1575, 0.6746 0.1054 -0.1725, 0.6983 0.0859 -0.1575, 0.6959 0.084 -0.1725, 0.6158 0.1106 -0.1939, 0.649 0.1215 -0.1725, 0.6205 0.1314 -0.1725, 0.6503 0.1241 -0.1575, 0.5413 0.1023 -0.1939, 0.5358 0.1138 -0.1853, 0.6212 0.1343 -0.1575, 0.5599 0.1343 -0.1575, 0.4643 0.0 -0.1853, 0.4771 0.0 -0.1939, 0.4664 0.0598 -0.1575, 0.4883 0.0492 -0.1939, 0.5198 0.0887 -0.1939, 0.6765 0.1077 -0.1575, 0.5906 0.1135 -0.1939, 0.6186 0.1231 -0.1853, 0.6893 0.0787 -0.1853, 0.7136 -0.0281 -0.1853, 0.7043 -0.0548 -0.1853, 0.7012 -0.0253 -0.1939, 0.722 -0.03 -0.1725, 0.7249 -0.0307 -0.1575, 0.6959 -0.084 -0.1725, 0.712 -0.0585 -0.1725, 0.6983 -0.0859 -0.1575, 0.6503 -0.1241 -0.1575, 0.6746 -0.1054 -0.1725, 0.6765 -0.1077 -0.1575, 0.649 -0.1215 -0.1725, 0.5906 -0.1378 -0.1575, 0.5906 -0.1348 -0.1725, 0.6205 -0.1314 -0.1725, 0.6893 -0.0787 -0.1853, 0.6693 -0.0987 -0.1853, 0.6793 -0.0708 -0.1939, 0.5198 -0.0887 -0.1939, 0.5413 -0.1023 -0.1939, 0.6158 -0.1106 -0.1939, 0.6186 -0.1231 -0.1853, 0.5906 -0.1263 -0.1853, 0.5358 -0.1138 -0.1853, 0.5118 -0.0987 -0.1853, 0.4799 -0.0253 -0.1939, 0.4883 -0.0492 -0.1939, 0.4675 -0.0281 -0.1853, 0.4768 -0.0548 -0.1853, 0.4591 -0.03 -0.1725, 0.4562 -0.0307 -0.1575, 0.5018 -0.0708 -0.1939, 0.4691 -0.0585 -0.1725, 0.4664 -0.0598 -0.1575, 0.5065 -0.1054 -0.1725, 0.4828 -0.0859 -0.1575, 0.4852 -0.084 -0.1725, 0.5653 -0.1106 -0.1939, 0.5321 -0.1215 -0.1725, 0.5606 -0.1314 -0.1725, 0.5308 -0.1241 -0.1575, 0.6398 -0.1023 -0.1939, 0.6453 -0.1138 -0.1853, 0.5599 -0.1343 -0.1575, 0.6212 -0.1343 -0.1575, 0.7147 -0.0598 -0.1575, 0.6928 -0.0492 -0.1939, 0.6613 -0.0887 -0.1939, 0.5046 -0.1077 -0.1575, 0.5906 -0.1135 -0.1939, 0.5625 -0.1231 -0.1853, 0.4918 -0.0787 -0.1853, -0.9055 0.5315 0.5512, -0.7874 0.5315 0.5512, -0.7874 0.5315 0.4843, -0.315 0.5315 0.0568, -0.4724 0.5315 0.0568, -0.9173 0.5315 0.315, -0.9843 0.5315 0.3937, -0.9843 0.5315 0.315, 0.7874 0.5315 0.4843, 0.7874 0.5315 0.5512, 0.9055 0.5315 0.5512, 0.9843 0.5315 0.3937, 0.9843 0.5315 0.315, 0.9173 0.5315 0.315, 0.4724 0.5315 0.0378, 0.4724 0.5315 0.0568, 0.4724 0.5315 0.0189, 0.315 0.5315 0.0189, 0.0787 0.5315 0.0189, 0.315 0.5315 0.0378, 0.315 0.5315 0.0568, 0.0787 0.5315 0.0568, 0.0787 0.5315 0.0378, -0.0787 0.5315 0.0189, -0.315 0.5315 0.0189, -0.0787 0.5315 0.0378, -0.0787 0.5315 0.0568, -0.4724 0.5315 0.0378, -0.315 0.5315 0.0378, -0.4724 0.5315 0.0189, 0.9173 0.3543 0.315, 0.9173 -0.3543 0.315, 0.9173 -0.5315 0.315, 0.9173 0.3543 0.4843, 0.9173 -0.3543 0.4843, 0.9843 0.3543 0.3937, 0.9055 0.3543 0.5512, 0.7874 0.3543 0.5512, 0.7874 0.3543 0.4843, 0.9843 0.3543 0.315, 0.9843 -0.5315 0.3937, 0.9843 -0.3543 0.315, 0.9843 -0.3543 0.3937, 0.9843 -0.5315 0.315, 0.9055 -0.3543 0.5512, 0.9055 -0.5315 0.5512, 0.7874 -0.3543 0.4843, 0.7874 -0.3543 0.5512, -0.7874 0.3543 0.5512, -0.9055 0.3543 0.5512, -0.9055 -0.3543 0.5512, -0.7874 -0.5315 0.5512, -0.7874 -0.3543 0.5512, -0.9055 -0.5315 0.5512, 0.7874 -0.5315 0.5512, -0.9843 0.3543 0.3937, -0.9173 0.3543 0.4843, -0.7874 0.3543 0.4843, -0.9173 0.3543 0.315, -0.9843 0.3543 0.315, 0.5118 -0.5315 0.4843, 0.5118 -0.2165 0.4843, 0.7874 -0.5315 0.4843, -0.9173 -0.3543 0.4843, -0.7874 -0.3543 0.4843, -0.5118 -0.2165 0.4843, -0.7874 -0.5315 0.4843, -0.5118 -0.5315 0.4843, 0.5118 -0.2165 0.3268, -0.5118 -0.2165 0.3268, 0.5118 -0.5315 0.3268, -0.9843 -0.5315 0.3937, -0.5118 -0.5315 0.3268, -0.9843 -0.5315 0.315, -0.9173 -0.5315 0.315, -0.9173 -0.3543 0.315, -0.9843 -0.3543 0.3937, -0.9843 -0.3543 0.315, -0.0528 -0.0903 0.0394, -0.2197 -0.0903 0.0394, -0.2197 -0.1675 0.0394, -0.0528 -0.1675 0.0394, -0.2197 0.0903 0.0394, -0.0528 0.1675 0.0394, -0.0528 0.0903 0.0394, -0.2197 0.1675 0.0394, -0.7099 -0.0903 0.0394, -0.7099 -0.1675 0.0394, -0.8768 -0.1675 0.0394, -0.8768 -0.0903 0.0394, -0.8768 0.0903 0.0394, -0.7099 0.1675 0.0394, -0.7099 0.0903 0.0394, -0.8768 0.1675 0.0394, 0.0528 -0.1675 0.0394, 0.0528 -0.0903 0.0394, 0.2197 -0.0903 0.0394, 0.2197 -0.1675 0.0394, 0.0528 0.0903 0.0394, 0.2197 0.1675 0.0394, 0.2197 0.0903 0.0394, 0.0528 0.1675 0.0394, 0.7099 -0.1675 0.0394, 0.7099 -0.0903 0.0394, 0.8768 -0.0903 0.0394, 0.8768 -0.1675 0.0394, 0.7099 0.0903 0.0394, 0.8768 0.1675 0.0394, 0.8768 0.0903 0.0394, 0.7099 0.1675 0.0394, 0.7099 0.1675 0.0394
			]
		}
		coordIndex [
			0,1,2,-1,3,4,5,-1,2,6,7,-1,5,8,2,-1,9,10,11,-1,12,13,14,-1,15,16,17,-1,18,17,19,-1,20,21,22,-1,23,24,25,-1,26,27,25,-1,28,29,30,-1,24,26,25,-1,31,32,33,-1,34,35,36,-1,37,38,2,-1,6,39,40,-1,34,38,35,-1,41,42,43,-1,41,44,42,-1,34,45,46,-1,47,33,48,-1,5,49,47,-1,50,51,52,-1,8,53,54,-1,41,53,8,-1,55,8,54,-1,53,56,54,-1,53,57,58,-1,53,58,56,-1,57,53,59,-1,53,48,59,-1,48,60,59,-1,48,61,60,-1,48,62,61,-1,48,63,62,-1,31,33,50,-1,63,33,32,-1,64,31,50,-1,65,66,67,-1,68,39,69,-1,64,66,70,-1,64,71,66,-1,72,71,73,-1,64,52,74,-1,71,74,73,-1,64,74,71,-1,75,76,77,-1,78,79,80,-1,81,66,65,-1,82,83,84,-1,68,85,86,-1,66,81,70,-1,70,81,9,-1,87,83,82,-1,10,88,89,-1,12,87,90,-1,91,82,84,-1,92,93,23,-1,13,10,94,-1,25,92,23,-1,95,92,25,-1,28,30,17,-1,15,17,30,-1,96,91,97,-1,95,25,98,-1,96,21,20,-1,99,98,100,-1,100,101,102,-1,103,102,104,-1,105,102,103,-1,106,107,100,-1,107,101,100,-1,105,100,102,-1,105,99,100,-1,98,25,100,-1,108,100,25,-1,109,10,51,-1,51,110,108,-1,111,110,51,-1,112,75,77,-1,111,51,112,-1,113,76,114,-1,76,75,114,-1,114,115,22,-1,116,117,114,-1,116,114,22,-1,118,119,29,-1,120,86,85,-1,69,6,11,-1,13,69,11,-1,10,89,94,-1,109,108,25,-1,51,108,109,-1,10,109,88,-1,121,122,123,-1,20,91,96,-1,90,13,12,-1,84,97,91,-1,22,21,124,-1,114,125,115,-1,124,116,22,-1,78,126,75,-1,127,128,79,-1,45,129,46,-1,45,34,36,-1,129,130,46,-1,131,132,133,-1,129,80,130,-1,130,80,134,-1,135,136,130,-1,80,128,137,-1,135,138,136,-1,80,137,134,-1,9,11,70,-1,11,55,70,-1,55,11,8,-1,7,6,40,-1,7,37,2,-1,41,8,44,-1,5,44,8,-1,79,128,80,-1,50,75,51,-1,78,80,126,-1,64,50,52,-1,79,139,140,-1,63,48,33,-1,28,141,29,-1,16,120,17,-1,142,118,141,-1,141,122,143,-1,119,118,144,-1,29,141,118,-1,126,80,119,-1,145,115,146,-1,119,144,147,-1,118,148,149,-1,150,85,151,-1,69,39,6,-1,68,69,85,-1,94,14,13,-1,11,10,13,-1,152,90,82,-1,82,90,87,-1,50,78,75,-1,112,51,75,-1,125,126,119,-1,147,125,119,-1,153,146,115,-1,117,113,114,-1,138,154,136,-1,38,34,155,-1,3,5,156,-1,5,4,49,-1,157,156,2,-1,5,2,156,-1,154,34,136,-1,2,38,0,-1,2,1,157,-1,38,155,0,-1,158,159,34,-1,34,159,155,-1,34,154,158,-1,134,131,160,-1,135,130,161,-1,161,130,162,-1,163,162,134,-1,130,134,162,-1,134,160,163,-1,131,128,132,-1,131,133,160,-1,164,139,79,-1,165,166,128,-1,128,166,132,-1,128,127,167,-1,128,167,165,-1,79,140,127,-1,47,164,33,-1,164,79,33,-1,168,169,47,-1,47,169,164,-1,49,168,47,-1,85,150,170,-1,141,143,171,-1,141,171,142,-1,122,17,123,-1,122,121,143,-1,120,85,172,-1,18,173,17,-1,17,173,123,-1,17,120,19,-1,120,172,19,-1,85,170,172,-1,174,151,152,-1,90,152,151,-1,90,151,85,-1,149,175,176,-1,152,145,177,-1,174,152,177,-1,147,178,179,-1,152,115,145,-1,153,115,180,-1,181,180,125,-1,115,125,180,-1,176,147,149,-1,179,182,125,-1,125,182,181,-1,147,179,125,-1,183,184,147,-1,147,184,178,-1,147,176,183,-1,149,148,175,-1,142,185,118,-1,118,185,148,-1,186,187,188,-1,189,190,191,-1,186,188,192,-1,189,193,194,-1,191,193,189,-1,189,186,190,-1,195,190,186,-1,196,197,195,-1,186,192,195,-1,195,197,190,-1,198,199,200,-1,201,178,202,-1,201,203,179,-1,179,178,201,-1,182,203,204,-1,203,182,179,-1,205,181,204,-1,182,204,181,-1,205,206,180,-1,180,181,205,-1,153,206,207,-1,206,153,180,-1,208,146,207,-1,153,207,146,-1,145,146,208,-1,184,202,178,-1,183,209,184,-1,202,184,209,-1,183,176,210,-1,210,209,183,-1,211,176,175,-1,176,211,210,-1,148,212,175,-1,211,175,212,-1,148,185,213,-1,213,212,148,-1,214,185,142,-1,185,214,213,-1,214,142,215,-1,216,217,218,-1,219,220,207,-1,221,222,205,-1,208,207,220,-1,203,223,204,-1,224,223,203,-1,202,225,226,-1,227,228,229,-1,230,231,232,-1,233,234,235,-1,236,237,238,-1,239,240,232,-1,241,242,243,-1,237,242,241,-1,244,245,246,-1,244,247,248,-1,245,248,215,-1,214,215,248,-1,249,250,251,-1,252,213,214,-1,243,249,247,-1,253,212,254,-1,255,256,257,-1,258,259,210,-1,234,260,261,-1,259,225,209,-1,262,260,263,-1,201,226,224,-1,264,265,229,-1,224,203,201,-1,219,216,266,-1,267,218,268,-1,269,218,267,-1,222,219,206,-1,220,219,266,-1,207,206,219,-1,269,216,218,-1,266,216,269,-1,216,222,217,-1,268,218,270,-1,219,222,216,-1,206,205,222,-1,268,270,265,-1,217,270,218,-1,217,221,227,-1,265,270,229,-1,222,221,217,-1,205,204,221,-1,270,227,229,-1,217,227,270,-1,227,223,228,-1,264,229,271,-1,227,221,223,-1,204,223,221,-1,229,228,271,-1,264,271,262,-1,228,224,261,-1,262,271,260,-1,224,228,223,-1,226,201,202,-1,271,261,260,-1,228,261,271,-1,261,226,234,-1,263,260,233,-1,224,226,261,-1,210,211,258,-1,233,272,273,-1,260,234,233,-1,234,225,235,-1,263,233,273,-1,226,225,234,-1,202,209,225,-1,272,255,257,-1,233,235,272,-1,235,259,274,-1,273,272,257,-1,225,259,235,-1,209,210,259,-1,272,274,255,-1,235,274,272,-1,274,258,239,-1,256,255,232,-1,259,258,274,-1,253,211,212,-1,232,255,239,-1,274,239,255,-1,239,253,240,-1,256,232,231,-1,239,258,253,-1,211,253,258,-1,231,230,251,-1,240,230,232,-1,275,240,254,-1,251,230,249,-1,253,254,240,-1,212,213,254,-1,230,275,249,-1,240,275,230,-1,275,252,247,-1,250,249,243,-1,275,254,252,-1,213,252,254,-1,243,244,241,-1,275,247,249,-1,247,244,243,-1,250,243,242,-1,252,214,248,-1,247,252,248,-1,241,246,238,-1,245,244,248,-1,238,237,241,-1,246,241,244,-1,250,276,251,-1,264,262,263,-1,264,263,265,-1,273,268,265,-1,263,273,265,-1,268,257,267,-1,257,268,273,-1,231,277,278,-1,257,256,267,-1,279,242,237,-1,280,281,282,-1,236,283,284,-1,285,281,286,-1,282,281,285,-1,286,287,285,-1,280,283,236,-1,280,282,283,-1,284,237,236,-1,250,242,279,-1,237,284,279,-1,288,251,276,-1,276,250,279,-1,231,288,277,-1,288,231,251,-1,267,256,278,-1,256,231,278,-1,289,290,291,-1,292,293,294,-1,292,294,295,-1,296,297,295,-1,294,296,295,-1,297,298,299,-1,298,297,296,-1,300,301,302,-1,298,303,299,-1,304,305,306,-1,307,308,309,-1,310,311,312,-1,313,308,314,-1,309,308,313,-1,314,315,313,-1,307,311,310,-1,307,309,311,-1,312,306,310,-1,289,305,304,-1,306,312,304,-1,316,291,290,-1,290,289,304,-1,300,316,301,-1,316,300,291,-1,299,303,302,-1,303,300,302,-1,317,318,319,-1,320,245,321,-1,322,323,324,-1,215,321,245,-1,325,326,327,-1,328,326,325,-1,329,330,331,-1,332,333,334,-1,335,279,336,-1,337,338,339,-1,267,278,269,-1,340,341,336,-1,342,277,343,-1,278,277,342,-1,344,220,266,-1,344,345,346,-1,220,346,208,-1,347,208,346,-1,348,288,276,-1,349,350,347,-1,343,348,345,-1,351,352,353,-1,354,284,283,-1,355,356,357,-1,338,358,359,-1,356,330,360,-1,287,358,285,-1,361,331,328,-1,286,281,334,-1,328,325,361,-1,320,317,246,-1,236,319,280,-1,238,319,236,-1,323,320,362,-1,245,320,246,-1,321,362,320,-1,238,317,319,-1,246,317,238,-1,317,323,318,-1,280,319,363,-1,320,323,317,-1,362,324,323,-1,280,363,281,-1,318,363,319,-1,318,322,332,-1,281,363,334,-1,323,322,318,-1,324,327,322,-1,363,332,334,-1,318,332,363,-1,332,326,333,-1,286,334,364,-1,332,322,326,-1,327,326,322,-1,334,333,364,-1,286,364,287,-1,333,328,359,-1,287,364,358,-1,328,333,326,-1,331,361,329,-1,364,359,358,-1,333,359,364,-1,359,331,338,-1,285,358,337,-1,328,331,359,-1,357,365,355,-1,337,366,282,-1,358,338,337,-1,338,330,339,-1,285,337,282,-1,331,330,338,-1,329,360,330,-1,366,354,283,-1,337,339,366,-1,339,356,367,-1,282,366,283,-1,330,356,339,-1,360,357,356,-1,366,367,354,-1,339,367,366,-1,367,355,340,-1,284,354,336,-1,356,355,367,-1,351,365,352,-1,336,354,340,-1,367,340,354,-1,340,351,341,-1,284,336,279,-1,340,355,351,-1,365,351,355,-1,279,335,276,-1,341,335,336,-1,368,341,353,-1,276,335,348,-1,351,353,341,-1,352,350,353,-1,335,368,348,-1,341,368,335,-1,368,349,345,-1,288,348,343,-1,368,353,349,-1,350,349,353,-1,343,344,342,-1,368,345,348,-1,345,344,343,-1,288,343,277,-1,349,347,346,-1,345,349,346,-1,342,266,269,-1,220,344,346,-1,269,278,342,-1,266,342,344,-1,361,19,329,-1,361,325,18,-1,18,19,361,-1,173,325,327,-1,325,173,18,-1,324,123,327,-1,173,327,123,-1,324,362,121,-1,121,123,324,-1,143,362,321,-1,362,143,121,-1,215,171,321,-1,143,321,171,-1,142,171,215,-1,172,329,19,-1,170,360,172,-1,329,172,360,-1,170,150,357,-1,357,360,170,-1,365,150,151,-1,150,365,357,-1,174,352,151,-1,365,151,352,-1,174,177,350,-1,350,352,174,-1,347,177,145,-1,177,347,350,-1,347,145,208,-1,369,370,371,-1,372,373,374,-1,375,376,377,-1,378,374,373,-1,379,380,381,-1,382,380,379,-1,383,384,385,-1,386,387,388,-1,389,304,390,-1,391,392,393,-1,299,302,394,-1,395,396,390,-1,397,301,398,-1,302,301,397,-1,399,400,401,-1,399,402,403,-1,400,403,404,-1,405,404,403,-1,406,316,290,-1,407,408,405,-1,398,406,402,-1,409,410,411,-1,412,312,311,-1,413,414,415,-1,392,416,417,-1,414,384,418,-1,315,416,313,-1,419,385,382,-1,314,308,388,-1,382,379,419,-1,372,369,420,-1,310,371,307,-1,421,371,310,-1,376,372,422,-1,373,372,420,-1,374,422,372,-1,421,369,371,-1,420,369,421,-1,369,376,370,-1,307,371,423,-1,372,376,369,-1,422,377,376,-1,307,423,308,-1,370,423,371,-1,370,375,386,-1,308,423,388,-1,376,375,370,-1,377,381,375,-1,423,386,388,-1,370,386,423,-1,386,380,387,-1,314,388,424,-1,386,375,380,-1,381,380,375,-1,388,387,424,-1,314,424,315,-1,387,382,417,-1,315,424,416,-1,382,387,380,-1,385,419,383,-1,424,417,416,-1,387,417,424,-1,417,385,392,-1,313,416,391,-1,382,385,417,-1,415,425,413,-1,391,426,309,-1,416,392,391,-1,392,384,393,-1,313,391,309,-1,385,384,392,-1,383,418,384,-1,426,412,311,-1,391,393,426,-1,393,414,427,-1,309,426,311,-1,384,414,393,-1,418,415,414,-1,426,427,412,-1,393,427,426,-1,427,413,395,-1,312,412,390,-1,414,413,427,-1,409,425,410,-1,390,412,395,-1,427,395,412,-1,395,409,396,-1,312,390,304,-1,395,413,409,-1,425,409,413,-1,304,389,290,-1,396,389,390,-1,428,396,411,-1,290,389,406,-1,409,411,396,-1,410,408,411,-1,389,428,406,-1,396,428,389,-1,428,407,402,-1,316,406,398,-1,428,411,407,-1,408,407,411,-1,398,399,397,-1,428,402,406,-1,402,399,398,-1,316,398,301,-1,407,405,403,-1,402,407,403,-1,397,401,394,-1,400,399,403,-1,394,302,397,-1,401,397,399,-1,429,430,431,-1,432,400,433,-1,434,435,436,-1,404,433,400,-1,437,438,439,-1,440,438,437,-1,441,442,443,-1,444,445,446,-1,447,300,448,-1,449,450,451,-1,310,306,421,-1,452,453,448,-1,454,305,455,-1,306,305,454,-1,456,373,420,-1,456,457,458,-1,373,458,378,-1,459,378,458,-1,460,289,291,-1,461,462,459,-1,455,460,457,-1,463,464,465,-1,466,303,298,-1,467,468,469,-1,450,470,471,-1,468,442,472,-1,293,470,294,-1,473,443,440,-1,292,295,446,-1,440,437,473,-1,432,429,401,-1,299,431,297,-1,394,431,299,-1,435,432,474,-1,400,432,401,-1,433,474,432,-1,394,429,431,-1,401,429,394,-1,429,435,430,-1,297,431,475,-1,432,435,429,-1,474,436,435,-1,297,475,295,-1,430,475,431,-1,430,434,444,-1,295,475,446,-1,435,434,430,-1,436,439,434,-1,475,444,446,-1,430,444,475,-1,444,438,445,-1,292,446,476,-1,444,434,438,-1,439,438,434,-1,446,445,476,-1,292,476,293,-1,445,440,471,-1,293,476,470,-1,440,445,438,-1,443,473,441,-1,476,471,470,-1,445,471,476,-1,471,443,450,-1,294,470,449,-1,440,443,471,-1,469,477,467,-1,449,478,296,-1,470,450,449,-1,450,442,451,-1,294,449,296,-1,443,442,450,-1,441,472,442,-1,478,466,298,-1,449,451,478,-1,451,468,479,-1,296,478,298,-1,442,468,451,-1,472,469,468,-1,478,479,466,-1,451,479,478,-1,479,467,452,-1,303,466,448,-1,468,467,479,-1,463,477,464,-1,448,466,452,-1,479,452,466,-1,452,463,453,-1,303,448,300,-1,452,467,463,-1,477,463,467,-1,300,447,291,-1,453,447,448,-1,480,453,465,-1,291,447,460,-1,463,465,453,-1,464,462,465,-1,447,480,460,-1,453,480,447,-1,480,461,457,-1,289,460,455,-1,480,465,461,-1,462,461,465,-1,455,456,454,-1,480,457,460,-1,457,456,455,-1,289,455,305,-1,461,459,458,-1,457,461,458,-1,454,420,421,-1,373,456,458,-1,421,306,454,-1,420,454,456,-1,473,167,441,-1,473,437,165,-1,165,167,473,-1,166,437,439,-1,437,166,165,-1,436,132,439,-1,166,439,132,-1,436,474,133,-1,133,132,436,-1,160,474,433,-1,474,160,133,-1,404,163,433,-1,160,433,163,-1,162,163,404,-1,127,441,167,-1,140,472,127,-1,441,127,472,-1,140,139,469,-1,469,472,140,-1,477,139,164,-1,139,477,469,-1,169,464,164,-1,477,164,464,-1,169,168,462,-1,462,464,169,-1,459,168,49,-1,168,459,462,-1,459,49,378,-1,419,155,383,-1,419,379,0,-1,0,155,419,-1,1,379,381,-1,379,1,0,-1,377,157,381,-1,1,381,157,-1,377,422,156,-1,156,157,377,-1,3,422,374,-1,422,3,156,-1,378,4,374,-1,3,374,4,-1,49,4,378,-1,159,383,155,-1,158,418,159,-1,383,159,418,-1,158,154,415,-1,415,418,158,-1,425,154,138,-1,154,425,415,-1,135,410,138,-1,425,138,410,-1,135,161,408,-1,408,410,135,-1,405,161,162,-1,161,405,408,-1,405,162,404,-1,481,482,483,-1,484,485,486,-1,15,30,485,-1,29,486,485,-1,487,486,488,-1,487,481,483,-1,489,490,491,-1,492,493,494,-1,486,483,489,-1,487,483,486,-1,489,491,492,-1,494,486,489,-1,492,494,489,-1,36,495,496,-1,129,45,496,-1,495,36,35,-1,35,497,495,-1,35,38,497,-1,498,499,500,-1,494,501,502,-1,129,496,494,-1,45,36,496,-1,494,496,501,-1,499,503,500,-1,498,7,499,-1,498,37,7,-1,504,505,506,-1,486,494,507,-1,502,507,494,-1,500,503,501,-1,501,503,502,-1,15,485,508,-1,505,509,506,-1,504,86,505,-1,504,68,86,-1,15,508,16,-1,486,507,484,-1,506,509,507,-1,507,509,484,-1,29,485,30,-1,120,16,510,-1,16,508,510,-1,511,512,80,-1,512,513,80,-1,80,129,511,-1,512,514,515,-1,512,511,514,-1,494,511,129,-1,516,514,511,-1,514,516,517,-1,517,518,519,-1,519,514,517,-1,516,511,520,-1,491,516,492,-1,516,491,517,-1,521,522,523,-1,522,521,524,-1,516,493,492,-1,493,516,520,-1,525,521,523,-1,521,525,526,-1,525,515,527,-1,512,515,523,-1,525,523,515,-1,512,523,522,-1,527,528,525,-1,481,529,482,-1,529,481,530,-1,531,532,533,-1,532,531,534,-1,528,535,526,-1,528,526,525,-1,490,518,517,-1,490,517,491,-1,530,487,536,-1,487,530,481,-1,530,537,538,-1,539,537,536,-1,530,536,537,-1,539,536,540,-1,538,529,530,-1,482,529,538,-1,538,483,482,-1,538,519,483,-1,541,527,542,-1,519,538,542,-1,527,541,543,-1,527,515,542,-1,515,514,542,-1,519,489,483,-1,542,514,519,-1,544,545,546,-1,537,544,546,-1,546,538,537,-1,545,547,548,-1,548,546,545,-1,542,538,546,-1,546,549,542,-1,549,546,550,-1,551,541,542,-1,542,549,551,-1,547,552,553,-1,513,524,521,-1,547,532,534,-1,547,534,552,-1,521,551,513,-1,554,555,552,-1,555,553,552,-1,80,551,553,-1,513,551,80,-1,551,543,541,-1,543,526,535,-1,526,543,521,-1,551,521,543,-1,119,80,553,-1,553,548,547,-1,119,553,555,-1,548,553,550,-1,550,546,548,-1,553,551,549,-1,549,550,553,-1,535,528,527,-1,527,543,535,-1,512,522,524,-1,512,524,513,-1,539,486,29,-1,556,544,537,-1,119,555,556,-1,537,539,556,-1,119,539,29,-1,556,539,119,-1,540,488,486,-1,486,539,540,-1,487,540,536,-1,540,487,488,-1,557,554,552,-1,554,557,558,-1,534,557,552,-1,557,534,531,-1,557,544,556,-1,544,557,531,-1,531,533,545,-1,545,544,531,-1,557,556,558,-1,554,558,556,-1,556,555,554,-1,533,532,547,-1,547,545,533,-1,518,490,489,-1,489,519,518,-1,494,493,520,-1,494,520,511,-1,114,75,559,-1,559,560,114,-1,125,114,560,-1,560,561,125,-1,126,125,561,-1,561,562,126,-1,75,126,562,-1,562,559,75,-1,559,562,561,-1,559,561,560,-1,563,564,565,-1,564,563,566,-1,567,568,569,-1,567,569,570,-1,571,572,573,-1,572,571,574,-1,575,576,577,-1,575,577,578,-1,579,580,581,-1,580,579,582,-1,583,584,585,-1,583,585,586,-1,587,588,589,-1,588,587,590,-1,90,85,566,-1,566,563,90,-1,13,90,563,-1,563,565,13,-1,69,13,565,-1,565,564,69,-1,85,69,564,-1,564,566,85,-1,118,149,567,-1,567,570,118,-1,144,118,570,-1,570,569,144,-1,147,144,569,-1,569,568,147,-1,149,147,568,-1,568,567,149,-1,141,28,574,-1,574,571,141,-1,122,141,571,-1,571,573,122,-1,17,122,573,-1,573,572,17,-1,28,17,572,-1,572,574,28,-1,33,79,578,-1,578,577,33,-1,50,33,577,-1,577,576,50,-1,78,50,576,-1,576,575,78,-1,79,78,575,-1,575,578,79,-1,8,11,579,-1,579,581,8,-1,2,8,581,-1,581,580,2,-1,6,2,580,-1,580,582,6,-1,11,6,582,-1,582,579,11,-1,134,137,586,-1,586,585,134,-1,131,134,585,-1,585,584,131,-1,128,131,584,-1,584,583,128,-1,137,128,583,-1,583,586,137,-1,130,136,587,-1,587,589,130,-1,46,130,589,-1,589,588,46,-1,34,46,588,-1,588,590,34,-1,136,34,590,-1,590,587,136,-1,
		]
	}
}
Shape{
	appearance Appearance {
		material  Material 	{ 
			diffuseColor 0.8117647058823529 0.8117647058823529 0.8117647058823529 
			specularColor 0.7529411764705882 0.7529411764705882 0.7529411764705882
			ambientIntensity 0.2
			transparency 1.0
			shininess 0.5
		}
	}
	geometry IndexedFaceSet {
		ccw TRUE 
		solid FALSE
		coord DEF co Coordinate {
			point [
				0.4678 -1.1108 0.4843, 0.4808 -1.0977 0.0512, 0.4808 -1.0977 0.4843, 0.4892 -1.0812 0.4843, 0.4892 -1.0812 0.0512, 0.4921 -1.063 0.0512, 0.4921 -1.063 0.4843, 0.4678 -1.1108 0.0512, 0.4513 -1.1192 0.4843, 0.4513 -1.1192 0.0512, 0.4331 -1.122 0.4843, 0.4331 -1.122 0.0512, -0.0197 -0.6198 0.0512, 0.4921 -0.6198 0.0512, -0.0197 -1.063 0.0512, 0.0394 -1.122 0.0512, 0.0047 -1.1108 0.0512, -0.0084 -1.0977 0.0512, 0.0211 -1.1192 0.0512, -0.0168 -1.0812 0.0512, -0.0084 -1.0977 0.4843, -0.0168 -1.0812 0.4843, -0.0197 -1.063 0.4843, 0.0047 -1.1108 0.4843, 0.0211 -1.1192 0.4843, 0.0394 -1.122 0.4843, 0.4921 -0.293 0.4843, -0.0197 -0.293 0.4843, -0.0197 -0.293 0.3466, -0.0197 -0.5608 0.3466, -0.0197 -0.5608 0.1102, 0.4921 -0.5608 0.1102, 0.4921 -0.5608 0.3466, 0.4921 -0.293 0.3466, 0.4921 -0.293 0.3466
			]
		}
		coordIndex [
			0,1,2,-1,3,2,4,-1,1,4,2,-1,5,6,3,-1,3,4,5,-1,1,0,7,-1,7,8,9,-1,8,7,0,-1,8,10,9,-1,9,10,11,-1,12,13,5,-1,7,11,1,-1,12,5,14,-1,1,11,4,-1,7,9,11,-1,5,11,14,-1,5,4,11,-1,11,15,14,-1,15,16,17,-1,15,18,16,-1,14,15,19,-1,17,19,15,-1,16,20,17,-1,19,17,21,-1,20,21,17,-1,22,14,19,-1,19,21,22,-1,20,16,23,-1,23,18,24,-1,18,23,16,-1,18,15,24,-1,24,15,25,-1,8,0,6,-1,2,6,0,-1,2,3,6,-1,26,10,6,-1,6,10,8,-1,26,25,10,-1,26,27,25,-1,20,22,21,-1,25,27,22,-1,22,23,24,-1,20,23,22,-1,22,24,25,-1,27,28,29,-1,27,29,22,-1,29,30,14,-1,12,14,30,-1,14,22,29,-1,13,12,30,-1,13,30,31,-1,26,6,32,-1,31,5,13,-1,32,33,26,-1,5,31,32,-1,5,32,6,-1,33,28,27,-1,33,27,26,-1,32,29,28,-1,32,28,33,-1,31,30,29,-1,31,29,32,-1,15,10,25,-1,10,15,11,-1,
		]
	}
}