%TF.GenerationSoftware,KiCad,Pcbnew,8.0.4*%
%TF.CreationDate,2024-12-22T16:52:19+00:00*%
%TF.ProjectId,main_board,6d61696e-5f62-46f6-9172-642e6b696361,rev?*%
%TF.SameCoordinates,Original*%
%TF.FileFunction,Copper,L1,Top*%
%TF.FilePolarity,Positive*%
%FSLAX46Y46*%
G04 Gerber Fmt 4.6, Leading zero omitted, Abs format (unit mm)*
G04 Created by KiCad (PCBNEW 8.0.4) date 2024-12-22 16:52:19*
%MOMM*%
%LPD*%
G01*
G04 APERTURE LIST*
G04 Aperture macros list*
%AMRoundRect*
0 Rectangle with rounded corners*
0 $1 Rounding radius*
0 $2 $3 $4 $5 $6 $7 $8 $9 X,Y pos of 4 corners*
0 Add a 4 corners polygon primitive as box body*
4,1,4,$2,$3,$4,$5,$6,$7,$8,$9,$2,$3,0*
0 Add four circle primitives for the rounded corners*
1,1,$1+$1,$2,$3*
1,1,$1+$1,$4,$5*
1,1,$1+$1,$6,$7*
1,1,$1+$1,$8,$9*
0 Add four rect primitives between the rounded corners*
20,1,$1+$1,$2,$3,$4,$5,0*
20,1,$1+$1,$4,$5,$6,$7,0*
20,1,$1+$1,$6,$7,$8,$9,0*
20,1,$1+$1,$8,$9,$2,$3,0*%
G04 Aperture macros list end*
%TA.AperFunction,SMDPad,CuDef*%
%ADD10RoundRect,0.243750X-0.243750X-0.456250X0.243750X-0.456250X0.243750X0.456250X-0.243750X0.456250X0*%
%TD*%
%TA.AperFunction,SMDPad,CuDef*%
%ADD11RoundRect,0.243750X-0.456250X0.243750X-0.456250X-0.243750X0.456250X-0.243750X0.456250X0.243750X0*%
%TD*%
%TA.AperFunction,SMDPad,CuDef*%
%ADD12RoundRect,0.243750X0.456250X-0.243750X0.456250X0.243750X-0.456250X0.243750X-0.456250X-0.243750X0*%
%TD*%
%TA.AperFunction,SMDPad,CuDef*%
%ADD13RoundRect,0.243750X0.243750X0.456250X-0.243750X0.456250X-0.243750X-0.456250X0.243750X-0.456250X0*%
%TD*%
%TA.AperFunction,SMDPad,CuDef*%
%ADD14R,1.489992X0.700000*%
%TD*%
%TA.AperFunction,SMDPad,CuDef*%
%ADD15R,0.800000X1.000000*%
%TD*%
%TA.AperFunction,SMDPad,CuDef*%
%ADD16RoundRect,0.218750X-0.218750X-0.256250X0.218750X-0.256250X0.218750X0.256250X-0.218750X0.256250X0*%
%TD*%
%TA.AperFunction,SMDPad,CuDef*%
%ADD17RoundRect,0.218750X0.256250X-0.218750X0.256250X0.218750X-0.256250X0.218750X-0.256250X-0.218750X0*%
%TD*%
%TA.AperFunction,ComponentPad*%
%ADD18O,3.100000X2.300000*%
%TD*%
%TA.AperFunction,ComponentPad*%
%ADD19RoundRect,0.650000X-0.650000X-0.650000X0.650000X-0.650000X0.650000X0.650000X-0.650000X0.650000X0*%
%TD*%
%TA.AperFunction,SMDPad,CuDef*%
%ADD20RoundRect,0.150000X-0.512500X-0.150000X0.512500X-0.150000X0.512500X0.150000X-0.512500X0.150000X0*%
%TD*%
%TA.AperFunction,ComponentPad*%
%ADD21R,1.700000X1.700000*%
%TD*%
%TA.AperFunction,ComponentPad*%
%ADD22O,1.700000X1.700000*%
%TD*%
%TA.AperFunction,ComponentPad*%
%ADD23C,4.000000*%
%TD*%
%TA.AperFunction,ComponentPad*%
%ADD24C,2.000000*%
%TD*%
%TA.AperFunction,SMDPad,CuDef*%
%ADD25RoundRect,0.100000X-0.637500X-0.100000X0.637500X-0.100000X0.637500X0.100000X-0.637500X0.100000X0*%
%TD*%
%TA.AperFunction,HeatsinkPad*%
%ADD26C,0.600000*%
%TD*%
%TA.AperFunction,HeatsinkPad*%
%ADD27R,2.850000X5.400000*%
%TD*%
%TA.AperFunction,ViaPad*%
%ADD28C,0.600000*%
%TD*%
%TA.AperFunction,Conductor*%
%ADD29C,0.200000*%
%TD*%
%TA.AperFunction,Conductor*%
%ADD30C,0.250000*%
%TD*%
%TA.AperFunction,Conductor*%
%ADD31C,0.500000*%
%TD*%
G04 APERTURE END LIST*
D10*
%TO.P,R4,1*%
%TO.N,+12V*%
X172562500Y-136000000D03*
%TO.P,R4,2*%
%TO.N,Net-(U2-AVCC)*%
X174437500Y-136000000D03*
%TD*%
%TO.P,C12,1*%
%TO.N,GND*%
X175812500Y-140250000D03*
%TO.P,C12,2*%
%TO.N,Net-(U2-AVCC)*%
X177687500Y-140250000D03*
%TD*%
%TO.P,C13,1*%
%TO.N,Net-(U2-RINP)*%
X190262500Y-151290000D03*
%TO.P,C13,2*%
%TO.N,Net-(C13-Pad2)*%
X192137500Y-151290000D03*
%TD*%
D11*
%TO.P,C7,1*%
%TO.N,+12V*%
X185750000Y-149062500D03*
%TO.P,C7,2*%
%TO.N,GND*%
X185750000Y-150937500D03*
%TD*%
D10*
%TO.P,C14,1*%
%TO.N,GND*%
X194962500Y-134900000D03*
%TO.P,C14,2*%
%TO.N,Net-(C14-Pad2)*%
X196837500Y-134900000D03*
%TD*%
D12*
%TO.P,C2,1*%
%TO.N,+12V*%
X187750000Y-137437500D03*
%TO.P,C2,2*%
%TO.N,GND*%
X187750000Y-135562500D03*
%TD*%
D13*
%TO.P,C15,1*%
%TO.N,Net-(C15-Pad1)*%
X200537500Y-136300000D03*
%TO.P,C15,2*%
%TO.N,GND*%
X198662500Y-136300000D03*
%TD*%
D14*
%TO.P,SW1,1,A*%
%TO.N,Net-(SW1-A)*%
X162967496Y-140890051D03*
%TO.P,SW1,2,B*%
%TO.N,Net-(SW1-B)*%
X162967496Y-141890051D03*
%TO.P,SW1,3*%
%TO.N,N/C*%
X162967496Y-142890051D03*
D15*
%TO.P,SW1,4*%
X162212606Y-139089949D03*
X160012454Y-139089949D03*
X162212606Y-144689898D03*
X160012454Y-144689898D03*
%TD*%
D16*
%TO.P,FB3,1*%
%TO.N,Net-(FB3-Pad1)*%
X160612500Y-147100000D03*
%TO.P,FB3,2*%
%TO.N,Net-(FB3-Pad2)*%
X162187500Y-147100000D03*
%TD*%
D10*
%TO.P,C9,1*%
%TO.N,GND*%
X175812500Y-145500000D03*
%TO.P,C9,2*%
%TO.N,Net-(U2-RINN)*%
X177687500Y-145500000D03*
%TD*%
D16*
%TO.P,R2,1*%
%TO.N,+12V*%
X176212500Y-149000000D03*
%TO.P,R2,2*%
%TO.N,Net-(U2-PBTL)*%
X177787500Y-149000000D03*
%TD*%
D10*
%TO.P,C11,1*%
%TO.N,GND*%
X175812500Y-142500000D03*
%TO.P,C11,2*%
%TO.N,Net-(U2-GVDD)*%
X177687500Y-142500000D03*
%TD*%
D16*
%TO.P,R1,1*%
%TO.N,+12V*%
X176250000Y-138250000D03*
%TO.P,R1,2*%
%TO.N,Net-(U2-~{FAULT})*%
X177825000Y-138250000D03*
%TD*%
D13*
%TO.P,C4,1*%
%TO.N,Net-(U2-OUTNL)*%
X189437500Y-139500000D03*
%TO.P,C4,2*%
%TO.N,Net-(U2-BSNL)*%
X187562500Y-139500000D03*
%TD*%
D12*
%TO.P,C3,1*%
%TO.N,+12V*%
X190250000Y-137437500D03*
%TO.P,C3,2*%
%TO.N,GND*%
X190250000Y-135562500D03*
%TD*%
D17*
%TO.P,R6,1*%
%TO.N,Net-(SW1-B)*%
X165200000Y-151387500D03*
%TO.P,R6,2*%
%TO.N,GND*%
X165200000Y-149812500D03*
%TD*%
D12*
%TO.P,C5,1*%
%TO.N,Net-(U2-OUTNR)*%
X188600000Y-143637500D03*
%TO.P,C5,2*%
%TO.N,Net-(U2-BSNR)*%
X188600000Y-141762500D03*
%TD*%
D18*
%TO.P,J1,S*%
%TO.N,GND*%
X168500000Y-149730000D03*
D19*
%TO.P,J1,T*%
%TO.N,Net-(FB3-Pad2)*%
X168500000Y-138330000D03*
%TO.P,J1,TN*%
%TO.N,GND*%
X168500000Y-146630000D03*
%TD*%
D20*
%TO.P,Q1,1,G*%
%TO.N,GND*%
X187612500Y-145550000D03*
%TO.P,Q1,2,S*%
%TO.N,+12V*%
X187612500Y-147450000D03*
%TO.P,Q1,3,D*%
%TO.N,Net-(J2-Pin_2)*%
X189887500Y-146500000D03*
%TD*%
D21*
%TO.P,J2,1,Pin_1*%
%TO.N,GND*%
X205750000Y-151500000D03*
D22*
%TO.P,J2,2,Pin_2*%
%TO.N,Net-(J2-Pin_2)*%
X205750000Y-148960000D03*
%TD*%
D23*
%TO.P,RV1,*%
%TO.N,*%
X192600000Y-143750000D03*
X201400000Y-143750000D03*
D24*
%TO.P,RV1,1,1*%
%TO.N,Net-(R3-Pad2)*%
X199500000Y-150750000D03*
%TO.P,RV1,2,2*%
%TO.N,Net-(C13-Pad2)*%
X197000000Y-150750000D03*
%TO.P,RV1,3,3*%
%TO.N,GND*%
X194500000Y-150750000D03*
%TD*%
D25*
%TO.P,U2,1,~{SD}*%
%TO.N,Net-(U2-~{FAULT})*%
X179762500Y-138875000D03*
%TO.P,U2,2,~{FAULT}*%
X179762500Y-139525000D03*
%TO.P,U2,3,LINP*%
%TO.N,GND*%
X179762500Y-140175000D03*
%TO.P,U2,4,LINN*%
X179762500Y-140825000D03*
%TO.P,U2,5,GAIN0*%
X179762500Y-141475000D03*
%TO.P,U2,6,GAIN1*%
X179762500Y-142125000D03*
%TO.P,U2,7,AVCC*%
%TO.N,Net-(U2-AVCC)*%
X179762500Y-142775000D03*
%TO.P,U2,8,AGND*%
%TO.N,GND*%
X179762500Y-143425000D03*
%TO.P,U2,9,GVDD*%
%TO.N,Net-(U2-GVDD)*%
X179762500Y-144075000D03*
%TO.P,U2,10,PLIMIT*%
%TO.N,Net-(SW1-B)*%
X179762500Y-144725000D03*
%TO.P,U2,11,RINN*%
%TO.N,Net-(U2-RINN)*%
X179762500Y-145375000D03*
%TO.P,U2,12,RINP*%
%TO.N,Net-(U2-RINP)*%
X179762500Y-146025000D03*
%TO.P,U2,13,NC*%
%TO.N,unconnected-(U2-NC-Pad13)*%
X179762500Y-146675000D03*
%TO.P,U2,14,PBTL*%
%TO.N,Net-(U2-PBTL)*%
X179762500Y-147325000D03*
%TO.P,U2,15,PVCCR*%
%TO.N,+12V*%
X185487500Y-147325000D03*
%TO.P,U2,16,PVCCR*%
X185487500Y-146675000D03*
%TO.P,U2,17,BSPR*%
%TO.N,Net-(U2-BSNR)*%
X185487500Y-146025000D03*
%TO.P,U2,18,OUTPR*%
%TO.N,Net-(U2-OUTNR)*%
X185487500Y-145375000D03*
%TO.P,U2,19,PGND*%
%TO.N,GND*%
X185487500Y-144725000D03*
%TO.P,U2,20,OUTNR*%
%TO.N,Net-(U2-OUTNR)*%
X185487500Y-144075000D03*
%TO.P,U2,21,BSNR*%
%TO.N,Net-(U2-BSNR)*%
X185487500Y-143425000D03*
%TO.P,U2,22,BSNL*%
%TO.N,Net-(U2-BSNL)*%
X185487500Y-142775000D03*
%TO.P,U2,23,OUTNL*%
%TO.N,Net-(U2-OUTNL)*%
X185487500Y-142125000D03*
%TO.P,U2,24,PGND*%
%TO.N,GND*%
X185487500Y-141475000D03*
%TO.P,U2,25,OUTPL*%
%TO.N,Net-(U2-OUTNL)*%
X185487500Y-140825000D03*
%TO.P,U2,26,BSPL*%
%TO.N,Net-(U2-BSNL)*%
X185487500Y-140175000D03*
%TO.P,U2,27,PVCCL*%
%TO.N,+12V*%
X185487500Y-139525000D03*
%TO.P,U2,28,PVCCL*%
X185487500Y-138875000D03*
D26*
%TO.P,U2,29,PAD*%
%TO.N,GND*%
X181500000Y-140700000D03*
X181500000Y-142300000D03*
X181500000Y-143900000D03*
X181500000Y-145500000D03*
D27*
X182625000Y-143100000D03*
D26*
X183750000Y-140700000D03*
X183750000Y-142300000D03*
X183750000Y-143900000D03*
X183750000Y-145500000D03*
%TD*%
D17*
%TO.P,R5,1*%
%TO.N,Net-(SW1-B)*%
X171400000Y-151487500D03*
%TO.P,R5,2*%
%TO.N,Net-(U2-GVDD)*%
X171400000Y-149912500D03*
%TD*%
D21*
%TO.P,LS1,1,1*%
%TO.N,Net-(C14-Pad2)*%
X206000000Y-135000000D03*
D22*
%TO.P,LS1,2,2*%
%TO.N,Net-(C15-Pad1)*%
X206000000Y-137540000D03*
%TD*%
D16*
%TO.P,R3,1*%
%TO.N,Net-(FB3-Pad1)*%
X160612500Y-150200000D03*
%TO.P,R3,2*%
%TO.N,Net-(R3-Pad2)*%
X162187500Y-150200000D03*
%TD*%
D11*
%TO.P,C8,1*%
%TO.N,+12V*%
X188250000Y-149062500D03*
%TO.P,C8,2*%
%TO.N,GND*%
X188250000Y-150937500D03*
%TD*%
D12*
%TO.P,C10,1*%
%TO.N,GND*%
X173600000Y-151337500D03*
%TO.P,C10,2*%
%TO.N,Net-(SW1-B)*%
X173600000Y-149462500D03*
%TD*%
D16*
%TO.P,R8,1*%
%TO.N,Net-(SW1-A)*%
X160512500Y-137500000D03*
%TO.P,R8,2*%
%TO.N,GND*%
X162087500Y-137500000D03*
%TD*%
D28*
%TO.N,GND*%
X181300000Y-138900000D03*
X184273536Y-147053997D03*
X178693778Y-143294989D03*
X178674999Y-140200000D03*
X185000000Y-135500000D03*
X182000000Y-148500000D03*
X182500000Y-149500000D03*
X176400000Y-143700000D03*
X187000000Y-144700000D03*
X181400000Y-147000000D03*
X182700000Y-147000000D03*
X182500000Y-143000000D03*
X182934315Y-150934315D03*
X184603740Y-151801869D03*
X177500000Y-134500000D03*
X179809620Y-150690380D03*
X183500000Y-135500000D03*
X179059620Y-149940380D03*
X178559620Y-136440380D03*
X182000000Y-140000000D03*
X195384864Y-136300000D03*
X191750000Y-134750000D03*
X175300000Y-151700000D03*
X181000000Y-148500000D03*
X179500000Y-135500000D03*
X180500000Y-136500000D03*
X197700000Y-137200000D03*
X182500000Y-136500000D03*
X180800000Y-141900000D03*
X181000000Y-149500000D03*
X182500000Y-144750000D03*
X180500000Y-134500000D03*
X186750000Y-141500000D03*
X182000000Y-150500000D03*
X176600000Y-140500000D03*
X173000000Y-139700000D03*
X183800000Y-138900000D03*
X183500000Y-147500000D03*
X182500000Y-134500000D03*
X175000000Y-146500000D03*
X186500000Y-134900000D03*
X178500000Y-134500000D03*
X184500000Y-134500000D03*
X182600000Y-138900000D03*
X181500000Y-135500000D03*
X180000000Y-148500000D03*
X163400000Y-137000000D03*
X184000000Y-136500000D03*
X182500000Y-141500000D03*
X178000000Y-135500000D03*
X182000000Y-147500000D03*
%TO.N,+12V*%
X173711085Y-137145843D03*
X177640380Y-150559620D03*
X189900000Y-147500000D03*
X189900000Y-144700000D03*
%TO.N,Net-(U2-OUTNL)*%
X186750000Y-140649997D03*
%TO.N,Net-(U2-OUTNR)*%
X186800000Y-146300000D03*
%TO.N,Net-(U2-RINP)*%
X177750000Y-147500000D03*
X191100000Y-151800000D03*
%TO.N,Net-(U2-AVCC)*%
X175400000Y-136100000D03*
X173912500Y-137950000D03*
%TO.N,Net-(C14-Pad2)*%
X196900000Y-136700000D03*
%TO.N,Net-(C15-Pad1)*%
X200500000Y-137500000D03*
%TD*%
D29*
%TO.N,GND*%
X188250000Y-150937500D02*
X185750000Y-150937500D01*
X165200000Y-149812500D02*
X168417500Y-149812500D01*
D30*
X198662500Y-136300000D02*
X197762500Y-137200000D01*
D29*
X162900000Y-137500000D02*
X163400000Y-137000000D01*
D30*
X179762500Y-142125000D02*
X180575000Y-142125000D01*
X179762500Y-141475000D02*
X180375000Y-141475000D01*
X185487500Y-144725000D02*
X186475000Y-144725000D01*
X180375000Y-141475000D02*
X180800000Y-141900000D01*
D29*
X173600000Y-151337500D02*
X174937500Y-151337500D01*
X162087500Y-137500000D02*
X162900000Y-137500000D01*
D30*
X180575000Y-142125000D02*
X180800000Y-141900000D01*
X187162500Y-135562500D02*
X187750000Y-135562500D01*
X178823789Y-143425000D02*
X178693778Y-143294989D01*
X175000000Y-146312500D02*
X175000000Y-146500000D01*
X175812500Y-140250000D02*
X176350000Y-140250000D01*
X194962500Y-135877636D02*
X195384864Y-136300000D01*
D29*
X174937500Y-151337500D02*
X175300000Y-151700000D01*
D30*
X187612500Y-145550000D02*
X187612500Y-145312500D01*
X176350000Y-140250000D02*
X176600000Y-140500000D01*
X179762500Y-143425000D02*
X178823789Y-143425000D01*
X186475000Y-144725000D02*
X186975000Y-144725000D01*
X175812500Y-142500000D02*
X175812500Y-143112500D01*
X190937500Y-135562500D02*
X191750000Y-134750000D01*
D29*
X168417500Y-149812500D02*
X168500000Y-149730000D01*
D30*
X186975000Y-144725000D02*
X187000000Y-144700000D01*
D29*
X186725000Y-141475000D02*
X186750000Y-141500000D01*
D30*
X197762500Y-137200000D02*
X197700000Y-137200000D01*
D29*
X179299999Y-140825000D02*
X178674999Y-140200000D01*
D30*
X190250000Y-135562500D02*
X190937500Y-135562500D01*
X186500000Y-134900000D02*
X187162500Y-135562500D01*
X175812500Y-145500000D02*
X175000000Y-146312500D01*
X184885631Y-151801869D02*
X184603740Y-151801869D01*
X187612500Y-145312500D02*
X187000000Y-144700000D01*
D29*
X179762500Y-140175000D02*
X179762500Y-140825000D01*
X185487500Y-141475000D02*
X186725000Y-141475000D01*
X179762500Y-140825000D02*
X179299999Y-140825000D01*
D30*
X175812500Y-143112500D02*
X176400000Y-143700000D01*
X194962500Y-134900000D02*
X194962500Y-135877636D01*
X185750000Y-150937500D02*
X184885631Y-151801869D01*
%TO.N,+12V*%
X190250000Y-137437500D02*
X187750000Y-137437500D01*
D31*
X176200000Y-137150000D02*
X173712500Y-137150000D01*
X177227233Y-137150000D02*
X176200000Y-137150000D01*
D30*
X185487500Y-147325000D02*
X185487500Y-146675000D01*
D31*
X178697121Y-151959620D02*
X183040381Y-151959620D01*
X184175000Y-137437500D02*
X187750000Y-137437500D01*
X173712500Y-137150000D02*
X173381250Y-136818750D01*
X188250000Y-149062500D02*
X185750000Y-149062500D01*
X190250000Y-137437500D02*
X190736297Y-137923797D01*
X184500000Y-137437500D02*
X184369291Y-137306791D01*
X184175000Y-137437500D02*
X184500000Y-137437500D01*
X185487500Y-137500000D02*
X185425000Y-137437500D01*
D29*
X173708343Y-137145843D02*
X173711085Y-137145843D01*
D31*
X176212500Y-149000000D02*
X176212500Y-149474999D01*
X183040381Y-151959620D02*
X185750000Y-149250001D01*
D30*
X185750000Y-149062500D02*
X185750000Y-147587500D01*
X185487500Y-139525000D02*
X185487500Y-138875000D01*
D31*
X176212500Y-149474999D02*
X178697121Y-151959620D01*
X188250000Y-149062500D02*
X188337500Y-149062500D01*
X190736297Y-137923797D02*
X190736297Y-139889067D01*
D30*
X176250000Y-137200000D02*
X176200000Y-137150000D01*
X185750000Y-149250001D02*
X185750000Y-149062500D01*
D31*
X188337500Y-149062500D02*
X189900000Y-147500000D01*
X173381250Y-136818750D02*
X172562500Y-136000000D01*
X190736297Y-139889067D02*
X189900000Y-140725364D01*
D30*
X176250000Y-138250000D02*
X176250000Y-137200000D01*
D31*
X185425000Y-137437500D02*
X184175000Y-137437500D01*
X184369291Y-137306791D02*
X177384024Y-137306791D01*
X185487500Y-138875000D02*
X185487500Y-137500000D01*
X188250000Y-149062500D02*
X188250000Y-148087500D01*
X189900000Y-140725364D02*
X189900000Y-144700000D01*
D30*
X187437500Y-137750000D02*
X187750000Y-137437500D01*
X185750000Y-147587500D02*
X185487500Y-147325000D01*
D31*
X177384024Y-137306791D02*
X177227233Y-137150000D01*
X188250000Y-148087500D02*
X187612500Y-147450000D01*
D29*
X173381250Y-136818750D02*
X173708343Y-137145843D01*
D30*
%TO.N,Net-(U2-BSNL)*%
X186224999Y-140175000D02*
X186899999Y-139500000D01*
X184425000Y-142449999D02*
X184750001Y-142775000D01*
X185487500Y-140175000D02*
X184796188Y-140175000D01*
X186899999Y-139500000D02*
X187562500Y-139500000D01*
X184796188Y-140175000D02*
X184425000Y-140546188D01*
X184750001Y-142775000D02*
X185487500Y-142775000D01*
X185487500Y-140175000D02*
X186224999Y-140175000D01*
X184425000Y-140546188D02*
X184425000Y-142449999D01*
%TO.N,Net-(U2-OUTNL)*%
X188112500Y-140825000D02*
X189437500Y-139500000D01*
D29*
X187400000Y-141299997D02*
X186750000Y-140649997D01*
X187400000Y-141769239D02*
X187400000Y-141299997D01*
X185487500Y-142125000D02*
X187044239Y-142125000D01*
X187044239Y-142125000D02*
X187400000Y-141769239D01*
D30*
X185487500Y-140825000D02*
X188112500Y-140825000D01*
%TO.N,Net-(U2-BSNR)*%
X184425000Y-145675000D02*
X184775000Y-146025000D01*
X187237500Y-143425000D02*
X188600000Y-142062500D01*
X184775000Y-146025000D02*
X185487500Y-146025000D01*
X185487500Y-143425000D02*
X187237500Y-143425000D01*
X185487500Y-143425000D02*
X184796188Y-143425000D01*
X188600000Y-142062500D02*
X188600000Y-141762500D01*
X184425000Y-143796188D02*
X184425000Y-145675000D01*
X184796188Y-143425000D02*
X184425000Y-143796188D01*
%TO.N,Net-(U2-OUTNR)*%
X185487500Y-144075000D02*
X188162500Y-144075000D01*
X186600000Y-145875908D02*
X186924092Y-146200000D01*
X186924092Y-146200000D02*
X186900000Y-146200000D01*
X185487500Y-145375000D02*
X186224999Y-145375000D01*
X188300908Y-146200000D02*
X188600000Y-145900908D01*
X188600000Y-145900908D02*
X188600000Y-143637500D01*
X186924092Y-146200000D02*
X188300908Y-146200000D01*
X186224999Y-145375000D02*
X186600000Y-145750001D01*
X188162500Y-144075000D02*
X188600000Y-143637500D01*
X186600000Y-145750001D02*
X186600000Y-145875908D01*
X186900000Y-146200000D02*
X186800000Y-146300000D01*
%TO.N,Net-(U2-RINN)*%
X177687500Y-145500000D02*
X177812500Y-145375000D01*
X177812500Y-145375000D02*
X179762500Y-145375000D01*
%TO.N,Net-(U2-RINP)*%
X190590000Y-151290000D02*
X191100000Y-151800000D01*
X179762500Y-146025000D02*
X179025000Y-146025000D01*
D29*
X177750000Y-147500000D02*
X178525000Y-146725000D01*
X178525000Y-146725000D02*
X178525000Y-146525000D01*
D30*
X179025000Y-146025000D02*
X178525000Y-146525000D01*
X190262500Y-151290000D02*
X190590000Y-151290000D01*
%TO.N,Net-(U2-GVDD)*%
X177687500Y-142500000D02*
X176462500Y-141275000D01*
X178575000Y-144075000D02*
X179762500Y-144075000D01*
D29*
X171700000Y-149612500D02*
X171700000Y-144112500D01*
X171700000Y-144112500D02*
X174100000Y-141712500D01*
D30*
X174537500Y-141275000D02*
X174100000Y-141712500D01*
X177687500Y-142500000D02*
X177687500Y-143187500D01*
X177687500Y-143187500D02*
X178575000Y-144075000D01*
X176462500Y-141275000D02*
X174537500Y-141275000D01*
D29*
X171400000Y-149912500D02*
X171700000Y-149612500D01*
D30*
%TO.N,Net-(U2-AVCC)*%
X177687500Y-140250000D02*
X178500000Y-141062500D01*
X173912500Y-137737500D02*
X173912500Y-137950000D01*
X179071188Y-142775000D02*
X179762500Y-142775000D01*
X175400000Y-136100000D02*
X174537500Y-136100000D01*
X174537500Y-136100000D02*
X174437500Y-136000000D01*
X176487500Y-139050000D02*
X175012500Y-139050000D01*
X178500000Y-141062500D02*
X178500000Y-142203812D01*
X175012500Y-139050000D02*
X173912500Y-137950000D01*
X177687500Y-140250000D02*
X176487500Y-139050000D01*
X178500000Y-142203812D02*
X179071188Y-142775000D01*
D29*
%TO.N,Net-(FB3-Pad2)*%
X162187500Y-146812500D02*
X165500000Y-143500000D01*
X165500000Y-143500000D02*
X165500000Y-141500000D01*
X165500000Y-141500000D02*
X168500000Y-138500000D01*
X168500000Y-138500000D02*
X168500000Y-138330000D01*
X162187500Y-147100000D02*
X162187500Y-146812500D01*
D30*
%TO.N,Net-(C14-Pad2)*%
X196837500Y-136637500D02*
X196900000Y-136700000D01*
X205750000Y-135250000D02*
X206000000Y-135000000D01*
X196837500Y-134900000D02*
X196837500Y-136637500D01*
X196837500Y-134900000D02*
X197187500Y-135250000D01*
%TO.N,Net-(C15-Pad1)*%
X205790000Y-137750000D02*
X206000000Y-137540000D01*
X200537500Y-137462500D02*
X200500000Y-137500000D01*
X200537500Y-136300000D02*
X200537500Y-137462500D01*
D29*
%TO.N,Net-(FB3-Pad1)*%
X160612500Y-150200000D02*
X160612500Y-147100000D01*
%TO.N,Net-(SW1-B)*%
X162836106Y-145499975D02*
X164180000Y-144156081D01*
X178388232Y-144725000D02*
X178163232Y-144500000D01*
X173600000Y-145812500D02*
X174000000Y-145412500D01*
X163825915Y-141890051D02*
X162967496Y-141890051D01*
X179762500Y-144725000D02*
X178388232Y-144725000D01*
X165300000Y-151487500D02*
X165200000Y-151387500D01*
X174912500Y-144500000D02*
X174000000Y-145412500D01*
X178163232Y-144500000D02*
X174912500Y-144500000D01*
X164180000Y-144156081D02*
X164180000Y-142244136D01*
X161450000Y-147637500D02*
X161450000Y-146549975D01*
X171400000Y-151487500D02*
X171575000Y-151487500D01*
X161450000Y-146549975D02*
X162500000Y-145499975D01*
X162500000Y-145499975D02*
X162836106Y-145499975D01*
X164180000Y-142244136D02*
X163825915Y-141890051D01*
X171550000Y-151337500D02*
X171400000Y-151487500D01*
X171575000Y-151487500D02*
X173600000Y-149462500D01*
X171400000Y-151487500D02*
X165300000Y-151487500D01*
X165200000Y-151387500D02*
X161450000Y-147637500D01*
X173600000Y-149462500D02*
X173600000Y-145812500D01*
D30*
%TO.N,Net-(U2-PBTL)*%
X178087500Y-149000000D02*
X179762500Y-147325000D01*
X177787500Y-149000000D02*
X178087500Y-149000000D01*
D29*
%TO.N,Net-(R3-Pad2)*%
X197740380Y-152509620D02*
X164497120Y-152509620D01*
X164497120Y-152509620D02*
X162187500Y-150200000D01*
X199500000Y-150750000D02*
X197740380Y-152509620D01*
D31*
%TO.N,Net-(J2-Pin_2)*%
X201160000Y-148960000D02*
X205750000Y-148960000D01*
X189887500Y-146500000D02*
X198700000Y-146500000D01*
X198700000Y-146500000D02*
X201160000Y-148960000D01*
D29*
%TO.N,Net-(SW1-A)*%
X161287500Y-138275000D02*
X160512500Y-137500000D01*
X162967496Y-138431416D02*
X162811080Y-138275000D01*
X162967496Y-140890051D02*
X162967496Y-138431416D01*
X162811080Y-138275000D02*
X161287500Y-138275000D01*
D30*
%TO.N,Net-(C13-Pad2)*%
X192137500Y-151290000D02*
X192137500Y-150162500D01*
X195250000Y-149000000D02*
X197000000Y-150750000D01*
X193300000Y-149000000D02*
X195250000Y-149000000D01*
X192137500Y-150162500D02*
X193300000Y-149000000D01*
%TO.N,Net-(U2-~{FAULT})*%
X178600000Y-138250000D02*
X179137500Y-138250000D01*
X177825000Y-138250000D02*
X178600000Y-138250000D01*
X179762500Y-138875000D02*
X179762500Y-139525000D01*
X179137500Y-138250000D02*
X179762500Y-138875000D01*
%TD*%
%TA.AperFunction,Conductor*%
%TO.N,+12V*%
G36*
X186120457Y-146745184D02*
G01*
X186158412Y-146783528D01*
X186170180Y-146802258D01*
X186170184Y-146802262D01*
X186297738Y-146929816D01*
X186450478Y-147025789D01*
X186613838Y-147082951D01*
X186620745Y-147085368D01*
X186620750Y-147085369D01*
X186799996Y-147105565D01*
X186800000Y-147105565D01*
X186800004Y-147105565D01*
X186979249Y-147085369D01*
X186979252Y-147085368D01*
X186979255Y-147085368D01*
X187149522Y-147025789D01*
X187302262Y-146929816D01*
X187370259Y-146861819D01*
X187431582Y-146828334D01*
X187457940Y-146825500D01*
X188362515Y-146825500D01*
X188422937Y-146813481D01*
X188483360Y-146801463D01*
X188521036Y-146785857D01*
X188585966Y-146758962D01*
X188655433Y-146751494D01*
X188717912Y-146782770D01*
X188752491Y-146838928D01*
X188773254Y-146910395D01*
X188773255Y-146910396D01*
X188856917Y-147051862D01*
X188856923Y-147051870D01*
X188973129Y-147168076D01*
X188973133Y-147168079D01*
X188973135Y-147168081D01*
X189114602Y-147251744D01*
X189156224Y-147263836D01*
X189272426Y-147297597D01*
X189272429Y-147297597D01*
X189272431Y-147297598D01*
X189309306Y-147300500D01*
X189309314Y-147300500D01*
X190465686Y-147300500D01*
X190465694Y-147300500D01*
X190502569Y-147297598D01*
X190541404Y-147286315D01*
X190611273Y-147286514D01*
X190669944Y-147324455D01*
X190698788Y-147388093D01*
X190700000Y-147405391D01*
X190700000Y-149966913D01*
X190680315Y-150033952D01*
X190627511Y-150079707D01*
X190563399Y-150090271D01*
X190555860Y-150089500D01*
X190555848Y-150089500D01*
X189969152Y-150089500D01*
X189969144Y-150089500D01*
X189867223Y-150099913D01*
X189702077Y-150154637D01*
X189702066Y-150154642D01*
X189658463Y-150181538D01*
X189593366Y-150200000D01*
X189316391Y-150200000D01*
X189249352Y-150180315D01*
X189228710Y-150163681D01*
X189171003Y-150105974D01*
X189170999Y-150105971D01*
X189022933Y-150014642D01*
X189022927Y-150014639D01*
X189022925Y-150014638D01*
X189017318Y-150012780D01*
X188857776Y-149959913D01*
X188755855Y-149949500D01*
X188755848Y-149949500D01*
X187744152Y-149949500D01*
X187744144Y-149949500D01*
X187642223Y-149959913D01*
X187477077Y-150014637D01*
X187477066Y-150014642D01*
X187329000Y-150105971D01*
X187328996Y-150105974D01*
X187271290Y-150163681D01*
X187209967Y-150197166D01*
X187183609Y-150200000D01*
X186816391Y-150200000D01*
X186749352Y-150180315D01*
X186728710Y-150163681D01*
X186671003Y-150105974D01*
X186670999Y-150105971D01*
X186522933Y-150014642D01*
X186522927Y-150014639D01*
X186522925Y-150014638D01*
X186517318Y-150012780D01*
X186357776Y-149959913D01*
X186255855Y-149949500D01*
X186255848Y-149949500D01*
X185244152Y-149949500D01*
X185244144Y-149949500D01*
X185142223Y-149959913D01*
X184977077Y-150014637D01*
X184977072Y-150014639D01*
X184945762Y-150033952D01*
X184893121Y-150066422D01*
X184889097Y-150068904D01*
X184821705Y-150087344D01*
X184755041Y-150066422D01*
X184710271Y-150012780D01*
X184700000Y-149963365D01*
X184700000Y-147799972D01*
X184719685Y-147732933D01*
X184758029Y-147694978D01*
X184775798Y-147683813D01*
X184903352Y-147556259D01*
X184999325Y-147403519D01*
X185058904Y-147233252D01*
X185058905Y-147233246D01*
X185079101Y-147054000D01*
X185079101Y-147053993D01*
X185058125Y-146867821D01*
X185060021Y-146867607D01*
X185063716Y-146807348D01*
X185105017Y-146750992D01*
X185170229Y-146725911D01*
X185180332Y-146725499D01*
X186053418Y-146725499D01*
X186120457Y-146745184D01*
G37*
%TD.AperFunction*%
%TD*%
M02*
