%TF.GenerationSoftware,KiCad,Pcbnew,8.0.4*%
%TF.CreationDate,2024-12-22T16:52:19+00:00*%
%TF.ProjectId,main_board,6d61696e-5f62-46f6-9172-642e6b696361,rev?*%
%TF.SameCoordinates,Original*%
%TF.FileFunction,Copper,L4,Bot*%
%TF.FilePolarity,Positive*%
%FSLAX46Y46*%
G04 Gerber Fmt 4.6, Leading zero omitted, Abs format (unit mm)*
G04 Created by KiCad (PCBNEW 8.0.4) date 2024-12-22 16:52:19*
%MOMM*%
%LPD*%
G01*
G04 APERTURE LIST*
G04 Aperture macros list*
%AMRoundRect*
0 Rectangle with rounded corners*
0 $1 Rounding radius*
0 $2 $3 $4 $5 $6 $7 $8 $9 X,Y pos of 4 corners*
0 Add a 4 corners polygon primitive as box body*
4,1,4,$2,$3,$4,$5,$6,$7,$8,$9,$2,$3,0*
0 Add four circle primitives for the rounded corners*
1,1,$1+$1,$2,$3*
1,1,$1+$1,$4,$5*
1,1,$1+$1,$6,$7*
1,1,$1+$1,$8,$9*
0 Add four rect primitives between the rounded corners*
20,1,$1+$1,$2,$3,$4,$5,0*
20,1,$1+$1,$4,$5,$6,$7,0*
20,1,$1+$1,$6,$7,$8,$9,0*
20,1,$1+$1,$8,$9,$2,$3,0*%
G04 Aperture macros list end*
%TA.AperFunction,ComponentPad*%
%ADD10O,3.100000X2.300000*%
%TD*%
%TA.AperFunction,ComponentPad*%
%ADD11RoundRect,0.650000X-0.650000X-0.650000X0.650000X-0.650000X0.650000X0.650000X-0.650000X0.650000X0*%
%TD*%
%TA.AperFunction,ComponentPad*%
%ADD12R,1.700000X1.700000*%
%TD*%
%TA.AperFunction,ComponentPad*%
%ADD13O,1.700000X1.700000*%
%TD*%
%TA.AperFunction,ComponentPad*%
%ADD14C,4.000000*%
%TD*%
%TA.AperFunction,ComponentPad*%
%ADD15C,2.000000*%
%TD*%
%TA.AperFunction,HeatsinkPad*%
%ADD16C,0.600000*%
%TD*%
%TA.AperFunction,HeatsinkPad*%
%ADD17R,2.850000X5.400000*%
%TD*%
%TA.AperFunction,SMDPad,CuDef*%
%ADD18RoundRect,0.250000X0.550000X-1.500000X0.550000X1.500000X-0.550000X1.500000X-0.550000X-1.500000X0*%
%TD*%
%TA.AperFunction,SMDPad,CuDef*%
%ADD19R,1.600000X2.200000*%
%TD*%
%TA.AperFunction,SMDPad,CuDef*%
%ADD20RoundRect,0.250000X-0.550000X1.500000X-0.550000X-1.500000X0.550000X-1.500000X0.550000X1.500000X0*%
%TD*%
%TA.AperFunction,ViaPad*%
%ADD21C,0.600000*%
%TD*%
%TA.AperFunction,Conductor*%
%ADD22C,0.250000*%
%TD*%
%TA.AperFunction,Conductor*%
%ADD23C,0.500000*%
%TD*%
%TA.AperFunction,Conductor*%
%ADD24C,0.200000*%
%TD*%
G04 APERTURE END LIST*
D10*
%TO.P,J1,S*%
%TO.N,GND*%
X168500000Y-149730000D03*
D11*
%TO.P,J1,T*%
%TO.N,Net-(FB3-Pad2)*%
X168500000Y-138330000D03*
%TO.P,J1,TN*%
%TO.N,GND*%
X168500000Y-146630000D03*
%TD*%
D12*
%TO.P,J2,1,Pin_1*%
%TO.N,GND*%
X205750000Y-151500000D03*
D13*
%TO.P,J2,2,Pin_2*%
%TO.N,Net-(J2-Pin_2)*%
X205750000Y-148960000D03*
%TD*%
D14*
%TO.P,RV1,*%
%TO.N,*%
X192600000Y-143750000D03*
X201400000Y-143750000D03*
D15*
%TO.P,RV1,1,1*%
%TO.N,Net-(R3-Pad2)*%
X199500000Y-150750000D03*
%TO.P,RV1,2,2*%
%TO.N,Net-(C13-Pad2)*%
X197000000Y-150750000D03*
%TO.P,RV1,3,3*%
%TO.N,GND*%
X194500000Y-150750000D03*
%TD*%
D16*
%TO.P,U2,29,PAD*%
%TO.N,GND*%
X181500000Y-140700000D03*
X181500000Y-142300000D03*
X181500000Y-143900000D03*
X181500000Y-145500000D03*
D17*
X182625000Y-143100000D03*
D16*
X183750000Y-140700000D03*
X183750000Y-142300000D03*
X183750000Y-143900000D03*
X183750000Y-145500000D03*
%TD*%
D12*
%TO.P,LS1,1,1*%
%TO.N,Net-(C14-Pad2)*%
X206000000Y-135000000D03*
D13*
%TO.P,LS1,2,2*%
%TO.N,Net-(C15-Pad1)*%
X206000000Y-137540000D03*
%TD*%
D18*
%TO.P,C1,1*%
%TO.N,+12V*%
X174000000Y-150900000D03*
%TO.P,C1,2*%
%TO.N,GND*%
X174000000Y-145300000D03*
%TD*%
D19*
%TO.P,L2,1,1*%
%TO.N,Net-(U2-OUTNR)*%
X184200102Y-149100000D03*
%TO.P,L2,2,2*%
%TO.N,Net-(C15-Pad1)*%
X190599898Y-149100000D03*
%TD*%
%TO.P,L1,1,1*%
%TO.N,Net-(U2-OUTNL)*%
X185400102Y-137300000D03*
%TO.P,L1,2,2*%
%TO.N,Net-(C14-Pad2)*%
X191799898Y-137300000D03*
%TD*%
D20*
%TO.P,C6,1*%
%TO.N,+12V*%
X174000000Y-135500000D03*
%TO.P,C6,2*%
%TO.N,GND*%
X174000000Y-141100000D03*
%TD*%
D21*
%TO.N,GND*%
X181300000Y-138900000D03*
X184273536Y-147053997D03*
X178693778Y-143294989D03*
X178674999Y-140200000D03*
X185000000Y-135500000D03*
X182000000Y-148500000D03*
X182500000Y-149500000D03*
X176400000Y-143700000D03*
X187000000Y-144700000D03*
X181400000Y-147000000D03*
X182700000Y-147000000D03*
X182500000Y-143000000D03*
X182934315Y-150934315D03*
X184603740Y-151801869D03*
X177500000Y-134500000D03*
X179809620Y-150690380D03*
X183500000Y-135500000D03*
X179059620Y-149940380D03*
X178559620Y-136440380D03*
X182000000Y-140000000D03*
X195384864Y-136300000D03*
X191750000Y-134750000D03*
X175300000Y-151700000D03*
X181000000Y-148500000D03*
X179500000Y-135500000D03*
X180500000Y-136500000D03*
X197700000Y-137200000D03*
X182500000Y-136500000D03*
X180800000Y-141900000D03*
X181000000Y-149500000D03*
X182500000Y-144750000D03*
X180500000Y-134500000D03*
X186750000Y-141500000D03*
X182000000Y-150500000D03*
X176600000Y-140500000D03*
X173000000Y-139700000D03*
X183800000Y-138900000D03*
X183500000Y-147500000D03*
X182500000Y-134500000D03*
X175000000Y-146500000D03*
X186500000Y-134900000D03*
X178500000Y-134500000D03*
X184500000Y-134500000D03*
X182600000Y-138900000D03*
X181500000Y-135500000D03*
X180000000Y-148500000D03*
X163400000Y-137000000D03*
X184000000Y-136500000D03*
X182500000Y-141500000D03*
X178000000Y-135500000D03*
X182000000Y-147500000D03*
%TO.N,+12V*%
X173711085Y-137145843D03*
X177640380Y-150559620D03*
X189900000Y-147500000D03*
X189900000Y-144700000D03*
%TO.N,Net-(U2-OUTNL)*%
X186750000Y-140649997D03*
%TO.N,Net-(U2-OUTNR)*%
X186800000Y-146300000D03*
%TO.N,Net-(U2-RINP)*%
X177750000Y-147500000D03*
X191100000Y-151800000D03*
%TO.N,Net-(U2-AVCC)*%
X175400000Y-136100000D03*
X173912500Y-137950000D03*
%TO.N,Net-(C14-Pad2)*%
X196900000Y-136700000D03*
%TO.N,Net-(C15-Pad1)*%
X200500000Y-137500000D03*
%TD*%
D22*
%TO.N,GND*%
X174000000Y-140700000D02*
X173000000Y-139700000D01*
X174000000Y-141100000D02*
X174000000Y-140700000D01*
%TO.N,+12V*%
X177525000Y-150325000D02*
X177640380Y-150440380D01*
D23*
X174575000Y-150325000D02*
X177525000Y-150325000D01*
D24*
X173711085Y-137145843D02*
X174000000Y-136856928D01*
D23*
X189900000Y-147500000D02*
X189900000Y-144700000D01*
D24*
X174000000Y-136856928D02*
X174000000Y-135500000D01*
D22*
X177640380Y-150440380D02*
X177640380Y-150559620D01*
X174000000Y-150900000D02*
X174575000Y-150325000D01*
%TO.N,Net-(U2-OUTNL)*%
X185400000Y-137100000D02*
X185800000Y-137100000D01*
X186750000Y-138050000D02*
X186750000Y-140649997D01*
X185800000Y-137100000D02*
X186750000Y-138050000D01*
D23*
%TO.N,Net-(U2-OUTNR)*%
X186700000Y-146250000D02*
X186700000Y-147900000D01*
X186700000Y-147900000D02*
X185500000Y-149100000D01*
X185500000Y-149100000D02*
X184200102Y-149100000D01*
D24*
%TO.N,Net-(U2-RINP)*%
X190450000Y-152450000D02*
X191100000Y-151800000D01*
X177750000Y-149550000D02*
X180650000Y-152450000D01*
X177750000Y-147500000D02*
X177750000Y-149550000D01*
X180650000Y-152450000D02*
X190450000Y-152450000D01*
D22*
%TO.N,Net-(U2-AVCC)*%
X174420100Y-137950000D02*
X175400000Y-136970100D01*
X173912500Y-137950000D02*
X174420100Y-137950000D01*
X175400000Y-136970100D02*
X175400000Y-136100000D01*
D23*
%TO.N,Net-(C14-Pad2)*%
X206000000Y-135000000D02*
X198568629Y-135000000D01*
X196368629Y-137200000D02*
X191900000Y-137200000D01*
X191900000Y-137200000D02*
X191800000Y-137100000D01*
X198568629Y-135000000D02*
X196368629Y-137200000D01*
%TO.N,Net-(C15-Pad1)*%
X200460000Y-140854824D02*
X192014824Y-149300000D01*
X205790000Y-137750000D02*
X206000000Y-137540000D01*
X206000000Y-137540000D02*
X200460000Y-137540000D01*
X192014824Y-149300000D02*
X191600000Y-149300000D01*
X200460000Y-137540000D02*
X200460000Y-140854824D01*
%TD*%
%TA.AperFunction,Conductor*%
%TO.N,GND*%
G36*
X178368724Y-150740564D02*
G01*
X178393132Y-150759525D01*
X180329519Y-152695912D01*
X180329520Y-152695913D01*
X180404087Y-152770480D01*
X180486590Y-152818113D01*
X180534806Y-152868680D01*
X180548028Y-152937287D01*
X180522060Y-153002152D01*
X180465146Y-153042680D01*
X180424590Y-153049500D01*
X174973310Y-153049500D01*
X174906271Y-153029815D01*
X174860516Y-152977011D01*
X174850572Y-152907853D01*
X174879597Y-152844297D01*
X174898385Y-152826696D01*
X174942922Y-152792922D01*
X175034360Y-152672343D01*
X175034359Y-152672343D01*
X175034361Y-152672342D01*
X175089877Y-152531564D01*
X175100500Y-152443102D01*
X175100500Y-150999500D01*
X175120185Y-150932461D01*
X175172989Y-150886706D01*
X175224500Y-150875500D01*
X177064699Y-150875500D01*
X177131738Y-150895185D01*
X177163072Y-150924010D01*
X177212098Y-150987902D01*
X177337539Y-151084156D01*
X177483618Y-151144664D01*
X177561999Y-151154983D01*
X177640379Y-151165302D01*
X177640380Y-151165302D01*
X177640381Y-151165302D01*
X177692634Y-151158422D01*
X177797142Y-151144664D01*
X177943221Y-151084156D01*
X178068662Y-150987902D01*
X178164916Y-150862461D01*
X178190890Y-150799753D01*
X178234730Y-150745350D01*
X178301025Y-150723285D01*
X178368724Y-150740564D01*
G37*
%TD.AperFunction*%
%TA.AperFunction,Conductor*%
G36*
X192243039Y-133470185D02*
G01*
X192288794Y-133522989D01*
X192300000Y-133574500D01*
X192300000Y-135775500D01*
X192280315Y-135842539D01*
X192227511Y-135888294D01*
X192176000Y-135899500D01*
X190955041Y-135899500D01*
X190955015Y-135899502D01*
X190929910Y-135902413D01*
X190929906Y-135902415D01*
X190827133Y-135947793D01*
X190747692Y-136027234D01*
X190702313Y-136130006D01*
X190702313Y-136130008D01*
X190699398Y-136155131D01*
X190699398Y-138444856D01*
X190699400Y-138444882D01*
X190702311Y-138469987D01*
X190702313Y-138469991D01*
X190747691Y-138572764D01*
X190747692Y-138572765D01*
X190827133Y-138652206D01*
X190929907Y-138697585D01*
X190955033Y-138700500D01*
X192176000Y-138700499D01*
X192243039Y-138720184D01*
X192288794Y-138772987D01*
X192300000Y-138824499D01*
X192300000Y-141362339D01*
X192280315Y-141429378D01*
X192227511Y-141475133D01*
X192200192Y-141483956D01*
X192003313Y-141523119D01*
X192003301Y-141523122D01*
X191717752Y-141620053D01*
X191717731Y-141620062D01*
X191447286Y-141753431D01*
X191447279Y-141753435D01*
X191196540Y-141920973D01*
X190969810Y-142119810D01*
X190770973Y-142346540D01*
X190603435Y-142597279D01*
X190603431Y-142597286D01*
X190470062Y-142867731D01*
X190470053Y-142867752D01*
X190373122Y-143153301D01*
X190373118Y-143153316D01*
X190314288Y-143449069D01*
X190314287Y-143449081D01*
X190294564Y-143750000D01*
X190312746Y-144027409D01*
X190297487Y-144095593D01*
X190247789Y-144144703D01*
X190179429Y-144159148D01*
X190141559Y-144150080D01*
X190056762Y-144114956D01*
X190056760Y-144114955D01*
X189900001Y-144094318D01*
X189899999Y-144094318D01*
X189743239Y-144114955D01*
X189743237Y-144114956D01*
X189597160Y-144175463D01*
X189471718Y-144271718D01*
X189375463Y-144397160D01*
X189314956Y-144543237D01*
X189314955Y-144543239D01*
X189294318Y-144699998D01*
X189294318Y-144700001D01*
X189314955Y-144856760D01*
X189314956Y-144856762D01*
X189340061Y-144917370D01*
X189349500Y-144964823D01*
X189349500Y-147235176D01*
X189340061Y-147282628D01*
X189314957Y-147343234D01*
X189314955Y-147343239D01*
X189294318Y-147499998D01*
X189294318Y-147500001D01*
X189314955Y-147656760D01*
X189314956Y-147656762D01*
X189332659Y-147699502D01*
X189375464Y-147802841D01*
X189471718Y-147928282D01*
X189471720Y-147928284D01*
X189473774Y-147930960D01*
X189498968Y-147996130D01*
X189499398Y-148006447D01*
X189499398Y-150244856D01*
X189499400Y-150244882D01*
X189502311Y-150269987D01*
X189502313Y-150269991D01*
X189547691Y-150372764D01*
X189547692Y-150372765D01*
X189627133Y-150452206D01*
X189729907Y-150497585D01*
X189755033Y-150500500D01*
X191444762Y-150500499D01*
X191444777Y-150500497D01*
X191444780Y-150500497D01*
X191469885Y-150497586D01*
X191469886Y-150497585D01*
X191469889Y-150497585D01*
X191572663Y-150452206D01*
X191652104Y-150372765D01*
X191697483Y-150269991D01*
X191700398Y-150244865D01*
X191700398Y-149974500D01*
X191720083Y-149907461D01*
X191772887Y-149861706D01*
X191824398Y-149850500D01*
X192087296Y-149850500D01*
X192087298Y-149850500D01*
X192087299Y-149850500D01*
X192143909Y-149835331D01*
X192213755Y-149836994D01*
X192271618Y-149876156D01*
X192299123Y-149940384D01*
X192300000Y-149955106D01*
X192300000Y-152925500D01*
X192280315Y-152992539D01*
X192227511Y-153038294D01*
X192176000Y-153049500D01*
X190675412Y-153049500D01*
X190608373Y-153029815D01*
X190562618Y-152977011D01*
X190552674Y-152907853D01*
X190581699Y-152844297D01*
X190613411Y-152818113D01*
X190614009Y-152817767D01*
X190695913Y-152770480D01*
X191024992Y-152441399D01*
X191086312Y-152407917D01*
X191096485Y-152406144D01*
X191099997Y-152405681D01*
X191100000Y-152405682D01*
X191256762Y-152385044D01*
X191402841Y-152324536D01*
X191528282Y-152228282D01*
X191624536Y-152102841D01*
X191685044Y-151956762D01*
X191705682Y-151800000D01*
X191685044Y-151643238D01*
X191624536Y-151497159D01*
X191528282Y-151371718D01*
X191402841Y-151275464D01*
X191256762Y-151214956D01*
X191256760Y-151214955D01*
X191100001Y-151194318D01*
X191099999Y-151194318D01*
X190943239Y-151214955D01*
X190943237Y-151214956D01*
X190797160Y-151275463D01*
X190671718Y-151371718D01*
X190575463Y-151497160D01*
X190514956Y-151643237D01*
X190514956Y-151643238D01*
X190493855Y-151803513D01*
X190465588Y-151867409D01*
X190458598Y-151875008D01*
X190320424Y-152013182D01*
X190259104Y-152046666D01*
X190232745Y-152049500D01*
X180867255Y-152049500D01*
X180800216Y-152029815D01*
X180779574Y-152013181D01*
X178186819Y-149420426D01*
X178153334Y-149359103D01*
X178150500Y-149332745D01*
X178150500Y-148006580D01*
X178165607Y-147955131D01*
X183099602Y-147955131D01*
X183099602Y-150244856D01*
X183099604Y-150244882D01*
X183102515Y-150269987D01*
X183102517Y-150269991D01*
X183147895Y-150372764D01*
X183147896Y-150372765D01*
X183227337Y-150452206D01*
X183330111Y-150497585D01*
X183355237Y-150500500D01*
X185044966Y-150500499D01*
X185044981Y-150500497D01*
X185044984Y-150500497D01*
X185070089Y-150497586D01*
X185070090Y-150497585D01*
X185070093Y-150497585D01*
X185172867Y-150452206D01*
X185252308Y-150372765D01*
X185297687Y-150269991D01*
X185300602Y-150244865D01*
X185300602Y-149774500D01*
X185320287Y-149707461D01*
X185373091Y-149661706D01*
X185424602Y-149650500D01*
X185572472Y-149650500D01*
X185572474Y-149650500D01*
X185572475Y-149650500D01*
X185712485Y-149612984D01*
X185722164Y-149607395D01*
X185730252Y-149602727D01*
X185800413Y-149562218D01*
X185838015Y-149540510D01*
X187140510Y-148238015D01*
X187212984Y-148112485D01*
X187220337Y-148085044D01*
X187250500Y-147972475D01*
X187250500Y-146741419D01*
X187270185Y-146674380D01*
X187276124Y-146665933D01*
X187292092Y-146645121D01*
X187324536Y-146602841D01*
X187385044Y-146456762D01*
X187405682Y-146300000D01*
X187385044Y-146143238D01*
X187324536Y-145997159D01*
X187228282Y-145871718D01*
X187102841Y-145775464D01*
X187033070Y-145746564D01*
X186956762Y-145714956D01*
X186956760Y-145714955D01*
X186800001Y-145694318D01*
X186800000Y-145694318D01*
X186768697Y-145698439D01*
X186752513Y-145699500D01*
X186627525Y-145699500D01*
X186498993Y-145733940D01*
X186487511Y-145737017D01*
X186361988Y-145809488D01*
X186361982Y-145809493D01*
X186259493Y-145911982D01*
X186259488Y-145911988D01*
X186187017Y-146037511D01*
X186187016Y-146037515D01*
X186149500Y-146177525D01*
X186149500Y-146177527D01*
X186149500Y-147620612D01*
X186129815Y-147687651D01*
X186113181Y-147708293D01*
X185512282Y-148309192D01*
X185450959Y-148342677D01*
X185381267Y-148337693D01*
X185325334Y-148295821D01*
X185300917Y-148230357D01*
X185300601Y-148221511D01*
X185300601Y-147955143D01*
X185300601Y-147955136D01*
X185299959Y-147949599D01*
X185297688Y-147930012D01*
X185297687Y-147930010D01*
X185297687Y-147930009D01*
X185252308Y-147827235D01*
X185172867Y-147747794D01*
X185172865Y-147747793D01*
X185070094Y-147702415D01*
X185044967Y-147699500D01*
X183355245Y-147699500D01*
X183355219Y-147699502D01*
X183330114Y-147702413D01*
X183330110Y-147702415D01*
X183227337Y-147747793D01*
X183147896Y-147827234D01*
X183102517Y-147930006D01*
X183102517Y-147930008D01*
X183099602Y-147955131D01*
X178165607Y-147955131D01*
X178170185Y-147939541D01*
X178176124Y-147931093D01*
X178178279Y-147928283D01*
X178178282Y-147928282D01*
X178274536Y-147802841D01*
X178335044Y-147656762D01*
X178355682Y-147500000D01*
X178353622Y-147484356D01*
X178335044Y-147343239D01*
X178335044Y-147343238D01*
X178274536Y-147197159D01*
X178178282Y-147071718D01*
X178052841Y-146975464D01*
X177906762Y-146914956D01*
X177906760Y-146914955D01*
X177750001Y-146894318D01*
X177749999Y-146894318D01*
X177593239Y-146914955D01*
X177593237Y-146914956D01*
X177447160Y-146975463D01*
X177321718Y-147071718D01*
X177225463Y-147197160D01*
X177164956Y-147343237D01*
X177164955Y-147343239D01*
X177144318Y-147499998D01*
X177144318Y-147500001D01*
X177164955Y-147656760D01*
X177164956Y-147656762D01*
X177182659Y-147699502D01*
X177225464Y-147802841D01*
X177321718Y-147928282D01*
X177321720Y-147928283D01*
X177323876Y-147931093D01*
X177349070Y-147996263D01*
X177349500Y-148006580D01*
X177349500Y-149497273D01*
X177349500Y-149602727D01*
X177353701Y-149618409D01*
X177352039Y-149688256D01*
X177312877Y-149746118D01*
X177248649Y-149773623D01*
X177233927Y-149774500D01*
X175224500Y-149774500D01*
X175157461Y-149754815D01*
X175111706Y-149702011D01*
X175100500Y-149650500D01*
X175100500Y-149356903D01*
X175100500Y-149356898D01*
X175089877Y-149268436D01*
X175034361Y-149127658D01*
X175034360Y-149127657D01*
X175034360Y-149127656D01*
X174942922Y-149007077D01*
X174822343Y-148915639D01*
X174681561Y-148860122D01*
X174635926Y-148854642D01*
X174593102Y-148849500D01*
X174024000Y-148849500D01*
X173956961Y-148829815D01*
X173911206Y-148777011D01*
X173900000Y-148725500D01*
X173900000Y-147593000D01*
X173900000Y-147549999D01*
X174250000Y-147549999D01*
X174599972Y-147549999D01*
X174599986Y-147549998D01*
X174702697Y-147539505D01*
X174869119Y-147484358D01*
X174869124Y-147484356D01*
X175018345Y-147392315D01*
X175142315Y-147268345D01*
X175234356Y-147119124D01*
X175234358Y-147119119D01*
X175289505Y-146952697D01*
X175289506Y-146952690D01*
X175299999Y-146849986D01*
X175300000Y-146849973D01*
X175300000Y-145550000D01*
X174250000Y-145550000D01*
X174250000Y-147549999D01*
X173900000Y-147549999D01*
X173900000Y-145050000D01*
X174250000Y-145050000D01*
X175299999Y-145050000D01*
X175299999Y-143750028D01*
X175299998Y-143750013D01*
X175289505Y-143647302D01*
X175234358Y-143480880D01*
X175234356Y-143480875D01*
X175142315Y-143331654D01*
X175098342Y-143287681D01*
X175064857Y-143226358D01*
X175069841Y-143156666D01*
X175098342Y-143112319D01*
X175142315Y-143068345D01*
X175234356Y-142919124D01*
X175234358Y-142919119D01*
X175289505Y-142752697D01*
X175289506Y-142752690D01*
X175299999Y-142649986D01*
X175300000Y-142649973D01*
X175300000Y-141350000D01*
X174250000Y-141350000D01*
X174250000Y-145050000D01*
X173900000Y-145050000D01*
X173900000Y-140850000D01*
X174250000Y-140850000D01*
X175299999Y-140850000D01*
X175299999Y-139550028D01*
X175299998Y-139550013D01*
X175289505Y-139447302D01*
X175234358Y-139280880D01*
X175234356Y-139280875D01*
X175142315Y-139131654D01*
X175018345Y-139007684D01*
X174869124Y-138915643D01*
X174869119Y-138915641D01*
X174702697Y-138860494D01*
X174702690Y-138860493D01*
X174599986Y-138850000D01*
X174250000Y-138850000D01*
X174250000Y-140850000D01*
X173900000Y-140850000D01*
X173900000Y-138666072D01*
X173919685Y-138599033D01*
X173972489Y-138553278D01*
X174007812Y-138543133D01*
X174069262Y-138535044D01*
X174215341Y-138474536D01*
X174254009Y-138444865D01*
X174311015Y-138401124D01*
X174376185Y-138375930D01*
X174386501Y-138375500D01*
X174476116Y-138375500D01*
X174476118Y-138375500D01*
X174584337Y-138346503D01*
X174681363Y-138290485D01*
X175740485Y-137231363D01*
X175796503Y-137134337D01*
X175825500Y-137026118D01*
X175825500Y-136914081D01*
X175825500Y-136573999D01*
X175845185Y-136506960D01*
X175851110Y-136498531D01*
X175924536Y-136402841D01*
X175985044Y-136256762D01*
X175998424Y-136155131D01*
X184299602Y-136155131D01*
X184299602Y-138444856D01*
X184299604Y-138444882D01*
X184302515Y-138469987D01*
X184302517Y-138469991D01*
X184347895Y-138572764D01*
X184347896Y-138572765D01*
X184427337Y-138652206D01*
X184530111Y-138697585D01*
X184555237Y-138700500D01*
X186200500Y-138700499D01*
X186267539Y-138720184D01*
X186313294Y-138772987D01*
X186324500Y-138824499D01*
X186324500Y-140175996D01*
X186304815Y-140243035D01*
X186298876Y-140251482D01*
X186225464Y-140347154D01*
X186164956Y-140493234D01*
X186164955Y-140493236D01*
X186144318Y-140649995D01*
X186144318Y-140649998D01*
X186164955Y-140806757D01*
X186164956Y-140806759D01*
X186225464Y-140952838D01*
X186321718Y-141078279D01*
X186447159Y-141174533D01*
X186593238Y-141235041D01*
X186671619Y-141245360D01*
X186749999Y-141255679D01*
X186750000Y-141255679D01*
X186750001Y-141255679D01*
X186802254Y-141248799D01*
X186906762Y-141235041D01*
X187052841Y-141174533D01*
X187178282Y-141078279D01*
X187274536Y-140952838D01*
X187335044Y-140806759D01*
X187355682Y-140649997D01*
X187335044Y-140493235D01*
X187274536Y-140347156D01*
X187274535Y-140347155D01*
X187274535Y-140347154D01*
X187201124Y-140251482D01*
X187175930Y-140186312D01*
X187175500Y-140175996D01*
X187175500Y-137993984D01*
X187175500Y-137993982D01*
X187146503Y-137885763D01*
X187090485Y-137788737D01*
X187011263Y-137709515D01*
X186536920Y-137235172D01*
X186503435Y-137173849D01*
X186500601Y-137147491D01*
X186500601Y-136155143D01*
X186500601Y-136155136D01*
X186500599Y-136155117D01*
X186497688Y-136130012D01*
X186497687Y-136130010D01*
X186497687Y-136130009D01*
X186452308Y-136027235D01*
X186372867Y-135947794D01*
X186362546Y-135943237D01*
X186270094Y-135902415D01*
X186244967Y-135899500D01*
X184555245Y-135899500D01*
X184555219Y-135899502D01*
X184530114Y-135902413D01*
X184530110Y-135902415D01*
X184427337Y-135947793D01*
X184347896Y-136027234D01*
X184302517Y-136130006D01*
X184302517Y-136130008D01*
X184299602Y-136155131D01*
X175998424Y-136155131D01*
X176005682Y-136100000D01*
X175985044Y-135943238D01*
X175924536Y-135797159D01*
X175828282Y-135671718D01*
X175702841Y-135575464D01*
X175556762Y-135514956D01*
X175556760Y-135514955D01*
X175400001Y-135494318D01*
X175399999Y-135494318D01*
X175240685Y-135515292D01*
X175171650Y-135504526D01*
X175119394Y-135458146D01*
X175100500Y-135392353D01*
X175100500Y-133956903D01*
X175100500Y-133956898D01*
X175089877Y-133868436D01*
X175034361Y-133727658D01*
X174975034Y-133649424D01*
X174950212Y-133584114D01*
X174964640Y-133515750D01*
X175013737Y-133466039D01*
X175073839Y-133450500D01*
X192176000Y-133450500D01*
X192243039Y-133470185D01*
G37*
%TD.AperFunction*%
%TD*%
M02*
