%TF.GenerationSoftware,KiCad,Pcbnew,8.0.4*%
%TF.CreationDate,2024-12-22T16:52:19+00:00*%
%TF.ProjectId,main_board,6d61696e-5f62-46f6-9172-642e6b696361,rev?*%
%TF.SameCoordinates,Original*%
%TF.FileFunction,Other,Comment*%
%FSLAX46Y46*%
G04 Gerber Fmt 4.6, Leading zero omitted, Abs format (unit mm)*
G04 Created by KiCad (PCBNEW 8.0.4) date 2024-12-22 16:52:19*
%MOMM*%
%LPD*%
G01*
G04 APERTURE LIST*
%ADD10C,0.100000*%
%ADD11C,0.200000*%
%ADD12C,0.300000*%
%ADD13C,0.150000*%
%ADD14C,0.051000*%
G04 APERTURE END LIST*
D10*
X157500000Y-43250000D02*
X208000000Y-43250000D01*
X208000000Y-133250000D01*
X157500000Y-133250000D01*
X157500000Y-43250000D01*
D11*
X168500000Y-133250000D02*
X168500000Y-153250000D01*
D10*
X157500000Y-43250000D02*
X208000000Y-43250000D01*
X208000000Y-153250000D01*
X157500000Y-153250000D01*
X157500000Y-43250000D01*
D11*
X208000000Y-143250000D02*
X157500000Y-143250000D01*
X197000000Y-133250000D02*
X197000000Y-153250000D01*
D10*
X157500000Y-34000000D02*
X208000000Y-34000000D01*
X208000000Y-162500000D01*
X157500000Y-162500000D01*
X157500000Y-34000000D01*
D12*
X215021185Y-150178569D02*
X214949757Y-150107141D01*
X214949757Y-150107141D02*
X214878328Y-149964284D01*
X214878328Y-149964284D02*
X214878328Y-149607141D01*
X214878328Y-149607141D02*
X214949757Y-149464284D01*
X214949757Y-149464284D02*
X215021185Y-149392855D01*
X215021185Y-149392855D02*
X215164042Y-149321426D01*
X215164042Y-149321426D02*
X215306900Y-149321426D01*
X215306900Y-149321426D02*
X215521185Y-149392855D01*
X215521185Y-149392855D02*
X216378328Y-150249998D01*
X216378328Y-150249998D02*
X216378328Y-149321426D01*
X214878328Y-148392855D02*
X214878328Y-148249998D01*
X214878328Y-148249998D02*
X214949757Y-148107141D01*
X214949757Y-148107141D02*
X215021185Y-148035713D01*
X215021185Y-148035713D02*
X215164042Y-147964284D01*
X215164042Y-147964284D02*
X215449757Y-147892855D01*
X215449757Y-147892855D02*
X215806900Y-147892855D01*
X215806900Y-147892855D02*
X216092614Y-147964284D01*
X216092614Y-147964284D02*
X216235471Y-148035713D01*
X216235471Y-148035713D02*
X216306900Y-148107141D01*
X216306900Y-148107141D02*
X216378328Y-148249998D01*
X216378328Y-148249998D02*
X216378328Y-148392855D01*
X216378328Y-148392855D02*
X216306900Y-148535713D01*
X216306900Y-148535713D02*
X216235471Y-148607141D01*
X216235471Y-148607141D02*
X216092614Y-148678570D01*
X216092614Y-148678570D02*
X215806900Y-148749998D01*
X215806900Y-148749998D02*
X215449757Y-148749998D01*
X215449757Y-148749998D02*
X215164042Y-148678570D01*
X215164042Y-148678570D02*
X215021185Y-148607141D01*
X215021185Y-148607141D02*
X214949757Y-148535713D01*
X214949757Y-148535713D02*
X214878328Y-148392855D01*
X216235471Y-147249999D02*
X216306900Y-147178570D01*
X216306900Y-147178570D02*
X216378328Y-147249999D01*
X216378328Y-147249999D02*
X216306900Y-147321427D01*
X216306900Y-147321427D02*
X216235471Y-147249999D01*
X216235471Y-147249999D02*
X216378328Y-147249999D01*
X214878328Y-146249998D02*
X214878328Y-146107141D01*
X214878328Y-146107141D02*
X214949757Y-145964284D01*
X214949757Y-145964284D02*
X215021185Y-145892856D01*
X215021185Y-145892856D02*
X215164042Y-145821427D01*
X215164042Y-145821427D02*
X215449757Y-145749998D01*
X215449757Y-145749998D02*
X215806900Y-145749998D01*
X215806900Y-145749998D02*
X216092614Y-145821427D01*
X216092614Y-145821427D02*
X216235471Y-145892856D01*
X216235471Y-145892856D02*
X216306900Y-145964284D01*
X216306900Y-145964284D02*
X216378328Y-146107141D01*
X216378328Y-146107141D02*
X216378328Y-146249998D01*
X216378328Y-146249998D02*
X216306900Y-146392856D01*
X216306900Y-146392856D02*
X216235471Y-146464284D01*
X216235471Y-146464284D02*
X216092614Y-146535713D01*
X216092614Y-146535713D02*
X215806900Y-146607141D01*
X215806900Y-146607141D02*
X215449757Y-146607141D01*
X215449757Y-146607141D02*
X215164042Y-146535713D01*
X215164042Y-146535713D02*
X215021185Y-146464284D01*
X215021185Y-146464284D02*
X214949757Y-146392856D01*
X214949757Y-146392856D02*
X214878328Y-146249998D01*
X214878328Y-144821427D02*
X214878328Y-144678570D01*
X214878328Y-144678570D02*
X214949757Y-144535713D01*
X214949757Y-144535713D02*
X215021185Y-144464285D01*
X215021185Y-144464285D02*
X215164042Y-144392856D01*
X215164042Y-144392856D02*
X215449757Y-144321427D01*
X215449757Y-144321427D02*
X215806900Y-144321427D01*
X215806900Y-144321427D02*
X216092614Y-144392856D01*
X216092614Y-144392856D02*
X216235471Y-144464285D01*
X216235471Y-144464285D02*
X216306900Y-144535713D01*
X216306900Y-144535713D02*
X216378328Y-144678570D01*
X216378328Y-144678570D02*
X216378328Y-144821427D01*
X216378328Y-144821427D02*
X216306900Y-144964285D01*
X216306900Y-144964285D02*
X216235471Y-145035713D01*
X216235471Y-145035713D02*
X216092614Y-145107142D01*
X216092614Y-145107142D02*
X215806900Y-145178570D01*
X215806900Y-145178570D02*
X215449757Y-145178570D01*
X215449757Y-145178570D02*
X215164042Y-145107142D01*
X215164042Y-145107142D02*
X215021185Y-145035713D01*
X215021185Y-145035713D02*
X214949757Y-144964285D01*
X214949757Y-144964285D02*
X214878328Y-144821427D01*
X214878328Y-143392856D02*
X214878328Y-143249999D01*
X214878328Y-143249999D02*
X214949757Y-143107142D01*
X214949757Y-143107142D02*
X215021185Y-143035714D01*
X215021185Y-143035714D02*
X215164042Y-142964285D01*
X215164042Y-142964285D02*
X215449757Y-142892856D01*
X215449757Y-142892856D02*
X215806900Y-142892856D01*
X215806900Y-142892856D02*
X216092614Y-142964285D01*
X216092614Y-142964285D02*
X216235471Y-143035714D01*
X216235471Y-143035714D02*
X216306900Y-143107142D01*
X216306900Y-143107142D02*
X216378328Y-143249999D01*
X216378328Y-143249999D02*
X216378328Y-143392856D01*
X216378328Y-143392856D02*
X216306900Y-143535714D01*
X216306900Y-143535714D02*
X216235471Y-143607142D01*
X216235471Y-143607142D02*
X216092614Y-143678571D01*
X216092614Y-143678571D02*
X215806900Y-143749999D01*
X215806900Y-143749999D02*
X215449757Y-143749999D01*
X215449757Y-143749999D02*
X215164042Y-143678571D01*
X215164042Y-143678571D02*
X215021185Y-143607142D01*
X215021185Y-143607142D02*
X214949757Y-143535714D01*
X214949757Y-143535714D02*
X214878328Y-143392856D01*
X214878328Y-141964285D02*
X214878328Y-141821428D01*
X214878328Y-141821428D02*
X214949757Y-141678571D01*
X214949757Y-141678571D02*
X215021185Y-141607143D01*
X215021185Y-141607143D02*
X215164042Y-141535714D01*
X215164042Y-141535714D02*
X215449757Y-141464285D01*
X215449757Y-141464285D02*
X215806900Y-141464285D01*
X215806900Y-141464285D02*
X216092614Y-141535714D01*
X216092614Y-141535714D02*
X216235471Y-141607143D01*
X216235471Y-141607143D02*
X216306900Y-141678571D01*
X216306900Y-141678571D02*
X216378328Y-141821428D01*
X216378328Y-141821428D02*
X216378328Y-141964285D01*
X216378328Y-141964285D02*
X216306900Y-142107143D01*
X216306900Y-142107143D02*
X216235471Y-142178571D01*
X216235471Y-142178571D02*
X216092614Y-142250000D01*
X216092614Y-142250000D02*
X215806900Y-142321428D01*
X215806900Y-142321428D02*
X215449757Y-142321428D01*
X215449757Y-142321428D02*
X215164042Y-142250000D01*
X215164042Y-142250000D02*
X215021185Y-142178571D01*
X215021185Y-142178571D02*
X214949757Y-142107143D01*
X214949757Y-142107143D02*
X214878328Y-141964285D01*
X216378328Y-139678572D02*
X215378328Y-139678572D01*
X215521185Y-139678572D02*
X215449757Y-139607143D01*
X215449757Y-139607143D02*
X215378328Y-139464286D01*
X215378328Y-139464286D02*
X215378328Y-139250000D01*
X215378328Y-139250000D02*
X215449757Y-139107143D01*
X215449757Y-139107143D02*
X215592614Y-139035715D01*
X215592614Y-139035715D02*
X216378328Y-139035715D01*
X215592614Y-139035715D02*
X215449757Y-138964286D01*
X215449757Y-138964286D02*
X215378328Y-138821429D01*
X215378328Y-138821429D02*
X215378328Y-138607143D01*
X215378328Y-138607143D02*
X215449757Y-138464286D01*
X215449757Y-138464286D02*
X215592614Y-138392857D01*
X215592614Y-138392857D02*
X216378328Y-138392857D01*
X216378328Y-137678572D02*
X215378328Y-137678572D01*
X215521185Y-137678572D02*
X215449757Y-137607143D01*
X215449757Y-137607143D02*
X215378328Y-137464286D01*
X215378328Y-137464286D02*
X215378328Y-137250000D01*
X215378328Y-137250000D02*
X215449757Y-137107143D01*
X215449757Y-137107143D02*
X215592614Y-137035715D01*
X215592614Y-137035715D02*
X216378328Y-137035715D01*
X215592614Y-137035715D02*
X215449757Y-136964286D01*
X215449757Y-136964286D02*
X215378328Y-136821429D01*
X215378328Y-136821429D02*
X215378328Y-136607143D01*
X215378328Y-136607143D02*
X215449757Y-136464286D01*
X215449757Y-136464286D02*
X215592614Y-136392857D01*
X215592614Y-136392857D02*
X216378328Y-136392857D01*
D11*
X208500000Y-133250000D02*
X218086420Y-133250000D01*
X208500000Y-153250000D02*
X218086420Y-153250000D01*
X217500000Y-133250000D02*
X217500000Y-153250000D01*
X217500000Y-133250000D02*
X217500000Y-153250000D01*
X217500000Y-133250000D02*
X218086421Y-134376504D01*
X217500000Y-133250000D02*
X216913579Y-134376504D01*
X217500000Y-153250000D02*
X216913579Y-152123496D01*
X217500000Y-153250000D02*
X218086421Y-152123496D01*
D12*
X196428573Y-126378328D02*
X195571430Y-126378328D01*
X196000001Y-126378328D02*
X196000001Y-124878328D01*
X196000001Y-124878328D02*
X195857144Y-125092614D01*
X195857144Y-125092614D02*
X195714287Y-125235471D01*
X195714287Y-125235471D02*
X195571430Y-125306900D01*
X197857144Y-126378328D02*
X197000001Y-126378328D01*
X197428572Y-126378328D02*
X197428572Y-124878328D01*
X197428572Y-124878328D02*
X197285715Y-125092614D01*
X197285715Y-125092614D02*
X197142858Y-125235471D01*
X197142858Y-125235471D02*
X197000001Y-125306900D01*
X198500000Y-126235471D02*
X198571429Y-126306900D01*
X198571429Y-126306900D02*
X198500000Y-126378328D01*
X198500000Y-126378328D02*
X198428572Y-126306900D01*
X198428572Y-126306900D02*
X198500000Y-126235471D01*
X198500000Y-126235471D02*
X198500000Y-126378328D01*
X199500001Y-124878328D02*
X199642858Y-124878328D01*
X199642858Y-124878328D02*
X199785715Y-124949757D01*
X199785715Y-124949757D02*
X199857144Y-125021185D01*
X199857144Y-125021185D02*
X199928572Y-125164042D01*
X199928572Y-125164042D02*
X200000001Y-125449757D01*
X200000001Y-125449757D02*
X200000001Y-125806900D01*
X200000001Y-125806900D02*
X199928572Y-126092614D01*
X199928572Y-126092614D02*
X199857144Y-126235471D01*
X199857144Y-126235471D02*
X199785715Y-126306900D01*
X199785715Y-126306900D02*
X199642858Y-126378328D01*
X199642858Y-126378328D02*
X199500001Y-126378328D01*
X199500001Y-126378328D02*
X199357144Y-126306900D01*
X199357144Y-126306900D02*
X199285715Y-126235471D01*
X199285715Y-126235471D02*
X199214286Y-126092614D01*
X199214286Y-126092614D02*
X199142858Y-125806900D01*
X199142858Y-125806900D02*
X199142858Y-125449757D01*
X199142858Y-125449757D02*
X199214286Y-125164042D01*
X199214286Y-125164042D02*
X199285715Y-125021185D01*
X199285715Y-125021185D02*
X199357144Y-124949757D01*
X199357144Y-124949757D02*
X199500001Y-124878328D01*
X200928572Y-124878328D02*
X201071429Y-124878328D01*
X201071429Y-124878328D02*
X201214286Y-124949757D01*
X201214286Y-124949757D02*
X201285715Y-125021185D01*
X201285715Y-125021185D02*
X201357143Y-125164042D01*
X201357143Y-125164042D02*
X201428572Y-125449757D01*
X201428572Y-125449757D02*
X201428572Y-125806900D01*
X201428572Y-125806900D02*
X201357143Y-126092614D01*
X201357143Y-126092614D02*
X201285715Y-126235471D01*
X201285715Y-126235471D02*
X201214286Y-126306900D01*
X201214286Y-126306900D02*
X201071429Y-126378328D01*
X201071429Y-126378328D02*
X200928572Y-126378328D01*
X200928572Y-126378328D02*
X200785715Y-126306900D01*
X200785715Y-126306900D02*
X200714286Y-126235471D01*
X200714286Y-126235471D02*
X200642857Y-126092614D01*
X200642857Y-126092614D02*
X200571429Y-125806900D01*
X200571429Y-125806900D02*
X200571429Y-125449757D01*
X200571429Y-125449757D02*
X200642857Y-125164042D01*
X200642857Y-125164042D02*
X200714286Y-125021185D01*
X200714286Y-125021185D02*
X200785715Y-124949757D01*
X200785715Y-124949757D02*
X200928572Y-124878328D01*
X202357143Y-124878328D02*
X202500000Y-124878328D01*
X202500000Y-124878328D02*
X202642857Y-124949757D01*
X202642857Y-124949757D02*
X202714286Y-125021185D01*
X202714286Y-125021185D02*
X202785714Y-125164042D01*
X202785714Y-125164042D02*
X202857143Y-125449757D01*
X202857143Y-125449757D02*
X202857143Y-125806900D01*
X202857143Y-125806900D02*
X202785714Y-126092614D01*
X202785714Y-126092614D02*
X202714286Y-126235471D01*
X202714286Y-126235471D02*
X202642857Y-126306900D01*
X202642857Y-126306900D02*
X202500000Y-126378328D01*
X202500000Y-126378328D02*
X202357143Y-126378328D01*
X202357143Y-126378328D02*
X202214286Y-126306900D01*
X202214286Y-126306900D02*
X202142857Y-126235471D01*
X202142857Y-126235471D02*
X202071428Y-126092614D01*
X202071428Y-126092614D02*
X202000000Y-125806900D01*
X202000000Y-125806900D02*
X202000000Y-125449757D01*
X202000000Y-125449757D02*
X202071428Y-125164042D01*
X202071428Y-125164042D02*
X202142857Y-125021185D01*
X202142857Y-125021185D02*
X202214286Y-124949757D01*
X202214286Y-124949757D02*
X202357143Y-124878328D01*
X203785714Y-124878328D02*
X203928571Y-124878328D01*
X203928571Y-124878328D02*
X204071428Y-124949757D01*
X204071428Y-124949757D02*
X204142857Y-125021185D01*
X204142857Y-125021185D02*
X204214285Y-125164042D01*
X204214285Y-125164042D02*
X204285714Y-125449757D01*
X204285714Y-125449757D02*
X204285714Y-125806900D01*
X204285714Y-125806900D02*
X204214285Y-126092614D01*
X204214285Y-126092614D02*
X204142857Y-126235471D01*
X204142857Y-126235471D02*
X204071428Y-126306900D01*
X204071428Y-126306900D02*
X203928571Y-126378328D01*
X203928571Y-126378328D02*
X203785714Y-126378328D01*
X203785714Y-126378328D02*
X203642857Y-126306900D01*
X203642857Y-126306900D02*
X203571428Y-126235471D01*
X203571428Y-126235471D02*
X203499999Y-126092614D01*
X203499999Y-126092614D02*
X203428571Y-125806900D01*
X203428571Y-125806900D02*
X203428571Y-125449757D01*
X203428571Y-125449757D02*
X203499999Y-125164042D01*
X203499999Y-125164042D02*
X203571428Y-125021185D01*
X203571428Y-125021185D02*
X203642857Y-124949757D01*
X203642857Y-124949757D02*
X203785714Y-124878328D01*
X206071427Y-126378328D02*
X206071427Y-125378328D01*
X206071427Y-125521185D02*
X206142856Y-125449757D01*
X206142856Y-125449757D02*
X206285713Y-125378328D01*
X206285713Y-125378328D02*
X206499999Y-125378328D01*
X206499999Y-125378328D02*
X206642856Y-125449757D01*
X206642856Y-125449757D02*
X206714285Y-125592614D01*
X206714285Y-125592614D02*
X206714285Y-126378328D01*
X206714285Y-125592614D02*
X206785713Y-125449757D01*
X206785713Y-125449757D02*
X206928570Y-125378328D01*
X206928570Y-125378328D02*
X207142856Y-125378328D01*
X207142856Y-125378328D02*
X207285713Y-125449757D01*
X207285713Y-125449757D02*
X207357142Y-125592614D01*
X207357142Y-125592614D02*
X207357142Y-126378328D01*
X208071427Y-126378328D02*
X208071427Y-125378328D01*
X208071427Y-125521185D02*
X208142856Y-125449757D01*
X208142856Y-125449757D02*
X208285713Y-125378328D01*
X208285713Y-125378328D02*
X208499999Y-125378328D01*
X208499999Y-125378328D02*
X208642856Y-125449757D01*
X208642856Y-125449757D02*
X208714285Y-125592614D01*
X208714285Y-125592614D02*
X208714285Y-126378328D01*
X208714285Y-125592614D02*
X208785713Y-125449757D01*
X208785713Y-125449757D02*
X208928570Y-125378328D01*
X208928570Y-125378328D02*
X209142856Y-125378328D01*
X209142856Y-125378328D02*
X209285713Y-125449757D01*
X209285713Y-125449757D02*
X209357142Y-125592614D01*
X209357142Y-125592614D02*
X209357142Y-126378328D01*
D11*
X208000000Y-132750000D02*
X208000000Y-126913580D01*
X197000000Y-132750000D02*
X197000000Y-126913580D01*
X208000000Y-127500000D02*
X197000000Y-127500000D01*
X208000000Y-127500000D02*
X197000000Y-127500000D01*
X208000000Y-127500000D02*
X206873496Y-128086421D01*
X208000000Y-127500000D02*
X206873496Y-126913579D01*
X197000000Y-127500000D02*
X198126504Y-126913579D01*
X197000000Y-127500000D02*
X198126504Y-128086421D01*
D12*
X211378328Y-154321426D02*
X211378328Y-155178569D01*
X211378328Y-154749998D02*
X209878328Y-154749998D01*
X209878328Y-154749998D02*
X210092614Y-154892855D01*
X210092614Y-154892855D02*
X210235471Y-155035712D01*
X210235471Y-155035712D02*
X210306900Y-155178569D01*
X209878328Y-153392855D02*
X209878328Y-153249998D01*
X209878328Y-153249998D02*
X209949757Y-153107141D01*
X209949757Y-153107141D02*
X210021185Y-153035713D01*
X210021185Y-153035713D02*
X210164042Y-152964284D01*
X210164042Y-152964284D02*
X210449757Y-152892855D01*
X210449757Y-152892855D02*
X210806900Y-152892855D01*
X210806900Y-152892855D02*
X211092614Y-152964284D01*
X211092614Y-152964284D02*
X211235471Y-153035713D01*
X211235471Y-153035713D02*
X211306900Y-153107141D01*
X211306900Y-153107141D02*
X211378328Y-153249998D01*
X211378328Y-153249998D02*
X211378328Y-153392855D01*
X211378328Y-153392855D02*
X211306900Y-153535713D01*
X211306900Y-153535713D02*
X211235471Y-153607141D01*
X211235471Y-153607141D02*
X211092614Y-153678570D01*
X211092614Y-153678570D02*
X210806900Y-153749998D01*
X210806900Y-153749998D02*
X210449757Y-153749998D01*
X210449757Y-153749998D02*
X210164042Y-153678570D01*
X210164042Y-153678570D02*
X210021185Y-153607141D01*
X210021185Y-153607141D02*
X209949757Y-153535713D01*
X209949757Y-153535713D02*
X209878328Y-153392855D01*
X211235471Y-152249999D02*
X211306900Y-152178570D01*
X211306900Y-152178570D02*
X211378328Y-152249999D01*
X211378328Y-152249999D02*
X211306900Y-152321427D01*
X211306900Y-152321427D02*
X211235471Y-152249999D01*
X211235471Y-152249999D02*
X211378328Y-152249999D01*
X209878328Y-151249998D02*
X209878328Y-151107141D01*
X209878328Y-151107141D02*
X209949757Y-150964284D01*
X209949757Y-150964284D02*
X210021185Y-150892856D01*
X210021185Y-150892856D02*
X210164042Y-150821427D01*
X210164042Y-150821427D02*
X210449757Y-150749998D01*
X210449757Y-150749998D02*
X210806900Y-150749998D01*
X210806900Y-150749998D02*
X211092614Y-150821427D01*
X211092614Y-150821427D02*
X211235471Y-150892856D01*
X211235471Y-150892856D02*
X211306900Y-150964284D01*
X211306900Y-150964284D02*
X211378328Y-151107141D01*
X211378328Y-151107141D02*
X211378328Y-151249998D01*
X211378328Y-151249998D02*
X211306900Y-151392856D01*
X211306900Y-151392856D02*
X211235471Y-151464284D01*
X211235471Y-151464284D02*
X211092614Y-151535713D01*
X211092614Y-151535713D02*
X210806900Y-151607141D01*
X210806900Y-151607141D02*
X210449757Y-151607141D01*
X210449757Y-151607141D02*
X210164042Y-151535713D01*
X210164042Y-151535713D02*
X210021185Y-151464284D01*
X210021185Y-151464284D02*
X209949757Y-151392856D01*
X209949757Y-151392856D02*
X209878328Y-151249998D01*
X209878328Y-149821427D02*
X209878328Y-149678570D01*
X209878328Y-149678570D02*
X209949757Y-149535713D01*
X209949757Y-149535713D02*
X210021185Y-149464285D01*
X210021185Y-149464285D02*
X210164042Y-149392856D01*
X210164042Y-149392856D02*
X210449757Y-149321427D01*
X210449757Y-149321427D02*
X210806900Y-149321427D01*
X210806900Y-149321427D02*
X211092614Y-149392856D01*
X211092614Y-149392856D02*
X211235471Y-149464285D01*
X211235471Y-149464285D02*
X211306900Y-149535713D01*
X211306900Y-149535713D02*
X211378328Y-149678570D01*
X211378328Y-149678570D02*
X211378328Y-149821427D01*
X211378328Y-149821427D02*
X211306900Y-149964285D01*
X211306900Y-149964285D02*
X211235471Y-150035713D01*
X211235471Y-150035713D02*
X211092614Y-150107142D01*
X211092614Y-150107142D02*
X210806900Y-150178570D01*
X210806900Y-150178570D02*
X210449757Y-150178570D01*
X210449757Y-150178570D02*
X210164042Y-150107142D01*
X210164042Y-150107142D02*
X210021185Y-150035713D01*
X210021185Y-150035713D02*
X209949757Y-149964285D01*
X209949757Y-149964285D02*
X209878328Y-149821427D01*
X209878328Y-148392856D02*
X209878328Y-148249999D01*
X209878328Y-148249999D02*
X209949757Y-148107142D01*
X209949757Y-148107142D02*
X210021185Y-148035714D01*
X210021185Y-148035714D02*
X210164042Y-147964285D01*
X210164042Y-147964285D02*
X210449757Y-147892856D01*
X210449757Y-147892856D02*
X210806900Y-147892856D01*
X210806900Y-147892856D02*
X211092614Y-147964285D01*
X211092614Y-147964285D02*
X211235471Y-148035714D01*
X211235471Y-148035714D02*
X211306900Y-148107142D01*
X211306900Y-148107142D02*
X211378328Y-148249999D01*
X211378328Y-148249999D02*
X211378328Y-148392856D01*
X211378328Y-148392856D02*
X211306900Y-148535714D01*
X211306900Y-148535714D02*
X211235471Y-148607142D01*
X211235471Y-148607142D02*
X211092614Y-148678571D01*
X211092614Y-148678571D02*
X210806900Y-148749999D01*
X210806900Y-148749999D02*
X210449757Y-148749999D01*
X210449757Y-148749999D02*
X210164042Y-148678571D01*
X210164042Y-148678571D02*
X210021185Y-148607142D01*
X210021185Y-148607142D02*
X209949757Y-148535714D01*
X209949757Y-148535714D02*
X209878328Y-148392856D01*
X209878328Y-146964285D02*
X209878328Y-146821428D01*
X209878328Y-146821428D02*
X209949757Y-146678571D01*
X209949757Y-146678571D02*
X210021185Y-146607143D01*
X210021185Y-146607143D02*
X210164042Y-146535714D01*
X210164042Y-146535714D02*
X210449757Y-146464285D01*
X210449757Y-146464285D02*
X210806900Y-146464285D01*
X210806900Y-146464285D02*
X211092614Y-146535714D01*
X211092614Y-146535714D02*
X211235471Y-146607143D01*
X211235471Y-146607143D02*
X211306900Y-146678571D01*
X211306900Y-146678571D02*
X211378328Y-146821428D01*
X211378328Y-146821428D02*
X211378328Y-146964285D01*
X211378328Y-146964285D02*
X211306900Y-147107143D01*
X211306900Y-147107143D02*
X211235471Y-147178571D01*
X211235471Y-147178571D02*
X211092614Y-147250000D01*
X211092614Y-147250000D02*
X210806900Y-147321428D01*
X210806900Y-147321428D02*
X210449757Y-147321428D01*
X210449757Y-147321428D02*
X210164042Y-147250000D01*
X210164042Y-147250000D02*
X210021185Y-147178571D01*
X210021185Y-147178571D02*
X209949757Y-147107143D01*
X209949757Y-147107143D02*
X209878328Y-146964285D01*
X211378328Y-144678572D02*
X210378328Y-144678572D01*
X210521185Y-144678572D02*
X210449757Y-144607143D01*
X210449757Y-144607143D02*
X210378328Y-144464286D01*
X210378328Y-144464286D02*
X210378328Y-144250000D01*
X210378328Y-144250000D02*
X210449757Y-144107143D01*
X210449757Y-144107143D02*
X210592614Y-144035715D01*
X210592614Y-144035715D02*
X211378328Y-144035715D01*
X210592614Y-144035715D02*
X210449757Y-143964286D01*
X210449757Y-143964286D02*
X210378328Y-143821429D01*
X210378328Y-143821429D02*
X210378328Y-143607143D01*
X210378328Y-143607143D02*
X210449757Y-143464286D01*
X210449757Y-143464286D02*
X210592614Y-143392857D01*
X210592614Y-143392857D02*
X211378328Y-143392857D01*
X211378328Y-142678572D02*
X210378328Y-142678572D01*
X210521185Y-142678572D02*
X210449757Y-142607143D01*
X210449757Y-142607143D02*
X210378328Y-142464286D01*
X210378328Y-142464286D02*
X210378328Y-142250000D01*
X210378328Y-142250000D02*
X210449757Y-142107143D01*
X210449757Y-142107143D02*
X210592614Y-142035715D01*
X210592614Y-142035715D02*
X211378328Y-142035715D01*
X210592614Y-142035715D02*
X210449757Y-141964286D01*
X210449757Y-141964286D02*
X210378328Y-141821429D01*
X210378328Y-141821429D02*
X210378328Y-141607143D01*
X210378328Y-141607143D02*
X210449757Y-141464286D01*
X210449757Y-141464286D02*
X210592614Y-141392857D01*
X210592614Y-141392857D02*
X211378328Y-141392857D01*
D11*
X208500000Y-153250000D02*
X213086420Y-153250000D01*
X208500000Y-143250000D02*
X213086420Y-143250000D01*
X212500000Y-153250000D02*
X212500000Y-143250000D01*
X212500000Y-153250000D02*
X212500000Y-143250000D01*
X212500000Y-153250000D02*
X211913579Y-152123496D01*
X212500000Y-153250000D02*
X213086421Y-152123496D01*
X212500000Y-143250000D02*
X213086421Y-144376504D01*
X212500000Y-143250000D02*
X211913579Y-144376504D01*
D12*
X156928573Y-126878328D02*
X156071430Y-126878328D01*
X156500001Y-126878328D02*
X156500001Y-125378328D01*
X156500001Y-125378328D02*
X156357144Y-125592614D01*
X156357144Y-125592614D02*
X156214287Y-125735471D01*
X156214287Y-125735471D02*
X156071430Y-125806900D01*
X158357144Y-126878328D02*
X157500001Y-126878328D01*
X157928572Y-126878328D02*
X157928572Y-125378328D01*
X157928572Y-125378328D02*
X157785715Y-125592614D01*
X157785715Y-125592614D02*
X157642858Y-125735471D01*
X157642858Y-125735471D02*
X157500001Y-125806900D01*
X159000000Y-126735471D02*
X159071429Y-126806900D01*
X159071429Y-126806900D02*
X159000000Y-126878328D01*
X159000000Y-126878328D02*
X158928572Y-126806900D01*
X158928572Y-126806900D02*
X159000000Y-126735471D01*
X159000000Y-126735471D02*
X159000000Y-126878328D01*
X160000001Y-125378328D02*
X160142858Y-125378328D01*
X160142858Y-125378328D02*
X160285715Y-125449757D01*
X160285715Y-125449757D02*
X160357144Y-125521185D01*
X160357144Y-125521185D02*
X160428572Y-125664042D01*
X160428572Y-125664042D02*
X160500001Y-125949757D01*
X160500001Y-125949757D02*
X160500001Y-126306900D01*
X160500001Y-126306900D02*
X160428572Y-126592614D01*
X160428572Y-126592614D02*
X160357144Y-126735471D01*
X160357144Y-126735471D02*
X160285715Y-126806900D01*
X160285715Y-126806900D02*
X160142858Y-126878328D01*
X160142858Y-126878328D02*
X160000001Y-126878328D01*
X160000001Y-126878328D02*
X159857144Y-126806900D01*
X159857144Y-126806900D02*
X159785715Y-126735471D01*
X159785715Y-126735471D02*
X159714286Y-126592614D01*
X159714286Y-126592614D02*
X159642858Y-126306900D01*
X159642858Y-126306900D02*
X159642858Y-125949757D01*
X159642858Y-125949757D02*
X159714286Y-125664042D01*
X159714286Y-125664042D02*
X159785715Y-125521185D01*
X159785715Y-125521185D02*
X159857144Y-125449757D01*
X159857144Y-125449757D02*
X160000001Y-125378328D01*
X161428572Y-125378328D02*
X161571429Y-125378328D01*
X161571429Y-125378328D02*
X161714286Y-125449757D01*
X161714286Y-125449757D02*
X161785715Y-125521185D01*
X161785715Y-125521185D02*
X161857143Y-125664042D01*
X161857143Y-125664042D02*
X161928572Y-125949757D01*
X161928572Y-125949757D02*
X161928572Y-126306900D01*
X161928572Y-126306900D02*
X161857143Y-126592614D01*
X161857143Y-126592614D02*
X161785715Y-126735471D01*
X161785715Y-126735471D02*
X161714286Y-126806900D01*
X161714286Y-126806900D02*
X161571429Y-126878328D01*
X161571429Y-126878328D02*
X161428572Y-126878328D01*
X161428572Y-126878328D02*
X161285715Y-126806900D01*
X161285715Y-126806900D02*
X161214286Y-126735471D01*
X161214286Y-126735471D02*
X161142857Y-126592614D01*
X161142857Y-126592614D02*
X161071429Y-126306900D01*
X161071429Y-126306900D02*
X161071429Y-125949757D01*
X161071429Y-125949757D02*
X161142857Y-125664042D01*
X161142857Y-125664042D02*
X161214286Y-125521185D01*
X161214286Y-125521185D02*
X161285715Y-125449757D01*
X161285715Y-125449757D02*
X161428572Y-125378328D01*
X162857143Y-125378328D02*
X163000000Y-125378328D01*
X163000000Y-125378328D02*
X163142857Y-125449757D01*
X163142857Y-125449757D02*
X163214286Y-125521185D01*
X163214286Y-125521185D02*
X163285714Y-125664042D01*
X163285714Y-125664042D02*
X163357143Y-125949757D01*
X163357143Y-125949757D02*
X163357143Y-126306900D01*
X163357143Y-126306900D02*
X163285714Y-126592614D01*
X163285714Y-126592614D02*
X163214286Y-126735471D01*
X163214286Y-126735471D02*
X163142857Y-126806900D01*
X163142857Y-126806900D02*
X163000000Y-126878328D01*
X163000000Y-126878328D02*
X162857143Y-126878328D01*
X162857143Y-126878328D02*
X162714286Y-126806900D01*
X162714286Y-126806900D02*
X162642857Y-126735471D01*
X162642857Y-126735471D02*
X162571428Y-126592614D01*
X162571428Y-126592614D02*
X162500000Y-126306900D01*
X162500000Y-126306900D02*
X162500000Y-125949757D01*
X162500000Y-125949757D02*
X162571428Y-125664042D01*
X162571428Y-125664042D02*
X162642857Y-125521185D01*
X162642857Y-125521185D02*
X162714286Y-125449757D01*
X162714286Y-125449757D02*
X162857143Y-125378328D01*
X164285714Y-125378328D02*
X164428571Y-125378328D01*
X164428571Y-125378328D02*
X164571428Y-125449757D01*
X164571428Y-125449757D02*
X164642857Y-125521185D01*
X164642857Y-125521185D02*
X164714285Y-125664042D01*
X164714285Y-125664042D02*
X164785714Y-125949757D01*
X164785714Y-125949757D02*
X164785714Y-126306900D01*
X164785714Y-126306900D02*
X164714285Y-126592614D01*
X164714285Y-126592614D02*
X164642857Y-126735471D01*
X164642857Y-126735471D02*
X164571428Y-126806900D01*
X164571428Y-126806900D02*
X164428571Y-126878328D01*
X164428571Y-126878328D02*
X164285714Y-126878328D01*
X164285714Y-126878328D02*
X164142857Y-126806900D01*
X164142857Y-126806900D02*
X164071428Y-126735471D01*
X164071428Y-126735471D02*
X163999999Y-126592614D01*
X163999999Y-126592614D02*
X163928571Y-126306900D01*
X163928571Y-126306900D02*
X163928571Y-125949757D01*
X163928571Y-125949757D02*
X163999999Y-125664042D01*
X163999999Y-125664042D02*
X164071428Y-125521185D01*
X164071428Y-125521185D02*
X164142857Y-125449757D01*
X164142857Y-125449757D02*
X164285714Y-125378328D01*
X166571427Y-126878328D02*
X166571427Y-125878328D01*
X166571427Y-126021185D02*
X166642856Y-125949757D01*
X166642856Y-125949757D02*
X166785713Y-125878328D01*
X166785713Y-125878328D02*
X166999999Y-125878328D01*
X166999999Y-125878328D02*
X167142856Y-125949757D01*
X167142856Y-125949757D02*
X167214285Y-126092614D01*
X167214285Y-126092614D02*
X167214285Y-126878328D01*
X167214285Y-126092614D02*
X167285713Y-125949757D01*
X167285713Y-125949757D02*
X167428570Y-125878328D01*
X167428570Y-125878328D02*
X167642856Y-125878328D01*
X167642856Y-125878328D02*
X167785713Y-125949757D01*
X167785713Y-125949757D02*
X167857142Y-126092614D01*
X167857142Y-126092614D02*
X167857142Y-126878328D01*
X168571427Y-126878328D02*
X168571427Y-125878328D01*
X168571427Y-126021185D02*
X168642856Y-125949757D01*
X168642856Y-125949757D02*
X168785713Y-125878328D01*
X168785713Y-125878328D02*
X168999999Y-125878328D01*
X168999999Y-125878328D02*
X169142856Y-125949757D01*
X169142856Y-125949757D02*
X169214285Y-126092614D01*
X169214285Y-126092614D02*
X169214285Y-126878328D01*
X169214285Y-126092614D02*
X169285713Y-125949757D01*
X169285713Y-125949757D02*
X169428570Y-125878328D01*
X169428570Y-125878328D02*
X169642856Y-125878328D01*
X169642856Y-125878328D02*
X169785713Y-125949757D01*
X169785713Y-125949757D02*
X169857142Y-126092614D01*
X169857142Y-126092614D02*
X169857142Y-126878328D01*
D11*
X157500000Y-132750000D02*
X157500000Y-127413580D01*
X168500000Y-132750000D02*
X168500000Y-127413580D01*
X157500000Y-128000000D02*
X168500000Y-128000000D01*
X157500000Y-128000000D02*
X168500000Y-128000000D01*
X157500000Y-128000000D02*
X158626504Y-127413579D01*
X157500000Y-128000000D02*
X158626504Y-128586421D01*
X168500000Y-128000000D02*
X167373496Y-128586421D01*
X168500000Y-128000000D02*
X167373496Y-127413579D01*
D13*
X227804819Y-102773809D02*
X227804819Y-103345237D01*
X227804819Y-103059523D02*
X226804819Y-103059523D01*
X226804819Y-103059523D02*
X226947676Y-103154761D01*
X226947676Y-103154761D02*
X227042914Y-103249999D01*
X227042914Y-103249999D02*
X227090533Y-103345237D01*
X227804819Y-101821428D02*
X227804819Y-102392856D01*
X227804819Y-102107142D02*
X226804819Y-102107142D01*
X226804819Y-102107142D02*
X226947676Y-102202380D01*
X226947676Y-102202380D02*
X227042914Y-102297618D01*
X227042914Y-102297618D02*
X227090533Y-102392856D01*
X226804819Y-101202380D02*
X226804819Y-101107142D01*
X226804819Y-101107142D02*
X226852438Y-101011904D01*
X226852438Y-101011904D02*
X226900057Y-100964285D01*
X226900057Y-100964285D02*
X226995295Y-100916666D01*
X226995295Y-100916666D02*
X227185771Y-100869047D01*
X227185771Y-100869047D02*
X227423866Y-100869047D01*
X227423866Y-100869047D02*
X227614342Y-100916666D01*
X227614342Y-100916666D02*
X227709580Y-100964285D01*
X227709580Y-100964285D02*
X227757200Y-101011904D01*
X227757200Y-101011904D02*
X227804819Y-101107142D01*
X227804819Y-101107142D02*
X227804819Y-101202380D01*
X227804819Y-101202380D02*
X227757200Y-101297618D01*
X227757200Y-101297618D02*
X227709580Y-101345237D01*
X227709580Y-101345237D02*
X227614342Y-101392856D01*
X227614342Y-101392856D02*
X227423866Y-101440475D01*
X227423866Y-101440475D02*
X227185771Y-101440475D01*
X227185771Y-101440475D02*
X226995295Y-101392856D01*
X226995295Y-101392856D02*
X226900057Y-101345237D01*
X226900057Y-101345237D02*
X226852438Y-101297618D01*
X226852438Y-101297618D02*
X226804819Y-101202380D01*
X227709580Y-100440475D02*
X227757200Y-100392856D01*
X227757200Y-100392856D02*
X227804819Y-100440475D01*
X227804819Y-100440475D02*
X227757200Y-100488094D01*
X227757200Y-100488094D02*
X227709580Y-100440475D01*
X227709580Y-100440475D02*
X227804819Y-100440475D01*
X226804819Y-99773809D02*
X226804819Y-99678571D01*
X226804819Y-99678571D02*
X226852438Y-99583333D01*
X226852438Y-99583333D02*
X226900057Y-99535714D01*
X226900057Y-99535714D02*
X226995295Y-99488095D01*
X226995295Y-99488095D02*
X227185771Y-99440476D01*
X227185771Y-99440476D02*
X227423866Y-99440476D01*
X227423866Y-99440476D02*
X227614342Y-99488095D01*
X227614342Y-99488095D02*
X227709580Y-99535714D01*
X227709580Y-99535714D02*
X227757200Y-99583333D01*
X227757200Y-99583333D02*
X227804819Y-99678571D01*
X227804819Y-99678571D02*
X227804819Y-99773809D01*
X227804819Y-99773809D02*
X227757200Y-99869047D01*
X227757200Y-99869047D02*
X227709580Y-99916666D01*
X227709580Y-99916666D02*
X227614342Y-99964285D01*
X227614342Y-99964285D02*
X227423866Y-100011904D01*
X227423866Y-100011904D02*
X227185771Y-100011904D01*
X227185771Y-100011904D02*
X226995295Y-99964285D01*
X226995295Y-99964285D02*
X226900057Y-99916666D01*
X226900057Y-99916666D02*
X226852438Y-99869047D01*
X226852438Y-99869047D02*
X226804819Y-99773809D01*
X226804819Y-98821428D02*
X226804819Y-98726190D01*
X226804819Y-98726190D02*
X226852438Y-98630952D01*
X226852438Y-98630952D02*
X226900057Y-98583333D01*
X226900057Y-98583333D02*
X226995295Y-98535714D01*
X226995295Y-98535714D02*
X227185771Y-98488095D01*
X227185771Y-98488095D02*
X227423866Y-98488095D01*
X227423866Y-98488095D02*
X227614342Y-98535714D01*
X227614342Y-98535714D02*
X227709580Y-98583333D01*
X227709580Y-98583333D02*
X227757200Y-98630952D01*
X227757200Y-98630952D02*
X227804819Y-98726190D01*
X227804819Y-98726190D02*
X227804819Y-98821428D01*
X227804819Y-98821428D02*
X227757200Y-98916666D01*
X227757200Y-98916666D02*
X227709580Y-98964285D01*
X227709580Y-98964285D02*
X227614342Y-99011904D01*
X227614342Y-99011904D02*
X227423866Y-99059523D01*
X227423866Y-99059523D02*
X227185771Y-99059523D01*
X227185771Y-99059523D02*
X226995295Y-99011904D01*
X226995295Y-99011904D02*
X226900057Y-98964285D01*
X226900057Y-98964285D02*
X226852438Y-98916666D01*
X226852438Y-98916666D02*
X226804819Y-98821428D01*
X226804819Y-97869047D02*
X226804819Y-97773809D01*
X226804819Y-97773809D02*
X226852438Y-97678571D01*
X226852438Y-97678571D02*
X226900057Y-97630952D01*
X226900057Y-97630952D02*
X226995295Y-97583333D01*
X226995295Y-97583333D02*
X227185771Y-97535714D01*
X227185771Y-97535714D02*
X227423866Y-97535714D01*
X227423866Y-97535714D02*
X227614342Y-97583333D01*
X227614342Y-97583333D02*
X227709580Y-97630952D01*
X227709580Y-97630952D02*
X227757200Y-97678571D01*
X227757200Y-97678571D02*
X227804819Y-97773809D01*
X227804819Y-97773809D02*
X227804819Y-97869047D01*
X227804819Y-97869047D02*
X227757200Y-97964285D01*
X227757200Y-97964285D02*
X227709580Y-98011904D01*
X227709580Y-98011904D02*
X227614342Y-98059523D01*
X227614342Y-98059523D02*
X227423866Y-98107142D01*
X227423866Y-98107142D02*
X227185771Y-98107142D01*
X227185771Y-98107142D02*
X226995295Y-98059523D01*
X226995295Y-98059523D02*
X226900057Y-98011904D01*
X226900057Y-98011904D02*
X226852438Y-97964285D01*
X226852438Y-97964285D02*
X226804819Y-97869047D01*
X226804819Y-96916666D02*
X226804819Y-96821428D01*
X226804819Y-96821428D02*
X226852438Y-96726190D01*
X226852438Y-96726190D02*
X226900057Y-96678571D01*
X226900057Y-96678571D02*
X226995295Y-96630952D01*
X226995295Y-96630952D02*
X227185771Y-96583333D01*
X227185771Y-96583333D02*
X227423866Y-96583333D01*
X227423866Y-96583333D02*
X227614342Y-96630952D01*
X227614342Y-96630952D02*
X227709580Y-96678571D01*
X227709580Y-96678571D02*
X227757200Y-96726190D01*
X227757200Y-96726190D02*
X227804819Y-96821428D01*
X227804819Y-96821428D02*
X227804819Y-96916666D01*
X227804819Y-96916666D02*
X227757200Y-97011904D01*
X227757200Y-97011904D02*
X227709580Y-97059523D01*
X227709580Y-97059523D02*
X227614342Y-97107142D01*
X227614342Y-97107142D02*
X227423866Y-97154761D01*
X227423866Y-97154761D02*
X227185771Y-97154761D01*
X227185771Y-97154761D02*
X226995295Y-97107142D01*
X226995295Y-97107142D02*
X226900057Y-97059523D01*
X226900057Y-97059523D02*
X226852438Y-97011904D01*
X226852438Y-97011904D02*
X226804819Y-96916666D01*
X227804819Y-95392856D02*
X227138152Y-95392856D01*
X227233390Y-95392856D02*
X227185771Y-95345237D01*
X227185771Y-95345237D02*
X227138152Y-95249999D01*
X227138152Y-95249999D02*
X227138152Y-95107142D01*
X227138152Y-95107142D02*
X227185771Y-95011904D01*
X227185771Y-95011904D02*
X227281009Y-94964285D01*
X227281009Y-94964285D02*
X227804819Y-94964285D01*
X227281009Y-94964285D02*
X227185771Y-94916666D01*
X227185771Y-94916666D02*
X227138152Y-94821428D01*
X227138152Y-94821428D02*
X227138152Y-94678571D01*
X227138152Y-94678571D02*
X227185771Y-94583332D01*
X227185771Y-94583332D02*
X227281009Y-94535713D01*
X227281009Y-94535713D02*
X227804819Y-94535713D01*
X227804819Y-94059523D02*
X227138152Y-94059523D01*
X227233390Y-94059523D02*
X227185771Y-94011904D01*
X227185771Y-94011904D02*
X227138152Y-93916666D01*
X227138152Y-93916666D02*
X227138152Y-93773809D01*
X227138152Y-93773809D02*
X227185771Y-93678571D01*
X227185771Y-93678571D02*
X227281009Y-93630952D01*
X227281009Y-93630952D02*
X227804819Y-93630952D01*
X227281009Y-93630952D02*
X227185771Y-93583333D01*
X227185771Y-93583333D02*
X227138152Y-93488095D01*
X227138152Y-93488095D02*
X227138152Y-93345238D01*
X227138152Y-93345238D02*
X227185771Y-93249999D01*
X227185771Y-93249999D02*
X227281009Y-93202380D01*
X227281009Y-93202380D02*
X227804819Y-93202380D01*
D10*
X208500000Y-153250000D02*
X229086420Y-153250000D01*
X208500000Y-43250000D02*
X229086420Y-43250000D01*
X228500000Y-153250000D02*
X228500000Y-43250000D01*
X228500000Y-153250000D02*
X228500000Y-43250000D01*
X228500000Y-153250000D02*
X227913579Y-152123496D01*
X228500000Y-153250000D02*
X229086421Y-152123496D01*
X228500000Y-43250000D02*
X229086421Y-44376504D01*
X228500000Y-43250000D02*
X227913579Y-44376504D01*
D13*
X150533390Y-143202380D02*
X150485771Y-143297618D01*
X150485771Y-143297618D02*
X150438152Y-143345237D01*
X150438152Y-143345237D02*
X150342914Y-143392856D01*
X150342914Y-143392856D02*
X150295295Y-143392856D01*
X150295295Y-143392856D02*
X150200057Y-143345237D01*
X150200057Y-143345237D02*
X150152438Y-143297618D01*
X150152438Y-143297618D02*
X150104819Y-143202380D01*
X150104819Y-143202380D02*
X150104819Y-143011904D01*
X150104819Y-143011904D02*
X150152438Y-142916666D01*
X150152438Y-142916666D02*
X150200057Y-142869047D01*
X150200057Y-142869047D02*
X150295295Y-142821428D01*
X150295295Y-142821428D02*
X150342914Y-142821428D01*
X150342914Y-142821428D02*
X150438152Y-142869047D01*
X150438152Y-142869047D02*
X150485771Y-142916666D01*
X150485771Y-142916666D02*
X150533390Y-143011904D01*
X150533390Y-143011904D02*
X150533390Y-143202380D01*
X150533390Y-143202380D02*
X150581009Y-143297618D01*
X150581009Y-143297618D02*
X150628628Y-143345237D01*
X150628628Y-143345237D02*
X150723866Y-143392856D01*
X150723866Y-143392856D02*
X150914342Y-143392856D01*
X150914342Y-143392856D02*
X151009580Y-143345237D01*
X151009580Y-143345237D02*
X151057200Y-143297618D01*
X151057200Y-143297618D02*
X151104819Y-143202380D01*
X151104819Y-143202380D02*
X151104819Y-143011904D01*
X151104819Y-143011904D02*
X151057200Y-142916666D01*
X151057200Y-142916666D02*
X151009580Y-142869047D01*
X151009580Y-142869047D02*
X150914342Y-142821428D01*
X150914342Y-142821428D02*
X150723866Y-142821428D01*
X150723866Y-142821428D02*
X150628628Y-142869047D01*
X150628628Y-142869047D02*
X150581009Y-142916666D01*
X150581009Y-142916666D02*
X150533390Y-143011904D01*
X151009580Y-142392856D02*
X151057200Y-142345237D01*
X151057200Y-142345237D02*
X151104819Y-142392856D01*
X151104819Y-142392856D02*
X151057200Y-142440475D01*
X151057200Y-142440475D02*
X151009580Y-142392856D01*
X151009580Y-142392856D02*
X151104819Y-142392856D01*
X150104819Y-141726190D02*
X150104819Y-141630952D01*
X150104819Y-141630952D02*
X150152438Y-141535714D01*
X150152438Y-141535714D02*
X150200057Y-141488095D01*
X150200057Y-141488095D02*
X150295295Y-141440476D01*
X150295295Y-141440476D02*
X150485771Y-141392857D01*
X150485771Y-141392857D02*
X150723866Y-141392857D01*
X150723866Y-141392857D02*
X150914342Y-141440476D01*
X150914342Y-141440476D02*
X151009580Y-141488095D01*
X151009580Y-141488095D02*
X151057200Y-141535714D01*
X151057200Y-141535714D02*
X151104819Y-141630952D01*
X151104819Y-141630952D02*
X151104819Y-141726190D01*
X151104819Y-141726190D02*
X151057200Y-141821428D01*
X151057200Y-141821428D02*
X151009580Y-141869047D01*
X151009580Y-141869047D02*
X150914342Y-141916666D01*
X150914342Y-141916666D02*
X150723866Y-141964285D01*
X150723866Y-141964285D02*
X150485771Y-141964285D01*
X150485771Y-141964285D02*
X150295295Y-141916666D01*
X150295295Y-141916666D02*
X150200057Y-141869047D01*
X150200057Y-141869047D02*
X150152438Y-141821428D01*
X150152438Y-141821428D02*
X150104819Y-141726190D01*
X150104819Y-140773809D02*
X150104819Y-140678571D01*
X150104819Y-140678571D02*
X150152438Y-140583333D01*
X150152438Y-140583333D02*
X150200057Y-140535714D01*
X150200057Y-140535714D02*
X150295295Y-140488095D01*
X150295295Y-140488095D02*
X150485771Y-140440476D01*
X150485771Y-140440476D02*
X150723866Y-140440476D01*
X150723866Y-140440476D02*
X150914342Y-140488095D01*
X150914342Y-140488095D02*
X151009580Y-140535714D01*
X151009580Y-140535714D02*
X151057200Y-140583333D01*
X151057200Y-140583333D02*
X151104819Y-140678571D01*
X151104819Y-140678571D02*
X151104819Y-140773809D01*
X151104819Y-140773809D02*
X151057200Y-140869047D01*
X151057200Y-140869047D02*
X151009580Y-140916666D01*
X151009580Y-140916666D02*
X150914342Y-140964285D01*
X150914342Y-140964285D02*
X150723866Y-141011904D01*
X150723866Y-141011904D02*
X150485771Y-141011904D01*
X150485771Y-141011904D02*
X150295295Y-140964285D01*
X150295295Y-140964285D02*
X150200057Y-140916666D01*
X150200057Y-140916666D02*
X150152438Y-140869047D01*
X150152438Y-140869047D02*
X150104819Y-140773809D01*
X150104819Y-139821428D02*
X150104819Y-139726190D01*
X150104819Y-139726190D02*
X150152438Y-139630952D01*
X150152438Y-139630952D02*
X150200057Y-139583333D01*
X150200057Y-139583333D02*
X150295295Y-139535714D01*
X150295295Y-139535714D02*
X150485771Y-139488095D01*
X150485771Y-139488095D02*
X150723866Y-139488095D01*
X150723866Y-139488095D02*
X150914342Y-139535714D01*
X150914342Y-139535714D02*
X151009580Y-139583333D01*
X151009580Y-139583333D02*
X151057200Y-139630952D01*
X151057200Y-139630952D02*
X151104819Y-139726190D01*
X151104819Y-139726190D02*
X151104819Y-139821428D01*
X151104819Y-139821428D02*
X151057200Y-139916666D01*
X151057200Y-139916666D02*
X151009580Y-139964285D01*
X151009580Y-139964285D02*
X150914342Y-140011904D01*
X150914342Y-140011904D02*
X150723866Y-140059523D01*
X150723866Y-140059523D02*
X150485771Y-140059523D01*
X150485771Y-140059523D02*
X150295295Y-140011904D01*
X150295295Y-140011904D02*
X150200057Y-139964285D01*
X150200057Y-139964285D02*
X150152438Y-139916666D01*
X150152438Y-139916666D02*
X150104819Y-139821428D01*
X150104819Y-138869047D02*
X150104819Y-138773809D01*
X150104819Y-138773809D02*
X150152438Y-138678571D01*
X150152438Y-138678571D02*
X150200057Y-138630952D01*
X150200057Y-138630952D02*
X150295295Y-138583333D01*
X150295295Y-138583333D02*
X150485771Y-138535714D01*
X150485771Y-138535714D02*
X150723866Y-138535714D01*
X150723866Y-138535714D02*
X150914342Y-138583333D01*
X150914342Y-138583333D02*
X151009580Y-138630952D01*
X151009580Y-138630952D02*
X151057200Y-138678571D01*
X151057200Y-138678571D02*
X151104819Y-138773809D01*
X151104819Y-138773809D02*
X151104819Y-138869047D01*
X151104819Y-138869047D02*
X151057200Y-138964285D01*
X151057200Y-138964285D02*
X151009580Y-139011904D01*
X151009580Y-139011904D02*
X150914342Y-139059523D01*
X150914342Y-139059523D02*
X150723866Y-139107142D01*
X150723866Y-139107142D02*
X150485771Y-139107142D01*
X150485771Y-139107142D02*
X150295295Y-139059523D01*
X150295295Y-139059523D02*
X150200057Y-139011904D01*
X150200057Y-139011904D02*
X150152438Y-138964285D01*
X150152438Y-138964285D02*
X150104819Y-138869047D01*
X151104819Y-137345237D02*
X150438152Y-137345237D01*
X150533390Y-137345237D02*
X150485771Y-137297618D01*
X150485771Y-137297618D02*
X150438152Y-137202380D01*
X150438152Y-137202380D02*
X150438152Y-137059523D01*
X150438152Y-137059523D02*
X150485771Y-136964285D01*
X150485771Y-136964285D02*
X150581009Y-136916666D01*
X150581009Y-136916666D02*
X151104819Y-136916666D01*
X150581009Y-136916666D02*
X150485771Y-136869047D01*
X150485771Y-136869047D02*
X150438152Y-136773809D01*
X150438152Y-136773809D02*
X150438152Y-136630952D01*
X150438152Y-136630952D02*
X150485771Y-136535713D01*
X150485771Y-136535713D02*
X150581009Y-136488094D01*
X150581009Y-136488094D02*
X151104819Y-136488094D01*
X151104819Y-136011904D02*
X150438152Y-136011904D01*
X150533390Y-136011904D02*
X150485771Y-135964285D01*
X150485771Y-135964285D02*
X150438152Y-135869047D01*
X150438152Y-135869047D02*
X150438152Y-135726190D01*
X150438152Y-135726190D02*
X150485771Y-135630952D01*
X150485771Y-135630952D02*
X150581009Y-135583333D01*
X150581009Y-135583333D02*
X151104819Y-135583333D01*
X150581009Y-135583333D02*
X150485771Y-135535714D01*
X150485771Y-135535714D02*
X150438152Y-135440476D01*
X150438152Y-135440476D02*
X150438152Y-135297619D01*
X150438152Y-135297619D02*
X150485771Y-135202380D01*
X150485771Y-135202380D02*
X150581009Y-135154761D01*
X150581009Y-135154761D02*
X151104819Y-135154761D01*
D10*
X168000000Y-143250000D02*
X151213580Y-143250000D01*
X168000000Y-135250000D02*
X151213580Y-135250000D01*
X151800000Y-143250000D02*
X151800000Y-135250000D01*
X151800000Y-143250000D02*
X151800000Y-135250000D01*
X151800000Y-143250000D02*
X151213579Y-142123496D01*
X151800000Y-143250000D02*
X152386421Y-142123496D01*
X151800000Y-135250000D02*
X152386421Y-136376504D01*
X151800000Y-135250000D02*
X151213579Y-136376504D01*
D14*
X167261904Y-143432395D02*
X167261904Y-143032395D01*
X167490475Y-143432395D02*
X167319046Y-143203824D01*
X167490475Y-143032395D02*
X167261904Y-143260967D01*
X167661904Y-143222871D02*
X167795237Y-143222871D01*
X167852380Y-143432395D02*
X167661904Y-143432395D01*
X167661904Y-143432395D02*
X167661904Y-143032395D01*
X167661904Y-143032395D02*
X167852380Y-143032395D01*
X168023809Y-143222871D02*
X168157142Y-143222871D01*
X168214285Y-143432395D02*
X168023809Y-143432395D01*
X168023809Y-143432395D02*
X168023809Y-143032395D01*
X168023809Y-143032395D02*
X168214285Y-143032395D01*
X168385714Y-143432395D02*
X168385714Y-143032395D01*
X168385714Y-143032395D02*
X168538095Y-143032395D01*
X168538095Y-143032395D02*
X168576190Y-143051443D01*
X168576190Y-143051443D02*
X168595237Y-143070490D01*
X168595237Y-143070490D02*
X168614285Y-143108586D01*
X168614285Y-143108586D02*
X168614285Y-143165728D01*
X168614285Y-143165728D02*
X168595237Y-143203824D01*
X168595237Y-143203824D02*
X168576190Y-143222871D01*
X168576190Y-143222871D02*
X168538095Y-143241919D01*
X168538095Y-143241919D02*
X168385714Y-143241919D01*
X168861904Y-143032395D02*
X168938095Y-143032395D01*
X168938095Y-143032395D02*
X168976190Y-143051443D01*
X168976190Y-143051443D02*
X169014285Y-143089538D01*
X169014285Y-143089538D02*
X169033333Y-143165728D01*
X169033333Y-143165728D02*
X169033333Y-143299062D01*
X169033333Y-143299062D02*
X169014285Y-143375252D01*
X169014285Y-143375252D02*
X168976190Y-143413348D01*
X168976190Y-143413348D02*
X168938095Y-143432395D01*
X168938095Y-143432395D02*
X168861904Y-143432395D01*
X168861904Y-143432395D02*
X168823809Y-143413348D01*
X168823809Y-143413348D02*
X168785714Y-143375252D01*
X168785714Y-143375252D02*
X168766666Y-143299062D01*
X168766666Y-143299062D02*
X168766666Y-143165728D01*
X168766666Y-143165728D02*
X168785714Y-143089538D01*
X168785714Y-143089538D02*
X168823809Y-143051443D01*
X168823809Y-143051443D02*
X168861904Y-143032395D01*
X169204762Y-143032395D02*
X169204762Y-143356205D01*
X169204762Y-143356205D02*
X169223809Y-143394300D01*
X169223809Y-143394300D02*
X169242857Y-143413348D01*
X169242857Y-143413348D02*
X169280952Y-143432395D01*
X169280952Y-143432395D02*
X169357143Y-143432395D01*
X169357143Y-143432395D02*
X169395238Y-143413348D01*
X169395238Y-143413348D02*
X169414285Y-143394300D01*
X169414285Y-143394300D02*
X169433333Y-143356205D01*
X169433333Y-143356205D02*
X169433333Y-143032395D01*
X169566667Y-143032395D02*
X169795238Y-143032395D01*
X169680952Y-143432395D02*
X169680952Y-143032395D01*
M02*
