%TF.GenerationSoftware,KiCad,Pcbnew,8.0.4*%
%TF.CreationDate,2024-12-22T16:52:19+00:00*%
%TF.ProjectId,main_board,6d61696e-5f62-46f6-9172-642e6b696361,rev?*%
%TF.SameCoordinates,Original*%
%TF.FileFunction,Copper,L2,Inr*%
%TF.FilePolarity,Positive*%
%FSLAX46Y46*%
G04 Gerber Fmt 4.6, Leading zero omitted, Abs format (unit mm)*
G04 Created by KiCad (PCBNEW 8.0.4) date 2024-12-22 16:52:19*
%MOMM*%
%LPD*%
G01*
G04 APERTURE LIST*
G04 Aperture macros list*
%AMRoundRect*
0 Rectangle with rounded corners*
0 $1 Rounding radius*
0 $2 $3 $4 $5 $6 $7 $8 $9 X,Y pos of 4 corners*
0 Add a 4 corners polygon primitive as box body*
4,1,4,$2,$3,$4,$5,$6,$7,$8,$9,$2,$3,0*
0 Add four circle primitives for the rounded corners*
1,1,$1+$1,$2,$3*
1,1,$1+$1,$4,$5*
1,1,$1+$1,$6,$7*
1,1,$1+$1,$8,$9*
0 Add four rect primitives between the rounded corners*
20,1,$1+$1,$2,$3,$4,$5,0*
20,1,$1+$1,$4,$5,$6,$7,0*
20,1,$1+$1,$6,$7,$8,$9,0*
20,1,$1+$1,$8,$9,$2,$3,0*%
G04 Aperture macros list end*
%TA.AperFunction,ComponentPad*%
%ADD10O,3.100000X2.300000*%
%TD*%
%TA.AperFunction,ComponentPad*%
%ADD11RoundRect,0.650000X-0.650000X-0.650000X0.650000X-0.650000X0.650000X0.650000X-0.650000X0.650000X0*%
%TD*%
%TA.AperFunction,ComponentPad*%
%ADD12R,1.700000X1.700000*%
%TD*%
%TA.AperFunction,ComponentPad*%
%ADD13O,1.700000X1.700000*%
%TD*%
%TA.AperFunction,ComponentPad*%
%ADD14C,4.000000*%
%TD*%
%TA.AperFunction,ComponentPad*%
%ADD15C,2.000000*%
%TD*%
%TA.AperFunction,HeatsinkPad*%
%ADD16C,0.600000*%
%TD*%
%TA.AperFunction,ViaPad*%
%ADD17C,0.600000*%
%TD*%
G04 APERTURE END LIST*
D10*
%TO.N,GND*%
%TO.C,J1*%
X168500000Y-149730000D03*
D11*
%TO.N,Net-(FB3-Pad2)*%
X168500000Y-138330000D03*
%TO.N,GND*%
X168500000Y-146630000D03*
%TD*%
D12*
%TO.N,GND*%
%TO.C,J2*%
X205750000Y-151500000D03*
D13*
%TO.N,Net-(J2-Pin_2)*%
X205750000Y-148960000D03*
%TD*%
D14*
%TO.N,*%
%TO.C,RV1*%
X192600000Y-143750000D03*
X201400000Y-143750000D03*
D15*
%TO.N,Net-(R3-Pad2)*%
X199500000Y-150750000D03*
%TO.N,Net-(C13-Pad2)*%
X197000000Y-150750000D03*
%TO.N,GND*%
X194500000Y-150750000D03*
%TD*%
D16*
%TO.N,GND*%
%TO.C,U2*%
X181500000Y-140700000D03*
X181500000Y-142300000D03*
X181500000Y-143900000D03*
X181500000Y-145500000D03*
X183750000Y-140700000D03*
X183750000Y-142300000D03*
X183750000Y-143900000D03*
X183750000Y-145500000D03*
%TD*%
D12*
%TO.N,Net-(C14-Pad2)*%
%TO.C,LS1*%
X206000000Y-135000000D03*
D13*
%TO.N,Net-(C15-Pad1)*%
X206000000Y-137540000D03*
%TD*%
D17*
%TO.N,GND*%
X181300000Y-138900000D03*
X184273536Y-147053997D03*
X178693778Y-143294989D03*
X178674999Y-140200000D03*
X185000000Y-135500000D03*
X182000000Y-148500000D03*
X182500000Y-149500000D03*
X176400000Y-143700000D03*
X187000000Y-144700000D03*
X181400000Y-147000000D03*
X182700000Y-147000000D03*
X182500000Y-143000000D03*
X182934315Y-150934315D03*
X184603740Y-151801869D03*
X177500000Y-134500000D03*
X179809620Y-150690380D03*
X183500000Y-135500000D03*
X179059620Y-149940380D03*
X178559620Y-136440380D03*
X182000000Y-140000000D03*
X195384864Y-136300000D03*
X191750000Y-134750000D03*
X175300000Y-151700000D03*
X181000000Y-148500000D03*
X179500000Y-135500000D03*
X180500000Y-136500000D03*
X197700000Y-137200000D03*
X182500000Y-136500000D03*
X180800000Y-141900000D03*
X181000000Y-149500000D03*
X182500000Y-144750000D03*
X180500000Y-134500000D03*
X186750000Y-141500000D03*
X182000000Y-150500000D03*
X176600000Y-140500000D03*
X173000000Y-139700000D03*
X183800000Y-138900000D03*
X183500000Y-147500000D03*
X182500000Y-134500000D03*
X175000000Y-146500000D03*
X186500000Y-134900000D03*
X178500000Y-134500000D03*
X184500000Y-134500000D03*
X182600000Y-138900000D03*
X181500000Y-135500000D03*
X180000000Y-148500000D03*
X163400000Y-137000000D03*
X184000000Y-136500000D03*
X182500000Y-141500000D03*
X178000000Y-135500000D03*
X182000000Y-147500000D03*
%TO.N,+12V*%
X173711085Y-137145843D03*
X177640380Y-150559620D03*
X189900000Y-147500000D03*
X189900000Y-144700000D03*
%TO.N,Net-(U2-OUTNL)*%
X186750000Y-140649997D03*
%TO.N,Net-(U2-OUTNR)*%
X186800000Y-146300000D03*
%TO.N,Net-(U2-RINP)*%
X177750000Y-147500000D03*
X191100000Y-151800000D03*
%TO.N,Net-(U2-AVCC)*%
X175400000Y-136100000D03*
X173912500Y-137950000D03*
%TO.N,Net-(C14-Pad2)*%
X196900000Y-136700000D03*
%TO.N,Net-(C15-Pad1)*%
X200500000Y-137500000D03*
%TD*%
%TA.AperFunction,Conductor*%
%TO.N,GND*%
G36*
X168750000Y-149430000D02*
G01*
X168250000Y-149430000D01*
X168250000Y-146930000D01*
X168750000Y-146930000D01*
X168750000Y-149430000D01*
G37*
%TD.AperFunction*%
%TA.AperFunction,Conductor*%
G36*
X206255395Y-133450972D02*
G01*
X206421434Y-133465498D01*
X206442719Y-133469250D01*
X206598476Y-133510986D01*
X206618784Y-133518378D01*
X206764919Y-133586521D01*
X206783631Y-133597324D01*
X206821622Y-133623926D01*
X206865246Y-133678503D01*
X206872438Y-133748002D01*
X206840915Y-133810356D01*
X206780685Y-133845769D01*
X206750497Y-133849500D01*
X205105143Y-133849500D01*
X205105117Y-133849502D01*
X205080012Y-133852413D01*
X205080008Y-133852415D01*
X204977235Y-133897793D01*
X204897794Y-133977234D01*
X204852415Y-134080006D01*
X204852415Y-134080008D01*
X204849500Y-134105131D01*
X204849500Y-135894856D01*
X204849502Y-135894882D01*
X204852413Y-135919987D01*
X204852415Y-135919991D01*
X204897793Y-136022764D01*
X204897794Y-136022765D01*
X204977235Y-136102206D01*
X205080009Y-136147585D01*
X205105135Y-136150500D01*
X205833758Y-136150499D01*
X205900795Y-136170183D01*
X205946550Y-136222987D01*
X205956494Y-136292146D01*
X205927469Y-136355702D01*
X205868691Y-136393476D01*
X205856542Y-136396388D01*
X205822033Y-136402839D01*
X205683802Y-136428679D01*
X205683800Y-136428679D01*
X205683798Y-136428680D01*
X205484982Y-136505701D01*
X205484980Y-136505702D01*
X205303699Y-136617947D01*
X205146127Y-136761593D01*
X205017632Y-136931746D01*
X204922596Y-137122605D01*
X204922596Y-137122607D01*
X204864244Y-137327689D01*
X204844571Y-137539999D01*
X204844571Y-137540000D01*
X204864244Y-137752310D01*
X204922596Y-137957392D01*
X204922596Y-137957394D01*
X205017632Y-138148253D01*
X205146127Y-138318406D01*
X205146128Y-138318407D01*
X205303698Y-138462052D01*
X205484981Y-138574298D01*
X205683802Y-138651321D01*
X205893390Y-138690500D01*
X205893392Y-138690500D01*
X206106608Y-138690500D01*
X206106610Y-138690500D01*
X206316198Y-138651321D01*
X206515019Y-138574298D01*
X206696302Y-138462052D01*
X206853872Y-138318407D01*
X206982366Y-138148255D01*
X207062435Y-137987454D01*
X207064500Y-137983307D01*
X207112002Y-137932070D01*
X207179665Y-137914648D01*
X207246006Y-137936573D01*
X207289961Y-137990884D01*
X207299500Y-138038578D01*
X207299500Y-150407381D01*
X207279815Y-150474420D01*
X207227011Y-150520175D01*
X207157853Y-150530119D01*
X207094297Y-150501094D01*
X207059318Y-150450714D01*
X207043354Y-150407913D01*
X207043350Y-150407906D01*
X206957190Y-150292812D01*
X206957187Y-150292809D01*
X206842093Y-150206649D01*
X206842086Y-150206645D01*
X206707379Y-150156403D01*
X206707372Y-150156401D01*
X206647844Y-150150000D01*
X206449366Y-150150000D01*
X206382327Y-150130315D01*
X206336572Y-150077511D01*
X206326628Y-150008353D01*
X206355653Y-149944797D01*
X206384089Y-149920573D01*
X206404449Y-149907966D01*
X206446302Y-149882052D01*
X206603872Y-149738407D01*
X206732366Y-149568255D01*
X206754772Y-149523258D01*
X206827403Y-149377394D01*
X206827403Y-149377393D01*
X206827405Y-149377389D01*
X206885756Y-149172310D01*
X206905429Y-148960000D01*
X206885756Y-148747690D01*
X206827405Y-148542611D01*
X206827403Y-148542606D01*
X206827403Y-148542605D01*
X206732367Y-148351746D01*
X206603872Y-148181593D01*
X206520602Y-148105682D01*
X206446302Y-148037948D01*
X206265019Y-147925702D01*
X206265017Y-147925701D01*
X206165608Y-147887190D01*
X206066198Y-147848679D01*
X205856610Y-147809500D01*
X205643390Y-147809500D01*
X205433802Y-147848679D01*
X205433799Y-147848679D01*
X205433799Y-147848680D01*
X205234982Y-147925701D01*
X205234980Y-147925702D01*
X205053699Y-148037947D01*
X204896127Y-148181593D01*
X204767632Y-148351746D01*
X204672596Y-148542605D01*
X204672596Y-148542607D01*
X204614244Y-148747689D01*
X204603355Y-148865208D01*
X204594571Y-148960000D01*
X204614244Y-149172310D01*
X204670956Y-149371630D01*
X204672596Y-149377392D01*
X204672596Y-149377394D01*
X204767632Y-149568253D01*
X204806281Y-149619432D01*
X204896128Y-149738407D01*
X205053698Y-149882052D01*
X205053700Y-149882053D01*
X205053701Y-149882054D01*
X205115911Y-149920573D01*
X205162547Y-149972601D01*
X205173651Y-150041582D01*
X205145698Y-150105617D01*
X205087563Y-150144373D01*
X205050634Y-150150000D01*
X204852155Y-150150000D01*
X204792627Y-150156401D01*
X204792620Y-150156403D01*
X204657913Y-150206645D01*
X204657906Y-150206649D01*
X204542812Y-150292809D01*
X204542809Y-150292812D01*
X204456649Y-150407906D01*
X204456645Y-150407913D01*
X204406403Y-150542620D01*
X204406401Y-150542627D01*
X204400000Y-150602155D01*
X204400000Y-151250000D01*
X205316988Y-151250000D01*
X205284075Y-151307007D01*
X205250000Y-151434174D01*
X205250000Y-151565826D01*
X205284075Y-151692993D01*
X205316988Y-151750000D01*
X204400000Y-151750000D01*
X204400000Y-152397844D01*
X204406401Y-152457372D01*
X204406403Y-152457379D01*
X204456645Y-152592086D01*
X204456649Y-152592093D01*
X204542809Y-152707187D01*
X204542812Y-152707190D01*
X204657906Y-152793350D01*
X204657913Y-152793354D01*
X204700714Y-152809318D01*
X204756648Y-152851189D01*
X204781065Y-152916654D01*
X204766213Y-152984927D01*
X204716808Y-153034332D01*
X204657381Y-153049500D01*
X159255412Y-153049500D01*
X159244605Y-153049028D01*
X159226275Y-153047424D01*
X159078565Y-153034501D01*
X159057279Y-153030748D01*
X158901524Y-152989013D01*
X158881214Y-152981620D01*
X158735083Y-152913479D01*
X158716364Y-152902672D01*
X158584280Y-152810186D01*
X158567722Y-152796292D01*
X158453707Y-152682277D01*
X158439813Y-152665719D01*
X158347327Y-152533635D01*
X158336520Y-152514916D01*
X158309690Y-152457379D01*
X158268378Y-152368784D01*
X158260986Y-152348475D01*
X158254571Y-152324536D01*
X158219250Y-152192719D01*
X158215498Y-152171433D01*
X158200972Y-152005395D01*
X158200500Y-151994588D01*
X158200500Y-151799998D01*
X190494318Y-151799998D01*
X190494318Y-151800001D01*
X190514955Y-151956760D01*
X190514956Y-151956762D01*
X190537031Y-152010057D01*
X190575464Y-152102841D01*
X190671718Y-152228282D01*
X190797159Y-152324536D01*
X190943238Y-152385044D01*
X191021619Y-152395363D01*
X191099999Y-152405682D01*
X191100000Y-152405682D01*
X191100001Y-152405682D01*
X191159536Y-152397844D01*
X191256762Y-152385044D01*
X191402841Y-152324536D01*
X191528282Y-152228282D01*
X191624536Y-152102841D01*
X191685044Y-151956762D01*
X191705682Y-151800000D01*
X191699099Y-151750000D01*
X191685044Y-151643239D01*
X191685044Y-151643238D01*
X191624536Y-151497159D01*
X191528282Y-151371718D01*
X191402841Y-151275464D01*
X191388889Y-151269685D01*
X191256762Y-151214956D01*
X191256760Y-151214955D01*
X191100001Y-151194318D01*
X191099999Y-151194318D01*
X190943239Y-151214955D01*
X190943237Y-151214956D01*
X190797160Y-151275463D01*
X190671718Y-151371718D01*
X190575463Y-151497160D01*
X190514956Y-151643237D01*
X190514955Y-151643239D01*
X190494318Y-151799998D01*
X158200500Y-151799998D01*
X158200500Y-149480000D01*
X166469029Y-149480000D01*
X167833012Y-149480000D01*
X167815795Y-149489940D01*
X167759940Y-149545795D01*
X167720444Y-149614204D01*
X167700000Y-149690504D01*
X167700000Y-149769496D01*
X167720444Y-149845796D01*
X167759940Y-149914205D01*
X167815795Y-149970060D01*
X167833012Y-149980000D01*
X166469029Y-149980000D01*
X166490629Y-150116377D01*
X166570883Y-150363377D01*
X166688796Y-150594791D01*
X166841445Y-150804896D01*
X166841449Y-150804901D01*
X167025098Y-150988550D01*
X167025103Y-150988554D01*
X167235208Y-151141203D01*
X167466622Y-151259116D01*
X167713622Y-151339370D01*
X167970143Y-151380000D01*
X168250000Y-151380000D01*
X168250000Y-150030000D01*
X168750000Y-150030000D01*
X168750000Y-151380000D01*
X169029857Y-151380000D01*
X169286377Y-151339370D01*
X169533377Y-151259116D01*
X169764791Y-151141203D01*
X169974896Y-150988554D01*
X169974901Y-150988550D01*
X170158550Y-150804901D01*
X170158554Y-150804896D01*
X170311203Y-150594791D01*
X170329125Y-150559618D01*
X177034698Y-150559618D01*
X177034698Y-150559621D01*
X177055335Y-150716380D01*
X177055336Y-150716382D01*
X177115844Y-150862461D01*
X177212098Y-150987902D01*
X177337539Y-151084156D01*
X177483618Y-151144664D01*
X177561999Y-151154983D01*
X177640379Y-151165302D01*
X177640380Y-151165302D01*
X177640381Y-151165302D01*
X177692634Y-151158422D01*
X177797142Y-151144664D01*
X177943221Y-151084156D01*
X178068662Y-150987902D01*
X178164916Y-150862461D01*
X178211501Y-150749994D01*
X192994859Y-150749994D01*
X192994859Y-150750005D01*
X193015385Y-150997729D01*
X193015387Y-150997738D01*
X193076412Y-151238717D01*
X193176266Y-151466364D01*
X193276564Y-151619882D01*
X194017037Y-150879409D01*
X194034075Y-150942993D01*
X194099901Y-151057007D01*
X194192993Y-151150099D01*
X194307007Y-151215925D01*
X194370590Y-151232962D01*
X193629942Y-151973609D01*
X193676768Y-152010055D01*
X193676770Y-152010056D01*
X193895385Y-152128364D01*
X193895396Y-152128369D01*
X194130506Y-152209083D01*
X194375707Y-152250000D01*
X194624293Y-152250000D01*
X194869493Y-152209083D01*
X195104603Y-152128369D01*
X195104614Y-152128364D01*
X195323228Y-152010057D01*
X195323231Y-152010055D01*
X195370056Y-151973609D01*
X194629409Y-151232962D01*
X194692993Y-151215925D01*
X194807007Y-151150099D01*
X194900099Y-151057007D01*
X194965925Y-150942993D01*
X194982962Y-150879410D01*
X195723434Y-151619882D01*
X195767044Y-151553132D01*
X195820191Y-151507775D01*
X195889422Y-151498351D01*
X195952758Y-151527853D01*
X195972428Y-151549829D01*
X195999956Y-151589143D01*
X196160858Y-151750045D01*
X196160861Y-151750047D01*
X196347266Y-151880568D01*
X196553504Y-151976739D01*
X196773308Y-152035635D01*
X196935230Y-152049801D01*
X196999998Y-152055468D01*
X197000000Y-152055468D01*
X197000002Y-152055468D01*
X197056673Y-152050509D01*
X197226692Y-152035635D01*
X197446496Y-151976739D01*
X197652734Y-151880568D01*
X197839139Y-151750047D01*
X198000047Y-151589139D01*
X198130568Y-151402734D01*
X198137618Y-151387614D01*
X198183789Y-151335176D01*
X198250982Y-151316023D01*
X198317864Y-151336238D01*
X198362381Y-151387614D01*
X198369432Y-151402733D01*
X198369432Y-151402734D01*
X198499954Y-151589141D01*
X198660858Y-151750045D01*
X198660861Y-151750047D01*
X198847266Y-151880568D01*
X199053504Y-151976739D01*
X199273308Y-152035635D01*
X199435230Y-152049801D01*
X199499998Y-152055468D01*
X199500000Y-152055468D01*
X199500002Y-152055468D01*
X199556673Y-152050509D01*
X199726692Y-152035635D01*
X199946496Y-151976739D01*
X200152734Y-151880568D01*
X200339139Y-151750047D01*
X200500047Y-151589139D01*
X200630568Y-151402734D01*
X200726739Y-151196496D01*
X200785635Y-150976692D01*
X200805468Y-150750000D01*
X200805467Y-150749994D01*
X200788812Y-150559620D01*
X200785635Y-150523308D01*
X200726739Y-150303504D01*
X200630568Y-150097266D01*
X200506847Y-149920573D01*
X200500045Y-149910858D01*
X200339141Y-149749954D01*
X200152734Y-149619432D01*
X200152732Y-149619431D01*
X199946497Y-149523261D01*
X199946488Y-149523258D01*
X199726697Y-149464366D01*
X199726693Y-149464365D01*
X199726692Y-149464365D01*
X199726691Y-149464364D01*
X199726686Y-149464364D01*
X199500002Y-149444532D01*
X199499998Y-149444532D01*
X199273313Y-149464364D01*
X199273302Y-149464366D01*
X199053511Y-149523258D01*
X199053502Y-149523261D01*
X198847267Y-149619431D01*
X198847265Y-149619432D01*
X198660858Y-149749954D01*
X198499954Y-149910858D01*
X198383264Y-150077511D01*
X198369432Y-150097266D01*
X198362380Y-150112387D01*
X198316209Y-150164825D01*
X198249015Y-150183976D01*
X198182134Y-150163760D01*
X198137619Y-150112387D01*
X198130568Y-150097266D01*
X198006847Y-149920573D01*
X198000045Y-149910858D01*
X197839141Y-149749954D01*
X197652734Y-149619432D01*
X197652732Y-149619431D01*
X197446497Y-149523261D01*
X197446488Y-149523258D01*
X197226697Y-149464366D01*
X197226693Y-149464365D01*
X197226692Y-149464365D01*
X197226691Y-149464364D01*
X197226686Y-149464364D01*
X197000002Y-149444532D01*
X196999998Y-149444532D01*
X196773313Y-149464364D01*
X196773302Y-149464366D01*
X196553511Y-149523258D01*
X196553502Y-149523261D01*
X196347267Y-149619431D01*
X196347265Y-149619432D01*
X196160858Y-149749954D01*
X195999952Y-149910860D01*
X195972428Y-149950169D01*
X195917851Y-149993794D01*
X195848353Y-150000986D01*
X195785998Y-149969463D01*
X195767046Y-149946867D01*
X195723434Y-149880116D01*
X194982962Y-150620589D01*
X194965925Y-150557007D01*
X194900099Y-150442993D01*
X194807007Y-150349901D01*
X194692993Y-150284075D01*
X194629410Y-150267037D01*
X195370057Y-149526390D01*
X195370056Y-149526389D01*
X195323229Y-149489943D01*
X195104614Y-149371635D01*
X195104603Y-149371630D01*
X194869493Y-149290916D01*
X194624293Y-149250000D01*
X194375707Y-149250000D01*
X194130506Y-149290916D01*
X193895396Y-149371630D01*
X193895390Y-149371632D01*
X193676761Y-149489949D01*
X193629942Y-149526388D01*
X193629942Y-149526390D01*
X194370590Y-150267037D01*
X194307007Y-150284075D01*
X194192993Y-150349901D01*
X194099901Y-150442993D01*
X194034075Y-150557007D01*
X194017037Y-150620589D01*
X193276564Y-149880116D01*
X193176267Y-150033632D01*
X193076412Y-150261282D01*
X193015387Y-150502261D01*
X193015385Y-150502270D01*
X192994859Y-150749994D01*
X178211501Y-150749994D01*
X178225424Y-150716382D01*
X178246062Y-150559620D01*
X178241281Y-150523308D01*
X178226089Y-150407913D01*
X178225424Y-150402858D01*
X178164916Y-150256779D01*
X178068662Y-150131338D01*
X177943221Y-150035084D01*
X177930947Y-150030000D01*
X177797142Y-149974576D01*
X177797140Y-149974575D01*
X177640381Y-149953938D01*
X177640379Y-149953938D01*
X177483619Y-149974575D01*
X177483617Y-149974576D01*
X177337540Y-150035083D01*
X177212098Y-150131338D01*
X177115843Y-150256780D01*
X177055336Y-150402857D01*
X177055335Y-150402859D01*
X177034698Y-150559618D01*
X170329125Y-150559618D01*
X170429116Y-150363377D01*
X170509370Y-150116377D01*
X170530971Y-149980000D01*
X169166988Y-149980000D01*
X169184205Y-149970060D01*
X169240060Y-149914205D01*
X169279556Y-149845796D01*
X169300000Y-149769496D01*
X169300000Y-149690504D01*
X169279556Y-149614204D01*
X169240060Y-149545795D01*
X169184205Y-149489940D01*
X169166988Y-149480000D01*
X170530971Y-149480000D01*
X170509370Y-149343622D01*
X170429116Y-149096622D01*
X170311203Y-148865208D01*
X170158554Y-148655103D01*
X170158550Y-148655098D01*
X169974901Y-148471449D01*
X169974896Y-148471445D01*
X169860218Y-148388127D01*
X169817552Y-148332798D01*
X169811573Y-148263184D01*
X169844178Y-148201389D01*
X169863029Y-148185508D01*
X169887817Y-148168528D01*
X170038525Y-148017820D01*
X170158971Y-147841990D01*
X170245053Y-147647032D01*
X170245058Y-147647017D01*
X170279637Y-147499998D01*
X177144318Y-147499998D01*
X177144318Y-147500001D01*
X177164955Y-147656760D01*
X177164956Y-147656762D01*
X177225464Y-147802841D01*
X177321718Y-147928282D01*
X177447159Y-148024536D01*
X177593238Y-148085044D01*
X177671619Y-148095363D01*
X177749999Y-148105682D01*
X177750000Y-148105682D01*
X177750001Y-148105682D01*
X177802254Y-148098802D01*
X177906762Y-148085044D01*
X178052841Y-148024536D01*
X178178282Y-147928282D01*
X178274536Y-147802841D01*
X178335044Y-147656762D01*
X178355682Y-147500000D01*
X178355682Y-147499998D01*
X189294318Y-147499998D01*
X189294318Y-147500001D01*
X189314955Y-147656760D01*
X189314956Y-147656762D01*
X189375464Y-147802841D01*
X189471718Y-147928282D01*
X189597159Y-148024536D01*
X189743238Y-148085044D01*
X189821619Y-148095363D01*
X189899999Y-148105682D01*
X189900000Y-148105682D01*
X189900001Y-148105682D01*
X189952254Y-148098802D01*
X190056762Y-148085044D01*
X190202841Y-148024536D01*
X190328282Y-147928282D01*
X190424536Y-147802841D01*
X190485044Y-147656762D01*
X190505682Y-147500000D01*
X190485044Y-147343238D01*
X190424536Y-147197159D01*
X190328282Y-147071718D01*
X190202841Y-146975464D01*
X190056762Y-146914956D01*
X190056760Y-146914955D01*
X189900001Y-146894318D01*
X189899999Y-146894318D01*
X189743239Y-146914955D01*
X189743237Y-146914956D01*
X189597160Y-146975463D01*
X189471718Y-147071718D01*
X189375463Y-147197160D01*
X189314956Y-147343237D01*
X189314955Y-147343239D01*
X189294318Y-147499998D01*
X178355682Y-147499998D01*
X178335044Y-147343238D01*
X178274536Y-147197159D01*
X178178282Y-147071718D01*
X178052841Y-146975464D01*
X177906762Y-146914956D01*
X177906760Y-146914955D01*
X177750001Y-146894318D01*
X177749999Y-146894318D01*
X177593239Y-146914955D01*
X177593237Y-146914956D01*
X177447160Y-146975463D01*
X177321718Y-147071718D01*
X177225463Y-147197160D01*
X177164956Y-147343237D01*
X177164955Y-147343239D01*
X177144318Y-147499998D01*
X170279637Y-147499998D01*
X170293850Y-147439570D01*
X170293852Y-147439555D01*
X170300000Y-147350988D01*
X170300000Y-146880000D01*
X169166988Y-146880000D01*
X169184205Y-146870060D01*
X169240060Y-146814205D01*
X169279556Y-146745796D01*
X169300000Y-146669496D01*
X169300000Y-146590504D01*
X169279556Y-146514204D01*
X169240060Y-146445795D01*
X169184205Y-146389940D01*
X169166988Y-146380000D01*
X170299999Y-146380000D01*
X170299999Y-146216660D01*
X181136892Y-146216660D01*
X181136892Y-146216661D01*
X181150692Y-146225333D01*
X181150691Y-146225333D01*
X181320861Y-146284878D01*
X181499997Y-146305062D01*
X181500003Y-146305062D01*
X181679138Y-146284878D01*
X181679141Y-146284877D01*
X181849305Y-146225334D01*
X181849306Y-146225334D01*
X181863106Y-146216661D01*
X181863106Y-146216660D01*
X183386892Y-146216660D01*
X183386892Y-146216661D01*
X183400692Y-146225333D01*
X183400691Y-146225333D01*
X183570861Y-146284878D01*
X183749997Y-146305062D01*
X183750003Y-146305062D01*
X183794947Y-146299998D01*
X186194318Y-146299998D01*
X186194318Y-146300001D01*
X186214955Y-146456760D01*
X186214956Y-146456762D01*
X186275464Y-146602841D01*
X186371718Y-146728282D01*
X186497159Y-146824536D01*
X186643238Y-146885044D01*
X186713681Y-146894318D01*
X186799999Y-146905682D01*
X186800000Y-146905682D01*
X186800001Y-146905682D01*
X186852254Y-146898802D01*
X186956762Y-146885044D01*
X187102841Y-146824536D01*
X187228282Y-146728282D01*
X187324536Y-146602841D01*
X187385044Y-146456762D01*
X187399041Y-146350444D01*
X187405682Y-146300001D01*
X187405682Y-146299998D01*
X187385044Y-146143239D01*
X187385044Y-146143238D01*
X187324536Y-145997159D01*
X187228282Y-145871718D01*
X187102841Y-145775464D01*
X187033070Y-145746564D01*
X186956762Y-145714956D01*
X186956760Y-145714955D01*
X186800001Y-145694318D01*
X186799999Y-145694318D01*
X186643239Y-145714955D01*
X186643237Y-145714956D01*
X186497160Y-145775463D01*
X186371718Y-145871718D01*
X186275463Y-145997160D01*
X186214956Y-146143237D01*
X186214955Y-146143239D01*
X186194318Y-146299998D01*
X183794947Y-146299998D01*
X183929138Y-146284878D01*
X183929141Y-146284877D01*
X184099305Y-146225334D01*
X184099306Y-146225334D01*
X184113106Y-146216661D01*
X184113106Y-146216660D01*
X183750001Y-145853553D01*
X183750000Y-145853553D01*
X183386892Y-146216660D01*
X181863106Y-146216660D01*
X181500001Y-145853553D01*
X181500000Y-145853553D01*
X181136892Y-146216660D01*
X170299999Y-146216660D01*
X170299999Y-145909011D01*
X170293852Y-145820440D01*
X170293851Y-145820431D01*
X170245058Y-145612982D01*
X170245053Y-145612967D01*
X170195172Y-145499997D01*
X180694938Y-145499997D01*
X180694938Y-145500002D01*
X180715121Y-145679138D01*
X180774665Y-145849304D01*
X180783338Y-145863107D01*
X181146446Y-145500000D01*
X181146446Y-145499999D01*
X181116610Y-145470163D01*
X181350000Y-145470163D01*
X181350000Y-145529837D01*
X181372836Y-145584968D01*
X181415032Y-145627164D01*
X181470163Y-145650000D01*
X181529837Y-145650000D01*
X181584968Y-145627164D01*
X181627164Y-145584968D01*
X181650000Y-145529837D01*
X181650000Y-145500000D01*
X181853553Y-145500000D01*
X182216660Y-145863106D01*
X182216661Y-145863106D01*
X182225334Y-145849306D01*
X182225334Y-145849305D01*
X182284877Y-145679141D01*
X182284878Y-145679138D01*
X182305062Y-145500002D01*
X182305062Y-145499997D01*
X182944938Y-145499997D01*
X182944938Y-145500002D01*
X182965121Y-145679138D01*
X183024665Y-145849304D01*
X183033338Y-145863107D01*
X183396446Y-145500000D01*
X183396446Y-145499999D01*
X183366610Y-145470163D01*
X183600000Y-145470163D01*
X183600000Y-145529837D01*
X183622836Y-145584968D01*
X183665032Y-145627164D01*
X183720163Y-145650000D01*
X183779837Y-145650000D01*
X183834968Y-145627164D01*
X183877164Y-145584968D01*
X183900000Y-145529837D01*
X183900000Y-145500000D01*
X184103553Y-145500000D01*
X184466660Y-145863106D01*
X184466661Y-145863106D01*
X184475334Y-145849306D01*
X184475334Y-145849305D01*
X184534877Y-145679141D01*
X184534878Y-145679138D01*
X184555062Y-145500002D01*
X184555062Y-145499997D01*
X184534878Y-145320861D01*
X184475333Y-145150692D01*
X184466661Y-145136892D01*
X184466660Y-145136892D01*
X184103553Y-145500000D01*
X183900000Y-145500000D01*
X183900000Y-145470163D01*
X183877164Y-145415032D01*
X183834968Y-145372836D01*
X183779837Y-145350000D01*
X183720163Y-145350000D01*
X183665032Y-145372836D01*
X183622836Y-145415032D01*
X183600000Y-145470163D01*
X183366610Y-145470163D01*
X183033338Y-145136891D01*
X183033337Y-145136891D01*
X183024667Y-145150691D01*
X183024662Y-145150701D01*
X182965122Y-145320858D01*
X182965121Y-145320861D01*
X182944938Y-145499997D01*
X182305062Y-145499997D01*
X182284878Y-145320861D01*
X182225333Y-145150692D01*
X182216661Y-145136892D01*
X182216660Y-145136892D01*
X181853553Y-145500000D01*
X181650000Y-145500000D01*
X181650000Y-145470163D01*
X181627164Y-145415032D01*
X181584968Y-145372836D01*
X181529837Y-145350000D01*
X181470163Y-145350000D01*
X181415032Y-145372836D01*
X181372836Y-145415032D01*
X181350000Y-145470163D01*
X181116610Y-145470163D01*
X180783338Y-145136891D01*
X180783337Y-145136891D01*
X180774667Y-145150691D01*
X180774662Y-145150701D01*
X180715122Y-145320858D01*
X180715121Y-145320861D01*
X180694938Y-145499997D01*
X170195172Y-145499997D01*
X170158971Y-145418009D01*
X170038525Y-145242179D01*
X169887818Y-145091472D01*
X169764555Y-145007036D01*
X169720371Y-144952910D01*
X169712465Y-144883489D01*
X169743345Y-144820814D01*
X169760316Y-144805473D01*
X169789885Y-144783338D01*
X181136891Y-144783338D01*
X181500000Y-145146446D01*
X181500001Y-145146446D01*
X181863107Y-144783338D01*
X183386891Y-144783338D01*
X183750000Y-145146446D01*
X183750001Y-145146446D01*
X184113107Y-144783338D01*
X184110872Y-144763505D01*
X184101276Y-144752655D01*
X184093157Y-144699998D01*
X189294318Y-144699998D01*
X189294318Y-144700001D01*
X189314955Y-144856760D01*
X189314956Y-144856762D01*
X189371146Y-144992418D01*
X189375464Y-145002841D01*
X189471718Y-145128282D01*
X189597159Y-145224536D01*
X189743238Y-145285044D01*
X189821619Y-145295363D01*
X189899999Y-145305682D01*
X189900000Y-145305682D01*
X189900001Y-145305682D01*
X189952254Y-145298802D01*
X190056762Y-145285044D01*
X190202841Y-145224536D01*
X190328282Y-145128282D01*
X190424536Y-145002841D01*
X190429821Y-144990081D01*
X190473661Y-144935679D01*
X190539955Y-144913613D01*
X190607654Y-144930891D01*
X190647483Y-144968642D01*
X190759904Y-145136892D01*
X190770976Y-145153462D01*
X190969810Y-145380189D01*
X191196540Y-145579026D01*
X191447279Y-145746564D01*
X191447286Y-145746568D01*
X191717731Y-145879937D01*
X191717736Y-145879939D01*
X191717748Y-145879945D01*
X192003309Y-145976880D01*
X192178390Y-146011706D01*
X192299069Y-146035711D01*
X192299070Y-146035711D01*
X192299080Y-146035713D01*
X192600000Y-146055436D01*
X192900920Y-146035713D01*
X193196691Y-145976880D01*
X193482252Y-145879945D01*
X193752718Y-145746566D01*
X194003461Y-145579025D01*
X194230189Y-145380189D01*
X194429025Y-145153461D01*
X194596566Y-144902718D01*
X194729945Y-144632252D01*
X194826880Y-144346691D01*
X194885713Y-144050920D01*
X194905436Y-143750000D01*
X199094564Y-143750000D01*
X199104395Y-143900002D01*
X199114287Y-144050918D01*
X199114288Y-144050930D01*
X199173118Y-144346683D01*
X199173122Y-144346698D01*
X199270053Y-144632247D01*
X199270062Y-144632268D01*
X199403431Y-144902713D01*
X199403435Y-144902720D01*
X199570973Y-145153459D01*
X199769810Y-145380189D01*
X199996540Y-145579026D01*
X200247279Y-145746564D01*
X200247286Y-145746568D01*
X200517731Y-145879937D01*
X200517736Y-145879939D01*
X200517748Y-145879945D01*
X200803309Y-145976880D01*
X200978390Y-146011706D01*
X201099069Y-146035711D01*
X201099070Y-146035711D01*
X201099080Y-146035713D01*
X201400000Y-146055436D01*
X201700920Y-146035713D01*
X201996691Y-145976880D01*
X202282252Y-145879945D01*
X202552718Y-145746566D01*
X202803461Y-145579025D01*
X203030189Y-145380189D01*
X203229025Y-145153461D01*
X203396566Y-144902718D01*
X203529945Y-144632252D01*
X203626880Y-144346691D01*
X203685713Y-144050920D01*
X203705436Y-143750000D01*
X203685713Y-143449080D01*
X203626880Y-143153309D01*
X203529945Y-142867748D01*
X203474702Y-142755727D01*
X203396568Y-142597286D01*
X203396564Y-142597279D01*
X203229026Y-142346540D01*
X203030189Y-142119810D01*
X202803459Y-141920973D01*
X202552720Y-141753435D01*
X202552713Y-141753431D01*
X202282268Y-141620062D01*
X202282247Y-141620053D01*
X201996698Y-141523122D01*
X201996692Y-141523120D01*
X201996691Y-141523120D01*
X201996689Y-141523119D01*
X201996683Y-141523118D01*
X201700930Y-141464288D01*
X201700921Y-141464287D01*
X201700920Y-141464287D01*
X201400000Y-141444564D01*
X201099080Y-141464287D01*
X201099079Y-141464287D01*
X201099069Y-141464288D01*
X200803316Y-141523118D01*
X200803301Y-141523122D01*
X200517752Y-141620053D01*
X200517731Y-141620062D01*
X200247286Y-141753431D01*
X200247279Y-141753435D01*
X199996540Y-141920973D01*
X199769810Y-142119810D01*
X199570973Y-142346540D01*
X199403435Y-142597279D01*
X199403431Y-142597286D01*
X199270062Y-142867731D01*
X199270053Y-142867752D01*
X199173122Y-143153301D01*
X199173118Y-143153316D01*
X199114288Y-143449069D01*
X199114287Y-143449079D01*
X199114287Y-143449080D01*
X199094564Y-143750000D01*
X194905436Y-143750000D01*
X194885713Y-143449080D01*
X194826880Y-143153309D01*
X194729945Y-142867748D01*
X194674702Y-142755727D01*
X194596568Y-142597286D01*
X194596564Y-142597279D01*
X194429026Y-142346540D01*
X194230189Y-142119810D01*
X194003459Y-141920973D01*
X193752720Y-141753435D01*
X193752713Y-141753431D01*
X193482268Y-141620062D01*
X193482247Y-141620053D01*
X193196698Y-141523122D01*
X193196692Y-141523120D01*
X193196691Y-141523120D01*
X193196689Y-141523119D01*
X193196683Y-141523118D01*
X192900930Y-141464288D01*
X192900921Y-141464287D01*
X192900920Y-141464287D01*
X192600000Y-141444564D01*
X192299080Y-141464287D01*
X192299079Y-141464287D01*
X192299069Y-141464288D01*
X192003316Y-141523118D01*
X192003301Y-141523122D01*
X191717752Y-141620053D01*
X191717731Y-141620062D01*
X191447286Y-141753431D01*
X191447279Y-141753435D01*
X191196540Y-141920973D01*
X190969810Y-142119810D01*
X190770973Y-142346540D01*
X190603435Y-142597279D01*
X190603431Y-142597286D01*
X190470062Y-142867731D01*
X190470053Y-142867752D01*
X190373122Y-143153301D01*
X190373118Y-143153316D01*
X190314288Y-143449069D01*
X190314287Y-143449079D01*
X190314287Y-143449080D01*
X190313319Y-143463844D01*
X190294564Y-143750000D01*
X190312746Y-144027409D01*
X190297487Y-144095593D01*
X190247789Y-144144703D01*
X190179429Y-144159148D01*
X190141559Y-144150080D01*
X190056762Y-144114956D01*
X190056760Y-144114955D01*
X189900001Y-144094318D01*
X189899999Y-144094318D01*
X189743239Y-144114955D01*
X189743237Y-144114956D01*
X189597160Y-144175463D01*
X189471718Y-144271718D01*
X189375463Y-144397160D01*
X189314956Y-144543237D01*
X189314955Y-144543239D01*
X189294318Y-144699998D01*
X184093157Y-144699998D01*
X184090629Y-144683601D01*
X184110637Y-144638580D01*
X184113106Y-144616660D01*
X183750001Y-144253553D01*
X183750000Y-144253553D01*
X183386892Y-144616660D01*
X183389126Y-144636494D01*
X183398721Y-144647342D01*
X183409367Y-144716396D01*
X183389362Y-144761405D01*
X183386891Y-144783338D01*
X181863107Y-144783338D01*
X181860872Y-144763505D01*
X181851276Y-144752655D01*
X181840629Y-144683601D01*
X181860637Y-144638580D01*
X181863106Y-144616660D01*
X181500001Y-144253553D01*
X181500000Y-144253553D01*
X181136892Y-144616660D01*
X181139126Y-144636494D01*
X181148721Y-144647342D01*
X181159367Y-144716396D01*
X181139362Y-144761405D01*
X181136891Y-144783338D01*
X169789885Y-144783338D01*
X169813395Y-144765739D01*
X170015739Y-144563395D01*
X170187226Y-144334315D01*
X170324367Y-144083161D01*
X170392684Y-143899997D01*
X180694938Y-143899997D01*
X180694938Y-143900002D01*
X180715121Y-144079138D01*
X180774665Y-144249304D01*
X180783338Y-144263107D01*
X181146446Y-143900000D01*
X181146446Y-143899999D01*
X181116610Y-143870163D01*
X181350000Y-143870163D01*
X181350000Y-143929837D01*
X181372836Y-143984968D01*
X181415032Y-144027164D01*
X181470163Y-144050000D01*
X181529837Y-144050000D01*
X181584968Y-144027164D01*
X181627164Y-143984968D01*
X181650000Y-143929837D01*
X181650000Y-143900000D01*
X181853553Y-143900000D01*
X182216660Y-144263106D01*
X182216661Y-144263106D01*
X182225334Y-144249306D01*
X182225334Y-144249305D01*
X182284877Y-144079141D01*
X182284878Y-144079138D01*
X182305062Y-143900002D01*
X182305062Y-143899997D01*
X182944938Y-143899997D01*
X182944938Y-143900002D01*
X182965121Y-144079138D01*
X183024665Y-144249304D01*
X183033338Y-144263107D01*
X183396446Y-143900000D01*
X183396446Y-143899999D01*
X183366610Y-143870163D01*
X183600000Y-143870163D01*
X183600000Y-143929837D01*
X183622836Y-143984968D01*
X183665032Y-144027164D01*
X183720163Y-144050000D01*
X183779837Y-144050000D01*
X183834968Y-144027164D01*
X183877164Y-143984968D01*
X183900000Y-143929837D01*
X183900000Y-143900000D01*
X184103553Y-143900000D01*
X184466660Y-144263106D01*
X184466661Y-144263106D01*
X184475334Y-144249306D01*
X184475334Y-144249305D01*
X184534877Y-144079141D01*
X184534878Y-144079138D01*
X184555062Y-143900002D01*
X184555062Y-143899997D01*
X184534878Y-143720861D01*
X184475333Y-143550692D01*
X184466661Y-143536892D01*
X184466660Y-143536892D01*
X184103553Y-143900000D01*
X183900000Y-143900000D01*
X183900000Y-143870163D01*
X183877164Y-143815032D01*
X183834968Y-143772836D01*
X183779837Y-143750000D01*
X183720163Y-143750000D01*
X183665032Y-143772836D01*
X183622836Y-143815032D01*
X183600000Y-143870163D01*
X183366610Y-143870163D01*
X183033338Y-143536891D01*
X183033337Y-143536891D01*
X183024667Y-143550691D01*
X183024662Y-143550701D01*
X182965122Y-143720858D01*
X182965121Y-143720861D01*
X182944938Y-143899997D01*
X182305062Y-143899997D01*
X182284878Y-143720861D01*
X182225333Y-143550692D01*
X182216661Y-143536892D01*
X182216660Y-143536892D01*
X181853553Y-143900000D01*
X181650000Y-143900000D01*
X181650000Y-143870163D01*
X181627164Y-143815032D01*
X181584968Y-143772836D01*
X181529837Y-143750000D01*
X181470163Y-143750000D01*
X181415032Y-143772836D01*
X181372836Y-143815032D01*
X181350000Y-143870163D01*
X181116610Y-143870163D01*
X180783338Y-143536891D01*
X180783337Y-143536891D01*
X180774667Y-143550691D01*
X180774662Y-143550701D01*
X180715122Y-143720858D01*
X180715121Y-143720861D01*
X180694938Y-143899997D01*
X170392684Y-143899997D01*
X170424369Y-143815046D01*
X170485196Y-143535428D01*
X170505610Y-143250000D01*
X170500842Y-143183338D01*
X181136891Y-143183338D01*
X181500000Y-143546446D01*
X181500001Y-143546446D01*
X181863107Y-143183338D01*
X183386891Y-143183338D01*
X183750000Y-143546446D01*
X183750001Y-143546446D01*
X184113107Y-143183338D01*
X184110872Y-143163505D01*
X184101276Y-143152655D01*
X184090629Y-143083601D01*
X184110637Y-143038580D01*
X184113106Y-143016660D01*
X183750001Y-142653553D01*
X183750000Y-142653553D01*
X183386892Y-143016660D01*
X183389126Y-143036494D01*
X183398721Y-143047342D01*
X183409367Y-143116396D01*
X183389362Y-143161405D01*
X183386891Y-143183338D01*
X181863107Y-143183338D01*
X181860872Y-143163505D01*
X181851276Y-143152655D01*
X181840629Y-143083601D01*
X181860637Y-143038580D01*
X181863106Y-143016660D01*
X181500001Y-142653553D01*
X181500000Y-142653553D01*
X181136892Y-143016660D01*
X181139126Y-143036494D01*
X181148721Y-143047342D01*
X181159367Y-143116396D01*
X181139362Y-143161405D01*
X181136891Y-143183338D01*
X170500842Y-143183338D01*
X170485196Y-142964572D01*
X170464133Y-142867748D01*
X170424371Y-142684962D01*
X170424370Y-142684960D01*
X170424369Y-142684954D01*
X170324367Y-142416839D01*
X170265939Y-142309837D01*
X170260566Y-142299997D01*
X180694938Y-142299997D01*
X180694938Y-142300002D01*
X180715121Y-142479138D01*
X180774665Y-142649304D01*
X180783338Y-142663107D01*
X181146446Y-142300000D01*
X181146446Y-142299999D01*
X181116610Y-142270163D01*
X181350000Y-142270163D01*
X181350000Y-142329837D01*
X181372836Y-142384968D01*
X181415032Y-142427164D01*
X181470163Y-142450000D01*
X181529837Y-142450000D01*
X181584968Y-142427164D01*
X181627164Y-142384968D01*
X181650000Y-142329837D01*
X181650000Y-142300000D01*
X181853553Y-142300000D01*
X182216660Y-142663106D01*
X182216661Y-142663106D01*
X182225334Y-142649306D01*
X182225334Y-142649305D01*
X182284877Y-142479141D01*
X182284878Y-142479138D01*
X182305062Y-142300002D01*
X182305062Y-142299997D01*
X182944938Y-142299997D01*
X182944938Y-142300002D01*
X182965121Y-142479138D01*
X183024665Y-142649304D01*
X183033338Y-142663107D01*
X183396446Y-142300000D01*
X183396446Y-142299999D01*
X183366610Y-142270163D01*
X183600000Y-142270163D01*
X183600000Y-142329837D01*
X183622836Y-142384968D01*
X183665032Y-142427164D01*
X183720163Y-142450000D01*
X183779837Y-142450000D01*
X183834968Y-142427164D01*
X183877164Y-142384968D01*
X183900000Y-142329837D01*
X183900000Y-142300000D01*
X184103553Y-142300000D01*
X184466660Y-142663106D01*
X184466661Y-142663106D01*
X184475334Y-142649306D01*
X184475334Y-142649305D01*
X184534877Y-142479141D01*
X184534878Y-142479138D01*
X184555062Y-142300002D01*
X184555062Y-142299997D01*
X184534878Y-142120861D01*
X184475333Y-141950692D01*
X184466661Y-141936892D01*
X184466660Y-141936892D01*
X184103553Y-142300000D01*
X183900000Y-142300000D01*
X183900000Y-142270163D01*
X183877164Y-142215032D01*
X183834968Y-142172836D01*
X183779837Y-142150000D01*
X183720163Y-142150000D01*
X183665032Y-142172836D01*
X183622836Y-142215032D01*
X183600000Y-142270163D01*
X183366610Y-142270163D01*
X183033338Y-141936891D01*
X183033337Y-141936891D01*
X183024667Y-141950691D01*
X183024662Y-141950701D01*
X182965122Y-142120858D01*
X182965121Y-142120861D01*
X182944938Y-142299997D01*
X182305062Y-142299997D01*
X182284878Y-142120861D01*
X182225333Y-141950692D01*
X182216661Y-141936892D01*
X182216660Y-141936892D01*
X181853553Y-142300000D01*
X181650000Y-142300000D01*
X181650000Y-142270163D01*
X181627164Y-142215032D01*
X181584968Y-142172836D01*
X181529837Y-142150000D01*
X181470163Y-142150000D01*
X181415032Y-142172836D01*
X181372836Y-142215032D01*
X181350000Y-142270163D01*
X181116610Y-142270163D01*
X180783338Y-141936891D01*
X180783337Y-141936891D01*
X180774667Y-141950691D01*
X180774662Y-141950701D01*
X180715122Y-142120858D01*
X180715121Y-142120861D01*
X180694938Y-142299997D01*
X170260566Y-142299997D01*
X170187229Y-142165690D01*
X170187224Y-142165682D01*
X170015745Y-141936612D01*
X170015729Y-141936594D01*
X169813405Y-141734270D01*
X169813387Y-141734254D01*
X169611786Y-141583338D01*
X181136891Y-141583338D01*
X181500000Y-141946446D01*
X181500001Y-141946446D01*
X181863107Y-141583338D01*
X183386891Y-141583338D01*
X183750000Y-141946446D01*
X183750001Y-141946446D01*
X184113107Y-141583338D01*
X184110872Y-141563505D01*
X184101276Y-141552655D01*
X184090629Y-141483601D01*
X184110637Y-141438580D01*
X184113106Y-141416660D01*
X183750001Y-141053553D01*
X183750000Y-141053553D01*
X183386892Y-141416660D01*
X183389126Y-141436494D01*
X183398721Y-141447342D01*
X183409367Y-141516396D01*
X183389362Y-141561405D01*
X183386891Y-141583338D01*
X181863107Y-141583338D01*
X181860872Y-141563505D01*
X181851276Y-141552655D01*
X181840629Y-141483601D01*
X181860637Y-141438580D01*
X181863106Y-141416660D01*
X181500001Y-141053553D01*
X181500000Y-141053553D01*
X181136892Y-141416660D01*
X181139126Y-141436494D01*
X181148721Y-141447342D01*
X181159367Y-141516396D01*
X181139362Y-141561405D01*
X181136891Y-141583338D01*
X169611786Y-141583338D01*
X169584317Y-141562775D01*
X169584309Y-141562770D01*
X169333166Y-141425635D01*
X169333167Y-141425635D01*
X169225915Y-141385632D01*
X169065046Y-141325631D01*
X169065043Y-141325630D01*
X169065037Y-141325628D01*
X168785433Y-141264804D01*
X168500001Y-141244390D01*
X168499999Y-141244390D01*
X168214566Y-141264804D01*
X167934962Y-141325628D01*
X167666833Y-141425635D01*
X167415690Y-141562770D01*
X167415682Y-141562775D01*
X167186612Y-141734254D01*
X167186594Y-141734270D01*
X166984270Y-141936594D01*
X166984254Y-141936612D01*
X166812775Y-142165682D01*
X166812770Y-142165690D01*
X166675635Y-142416833D01*
X166575628Y-142684962D01*
X166514804Y-142964566D01*
X166494390Y-143249998D01*
X166494390Y-143250001D01*
X166514804Y-143535433D01*
X166575628Y-143815037D01*
X166575630Y-143815043D01*
X166575631Y-143815046D01*
X166674134Y-144079141D01*
X166675635Y-144083166D01*
X166812770Y-144334309D01*
X166812775Y-144334317D01*
X166984254Y-144563387D01*
X166984270Y-144563405D01*
X167186594Y-144765729D01*
X167186600Y-144765734D01*
X167186605Y-144765739D01*
X167210115Y-144783338D01*
X167239678Y-144805469D01*
X167281549Y-144861403D01*
X167286533Y-144931095D01*
X167253048Y-144992418D01*
X167235444Y-145007036D01*
X167112179Y-145091474D01*
X166961474Y-145242179D01*
X166841028Y-145418009D01*
X166754946Y-145612967D01*
X166754941Y-145612982D01*
X166706149Y-145820429D01*
X166706147Y-145820444D01*
X166700000Y-145909011D01*
X166700000Y-146380000D01*
X167833012Y-146380000D01*
X167815795Y-146389940D01*
X167759940Y-146445795D01*
X167720444Y-146514204D01*
X167700000Y-146590504D01*
X167700000Y-146669496D01*
X167720444Y-146745796D01*
X167759940Y-146814205D01*
X167815795Y-146870060D01*
X167833012Y-146880000D01*
X166700001Y-146880000D01*
X166700001Y-147350988D01*
X166706147Y-147439559D01*
X166706148Y-147439568D01*
X166754941Y-147647017D01*
X166754946Y-147647032D01*
X166841028Y-147841990D01*
X166961474Y-148017820D01*
X167112181Y-148168527D01*
X167136972Y-148185509D01*
X167181155Y-148239634D01*
X167189062Y-148309055D01*
X167158182Y-148371731D01*
X167139781Y-148388127D01*
X167025103Y-148471445D01*
X167025098Y-148471449D01*
X166841449Y-148655098D01*
X166841445Y-148655103D01*
X166688796Y-148865208D01*
X166570883Y-149096622D01*
X166490629Y-149343622D01*
X166469029Y-149480000D01*
X158200500Y-149480000D01*
X158200500Y-146124500D01*
X158220185Y-146057461D01*
X158272989Y-146011706D01*
X158324500Y-146000500D01*
X158494486Y-146000500D01*
X158681118Y-145970940D01*
X158860832Y-145912547D01*
X159029199Y-145826760D01*
X159182073Y-145715690D01*
X159315690Y-145582073D01*
X159426760Y-145429199D01*
X159512547Y-145260832D01*
X159570940Y-145081118D01*
X159572009Y-145074367D01*
X159600500Y-144894486D01*
X159600500Y-143463844D01*
X160362029Y-143463844D01*
X160390870Y-143608831D01*
X160390873Y-143608841D01*
X160447442Y-143745412D01*
X160447449Y-143745425D01*
X160529578Y-143868339D01*
X160529581Y-143868343D01*
X160634110Y-143972872D01*
X160634114Y-143972875D01*
X160757028Y-144055004D01*
X160757041Y-144055011D01*
X160855016Y-144095593D01*
X160893617Y-144111582D01*
X160893621Y-144111582D01*
X160893622Y-144111583D01*
X161038609Y-144140424D01*
X161038612Y-144140424D01*
X161186450Y-144140424D01*
X161314486Y-144114955D01*
X161331443Y-144111582D01*
X161468025Y-144055008D01*
X161590946Y-143972875D01*
X161695481Y-143868340D01*
X161777614Y-143745419D01*
X161834188Y-143608837D01*
X161848790Y-143535428D01*
X161863030Y-143463844D01*
X161863030Y-143316003D01*
X161834189Y-143171016D01*
X161834188Y-143171015D01*
X161834188Y-143171011D01*
X161782963Y-143047342D01*
X161777617Y-143034435D01*
X161777610Y-143034422D01*
X161695481Y-142911508D01*
X161695478Y-142911504D01*
X161590949Y-142806975D01*
X161590945Y-142806972D01*
X161468031Y-142724843D01*
X161468018Y-142724836D01*
X161331447Y-142668267D01*
X161331437Y-142668264D01*
X161186450Y-142639424D01*
X161186448Y-142639424D01*
X161038612Y-142639424D01*
X161038610Y-142639424D01*
X160893622Y-142668264D01*
X160893612Y-142668267D01*
X160757041Y-142724836D01*
X160757028Y-142724843D01*
X160634114Y-142806972D01*
X160634110Y-142806975D01*
X160529581Y-142911504D01*
X160529578Y-142911508D01*
X160447449Y-143034422D01*
X160447442Y-143034435D01*
X160390873Y-143171006D01*
X160390870Y-143171016D01*
X160362030Y-143316003D01*
X160362030Y-143316006D01*
X160362030Y-143463842D01*
X160362030Y-143463844D01*
X160362029Y-143463844D01*
X159600500Y-143463844D01*
X159600500Y-140463844D01*
X160362029Y-140463844D01*
X160390870Y-140608831D01*
X160390873Y-140608841D01*
X160447442Y-140745412D01*
X160447449Y-140745425D01*
X160529578Y-140868339D01*
X160529581Y-140868343D01*
X160634110Y-140972872D01*
X160634114Y-140972875D01*
X160757028Y-141055004D01*
X160757041Y-141055011D01*
X160893612Y-141111580D01*
X160893617Y-141111582D01*
X160893621Y-141111582D01*
X160893622Y-141111583D01*
X161038609Y-141140424D01*
X161038612Y-141140424D01*
X161186450Y-141140424D01*
X161283992Y-141121020D01*
X161331443Y-141111582D01*
X161468025Y-141055008D01*
X161590946Y-140972875D01*
X161695481Y-140868340D01*
X161777614Y-140745419D01*
X161796428Y-140699997D01*
X180694938Y-140699997D01*
X180694938Y-140700002D01*
X180715121Y-140879138D01*
X180774665Y-141049304D01*
X180783338Y-141063107D01*
X181146446Y-140700000D01*
X181146446Y-140699999D01*
X181116610Y-140670163D01*
X181350000Y-140670163D01*
X181350000Y-140729837D01*
X181372836Y-140784968D01*
X181415032Y-140827164D01*
X181470163Y-140850000D01*
X181529837Y-140850000D01*
X181584968Y-140827164D01*
X181627164Y-140784968D01*
X181650000Y-140729837D01*
X181650000Y-140700000D01*
X181853553Y-140700000D01*
X182216660Y-141063106D01*
X182216661Y-141063106D01*
X182225334Y-141049306D01*
X182225334Y-141049305D01*
X182284877Y-140879141D01*
X182284878Y-140879138D01*
X182305062Y-140700002D01*
X182305062Y-140699997D01*
X182944938Y-140699997D01*
X182944938Y-140700002D01*
X182965121Y-140879138D01*
X183024665Y-141049304D01*
X183033338Y-141063107D01*
X183396446Y-140700000D01*
X183396446Y-140699999D01*
X183366610Y-140670163D01*
X183600000Y-140670163D01*
X183600000Y-140729837D01*
X183622836Y-140784968D01*
X183665032Y-140827164D01*
X183720163Y-140850000D01*
X183779837Y-140850000D01*
X183834968Y-140827164D01*
X183877164Y-140784968D01*
X183900000Y-140729837D01*
X183900000Y-140700000D01*
X184103553Y-140700000D01*
X184466660Y-141063106D01*
X184466661Y-141063106D01*
X184475334Y-141049306D01*
X184475334Y-141049305D01*
X184534877Y-140879141D01*
X184534878Y-140879138D01*
X184555062Y-140700002D01*
X184555062Y-140699997D01*
X184549428Y-140649995D01*
X186144318Y-140649995D01*
X186144318Y-140649998D01*
X186164955Y-140806757D01*
X186164956Y-140806759D01*
X186225464Y-140952838D01*
X186321718Y-141078279D01*
X186447159Y-141174533D01*
X186593238Y-141235041D01*
X186664251Y-141244390D01*
X186749999Y-141255679D01*
X186750000Y-141255679D01*
X186750001Y-141255679D01*
X186802254Y-141248799D01*
X186906762Y-141235041D01*
X187052841Y-141174533D01*
X187178282Y-141078279D01*
X187274536Y-140952838D01*
X187335044Y-140806759D01*
X187355682Y-140649997D01*
X187350262Y-140608831D01*
X187335044Y-140493236D01*
X187335044Y-140493235D01*
X187274536Y-140347156D01*
X187178282Y-140221715D01*
X187052841Y-140125461D01*
X186906762Y-140064953D01*
X186906760Y-140064952D01*
X186750001Y-140044315D01*
X186749999Y-140044315D01*
X186593239Y-140064952D01*
X186593237Y-140064953D01*
X186447160Y-140125460D01*
X186321718Y-140221715D01*
X186225463Y-140347157D01*
X186164956Y-140493234D01*
X186164955Y-140493236D01*
X186144318Y-140649995D01*
X184549428Y-140649995D01*
X184534878Y-140520861D01*
X184475333Y-140350692D01*
X184466661Y-140336892D01*
X184466660Y-140336892D01*
X184103553Y-140700000D01*
X183900000Y-140700000D01*
X183900000Y-140670163D01*
X183877164Y-140615032D01*
X183834968Y-140572836D01*
X183779837Y-140550000D01*
X183720163Y-140550000D01*
X183665032Y-140572836D01*
X183622836Y-140615032D01*
X183600000Y-140670163D01*
X183366610Y-140670163D01*
X183033338Y-140336891D01*
X183033337Y-140336891D01*
X183024667Y-140350691D01*
X183024662Y-140350701D01*
X182965122Y-140520858D01*
X182965121Y-140520861D01*
X182944938Y-140699997D01*
X182305062Y-140699997D01*
X182284878Y-140520861D01*
X182225333Y-140350692D01*
X182216661Y-140336892D01*
X182216660Y-140336892D01*
X181853553Y-140700000D01*
X181650000Y-140700000D01*
X181650000Y-140670163D01*
X181627164Y-140615032D01*
X181584968Y-140572836D01*
X181529837Y-140550000D01*
X181470163Y-140550000D01*
X181415032Y-140572836D01*
X181372836Y-140615032D01*
X181350000Y-140670163D01*
X181116610Y-140670163D01*
X180783338Y-140336891D01*
X180783337Y-140336891D01*
X180774667Y-140350691D01*
X180774662Y-140350701D01*
X180715122Y-140520858D01*
X180715121Y-140520861D01*
X180694938Y-140699997D01*
X161796428Y-140699997D01*
X161834188Y-140608837D01*
X161857183Y-140493236D01*
X161863030Y-140463844D01*
X161863030Y-140316003D01*
X161834189Y-140171016D01*
X161834188Y-140171015D01*
X161834188Y-140171011D01*
X161815320Y-140125460D01*
X161777617Y-140034435D01*
X161777610Y-140034422D01*
X161743476Y-139983337D01*
X181136891Y-139983337D01*
X181136891Y-139983338D01*
X181500000Y-140346446D01*
X181500001Y-140346446D01*
X181863107Y-139983338D01*
X181863105Y-139983337D01*
X183386891Y-139983337D01*
X183386891Y-139983338D01*
X183750000Y-140346446D01*
X183750001Y-140346446D01*
X184113107Y-139983338D01*
X184099304Y-139974665D01*
X183929138Y-139915121D01*
X183750003Y-139894938D01*
X183749997Y-139894938D01*
X183570861Y-139915121D01*
X183570858Y-139915122D01*
X183400701Y-139974662D01*
X183400691Y-139974667D01*
X183386891Y-139983337D01*
X181863105Y-139983337D01*
X181849304Y-139974665D01*
X181679138Y-139915121D01*
X181500003Y-139894938D01*
X181499997Y-139894938D01*
X181320861Y-139915121D01*
X181320858Y-139915122D01*
X181150701Y-139974662D01*
X181150691Y-139974667D01*
X181136891Y-139983337D01*
X161743476Y-139983337D01*
X161695481Y-139911508D01*
X161695478Y-139911504D01*
X161590949Y-139806975D01*
X161590945Y-139806972D01*
X161468031Y-139724843D01*
X161468018Y-139724836D01*
X161331447Y-139668267D01*
X161331437Y-139668264D01*
X161186450Y-139639424D01*
X161186448Y-139639424D01*
X161038612Y-139639424D01*
X161038610Y-139639424D01*
X160893622Y-139668264D01*
X160893612Y-139668267D01*
X160757041Y-139724836D01*
X160757028Y-139724843D01*
X160634114Y-139806972D01*
X160634110Y-139806975D01*
X160529581Y-139911504D01*
X160529578Y-139911508D01*
X160447449Y-140034422D01*
X160447442Y-140034435D01*
X160390873Y-140171006D01*
X160390870Y-140171016D01*
X160362030Y-140316003D01*
X160362030Y-140316006D01*
X160362030Y-140463842D01*
X160362030Y-140463844D01*
X160362029Y-140463844D01*
X159600500Y-140463844D01*
X159600500Y-139005513D01*
X159570940Y-138818881D01*
X159517958Y-138655822D01*
X159512547Y-138639168D01*
X159512545Y-138639165D01*
X159512545Y-138639163D01*
X159426759Y-138470800D01*
X159400923Y-138435240D01*
X159315690Y-138317927D01*
X159182073Y-138184310D01*
X159029199Y-138073240D01*
X159003446Y-138060118D01*
X158860836Y-137987454D01*
X158681118Y-137929059D01*
X158494486Y-137899500D01*
X158494481Y-137899500D01*
X158439882Y-137899500D01*
X158324500Y-137899500D01*
X158257461Y-137879815D01*
X158211706Y-137827011D01*
X158200500Y-137775500D01*
X158200500Y-137624863D01*
X166899500Y-137624863D01*
X166899500Y-139035136D01*
X166909582Y-139148548D01*
X166962762Y-139334405D01*
X166962763Y-139334406D01*
X167052266Y-139505751D01*
X167099518Y-139563700D01*
X167174428Y-139655571D01*
X167189999Y-139668267D01*
X167324249Y-139777734D01*
X167495594Y-139867237D01*
X167681448Y-139920417D01*
X167794862Y-139930500D01*
X167794870Y-139930500D01*
X169205130Y-139930500D01*
X169205138Y-139930500D01*
X169318552Y-139920417D01*
X169504406Y-139867237D01*
X169675751Y-139777734D01*
X169825571Y-139655571D01*
X169947734Y-139505751D01*
X170037237Y-139334406D01*
X170090417Y-139148552D01*
X170100500Y-139035138D01*
X170100500Y-137624862D01*
X170090417Y-137511448D01*
X170037237Y-137325594D01*
X169947734Y-137154249D01*
X169940878Y-137145841D01*
X173105403Y-137145841D01*
X173105403Y-137145844D01*
X173126040Y-137302603D01*
X173126041Y-137302605D01*
X173184141Y-137442872D01*
X173186549Y-137448684D01*
X173282803Y-137574125D01*
X173299570Y-137586991D01*
X173310070Y-137595048D01*
X173351272Y-137651476D01*
X173355427Y-137721222D01*
X173349145Y-137740873D01*
X173327457Y-137793234D01*
X173327455Y-137793239D01*
X173306818Y-137949998D01*
X173306818Y-137950001D01*
X173327455Y-138106760D01*
X173327456Y-138106762D01*
X173387964Y-138252841D01*
X173484218Y-138378282D01*
X173609659Y-138474536D01*
X173755738Y-138535044D01*
X173834119Y-138545363D01*
X173912499Y-138555682D01*
X173912500Y-138555682D01*
X173912501Y-138555682D01*
X173964754Y-138548802D01*
X174069262Y-138535044D01*
X174215341Y-138474536D01*
X174340782Y-138378282D01*
X174437036Y-138252841D01*
X174497544Y-138106762D01*
X174518182Y-137950000D01*
X174516414Y-137936573D01*
X174497544Y-137793239D01*
X174497544Y-137793238D01*
X174437036Y-137647159D01*
X174340782Y-137521718D01*
X174340780Y-137521717D01*
X174340780Y-137521716D01*
X174327398Y-137511448D01*
X174313513Y-137500793D01*
X174312932Y-137499998D01*
X199894318Y-137499998D01*
X199894318Y-137500001D01*
X199914955Y-137656760D01*
X199914956Y-137656762D01*
X199971484Y-137793234D01*
X199975464Y-137802841D01*
X200071718Y-137928282D01*
X200197159Y-138024536D01*
X200343238Y-138085044D01*
X200421619Y-138095363D01*
X200499999Y-138105682D01*
X200500000Y-138105682D01*
X200500001Y-138105682D01*
X200552254Y-138098802D01*
X200656762Y-138085044D01*
X200802841Y-138024536D01*
X200928282Y-137928282D01*
X201024536Y-137802841D01*
X201085044Y-137656762D01*
X201102823Y-137521716D01*
X201105682Y-137500001D01*
X201105682Y-137499998D01*
X201085044Y-137343239D01*
X201085044Y-137343238D01*
X201024536Y-137197159D01*
X200928282Y-137071718D01*
X200802841Y-136975464D01*
X200656762Y-136914956D01*
X200656760Y-136914955D01*
X200500001Y-136894318D01*
X200499999Y-136894318D01*
X200343239Y-136914955D01*
X200343237Y-136914956D01*
X200197160Y-136975463D01*
X200071718Y-137071718D01*
X199975463Y-137197160D01*
X199914956Y-137343237D01*
X199914955Y-137343239D01*
X199894318Y-137499998D01*
X174312932Y-137499998D01*
X174272311Y-137444367D01*
X174268156Y-137374621D01*
X174274438Y-137354971D01*
X174296129Y-137302605D01*
X174316767Y-137145843D01*
X174313708Y-137122611D01*
X174303008Y-137041335D01*
X174296129Y-136989081D01*
X174235621Y-136843002D01*
X174139367Y-136717561D01*
X174013926Y-136621307D01*
X174005814Y-136617947D01*
X173867847Y-136560799D01*
X173867845Y-136560798D01*
X173711086Y-136540161D01*
X173711084Y-136540161D01*
X173554324Y-136560798D01*
X173554322Y-136560799D01*
X173408245Y-136621306D01*
X173282803Y-136717561D01*
X173186548Y-136843003D01*
X173126041Y-136989080D01*
X173126040Y-136989082D01*
X173105403Y-137145841D01*
X169940878Y-137145841D01*
X169880438Y-137071718D01*
X169825571Y-137004428D01*
X169715842Y-136914956D01*
X169675751Y-136882266D01*
X169600584Y-136843002D01*
X169504405Y-136792762D01*
X169349845Y-136748537D01*
X169318552Y-136739583D01*
X169318551Y-136739582D01*
X169318548Y-136739582D01*
X169229662Y-136731680D01*
X169205138Y-136729500D01*
X167794862Y-136729500D01*
X167782599Y-136730590D01*
X167681451Y-136739582D01*
X167495594Y-136792762D01*
X167324250Y-136882265D01*
X167174428Y-137004428D01*
X167052265Y-137154250D01*
X166962762Y-137325594D01*
X166909582Y-137511451D01*
X166899500Y-137624863D01*
X158200500Y-137624863D01*
X158200500Y-136099998D01*
X174794318Y-136099998D01*
X174794318Y-136100001D01*
X174814955Y-136256760D01*
X174814956Y-136256762D01*
X174875464Y-136402841D01*
X174971718Y-136528282D01*
X175097159Y-136624536D01*
X175243238Y-136685044D01*
X175321619Y-136695363D01*
X175399999Y-136705682D01*
X175400000Y-136705682D01*
X175400001Y-136705682D01*
X175443170Y-136699998D01*
X196294318Y-136699998D01*
X196294318Y-136700001D01*
X196314955Y-136856760D01*
X196314956Y-136856762D01*
X196375464Y-137002841D01*
X196471718Y-137128282D01*
X196597159Y-137224536D01*
X196743238Y-137285044D01*
X196821619Y-137295363D01*
X196899999Y-137305682D01*
X196900000Y-137305682D01*
X196900001Y-137305682D01*
X196952254Y-137298802D01*
X197056762Y-137285044D01*
X197202841Y-137224536D01*
X197328282Y-137128282D01*
X197424536Y-137002841D01*
X197485044Y-136856762D01*
X197505682Y-136700000D01*
X197485044Y-136543238D01*
X197424536Y-136397159D01*
X197328282Y-136271718D01*
X197202841Y-136175464D01*
X197142565Y-136150497D01*
X197056762Y-136114956D01*
X197056760Y-136114955D01*
X196900001Y-136094318D01*
X196899999Y-136094318D01*
X196743239Y-136114955D01*
X196743237Y-136114956D01*
X196597160Y-136175463D01*
X196471718Y-136271718D01*
X196375463Y-136397160D01*
X196314956Y-136543237D01*
X196314955Y-136543239D01*
X196294318Y-136699998D01*
X175443170Y-136699998D01*
X175452254Y-136698802D01*
X175556762Y-136685044D01*
X175702841Y-136624536D01*
X175828282Y-136528282D01*
X175924536Y-136402841D01*
X175985044Y-136256762D01*
X176005682Y-136100000D01*
X175985044Y-135943238D01*
X175924536Y-135797159D01*
X175828282Y-135671718D01*
X175702841Y-135575464D01*
X175556762Y-135514956D01*
X175556760Y-135514955D01*
X175400001Y-135494318D01*
X175399999Y-135494318D01*
X175243239Y-135514955D01*
X175243237Y-135514956D01*
X175097160Y-135575463D01*
X174971718Y-135671718D01*
X174875463Y-135797160D01*
X174814956Y-135943237D01*
X174814955Y-135943239D01*
X174794318Y-136099998D01*
X158200500Y-136099998D01*
X158200500Y-134505411D01*
X158200972Y-134494604D01*
X158215498Y-134328566D01*
X158219251Y-134307279D01*
X158260986Y-134151524D01*
X158268377Y-134131219D01*
X158336524Y-133985075D01*
X158347322Y-133966372D01*
X158439818Y-133834272D01*
X158453701Y-133817728D01*
X158567728Y-133703701D01*
X158584272Y-133689818D01*
X158716372Y-133597322D01*
X158735075Y-133586524D01*
X158881219Y-133518377D01*
X158901519Y-133510987D01*
X159057282Y-133469250D01*
X159078563Y-133465498D01*
X159244605Y-133450972D01*
X159255412Y-133450500D01*
X159289882Y-133450500D01*
X206210118Y-133450500D01*
X206244588Y-133450500D01*
X206255395Y-133450972D01*
G37*
%TD.AperFunction*%
%TD*%
M02*
