M48
; DRILL file {KiCad 8.0.4} date 2024-12-22T16:52:19+0000
; FORMAT={-:-/ absolute / inch / decimal}
; #@! TF.CreationDate,2024-12-22T16:52:19+00:00
; #@! TF.GenerationSoftware,Kicad,Pcbnew,8.0.4
; #@! TF.FileFunction,Plated,1,4,PTH
FMAT,2
INCH
; #@! TA.AperFunction,Plated,PTH,ViaDrill
T1C0.0118
; #@! TA.AperFunction,Plated,PTH,ComponentDrill
T2C0.0118
; #@! TA.AperFunction,Plated,PTH,ComponentDrill
T3C0.0236
; #@! TA.AperFunction,Plated,PTH,ComponentDrill
T4C0.0394
; #@! TA.AperFunction,Plated,PTH,ComponentDrill
T5C0.0787
%
G90
G05
T1
X6.4331Y-5.3937
X6.811Y-5.5
X6.839Y-5.3994
X6.8469Y-5.4311
X6.8898Y-5.7677
X6.9016Y-5.9724
X6.9055Y-5.3583
X6.9449Y-5.6575
X6.9528Y-5.5315
X6.9882Y-5.2953
X6.9937Y-5.9275
X6.998Y-5.8071
X7.0079Y-5.3346
X7.0276Y-5.2953
X7.0299Y-5.3717
X7.0344Y-5.5197
X7.0352Y-5.6415
X7.0496Y-5.9032
X7.0669Y-5.3346
X7.0791Y-5.9327
X7.0866Y-5.8465
X7.1063Y-5.2953
X7.1063Y-5.374
X7.1181Y-5.5866
X7.126Y-5.8465
X7.126Y-5.8858
X7.1378Y-5.4685
X7.1417Y-5.7874
X7.1457Y-5.3346
X7.1654Y-5.5118
X7.1654Y-5.8071
X7.1654Y-5.8465
X7.1654Y-5.9252
X7.185Y-5.2953
X7.185Y-5.374
X7.185Y-5.5709
X7.185Y-5.6299
X7.185Y-5.6988
X7.185Y-5.8858
X7.189Y-5.4685
X7.1929Y-5.7874
X7.2021Y-5.9423
X7.2244Y-5.3346
X7.2244Y-5.8071
X7.2362Y-5.4685
X7.2441Y-5.374
X7.2549Y-5.7895
X7.2638Y-5.2953
X7.2679Y-5.9765
X7.2835Y-5.3346
X7.3425Y-5.311
X7.3524Y-5.5374
X7.3524Y-5.5709
X7.3543Y-5.7598
X7.3622Y-5.6969
X7.4764Y-5.6969
X7.4764Y-5.8071
X7.5236Y-5.9764
X7.5492Y-5.3051
X7.6923Y-5.3661
X7.752Y-5.3819
X7.7835Y-5.4016
X7.8937Y-5.4134
T2
X7.1457Y-5.5394
X7.1457Y-5.6024
X7.1457Y-5.6654
X7.1457Y-5.7283
X7.2343Y-5.5394
X7.2343Y-5.6024
X7.2343Y-5.6654
X7.2343Y-5.7283
T4
X7.6575Y-5.935
X7.7559Y-5.935
X7.8543Y-5.935
X8.1004Y-5.8646
X8.1004Y-5.9646
X8.1102Y-5.315
X8.1102Y-5.415
T5
X7.5827Y-5.6594
X7.9291Y-5.6594
T3
G00X6.6142Y-5.4461
M15
G01X6.6535Y-5.4461
M16
G05
G00X6.6142Y-5.7728
M15
G01X6.6535Y-5.7728
M16
G05
G00X6.6142Y-5.8949
M15
G01X6.6535Y-5.8949
M16
G05
M30
