%TF.GenerationSoftware,KiCad,Pcbnew,8.0.4*%
%TF.CreationDate,2024-12-22T16:52:19+00:00*%
%TF.ProjectId,main_board,6d61696e-5f62-46f6-9172-642e6b696361,rev?*%
%TF.SameCoordinates,Original*%
%TF.FileFunction,Legend,Top*%
%TF.FilePolarity,Positive*%
%FSLAX46Y46*%
G04 Gerber Fmt 4.6, Leading zero omitted, Abs format (unit mm)*
G04 Created by KiCad (PCBNEW 8.0.4) date 2024-12-22 16:52:19*
%MOMM*%
%LPD*%
G01*
G04 APERTURE LIST*
G04 Aperture macros list*
%AMRoundRect*
0 Rectangle with rounded corners*
0 $1 Rounding radius*
0 $2 $3 $4 $5 $6 $7 $8 $9 X,Y pos of 4 corners*
0 Add a 4 corners polygon primitive as box body*
4,1,4,$2,$3,$4,$5,$6,$7,$8,$9,$2,$3,0*
0 Add four circle primitives for the rounded corners*
1,1,$1+$1,$2,$3*
1,1,$1+$1,$4,$5*
1,1,$1+$1,$6,$7*
1,1,$1+$1,$8,$9*
0 Add four rect primitives between the rounded corners*
20,1,$1+$1,$2,$3,$4,$5,0*
20,1,$1+$1,$4,$5,$6,$7,0*
20,1,$1+$1,$6,$7,$8,$9,0*
20,1,$1+$1,$8,$9,$2,$3,0*%
G04 Aperture macros list end*
%ADD10C,0.175000*%
%ADD11C,0.200000*%
%ADD12C,0.150000*%
%ADD13C,0.120000*%
%ADD14C,0.254000*%
%ADD15C,0.059995*%
%ADD16C,0.300000*%
%ADD17RoundRect,0.243750X-0.243750X-0.456250X0.243750X-0.456250X0.243750X0.456250X-0.243750X0.456250X0*%
%ADD18RoundRect,0.243750X-0.456250X0.243750X-0.456250X-0.243750X0.456250X-0.243750X0.456250X0.243750X0*%
%ADD19RoundRect,0.243750X0.456250X-0.243750X0.456250X0.243750X-0.456250X0.243750X-0.456250X-0.243750X0*%
%ADD20RoundRect,0.243750X0.243750X0.456250X-0.243750X0.456250X-0.243750X-0.456250X0.243750X-0.456250X0*%
%ADD21C,1.000000*%
%ADD22R,1.489992X0.700000*%
%ADD23R,0.800000X1.000000*%
%ADD24RoundRect,0.218750X-0.218750X-0.256250X0.218750X-0.256250X0.218750X0.256250X-0.218750X0.256250X0*%
%ADD25RoundRect,0.218750X0.256250X-0.218750X0.256250X0.218750X-0.256250X0.218750X-0.256250X-0.218750X0*%
%ADD26O,3.100000X2.300000*%
%ADD27RoundRect,0.650000X-0.650000X-0.650000X0.650000X-0.650000X0.650000X0.650000X-0.650000X0.650000X0*%
%ADD28RoundRect,0.150000X-0.512500X-0.150000X0.512500X-0.150000X0.512500X0.150000X-0.512500X0.150000X0*%
%ADD29R,1.700000X1.700000*%
%ADD30O,1.700000X1.700000*%
%ADD31C,4.000000*%
%ADD32C,2.000000*%
%ADD33RoundRect,0.100000X-0.637500X-0.100000X0.637500X-0.100000X0.637500X0.100000X-0.637500X0.100000X0*%
%ADD34R,2.850000X5.400000*%
G04 APERTURE END LIST*
D10*
X203505607Y-137588233D02*
X204115131Y-137588233D01*
G36*
X206086293Y-146947690D02*
G01*
X206085883Y-146961114D01*
X206078903Y-146999893D01*
X206060110Y-147035422D01*
X206044466Y-147049698D01*
X206008158Y-147064197D01*
X205966907Y-147068053D01*
X205947621Y-147067256D01*
X205908887Y-147058843D01*
X205875462Y-147035422D01*
X205869188Y-147026913D01*
X205853111Y-146988751D01*
X205848693Y-146947690D01*
X205848693Y-146823810D01*
X206086293Y-146823810D01*
X206086293Y-146947690D01*
G37*
G36*
X206086293Y-145339986D02*
G01*
X206085786Y-145353657D01*
X206077138Y-145392607D01*
X206053857Y-145427131D01*
X206035551Y-145440638D01*
X205996896Y-145454356D01*
X205955574Y-145458004D01*
X205941896Y-145458004D01*
X205918378Y-145456918D01*
X205878389Y-145448235D01*
X205843613Y-145427131D01*
X205834269Y-145416864D01*
X205816531Y-145381516D01*
X205811177Y-145339986D01*
X205811177Y-145213761D01*
X206086293Y-145213761D01*
X206086293Y-145339986D01*
G37*
G36*
X206300234Y-147308958D02*
G01*
X205290858Y-147308958D01*
X205290858Y-146750732D01*
X205386000Y-146750732D01*
X205386579Y-146762771D01*
X205398114Y-146801339D01*
X205399695Y-146804060D01*
X205433480Y-146823810D01*
X205736146Y-146823810D01*
X205736146Y-146918381D01*
X205678424Y-146947690D01*
X205421366Y-147078213D01*
X205394988Y-147100097D01*
X205386000Y-147128820D01*
X205386177Y-147134456D01*
X205397332Y-147172198D01*
X205400272Y-147177308D01*
X205426837Y-147206587D01*
X205463376Y-147220069D01*
X205471778Y-147218897D01*
X205481547Y-147215575D01*
X205757835Y-147067076D01*
X205759550Y-147072363D01*
X205775867Y-147109687D01*
X205798281Y-147142889D01*
X205803530Y-147148993D01*
X205834462Y-147175806D01*
X205870382Y-147195254D01*
X205897191Y-147204511D01*
X205937697Y-147212140D01*
X205979607Y-147214403D01*
X206006394Y-147213520D01*
X206045363Y-147208437D01*
X206083481Y-147197317D01*
X206118728Y-147178255D01*
X206147373Y-147153418D01*
X206172271Y-147120633D01*
X206190242Y-147082121D01*
X206194014Y-147070713D01*
X206203905Y-147030902D01*
X206209676Y-146988342D01*
X206211345Y-146947690D01*
X206211345Y-146724940D01*
X206198058Y-146690551D01*
X206166990Y-146677655D01*
X205432308Y-146677655D01*
X205429517Y-146677745D01*
X205397723Y-146700711D01*
X205393155Y-146710986D01*
X205386000Y-146750732D01*
X205290858Y-146750732D01*
X205290858Y-145953524D01*
X205379747Y-145953524D01*
X205380971Y-145974759D01*
X205390103Y-146013119D01*
X205392902Y-146019802D01*
X205421561Y-146046922D01*
X205677919Y-146118827D01*
X205421561Y-146192100D01*
X205414085Y-146195015D01*
X205390103Y-146225903D01*
X205384207Y-146245640D01*
X205379747Y-146285498D01*
X205381201Y-146307263D01*
X205392057Y-146345094D01*
X205398117Y-146356030D01*
X205429377Y-146381046D01*
X206139049Y-146603991D01*
X206152727Y-146606140D01*
X206182427Y-146591486D01*
X206184042Y-146589651D01*
X206203334Y-146555533D01*
X206204765Y-146551538D01*
X206211345Y-146512742D01*
X206204115Y-146482456D01*
X206180668Y-146464480D01*
X205540166Y-146286671D01*
X205876439Y-146190928D01*
X205902427Y-146165526D01*
X205905415Y-146157574D01*
X205911219Y-146118827D01*
X205911082Y-146112959D01*
X205902427Y-146074277D01*
X205876439Y-146048094D01*
X205540166Y-145952351D01*
X206180668Y-145774542D01*
X206204115Y-145757152D01*
X206211345Y-145726085D01*
X206211275Y-145722261D01*
X206203334Y-145683879D01*
X206202336Y-145681172D01*
X206182427Y-145647341D01*
X206152727Y-145632686D01*
X206139049Y-145635031D01*
X205429377Y-145857780D01*
X205417739Y-145862958D01*
X205392057Y-145893733D01*
X205385048Y-145913493D01*
X205379747Y-145953524D01*
X205290858Y-145953524D01*
X205290858Y-145140683D01*
X205386000Y-145140683D01*
X205386570Y-145152722D01*
X205397919Y-145191290D01*
X205398686Y-145192673D01*
X205432894Y-145213761D01*
X205698630Y-145213761D01*
X205698630Y-145339986D01*
X205698852Y-145353784D01*
X205702175Y-145393695D01*
X205710544Y-145435430D01*
X205723836Y-145474417D01*
X205725442Y-145478153D01*
X205744790Y-145512790D01*
X205772994Y-145545160D01*
X205804925Y-145569378D01*
X205831170Y-145583007D01*
X205869942Y-145595610D01*
X205909155Y-145602168D01*
X205952838Y-145604354D01*
X205959482Y-145604354D01*
X205987288Y-145603529D01*
X206028068Y-145598775D01*
X206068485Y-145588377D01*
X206106614Y-145570551D01*
X206138281Y-145547161D01*
X206166151Y-145515922D01*
X206186725Y-145478911D01*
X206191125Y-145467908D01*
X206202666Y-145429470D01*
X206209397Y-145388323D01*
X206211345Y-145348974D01*
X206211345Y-145123879D01*
X206211293Y-145120813D01*
X206198058Y-145083237D01*
X206166990Y-145067606D01*
X205432308Y-145067606D01*
X205429517Y-145067696D01*
X205397723Y-145090662D01*
X205393155Y-145100937D01*
X205386000Y-145140683D01*
X205290858Y-145140683D01*
X205290858Y-144978717D01*
X206300234Y-144978717D01*
X206300234Y-147308958D01*
G37*
X203405607Y-151488233D02*
X204015131Y-151488233D01*
G36*
X206086293Y-140174605D02*
G01*
X206085786Y-140188277D01*
X206077138Y-140227227D01*
X206053857Y-140261751D01*
X206035551Y-140275258D01*
X205996896Y-140288975D01*
X205955574Y-140292623D01*
X205941896Y-140292623D01*
X205918378Y-140291538D01*
X205878389Y-140282855D01*
X205843613Y-140261751D01*
X205834269Y-140251483D01*
X205816531Y-140216135D01*
X205811177Y-140174605D01*
X205811177Y-140048381D01*
X206086293Y-140048381D01*
X206086293Y-140174605D01*
G37*
G36*
X206300234Y-141173055D02*
G01*
X205290858Y-141173055D01*
X205290858Y-140599002D01*
X205386000Y-140599002D01*
X205386560Y-140611040D01*
X205397723Y-140649609D01*
X205398478Y-140650991D01*
X205432113Y-140672079D01*
X205652713Y-140672079D01*
X205729307Y-140732847D01*
X205413745Y-140944459D01*
X205392643Y-140967515D01*
X205386000Y-140996238D01*
X205386041Y-140998919D01*
X205396551Y-141037857D01*
X205397893Y-141040368D01*
X205423711Y-141071074D01*
X205458295Y-141084166D01*
X205483892Y-141076154D01*
X205852992Y-140830935D01*
X206107004Y-141031214D01*
X206121659Y-141039030D01*
X206135337Y-141041374D01*
X206171680Y-141027697D01*
X206174817Y-141025114D01*
X206200012Y-140994480D01*
X206211345Y-140955792D01*
X206211009Y-140949747D01*
X206189852Y-140916322D01*
X205856509Y-140672079D01*
X206166013Y-140672079D01*
X206167491Y-140672057D01*
X206200598Y-140649609D01*
X206205300Y-140638019D01*
X206211345Y-140599002D01*
X206210831Y-140587392D01*
X206200598Y-140548981D01*
X206199914Y-140547562D01*
X206166209Y-140525924D01*
X205432308Y-140525924D01*
X205429517Y-140526014D01*
X205397723Y-140548981D01*
X205393155Y-140559255D01*
X205386000Y-140599002D01*
X205290858Y-140599002D01*
X205290858Y-139975303D01*
X205386000Y-139975303D01*
X205386570Y-139987342D01*
X205397919Y-140025910D01*
X205398686Y-140027293D01*
X205432894Y-140048381D01*
X205698630Y-140048381D01*
X205698630Y-140174605D01*
X205698852Y-140188403D01*
X205702175Y-140228314D01*
X205710544Y-140270049D01*
X205723836Y-140309036D01*
X205725442Y-140312773D01*
X205744790Y-140347410D01*
X205772994Y-140379780D01*
X205804925Y-140403998D01*
X205831170Y-140417626D01*
X205869942Y-140430230D01*
X205909155Y-140436788D01*
X205952838Y-140438974D01*
X205959482Y-140438974D01*
X205987288Y-140438148D01*
X206028068Y-140433395D01*
X206068485Y-140422996D01*
X206106614Y-140405170D01*
X206138281Y-140381780D01*
X206166151Y-140350542D01*
X206186725Y-140313531D01*
X206191125Y-140302528D01*
X206202666Y-140264090D01*
X206209397Y-140222943D01*
X206211345Y-140183593D01*
X206211345Y-139958499D01*
X206211293Y-139955432D01*
X206198058Y-139917857D01*
X206166990Y-139902226D01*
X205432308Y-139902226D01*
X205429517Y-139902316D01*
X205397723Y-139925282D01*
X205393155Y-139935556D01*
X205386000Y-139975303D01*
X205290858Y-139975303D01*
X205290858Y-139537034D01*
X205379747Y-139537034D01*
X205380171Y-139556155D01*
X205384229Y-139597191D01*
X205392584Y-139635475D01*
X205406907Y-139674787D01*
X205410431Y-139682234D01*
X205431187Y-139716470D01*
X205457173Y-139745706D01*
X205488386Y-139769944D01*
X205502308Y-139778141D01*
X205540532Y-139793853D01*
X205579110Y-139802153D01*
X205621645Y-139804919D01*
X205647980Y-139804003D01*
X205688774Y-139798169D01*
X205726767Y-139785771D01*
X205734703Y-139782062D01*
X205768470Y-139761620D01*
X205798672Y-139733991D01*
X205802278Y-139729888D01*
X205827179Y-139697556D01*
X205848302Y-139662477D01*
X205850871Y-139657619D01*
X205868875Y-139621329D01*
X205884646Y-139585296D01*
X205899257Y-139550864D01*
X205915713Y-139514954D01*
X205926991Y-139494378D01*
X205951471Y-139463175D01*
X205962083Y-139454626D01*
X206000515Y-139443635D01*
X206008956Y-139443988D01*
X206046628Y-139458094D01*
X206056435Y-139467497D01*
X206075741Y-139502058D01*
X206083315Y-139531768D01*
X206086293Y-139570837D01*
X206084551Y-139605999D01*
X206075741Y-139645673D01*
X206072500Y-139654034D01*
X206054834Y-139690614D01*
X206044478Y-139725980D01*
X206058156Y-139759197D01*
X206089224Y-139778346D01*
X206119900Y-139784598D01*
X206131410Y-139783495D01*
X206165036Y-139761542D01*
X206178226Y-139740744D01*
X206192978Y-139702923D01*
X206200805Y-139671940D01*
X206207242Y-139631995D01*
X206209405Y-139610826D01*
X206211345Y-139570837D01*
X206210933Y-139552665D01*
X206207212Y-139513293D01*
X206199621Y-139473921D01*
X206195666Y-139459040D01*
X206182077Y-139422223D01*
X206162106Y-139385603D01*
X206155358Y-139375882D01*
X206127800Y-139345706D01*
X206094108Y-139321514D01*
X206068996Y-139309802D01*
X206030560Y-139300148D01*
X205990354Y-139297285D01*
X205973142Y-139297767D01*
X205932452Y-139303529D01*
X205895197Y-139317020D01*
X205892791Y-139318265D01*
X205859538Y-139339832D01*
X205829935Y-139368799D01*
X205826668Y-139372831D01*
X205804059Y-139404722D01*
X205784799Y-139439532D01*
X205782463Y-139444390D01*
X205765476Y-139480680D01*
X205749433Y-139516713D01*
X205733605Y-139551371D01*
X205715043Y-139587641D01*
X205700893Y-139610218D01*
X205673034Y-139639420D01*
X205653296Y-139651089D01*
X205613438Y-139658569D01*
X205595712Y-139657178D01*
X205559119Y-139640983D01*
X205547063Y-139629008D01*
X205527660Y-139594870D01*
X205521350Y-139572733D01*
X205517304Y-139532540D01*
X205519401Y-139499997D01*
X205530005Y-139460439D01*
X205537489Y-139444664D01*
X205559705Y-139410809D01*
X205563933Y-139405845D01*
X205589600Y-139374856D01*
X205602301Y-139341249D01*
X205589600Y-139308422D01*
X205558533Y-139285366D01*
X205524925Y-139276964D01*
X205488967Y-139286670D01*
X205457514Y-139311353D01*
X205439695Y-139332645D01*
X205418629Y-139367092D01*
X205402022Y-139404752D01*
X205398041Y-139415941D01*
X205387600Y-139455051D01*
X205381509Y-139496946D01*
X205379747Y-139537034D01*
X205290858Y-139537034D01*
X205290858Y-139188075D01*
X206300234Y-139188075D01*
X206300234Y-141173055D01*
G37*
X203605607Y-134588233D02*
X204215131Y-134588233D01*
X203910369Y-134892995D02*
X203910369Y-134283471D01*
D11*
G36*
X159063925Y-147667653D02*
G01*
X159114571Y-147675168D01*
X159164723Y-147690153D01*
X159203237Y-147709281D01*
X159243819Y-147739577D01*
X159276720Y-147776123D01*
X159301941Y-147818918D01*
X159306064Y-147828227D01*
X159322808Y-147876961D01*
X159333350Y-147929130D01*
X159337536Y-147979018D01*
X159337815Y-147996266D01*
X159335304Y-148047043D01*
X159326622Y-148100109D01*
X159311738Y-148149644D01*
X159306064Y-148163817D01*
X159282379Y-148207370D01*
X159251014Y-148244913D01*
X159211968Y-148276445D01*
X159203237Y-148282030D01*
X159154203Y-148304957D01*
X159102445Y-148318330D01*
X159050371Y-148324444D01*
X159014926Y-148325505D01*
X158621207Y-148325505D01*
X158572220Y-148323425D01*
X158521616Y-148315953D01*
X158471547Y-148301051D01*
X158433140Y-148282030D01*
X158392429Y-148251772D01*
X158359447Y-148215646D01*
X158334193Y-148173652D01*
X158330069Y-148164549D01*
X158313325Y-148116316D01*
X158302783Y-148064124D01*
X158298597Y-148013765D01*
X158298318Y-147996266D01*
X158454633Y-147996266D01*
X158461244Y-148047391D01*
X158483149Y-148091630D01*
X158494689Y-148104710D01*
X158538033Y-148131591D01*
X158588728Y-148142651D01*
X158618764Y-148144033D01*
X159017369Y-148144033D01*
X159070076Y-148139386D01*
X159118897Y-148121914D01*
X159141688Y-148104710D01*
X159170264Y-148061176D01*
X159180878Y-148013027D01*
X159181500Y-147996266D01*
X159174929Y-147945181D01*
X159153157Y-147901076D01*
X159141688Y-147888066D01*
X159098178Y-147861019D01*
X159047413Y-147849890D01*
X159017369Y-147848499D01*
X158618764Y-147848499D01*
X158566086Y-147853175D01*
X158517373Y-147870756D01*
X158494689Y-147888066D01*
X158465938Y-147931426D01*
X158455259Y-147979509D01*
X158454633Y-147996266D01*
X158298318Y-147996266D01*
X158300829Y-147945450D01*
X158309511Y-147892251D01*
X158324395Y-147842487D01*
X158330069Y-147828227D01*
X158353778Y-147784182D01*
X158385215Y-147746387D01*
X158424379Y-147714840D01*
X158433140Y-147709281D01*
X158482046Y-147686226D01*
X158533729Y-147672777D01*
X158585768Y-147666629D01*
X158621207Y-147665561D01*
X159014926Y-147665561D01*
X159063925Y-147667653D01*
G37*
G36*
X159330000Y-147421074D02*
G01*
X159321055Y-147470758D01*
X159315345Y-147483600D01*
X159275603Y-147512308D01*
X159272114Y-147512421D01*
X158356203Y-147512421D01*
X158313217Y-147487264D01*
X158298551Y-147439633D01*
X158298318Y-147432309D01*
X158298318Y-146941381D01*
X158321469Y-146898015D01*
X158322986Y-146897173D01*
X158371601Y-146883792D01*
X158375010Y-146883740D01*
X158423870Y-146894347D01*
X158431430Y-146898639D01*
X158454633Y-146941381D01*
X158454633Y-147329727D01*
X158751632Y-147329727D01*
X158751632Y-147114305D01*
X158773126Y-147071563D01*
X158819837Y-147056722D01*
X158823440Y-147056664D01*
X158869602Y-147070097D01*
X158892316Y-147114305D01*
X158892316Y-147329727D01*
X159273091Y-147329727D01*
X159314660Y-147356087D01*
X159315589Y-147357815D01*
X159329310Y-147406026D01*
X159330000Y-147421074D01*
G37*
G36*
X159330000Y-146708862D02*
G01*
X159321055Y-146758545D01*
X159315345Y-146771388D01*
X159275603Y-146800096D01*
X159272114Y-146800209D01*
X158356203Y-146800209D01*
X158313217Y-146775052D01*
X158298551Y-146727421D01*
X158298318Y-146720097D01*
X158298318Y-146229169D01*
X158321469Y-146185803D01*
X158322986Y-146184961D01*
X158371601Y-146171580D01*
X158375010Y-146171528D01*
X158423870Y-146182134D01*
X158431430Y-146186427D01*
X158454633Y-146229169D01*
X158454633Y-146617515D01*
X158751632Y-146617515D01*
X158751632Y-146402093D01*
X158773126Y-146359351D01*
X158819837Y-146344510D01*
X158823440Y-146344452D01*
X158869602Y-146357885D01*
X158892316Y-146402093D01*
X158892316Y-146617515D01*
X159273091Y-146617515D01*
X159314660Y-146643875D01*
X159315589Y-146645603D01*
X159329310Y-146693814D01*
X159330000Y-146708862D01*
G37*
D10*
X203305607Y-149088233D02*
X203915131Y-149088233D01*
X203610369Y-149392995D02*
X203610369Y-148783471D01*
D11*
G36*
X159330000Y-137635380D02*
G01*
X159318780Y-137683919D01*
X159315345Y-137690334D01*
X159272114Y-137715491D01*
X158354738Y-137715491D01*
X158312606Y-137688444D01*
X158311751Y-137686671D01*
X158298961Y-137638657D01*
X158298318Y-137624145D01*
X158305874Y-137575372D01*
X158311751Y-137560886D01*
X158353136Y-137532825D01*
X158354982Y-137532798D01*
X159173684Y-137532798D01*
X159173684Y-137187927D01*
X159197620Y-137148115D01*
X159246219Y-137134800D01*
X159251842Y-137134682D01*
X159300669Y-137145715D01*
X159305331Y-137148115D01*
X159330000Y-137187927D01*
X159330000Y-137635380D01*
G37*
G36*
X159330000Y-136948080D02*
G01*
X159321055Y-136997764D01*
X159315345Y-137010607D01*
X159275603Y-137039315D01*
X159272114Y-137039427D01*
X158354738Y-137039427D01*
X158312606Y-137012380D01*
X158311751Y-137010607D01*
X158298961Y-136962593D01*
X158298318Y-136948080D01*
X158305874Y-136899308D01*
X158311751Y-136884822D01*
X158352906Y-136856761D01*
X158354738Y-136856734D01*
X159272114Y-136856734D01*
X159314401Y-136883093D01*
X159315345Y-136884822D01*
X159329298Y-136933032D01*
X159330000Y-136948080D01*
G37*
G36*
X159330000Y-136597348D02*
G01*
X159321055Y-136647031D01*
X159315345Y-136659874D01*
X159275603Y-136688582D01*
X159272114Y-136688695D01*
X158390153Y-136688695D01*
X158340502Y-136678534D01*
X158318834Y-136659874D01*
X158299600Y-136613895D01*
X158298318Y-136597348D01*
X158303360Y-136547947D01*
X158305401Y-136540439D01*
X158332419Y-136498234D01*
X158333733Y-136496964D01*
X158374499Y-136466336D01*
X158396015Y-136453733D01*
X158712798Y-136282274D01*
X158396015Y-136109106D01*
X158354263Y-136081385D01*
X158333733Y-136064898D01*
X158305857Y-136023403D01*
X158305401Y-136021912D01*
X158298380Y-135971708D01*
X158298318Y-135965736D01*
X158309858Y-135916963D01*
X158318834Y-135902477D01*
X158361359Y-135876911D01*
X158390153Y-135874145D01*
X159272114Y-135874145D01*
X159314401Y-135901421D01*
X159315345Y-135903210D01*
X159329298Y-135951223D01*
X159330000Y-135965736D01*
X159321055Y-136015419D01*
X159315345Y-136028262D01*
X159275603Y-136056970D01*
X159272114Y-136057083D01*
X158666392Y-136057083D01*
X158958995Y-136220237D01*
X158987327Y-136249790D01*
X158995631Y-136283740D01*
X158988060Y-136315247D01*
X158958995Y-136344068D01*
X158655157Y-136506001D01*
X159272358Y-136506001D01*
X159314401Y-136532361D01*
X159315345Y-136534089D01*
X159329298Y-136582299D01*
X159330000Y-136597348D01*
G37*
G36*
X159330000Y-135619399D02*
G01*
X159321055Y-135669083D01*
X159315345Y-135681926D01*
X159275603Y-135710634D01*
X159272114Y-135710746D01*
X158354738Y-135710746D01*
X158312606Y-135683699D01*
X158311751Y-135681926D01*
X158298961Y-135633912D01*
X158298318Y-135619399D01*
X158305874Y-135570627D01*
X158311751Y-135556140D01*
X158352906Y-135528080D01*
X158354738Y-135528053D01*
X159272114Y-135528053D01*
X159314401Y-135554412D01*
X159315345Y-135556140D01*
X159329298Y-135604351D01*
X159330000Y-135619399D01*
G37*
G36*
X159330000Y-135075959D02*
G01*
X159321756Y-135124731D01*
X159315345Y-135139218D01*
X159274345Y-135167278D01*
X159272602Y-135167306D01*
X158470265Y-135167306D01*
X158470265Y-135374180D01*
X158443886Y-135416434D01*
X158395949Y-135431280D01*
X158383558Y-135431821D01*
X158334235Y-135421910D01*
X158325673Y-135417899D01*
X158298344Y-135376012D01*
X158298318Y-135374180D01*
X158298318Y-134779204D01*
X158322360Y-134736500D01*
X158325673Y-134734752D01*
X158374031Y-134721646D01*
X158383558Y-134721318D01*
X158431900Y-134730412D01*
X158443886Y-134736217D01*
X158470239Y-134777447D01*
X158470265Y-134779204D01*
X158470265Y-134984368D01*
X159272602Y-134984368D01*
X159314416Y-135011645D01*
X159315345Y-135013433D01*
X159329298Y-135061447D01*
X159330000Y-135075959D01*
G37*
D12*
X171562295Y-136133332D02*
X171181342Y-136399999D01*
X171562295Y-136590475D02*
X170762295Y-136590475D01*
X170762295Y-136590475D02*
X170762295Y-136285713D01*
X170762295Y-136285713D02*
X170800390Y-136209523D01*
X170800390Y-136209523D02*
X170838485Y-136171428D01*
X170838485Y-136171428D02*
X170914676Y-136133332D01*
X170914676Y-136133332D02*
X171028961Y-136133332D01*
X171028961Y-136133332D02*
X171105152Y-136171428D01*
X171105152Y-136171428D02*
X171143247Y-136209523D01*
X171143247Y-136209523D02*
X171181342Y-136285713D01*
X171181342Y-136285713D02*
X171181342Y-136590475D01*
X171028961Y-135447618D02*
X171562295Y-135447618D01*
X170724200Y-135638094D02*
X171295628Y-135828571D01*
X171295628Y-135828571D02*
X171295628Y-135333332D01*
D10*
X174584804Y-140514285D02*
X174622900Y-140552381D01*
X174622900Y-140552381D02*
X174660995Y-140666666D01*
X174660995Y-140666666D02*
X174660995Y-140742857D01*
X174660995Y-140742857D02*
X174622900Y-140857143D01*
X174622900Y-140857143D02*
X174546709Y-140933333D01*
X174546709Y-140933333D02*
X174470519Y-140971428D01*
X174470519Y-140971428D02*
X174318138Y-141009524D01*
X174318138Y-141009524D02*
X174203852Y-141009524D01*
X174203852Y-141009524D02*
X174051471Y-140971428D01*
X174051471Y-140971428D02*
X173975280Y-140933333D01*
X173975280Y-140933333D02*
X173899090Y-140857143D01*
X173899090Y-140857143D02*
X173860995Y-140742857D01*
X173860995Y-140742857D02*
X173860995Y-140666666D01*
X173860995Y-140666666D02*
X173899090Y-140552381D01*
X173899090Y-140552381D02*
X173937185Y-140514285D01*
X174660995Y-139752381D02*
X174660995Y-140209524D01*
X174660995Y-139980952D02*
X173860995Y-139980952D01*
X173860995Y-139980952D02*
X173975280Y-140057143D01*
X173975280Y-140057143D02*
X174051471Y-140133333D01*
X174051471Y-140133333D02*
X174089566Y-140209524D01*
X173937185Y-139447619D02*
X173899090Y-139409523D01*
X173899090Y-139409523D02*
X173860995Y-139333333D01*
X173860995Y-139333333D02*
X173860995Y-139142857D01*
X173860995Y-139142857D02*
X173899090Y-139066666D01*
X173899090Y-139066666D02*
X173937185Y-139028571D01*
X173937185Y-139028571D02*
X174013376Y-138990476D01*
X174013376Y-138990476D02*
X174089566Y-138990476D01*
X174089566Y-138990476D02*
X174203852Y-139028571D01*
X174203852Y-139028571D02*
X174660995Y-139485714D01*
X174660995Y-139485714D02*
X174660995Y-138990476D01*
X190035701Y-149934227D02*
X189997605Y-149972323D01*
X189997605Y-149972323D02*
X189883320Y-150010418D01*
X189883320Y-150010418D02*
X189807129Y-150010418D01*
X189807129Y-150010418D02*
X189692843Y-149972323D01*
X189692843Y-149972323D02*
X189616653Y-149896132D01*
X189616653Y-149896132D02*
X189578558Y-149819942D01*
X189578558Y-149819942D02*
X189540462Y-149667561D01*
X189540462Y-149667561D02*
X189540462Y-149553275D01*
X189540462Y-149553275D02*
X189578558Y-149400894D01*
X189578558Y-149400894D02*
X189616653Y-149324703D01*
X189616653Y-149324703D02*
X189692843Y-149248513D01*
X189692843Y-149248513D02*
X189807129Y-149210418D01*
X189807129Y-149210418D02*
X189883320Y-149210418D01*
X189883320Y-149210418D02*
X189997605Y-149248513D01*
X189997605Y-149248513D02*
X190035701Y-149286608D01*
X190797605Y-150010418D02*
X190340462Y-150010418D01*
X190569034Y-150010418D02*
X190569034Y-149210418D01*
X190569034Y-149210418D02*
X190492843Y-149324703D01*
X190492843Y-149324703D02*
X190416653Y-149400894D01*
X190416653Y-149400894D02*
X190340462Y-149438989D01*
X191064272Y-149210418D02*
X191559510Y-149210418D01*
X191559510Y-149210418D02*
X191292844Y-149515180D01*
X191292844Y-149515180D02*
X191407129Y-149515180D01*
X191407129Y-149515180D02*
X191483320Y-149553275D01*
X191483320Y-149553275D02*
X191521415Y-149591370D01*
X191521415Y-149591370D02*
X191559510Y-149667561D01*
X191559510Y-149667561D02*
X191559510Y-149858037D01*
X191559510Y-149858037D02*
X191521415Y-149934227D01*
X191521415Y-149934227D02*
X191483320Y-149972323D01*
X191483320Y-149972323D02*
X191407129Y-150010418D01*
X191407129Y-150010418D02*
X191178558Y-150010418D01*
X191178558Y-150010418D02*
X191102367Y-149972323D01*
X191102367Y-149972323D02*
X191064272Y-149934227D01*
X185616667Y-152684804D02*
X185578571Y-152722900D01*
X185578571Y-152722900D02*
X185464286Y-152760995D01*
X185464286Y-152760995D02*
X185388095Y-152760995D01*
X185388095Y-152760995D02*
X185273809Y-152722900D01*
X185273809Y-152722900D02*
X185197619Y-152646709D01*
X185197619Y-152646709D02*
X185159524Y-152570519D01*
X185159524Y-152570519D02*
X185121428Y-152418138D01*
X185121428Y-152418138D02*
X185121428Y-152303852D01*
X185121428Y-152303852D02*
X185159524Y-152151471D01*
X185159524Y-152151471D02*
X185197619Y-152075280D01*
X185197619Y-152075280D02*
X185273809Y-151999090D01*
X185273809Y-151999090D02*
X185388095Y-151960995D01*
X185388095Y-151960995D02*
X185464286Y-151960995D01*
X185464286Y-151960995D02*
X185578571Y-151999090D01*
X185578571Y-151999090D02*
X185616667Y-152037185D01*
X185883333Y-151960995D02*
X186416667Y-151960995D01*
X186416667Y-151960995D02*
X186073809Y-152760995D01*
X198285714Y-134684804D02*
X198247618Y-134722900D01*
X198247618Y-134722900D02*
X198133333Y-134760995D01*
X198133333Y-134760995D02*
X198057142Y-134760995D01*
X198057142Y-134760995D02*
X197942856Y-134722900D01*
X197942856Y-134722900D02*
X197866666Y-134646709D01*
X197866666Y-134646709D02*
X197828571Y-134570519D01*
X197828571Y-134570519D02*
X197790475Y-134418138D01*
X197790475Y-134418138D02*
X197790475Y-134303852D01*
X197790475Y-134303852D02*
X197828571Y-134151471D01*
X197828571Y-134151471D02*
X197866666Y-134075280D01*
X197866666Y-134075280D02*
X197942856Y-133999090D01*
X197942856Y-133999090D02*
X198057142Y-133960995D01*
X198057142Y-133960995D02*
X198133333Y-133960995D01*
X198133333Y-133960995D02*
X198247618Y-133999090D01*
X198247618Y-133999090D02*
X198285714Y-134037185D01*
X199047618Y-134760995D02*
X198590475Y-134760995D01*
X198819047Y-134760995D02*
X198819047Y-133960995D01*
X198819047Y-133960995D02*
X198742856Y-134075280D01*
X198742856Y-134075280D02*
X198666666Y-134151471D01*
X198666666Y-134151471D02*
X198590475Y-134189566D01*
X199733333Y-134227661D02*
X199733333Y-134760995D01*
X199542857Y-133922900D02*
X199352380Y-134494328D01*
X199352380Y-134494328D02*
X199847619Y-134494328D01*
X187616667Y-134534804D02*
X187578571Y-134572900D01*
X187578571Y-134572900D02*
X187464286Y-134610995D01*
X187464286Y-134610995D02*
X187388095Y-134610995D01*
X187388095Y-134610995D02*
X187273809Y-134572900D01*
X187273809Y-134572900D02*
X187197619Y-134496709D01*
X187197619Y-134496709D02*
X187159524Y-134420519D01*
X187159524Y-134420519D02*
X187121428Y-134268138D01*
X187121428Y-134268138D02*
X187121428Y-134153852D01*
X187121428Y-134153852D02*
X187159524Y-134001471D01*
X187159524Y-134001471D02*
X187197619Y-133925280D01*
X187197619Y-133925280D02*
X187273809Y-133849090D01*
X187273809Y-133849090D02*
X187388095Y-133810995D01*
X187388095Y-133810995D02*
X187464286Y-133810995D01*
X187464286Y-133810995D02*
X187578571Y-133849090D01*
X187578571Y-133849090D02*
X187616667Y-133887185D01*
X187921428Y-133887185D02*
X187959524Y-133849090D01*
X187959524Y-133849090D02*
X188035714Y-133810995D01*
X188035714Y-133810995D02*
X188226190Y-133810995D01*
X188226190Y-133810995D02*
X188302381Y-133849090D01*
X188302381Y-133849090D02*
X188340476Y-133887185D01*
X188340476Y-133887185D02*
X188378571Y-133963376D01*
X188378571Y-133963376D02*
X188378571Y-134039566D01*
X188378571Y-134039566D02*
X188340476Y-134153852D01*
X188340476Y-134153852D02*
X187883333Y-134610995D01*
X187883333Y-134610995D02*
X188378571Y-134610995D01*
X202384804Y-136814285D02*
X202422900Y-136852381D01*
X202422900Y-136852381D02*
X202460995Y-136966666D01*
X202460995Y-136966666D02*
X202460995Y-137042857D01*
X202460995Y-137042857D02*
X202422900Y-137157143D01*
X202422900Y-137157143D02*
X202346709Y-137233333D01*
X202346709Y-137233333D02*
X202270519Y-137271428D01*
X202270519Y-137271428D02*
X202118138Y-137309524D01*
X202118138Y-137309524D02*
X202003852Y-137309524D01*
X202003852Y-137309524D02*
X201851471Y-137271428D01*
X201851471Y-137271428D02*
X201775280Y-137233333D01*
X201775280Y-137233333D02*
X201699090Y-137157143D01*
X201699090Y-137157143D02*
X201660995Y-137042857D01*
X201660995Y-137042857D02*
X201660995Y-136966666D01*
X201660995Y-136966666D02*
X201699090Y-136852381D01*
X201699090Y-136852381D02*
X201737185Y-136814285D01*
X202460995Y-136052381D02*
X202460995Y-136509524D01*
X202460995Y-136280952D02*
X201660995Y-136280952D01*
X201660995Y-136280952D02*
X201775280Y-136357143D01*
X201775280Y-136357143D02*
X201851471Y-136433333D01*
X201851471Y-136433333D02*
X201889566Y-136509524D01*
X201660995Y-135328571D02*
X201660995Y-135709523D01*
X201660995Y-135709523D02*
X202041947Y-135747619D01*
X202041947Y-135747619D02*
X202003852Y-135709523D01*
X202003852Y-135709523D02*
X201965757Y-135633333D01*
X201965757Y-135633333D02*
X201965757Y-135442857D01*
X201965757Y-135442857D02*
X202003852Y-135366666D01*
X202003852Y-135366666D02*
X202041947Y-135328571D01*
X202041947Y-135328571D02*
X202118138Y-135290476D01*
X202118138Y-135290476D02*
X202308614Y-135290476D01*
X202308614Y-135290476D02*
X202384804Y-135328571D01*
X202384804Y-135328571D02*
X202422900Y-135366666D01*
X202422900Y-135366666D02*
X202460995Y-135442857D01*
X202460995Y-135442857D02*
X202460995Y-135633333D01*
X202460995Y-135633333D02*
X202422900Y-135709523D01*
X202422900Y-135709523D02*
X202384804Y-135747619D01*
D12*
X160109832Y-146114123D02*
X160224118Y-146152218D01*
X160224118Y-146152218D02*
X160414594Y-146152218D01*
X160414594Y-146152218D02*
X160490785Y-146114123D01*
X160490785Y-146114123D02*
X160528880Y-146076027D01*
X160528880Y-146076027D02*
X160566975Y-145999837D01*
X160566975Y-145999837D02*
X160566975Y-145923646D01*
X160566975Y-145923646D02*
X160528880Y-145847456D01*
X160528880Y-145847456D02*
X160490785Y-145809361D01*
X160490785Y-145809361D02*
X160414594Y-145771265D01*
X160414594Y-145771265D02*
X160262213Y-145733170D01*
X160262213Y-145733170D02*
X160186023Y-145695075D01*
X160186023Y-145695075D02*
X160147928Y-145656980D01*
X160147928Y-145656980D02*
X160109832Y-145580789D01*
X160109832Y-145580789D02*
X160109832Y-145504599D01*
X160109832Y-145504599D02*
X160147928Y-145428408D01*
X160147928Y-145428408D02*
X160186023Y-145390313D01*
X160186023Y-145390313D02*
X160262213Y-145352218D01*
X160262213Y-145352218D02*
X160452690Y-145352218D01*
X160452690Y-145352218D02*
X160566975Y-145390313D01*
X160833642Y-145352218D02*
X161024118Y-146152218D01*
X161024118Y-146152218D02*
X161176499Y-145580789D01*
X161176499Y-145580789D02*
X161328880Y-146152218D01*
X161328880Y-146152218D02*
X161519357Y-145352218D01*
X162243166Y-146152218D02*
X161786023Y-146152218D01*
X162014595Y-146152218D02*
X162014595Y-145352218D01*
X162014595Y-145352218D02*
X161938404Y-145466503D01*
X161938404Y-145466503D02*
X161862214Y-145542694D01*
X161862214Y-145542694D02*
X161786023Y-145580789D01*
D10*
X160683333Y-148491947D02*
X160416667Y-148491947D01*
X160416667Y-148910995D02*
X160416667Y-148110995D01*
X160416667Y-148110995D02*
X160797619Y-148110995D01*
X161369047Y-148491947D02*
X161483333Y-148530042D01*
X161483333Y-148530042D02*
X161521428Y-148568138D01*
X161521428Y-148568138D02*
X161559524Y-148644328D01*
X161559524Y-148644328D02*
X161559524Y-148758614D01*
X161559524Y-148758614D02*
X161521428Y-148834804D01*
X161521428Y-148834804D02*
X161483333Y-148872900D01*
X161483333Y-148872900D02*
X161407143Y-148910995D01*
X161407143Y-148910995D02*
X161102381Y-148910995D01*
X161102381Y-148910995D02*
X161102381Y-148110995D01*
X161102381Y-148110995D02*
X161369047Y-148110995D01*
X161369047Y-148110995D02*
X161445238Y-148149090D01*
X161445238Y-148149090D02*
X161483333Y-148187185D01*
X161483333Y-148187185D02*
X161521428Y-148263376D01*
X161521428Y-148263376D02*
X161521428Y-148339566D01*
X161521428Y-148339566D02*
X161483333Y-148415757D01*
X161483333Y-148415757D02*
X161445238Y-148453852D01*
X161445238Y-148453852D02*
X161369047Y-148491947D01*
X161369047Y-148491947D02*
X161102381Y-148491947D01*
X161826190Y-148110995D02*
X162321428Y-148110995D01*
X162321428Y-148110995D02*
X162054762Y-148415757D01*
X162054762Y-148415757D02*
X162169047Y-148415757D01*
X162169047Y-148415757D02*
X162245238Y-148453852D01*
X162245238Y-148453852D02*
X162283333Y-148491947D01*
X162283333Y-148491947D02*
X162321428Y-148568138D01*
X162321428Y-148568138D02*
X162321428Y-148758614D01*
X162321428Y-148758614D02*
X162283333Y-148834804D01*
X162283333Y-148834804D02*
X162245238Y-148872900D01*
X162245238Y-148872900D02*
X162169047Y-148910995D01*
X162169047Y-148910995D02*
X161940476Y-148910995D01*
X161940476Y-148910995D02*
X161864285Y-148872900D01*
X161864285Y-148872900D02*
X161826190Y-148834804D01*
X175666667Y-147484804D02*
X175628571Y-147522900D01*
X175628571Y-147522900D02*
X175514286Y-147560995D01*
X175514286Y-147560995D02*
X175438095Y-147560995D01*
X175438095Y-147560995D02*
X175323809Y-147522900D01*
X175323809Y-147522900D02*
X175247619Y-147446709D01*
X175247619Y-147446709D02*
X175209524Y-147370519D01*
X175209524Y-147370519D02*
X175171428Y-147218138D01*
X175171428Y-147218138D02*
X175171428Y-147103852D01*
X175171428Y-147103852D02*
X175209524Y-146951471D01*
X175209524Y-146951471D02*
X175247619Y-146875280D01*
X175247619Y-146875280D02*
X175323809Y-146799090D01*
X175323809Y-146799090D02*
X175438095Y-146760995D01*
X175438095Y-146760995D02*
X175514286Y-146760995D01*
X175514286Y-146760995D02*
X175628571Y-146799090D01*
X175628571Y-146799090D02*
X175666667Y-146837185D01*
X176047619Y-147560995D02*
X176200000Y-147560995D01*
X176200000Y-147560995D02*
X176276190Y-147522900D01*
X176276190Y-147522900D02*
X176314286Y-147484804D01*
X176314286Y-147484804D02*
X176390476Y-147370519D01*
X176390476Y-147370519D02*
X176428571Y-147218138D01*
X176428571Y-147218138D02*
X176428571Y-146913376D01*
X176428571Y-146913376D02*
X176390476Y-146837185D01*
X176390476Y-146837185D02*
X176352381Y-146799090D01*
X176352381Y-146799090D02*
X176276190Y-146760995D01*
X176276190Y-146760995D02*
X176123809Y-146760995D01*
X176123809Y-146760995D02*
X176047619Y-146799090D01*
X176047619Y-146799090D02*
X176009524Y-146837185D01*
X176009524Y-146837185D02*
X175971428Y-146913376D01*
X175971428Y-146913376D02*
X175971428Y-147103852D01*
X175971428Y-147103852D02*
X176009524Y-147180042D01*
X176009524Y-147180042D02*
X176047619Y-147218138D01*
X176047619Y-147218138D02*
X176123809Y-147256233D01*
X176123809Y-147256233D02*
X176276190Y-147256233D01*
X176276190Y-147256233D02*
X176352381Y-147218138D01*
X176352381Y-147218138D02*
X176390476Y-147180042D01*
X176390476Y-147180042D02*
X176428571Y-147103852D01*
X176116667Y-150860995D02*
X175850000Y-150480042D01*
X175659524Y-150860995D02*
X175659524Y-150060995D01*
X175659524Y-150060995D02*
X175964286Y-150060995D01*
X175964286Y-150060995D02*
X176040476Y-150099090D01*
X176040476Y-150099090D02*
X176078571Y-150137185D01*
X176078571Y-150137185D02*
X176116667Y-150213376D01*
X176116667Y-150213376D02*
X176116667Y-150327661D01*
X176116667Y-150327661D02*
X176078571Y-150403852D01*
X176078571Y-150403852D02*
X176040476Y-150441947D01*
X176040476Y-150441947D02*
X175964286Y-150480042D01*
X175964286Y-150480042D02*
X175659524Y-150480042D01*
X176421428Y-150137185D02*
X176459524Y-150099090D01*
X176459524Y-150099090D02*
X176535714Y-150060995D01*
X176535714Y-150060995D02*
X176726190Y-150060995D01*
X176726190Y-150060995D02*
X176802381Y-150099090D01*
X176802381Y-150099090D02*
X176840476Y-150137185D01*
X176840476Y-150137185D02*
X176878571Y-150213376D01*
X176878571Y-150213376D02*
X176878571Y-150289566D01*
X176878571Y-150289566D02*
X176840476Y-150403852D01*
X176840476Y-150403852D02*
X176383333Y-150860995D01*
X176383333Y-150860995D02*
X176878571Y-150860995D01*
X174584804Y-143314285D02*
X174622900Y-143352381D01*
X174622900Y-143352381D02*
X174660995Y-143466666D01*
X174660995Y-143466666D02*
X174660995Y-143542857D01*
X174660995Y-143542857D02*
X174622900Y-143657143D01*
X174622900Y-143657143D02*
X174546709Y-143733333D01*
X174546709Y-143733333D02*
X174470519Y-143771428D01*
X174470519Y-143771428D02*
X174318138Y-143809524D01*
X174318138Y-143809524D02*
X174203852Y-143809524D01*
X174203852Y-143809524D02*
X174051471Y-143771428D01*
X174051471Y-143771428D02*
X173975280Y-143733333D01*
X173975280Y-143733333D02*
X173899090Y-143657143D01*
X173899090Y-143657143D02*
X173860995Y-143542857D01*
X173860995Y-143542857D02*
X173860995Y-143466666D01*
X173860995Y-143466666D02*
X173899090Y-143352381D01*
X173899090Y-143352381D02*
X173937185Y-143314285D01*
X174660995Y-142552381D02*
X174660995Y-143009524D01*
X174660995Y-142780952D02*
X173860995Y-142780952D01*
X173860995Y-142780952D02*
X173975280Y-142857143D01*
X173975280Y-142857143D02*
X174051471Y-142933333D01*
X174051471Y-142933333D02*
X174089566Y-143009524D01*
X174660995Y-141790476D02*
X174660995Y-142247619D01*
X174660995Y-142019047D02*
X173860995Y-142019047D01*
X173860995Y-142019047D02*
X173975280Y-142095238D01*
X173975280Y-142095238D02*
X174051471Y-142171428D01*
X174051471Y-142171428D02*
X174089566Y-142247619D01*
X176266667Y-137260995D02*
X176000000Y-136880042D01*
X175809524Y-137260995D02*
X175809524Y-136460995D01*
X175809524Y-136460995D02*
X176114286Y-136460995D01*
X176114286Y-136460995D02*
X176190476Y-136499090D01*
X176190476Y-136499090D02*
X176228571Y-136537185D01*
X176228571Y-136537185D02*
X176266667Y-136613376D01*
X176266667Y-136613376D02*
X176266667Y-136727661D01*
X176266667Y-136727661D02*
X176228571Y-136803852D01*
X176228571Y-136803852D02*
X176190476Y-136841947D01*
X176190476Y-136841947D02*
X176114286Y-136880042D01*
X176114286Y-136880042D02*
X175809524Y-136880042D01*
X177028571Y-137260995D02*
X176571428Y-137260995D01*
X176800000Y-137260995D02*
X176800000Y-136460995D01*
X176800000Y-136460995D02*
X176723809Y-136575280D01*
X176723809Y-136575280D02*
X176647619Y-136651471D01*
X176647619Y-136651471D02*
X176571428Y-136689566D01*
X191384804Y-139633332D02*
X191422900Y-139671428D01*
X191422900Y-139671428D02*
X191460995Y-139785713D01*
X191460995Y-139785713D02*
X191460995Y-139861904D01*
X191460995Y-139861904D02*
X191422900Y-139976190D01*
X191422900Y-139976190D02*
X191346709Y-140052380D01*
X191346709Y-140052380D02*
X191270519Y-140090475D01*
X191270519Y-140090475D02*
X191118138Y-140128571D01*
X191118138Y-140128571D02*
X191003852Y-140128571D01*
X191003852Y-140128571D02*
X190851471Y-140090475D01*
X190851471Y-140090475D02*
X190775280Y-140052380D01*
X190775280Y-140052380D02*
X190699090Y-139976190D01*
X190699090Y-139976190D02*
X190660995Y-139861904D01*
X190660995Y-139861904D02*
X190660995Y-139785713D01*
X190660995Y-139785713D02*
X190699090Y-139671428D01*
X190699090Y-139671428D02*
X190737185Y-139633332D01*
X190927661Y-138947618D02*
X191460995Y-138947618D01*
X190622900Y-139138094D02*
X191194328Y-139328571D01*
X191194328Y-139328571D02*
X191194328Y-138833332D01*
X190116667Y-134534804D02*
X190078571Y-134572900D01*
X190078571Y-134572900D02*
X189964286Y-134610995D01*
X189964286Y-134610995D02*
X189888095Y-134610995D01*
X189888095Y-134610995D02*
X189773809Y-134572900D01*
X189773809Y-134572900D02*
X189697619Y-134496709D01*
X189697619Y-134496709D02*
X189659524Y-134420519D01*
X189659524Y-134420519D02*
X189621428Y-134268138D01*
X189621428Y-134268138D02*
X189621428Y-134153852D01*
X189621428Y-134153852D02*
X189659524Y-134001471D01*
X189659524Y-134001471D02*
X189697619Y-133925280D01*
X189697619Y-133925280D02*
X189773809Y-133849090D01*
X189773809Y-133849090D02*
X189888095Y-133810995D01*
X189888095Y-133810995D02*
X189964286Y-133810995D01*
X189964286Y-133810995D02*
X190078571Y-133849090D01*
X190078571Y-133849090D02*
X190116667Y-133887185D01*
X190383333Y-133810995D02*
X190878571Y-133810995D01*
X190878571Y-133810995D02*
X190611905Y-134115757D01*
X190611905Y-134115757D02*
X190726190Y-134115757D01*
X190726190Y-134115757D02*
X190802381Y-134153852D01*
X190802381Y-134153852D02*
X190840476Y-134191947D01*
X190840476Y-134191947D02*
X190878571Y-134268138D01*
X190878571Y-134268138D02*
X190878571Y-134458614D01*
X190878571Y-134458614D02*
X190840476Y-134534804D01*
X190840476Y-134534804D02*
X190802381Y-134572900D01*
X190802381Y-134572900D02*
X190726190Y-134610995D01*
X190726190Y-134610995D02*
X190497619Y-134610995D01*
X190497619Y-134610995D02*
X190421428Y-134572900D01*
X190421428Y-134572900D02*
X190383333Y-134534804D01*
X164966667Y-153160995D02*
X164700000Y-152780042D01*
X164509524Y-153160995D02*
X164509524Y-152360995D01*
X164509524Y-152360995D02*
X164814286Y-152360995D01*
X164814286Y-152360995D02*
X164890476Y-152399090D01*
X164890476Y-152399090D02*
X164928571Y-152437185D01*
X164928571Y-152437185D02*
X164966667Y-152513376D01*
X164966667Y-152513376D02*
X164966667Y-152627661D01*
X164966667Y-152627661D02*
X164928571Y-152703852D01*
X164928571Y-152703852D02*
X164890476Y-152741947D01*
X164890476Y-152741947D02*
X164814286Y-152780042D01*
X164814286Y-152780042D02*
X164509524Y-152780042D01*
X165652381Y-152360995D02*
X165500000Y-152360995D01*
X165500000Y-152360995D02*
X165423809Y-152399090D01*
X165423809Y-152399090D02*
X165385714Y-152437185D01*
X165385714Y-152437185D02*
X165309524Y-152551471D01*
X165309524Y-152551471D02*
X165271428Y-152703852D01*
X165271428Y-152703852D02*
X165271428Y-153008614D01*
X165271428Y-153008614D02*
X165309524Y-153084804D01*
X165309524Y-153084804D02*
X165347619Y-153122900D01*
X165347619Y-153122900D02*
X165423809Y-153160995D01*
X165423809Y-153160995D02*
X165576190Y-153160995D01*
X165576190Y-153160995D02*
X165652381Y-153122900D01*
X165652381Y-153122900D02*
X165690476Y-153084804D01*
X165690476Y-153084804D02*
X165728571Y-153008614D01*
X165728571Y-153008614D02*
X165728571Y-152818138D01*
X165728571Y-152818138D02*
X165690476Y-152741947D01*
X165690476Y-152741947D02*
X165652381Y-152703852D01*
X165652381Y-152703852D02*
X165576190Y-152665757D01*
X165576190Y-152665757D02*
X165423809Y-152665757D01*
X165423809Y-152665757D02*
X165347619Y-152703852D01*
X165347619Y-152703852D02*
X165309524Y-152741947D01*
X165309524Y-152741947D02*
X165271428Y-152818138D01*
X190366667Y-141584804D02*
X190328571Y-141622900D01*
X190328571Y-141622900D02*
X190214286Y-141660995D01*
X190214286Y-141660995D02*
X190138095Y-141660995D01*
X190138095Y-141660995D02*
X190023809Y-141622900D01*
X190023809Y-141622900D02*
X189947619Y-141546709D01*
X189947619Y-141546709D02*
X189909524Y-141470519D01*
X189909524Y-141470519D02*
X189871428Y-141318138D01*
X189871428Y-141318138D02*
X189871428Y-141203852D01*
X189871428Y-141203852D02*
X189909524Y-141051471D01*
X189909524Y-141051471D02*
X189947619Y-140975280D01*
X189947619Y-140975280D02*
X190023809Y-140899090D01*
X190023809Y-140899090D02*
X190138095Y-140860995D01*
X190138095Y-140860995D02*
X190214286Y-140860995D01*
X190214286Y-140860995D02*
X190328571Y-140899090D01*
X190328571Y-140899090D02*
X190366667Y-140937185D01*
X191090476Y-140860995D02*
X190709524Y-140860995D01*
X190709524Y-140860995D02*
X190671428Y-141241947D01*
X190671428Y-141241947D02*
X190709524Y-141203852D01*
X190709524Y-141203852D02*
X190785714Y-141165757D01*
X190785714Y-141165757D02*
X190976190Y-141165757D01*
X190976190Y-141165757D02*
X191052381Y-141203852D01*
X191052381Y-141203852D02*
X191090476Y-141241947D01*
X191090476Y-141241947D02*
X191128571Y-141318138D01*
X191128571Y-141318138D02*
X191128571Y-141508614D01*
X191128571Y-141508614D02*
X191090476Y-141584804D01*
X191090476Y-141584804D02*
X191052381Y-141622900D01*
X191052381Y-141622900D02*
X190976190Y-141660995D01*
X190976190Y-141660995D02*
X190785714Y-141660995D01*
X190785714Y-141660995D02*
X190709524Y-141622900D01*
X190709524Y-141622900D02*
X190671428Y-141584804D01*
X165733333Y-136010995D02*
X165733333Y-136582423D01*
X165733333Y-136582423D02*
X165695238Y-136696709D01*
X165695238Y-136696709D02*
X165619047Y-136772900D01*
X165619047Y-136772900D02*
X165504762Y-136810995D01*
X165504762Y-136810995D02*
X165428571Y-136810995D01*
X166533333Y-136810995D02*
X166076190Y-136810995D01*
X166304762Y-136810995D02*
X166304762Y-136010995D01*
X166304762Y-136010995D02*
X166228571Y-136125280D01*
X166228571Y-136125280D02*
X166152381Y-136201471D01*
X166152381Y-136201471D02*
X166076190Y-136239566D01*
X190023809Y-146037185D02*
X189947619Y-145999090D01*
X189947619Y-145999090D02*
X189871428Y-145922900D01*
X189871428Y-145922900D02*
X189757142Y-145808614D01*
X189757142Y-145808614D02*
X189680952Y-145770519D01*
X189680952Y-145770519D02*
X189604761Y-145770519D01*
X189642857Y-145960995D02*
X189566666Y-145922900D01*
X189566666Y-145922900D02*
X189490476Y-145846709D01*
X189490476Y-145846709D02*
X189452380Y-145694328D01*
X189452380Y-145694328D02*
X189452380Y-145427661D01*
X189452380Y-145427661D02*
X189490476Y-145275280D01*
X189490476Y-145275280D02*
X189566666Y-145199090D01*
X189566666Y-145199090D02*
X189642857Y-145160995D01*
X189642857Y-145160995D02*
X189795238Y-145160995D01*
X189795238Y-145160995D02*
X189871428Y-145199090D01*
X189871428Y-145199090D02*
X189947619Y-145275280D01*
X189947619Y-145275280D02*
X189985714Y-145427661D01*
X189985714Y-145427661D02*
X189985714Y-145694328D01*
X189985714Y-145694328D02*
X189947619Y-145846709D01*
X189947619Y-145846709D02*
X189871428Y-145922900D01*
X189871428Y-145922900D02*
X189795238Y-145960995D01*
X189795238Y-145960995D02*
X189642857Y-145960995D01*
X190747618Y-145960995D02*
X190290475Y-145960995D01*
X190519047Y-145960995D02*
X190519047Y-145160995D01*
X190519047Y-145160995D02*
X190442856Y-145275280D01*
X190442856Y-145275280D02*
X190366666Y-145351471D01*
X190366666Y-145351471D02*
X190290475Y-145389566D01*
X180640476Y-136860995D02*
X180640476Y-137508614D01*
X180640476Y-137508614D02*
X180678571Y-137584804D01*
X180678571Y-137584804D02*
X180716666Y-137622900D01*
X180716666Y-137622900D02*
X180792857Y-137660995D01*
X180792857Y-137660995D02*
X180945238Y-137660995D01*
X180945238Y-137660995D02*
X181021428Y-137622900D01*
X181021428Y-137622900D02*
X181059523Y-137584804D01*
X181059523Y-137584804D02*
X181097619Y-137508614D01*
X181097619Y-137508614D02*
X181097619Y-136860995D01*
X181440475Y-136937185D02*
X181478571Y-136899090D01*
X181478571Y-136899090D02*
X181554761Y-136860995D01*
X181554761Y-136860995D02*
X181745237Y-136860995D01*
X181745237Y-136860995D02*
X181821428Y-136899090D01*
X181821428Y-136899090D02*
X181859523Y-136937185D01*
X181859523Y-136937185D02*
X181897618Y-137013376D01*
X181897618Y-137013376D02*
X181897618Y-137089566D01*
X181897618Y-137089566D02*
X181859523Y-137203852D01*
X181859523Y-137203852D02*
X181402380Y-137660995D01*
X181402380Y-137660995D02*
X181897618Y-137660995D01*
X171266667Y-148960995D02*
X171000000Y-148580042D01*
X170809524Y-148960995D02*
X170809524Y-148160995D01*
X170809524Y-148160995D02*
X171114286Y-148160995D01*
X171114286Y-148160995D02*
X171190476Y-148199090D01*
X171190476Y-148199090D02*
X171228571Y-148237185D01*
X171228571Y-148237185D02*
X171266667Y-148313376D01*
X171266667Y-148313376D02*
X171266667Y-148427661D01*
X171266667Y-148427661D02*
X171228571Y-148503852D01*
X171228571Y-148503852D02*
X171190476Y-148541947D01*
X171190476Y-148541947D02*
X171114286Y-148580042D01*
X171114286Y-148580042D02*
X170809524Y-148580042D01*
X171990476Y-148160995D02*
X171609524Y-148160995D01*
X171609524Y-148160995D02*
X171571428Y-148541947D01*
X171571428Y-148541947D02*
X171609524Y-148503852D01*
X171609524Y-148503852D02*
X171685714Y-148465757D01*
X171685714Y-148465757D02*
X171876190Y-148465757D01*
X171876190Y-148465757D02*
X171952381Y-148503852D01*
X171952381Y-148503852D02*
X171990476Y-148541947D01*
X171990476Y-148541947D02*
X172028571Y-148618138D01*
X172028571Y-148618138D02*
X172028571Y-148808614D01*
X172028571Y-148808614D02*
X171990476Y-148884804D01*
X171990476Y-148884804D02*
X171952381Y-148922900D01*
X171952381Y-148922900D02*
X171876190Y-148960995D01*
X171876190Y-148960995D02*
X171685714Y-148960995D01*
X171685714Y-148960995D02*
X171609524Y-148922900D01*
X171609524Y-148922900D02*
X171571428Y-148884804D01*
X159510995Y-150333332D02*
X159130042Y-150599999D01*
X159510995Y-150790475D02*
X158710995Y-150790475D01*
X158710995Y-150790475D02*
X158710995Y-150485713D01*
X158710995Y-150485713D02*
X158749090Y-150409523D01*
X158749090Y-150409523D02*
X158787185Y-150371428D01*
X158787185Y-150371428D02*
X158863376Y-150333332D01*
X158863376Y-150333332D02*
X158977661Y-150333332D01*
X158977661Y-150333332D02*
X159053852Y-150371428D01*
X159053852Y-150371428D02*
X159091947Y-150409523D01*
X159091947Y-150409523D02*
X159130042Y-150485713D01*
X159130042Y-150485713D02*
X159130042Y-150790475D01*
X158710995Y-150066666D02*
X158710995Y-149571428D01*
X158710995Y-149571428D02*
X159015757Y-149838094D01*
X159015757Y-149838094D02*
X159015757Y-149723809D01*
X159015757Y-149723809D02*
X159053852Y-149647618D01*
X159053852Y-149647618D02*
X159091947Y-149609523D01*
X159091947Y-149609523D02*
X159168138Y-149571428D01*
X159168138Y-149571428D02*
X159358614Y-149571428D01*
X159358614Y-149571428D02*
X159434804Y-149609523D01*
X159434804Y-149609523D02*
X159472900Y-149647618D01*
X159472900Y-149647618D02*
X159510995Y-149723809D01*
X159510995Y-149723809D02*
X159510995Y-149952380D01*
X159510995Y-149952380D02*
X159472900Y-150028571D01*
X159472900Y-150028571D02*
X159434804Y-150066666D01*
X188116667Y-152684804D02*
X188078571Y-152722900D01*
X188078571Y-152722900D02*
X187964286Y-152760995D01*
X187964286Y-152760995D02*
X187888095Y-152760995D01*
X187888095Y-152760995D02*
X187773809Y-152722900D01*
X187773809Y-152722900D02*
X187697619Y-152646709D01*
X187697619Y-152646709D02*
X187659524Y-152570519D01*
X187659524Y-152570519D02*
X187621428Y-152418138D01*
X187621428Y-152418138D02*
X187621428Y-152303852D01*
X187621428Y-152303852D02*
X187659524Y-152151471D01*
X187659524Y-152151471D02*
X187697619Y-152075280D01*
X187697619Y-152075280D02*
X187773809Y-151999090D01*
X187773809Y-151999090D02*
X187888095Y-151960995D01*
X187888095Y-151960995D02*
X187964286Y-151960995D01*
X187964286Y-151960995D02*
X188078571Y-151999090D01*
X188078571Y-151999090D02*
X188116667Y-152037185D01*
X188573809Y-152303852D02*
X188497619Y-152265757D01*
X188497619Y-152265757D02*
X188459524Y-152227661D01*
X188459524Y-152227661D02*
X188421428Y-152151471D01*
X188421428Y-152151471D02*
X188421428Y-152113376D01*
X188421428Y-152113376D02*
X188459524Y-152037185D01*
X188459524Y-152037185D02*
X188497619Y-151999090D01*
X188497619Y-151999090D02*
X188573809Y-151960995D01*
X188573809Y-151960995D02*
X188726190Y-151960995D01*
X188726190Y-151960995D02*
X188802381Y-151999090D01*
X188802381Y-151999090D02*
X188840476Y-152037185D01*
X188840476Y-152037185D02*
X188878571Y-152113376D01*
X188878571Y-152113376D02*
X188878571Y-152151471D01*
X188878571Y-152151471D02*
X188840476Y-152227661D01*
X188840476Y-152227661D02*
X188802381Y-152265757D01*
X188802381Y-152265757D02*
X188726190Y-152303852D01*
X188726190Y-152303852D02*
X188573809Y-152303852D01*
X188573809Y-152303852D02*
X188497619Y-152341947D01*
X188497619Y-152341947D02*
X188459524Y-152380042D01*
X188459524Y-152380042D02*
X188421428Y-152456233D01*
X188421428Y-152456233D02*
X188421428Y-152608614D01*
X188421428Y-152608614D02*
X188459524Y-152684804D01*
X188459524Y-152684804D02*
X188497619Y-152722900D01*
X188497619Y-152722900D02*
X188573809Y-152760995D01*
X188573809Y-152760995D02*
X188726190Y-152760995D01*
X188726190Y-152760995D02*
X188802381Y-152722900D01*
X188802381Y-152722900D02*
X188840476Y-152684804D01*
X188840476Y-152684804D02*
X188878571Y-152608614D01*
X188878571Y-152608614D02*
X188878571Y-152456233D01*
X188878571Y-152456233D02*
X188840476Y-152380042D01*
X188840476Y-152380042D02*
X188802381Y-152341947D01*
X188802381Y-152341947D02*
X188726190Y-152303852D01*
X174384804Y-147814285D02*
X174422900Y-147852381D01*
X174422900Y-147852381D02*
X174460995Y-147966666D01*
X174460995Y-147966666D02*
X174460995Y-148042857D01*
X174460995Y-148042857D02*
X174422900Y-148157143D01*
X174422900Y-148157143D02*
X174346709Y-148233333D01*
X174346709Y-148233333D02*
X174270519Y-148271428D01*
X174270519Y-148271428D02*
X174118138Y-148309524D01*
X174118138Y-148309524D02*
X174003852Y-148309524D01*
X174003852Y-148309524D02*
X173851471Y-148271428D01*
X173851471Y-148271428D02*
X173775280Y-148233333D01*
X173775280Y-148233333D02*
X173699090Y-148157143D01*
X173699090Y-148157143D02*
X173660995Y-148042857D01*
X173660995Y-148042857D02*
X173660995Y-147966666D01*
X173660995Y-147966666D02*
X173699090Y-147852381D01*
X173699090Y-147852381D02*
X173737185Y-147814285D01*
X174460995Y-147052381D02*
X174460995Y-147509524D01*
X174460995Y-147280952D02*
X173660995Y-147280952D01*
X173660995Y-147280952D02*
X173775280Y-147357143D01*
X173775280Y-147357143D02*
X173851471Y-147433333D01*
X173851471Y-147433333D02*
X173889566Y-147509524D01*
X173660995Y-146557142D02*
X173660995Y-146480952D01*
X173660995Y-146480952D02*
X173699090Y-146404761D01*
X173699090Y-146404761D02*
X173737185Y-146366666D01*
X173737185Y-146366666D02*
X173813376Y-146328571D01*
X173813376Y-146328571D02*
X173965757Y-146290476D01*
X173965757Y-146290476D02*
X174156233Y-146290476D01*
X174156233Y-146290476D02*
X174308614Y-146328571D01*
X174308614Y-146328571D02*
X174384804Y-146366666D01*
X174384804Y-146366666D02*
X174422900Y-146404761D01*
X174422900Y-146404761D02*
X174460995Y-146480952D01*
X174460995Y-146480952D02*
X174460995Y-146557142D01*
X174460995Y-146557142D02*
X174422900Y-146633333D01*
X174422900Y-146633333D02*
X174384804Y-146671428D01*
X174384804Y-146671428D02*
X174308614Y-146709523D01*
X174308614Y-146709523D02*
X174156233Y-146747619D01*
X174156233Y-146747619D02*
X173965757Y-146747619D01*
X173965757Y-146747619D02*
X173813376Y-146709523D01*
X173813376Y-146709523D02*
X173737185Y-146671428D01*
X173737185Y-146671428D02*
X173699090Y-146633333D01*
X173699090Y-146633333D02*
X173660995Y-146557142D01*
D12*
X161133333Y-136524819D02*
X160800000Y-136048628D01*
X160561905Y-136524819D02*
X160561905Y-135524819D01*
X160561905Y-135524819D02*
X160942857Y-135524819D01*
X160942857Y-135524819D02*
X161038095Y-135572438D01*
X161038095Y-135572438D02*
X161085714Y-135620057D01*
X161085714Y-135620057D02*
X161133333Y-135715295D01*
X161133333Y-135715295D02*
X161133333Y-135858152D01*
X161133333Y-135858152D02*
X161085714Y-135953390D01*
X161085714Y-135953390D02*
X161038095Y-136001009D01*
X161038095Y-136001009D02*
X160942857Y-136048628D01*
X160942857Y-136048628D02*
X160561905Y-136048628D01*
X161704762Y-135953390D02*
X161609524Y-135905771D01*
X161609524Y-135905771D02*
X161561905Y-135858152D01*
X161561905Y-135858152D02*
X161514286Y-135762914D01*
X161514286Y-135762914D02*
X161514286Y-135715295D01*
X161514286Y-135715295D02*
X161561905Y-135620057D01*
X161561905Y-135620057D02*
X161609524Y-135572438D01*
X161609524Y-135572438D02*
X161704762Y-135524819D01*
X161704762Y-135524819D02*
X161895238Y-135524819D01*
X161895238Y-135524819D02*
X161990476Y-135572438D01*
X161990476Y-135572438D02*
X162038095Y-135620057D01*
X162038095Y-135620057D02*
X162085714Y-135715295D01*
X162085714Y-135715295D02*
X162085714Y-135762914D01*
X162085714Y-135762914D02*
X162038095Y-135858152D01*
X162038095Y-135858152D02*
X161990476Y-135905771D01*
X161990476Y-135905771D02*
X161895238Y-135953390D01*
X161895238Y-135953390D02*
X161704762Y-135953390D01*
X161704762Y-135953390D02*
X161609524Y-136001009D01*
X161609524Y-136001009D02*
X161561905Y-136048628D01*
X161561905Y-136048628D02*
X161514286Y-136143866D01*
X161514286Y-136143866D02*
X161514286Y-136334342D01*
X161514286Y-136334342D02*
X161561905Y-136429580D01*
X161561905Y-136429580D02*
X161609524Y-136477200D01*
X161609524Y-136477200D02*
X161704762Y-136524819D01*
X161704762Y-136524819D02*
X161895238Y-136524819D01*
X161895238Y-136524819D02*
X161990476Y-136477200D01*
X161990476Y-136477200D02*
X162038095Y-136429580D01*
X162038095Y-136429580D02*
X162085714Y-136334342D01*
X162085714Y-136334342D02*
X162085714Y-136143866D01*
X162085714Y-136143866D02*
X162038095Y-136048628D01*
X162038095Y-136048628D02*
X161990476Y-136001009D01*
X161990476Y-136001009D02*
X161895238Y-135953390D01*
D13*
%TO.C,R4*%
X171800000Y-135000000D02*
X171800000Y-137000000D01*
X171800000Y-137000000D02*
X175200000Y-137000000D01*
X175200000Y-135000000D02*
X171800000Y-135000000D01*
X175200000Y-137000000D02*
X175200000Y-135000000D01*
%TO.C,C12*%
X175050000Y-139250000D02*
X175050000Y-141250000D01*
X175050000Y-141250000D02*
X178450000Y-141250000D01*
X178450000Y-139250000D02*
X175050000Y-139250000D01*
X178450000Y-141250000D02*
X178450000Y-139250000D01*
%TO.C,C13*%
X189500000Y-150290000D02*
X189500000Y-152290000D01*
X189500000Y-152290000D02*
X192900000Y-152290000D01*
X192900000Y-150290000D02*
X189500000Y-150290000D01*
X192900000Y-152290000D02*
X192900000Y-150290000D01*
%TO.C,C7*%
X184750000Y-148300000D02*
X184750000Y-151700000D01*
X184750000Y-151700000D02*
X186750000Y-151700000D01*
X186750000Y-148300000D02*
X184750000Y-148300000D01*
X186750000Y-151700000D02*
X186750000Y-148300000D01*
%TO.C,C14*%
X194200000Y-133900000D02*
X194200000Y-135900000D01*
X194200000Y-135900000D02*
X197600000Y-135900000D01*
X197600000Y-133900000D02*
X194200000Y-133900000D01*
X197600000Y-135900000D02*
X197600000Y-133900000D01*
%TO.C,C2*%
X186750000Y-134800000D02*
X186750000Y-138200000D01*
X186750000Y-138200000D02*
X188750000Y-138200000D01*
X188750000Y-134800000D02*
X186750000Y-134800000D01*
X188750000Y-138200000D02*
X188750000Y-134800000D01*
%TO.C,C15*%
X197900000Y-135300000D02*
X197900000Y-137300000D01*
X197900000Y-137300000D02*
X201300000Y-137300000D01*
X201300000Y-135300000D02*
X197900000Y-135300000D01*
X201300000Y-137300000D02*
X201300000Y-135300000D01*
D14*
%TO.C,SW1*%
X159712504Y-139890000D02*
X159712504Y-143890000D01*
X161612504Y-139390000D02*
X160612504Y-139390000D01*
X161612504Y-144390000D02*
X160612504Y-144390000D01*
X162512504Y-139890000D02*
X162512504Y-140308847D01*
X162512504Y-143471153D02*
X162512504Y-143890000D01*
X163090000Y-139590000D02*
G75*
G02*
X162890000Y-139590000I-100000J0D01*
G01*
X162890000Y-139590000D02*
G75*
G02*
X163090000Y-139590000I100000J0D01*
G01*
D15*
X163504147Y-138890000D02*
G75*
G02*
X163444153Y-138890000I-29997J0D01*
G01*
X163444153Y-138890000D02*
G75*
G02*
X163504147Y-138890000I29997J0D01*
G01*
D13*
%TO.C,FB3*%
X159925000Y-146375000D02*
X159925000Y-147825000D01*
X159925000Y-147825000D02*
X162875000Y-147825000D01*
X162875000Y-146375000D02*
X159925000Y-146375000D01*
X162875000Y-147825000D02*
X162875000Y-146375000D01*
%TO.C,C9*%
X175050000Y-144500000D02*
X175050000Y-146500000D01*
X175050000Y-146500000D02*
X178450000Y-146500000D01*
X178450000Y-144500000D02*
X175050000Y-144500000D01*
X178450000Y-146500000D02*
X178450000Y-144500000D01*
%TO.C,R2*%
X175525000Y-148275000D02*
X175525000Y-149725000D01*
X175525000Y-149725000D02*
X178475000Y-149725000D01*
X178475000Y-148275000D02*
X175525000Y-148275000D01*
X178475000Y-149725000D02*
X178475000Y-148275000D01*
%TO.C,C11*%
X175050000Y-141500000D02*
X175050000Y-143500000D01*
X175050000Y-143500000D02*
X178450000Y-143500000D01*
X178450000Y-141500000D02*
X175050000Y-141500000D01*
X178450000Y-143500000D02*
X178450000Y-141500000D01*
%TO.C,R1*%
X175562500Y-137525000D02*
X175562500Y-138975000D01*
X175562500Y-138975000D02*
X178512500Y-138975000D01*
X178512500Y-137525000D02*
X175562500Y-137525000D01*
X178512500Y-138975000D02*
X178512500Y-137525000D01*
%TO.C,C4*%
X186800000Y-138500000D02*
X186800000Y-140500000D01*
X186800000Y-140500000D02*
X190200000Y-140500000D01*
X190200000Y-138500000D02*
X186800000Y-138500000D01*
X190200000Y-140500000D02*
X190200000Y-138500000D01*
%TO.C,C3*%
X189250000Y-134800000D02*
X189250000Y-138200000D01*
X189250000Y-138200000D02*
X191250000Y-138200000D01*
X191250000Y-134800000D02*
X189250000Y-134800000D01*
X191250000Y-138200000D02*
X191250000Y-134800000D01*
%TO.C,R6*%
X164475000Y-149125000D02*
X164475000Y-152075000D01*
X164475000Y-152075000D02*
X165925000Y-152075000D01*
X165925000Y-149125000D02*
X164475000Y-149125000D01*
X165925000Y-152075000D02*
X165925000Y-149125000D01*
%TO.C,C5*%
X187600000Y-141000000D02*
X187600000Y-144400000D01*
X187600000Y-144400000D02*
X189600000Y-144400000D01*
X189600000Y-141000000D02*
X187600000Y-141000000D01*
X189600000Y-144400000D02*
X189600000Y-141000000D01*
D11*
%TO.C,J1*%
X164000000Y-137250000D02*
X166900000Y-137250000D01*
X164000000Y-147750000D02*
X164000000Y-137250000D01*
X164000000Y-147750000D02*
X167000000Y-147750000D01*
X170000000Y-147750000D02*
X173000000Y-147750000D01*
X170100000Y-137250000D02*
X173000000Y-137250000D01*
X173000000Y-147750000D02*
X173000000Y-137250000D01*
D13*
X167203737Y-145838577D02*
G75*
G02*
X168500000Y-140354999I1296263J2588577D01*
G01*
X168500000Y-140355000D02*
G75*
G02*
X169796263Y-145838576I0J-2895000D01*
G01*
X170300000Y-143250000D02*
G75*
G02*
X166700000Y-143250000I-1800000J0D01*
G01*
X166700000Y-143250000D02*
G75*
G02*
X170300000Y-143250000I1800000J0D01*
G01*
%TO.C,Q1*%
X188750000Y-144940000D02*
X187950000Y-144940000D01*
X188750000Y-144940000D02*
X189550000Y-144940000D01*
X188750000Y-148060000D02*
X187950000Y-148060000D01*
X188750000Y-148060000D02*
X189550000Y-148060000D01*
X187450000Y-144990000D02*
X187210000Y-144660000D01*
X187690000Y-144660000D01*
X187450000Y-144990000D01*
G36*
X187450000Y-144990000D02*
G01*
X187210000Y-144660000D01*
X187690000Y-144660000D01*
X187450000Y-144990000D01*
G37*
%TO.C,J2*%
X204420000Y-150230000D02*
X204420000Y-147630000D01*
X207080000Y-147630000D02*
X204420000Y-147630000D01*
X207080000Y-150230000D02*
X204420000Y-150230000D01*
X207080000Y-150230000D02*
X207080000Y-147630000D01*
X207080000Y-151500000D02*
X207080000Y-152830000D01*
X207080000Y-152830000D02*
X205750000Y-152830000D01*
D16*
%TO.C,RV1*%
X191979000Y-137630000D02*
X202020000Y-137630000D01*
X191979000Y-141566000D02*
X191979000Y-137630000D01*
X191979000Y-149870000D02*
X191979000Y-145933000D01*
X191979000Y-149870000D02*
X193629000Y-149870000D01*
X195371000Y-149870000D02*
X196130000Y-149870000D01*
X197871000Y-149870000D02*
X198630000Y-149870000D01*
X200370000Y-149870000D02*
X202020000Y-149870000D01*
X202020000Y-141566000D02*
X202020000Y-137630000D01*
X202020000Y-149870000D02*
X202020000Y-145933000D01*
D13*
%TO.C,U2*%
X180315000Y-138140000D02*
X180315000Y-138415000D01*
X180315000Y-148060000D02*
X180315000Y-147785000D01*
X182625000Y-138140000D02*
X180315000Y-138140000D01*
X182625000Y-138140000D02*
X184935000Y-138140000D01*
X182625000Y-148060000D02*
X180315000Y-148060000D01*
X182625000Y-148060000D02*
X184935000Y-148060000D01*
X184935000Y-138140000D02*
X184935000Y-138415000D01*
X184935000Y-148060000D02*
X184935000Y-147785000D01*
X179725000Y-138415000D02*
X179485000Y-138085000D01*
X179965000Y-138085000D01*
X179725000Y-138415000D01*
G36*
X179725000Y-138415000D02*
G01*
X179485000Y-138085000D01*
X179965000Y-138085000D01*
X179725000Y-138415000D01*
G37*
%TO.C,R5*%
X170675000Y-149225000D02*
X170675000Y-152175000D01*
X170675000Y-152175000D02*
X172125000Y-152175000D01*
X172125000Y-149225000D02*
X170675000Y-149225000D01*
X172125000Y-152175000D02*
X172125000Y-149225000D01*
%TO.C,LS1*%
X204670000Y-133670000D02*
X206000000Y-133670000D01*
X204670000Y-135000000D02*
X204670000Y-133670000D01*
X204670000Y-136270000D02*
X204670000Y-138870000D01*
X204670000Y-136270000D02*
X207330000Y-136270000D01*
X204670000Y-138870000D02*
X207330000Y-138870000D01*
X207330000Y-136270000D02*
X207330000Y-138870000D01*
%TO.C,R3*%
X159925000Y-149475000D02*
X159925000Y-150925000D01*
X159925000Y-150925000D02*
X162875000Y-150925000D01*
X162875000Y-149475000D02*
X159925000Y-149475000D01*
X162875000Y-150925000D02*
X162875000Y-149475000D01*
%TO.C,C8*%
X187250000Y-148300000D02*
X187250000Y-151700000D01*
X187250000Y-151700000D02*
X189250000Y-151700000D01*
X189250000Y-148300000D02*
X187250000Y-148300000D01*
X189250000Y-151700000D02*
X189250000Y-148300000D01*
%TO.C,C10*%
X172600000Y-148700000D02*
X172600000Y-152100000D01*
X172600000Y-152100000D02*
X174600000Y-152100000D01*
X174600000Y-148700000D02*
X172600000Y-148700000D01*
X174600000Y-152100000D02*
X174600000Y-148700000D01*
%TO.C,R8*%
X159825000Y-136775000D02*
X159825000Y-138225000D01*
X159825000Y-138225000D02*
X162775000Y-138225000D01*
X162775000Y-136775000D02*
X159825000Y-136775000D01*
X162775000Y-138225000D02*
X162775000Y-136775000D01*
%TD*%
%LPC*%
D17*
%TO.C,R4*%
X172562500Y-136000000D03*
X174437500Y-136000000D03*
%TD*%
%TO.C,C12*%
X175812500Y-140250000D03*
X177687500Y-140250000D03*
%TD*%
%TO.C,C13*%
X190262500Y-151290000D03*
X192137500Y-151290000D03*
%TD*%
D18*
%TO.C,C7*%
X185750000Y-149062500D03*
X185750000Y-150937500D03*
%TD*%
D17*
%TO.C,C14*%
X194962500Y-134900000D03*
X196837500Y-134900000D03*
%TD*%
D19*
%TO.C,C2*%
X187750000Y-137437500D03*
X187750000Y-135562500D03*
%TD*%
D20*
%TO.C,C15*%
X200537500Y-136300000D03*
X198662500Y-136300000D03*
%TD*%
D21*
%TO.C,SW1*%
X161112530Y-140389924D03*
X161112530Y-143389924D03*
D22*
X162967496Y-140890051D03*
X162967496Y-141890051D03*
X162967496Y-142890051D03*
D23*
X162212606Y-139089949D03*
X160012454Y-139089949D03*
X162212606Y-144689898D03*
X160012454Y-144689898D03*
%TD*%
D24*
%TO.C,FB3*%
X160612500Y-147100000D03*
X162187500Y-147100000D03*
%TD*%
D17*
%TO.C,C9*%
X175812500Y-145500000D03*
X177687500Y-145500000D03*
%TD*%
D24*
%TO.C,R2*%
X176212500Y-149000000D03*
X177787500Y-149000000D03*
%TD*%
D17*
%TO.C,C11*%
X175812500Y-142500000D03*
X177687500Y-142500000D03*
%TD*%
D24*
%TO.C,R1*%
X176250000Y-138250000D03*
X177825000Y-138250000D03*
%TD*%
D20*
%TO.C,C4*%
X189437500Y-139500000D03*
X187562500Y-139500000D03*
%TD*%
D19*
%TO.C,C3*%
X190250000Y-137437500D03*
X190250000Y-135562500D03*
%TD*%
D25*
%TO.C,R6*%
X165200000Y-151387500D03*
X165200000Y-149812500D03*
%TD*%
D19*
%TO.C,C5*%
X188600000Y-143637500D03*
X188600000Y-141762500D03*
%TD*%
D26*
%TO.C,J1*%
X168500000Y-149730000D03*
D27*
X168500000Y-138330000D03*
X168500000Y-146630000D03*
%TD*%
D28*
%TO.C,Q1*%
X187612500Y-145550000D03*
X187612500Y-147450000D03*
X189887500Y-146500000D03*
%TD*%
D29*
%TO.C,J2*%
X205750000Y-151500000D03*
D30*
X205750000Y-148960000D03*
%TD*%
D31*
%TO.C,RV1*%
X192600000Y-143750000D03*
X201400000Y-143750000D03*
D32*
X199500000Y-150750000D03*
X197000000Y-150750000D03*
X194500000Y-150750000D03*
%TD*%
D33*
%TO.C,U2*%
X179762500Y-138875000D03*
X179762500Y-139525000D03*
X179762500Y-140175000D03*
X179762500Y-140825000D03*
X179762500Y-141475000D03*
X179762500Y-142125000D03*
X179762500Y-142775000D03*
X179762500Y-143425000D03*
X179762500Y-144075000D03*
X179762500Y-144725000D03*
X179762500Y-145375000D03*
X179762500Y-146025000D03*
X179762500Y-146675000D03*
X179762500Y-147325000D03*
X185487500Y-147325000D03*
X185487500Y-146675000D03*
X185487500Y-146025000D03*
X185487500Y-145375000D03*
X185487500Y-144725000D03*
X185487500Y-144075000D03*
X185487500Y-143425000D03*
X185487500Y-142775000D03*
X185487500Y-142125000D03*
X185487500Y-141475000D03*
X185487500Y-140825000D03*
X185487500Y-140175000D03*
X185487500Y-139525000D03*
X185487500Y-138875000D03*
D34*
X182625000Y-143100000D03*
%TD*%
D25*
%TO.C,R5*%
X171400000Y-151487500D03*
X171400000Y-149912500D03*
%TD*%
D29*
%TO.C,LS1*%
X206000000Y-135000000D03*
D30*
X206000000Y-137540000D03*
%TD*%
D24*
%TO.C,R3*%
X160612500Y-150200000D03*
X162187500Y-150200000D03*
%TD*%
D18*
%TO.C,C8*%
X188250000Y-149062500D03*
X188250000Y-150937500D03*
%TD*%
D19*
%TO.C,C10*%
X173600000Y-151337500D03*
X173600000Y-149462500D03*
%TD*%
D24*
%TO.C,R8*%
X160512500Y-137500000D03*
X162087500Y-137500000D03*
%TD*%
%LPD*%
M02*
