%TF.GenerationSoftware,KiCad,Pcbnew,8.0.4*%
%TF.CreationDate,2024-12-22T16:52:19+00:00*%
%TF.ProjectId,main_board,6d61696e-5f62-46f6-9172-642e6b696361,rev?*%
%TF.SameCoordinates,Original*%
%TF.FileFunction,Soldermask,Top*%
%TF.FilePolarity,Negative*%
%FSLAX46Y46*%
G04 Gerber Fmt 4.6, Leading zero omitted, Abs format (unit mm)*
G04 Created by KiCad (PCBNEW 8.0.4) date 2024-12-22 16:52:19*
%MOMM*%
%LPD*%
G01*
G04 APERTURE LIST*
G04 Aperture macros list*
%AMRoundRect*
0 Rectangle with rounded corners*
0 $1 Rounding radius*
0 $2 $3 $4 $5 $6 $7 $8 $9 X,Y pos of 4 corners*
0 Add a 4 corners polygon primitive as box body*
4,1,4,$2,$3,$4,$5,$6,$7,$8,$9,$2,$3,0*
0 Add four circle primitives for the rounded corners*
1,1,$1+$1,$2,$3*
1,1,$1+$1,$4,$5*
1,1,$1+$1,$6,$7*
1,1,$1+$1,$8,$9*
0 Add four rect primitives between the rounded corners*
20,1,$1+$1,$2,$3,$4,$5,0*
20,1,$1+$1,$4,$5,$6,$7,0*
20,1,$1+$1,$6,$7,$8,$9,0*
20,1,$1+$1,$8,$9,$2,$3,0*%
G04 Aperture macros list end*
%ADD10RoundRect,0.243750X-0.243750X-0.456250X0.243750X-0.456250X0.243750X0.456250X-0.243750X0.456250X0*%
%ADD11RoundRect,0.243750X-0.456250X0.243750X-0.456250X-0.243750X0.456250X-0.243750X0.456250X0.243750X0*%
%ADD12RoundRect,0.243750X0.456250X-0.243750X0.456250X0.243750X-0.456250X0.243750X-0.456250X-0.243750X0*%
%ADD13RoundRect,0.243750X0.243750X0.456250X-0.243750X0.456250X-0.243750X-0.456250X0.243750X-0.456250X0*%
%ADD14C,1.000000*%
%ADD15R,1.489992X0.700000*%
%ADD16R,0.800000X1.000000*%
%ADD17RoundRect,0.218750X-0.218750X-0.256250X0.218750X-0.256250X0.218750X0.256250X-0.218750X0.256250X0*%
%ADD18RoundRect,0.218750X0.256250X-0.218750X0.256250X0.218750X-0.256250X0.218750X-0.256250X-0.218750X0*%
%ADD19O,3.100000X2.300000*%
%ADD20RoundRect,0.650000X-0.650000X-0.650000X0.650000X-0.650000X0.650000X0.650000X-0.650000X0.650000X0*%
%ADD21RoundRect,0.150000X-0.512500X-0.150000X0.512500X-0.150000X0.512500X0.150000X-0.512500X0.150000X0*%
%ADD22R,1.700000X1.700000*%
%ADD23O,1.700000X1.700000*%
%ADD24C,4.000000*%
%ADD25C,2.000000*%
%ADD26RoundRect,0.100000X-0.637500X-0.100000X0.637500X-0.100000X0.637500X0.100000X-0.637500X0.100000X0*%
%ADD27R,2.850000X5.400000*%
G04 APERTURE END LIST*
D10*
%TO.C,R4*%
X172562500Y-136000000D03*
X174437500Y-136000000D03*
%TD*%
%TO.C,C12*%
X175812500Y-140250000D03*
X177687500Y-140250000D03*
%TD*%
%TO.C,C13*%
X190262500Y-151290000D03*
X192137500Y-151290000D03*
%TD*%
D11*
%TO.C,C7*%
X185750000Y-149062500D03*
X185750000Y-150937500D03*
%TD*%
D10*
%TO.C,C14*%
X194962500Y-134900000D03*
X196837500Y-134900000D03*
%TD*%
D12*
%TO.C,C2*%
X187750000Y-137437500D03*
X187750000Y-135562500D03*
%TD*%
D13*
%TO.C,C15*%
X200537500Y-136300000D03*
X198662500Y-136300000D03*
%TD*%
D14*
%TO.C,SW1*%
X161112530Y-140389924D03*
X161112530Y-143389924D03*
D15*
X162967496Y-140890051D03*
X162967496Y-141890051D03*
X162967496Y-142890051D03*
D16*
X162212606Y-139089949D03*
X160012454Y-139089949D03*
X162212606Y-144689898D03*
X160012454Y-144689898D03*
%TD*%
D17*
%TO.C,FB3*%
X160612500Y-147100000D03*
X162187500Y-147100000D03*
%TD*%
D10*
%TO.C,C9*%
X175812500Y-145500000D03*
X177687500Y-145500000D03*
%TD*%
D17*
%TO.C,R2*%
X176212500Y-149000000D03*
X177787500Y-149000000D03*
%TD*%
D10*
%TO.C,C11*%
X175812500Y-142500000D03*
X177687500Y-142500000D03*
%TD*%
D17*
%TO.C,R1*%
X176250000Y-138250000D03*
X177825000Y-138250000D03*
%TD*%
D13*
%TO.C,C4*%
X189437500Y-139500000D03*
X187562500Y-139500000D03*
%TD*%
D12*
%TO.C,C3*%
X190250000Y-137437500D03*
X190250000Y-135562500D03*
%TD*%
D18*
%TO.C,R6*%
X165200000Y-151387500D03*
X165200000Y-149812500D03*
%TD*%
D12*
%TO.C,C5*%
X188600000Y-143637500D03*
X188600000Y-141762500D03*
%TD*%
D19*
%TO.C,J1*%
X168500000Y-149730000D03*
D20*
X168500000Y-138330000D03*
X168500000Y-146630000D03*
%TD*%
D21*
%TO.C,Q1*%
X187612500Y-145550000D03*
X187612500Y-147450000D03*
X189887500Y-146500000D03*
%TD*%
D22*
%TO.C,J2*%
X205750000Y-151500000D03*
D23*
X205750000Y-148960000D03*
%TD*%
D24*
%TO.C,RV1*%
X192600000Y-143750000D03*
X201400000Y-143750000D03*
D25*
X199500000Y-150750000D03*
X197000000Y-150750000D03*
X194500000Y-150750000D03*
%TD*%
D26*
%TO.C,U2*%
X179762500Y-138875000D03*
X179762500Y-139525000D03*
X179762500Y-140175000D03*
X179762500Y-140825000D03*
X179762500Y-141475000D03*
X179762500Y-142125000D03*
X179762500Y-142775000D03*
X179762500Y-143425000D03*
X179762500Y-144075000D03*
X179762500Y-144725000D03*
X179762500Y-145375000D03*
X179762500Y-146025000D03*
X179762500Y-146675000D03*
X179762500Y-147325000D03*
X185487500Y-147325000D03*
X185487500Y-146675000D03*
X185487500Y-146025000D03*
X185487500Y-145375000D03*
X185487500Y-144725000D03*
X185487500Y-144075000D03*
X185487500Y-143425000D03*
X185487500Y-142775000D03*
X185487500Y-142125000D03*
X185487500Y-141475000D03*
X185487500Y-140825000D03*
X185487500Y-140175000D03*
X185487500Y-139525000D03*
X185487500Y-138875000D03*
D27*
X182625000Y-143100000D03*
%TD*%
D18*
%TO.C,R5*%
X171400000Y-151487500D03*
X171400000Y-149912500D03*
%TD*%
D22*
%TO.C,LS1*%
X206000000Y-135000000D03*
D23*
X206000000Y-137540000D03*
%TD*%
D17*
%TO.C,R3*%
X160612500Y-150200000D03*
X162187500Y-150200000D03*
%TD*%
D11*
%TO.C,C8*%
X188250000Y-149062500D03*
X188250000Y-150937500D03*
%TD*%
D12*
%TO.C,C10*%
X173600000Y-151337500D03*
X173600000Y-149462500D03*
%TD*%
D17*
%TO.C,R8*%
X160512500Y-137500000D03*
X162087500Y-137500000D03*
%TD*%
M02*
