%TF.GenerationSoftware,KiCad,Pcbnew,8.0.4*%
%TF.CreationDate,2024-12-22T16:52:19+00:00*%
%TF.ProjectId,main_board,6d61696e-5f62-46f6-9172-642e6b696361,rev?*%
%TF.SameCoordinates,Original*%
%TF.FileFunction,Legend,Bot*%
%TF.FilePolarity,Positive*%
%FSLAX46Y46*%
G04 Gerber Fmt 4.6, Leading zero omitted, Abs format (unit mm)*
G04 Created by KiCad (PCBNEW 8.0.4) date 2024-12-22 16:52:19*
%MOMM*%
%LPD*%
G01*
G04 APERTURE LIST*
G04 Aperture macros list*
%AMRoundRect*
0 Rectangle with rounded corners*
0 $1 Rounding radius*
0 $2 $3 $4 $5 $6 $7 $8 $9 X,Y pos of 4 corners*
0 Add a 4 corners polygon primitive as box body*
4,1,4,$2,$3,$4,$5,$6,$7,$8,$9,$2,$3,0*
0 Add four circle primitives for the rounded corners*
1,1,$1+$1,$2,$3*
1,1,$1+$1,$4,$5*
1,1,$1+$1,$6,$7*
1,1,$1+$1,$8,$9*
0 Add four rect primitives between the rounded corners*
20,1,$1+$1,$2,$3,$4,$5,0*
20,1,$1+$1,$4,$5,$6,$7,0*
20,1,$1+$1,$6,$7,$8,$9,0*
20,1,$1+$1,$8,$9,$2,$3,0*%
G04 Aperture macros list end*
%ADD10C,0.175000*%
%ADD11C,0.100000*%
%ADD12C,0.150000*%
%ADD13C,0.120000*%
%ADD14C,0.254000*%
%ADD15C,0.059995*%
%ADD16C,1.000000*%
%ADD17O,3.100000X2.300000*%
%ADD18RoundRect,0.650000X-0.650000X-0.650000X0.650000X-0.650000X0.650000X0.650000X-0.650000X0.650000X0*%
%ADD19R,1.700000X1.700000*%
%ADD20O,1.700000X1.700000*%
%ADD21C,4.000000*%
%ADD22C,2.000000*%
%ADD23RoundRect,0.250000X0.550000X-1.500000X0.550000X1.500000X-0.550000X1.500000X-0.550000X-1.500000X0*%
%ADD24R,1.600000X2.200000*%
%ADD25RoundRect,0.250000X-0.550000X1.500000X-0.550000X-1.500000X0.550000X-1.500000X0.550000X1.500000X0*%
G04 APERTURE END LIST*
D10*
G36*
X205938822Y-140174605D02*
G01*
X205933468Y-140216135D01*
X205915730Y-140251483D01*
X205906386Y-140261751D01*
X205871610Y-140282855D01*
X205831621Y-140291538D01*
X205808103Y-140292623D01*
X205794425Y-140292623D01*
X205753103Y-140288975D01*
X205714448Y-140275258D01*
X205696142Y-140261751D01*
X205672861Y-140227227D01*
X205664213Y-140188277D01*
X205663706Y-140174605D01*
X205663706Y-140048381D01*
X205938822Y-140048381D01*
X205938822Y-140174605D01*
G37*
G36*
X206459141Y-141173055D02*
G01*
X205449765Y-141173055D01*
X205449765Y-140599002D01*
X205538654Y-140599002D01*
X205544699Y-140638019D01*
X205549401Y-140649609D01*
X205582508Y-140672057D01*
X205583986Y-140672079D01*
X205893490Y-140672079D01*
X205560147Y-140916322D01*
X205538990Y-140949747D01*
X205538654Y-140955792D01*
X205549987Y-140994480D01*
X205575182Y-141025114D01*
X205578319Y-141027697D01*
X205614662Y-141041374D01*
X205628340Y-141039030D01*
X205642995Y-141031214D01*
X205897007Y-140830935D01*
X206266107Y-141076154D01*
X206291704Y-141084166D01*
X206326288Y-141071074D01*
X206352106Y-141040368D01*
X206353448Y-141037857D01*
X206363958Y-140998919D01*
X206364000Y-140996238D01*
X206357356Y-140967515D01*
X206336254Y-140944459D01*
X206020692Y-140732847D01*
X206097286Y-140672079D01*
X206317886Y-140672079D01*
X206351521Y-140650991D01*
X206352276Y-140649609D01*
X206363439Y-140611040D01*
X206364000Y-140599002D01*
X206356844Y-140559255D01*
X206352276Y-140548981D01*
X206320482Y-140526014D01*
X206317691Y-140525924D01*
X205583790Y-140525924D01*
X205550085Y-140547562D01*
X205549401Y-140548981D01*
X205539168Y-140587392D01*
X205538654Y-140599002D01*
X205449765Y-140599002D01*
X205449765Y-139958499D01*
X205538654Y-139958499D01*
X205538654Y-140174605D01*
X205538654Y-140183593D01*
X205540602Y-140222943D01*
X205547333Y-140264090D01*
X205558874Y-140302528D01*
X205563274Y-140313531D01*
X205583848Y-140350542D01*
X205611718Y-140381780D01*
X205643385Y-140405170D01*
X205681514Y-140422996D01*
X205721931Y-140433395D01*
X205762711Y-140438148D01*
X205790517Y-140438974D01*
X205797161Y-140438974D01*
X205840844Y-140436788D01*
X205880057Y-140430230D01*
X205918829Y-140417626D01*
X205945074Y-140403998D01*
X205977005Y-140379780D01*
X206005209Y-140347410D01*
X206024557Y-140312773D01*
X206026163Y-140309036D01*
X206039455Y-140270049D01*
X206047824Y-140228314D01*
X206051147Y-140188403D01*
X206051369Y-140174605D01*
X206051369Y-140048381D01*
X206317105Y-140048381D01*
X206351313Y-140027293D01*
X206352080Y-140025910D01*
X206363429Y-139987342D01*
X206364000Y-139975303D01*
X206356844Y-139935556D01*
X206352276Y-139925282D01*
X206320482Y-139902316D01*
X206317691Y-139902226D01*
X205583009Y-139902226D01*
X205551941Y-139917857D01*
X205538706Y-139955432D01*
X205538654Y-139958499D01*
X205449765Y-139958499D01*
X205449765Y-139570837D01*
X205538654Y-139570837D01*
X205540594Y-139610826D01*
X205542757Y-139631995D01*
X205549194Y-139671940D01*
X205557021Y-139702923D01*
X205571773Y-139740744D01*
X205584963Y-139761542D01*
X205618589Y-139783495D01*
X205630099Y-139784598D01*
X205660775Y-139778346D01*
X205691843Y-139759197D01*
X205705521Y-139725980D01*
X205695165Y-139690614D01*
X205677499Y-139654034D01*
X205674258Y-139645673D01*
X205665448Y-139605999D01*
X205663706Y-139570837D01*
X205666684Y-139531768D01*
X205674258Y-139502058D01*
X205693564Y-139467497D01*
X205703371Y-139458094D01*
X205741043Y-139443988D01*
X205749484Y-139443635D01*
X205787916Y-139454626D01*
X205798528Y-139463175D01*
X205823008Y-139494378D01*
X205834286Y-139514954D01*
X205850742Y-139550864D01*
X205865353Y-139585296D01*
X205881124Y-139621329D01*
X205899128Y-139657619D01*
X205901697Y-139662477D01*
X205922820Y-139697556D01*
X205947721Y-139729888D01*
X205951327Y-139733991D01*
X205981529Y-139761620D01*
X206015296Y-139782062D01*
X206023232Y-139785771D01*
X206061225Y-139798169D01*
X206102019Y-139804003D01*
X206128354Y-139804919D01*
X206170889Y-139802153D01*
X206209467Y-139793853D01*
X206247691Y-139778141D01*
X206261613Y-139769944D01*
X206292826Y-139745706D01*
X206318812Y-139716470D01*
X206339568Y-139682234D01*
X206343092Y-139674787D01*
X206357415Y-139635475D01*
X206365770Y-139597191D01*
X206369828Y-139556155D01*
X206370252Y-139537034D01*
X206368490Y-139496946D01*
X206362399Y-139455051D01*
X206351958Y-139415941D01*
X206347977Y-139404752D01*
X206331370Y-139367092D01*
X206310304Y-139332645D01*
X206292485Y-139311353D01*
X206261032Y-139286670D01*
X206225074Y-139276964D01*
X206191466Y-139285366D01*
X206160399Y-139308422D01*
X206147698Y-139341249D01*
X206160399Y-139374856D01*
X206186066Y-139405845D01*
X206190294Y-139410809D01*
X206212510Y-139444664D01*
X206219994Y-139460439D01*
X206230598Y-139499997D01*
X206232695Y-139532540D01*
X206228649Y-139572733D01*
X206222339Y-139594870D01*
X206202936Y-139629008D01*
X206190880Y-139640983D01*
X206154287Y-139657178D01*
X206136561Y-139658569D01*
X206096703Y-139651089D01*
X206076965Y-139639420D01*
X206049106Y-139610218D01*
X206034956Y-139587641D01*
X206016394Y-139551371D01*
X206000566Y-139516713D01*
X205984523Y-139480680D01*
X205967536Y-139444390D01*
X205965200Y-139439532D01*
X205945940Y-139404722D01*
X205923331Y-139372831D01*
X205920064Y-139368799D01*
X205890461Y-139339832D01*
X205857208Y-139318265D01*
X205854802Y-139317020D01*
X205817547Y-139303529D01*
X205776857Y-139297767D01*
X205759645Y-139297285D01*
X205719439Y-139300148D01*
X205681003Y-139309802D01*
X205655891Y-139321514D01*
X205622199Y-139345706D01*
X205594641Y-139375882D01*
X205587893Y-139385603D01*
X205567922Y-139422223D01*
X205554333Y-139459040D01*
X205550378Y-139473921D01*
X205542787Y-139513293D01*
X205539066Y-139552665D01*
X205538654Y-139570837D01*
X205449765Y-139570837D01*
X205449765Y-139188075D01*
X206459141Y-139188075D01*
X206459141Y-141173055D01*
G37*
D11*
G36*
X163456723Y-136403401D02*
G01*
X163452869Y-136327979D01*
X163439545Y-136248052D01*
X163416705Y-136172203D01*
X163407997Y-136150244D01*
X163371568Y-136082309D01*
X163323189Y-136023676D01*
X163262861Y-135974346D01*
X163249361Y-135965596D01*
X163181828Y-135932478D01*
X163102877Y-135910199D01*
X163023112Y-135899495D01*
X162957369Y-135897086D01*
X162396831Y-135897086D01*
X162320624Y-135900364D01*
X162241987Y-135912140D01*
X162164304Y-135935623D01*
X162104839Y-135965596D01*
X162042121Y-136013066D01*
X161991352Y-136069838D01*
X161952533Y-136135913D01*
X161946203Y-136150244D01*
X161920508Y-136224869D01*
X161904329Y-136303573D01*
X161897905Y-136377894D01*
X161897477Y-136403401D01*
X161900568Y-136477361D01*
X161911436Y-136555639D01*
X161930128Y-136628701D01*
X161946936Y-136674511D01*
X161982070Y-136744292D01*
X162025647Y-136804341D01*
X162083334Y-136859156D01*
X162089085Y-136863555D01*
X162157788Y-136903186D01*
X162228886Y-136924939D01*
X162308212Y-136933096D01*
X162316598Y-136933164D01*
X162391205Y-136924309D01*
X162441894Y-136892864D01*
X162468709Y-136821360D01*
X162472302Y-136768667D01*
X162464002Y-136693705D01*
X162451053Y-136655460D01*
X162395142Y-136608001D01*
X162371552Y-136604169D01*
X162318063Y-136598674D01*
X162253949Y-136576692D01*
X162201799Y-136524098D01*
X162200460Y-136521737D01*
X162180196Y-136448098D01*
X162178845Y-136416224D01*
X162190437Y-136340141D01*
X162231601Y-136275907D01*
X162298188Y-136238812D01*
X162373196Y-136226882D01*
X162393168Y-136226448D01*
X162961032Y-136226448D01*
X163034981Y-136233557D01*
X163105101Y-136262441D01*
X163122965Y-136277006D01*
X163163844Y-136342098D01*
X163175355Y-136418422D01*
X163165312Y-136492773D01*
X163154106Y-136518440D01*
X163101568Y-136571222D01*
X163099518Y-136572295D01*
X163029909Y-136595376D01*
X162961032Y-136604169D01*
X162893369Y-136634532D01*
X162880799Y-136655460D01*
X162862286Y-136728394D01*
X162860282Y-136766468D01*
X162867976Y-136841298D01*
X162891057Y-136892864D01*
X162958737Y-136928402D01*
X163016353Y-136933164D01*
X163091328Y-136927658D01*
X163167291Y-136908624D01*
X163235526Y-136875995D01*
X163254490Y-136863555D01*
X163311699Y-136815183D01*
X163359677Y-136757080D01*
X163398424Y-136689246D01*
X163405066Y-136674511D01*
X163430037Y-136604927D01*
X163446836Y-136530126D01*
X163455462Y-136450109D01*
X163456723Y-136403401D01*
G37*
G36*
X163445000Y-137237247D02*
G01*
X163430780Y-137162233D01*
X163419720Y-137139061D01*
X163358708Y-137094741D01*
X163343517Y-137093632D01*
X161997128Y-137093632D01*
X161930636Y-137127734D01*
X161920924Y-137145289D01*
X161900247Y-137217192D01*
X161897477Y-137258129D01*
X161906636Y-137330887D01*
X161920924Y-137370969D01*
X161975673Y-137420504D01*
X161997494Y-137422993D01*
X163163632Y-137422993D01*
X163163632Y-137904030D01*
X163197011Y-137969305D01*
X163207229Y-137975471D01*
X163278052Y-137997452D01*
X163304316Y-137998918D01*
X163377886Y-137985729D01*
X163400669Y-137975471D01*
X163444307Y-137915725D01*
X163445000Y-137904030D01*
X163445000Y-137237247D01*
G37*
G36*
X163312895Y-138021299D02*
G01*
X163379054Y-138054972D01*
X163393480Y-138072809D01*
X163427414Y-138138136D01*
X163434266Y-138159672D01*
X163445000Y-138232292D01*
X163431078Y-138301901D01*
X163383084Y-138340003D01*
X163116737Y-138411810D01*
X163116737Y-138856943D01*
X163383084Y-138928750D01*
X163431078Y-138967585D01*
X163445000Y-139036461D01*
X163444158Y-139056762D01*
X163427414Y-139130983D01*
X163418964Y-139151582D01*
X163379054Y-139213415D01*
X163377124Y-139215512D01*
X163310544Y-139247487D01*
X163287463Y-139243091D01*
X162006653Y-138848517D01*
X161969576Y-138829489D01*
X161924954Y-138769382D01*
X161905232Y-138708417D01*
X161897477Y-138633094D01*
X162311102Y-138633094D01*
X162858817Y-138787334D01*
X162858817Y-138479221D01*
X162311102Y-138633094D01*
X161897477Y-138633094D01*
X161902736Y-138572126D01*
X161924954Y-138498272D01*
X161944582Y-138463203D01*
X162006653Y-138418039D01*
X163287463Y-138025662D01*
X163310544Y-138021266D01*
X163312895Y-138021299D01*
G37*
G36*
X163456723Y-139853087D02*
G01*
X163452869Y-139777665D01*
X163439545Y-139697738D01*
X163416705Y-139621889D01*
X163407997Y-139599930D01*
X163371568Y-139531995D01*
X163323189Y-139473362D01*
X163262861Y-139424032D01*
X163249361Y-139415282D01*
X163181828Y-139382164D01*
X163102877Y-139359885D01*
X163023112Y-139349181D01*
X162957369Y-139346772D01*
X162396831Y-139346772D01*
X162320624Y-139350050D01*
X162241987Y-139361825D01*
X162164304Y-139385309D01*
X162104839Y-139415282D01*
X162042121Y-139462752D01*
X161991352Y-139519524D01*
X161952533Y-139585599D01*
X161946203Y-139599930D01*
X161920508Y-139674555D01*
X161904329Y-139753259D01*
X161897905Y-139827580D01*
X161897477Y-139853087D01*
X161900568Y-139927047D01*
X161911436Y-140005325D01*
X161930128Y-140078387D01*
X161946936Y-140124197D01*
X161982070Y-140193978D01*
X162025647Y-140254027D01*
X162083334Y-140308842D01*
X162089085Y-140313241D01*
X162157788Y-140352872D01*
X162228886Y-140374625D01*
X162308212Y-140382782D01*
X162316598Y-140382850D01*
X162391205Y-140373995D01*
X162441894Y-140342550D01*
X162468709Y-140271046D01*
X162472302Y-140218353D01*
X162464002Y-140143391D01*
X162451053Y-140105146D01*
X162395142Y-140057687D01*
X162371552Y-140053855D01*
X162318063Y-140048360D01*
X162253949Y-140026378D01*
X162201799Y-139973784D01*
X162200460Y-139971423D01*
X162180196Y-139897784D01*
X162178845Y-139865910D01*
X162190437Y-139789827D01*
X162231601Y-139725593D01*
X162298188Y-139688498D01*
X162373196Y-139676568D01*
X162393168Y-139676133D01*
X162961032Y-139676133D01*
X163034981Y-139683243D01*
X163105101Y-139712127D01*
X163122965Y-139726692D01*
X163163844Y-139791784D01*
X163175355Y-139868108D01*
X163165312Y-139942459D01*
X163154106Y-139968126D01*
X163101568Y-140020908D01*
X163099518Y-140021981D01*
X163029909Y-140045062D01*
X162961032Y-140053855D01*
X162893369Y-140084217D01*
X162880799Y-140105146D01*
X162862286Y-140178080D01*
X162860282Y-140216154D01*
X162867976Y-140290984D01*
X162891057Y-140342550D01*
X162958737Y-140378088D01*
X163016353Y-140382850D01*
X163091328Y-140377344D01*
X163167291Y-140358310D01*
X163235526Y-140325681D01*
X163254490Y-140313241D01*
X163311699Y-140264869D01*
X163359677Y-140206766D01*
X163398424Y-140138932D01*
X163405066Y-140124197D01*
X163430037Y-140054613D01*
X163446836Y-139979812D01*
X163455462Y-139899795D01*
X163456723Y-139853087D01*
G37*
G36*
X163445000Y-140707815D02*
G01*
X163435125Y-140635058D01*
X163419720Y-140594975D01*
X163364444Y-140545790D01*
X163343517Y-140543318D01*
X161997128Y-140543318D01*
X161930636Y-140577420D01*
X161920924Y-140594975D01*
X161900247Y-140666878D01*
X161897477Y-140707815D01*
X161906636Y-140780573D01*
X161920924Y-140820655D01*
X161975673Y-140870190D01*
X161997494Y-140872679D01*
X162508206Y-140872679D01*
X161944371Y-141267254D01*
X161900408Y-141327704D01*
X161897477Y-141353715D01*
X161915734Y-141427160D01*
X161923122Y-141441277D01*
X161968460Y-141500971D01*
X161986870Y-141517114D01*
X162054296Y-141547137D01*
X162067470Y-141547889D01*
X162097512Y-141543492D01*
X162131217Y-141526639D01*
X162569389Y-141180792D01*
X163228845Y-141617498D01*
X163282700Y-141634351D01*
X163352611Y-141609978D01*
X163359637Y-141604675D01*
X163409976Y-141549041D01*
X163421186Y-141529937D01*
X163443511Y-141460144D01*
X163445000Y-141436147D01*
X163431810Y-141372400D01*
X163384916Y-141321842D01*
X162847826Y-140961339D01*
X162961765Y-140872679D01*
X163343883Y-140872679D01*
X163409352Y-140838335D01*
X163419720Y-140820655D01*
X163442012Y-140748753D01*
X163445000Y-140707815D01*
G37*
G36*
X163445000Y-142189759D02*
G01*
X163435125Y-142117001D01*
X163419720Y-142076919D01*
X163365016Y-142027733D01*
X163344249Y-142025261D01*
X162202292Y-142025261D01*
X162202292Y-141734002D01*
X162166388Y-141668005D01*
X162155397Y-141661095D01*
X162084337Y-141637293D01*
X162047686Y-141634717D01*
X161972812Y-141646641D01*
X161945471Y-141657798D01*
X161899164Y-141715248D01*
X161897477Y-141734002D01*
X161897477Y-142645516D01*
X161929160Y-142711655D01*
X161945471Y-142721353D01*
X162017531Y-142742946D01*
X162047686Y-142744801D01*
X162121512Y-142733914D01*
X162155397Y-142719521D01*
X162201147Y-142660170D01*
X162202292Y-142645516D01*
X162202292Y-142354256D01*
X163344249Y-142354256D01*
X163409365Y-142320154D01*
X163419720Y-142302599D01*
X163442012Y-142230696D01*
X163445000Y-142189759D01*
G37*
G36*
X163364444Y-142871470D02*
G01*
X163419720Y-142920655D01*
X163435125Y-142960738D01*
X163445000Y-143033496D01*
X163442012Y-143074433D01*
X163419720Y-143146336D01*
X163409352Y-143164016D01*
X163343883Y-143198360D01*
X162835369Y-143198360D01*
X162835369Y-143337578D01*
X163384916Y-143626639D01*
X163431810Y-143671702D01*
X163445000Y-143732152D01*
X163443442Y-143756287D01*
X163420087Y-143828140D01*
X163406737Y-143850946D01*
X163355973Y-143907274D01*
X163348557Y-143912905D01*
X163277205Y-143938782D01*
X163258520Y-143936584D01*
X163239836Y-143928524D01*
X162781880Y-143670969D01*
X162778072Y-143680113D01*
X162743216Y-143744765D01*
X162697250Y-143802494D01*
X162686610Y-143813191D01*
X162625393Y-143859913D01*
X162556200Y-143893353D01*
X162505192Y-143909292D01*
X162429157Y-143922429D01*
X162351402Y-143926325D01*
X162298863Y-143924626D01*
X162222464Y-143914837D01*
X162147792Y-143893424D01*
X162078827Y-143856716D01*
X162072723Y-143852319D01*
X162017826Y-143803232D01*
X161970332Y-143738492D01*
X161938876Y-143669870D01*
X161929173Y-143640120D01*
X161910576Y-143561889D01*
X161900752Y-143486769D01*
X161897477Y-143407187D01*
X162178845Y-143407187D01*
X162187049Y-143477472D01*
X162221709Y-143546406D01*
X162233530Y-143558255D01*
X162302910Y-143589854D01*
X162378147Y-143596964D01*
X162391805Y-143596766D01*
X162467749Y-143585855D01*
X162533485Y-143546406D01*
X162567789Y-143481934D01*
X162577449Y-143407187D01*
X162577449Y-143198360D01*
X162178845Y-143198360D01*
X162178845Y-143407187D01*
X161897477Y-143407187D01*
X161897477Y-142970481D01*
X161897593Y-142964739D01*
X161927152Y-142896475D01*
X161996762Y-142868998D01*
X163343517Y-142868998D01*
X163364444Y-142871470D01*
G37*
G36*
X163023112Y-144079676D02*
G01*
X163102877Y-144090381D01*
X163181828Y-144112660D01*
X163249361Y-144145778D01*
X163262861Y-144154532D01*
X163323189Y-144204012D01*
X163371568Y-144263010D01*
X163407997Y-144331524D01*
X163419417Y-144361274D01*
X163441306Y-144439506D01*
X163452869Y-144514625D01*
X163456723Y-144594207D01*
X163455962Y-144630226D01*
X163448681Y-144708085D01*
X163433692Y-144781540D01*
X163407997Y-144857990D01*
X163401667Y-144872587D01*
X163362848Y-144939735D01*
X163312079Y-144997151D01*
X163249361Y-145044836D01*
X163189895Y-145074809D01*
X163112213Y-145098292D01*
X163033576Y-145110067D01*
X162957369Y-145113346D01*
X162396831Y-145113346D01*
X162331088Y-145110937D01*
X162251323Y-145100232D01*
X162172372Y-145077953D01*
X162104839Y-145044836D01*
X162091339Y-145036077D01*
X162031011Y-144986446D01*
X161982632Y-144927084D01*
X161946203Y-144857990D01*
X161932166Y-144820445D01*
X161912894Y-144749437D01*
X161901331Y-144674025D01*
X161897477Y-144594207D01*
X162178845Y-144594207D01*
X162190195Y-144668954D01*
X162230502Y-144733426D01*
X162247997Y-144748097D01*
X162318086Y-144777189D01*
X162393168Y-144784351D01*
X162961032Y-144784351D01*
X162981390Y-144783903D01*
X163057478Y-144771619D01*
X163124064Y-144733426D01*
X163164085Y-144668954D01*
X163175355Y-144594207D01*
X163164085Y-144519702D01*
X163124064Y-144456088D01*
X163106464Y-144441840D01*
X163036166Y-144413584D01*
X162961032Y-144406629D01*
X162393168Y-144406629D01*
X162372813Y-144407064D01*
X162296814Y-144418994D01*
X162230502Y-144456088D01*
X162190195Y-144519702D01*
X162178845Y-144594207D01*
X161897477Y-144594207D01*
X161898238Y-144558287D01*
X161905519Y-144480688D01*
X161920508Y-144407552D01*
X161946203Y-144331524D01*
X161952533Y-144317060D01*
X161991352Y-144250449D01*
X162042121Y-144193355D01*
X162104839Y-144145778D01*
X162164304Y-144115804D01*
X162241987Y-144092321D01*
X162320624Y-144080546D01*
X162396831Y-144077267D01*
X162957369Y-144077267D01*
X163023112Y-144079676D01*
G37*
G36*
X163445000Y-145482274D02*
G01*
X163435125Y-145409517D01*
X163419720Y-145369434D01*
X163364444Y-145320249D01*
X163343517Y-145317777D01*
X161998960Y-145317777D01*
X161932095Y-145351879D01*
X161922023Y-145369434D01*
X161900377Y-145441337D01*
X161897477Y-145482274D01*
X161902398Y-145556993D01*
X161907002Y-145580460D01*
X161944427Y-145646096D01*
X161950600Y-145652267D01*
X162010506Y-145696031D01*
X162063073Y-145725174D01*
X162719232Y-146066992D01*
X161997128Y-146066992D01*
X161930747Y-146101094D01*
X161920924Y-146118649D01*
X161900247Y-146190552D01*
X161897477Y-146231489D01*
X161906636Y-146304247D01*
X161920924Y-146344330D01*
X161975324Y-146393515D01*
X161997128Y-146395987D01*
X163343517Y-146395987D01*
X163409227Y-146361885D01*
X163419720Y-146344330D01*
X163442012Y-146272427D01*
X163445000Y-146231489D01*
X163437034Y-146157218D01*
X163428147Y-146125976D01*
X163384237Y-146066111D01*
X163356339Y-146047941D01*
X162626175Y-145647138D01*
X163343883Y-145647138D01*
X163409352Y-145612795D01*
X163419720Y-145595115D01*
X163442012Y-145523212D01*
X163445000Y-145482274D01*
G37*
G36*
X163445000Y-146782135D02*
G01*
X163435125Y-146709377D01*
X163419720Y-146669295D01*
X163364444Y-146620109D01*
X163343517Y-146617637D01*
X161997128Y-146617637D01*
X161930636Y-146651739D01*
X161920924Y-146669295D01*
X161900247Y-146741197D01*
X161897477Y-146782135D01*
X161906636Y-146854893D01*
X161920924Y-146894975D01*
X161975324Y-146944509D01*
X161997128Y-146946999D01*
X163343517Y-146946999D01*
X163409227Y-146912655D01*
X163419720Y-146894975D01*
X163442012Y-146823073D01*
X163445000Y-146782135D01*
G37*
G36*
X163456723Y-147661043D02*
G01*
X163452869Y-147585621D01*
X163439545Y-147505693D01*
X163416705Y-147429844D01*
X163407997Y-147407885D01*
X163371568Y-147339950D01*
X163323189Y-147281318D01*
X163262861Y-147231987D01*
X163249361Y-147223237D01*
X163181828Y-147190120D01*
X163102877Y-147167841D01*
X163023112Y-147157136D01*
X162957369Y-147154727D01*
X162396831Y-147154727D01*
X162320624Y-147158006D01*
X162241987Y-147169781D01*
X162164304Y-147193264D01*
X162104839Y-147223237D01*
X162042121Y-147270707D01*
X161991352Y-147327480D01*
X161952533Y-147393554D01*
X161946203Y-147407885D01*
X161920508Y-147482510D01*
X161904329Y-147561214D01*
X161897905Y-147635535D01*
X161897477Y-147661043D01*
X161900568Y-147735003D01*
X161911436Y-147813281D01*
X161930128Y-147886342D01*
X161946936Y-147932152D01*
X161982070Y-148001933D01*
X162025647Y-148061983D01*
X162083334Y-148116797D01*
X162089085Y-148121196D01*
X162157788Y-148160827D01*
X162228886Y-148182580D01*
X162308212Y-148190738D01*
X162316598Y-148190806D01*
X162391205Y-148181951D01*
X162441894Y-148150505D01*
X162468709Y-148079001D01*
X162472302Y-148026308D01*
X162464002Y-147951346D01*
X162451053Y-147913101D01*
X162395142Y-147865642D01*
X162371552Y-147861810D01*
X162318063Y-147856315D01*
X162253949Y-147834333D01*
X162201799Y-147781739D01*
X162200460Y-147779378D01*
X162180196Y-147705739D01*
X162178845Y-147673866D01*
X162190437Y-147597782D01*
X162231601Y-147533548D01*
X162298188Y-147496454D01*
X162373196Y-147484524D01*
X162393168Y-147484089D01*
X162961032Y-147484089D01*
X163034981Y-147491199D01*
X163105101Y-147520082D01*
X163122965Y-147534647D01*
X163163844Y-147599739D01*
X163175355Y-147676064D01*
X163165312Y-147750414D01*
X163154106Y-147776081D01*
X163101568Y-147828864D01*
X163099518Y-147829937D01*
X163029909Y-147853018D01*
X162961032Y-147861810D01*
X162893369Y-147892173D01*
X162880799Y-147913101D01*
X162862286Y-147986035D01*
X162860282Y-148024110D01*
X162867976Y-148098940D01*
X162891057Y-148150505D01*
X162958737Y-148186043D01*
X163016353Y-148190806D01*
X163091328Y-148185299D01*
X163167291Y-148166266D01*
X163235526Y-148133636D01*
X163254490Y-148121196D01*
X163311699Y-148072825D01*
X163359677Y-148014722D01*
X163398424Y-147946887D01*
X163405066Y-147932152D01*
X163430037Y-147862568D01*
X163446836Y-147787768D01*
X163455462Y-147707751D01*
X163456723Y-147661043D01*
G37*
G36*
X163456723Y-148786147D02*
G01*
X163453448Y-148710548D01*
X163442128Y-148630492D01*
X163422722Y-148554586D01*
X163415324Y-148532623D01*
X163387002Y-148464739D01*
X163350724Y-148400396D01*
X163309078Y-148346877D01*
X163251186Y-148299292D01*
X163176928Y-148277335D01*
X163172424Y-148277267D01*
X163100177Y-148295146D01*
X163097686Y-148296318D01*
X163036498Y-148340036D01*
X163029176Y-148347976D01*
X163000346Y-148415918D01*
X163000233Y-148420882D01*
X163022948Y-148491591D01*
X163066659Y-148551048D01*
X163076071Y-148563032D01*
X163116145Y-148625818D01*
X163129560Y-148653890D01*
X163148765Y-148727363D01*
X163151908Y-148779553D01*
X163143858Y-148854794D01*
X163138719Y-148875540D01*
X163105808Y-148941567D01*
X163095122Y-148953576D01*
X163027682Y-148983870D01*
X163015621Y-148984351D01*
X162943699Y-148964155D01*
X162923663Y-148948447D01*
X162876487Y-148890910D01*
X162854420Y-148852459D01*
X162821126Y-148785622D01*
X162791406Y-148721667D01*
X162759893Y-148655137D01*
X162725804Y-148588123D01*
X162721064Y-148579152D01*
X162682123Y-148514408D01*
X162636743Y-148454817D01*
X162630205Y-148447260D01*
X162575997Y-148396245D01*
X162512289Y-148355855D01*
X162503077Y-148351273D01*
X162432462Y-148326730D01*
X162356970Y-148316246D01*
X162325390Y-148315369D01*
X162249824Y-148320867D01*
X162176571Y-148339406D01*
X162127920Y-148361898D01*
X162066679Y-148404902D01*
X162015717Y-148458306D01*
X161995662Y-148486461D01*
X161958998Y-148552828D01*
X161931161Y-148625120D01*
X161921290Y-148660484D01*
X161906779Y-148732939D01*
X161898965Y-148806320D01*
X161897477Y-148855757D01*
X161900884Y-148930516D01*
X161904071Y-148967498D01*
X161914904Y-149041768D01*
X161930816Y-149107815D01*
X161957109Y-149176636D01*
X161989068Y-149226884D01*
X162050602Y-149269852D01*
X162091650Y-149275610D01*
X162156863Y-149261688D01*
X162220693Y-149224782D01*
X162226472Y-149219556D01*
X162256396Y-149150563D01*
X162256514Y-149144818D01*
X162237096Y-149074110D01*
X162204330Y-149006828D01*
X162198262Y-148991678D01*
X162182049Y-148919900D01*
X162178845Y-148855757D01*
X162184409Y-148780847D01*
X162196430Y-148734124D01*
X162235339Y-148671332D01*
X162242226Y-148665614D01*
X162303408Y-148644731D01*
X162373101Y-148674218D01*
X162379246Y-148680635D01*
X162421671Y-148741431D01*
X162439696Y-148776622D01*
X162470004Y-148843459D01*
X162497948Y-148907414D01*
X162530646Y-148978306D01*
X162566125Y-149045099D01*
X162568656Y-149049563D01*
X162609899Y-149114307D01*
X162658065Y-149173898D01*
X162665010Y-149181454D01*
X162723115Y-149232733D01*
X162787369Y-149270861D01*
X162802397Y-149277808D01*
X162873321Y-149301055D01*
X162947914Y-149311994D01*
X162995471Y-149313712D01*
X163075871Y-149308264D01*
X163148910Y-149291919D01*
X163221431Y-149260978D01*
X163247896Y-149244836D01*
X163307372Y-149197151D01*
X163357118Y-149139735D01*
X163397132Y-149072587D01*
X163403967Y-149057990D01*
X163429469Y-148988792D01*
X163446625Y-148913914D01*
X163455435Y-148833356D01*
X163456723Y-148786147D01*
G37*
D10*
X203594392Y-148588233D02*
X202984869Y-148588233D01*
X203289630Y-148892995D02*
X203289630Y-148283471D01*
X203694392Y-151588233D02*
X203084869Y-151588233D01*
D11*
G36*
X164730000Y-137267306D02*
G01*
X164718837Y-137218934D01*
X164717299Y-137216015D01*
X164680662Y-137192812D01*
X163773056Y-137192812D01*
X163724375Y-137205864D01*
X163714682Y-137216015D01*
X163698382Y-137263814D01*
X163698318Y-137267306D01*
X163706133Y-137313712D01*
X163732267Y-137350348D01*
X163773264Y-137379831D01*
X163783070Y-137385519D01*
X164157739Y-137582623D01*
X163783070Y-137782414D01*
X163740960Y-137809462D01*
X163732267Y-137816608D01*
X163706133Y-137852512D01*
X163698318Y-137899162D01*
X163711758Y-137946910D01*
X163714682Y-137951186D01*
X163760490Y-137973108D01*
X163773056Y-137973656D01*
X164680662Y-137973656D01*
X164717299Y-137950453D01*
X164729950Y-137902654D01*
X164730000Y-137899162D01*
X164718837Y-137850547D01*
X164717299Y-137847627D01*
X164680662Y-137824424D01*
X164004842Y-137824424D01*
X164353377Y-137636113D01*
X164379511Y-137610467D01*
X164387083Y-137581158D01*
X164380000Y-137554291D01*
X164353377Y-137530600D01*
X163996294Y-137342044D01*
X164680662Y-137342044D01*
X164717299Y-137318841D01*
X164729950Y-137270827D01*
X164730000Y-137267306D01*
G37*
G36*
X164730000Y-138228646D02*
G01*
X164718837Y-138180274D01*
X164717299Y-138177355D01*
X164680662Y-138154152D01*
X163746189Y-138154152D01*
X163709553Y-138177355D01*
X163698362Y-138225154D01*
X163698318Y-138228646D01*
X163708192Y-138277261D01*
X163709553Y-138280181D01*
X163746189Y-138303384D01*
X164680662Y-138303384D01*
X164717299Y-138280181D01*
X164729950Y-138232167D01*
X164730000Y-138228646D01*
G37*
G36*
X164730000Y-138561793D02*
G01*
X164718837Y-138513421D01*
X164717299Y-138510502D01*
X164680662Y-138487299D01*
X163747655Y-138487299D01*
X163709553Y-138510502D01*
X163698362Y-138558301D01*
X163698318Y-138561793D01*
X163706133Y-138607466D01*
X163732267Y-138641905D01*
X163773264Y-138669152D01*
X163783070Y-138674389D01*
X164395143Y-138986775D01*
X163746434Y-138986775D01*
X163709797Y-139009979D01*
X163698363Y-139057778D01*
X163698318Y-139061270D01*
X163708192Y-139109641D01*
X163709553Y-139112561D01*
X163746189Y-139136008D01*
X164680662Y-139136008D01*
X164717299Y-139112561D01*
X164729950Y-139064761D01*
X164730000Y-139061270D01*
X164717764Y-139013542D01*
X164716078Y-139010711D01*
X164679971Y-138975600D01*
X164675045Y-138972609D01*
X164035129Y-138636531D01*
X164680662Y-138636531D01*
X164717299Y-138613328D01*
X164729950Y-138565314D01*
X164730000Y-138561793D01*
G37*
G36*
X164730000Y-139391242D02*
G01*
X164718837Y-139342870D01*
X164717299Y-139339951D01*
X164680662Y-139316748D01*
X163746189Y-139316748D01*
X163709553Y-139339951D01*
X163698362Y-139387750D01*
X163698318Y-139391242D01*
X163708192Y-139439856D01*
X163709553Y-139442777D01*
X163746189Y-139465980D01*
X164680662Y-139465980D01*
X164717299Y-139442777D01*
X164729950Y-139394763D01*
X164730000Y-139391242D01*
G37*
G36*
X164737815Y-140188206D02*
G01*
X164735632Y-140138485D01*
X164728085Y-140087137D01*
X164715148Y-140039891D01*
X164710216Y-140026517D01*
X164689798Y-139981794D01*
X164661947Y-139938315D01*
X164642805Y-139916608D01*
X164603848Y-139887116D01*
X164566601Y-139877285D01*
X164531674Y-139886322D01*
X164500167Y-139910258D01*
X164486734Y-139942009D01*
X164502854Y-139979378D01*
X164535926Y-140015950D01*
X164541444Y-140022121D01*
X164569465Y-140062935D01*
X164580523Y-140085380D01*
X164593952Y-140134891D01*
X164597131Y-140182588D01*
X164592651Y-140233343D01*
X164581256Y-140273203D01*
X164554618Y-140316899D01*
X164532407Y-140336706D01*
X164487428Y-140356079D01*
X164449609Y-140359909D01*
X164398656Y-140352947D01*
X164362170Y-140335240D01*
X164324655Y-140300005D01*
X164303551Y-140269050D01*
X164279620Y-140223142D01*
X164260565Y-140179658D01*
X164240354Y-140131603D01*
X164220186Y-140085775D01*
X164218799Y-140082693D01*
X164195801Y-140038318D01*
X164167011Y-139995125D01*
X164165066Y-139992568D01*
X164129651Y-139955809D01*
X164088907Y-139928668D01*
X164085931Y-139927110D01*
X164039202Y-139910414D01*
X163987522Y-139903282D01*
X163965519Y-139902686D01*
X163915795Y-139906092D01*
X163864769Y-139918898D01*
X163837536Y-139931507D01*
X163796463Y-139960371D01*
X163763431Y-139996529D01*
X163755471Y-140008199D01*
X163731909Y-140051957D01*
X163715079Y-140099454D01*
X163711507Y-140113712D01*
X163702491Y-140163868D01*
X163698524Y-140213462D01*
X163698318Y-140227529D01*
X163700421Y-140277057D01*
X163703203Y-140305687D01*
X163711210Y-140355959D01*
X163719567Y-140389462D01*
X163738215Y-140436896D01*
X163750586Y-140456873D01*
X163792136Y-140483504D01*
X163797236Y-140483740D01*
X163829965Y-140476657D01*
X163862449Y-140456140D01*
X163876127Y-140421702D01*
X163862937Y-140380914D01*
X163841505Y-140335531D01*
X163836559Y-140322540D01*
X163825895Y-140274806D01*
X163823370Y-140227529D01*
X163827368Y-140176775D01*
X163837536Y-140136915D01*
X163860186Y-140093619D01*
X163878813Y-140074145D01*
X163924738Y-140053869D01*
X163951109Y-140051674D01*
X164000988Y-140061310D01*
X164024870Y-140076343D01*
X164057652Y-140113475D01*
X164074207Y-140141800D01*
X164095195Y-140187275D01*
X164112798Y-140230949D01*
X164131191Y-140276515D01*
X164152483Y-140322082D01*
X164155540Y-140328157D01*
X164180975Y-140372167D01*
X164211024Y-140413065D01*
X164215380Y-140418283D01*
X164252363Y-140453452D01*
X164294531Y-140479499D01*
X164304528Y-140484228D01*
X164352698Y-140500200D01*
X164404819Y-140507716D01*
X164438618Y-140508897D01*
X164492772Y-140505613D01*
X164541477Y-140495759D01*
X164589205Y-140477107D01*
X164606413Y-140467376D01*
X164648213Y-140435164D01*
X164681933Y-140395623D01*
X164705575Y-140353314D01*
X164722577Y-140306126D01*
X164733282Y-140254930D01*
X164737532Y-140205428D01*
X164737815Y-140188206D01*
G37*
G36*
X164717299Y-140667655D02*
G01*
X164718837Y-140670574D01*
X164730000Y-140718946D01*
X164729951Y-140722467D01*
X164717543Y-140770481D01*
X164681395Y-140793684D01*
X164339211Y-140793684D01*
X164339211Y-140968073D01*
X164339092Y-140979092D01*
X164334918Y-141032267D01*
X164324781Y-141082247D01*
X164308681Y-141129030D01*
X164282905Y-141175236D01*
X164247895Y-141214111D01*
X164208053Y-141243091D01*
X164175269Y-141259270D01*
X164126903Y-141274232D01*
X164078039Y-141282017D01*
X164023649Y-141284612D01*
X164012414Y-141284612D01*
X163977797Y-141283616D01*
X163926998Y-141277880D01*
X163876601Y-141265333D01*
X163828988Y-141243824D01*
X163789427Y-141215445D01*
X163754671Y-141177561D01*
X163729092Y-141132693D01*
X163727199Y-141128282D01*
X163710339Y-141077773D01*
X163701323Y-141028700D01*
X163698318Y-140976622D01*
X163698318Y-140968073D01*
X163823370Y-140968073D01*
X163825544Y-141000928D01*
X163839386Y-141049529D01*
X163868799Y-141091172D01*
X163909878Y-141118111D01*
X163959844Y-141131883D01*
X164009483Y-141135380D01*
X164026580Y-141135380D01*
X164076278Y-141131883D01*
X164126472Y-141118111D01*
X164167997Y-141091172D01*
X164190311Y-141063561D01*
X164208704Y-141018212D01*
X164214159Y-140968073D01*
X164214159Y-140793684D01*
X163823370Y-140793684D01*
X163823370Y-140968073D01*
X163698318Y-140968073D01*
X163698318Y-140702093D01*
X163711995Y-140660572D01*
X163744235Y-140644452D01*
X164680418Y-140644452D01*
X164717299Y-140667655D01*
G37*
G36*
X164730000Y-141474633D02*
G01*
X164717299Y-141429448D01*
X164680662Y-141408443D01*
X163747655Y-141408443D01*
X163711018Y-141429448D01*
X163698318Y-141474633D01*
X163698318Y-141975331D01*
X163718346Y-142013433D01*
X163759623Y-142024668D01*
X163804075Y-142011967D01*
X163823370Y-141975331D01*
X163823370Y-141557676D01*
X164151632Y-141557676D01*
X164151632Y-141774319D01*
X164170928Y-141810711D01*
X164215624Y-141823412D01*
X164256657Y-141812177D01*
X164276685Y-141774319D01*
X164276685Y-141557676D01*
X164604947Y-141557676D01*
X164604947Y-141975331D01*
X164623754Y-142011967D01*
X164668695Y-142024668D01*
X164710216Y-142013433D01*
X164730000Y-141975331D01*
X164730000Y-141474633D01*
G37*
G36*
X164699958Y-142078646D02*
G01*
X164721695Y-142115282D01*
X164730000Y-142157536D01*
X164722916Y-142190509D01*
X164698492Y-142209560D01*
X164495526Y-142265980D01*
X164495526Y-142614759D01*
X164698492Y-142672400D01*
X164722916Y-142691451D01*
X164730000Y-142723203D01*
X164721695Y-142765945D01*
X164699225Y-142802581D01*
X164668450Y-142817236D01*
X164655750Y-142814549D01*
X163748632Y-142535868D01*
X163745537Y-142534755D01*
X163711018Y-142499965D01*
X163706702Y-142489535D01*
X163698318Y-142440369D01*
X163903237Y-142440369D01*
X164370474Y-142581053D01*
X164370474Y-142299685D01*
X163903237Y-142440369D01*
X163698318Y-142440369D01*
X163698628Y-142430759D01*
X163711018Y-142381751D01*
X163711809Y-142380060D01*
X163748632Y-142346092D01*
X164655750Y-142066189D01*
X164668450Y-142064724D01*
X164699958Y-142078646D01*
G37*
G36*
X164730000Y-142999197D02*
G01*
X164718837Y-142950825D01*
X164717299Y-142947906D01*
X164680662Y-142924703D01*
X163746189Y-142924703D01*
X163709553Y-142947906D01*
X163698362Y-142995705D01*
X163698318Y-142999197D01*
X163708407Y-143047812D01*
X163709797Y-143050732D01*
X163746434Y-143073935D01*
X164177034Y-143073935D01*
X163719567Y-143417096D01*
X163698318Y-143459351D01*
X163709797Y-143497941D01*
X163738862Y-143531646D01*
X163776231Y-143545080D01*
X163790397Y-143542149D01*
X163806029Y-143533845D01*
X164146259Y-143263712D01*
X164630837Y-143584647D01*
X164657459Y-143592951D01*
X164692386Y-143580251D01*
X164719497Y-143547034D01*
X164730000Y-143505757D01*
X164723893Y-143476203D01*
X164702156Y-143452267D01*
X164271311Y-143165282D01*
X164386838Y-143073935D01*
X164680662Y-143073935D01*
X164717299Y-143050732D01*
X164729950Y-143002718D01*
X164730000Y-142999197D01*
G37*
G36*
X164730000Y-143749023D02*
G01*
X164717299Y-143703838D01*
X164680662Y-143682833D01*
X163747655Y-143682833D01*
X163711018Y-143703838D01*
X163698318Y-143749023D01*
X163698318Y-144249720D01*
X163718346Y-144287822D01*
X163759623Y-144299057D01*
X163804075Y-144286357D01*
X163823370Y-144249720D01*
X163823370Y-143832065D01*
X164151632Y-143832065D01*
X164151632Y-144048709D01*
X164170928Y-144085101D01*
X164215624Y-144097801D01*
X164256657Y-144086566D01*
X164276685Y-144048709D01*
X164276685Y-143832065D01*
X164604947Y-143832065D01*
X164604947Y-144249720D01*
X164623754Y-144286357D01*
X164668695Y-144299057D01*
X164710216Y-144287822D01*
X164730000Y-144249720D01*
X164730000Y-143749023D01*
G37*
G36*
X164717299Y-144436810D02*
G01*
X164718837Y-144439730D01*
X164730000Y-144488101D01*
X164729951Y-144491623D01*
X164717543Y-144539637D01*
X164681151Y-144562840D01*
X164292316Y-144562840D01*
X164292316Y-144703524D01*
X164687257Y-144910153D01*
X164717543Y-144934822D01*
X164730000Y-144968039D01*
X164719009Y-145010781D01*
X164690676Y-145045219D01*
X164655261Y-145059385D01*
X164645003Y-145057920D01*
X164634501Y-145053768D01*
X164270334Y-144856908D01*
X164267247Y-144867336D01*
X164248694Y-144913217D01*
X164221242Y-144957292D01*
X164212510Y-144968115D01*
X164176179Y-145001427D01*
X164130872Y-145027634D01*
X164088370Y-145042513D01*
X164039116Y-145051216D01*
X163988478Y-145053768D01*
X163954989Y-145052700D01*
X163906244Y-145046552D01*
X163858521Y-145033104D01*
X163814333Y-145010048D01*
X163778398Y-144979966D01*
X163747189Y-144940154D01*
X163724696Y-144893300D01*
X163721502Y-144884111D01*
X163708622Y-144836331D01*
X163700894Y-144785498D01*
X163698318Y-144731612D01*
X163823370Y-144731612D01*
X163825240Y-144764512D01*
X163837147Y-144813896D01*
X163862449Y-144857397D01*
X163895670Y-144884234D01*
X163941937Y-144899932D01*
X163995317Y-144904535D01*
X164038899Y-144901589D01*
X164087608Y-144887917D01*
X164128429Y-144857397D01*
X164147202Y-144828389D01*
X164162675Y-144781958D01*
X164167264Y-144731612D01*
X164167264Y-144562840D01*
X163823370Y-144562840D01*
X163823370Y-144731612D01*
X163698318Y-144731612D01*
X163698318Y-144464410D01*
X163711995Y-144427041D01*
X163744235Y-144413607D01*
X164680418Y-144413607D01*
X164717299Y-144436810D01*
G37*
G36*
X164730000Y-145541277D02*
G01*
X164718837Y-145492905D01*
X164717299Y-145489986D01*
X164680662Y-145466782D01*
X163773056Y-145466782D01*
X163724375Y-145479834D01*
X163714682Y-145489986D01*
X163698382Y-145537785D01*
X163698318Y-145541277D01*
X163706133Y-145587683D01*
X163732267Y-145624319D01*
X163773264Y-145653801D01*
X163783070Y-145659490D01*
X164157739Y-145856594D01*
X163783070Y-146056385D01*
X163740960Y-146083433D01*
X163732267Y-146090579D01*
X163706133Y-146126482D01*
X163698318Y-146173133D01*
X163711758Y-146220881D01*
X163714682Y-146225157D01*
X163760490Y-146247078D01*
X163773056Y-146247627D01*
X164680662Y-146247627D01*
X164717299Y-146224424D01*
X164729950Y-146176625D01*
X164730000Y-146173133D01*
X164718837Y-146124518D01*
X164717299Y-146121598D01*
X164680662Y-146098394D01*
X164004842Y-146098394D01*
X164353377Y-145910083D01*
X164379511Y-145884438D01*
X164387083Y-145855129D01*
X164380000Y-145828262D01*
X164353377Y-145804570D01*
X163996294Y-145616015D01*
X164680662Y-145616015D01*
X164717299Y-145592812D01*
X164729950Y-145544798D01*
X164730000Y-145541277D01*
G37*
G36*
X164730000Y-146502616D02*
G01*
X164718837Y-146454245D01*
X164717299Y-146451325D01*
X164680662Y-146428122D01*
X163746189Y-146428122D01*
X163709553Y-146451325D01*
X163698362Y-146499124D01*
X163698318Y-146502616D01*
X163708407Y-146551231D01*
X163709797Y-146554152D01*
X163746434Y-146577355D01*
X164177034Y-146577355D01*
X163719567Y-146920516D01*
X163698318Y-146962770D01*
X163709797Y-147001360D01*
X163738862Y-147035066D01*
X163776231Y-147048499D01*
X163790397Y-147045568D01*
X163806029Y-147037264D01*
X164146259Y-146767131D01*
X164630837Y-147088066D01*
X164657459Y-147096371D01*
X164692386Y-147083670D01*
X164719497Y-147050453D01*
X164730000Y-147009176D01*
X164723893Y-146979623D01*
X164702156Y-146955687D01*
X164271311Y-146668702D01*
X164386838Y-146577355D01*
X164680662Y-146577355D01*
X164717299Y-146554152D01*
X164729950Y-146506138D01*
X164730000Y-146502616D01*
G37*
G36*
X164730000Y-147260746D02*
G01*
X164718837Y-147212375D01*
X164717299Y-147209455D01*
X164680662Y-147186252D01*
X163746189Y-147186252D01*
X163709553Y-147209455D01*
X163698362Y-147257254D01*
X163698318Y-147260746D01*
X163708192Y-147309361D01*
X163709553Y-147312281D01*
X163746189Y-147335484D01*
X164680662Y-147335484D01*
X164717299Y-147312281D01*
X164729950Y-147264268D01*
X164730000Y-147260746D01*
G37*
G36*
X164730000Y-147593893D02*
G01*
X164718837Y-147545522D01*
X164717299Y-147542602D01*
X164680662Y-147519399D01*
X163746189Y-147519399D01*
X163709553Y-147542602D01*
X163698362Y-147590402D01*
X163698318Y-147593893D01*
X163708192Y-147642508D01*
X163709553Y-147645429D01*
X163746189Y-147668632D01*
X164680662Y-147668632D01*
X164717299Y-147645429D01*
X164729950Y-147597415D01*
X164730000Y-147593893D01*
G37*
D10*
X203694392Y-134588233D02*
X203084869Y-134588233D01*
X203389630Y-134892995D02*
X203389630Y-134283471D01*
X204194392Y-137588233D02*
X203584869Y-137588233D01*
G36*
X205901306Y-146947690D02*
G01*
X205896888Y-146988751D01*
X205880811Y-147026913D01*
X205874537Y-147035422D01*
X205841112Y-147058843D01*
X205802378Y-147067256D01*
X205783092Y-147068053D01*
X205741841Y-147064197D01*
X205705533Y-147049698D01*
X205689889Y-147035422D01*
X205671096Y-146999893D01*
X205664116Y-146961114D01*
X205663706Y-146947690D01*
X205663706Y-146823810D01*
X205901306Y-146823810D01*
X205901306Y-146947690D01*
G37*
G36*
X205938822Y-145339986D02*
G01*
X205933468Y-145381516D01*
X205915730Y-145416864D01*
X205906386Y-145427131D01*
X205871610Y-145448235D01*
X205831621Y-145456918D01*
X205808103Y-145458004D01*
X205794425Y-145458004D01*
X205753103Y-145454356D01*
X205714448Y-145440638D01*
X205696142Y-145427131D01*
X205672861Y-145392607D01*
X205664213Y-145353657D01*
X205663706Y-145339986D01*
X205663706Y-145213761D01*
X205938822Y-145213761D01*
X205938822Y-145339986D01*
G37*
G36*
X206459141Y-147308958D02*
G01*
X205449765Y-147308958D01*
X205449765Y-146724940D01*
X205538654Y-146724940D01*
X205538654Y-146947690D01*
X205540323Y-146988342D01*
X205546094Y-147030902D01*
X205555985Y-147070713D01*
X205559757Y-147082121D01*
X205577728Y-147120633D01*
X205602626Y-147153418D01*
X205631271Y-147178255D01*
X205666518Y-147197317D01*
X205704636Y-147208437D01*
X205743605Y-147213520D01*
X205770392Y-147214403D01*
X205812302Y-147212140D01*
X205852808Y-147204511D01*
X205879617Y-147195254D01*
X205915537Y-147175806D01*
X205946469Y-147148993D01*
X205951718Y-147142889D01*
X205974132Y-147109687D01*
X205990449Y-147072363D01*
X205992164Y-147067076D01*
X206268452Y-147215575D01*
X206278221Y-147218897D01*
X206286623Y-147220069D01*
X206323162Y-147206587D01*
X206349727Y-147177308D01*
X206352667Y-147172198D01*
X206363822Y-147134456D01*
X206364000Y-147128820D01*
X206355011Y-147100097D01*
X206328633Y-147078213D01*
X206013853Y-146918381D01*
X206013853Y-146823810D01*
X206316519Y-146823810D01*
X206350304Y-146804060D01*
X206351885Y-146801339D01*
X206363420Y-146762771D01*
X206364000Y-146750732D01*
X206356844Y-146710986D01*
X206352276Y-146700711D01*
X206320482Y-146677745D01*
X206317691Y-146677655D01*
X205583009Y-146677655D01*
X205551941Y-146690551D01*
X205538654Y-146724940D01*
X205449765Y-146724940D01*
X205449765Y-145726085D01*
X205538654Y-145726085D01*
X205545884Y-145757152D01*
X205569331Y-145774542D01*
X206209833Y-145952351D01*
X205873560Y-146048094D01*
X205847572Y-146074277D01*
X205838917Y-146112959D01*
X205838780Y-146118827D01*
X205844584Y-146157574D01*
X205847572Y-146165526D01*
X205873560Y-146190928D01*
X206209833Y-146286671D01*
X205569331Y-146464480D01*
X205545884Y-146482456D01*
X205538654Y-146512742D01*
X205545234Y-146551538D01*
X205546665Y-146555533D01*
X205565957Y-146589651D01*
X205567572Y-146591486D01*
X205597272Y-146606140D01*
X205610950Y-146603991D01*
X206320622Y-146381046D01*
X206351882Y-146356030D01*
X206357942Y-146345094D01*
X206368798Y-146307263D01*
X206370252Y-146285498D01*
X206365792Y-146245640D01*
X206359896Y-146225903D01*
X206335914Y-146195015D01*
X206328438Y-146192100D01*
X206072080Y-146118827D01*
X206328438Y-146046922D01*
X206357097Y-146019802D01*
X206359896Y-146013119D01*
X206369028Y-145974759D01*
X206370252Y-145953524D01*
X206364951Y-145913493D01*
X206357942Y-145893733D01*
X206332260Y-145862958D01*
X206320622Y-145857780D01*
X205610950Y-145635031D01*
X205597272Y-145632686D01*
X205567572Y-145647341D01*
X205547663Y-145681172D01*
X205546665Y-145683879D01*
X205538724Y-145722261D01*
X205538654Y-145726085D01*
X205449765Y-145726085D01*
X205449765Y-145123879D01*
X205538654Y-145123879D01*
X205538654Y-145339986D01*
X205538654Y-145348974D01*
X205540602Y-145388323D01*
X205547333Y-145429470D01*
X205558874Y-145467908D01*
X205563274Y-145478911D01*
X205583848Y-145515922D01*
X205611718Y-145547161D01*
X205643385Y-145570551D01*
X205681514Y-145588377D01*
X205721931Y-145598775D01*
X205762711Y-145603529D01*
X205790517Y-145604354D01*
X205797161Y-145604354D01*
X205840844Y-145602168D01*
X205880057Y-145595610D01*
X205918829Y-145583007D01*
X205945074Y-145569378D01*
X205977005Y-145545160D01*
X206005209Y-145512790D01*
X206024557Y-145478153D01*
X206026163Y-145474417D01*
X206039455Y-145435430D01*
X206047824Y-145393695D01*
X206051147Y-145353784D01*
X206051369Y-145339986D01*
X206051369Y-145213761D01*
X206317105Y-145213761D01*
X206351313Y-145192673D01*
X206352080Y-145191290D01*
X206363429Y-145152722D01*
X206364000Y-145140683D01*
X206356844Y-145100937D01*
X206352276Y-145090662D01*
X206320482Y-145067696D01*
X206317691Y-145067606D01*
X205583009Y-145067606D01*
X205551941Y-145083237D01*
X205538706Y-145120813D01*
X205538654Y-145123879D01*
X205449765Y-145123879D01*
X205449765Y-144978717D01*
X206459141Y-144978717D01*
X206459141Y-147308958D01*
G37*
D12*
X176566666Y-144259580D02*
X176614285Y-144307200D01*
X176614285Y-144307200D02*
X176757142Y-144354819D01*
X176757142Y-144354819D02*
X176852380Y-144354819D01*
X176852380Y-144354819D02*
X176995237Y-144307200D01*
X176995237Y-144307200D02*
X177090475Y-144211961D01*
X177090475Y-144211961D02*
X177138094Y-144116723D01*
X177138094Y-144116723D02*
X177185713Y-143926247D01*
X177185713Y-143926247D02*
X177185713Y-143783390D01*
X177185713Y-143783390D02*
X177138094Y-143592914D01*
X177138094Y-143592914D02*
X177090475Y-143497676D01*
X177090475Y-143497676D02*
X176995237Y-143402438D01*
X176995237Y-143402438D02*
X176852380Y-143354819D01*
X176852380Y-143354819D02*
X176757142Y-143354819D01*
X176757142Y-143354819D02*
X176614285Y-143402438D01*
X176614285Y-143402438D02*
X176566666Y-143450057D01*
X175614285Y-144354819D02*
X176185713Y-144354819D01*
X175899999Y-144354819D02*
X175899999Y-143354819D01*
X175899999Y-143354819D02*
X175995237Y-143497676D01*
X175995237Y-143497676D02*
X176090475Y-143592914D01*
X176090475Y-143592914D02*
X176185713Y-143640533D01*
X182666666Y-152754819D02*
X183142856Y-152754819D01*
X183142856Y-152754819D02*
X183142856Y-151754819D01*
X182380951Y-151850057D02*
X182333332Y-151802438D01*
X182333332Y-151802438D02*
X182238094Y-151754819D01*
X182238094Y-151754819D02*
X181999999Y-151754819D01*
X181999999Y-151754819D02*
X181904761Y-151802438D01*
X181904761Y-151802438D02*
X181857142Y-151850057D01*
X181857142Y-151850057D02*
X181809523Y-151945295D01*
X181809523Y-151945295D02*
X181809523Y-152040533D01*
X181809523Y-152040533D02*
X181857142Y-152183390D01*
X181857142Y-152183390D02*
X182428570Y-152754819D01*
X182428570Y-152754819D02*
X181809523Y-152754819D01*
X193666666Y-141054819D02*
X194142856Y-141054819D01*
X194142856Y-141054819D02*
X194142856Y-140054819D01*
X192809523Y-141054819D02*
X193380951Y-141054819D01*
X193095237Y-141054819D02*
X193095237Y-140054819D01*
X193095237Y-140054819D02*
X193190475Y-140197676D01*
X193190475Y-140197676D02*
X193285713Y-140292914D01*
X193285713Y-140292914D02*
X193380951Y-140340533D01*
X171866666Y-142959580D02*
X171914285Y-143007200D01*
X171914285Y-143007200D02*
X172057142Y-143054819D01*
X172057142Y-143054819D02*
X172152380Y-143054819D01*
X172152380Y-143054819D02*
X172295237Y-143007200D01*
X172295237Y-143007200D02*
X172390475Y-142911961D01*
X172390475Y-142911961D02*
X172438094Y-142816723D01*
X172438094Y-142816723D02*
X172485713Y-142626247D01*
X172485713Y-142626247D02*
X172485713Y-142483390D01*
X172485713Y-142483390D02*
X172438094Y-142292914D01*
X172438094Y-142292914D02*
X172390475Y-142197676D01*
X172390475Y-142197676D02*
X172295237Y-142102438D01*
X172295237Y-142102438D02*
X172152380Y-142054819D01*
X172152380Y-142054819D02*
X172057142Y-142054819D01*
X172057142Y-142054819D02*
X171914285Y-142102438D01*
X171914285Y-142102438D02*
X171866666Y-142150057D01*
X171009523Y-142054819D02*
X171199999Y-142054819D01*
X171199999Y-142054819D02*
X171295237Y-142102438D01*
X171295237Y-142102438D02*
X171342856Y-142150057D01*
X171342856Y-142150057D02*
X171438094Y-142292914D01*
X171438094Y-142292914D02*
X171485713Y-142483390D01*
X171485713Y-142483390D02*
X171485713Y-142864342D01*
X171485713Y-142864342D02*
X171438094Y-142959580D01*
X171438094Y-142959580D02*
X171390475Y-143007200D01*
X171390475Y-143007200D02*
X171295237Y-143054819D01*
X171295237Y-143054819D02*
X171104761Y-143054819D01*
X171104761Y-143054819D02*
X171009523Y-143007200D01*
X171009523Y-143007200D02*
X170961904Y-142959580D01*
X170961904Y-142959580D02*
X170914285Y-142864342D01*
X170914285Y-142864342D02*
X170914285Y-142626247D01*
X170914285Y-142626247D02*
X170961904Y-142531009D01*
X170961904Y-142531009D02*
X171009523Y-142483390D01*
X171009523Y-142483390D02*
X171104761Y-142435771D01*
X171104761Y-142435771D02*
X171295237Y-142435771D01*
X171295237Y-142435771D02*
X171390475Y-142483390D01*
X171390475Y-142483390D02*
X171438094Y-142531009D01*
X171438094Y-142531009D02*
X171485713Y-142626247D01*
D13*
%TO.C,C1*%
X170590000Y-144690000D02*
X170590000Y-150445563D01*
X170590000Y-150445563D02*
X171654437Y-151510000D01*
X172940000Y-144690000D02*
X170590000Y-144690000D01*
X172940000Y-151510000D02*
X171654437Y-151510000D01*
X175060000Y-144690000D02*
X177410000Y-144690000D01*
X175060000Y-151510000D02*
X176345563Y-151510000D01*
X175453750Y-152143750D02*
X176241250Y-152143750D01*
X175847500Y-151750000D02*
X175847500Y-152537500D01*
X177410000Y-144690000D02*
X177410000Y-150445563D01*
X177410000Y-150445563D02*
X176345563Y-151510000D01*
D14*
%TO.C,L2*%
X183649987Y-145349987D02*
X183649987Y-147768860D01*
X183649987Y-145349987D02*
X191150013Y-145349987D01*
X183649987Y-150431140D02*
X183649987Y-152850013D01*
X191150013Y-147768860D02*
X191150013Y-145349987D01*
X191150013Y-152850013D02*
X183649987Y-152850013D01*
X191150013Y-152850013D02*
X191150013Y-150431140D01*
D15*
X183679985Y-145349987D02*
G75*
G02*
X183619989Y-145349987I-29998J0D01*
G01*
X183619989Y-145349987D02*
G75*
G02*
X183679985Y-145349987I29998J0D01*
G01*
D14*
%TO.C,L1*%
X184849987Y-133549987D02*
X184849987Y-135968860D01*
X184849987Y-133549987D02*
X192350013Y-133549987D01*
X184849987Y-138631140D02*
X184849987Y-141050013D01*
X192350013Y-135968860D02*
X192350013Y-133549987D01*
X192350013Y-141050013D02*
X184849987Y-141050013D01*
X192350013Y-141050013D02*
X192350013Y-138631140D01*
D15*
X184879985Y-133549987D02*
G75*
G02*
X184819989Y-133549987I-29998J0D01*
G01*
X184819989Y-133549987D02*
G75*
G02*
X184879985Y-133549987I29998J0D01*
G01*
D13*
%TO.C,C6*%
X170590000Y-135954437D02*
X171654437Y-134890000D01*
X170590000Y-141710000D02*
X170590000Y-135954437D01*
X172152500Y-134650000D02*
X172152500Y-133862500D01*
X172546250Y-134256250D02*
X171758750Y-134256250D01*
X172940000Y-134890000D02*
X171654437Y-134890000D01*
X172940000Y-141710000D02*
X170590000Y-141710000D01*
X175060000Y-134890000D02*
X176345563Y-134890000D01*
X175060000Y-141710000D02*
X177410000Y-141710000D01*
X177410000Y-135954437D02*
X176345563Y-134890000D01*
X177410000Y-141710000D02*
X177410000Y-135954437D01*
%TD*%
%LPC*%
D16*
%TO.C,SW1*%
X161112530Y-140389924D03*
X161112530Y-143389924D03*
%TD*%
D17*
%TO.C,J1*%
X168500000Y-149730000D03*
D18*
X168500000Y-138330000D03*
X168500000Y-146630000D03*
%TD*%
D19*
%TO.C,J2*%
X205750000Y-151500000D03*
D20*
X205750000Y-148960000D03*
%TD*%
D21*
%TO.C,RV1*%
X192600000Y-143750000D03*
X201400000Y-143750000D03*
D22*
X199500000Y-150750000D03*
X197000000Y-150750000D03*
X194500000Y-150750000D03*
%TD*%
D19*
%TO.C,LS1*%
X206000000Y-135000000D03*
D20*
X206000000Y-137540000D03*
%TD*%
D23*
%TO.C,C1*%
X174000000Y-150900000D03*
X174000000Y-145300000D03*
%TD*%
D24*
%TO.C,L2*%
X184200102Y-149100000D03*
X190599898Y-149100000D03*
%TD*%
%TO.C,L1*%
X185400102Y-137300000D03*
X191799898Y-137300000D03*
%TD*%
D25*
%TO.C,C6*%
X174000000Y-135500000D03*
X174000000Y-141100000D03*
%TD*%
%LPD*%
M02*
