ISO-10303-21;
HEADER;
FILE_DESCRIPTION(('KiCad electronic assembly'),'2;1');
FILE_NAME('EuroClack_Mini_speaker_MKII_panel.step','2025-06-19T14:44:52'
  ,('Pcbnew'),('Kicad'),'Open CASCADE STEP processor 7.8',
  'KiCad to STEP converter','Unknown');
FILE_SCHEMA(('AUTOMOTIVE_DESIGN { 1 0 10303 214 1 1 1 1 }'));
ENDSEC;
DATA;
#1 = APPLICATION_PROTOCOL_DEFINITION('international standard',
  'automotive_design',2000,#2);
#2 = APPLICATION_CONTEXT(
  'core data for automotive mechanical design processes');
#3 = SHAPE_DEFINITION_REPRESENTATION(#4,#10);
#4 = PRODUCT_DEFINITION_SHAPE('','',#5);
#5 = PRODUCT_DEFINITION('design','',#6,#9);
#6 = PRODUCT_DEFINITION_FORMATION('','',#7);
#7 = PRODUCT('EuroClack_Mini_speaker_MKII_panel 1',
  'EuroClack_Mini_speaker_MKII_panel 1','',(#8));
#8 = PRODUCT_CONTEXT('',#2,'mechanical');
#9 = PRODUCT_DEFINITION_CONTEXT('part definition',#2,'design');
#10 = SHAPE_REPRESENTATION('',(#11,#15),#19);
#11 = AXIS2_PLACEMENT_3D('',#12,#13,#14);
#12 = CARTESIAN_POINT('',(0.,0.,0.));
#13 = DIRECTION('',(0.,0.,1.));
#14 = DIRECTION('',(1.,0.,-0.));
#15 = AXIS2_PLACEMENT_3D('',#16,#17,#18);
#16 = CARTESIAN_POINT('',(0.,0.,0.));
#17 = DIRECTION('',(0.,0.,1.));
#18 = DIRECTION('',(1.,0.,-0.));
#19 = ( GEOMETRIC_REPRESENTATION_CONTEXT(3) 
GLOBAL_UNCERTAINTY_ASSIGNED_CONTEXT((#23)) GLOBAL_UNIT_ASSIGNED_CONTEXT(
(#20,#21,#22)) REPRESENTATION_CONTEXT('Context #1',
  '3D Context with UNIT and UNCERTAINTY') );
#20 = ( LENGTH_UNIT() NAMED_UNIT(*) SI_UNIT(.MILLI.,.METRE.) );
#21 = ( NAMED_UNIT(*) PLANE_ANGLE_UNIT() SI_UNIT($,.RADIAN.) );
#22 = ( NAMED_UNIT(*) SI_UNIT($,.STERADIAN.) SOLID_ANGLE_UNIT() );
#23 = UNCERTAINTY_MEASURE_WITH_UNIT(LENGTH_MEASURE(1.E-07),#20,
  'distance_accuracy_value','confusion accuracy');
#24 = PRODUCT_RELATED_PRODUCT_CATEGORY('part',$,(#7));
#25 = SHAPE_DEFINITION_REPRESENTATION(#26,#32);
#26 = PRODUCT_DEFINITION_SHAPE('','',#27);
#27 = PRODUCT_DEFINITION('design','',#28,#31);
#28 = PRODUCT_DEFINITION_FORMATION('','',#29);
#29 = PRODUCT('EuroClack_Mini_speaker_MKII_panel_PCB',
  'EuroClack_Mini_speaker_MKII_panel_PCB','',(#30));
#30 = PRODUCT_CONTEXT('',#2,'mechanical');
#31 = PRODUCT_DEFINITION_CONTEXT('part definition',#2,'design');
#32 = ADVANCED_BREP_SHAPE_REPRESENTATION('',(#11,#33),#860);
#33 = MANIFOLD_SOLID_BREP('',#34);
#34 = CLOSED_SHELL('',(#35,#75,#106,#137,#159,#201,#232,#265,#287,#329,
    #360,#393,#415,#448,#481,#514,#556,#587,#620,#642,#684,#715,#748,
    #770,#815));
#35 = ADVANCED_FACE('',(#36),#70,.T.);
#36 = FACE_BOUND('',#37,.T.);
#37 = EDGE_LOOP('',(#38,#48,#56,#64));
#38 = ORIENTED_EDGE('',*,*,#39,.T.);
#39 = EDGE_CURVE('',#40,#42,#44,.T.);
#40 = VERTEX_POINT('',#41);
#41 = CARTESIAN_POINT('',(164.5,-153.5,0.));
#42 = VERTEX_POINT('',#43);
#43 = CARTESIAN_POINT('',(164.5,-153.5,1.91));
#44 = LINE('',#45,#46);
#45 = CARTESIAN_POINT('',(164.5,-153.5,0.));
#46 = VECTOR('',#47,1.);
#47 = DIRECTION('',(0.,0.,1.));
#48 = ORIENTED_EDGE('',*,*,#49,.T.);
#49 = EDGE_CURVE('',#42,#50,#52,.T.);
#50 = VERTEX_POINT('',#51);
#51 = CARTESIAN_POINT('',(114.,-153.5,1.91));
#52 = LINE('',#53,#54);
#53 = CARTESIAN_POINT('',(164.5,-153.5,1.91));
#54 = VECTOR('',#55,1.);
#55 = DIRECTION('',(-1.,0.,0.));
#56 = ORIENTED_EDGE('',*,*,#57,.F.);
#57 = EDGE_CURVE('',#58,#50,#60,.T.);
#58 = VERTEX_POINT('',#59);
#59 = CARTESIAN_POINT('',(114.,-153.5,0.));
#60 = LINE('',#61,#62);
#61 = CARTESIAN_POINT('',(114.,-153.5,0.));
#62 = VECTOR('',#63,1.);
#63 = DIRECTION('',(0.,0.,1.));
#64 = ORIENTED_EDGE('',*,*,#65,.F.);
#65 = EDGE_CURVE('',#40,#58,#66,.T.);
#66 = LINE('',#67,#68);
#67 = CARTESIAN_POINT('',(164.5,-153.5,0.));
#68 = VECTOR('',#69,1.);
#69 = DIRECTION('',(-1.,0.,0.));
#70 = PLANE('',#71);
#71 = AXIS2_PLACEMENT_3D('',#72,#73,#74);
#72 = CARTESIAN_POINT('',(164.5,-153.5,0.));
#73 = DIRECTION('',(0.,-1.,0.));
#74 = DIRECTION('',(-1.,0.,0.));
#75 = ADVANCED_FACE('',(#76),#101,.T.);
#76 = FACE_BOUND('',#77,.T.);
#77 = EDGE_LOOP('',(#78,#79,#87,#95));
#78 = ORIENTED_EDGE('',*,*,#57,.T.);
#79 = ORIENTED_EDGE('',*,*,#80,.T.);
#80 = EDGE_CURVE('',#50,#81,#83,.T.);
#81 = VERTEX_POINT('',#82);
#82 = CARTESIAN_POINT('',(114.,-25.,1.91));
#83 = LINE('',#84,#85);
#84 = CARTESIAN_POINT('',(114.,-153.5,1.91));
#85 = VECTOR('',#86,1.);
#86 = DIRECTION('',(0.,1.,0.));
#87 = ORIENTED_EDGE('',*,*,#88,.F.);
#88 = EDGE_CURVE('',#89,#81,#91,.T.);
#89 = VERTEX_POINT('',#90);
#90 = CARTESIAN_POINT('',(114.,-25.,0.));
#91 = LINE('',#92,#93);
#92 = CARTESIAN_POINT('',(114.,-25.,0.));
#93 = VECTOR('',#94,1.);
#94 = DIRECTION('',(0.,0.,1.));
#95 = ORIENTED_EDGE('',*,*,#96,.F.);
#96 = EDGE_CURVE('',#58,#89,#97,.T.);
#97 = LINE('',#98,#99);
#98 = CARTESIAN_POINT('',(114.,-153.5,0.));
#99 = VECTOR('',#100,1.);
#100 = DIRECTION('',(0.,1.,0.));
#101 = PLANE('',#102);
#102 = AXIS2_PLACEMENT_3D('',#103,#104,#105);
#103 = CARTESIAN_POINT('',(114.,-153.5,0.));
#104 = DIRECTION('',(-1.,0.,0.));
#105 = DIRECTION('',(0.,1.,0.));
#106 = ADVANCED_FACE('',(#107),#132,.T.);
#107 = FACE_BOUND('',#108,.T.);
#108 = EDGE_LOOP('',(#109,#110,#118,#126));
#109 = ORIENTED_EDGE('',*,*,#88,.T.);
#110 = ORIENTED_EDGE('',*,*,#111,.T.);
#111 = EDGE_CURVE('',#81,#112,#114,.T.);
#112 = VERTEX_POINT('',#113);
#113 = CARTESIAN_POINT('',(164.5,-25.,1.91));
#114 = LINE('',#115,#116);
#115 = CARTESIAN_POINT('',(114.,-25.,1.91));
#116 = VECTOR('',#117,1.);
#117 = DIRECTION('',(1.,0.,0.));
#118 = ORIENTED_EDGE('',*,*,#119,.F.);
#119 = EDGE_CURVE('',#120,#112,#122,.T.);
#120 = VERTEX_POINT('',#121);
#121 = CARTESIAN_POINT('',(164.5,-25.,0.));
#122 = LINE('',#123,#124);
#123 = CARTESIAN_POINT('',(164.5,-25.,0.));
#124 = VECTOR('',#125,1.);
#125 = DIRECTION('',(0.,0.,1.));
#126 = ORIENTED_EDGE('',*,*,#127,.F.);
#127 = EDGE_CURVE('',#89,#120,#128,.T.);
#128 = LINE('',#129,#130);
#129 = CARTESIAN_POINT('',(114.,-25.,0.));
#130 = VECTOR('',#131,1.);
#131 = DIRECTION('',(1.,0.,0.));
#132 = PLANE('',#133);
#133 = AXIS2_PLACEMENT_3D('',#134,#135,#136);
#134 = CARTESIAN_POINT('',(114.,-25.,0.));
#135 = DIRECTION('',(0.,1.,0.));
#136 = DIRECTION('',(1.,0.,0.));
#137 = ADVANCED_FACE('',(#138),#154,.T.);
#138 = FACE_BOUND('',#139,.T.);
#139 = EDGE_LOOP('',(#140,#141,#147,#148));
#140 = ORIENTED_EDGE('',*,*,#119,.T.);
#141 = ORIENTED_EDGE('',*,*,#142,.T.);
#142 = EDGE_CURVE('',#112,#42,#143,.T.);
#143 = LINE('',#144,#145);
#144 = CARTESIAN_POINT('',(164.5,-25.,1.91));
#145 = VECTOR('',#146,1.);
#146 = DIRECTION('',(0.,-1.,0.));
#147 = ORIENTED_EDGE('',*,*,#39,.F.);
#148 = ORIENTED_EDGE('',*,*,#149,.F.);
#149 = EDGE_CURVE('',#120,#40,#150,.T.);
#150 = LINE('',#151,#152);
#151 = CARTESIAN_POINT('',(164.5,-25.,0.));
#152 = VECTOR('',#153,1.);
#153 = DIRECTION('',(0.,-1.,0.));
#154 = PLANE('',#155);
#155 = AXIS2_PLACEMENT_3D('',#156,#157,#158);
#156 = CARTESIAN_POINT('',(164.5,-25.,0.));
#157 = DIRECTION('',(1.,0.,-0.));
#158 = DIRECTION('',(0.,-1.,0.));
#159 = ADVANCED_FACE('',(#160),#196,.F.);
#160 = FACE_BOUND('',#161,.T.);
#161 = EDGE_LOOP('',(#162,#172,#181,#189));
#162 = ORIENTED_EDGE('',*,*,#163,.T.);
#163 = EDGE_CURVE('',#164,#166,#168,.T.);
#164 = VERTEX_POINT('',#165);
#165 = CARTESIAN_POINT('',(120.6,-148.9,0.));
#166 = VERTEX_POINT('',#167);
#167 = CARTESIAN_POINT('',(120.6,-148.9,1.91));
#168 = LINE('',#169,#170);
#169 = CARTESIAN_POINT('',(120.6,-148.9,0.));
#170 = VECTOR('',#171,1.);
#171 = DIRECTION('',(0.,0.,1.));
#172 = ORIENTED_EDGE('',*,*,#173,.T.);
#173 = EDGE_CURVE('',#166,#174,#176,.T.);
#174 = VERTEX_POINT('',#175);
#175 = CARTESIAN_POINT('',(120.6,-152.1,1.91));
#176 = CIRCLE('',#177,1.6);
#177 = AXIS2_PLACEMENT_3D('',#178,#179,#180);
#178 = CARTESIAN_POINT('',(120.6,-150.5,1.91));
#179 = DIRECTION('',(0.,0.,1.));
#180 = DIRECTION('',(-8.881784197001E-15,1.,0.));
#181 = ORIENTED_EDGE('',*,*,#182,.F.);
#182 = EDGE_CURVE('',#183,#174,#185,.T.);
#183 = VERTEX_POINT('',#184);
#184 = CARTESIAN_POINT('',(120.6,-152.1,0.));
#185 = LINE('',#186,#187);
#186 = CARTESIAN_POINT('',(120.6,-152.1,0.));
#187 = VECTOR('',#188,1.);
#188 = DIRECTION('',(0.,0.,1.));
#189 = ORIENTED_EDGE('',*,*,#190,.F.);
#190 = EDGE_CURVE('',#164,#183,#191,.T.);
#191 = CIRCLE('',#192,1.6);
#192 = AXIS2_PLACEMENT_3D('',#193,#194,#195);
#193 = CARTESIAN_POINT('',(120.6,-150.5,0.));
#194 = DIRECTION('',(0.,0.,1.));
#195 = DIRECTION('',(-8.881784197001E-15,1.,0.));
#196 = CYLINDRICAL_SURFACE('',#197,1.6);
#197 = AXIS2_PLACEMENT_3D('',#198,#199,#200);
#198 = CARTESIAN_POINT('',(120.6,-150.5,0.));
#199 = DIRECTION('',(-0.,-0.,-1.));
#200 = DIRECTION('',(-8.881784197001E-15,1.,0.));
#201 = ADVANCED_FACE('',(#202),#227,.T.);
#202 = FACE_BOUND('',#203,.T.);
#203 = EDGE_LOOP('',(#204,#205,#213,#221));
#204 = ORIENTED_EDGE('',*,*,#182,.T.);
#205 = ORIENTED_EDGE('',*,*,#206,.T.);
#206 = EDGE_CURVE('',#174,#207,#209,.T.);
#207 = VERTEX_POINT('',#208);
#208 = CARTESIAN_POINT('',(122.4,-152.1,1.91));
#209 = LINE('',#210,#211);
#210 = CARTESIAN_POINT('',(120.6,-152.1,1.91));
#211 = VECTOR('',#212,1.);
#212 = DIRECTION('',(1.,0.,0.));
#213 = ORIENTED_EDGE('',*,*,#214,.F.);
#214 = EDGE_CURVE('',#215,#207,#217,.T.);
#215 = VERTEX_POINT('',#216);
#216 = CARTESIAN_POINT('',(122.4,-152.1,0.));
#217 = LINE('',#218,#219);
#218 = CARTESIAN_POINT('',(122.4,-152.1,0.));
#219 = VECTOR('',#220,1.);
#220 = DIRECTION('',(0.,0.,1.));
#221 = ORIENTED_EDGE('',*,*,#222,.F.);
#222 = EDGE_CURVE('',#183,#215,#223,.T.);
#223 = LINE('',#224,#225);
#224 = CARTESIAN_POINT('',(120.6,-152.1,0.));
#225 = VECTOR('',#226,1.);
#226 = DIRECTION('',(1.,0.,0.));
#227 = PLANE('',#228);
#228 = AXIS2_PLACEMENT_3D('',#229,#230,#231);
#229 = CARTESIAN_POINT('',(120.6,-152.1,0.));
#230 = DIRECTION('',(0.,1.,0.));
#231 = DIRECTION('',(1.,0.,0.));
#232 = ADVANCED_FACE('',(#233),#260,.F.);
#233 = FACE_BOUND('',#234,.T.);
#234 = EDGE_LOOP('',(#235,#236,#245,#253));
#235 = ORIENTED_EDGE('',*,*,#214,.T.);
#236 = ORIENTED_EDGE('',*,*,#237,.T.);
#237 = EDGE_CURVE('',#207,#238,#240,.T.);
#238 = VERTEX_POINT('',#239);
#239 = CARTESIAN_POINT('',(122.4,-148.9,1.91));
#240 = CIRCLE('',#241,1.6);
#241 = AXIS2_PLACEMENT_3D('',#242,#243,#244);
#242 = CARTESIAN_POINT('',(122.4,-150.5,1.91));
#243 = DIRECTION('',(0.,-0.,1.));
#244 = DIRECTION('',(8.881784197001E-15,-1.,-0.));
#245 = ORIENTED_EDGE('',*,*,#246,.F.);
#246 = EDGE_CURVE('',#247,#238,#249,.T.);
#247 = VERTEX_POINT('',#248);
#248 = CARTESIAN_POINT('',(122.4,-148.9,0.));
#249 = LINE('',#250,#251);
#250 = CARTESIAN_POINT('',(122.4,-148.9,0.));
#251 = VECTOR('',#252,1.);
#252 = DIRECTION('',(0.,0.,1.));
#253 = ORIENTED_EDGE('',*,*,#254,.F.);
#254 = EDGE_CURVE('',#215,#247,#255,.T.);
#255 = CIRCLE('',#256,1.6);
#256 = AXIS2_PLACEMENT_3D('',#257,#258,#259);
#257 = CARTESIAN_POINT('',(122.4,-150.5,0.));
#258 = DIRECTION('',(0.,-0.,1.));
#259 = DIRECTION('',(8.881784197001E-15,-1.,-0.));
#260 = CYLINDRICAL_SURFACE('',#261,1.6);
#261 = AXIS2_PLACEMENT_3D('',#262,#263,#264);
#262 = CARTESIAN_POINT('',(122.4,-150.5,0.));
#263 = DIRECTION('',(-0.,0.,-1.));
#264 = DIRECTION('',(8.881784197001E-15,-1.,-0.));
#265 = ADVANCED_FACE('',(#266),#282,.T.);
#266 = FACE_BOUND('',#267,.T.);
#267 = EDGE_LOOP('',(#268,#269,#275,#276));
#268 = ORIENTED_EDGE('',*,*,#246,.T.);
#269 = ORIENTED_EDGE('',*,*,#270,.T.);
#270 = EDGE_CURVE('',#238,#166,#271,.T.);
#271 = LINE('',#272,#273);
#272 = CARTESIAN_POINT('',(122.4,-148.9,1.91));
#273 = VECTOR('',#274,1.);
#274 = DIRECTION('',(-1.,0.,0.));
#275 = ORIENTED_EDGE('',*,*,#163,.F.);
#276 = ORIENTED_EDGE('',*,*,#277,.F.);
#277 = EDGE_CURVE('',#247,#164,#278,.T.);
#278 = LINE('',#279,#280);
#279 = CARTESIAN_POINT('',(122.4,-148.9,0.));
#280 = VECTOR('',#281,1.);
#281 = DIRECTION('',(-1.,0.,0.));
#282 = PLANE('',#283);
#283 = AXIS2_PLACEMENT_3D('',#284,#285,#286);
#284 = CARTESIAN_POINT('',(122.4,-148.9,0.));
#285 = DIRECTION('',(0.,-1.,0.));
#286 = DIRECTION('',(-1.,0.,0.));
#287 = ADVANCED_FACE('',(#288),#324,.F.);
#288 = FACE_BOUND('',#289,.T.);
#289 = EDGE_LOOP('',(#290,#300,#309,#317));
#290 = ORIENTED_EDGE('',*,*,#291,.T.);
#291 = EDGE_CURVE('',#292,#294,#296,.T.);
#292 = VERTEX_POINT('',#293);
#293 = CARTESIAN_POINT('',(156.1,-148.9,0.));
#294 = VERTEX_POINT('',#295);
#295 = CARTESIAN_POINT('',(156.1,-148.9,1.91));
#296 = LINE('',#297,#298);
#297 = CARTESIAN_POINT('',(156.1,-148.9,0.));
#298 = VECTOR('',#299,1.);
#299 = DIRECTION('',(0.,0.,1.));
#300 = ORIENTED_EDGE('',*,*,#301,.T.);
#301 = EDGE_CURVE('',#294,#302,#304,.T.);
#302 = VERTEX_POINT('',#303);
#303 = CARTESIAN_POINT('',(156.1,-152.1,1.91));
#304 = CIRCLE('',#305,1.6);
#305 = AXIS2_PLACEMENT_3D('',#306,#307,#308);
#306 = CARTESIAN_POINT('',(156.1,-150.5,1.91));
#307 = DIRECTION('',(0.,0.,1.));
#308 = DIRECTION('',(-1.7763568394E-14,1.,0.));
#309 = ORIENTED_EDGE('',*,*,#310,.F.);
#310 = EDGE_CURVE('',#311,#302,#313,.T.);
#311 = VERTEX_POINT('',#312);
#312 = CARTESIAN_POINT('',(156.1,-152.1,0.));
#313 = LINE('',#314,#315);
#314 = CARTESIAN_POINT('',(156.1,-152.1,0.));
#315 = VECTOR('',#316,1.);
#316 = DIRECTION('',(0.,0.,1.));
#317 = ORIENTED_EDGE('',*,*,#318,.F.);
#318 = EDGE_CURVE('',#292,#311,#319,.T.);
#319 = CIRCLE('',#320,1.6);
#320 = AXIS2_PLACEMENT_3D('',#321,#322,#323);
#321 = CARTESIAN_POINT('',(156.1,-150.5,0.));
#322 = DIRECTION('',(0.,0.,1.));
#323 = DIRECTION('',(-1.7763568394E-14,1.,0.));
#324 = CYLINDRICAL_SURFACE('',#325,1.6);
#325 = AXIS2_PLACEMENT_3D('',#326,#327,#328);
#326 = CARTESIAN_POINT('',(156.1,-150.5,0.));
#327 = DIRECTION('',(-0.,-0.,-1.));
#328 = DIRECTION('',(-1.7763568394E-14,1.,0.));
#329 = ADVANCED_FACE('',(#330),#355,.T.);
#330 = FACE_BOUND('',#331,.T.);
#331 = EDGE_LOOP('',(#332,#333,#341,#349));
#332 = ORIENTED_EDGE('',*,*,#310,.T.);
#333 = ORIENTED_EDGE('',*,*,#334,.T.);
#334 = EDGE_CURVE('',#302,#335,#337,.T.);
#335 = VERTEX_POINT('',#336);
#336 = CARTESIAN_POINT('',(157.9,-152.1,1.91));
#337 = LINE('',#338,#339);
#338 = CARTESIAN_POINT('',(156.1,-152.1,1.91));
#339 = VECTOR('',#340,1.);
#340 = DIRECTION('',(1.,0.,0.));
#341 = ORIENTED_EDGE('',*,*,#342,.F.);
#342 = EDGE_CURVE('',#343,#335,#345,.T.);
#343 = VERTEX_POINT('',#344);
#344 = CARTESIAN_POINT('',(157.9,-152.1,0.));
#345 = LINE('',#346,#347);
#346 = CARTESIAN_POINT('',(157.9,-152.1,0.));
#347 = VECTOR('',#348,1.);
#348 = DIRECTION('',(0.,0.,1.));
#349 = ORIENTED_EDGE('',*,*,#350,.F.);
#350 = EDGE_CURVE('',#311,#343,#351,.T.);
#351 = LINE('',#352,#353);
#352 = CARTESIAN_POINT('',(156.1,-152.1,0.));
#353 = VECTOR('',#354,1.);
#354 = DIRECTION('',(1.,0.,0.));
#355 = PLANE('',#356);
#356 = AXIS2_PLACEMENT_3D('',#357,#358,#359);
#357 = CARTESIAN_POINT('',(156.1,-152.1,0.));
#358 = DIRECTION('',(0.,1.,0.));
#359 = DIRECTION('',(1.,0.,0.));
#360 = ADVANCED_FACE('',(#361),#388,.F.);
#361 = FACE_BOUND('',#362,.T.);
#362 = EDGE_LOOP('',(#363,#364,#373,#381));
#363 = ORIENTED_EDGE('',*,*,#342,.T.);
#364 = ORIENTED_EDGE('',*,*,#365,.T.);
#365 = EDGE_CURVE('',#335,#366,#368,.T.);
#366 = VERTEX_POINT('',#367);
#367 = CARTESIAN_POINT('',(157.9,-148.9,1.91));
#368 = CIRCLE('',#369,1.6);
#369 = AXIS2_PLACEMENT_3D('',#370,#371,#372);
#370 = CARTESIAN_POINT('',(157.9,-150.5,1.91));
#371 = DIRECTION('',(0.,-0.,1.));
#372 = DIRECTION('',(1.7763568394E-14,-1.,-0.));
#373 = ORIENTED_EDGE('',*,*,#374,.F.);
#374 = EDGE_CURVE('',#375,#366,#377,.T.);
#375 = VERTEX_POINT('',#376);
#376 = CARTESIAN_POINT('',(157.9,-148.9,0.));
#377 = LINE('',#378,#379);
#378 = CARTESIAN_POINT('',(157.9,-148.9,0.));
#379 = VECTOR('',#380,1.);
#380 = DIRECTION('',(0.,0.,1.));
#381 = ORIENTED_EDGE('',*,*,#382,.F.);
#382 = EDGE_CURVE('',#343,#375,#383,.T.);
#383 = CIRCLE('',#384,1.6);
#384 = AXIS2_PLACEMENT_3D('',#385,#386,#387);
#385 = CARTESIAN_POINT('',(157.9,-150.5,0.));
#386 = DIRECTION('',(0.,-0.,1.));
#387 = DIRECTION('',(1.7763568394E-14,-1.,-0.));
#388 = CYLINDRICAL_SURFACE('',#389,1.6);
#389 = AXIS2_PLACEMENT_3D('',#390,#391,#392);
#390 = CARTESIAN_POINT('',(157.9,-150.5,0.));
#391 = DIRECTION('',(-0.,0.,-1.));
#392 = DIRECTION('',(1.7763568394E-14,-1.,-0.));
#393 = ADVANCED_FACE('',(#394),#410,.T.);
#394 = FACE_BOUND('',#395,.T.);
#395 = EDGE_LOOP('',(#396,#397,#403,#404));
#396 = ORIENTED_EDGE('',*,*,#374,.T.);
#397 = ORIENTED_EDGE('',*,*,#398,.T.);
#398 = EDGE_CURVE('',#366,#294,#399,.T.);
#399 = LINE('',#400,#401);
#400 = CARTESIAN_POINT('',(157.9,-148.9,1.91));
#401 = VECTOR('',#402,1.);
#402 = DIRECTION('',(-1.,0.,0.));
#403 = ORIENTED_EDGE('',*,*,#291,.F.);
#404 = ORIENTED_EDGE('',*,*,#405,.F.);
#405 = EDGE_CURVE('',#375,#292,#406,.T.);
#406 = LINE('',#407,#408);
#407 = CARTESIAN_POINT('',(157.9,-148.9,0.));
#408 = VECTOR('',#409,1.);
#409 = DIRECTION('',(-1.,0.,0.));
#410 = PLANE('',#411);
#411 = AXIS2_PLACEMENT_3D('',#412,#413,#414);
#412 = CARTESIAN_POINT('',(157.9,-148.9,0.));
#413 = DIRECTION('',(0.,-1.,0.));
#414 = DIRECTION('',(-1.,0.,0.));
#415 = ADVANCED_FACE('',(#416),#443,.F.);
#416 = FACE_BOUND('',#417,.T.);
#417 = EDGE_LOOP('',(#418,#428,#435,#436));
#418 = ORIENTED_EDGE('',*,*,#419,.T.);
#419 = EDGE_CURVE('',#420,#422,#424,.T.);
#420 = VERTEX_POINT('',#421);
#421 = CARTESIAN_POINT('',(157.2,-134.25,0.));
#422 = VERTEX_POINT('',#423);
#423 = CARTESIAN_POINT('',(157.2,-134.25,1.91));
#424 = LINE('',#425,#426);
#425 = CARTESIAN_POINT('',(157.2,-134.25,0.));
#426 = VECTOR('',#427,1.);
#427 = DIRECTION('',(0.,0.,1.));
#428 = ORIENTED_EDGE('',*,*,#429,.T.);
#429 = EDGE_CURVE('',#422,#422,#430,.T.);
#430 = CIRCLE('',#431,3.7);
#431 = AXIS2_PLACEMENT_3D('',#432,#433,#434);
#432 = CARTESIAN_POINT('',(153.5,-134.25,1.91));
#433 = DIRECTION('',(0.,0.,1.));
#434 = DIRECTION('',(1.,0.,-0.));
#435 = ORIENTED_EDGE('',*,*,#419,.F.);
#436 = ORIENTED_EDGE('',*,*,#437,.F.);
#437 = EDGE_CURVE('',#420,#420,#438,.T.);
#438 = CIRCLE('',#439,3.7);
#439 = AXIS2_PLACEMENT_3D('',#440,#441,#442);
#440 = CARTESIAN_POINT('',(153.5,-134.25,0.));
#441 = DIRECTION('',(0.,0.,1.));
#442 = DIRECTION('',(1.,0.,-0.));
#443 = CYLINDRICAL_SURFACE('',#444,3.7);
#444 = AXIS2_PLACEMENT_3D('',#445,#446,#447);
#445 = CARTESIAN_POINT('',(153.5,-134.25,0.));
#446 = DIRECTION('',(-0.,-0.,-1.));
#447 = DIRECTION('',(1.,0.,-0.));
#448 = ADVANCED_FACE('',(#449),#476,.F.);
#449 = FACE_BOUND('',#450,.T.);
#450 = EDGE_LOOP('',(#451,#461,#468,#469));
#451 = ORIENTED_EDGE('',*,*,#452,.T.);
#452 = EDGE_CURVE('',#453,#455,#457,.T.);
#453 = VERTEX_POINT('',#454);
#454 = CARTESIAN_POINT('',(128.1,-134.25,0.));
#455 = VERTEX_POINT('',#456);
#456 = CARTESIAN_POINT('',(128.1,-134.25,1.91));
#457 = LINE('',#458,#459);
#458 = CARTESIAN_POINT('',(128.1,-134.25,0.));
#459 = VECTOR('',#460,1.);
#460 = DIRECTION('',(0.,0.,1.));
#461 = ORIENTED_EDGE('',*,*,#462,.T.);
#462 = EDGE_CURVE('',#455,#455,#463,.T.);
#463 = CIRCLE('',#464,3.1);
#464 = AXIS2_PLACEMENT_3D('',#465,#466,#467);
#465 = CARTESIAN_POINT('',(125.,-134.25,1.91));
#466 = DIRECTION('',(0.,0.,1.));
#467 = DIRECTION('',(1.,0.,-0.));
#468 = ORIENTED_EDGE('',*,*,#452,.F.);
#469 = ORIENTED_EDGE('',*,*,#470,.F.);
#470 = EDGE_CURVE('',#453,#453,#471,.T.);
#471 = CIRCLE('',#472,3.1);
#472 = AXIS2_PLACEMENT_3D('',#473,#474,#475);
#473 = CARTESIAN_POINT('',(125.,-134.25,0.));
#474 = DIRECTION('',(0.,0.,1.));
#475 = DIRECTION('',(1.,0.,-0.));
#476 = CYLINDRICAL_SURFACE('',#477,3.1);
#477 = AXIS2_PLACEMENT_3D('',#478,#479,#480);
#478 = CARTESIAN_POINT('',(125.,-134.25,0.));
#479 = DIRECTION('',(-0.,-0.,-1.));
#480 = DIRECTION('',(1.,0.,-0.));
#481 = ADVANCED_FACE('',(#482),#509,.F.);
#482 = FACE_BOUND('',#483,.T.);
#483 = EDGE_LOOP('',(#484,#494,#501,#502));
#484 = ORIENTED_EDGE('',*,*,#485,.T.);
#485 = EDGE_CURVE('',#486,#488,#490,.T.);
#486 = VERTEX_POINT('',#487);
#487 = CARTESIAN_POINT('',(159.25,-64.25,0.));
#488 = VERTEX_POINT('',#489);
#489 = CARTESIAN_POINT('',(159.25,-64.25,1.91));
#490 = LINE('',#491,#492);
#491 = CARTESIAN_POINT('',(159.25,-64.25,0.));
#492 = VECTOR('',#493,1.);
#493 = DIRECTION('',(0.,0.,1.));
#494 = ORIENTED_EDGE('',*,*,#495,.T.);
#495 = EDGE_CURVE('',#488,#488,#496,.T.);
#496 = CIRCLE('',#497,20.);
#497 = AXIS2_PLACEMENT_3D('',#498,#499,#500);
#498 = CARTESIAN_POINT('',(139.25,-64.25,1.91));
#499 = DIRECTION('',(0.,0.,1.));
#500 = DIRECTION('',(1.,0.,-0.));
#501 = ORIENTED_EDGE('',*,*,#485,.F.);
#502 = ORIENTED_EDGE('',*,*,#503,.F.);
#503 = EDGE_CURVE('',#486,#486,#504,.T.);
#504 = CIRCLE('',#505,20.);
#505 = AXIS2_PLACEMENT_3D('',#506,#507,#508);
#506 = CARTESIAN_POINT('',(139.25,-64.25,0.));
#507 = DIRECTION('',(0.,0.,1.));
#508 = DIRECTION('',(1.,0.,-0.));
#509 = CYLINDRICAL_SURFACE('',#510,20.);
#510 = AXIS2_PLACEMENT_3D('',#511,#512,#513);
#511 = CARTESIAN_POINT('',(139.25,-64.25,0.));
#512 = DIRECTION('',(-0.,-0.,-1.));
#513 = DIRECTION('',(1.,0.,-0.));
#514 = ADVANCED_FACE('',(#515),#551,.F.);
#515 = FACE_BOUND('',#516,.T.);
#516 = EDGE_LOOP('',(#517,#527,#536,#544));
#517 = ORIENTED_EDGE('',*,*,#518,.T.);
#518 = EDGE_CURVE('',#519,#521,#523,.T.);
#519 = VERTEX_POINT('',#520);
#520 = CARTESIAN_POINT('',(120.6,-26.4,0.));
#521 = VERTEX_POINT('',#522);
#522 = CARTESIAN_POINT('',(120.6,-26.4,1.91));
#523 = LINE('',#524,#525);
#524 = CARTESIAN_POINT('',(120.6,-26.4,0.));
#525 = VECTOR('',#526,1.);
#526 = DIRECTION('',(0.,0.,1.));
#527 = ORIENTED_EDGE('',*,*,#528,.T.);
#528 = EDGE_CURVE('',#521,#529,#531,.T.);
#529 = VERTEX_POINT('',#530);
#530 = CARTESIAN_POINT('',(120.6,-29.6,1.91));
#531 = CIRCLE('',#532,1.6);
#532 = AXIS2_PLACEMENT_3D('',#533,#534,#535);
#533 = CARTESIAN_POINT('',(120.6,-28.,1.91));
#534 = DIRECTION('',(0.,-0.,1.));
#535 = DIRECTION('',(0.,1.,0.));
#536 = ORIENTED_EDGE('',*,*,#537,.F.);
#537 = EDGE_CURVE('',#538,#529,#540,.T.);
#538 = VERTEX_POINT('',#539);
#539 = CARTESIAN_POINT('',(120.6,-29.6,0.));
#540 = LINE('',#541,#542);
#541 = CARTESIAN_POINT('',(120.6,-29.6,0.));
#542 = VECTOR('',#543,1.);
#543 = DIRECTION('',(0.,0.,1.));
#544 = ORIENTED_EDGE('',*,*,#545,.F.);
#545 = EDGE_CURVE('',#519,#538,#546,.T.);
#546 = CIRCLE('',#547,1.6);
#547 = AXIS2_PLACEMENT_3D('',#548,#549,#550);
#548 = CARTESIAN_POINT('',(120.6,-28.,0.));
#549 = DIRECTION('',(0.,-0.,1.));
#550 = DIRECTION('',(0.,1.,0.));
#551 = CYLINDRICAL_SURFACE('',#552,1.6);
#552 = AXIS2_PLACEMENT_3D('',#553,#554,#555);
#553 = CARTESIAN_POINT('',(120.6,-28.,0.));
#554 = DIRECTION('',(-0.,0.,-1.));
#555 = DIRECTION('',(0.,1.,0.));
#556 = ADVANCED_FACE('',(#557),#582,.T.);
#557 = FACE_BOUND('',#558,.T.);
#558 = EDGE_LOOP('',(#559,#560,#568,#576));
#559 = ORIENTED_EDGE('',*,*,#537,.T.);
#560 = ORIENTED_EDGE('',*,*,#561,.T.);
#561 = EDGE_CURVE('',#529,#562,#564,.T.);
#562 = VERTEX_POINT('',#563);
#563 = CARTESIAN_POINT('',(122.4,-29.6,1.91));
#564 = LINE('',#565,#566);
#565 = CARTESIAN_POINT('',(120.6,-29.6,1.91));
#566 = VECTOR('',#567,1.);
#567 = DIRECTION('',(1.,0.,0.));
#568 = ORIENTED_EDGE('',*,*,#569,.F.);
#569 = EDGE_CURVE('',#570,#562,#572,.T.);
#570 = VERTEX_POINT('',#571);
#571 = CARTESIAN_POINT('',(122.4,-29.6,0.));
#572 = LINE('',#573,#574);
#573 = CARTESIAN_POINT('',(122.4,-29.6,0.));
#574 = VECTOR('',#575,1.);
#575 = DIRECTION('',(0.,0.,1.));
#576 = ORIENTED_EDGE('',*,*,#577,.F.);
#577 = EDGE_CURVE('',#538,#570,#578,.T.);
#578 = LINE('',#579,#580);
#579 = CARTESIAN_POINT('',(120.6,-29.6,0.));
#580 = VECTOR('',#581,1.);
#581 = DIRECTION('',(1.,0.,0.));
#582 = PLANE('',#583);
#583 = AXIS2_PLACEMENT_3D('',#584,#585,#586);
#584 = CARTESIAN_POINT('',(120.6,-29.6,0.));
#585 = DIRECTION('',(0.,1.,0.));
#586 = DIRECTION('',(1.,0.,0.));
#587 = ADVANCED_FACE('',(#588),#615,.F.);
#588 = FACE_BOUND('',#589,.T.);
#589 = EDGE_LOOP('',(#590,#591,#600,#608));
#590 = ORIENTED_EDGE('',*,*,#569,.T.);
#591 = ORIENTED_EDGE('',*,*,#592,.T.);
#592 = EDGE_CURVE('',#562,#593,#595,.T.);
#593 = VERTEX_POINT('',#594);
#594 = CARTESIAN_POINT('',(122.4,-26.4,1.91));
#595 = CIRCLE('',#596,1.6);
#596 = AXIS2_PLACEMENT_3D('',#597,#598,#599);
#597 = CARTESIAN_POINT('',(122.4,-28.,1.91));
#598 = DIRECTION('',(0.,0.,1.));
#599 = DIRECTION('',(-0.,-1.,0.));
#600 = ORIENTED_EDGE('',*,*,#601,.F.);
#601 = EDGE_CURVE('',#602,#593,#604,.T.);
#602 = VERTEX_POINT('',#603);
#603 = CARTESIAN_POINT('',(122.4,-26.4,0.));
#604 = LINE('',#605,#606);
#605 = CARTESIAN_POINT('',(122.4,-26.4,0.));
#606 = VECTOR('',#607,1.);
#607 = DIRECTION('',(0.,0.,1.));
#608 = ORIENTED_EDGE('',*,*,#609,.F.);
#609 = EDGE_CURVE('',#570,#602,#610,.T.);
#610 = CIRCLE('',#611,1.6);
#611 = AXIS2_PLACEMENT_3D('',#612,#613,#614);
#612 = CARTESIAN_POINT('',(122.4,-28.,0.));
#613 = DIRECTION('',(0.,0.,1.));
#614 = DIRECTION('',(-0.,-1.,0.));
#615 = CYLINDRICAL_SURFACE('',#616,1.6);
#616 = AXIS2_PLACEMENT_3D('',#617,#618,#619);
#617 = CARTESIAN_POINT('',(122.4,-28.,0.));
#618 = DIRECTION('',(-0.,-0.,-1.));
#619 = DIRECTION('',(-0.,-1.,0.));
#620 = ADVANCED_FACE('',(#621),#637,.T.);
#621 = FACE_BOUND('',#622,.T.);
#622 = EDGE_LOOP('',(#623,#624,#630,#631));
#623 = ORIENTED_EDGE('',*,*,#601,.T.);
#624 = ORIENTED_EDGE('',*,*,#625,.T.);
#625 = EDGE_CURVE('',#593,#521,#626,.T.);
#626 = LINE('',#627,#628);
#627 = CARTESIAN_POINT('',(122.4,-26.4,1.91));
#628 = VECTOR('',#629,1.);
#629 = DIRECTION('',(-1.,0.,0.));
#630 = ORIENTED_EDGE('',*,*,#518,.F.);
#631 = ORIENTED_EDGE('',*,*,#632,.F.);
#632 = EDGE_CURVE('',#602,#519,#633,.T.);
#633 = LINE('',#634,#635);
#634 = CARTESIAN_POINT('',(122.4,-26.4,0.));
#635 = VECTOR('',#636,1.);
#636 = DIRECTION('',(-1.,0.,0.));
#637 = PLANE('',#638);
#638 = AXIS2_PLACEMENT_3D('',#639,#640,#641);
#639 = CARTESIAN_POINT('',(122.4,-26.4,0.));
#640 = DIRECTION('',(0.,-1.,0.));
#641 = DIRECTION('',(-1.,0.,0.));
#642 = ADVANCED_FACE('',(#643),#679,.F.);
#643 = FACE_BOUND('',#644,.T.);
#644 = EDGE_LOOP('',(#645,#655,#664,#672));
#645 = ORIENTED_EDGE('',*,*,#646,.T.);
#646 = EDGE_CURVE('',#647,#649,#651,.T.);
#647 = VERTEX_POINT('',#648);
#648 = CARTESIAN_POINT('',(156.1,-26.4,0.));
#649 = VERTEX_POINT('',#650);
#650 = CARTESIAN_POINT('',(156.1,-26.4,1.91));
#651 = LINE('',#652,#653);
#652 = CARTESIAN_POINT('',(156.1,-26.4,0.));
#653 = VECTOR('',#654,1.);
#654 = DIRECTION('',(0.,0.,1.));
#655 = ORIENTED_EDGE('',*,*,#656,.T.);
#656 = EDGE_CURVE('',#649,#657,#659,.T.);
#657 = VERTEX_POINT('',#658);
#658 = CARTESIAN_POINT('',(156.1,-29.6,1.91));
#659 = CIRCLE('',#660,1.6);
#660 = AXIS2_PLACEMENT_3D('',#661,#662,#663);
#661 = CARTESIAN_POINT('',(156.1,-28.,1.91));
#662 = DIRECTION('',(0.,0.,1.));
#663 = DIRECTION('',(-1.7763568394E-14,1.,0.));
#664 = ORIENTED_EDGE('',*,*,#665,.F.);
#665 = EDGE_CURVE('',#666,#657,#668,.T.);
#666 = VERTEX_POINT('',#667);
#667 = CARTESIAN_POINT('',(156.1,-29.6,0.));
#668 = LINE('',#669,#670);
#669 = CARTESIAN_POINT('',(156.1,-29.6,0.));
#670 = VECTOR('',#671,1.);
#671 = DIRECTION('',(0.,0.,1.));
#672 = ORIENTED_EDGE('',*,*,#673,.F.);
#673 = EDGE_CURVE('',#647,#666,#674,.T.);
#674 = CIRCLE('',#675,1.6);
#675 = AXIS2_PLACEMENT_3D('',#676,#677,#678);
#676 = CARTESIAN_POINT('',(156.1,-28.,0.));
#677 = DIRECTION('',(0.,0.,1.));
#678 = DIRECTION('',(-1.7763568394E-14,1.,0.));
#679 = CYLINDRICAL_SURFACE('',#680,1.6);
#680 = AXIS2_PLACEMENT_3D('',#681,#682,#683);
#681 = CARTESIAN_POINT('',(156.1,-28.,0.));
#682 = DIRECTION('',(-0.,-0.,-1.));
#683 = DIRECTION('',(-1.7763568394E-14,1.,0.));
#684 = ADVANCED_FACE('',(#685),#710,.T.);
#685 = FACE_BOUND('',#686,.T.);
#686 = EDGE_LOOP('',(#687,#688,#696,#704));
#687 = ORIENTED_EDGE('',*,*,#665,.T.);
#688 = ORIENTED_EDGE('',*,*,#689,.T.);
#689 = EDGE_CURVE('',#657,#690,#692,.T.);
#690 = VERTEX_POINT('',#691);
#691 = CARTESIAN_POINT('',(157.9,-29.6,1.91));
#692 = LINE('',#693,#694);
#693 = CARTESIAN_POINT('',(156.1,-29.6,1.91));
#694 = VECTOR('',#695,1.);
#695 = DIRECTION('',(1.,0.,0.));
#696 = ORIENTED_EDGE('',*,*,#697,.F.);
#697 = EDGE_CURVE('',#698,#690,#700,.T.);
#698 = VERTEX_POINT('',#699);
#699 = CARTESIAN_POINT('',(157.9,-29.6,0.));
#700 = LINE('',#701,#702);
#701 = CARTESIAN_POINT('',(157.9,-29.6,0.));
#702 = VECTOR('',#703,1.);
#703 = DIRECTION('',(0.,0.,1.));
#704 = ORIENTED_EDGE('',*,*,#705,.F.);
#705 = EDGE_CURVE('',#666,#698,#706,.T.);
#706 = LINE('',#707,#708);
#707 = CARTESIAN_POINT('',(156.1,-29.6,0.));
#708 = VECTOR('',#709,1.);
#709 = DIRECTION('',(1.,0.,0.));
#710 = PLANE('',#711);
#711 = AXIS2_PLACEMENT_3D('',#712,#713,#714);
#712 = CARTESIAN_POINT('',(156.1,-29.6,0.));
#713 = DIRECTION('',(0.,1.,0.));
#714 = DIRECTION('',(1.,0.,0.));
#715 = ADVANCED_FACE('',(#716),#743,.F.);
#716 = FACE_BOUND('',#717,.T.);
#717 = EDGE_LOOP('',(#718,#719,#728,#736));
#718 = ORIENTED_EDGE('',*,*,#697,.T.);
#719 = ORIENTED_EDGE('',*,*,#720,.T.);
#720 = EDGE_CURVE('',#690,#721,#723,.T.);
#721 = VERTEX_POINT('',#722);
#722 = CARTESIAN_POINT('',(157.9,-26.4,1.91));
#723 = CIRCLE('',#724,1.6);
#724 = AXIS2_PLACEMENT_3D('',#725,#726,#727);
#725 = CARTESIAN_POINT('',(157.9,-28.,1.91));
#726 = DIRECTION('',(0.,-0.,1.));
#727 = DIRECTION('',(1.7763568394E-14,-1.,-0.));
#728 = ORIENTED_EDGE('',*,*,#729,.F.);
#729 = EDGE_CURVE('',#730,#721,#732,.T.);
#730 = VERTEX_POINT('',#731);
#731 = CARTESIAN_POINT('',(157.9,-26.4,0.));
#732 = LINE('',#733,#734);
#733 = CARTESIAN_POINT('',(157.9,-26.4,0.));
#734 = VECTOR('',#735,1.);
#735 = DIRECTION('',(0.,0.,1.));
#736 = ORIENTED_EDGE('',*,*,#737,.F.);
#737 = EDGE_CURVE('',#698,#730,#738,.T.);
#738 = CIRCLE('',#739,1.6);
#739 = AXIS2_PLACEMENT_3D('',#740,#741,#742);
#740 = CARTESIAN_POINT('',(157.9,-28.,0.));
#741 = DIRECTION('',(0.,-0.,1.));
#742 = DIRECTION('',(1.7763568394E-14,-1.,-0.));
#743 = CYLINDRICAL_SURFACE('',#744,1.6);
#744 = AXIS2_PLACEMENT_3D('',#745,#746,#747);
#745 = CARTESIAN_POINT('',(157.9,-28.,0.));
#746 = DIRECTION('',(-0.,0.,-1.));
#747 = DIRECTION('',(1.7763568394E-14,-1.,-0.));
#748 = ADVANCED_FACE('',(#749),#765,.T.);
#749 = FACE_BOUND('',#750,.T.);
#750 = EDGE_LOOP('',(#751,#752,#758,#759));
#751 = ORIENTED_EDGE('',*,*,#729,.T.);
#752 = ORIENTED_EDGE('',*,*,#753,.T.);
#753 = EDGE_CURVE('',#721,#649,#754,.T.);
#754 = LINE('',#755,#756);
#755 = CARTESIAN_POINT('',(157.9,-26.4,1.91));
#756 = VECTOR('',#757,1.);
#757 = DIRECTION('',(-1.,0.,0.));
#758 = ORIENTED_EDGE('',*,*,#646,.F.);
#759 = ORIENTED_EDGE('',*,*,#760,.F.);
#760 = EDGE_CURVE('',#730,#647,#761,.T.);
#761 = LINE('',#762,#763);
#762 = CARTESIAN_POINT('',(157.9,-26.4,0.));
#763 = VECTOR('',#764,1.);
#764 = DIRECTION('',(-1.,0.,0.));
#765 = PLANE('',#766);
#766 = AXIS2_PLACEMENT_3D('',#767,#768,#769);
#767 = CARTESIAN_POINT('',(157.9,-26.4,0.));
#768 = DIRECTION('',(0.,-1.,0.));
#769 = DIRECTION('',(-1.,0.,0.));
#770 = ADVANCED_FACE('',(#771,#777,#783,#789,#792,#795,#798,#804),#810,
  .F.);
#771 = FACE_BOUND('',#772,.T.);
#772 = EDGE_LOOP('',(#773,#774,#775,#776));
#773 = ORIENTED_EDGE('',*,*,#65,.T.);
#774 = ORIENTED_EDGE('',*,*,#96,.T.);
#775 = ORIENTED_EDGE('',*,*,#127,.T.);
#776 = ORIENTED_EDGE('',*,*,#149,.T.);
#777 = FACE_BOUND('',#778,.T.);
#778 = EDGE_LOOP('',(#779,#780,#781,#782));
#779 = ORIENTED_EDGE('',*,*,#190,.T.);
#780 = ORIENTED_EDGE('',*,*,#222,.T.);
#781 = ORIENTED_EDGE('',*,*,#254,.T.);
#782 = ORIENTED_EDGE('',*,*,#277,.T.);
#783 = FACE_BOUND('',#784,.T.);
#784 = EDGE_LOOP('',(#785,#786,#787,#788));
#785 = ORIENTED_EDGE('',*,*,#318,.T.);
#786 = ORIENTED_EDGE('',*,*,#350,.T.);
#787 = ORIENTED_EDGE('',*,*,#382,.T.);
#788 = ORIENTED_EDGE('',*,*,#405,.T.);
#789 = FACE_BOUND('',#790,.T.);
#790 = EDGE_LOOP('',(#791));
#791 = ORIENTED_EDGE('',*,*,#437,.T.);
#792 = FACE_BOUND('',#793,.T.);
#793 = EDGE_LOOP('',(#794));
#794 = ORIENTED_EDGE('',*,*,#470,.T.);
#795 = FACE_BOUND('',#796,.T.);
#796 = EDGE_LOOP('',(#797));
#797 = ORIENTED_EDGE('',*,*,#503,.T.);
#798 = FACE_BOUND('',#799,.T.);
#799 = EDGE_LOOP('',(#800,#801,#802,#803));
#800 = ORIENTED_EDGE('',*,*,#545,.T.);
#801 = ORIENTED_EDGE('',*,*,#577,.T.);
#802 = ORIENTED_EDGE('',*,*,#609,.T.);
#803 = ORIENTED_EDGE('',*,*,#632,.T.);
#804 = FACE_BOUND('',#805,.T.);
#805 = EDGE_LOOP('',(#806,#807,#808,#809));
#806 = ORIENTED_EDGE('',*,*,#673,.T.);
#807 = ORIENTED_EDGE('',*,*,#705,.T.);
#808 = ORIENTED_EDGE('',*,*,#737,.T.);
#809 = ORIENTED_EDGE('',*,*,#760,.T.);
#810 = PLANE('',#811);
#811 = AXIS2_PLACEMENT_3D('',#812,#813,#814);
#812 = CARTESIAN_POINT('',(0.,0.,0.));
#813 = DIRECTION('',(0.,0.,1.));
#814 = DIRECTION('',(1.,0.,-0.));
#815 = ADVANCED_FACE('',(#816,#822,#828,#834,#837,#840,#843,#849),#855,
  .T.);
#816 = FACE_BOUND('',#817,.F.);
#817 = EDGE_LOOP('',(#818,#819,#820,#821));
#818 = ORIENTED_EDGE('',*,*,#49,.T.);
#819 = ORIENTED_EDGE('',*,*,#80,.T.);
#820 = ORIENTED_EDGE('',*,*,#111,.T.);
#821 = ORIENTED_EDGE('',*,*,#142,.T.);
#822 = FACE_BOUND('',#823,.F.);
#823 = EDGE_LOOP('',(#824,#825,#826,#827));
#824 = ORIENTED_EDGE('',*,*,#173,.T.);
#825 = ORIENTED_EDGE('',*,*,#206,.T.);
#826 = ORIENTED_EDGE('',*,*,#237,.T.);
#827 = ORIENTED_EDGE('',*,*,#270,.T.);
#828 = FACE_BOUND('',#829,.F.);
#829 = EDGE_LOOP('',(#830,#831,#832,#833));
#830 = ORIENTED_EDGE('',*,*,#301,.T.);
#831 = ORIENTED_EDGE('',*,*,#334,.T.);
#832 = ORIENTED_EDGE('',*,*,#365,.T.);
#833 = ORIENTED_EDGE('',*,*,#398,.T.);
#834 = FACE_BOUND('',#835,.F.);
#835 = EDGE_LOOP('',(#836));
#836 = ORIENTED_EDGE('',*,*,#429,.T.);
#837 = FACE_BOUND('',#838,.F.);
#838 = EDGE_LOOP('',(#839));
#839 = ORIENTED_EDGE('',*,*,#462,.T.);
#840 = FACE_BOUND('',#841,.F.);
#841 = EDGE_LOOP('',(#842));
#842 = ORIENTED_EDGE('',*,*,#495,.T.);
#843 = FACE_BOUND('',#844,.F.);
#844 = EDGE_LOOP('',(#845,#846,#847,#848));
#845 = ORIENTED_EDGE('',*,*,#528,.T.);
#846 = ORIENTED_EDGE('',*,*,#561,.T.);
#847 = ORIENTED_EDGE('',*,*,#592,.T.);
#848 = ORIENTED_EDGE('',*,*,#625,.T.);
#849 = FACE_BOUND('',#850,.F.);
#850 = EDGE_LOOP('',(#851,#852,#853,#854));
#851 = ORIENTED_EDGE('',*,*,#656,.T.);
#852 = ORIENTED_EDGE('',*,*,#689,.T.);
#853 = ORIENTED_EDGE('',*,*,#720,.T.);
#854 = ORIENTED_EDGE('',*,*,#753,.T.);
#855 = PLANE('',#856);
#856 = AXIS2_PLACEMENT_3D('',#857,#858,#859);
#857 = CARTESIAN_POINT('',(0.,0.,1.91));
#858 = DIRECTION('',(0.,0.,1.));
#859 = DIRECTION('',(1.,0.,-0.));
#860 = ( GEOMETRIC_REPRESENTATION_CONTEXT(3) 
GLOBAL_UNCERTAINTY_ASSIGNED_CONTEXT((#864)) GLOBAL_UNIT_ASSIGNED_CONTEXT
((#861,#862,#863)) REPRESENTATION_CONTEXT('Context #1',
  '3D Context with UNIT and UNCERTAINTY') );
#861 = ( LENGTH_UNIT() NAMED_UNIT(*) SI_UNIT(.MILLI.,.METRE.) );
#862 = ( NAMED_UNIT(*) PLANE_ANGLE_UNIT() SI_UNIT($,.RADIAN.) );
#863 = ( NAMED_UNIT(*) SI_UNIT($,.STERADIAN.) SOLID_ANGLE_UNIT() );
#864 = UNCERTAINTY_MEASURE_WITH_UNIT(LENGTH_MEASURE(1.E-07),#861,
  'distance_accuracy_value','confusion accuracy');
#865 = CONTEXT_DEPENDENT_SHAPE_REPRESENTATION(#866,#868);
#866 = ( REPRESENTATION_RELATIONSHIP('','',#32,#10) 
REPRESENTATION_RELATIONSHIP_WITH_TRANSFORMATION(#867) 
SHAPE_REPRESENTATION_RELATIONSHIP() );
#867 = ITEM_DEFINED_TRANSFORMATION('','',#11,#15);
#868 = PRODUCT_DEFINITION_SHAPE('Placement','Placement of an item',#869
  );
#869 = NEXT_ASSEMBLY_USAGE_OCCURRENCE('1','=>[0:1:1:2]','',#5,#27,$);
#870 = PRODUCT_RELATED_PRODUCT_CATEGORY('part',$,(#29));
#871 = MECHANICAL_DESIGN_GEOMETRIC_PRESENTATION_REPRESENTATION('',(#872)
  ,#860);
#872 = STYLED_ITEM('color',(#873),#33);
#873 = PRESENTATION_STYLE_ASSIGNMENT((#874));
#874 = SURFACE_STYLE_USAGE(.BOTH.,#875);
#875 = SURFACE_SIDE_STYLE('',(#876));
#876 = SURFACE_STYLE_FILL_AREA(#877);
#877 = FILL_AREA_STYLE('',(#878));
#878 = FILL_AREA_STYLE_COLOUR('',#879);
#879 = COLOUR_RGB('',0.313304153717,0.484529207832,0.410020903123);
ENDSEC;
END-ISO-10303-21;
