  0
SECTION
  2
HEADER
  9
$ANGBASE
  50
0.0
  9
$ANGDIR
  70
1
  9
$MEASUREMENT
  70
1
  0
ENDSEC
  0
SECTION
  2
TABLES
  0
TABLE
  2
LTYPE
  70
4
  0
LTYPE
  5
40F
  2
CONTINUOUS
  70
0
  3
Solid line
  72
65
  73
0
  40
0.0
  0
LTYPE
  5
410
  2
DASHDOT
 70
0
  3
Dash Dot ____ _ ____ _
 72
65
 73
4
 40
2.0
 49
1.25
 49
-0.25
 49
0.25
 49
-0.25
  0
LTYPE
  5
411
  2
DASHED
 70
0
  3
Dashed __ __ __ __ __
 72
65
 73
2
 40
0.75
 49
0.5
 49
-0.25
  0
LTYPE
  5
43B
  2
DOTTED
 70
0
  3
Dotted .  .  .  .
 72
65
 73
2
 40
0.2
 49
0.0
 49
-0.2
  0
ENDTAB
  0
TABLE
  2
STYLE
  70
4
  0
STYLE
  2
KICAD
  70
0
  40
0
  41
1
  42
1
  50
0
  71
0
  3
isocp.shx
  0
STYLE
  2
KICADB
  70
0
  40
0
  41
1
  42
1
  50
0
  71
0
  3
isocp.shx
  0
STYLE
  2
KICADI
  70
0
  40
0
  41
1
  42
1
  50
15
  71
0
  3
isocp.shx
  0
STYLE
  2
KICADBI
  70
0
  40
0
  41
1
  42
1
  50
15
  71
0
  3
isocp.shx
  0
ENDTAB
  0
TABLE
  2
LAYER
  70
1
  0
LAYER
  2
BLACK
  70
0
  62
7
  6
CONTINUOUS
  0
ENDTAB
  0
ENDSEC
  0
SECTION
  2
ENTITIES
0
LINE
8
BLACK
6
CONTINUOUS
10
122.3999999999999915
20
-148.875
11
122.6421939999999893
21
-148.8931499999999915
0
LINE
8
BLACK
6
CONTINUOUS
10
122.6421939999999893
20
-148.8931499999999915
11
122.8789769999999919
21
-148.9471939999999961
0
LINE
8
BLACK
6
CONTINUOUS
10
122.8789769999999919
20
-148.9471939999999961
11
123.1050609999999921
21
-149.0359259999999892
0
LINE
8
BLACK
6
CONTINUOUS
10
123.1050609999999921
20
-149.0359259999999892
11
123.3153949999999952
21
-149.1573620000000062
0
LINE
8
BLACK
6
CONTINUOUS
10
123.3153949999999952
20
-149.1573620000000062
11
123.5052809999999965
21
-149.3087909999999852
0
LINE
8
BLACK
6
CONTINUOUS
10
123.5052809999999965
20
-149.3087909999999852
11
123.6704759999999936
21
-149.4868290000000002
0
LINE
8
BLACK
6
CONTINUOUS
10
123.6704759999999936
20
-149.4868290000000002
11
123.8072909999999922
21
-149.6875
0
LINE
8
BLACK
6
CONTINUOUS
10
123.8072909999999922
20
-149.6875
11
123.9126699999999914
21
-149.9063209999999913
0
LINE
8
BLACK
6
CONTINUOUS
10
123.9126699999999914
20
-149.9063209999999913
11
123.984257999999997
21
-150.1384029999999825
0
LINE
8
BLACK
6
CONTINUOUS
10
123.984257999999997
20
-150.1384029999999825
11
124.0204559999999958
21
-150.378563999999983
0
LINE
8
BLACK
6
CONTINUOUS
10
124.0204559999999958
20
-150.378563999999983
11
124.0204559999999958
21
-150.6214359999999886
0
LINE
8
BLACK
6
CONTINUOUS
10
124.0204559999999958
20
-150.6214359999999886
11
123.984257999999997
21
-150.8615969999999891
0
LINE
8
BLACK
6
CONTINUOUS
10
123.984257999999997
20
-150.8615969999999891
11
123.9126699999999914
21
-151.0936789999999803
0
LINE
8
BLACK
6
CONTINUOUS
10
123.9126699999999914
20
-151.0936789999999803
11
123.8072909999999922
21
-151.3125
0
LINE
8
BLACK
6
CONTINUOUS
10
123.8072909999999922
20
-151.3125
11
123.6704759999999936
21
-151.5131709999999998
0
LINE
8
BLACK
6
CONTINUOUS
10
123.6704759999999936
20
-151.5131709999999998
11
123.5052809999999965
21
-151.6912089999999864
0
LINE
8
BLACK
6
CONTINUOUS
10
123.5052809999999965
20
-151.6912089999999864
11
123.3153949999999952
21
-151.8426379999999938
0
LINE
8
BLACK
6
CONTINUOUS
10
123.3153949999999952
20
-151.8426379999999938
11
123.1050609999999921
21
-151.9640739999999823
0
LINE
8
BLACK
6
CONTINUOUS
10
123.1050609999999921
20
-151.9640739999999823
11
122.8789769999999919
21
-152.0528060000000039
0
LINE
8
BLACK
6
CONTINUOUS
10
122.8789769999999919
20
-152.0528060000000039
11
122.6421939999999893
21
-152.1068499999999801
0
LINE
8
BLACK
6
CONTINUOUS
10
122.6421939999999893
20
-152.1068499999999801
11
122.3999999999999915
21
-152.125
0
LINE
8
BLACK
6
CONTINUOUS
10
122.3999999999999915
20
-152.125
11
120.5999999999999943
21
-152.125
0
LINE
8
BLACK
6
CONTINUOUS
10
120.5999999999999943
20
-152.125
11
120.3578059999999965
21
-152.1068499999999801
0
LINE
8
BLACK
6
CONTINUOUS
10
120.3578059999999965
20
-152.1068499999999801
11
120.1210229999999939
21
-152.0528060000000039
0
LINE
8
BLACK
6
CONTINUOUS
10
120.1210229999999939
20
-152.0528060000000039
11
119.8949389999999937
21
-151.9640739999999823
0
LINE
8
BLACK
6
CONTINUOUS
10
119.8949389999999937
20
-151.9640739999999823
11
119.6846049999999906
21
-151.8426379999999938
0
LINE
8
BLACK
6
CONTINUOUS
10
119.6846049999999906
20
-151.8426379999999938
11
119.4947189999999893
21
-151.6912089999999864
0
LINE
8
BLACK
6
CONTINUOUS
10
119.4947189999999893
20
-151.6912089999999864
11
119.3295239999999922
21
-151.5131709999999998
0
LINE
8
BLACK
6
CONTINUOUS
10
119.3295239999999922
20
-151.5131709999999998
11
119.1927089999999936
21
-151.3125
0
LINE
8
BLACK
6
CONTINUOUS
10
119.1927089999999936
20
-151.3125
11
119.0873299999999944
21
-151.0936789999999803
0
LINE
8
BLACK
6
CONTINUOUS
10
119.0873299999999944
20
-151.0936789999999803
11
119.0157419999999888
21
-150.8615969999999891
0
LINE
8
BLACK
6
CONTINUOUS
10
119.0157419999999888
20
-150.8615969999999891
11
118.97954399999999
21
-150.6214359999999886
0
LINE
8
BLACK
6
CONTINUOUS
10
118.97954399999999
20
-150.6214359999999886
11
118.97954399999999
21
-150.378563999999983
0
LINE
8
BLACK
6
CONTINUOUS
10
118.97954399999999
20
-150.378563999999983
11
119.0157419999999888
21
-150.1384029999999825
0
LINE
8
BLACK
6
CONTINUOUS
10
119.0157419999999888
20
-150.1384029999999825
11
119.0873299999999944
21
-149.9063209999999913
0
LINE
8
BLACK
6
CONTINUOUS
10
119.0873299999999944
20
-149.9063209999999913
11
119.1927089999999936
21
-149.6875
0
LINE
8
BLACK
6
CONTINUOUS
10
119.1927089999999936
20
-149.6875
11
119.3295239999999922
21
-149.4868290000000002
0
LINE
8
BLACK
6
CONTINUOUS
10
119.3295239999999922
20
-149.4868290000000002
11
119.4947189999999893
21
-149.3087909999999852
0
LINE
8
BLACK
6
CONTINUOUS
10
119.4947189999999893
20
-149.3087909999999852
11
119.6846049999999906
21
-149.1573620000000062
0
LINE
8
BLACK
6
CONTINUOUS
10
119.6846049999999906
20
-149.1573620000000062
11
119.8949389999999937
21
-149.0359259999999892
0
LINE
8
BLACK
6
CONTINUOUS
10
119.8949389999999937
20
-149.0359259999999892
11
120.1210229999999939
21
-148.9471939999999961
0
LINE
8
BLACK
6
CONTINUOUS
10
120.1210229999999939
20
-148.9471939999999961
11
120.3578059999999965
21
-148.8931499999999915
0
LINE
8
BLACK
6
CONTINUOUS
10
120.3578059999999965
20
-148.8931499999999915
11
120.5999999999999943
21
-148.875
0
LINE
8
BLACK
6
CONTINUOUS
10
120.5999999999999943
20
-148.875
11
122.3999999999999915
21
-148.875
0
LINE
8
BLACK
6
CONTINUOUS
10
120.5999999999999943
20
-148.9249999999999829
11
120.4819699999999898
21
-148.9249999999999829
0
LINE
8
BLACK
6
CONTINUOUS
10
120.4819699999999898
20
-148.9249999999999829
11
120.2485469999999879
21
-148.9601830000000007
0
LINE
8
BLACK
6
CONTINUOUS
10
120.2485469999999879
20
-148.9601830000000007
11
120.0229749999999882
21
-149.0297630000000026
0
LINE
8
BLACK
6
CONTINUOUS
10
120.0229749999999882
20
-149.0297630000000026
11
119.8102919999999898
21
-149.1321859999999901
0
LINE
8
BLACK
6
CONTINUOUS
10
119.8102919999999898
20
-149.1321859999999901
11
119.615249999999989
21
-149.2651630000000011
0
LINE
8
BLACK
6
CONTINUOUS
10
119.615249999999989
20
-149.2651630000000011
11
119.4422059999999988
21
-149.4257240000000024
0
LINE
8
BLACK
6
CONTINUOUS
10
119.4422059999999988
20
-149.4257240000000024
11
119.2950249999999954
21
-149.6102829999999813
0
LINE
8
BLACK
6
CONTINUOUS
10
119.2950249999999954
20
-149.6102829999999813
11
119.1769949999999909
21
-149.8147170000000017
0
LINE
8
BLACK
6
CONTINUOUS
10
119.1769949999999909
20
-149.8147170000000017
11
119.0907529999999923
21
-150.0344589999999982
0
LINE
8
BLACK
6
CONTINUOUS
10
119.0907529999999923
20
-150.0344589999999982
11
119.0382249999999971
21
-150.2646000000000015
0
LINE
8
BLACK
6
CONTINUOUS
10
119.0382249999999971
20
-150.2646000000000015
11
119.0205839999999995
21
-150.5
0
LINE
8
BLACK
6
CONTINUOUS
10
119.0205839999999995
20
-150.5
11
119.0382249999999971
21
-150.7353999999999985
0
LINE
8
BLACK
6
CONTINUOUS
10
119.0382249999999971
20
-150.7353999999999985
11
119.0907529999999923
21
-150.9655410000000018
0
LINE
8
BLACK
6
CONTINUOUS
10
119.0907529999999923
20
-150.9655410000000018
11
119.1769949999999909
21
-151.1852829999999983
0
LINE
8
BLACK
6
CONTINUOUS
10
119.1769949999999909
20
-151.1852829999999983
11
119.2950249999999954
21
-151.3897169999999903
0
LINE
8
BLACK
6
CONTINUOUS
10
119.2950249999999954
20
-151.3897169999999903
11
119.4422059999999988
21
-151.5742759999999976
0
LINE
8
BLACK
6
CONTINUOUS
10
119.4422059999999988
20
-151.5742759999999976
11
119.615249999999989
21
-151.7348369999999989
0
LINE
8
BLACK
6
CONTINUOUS
10
119.615249999999989
20
-151.7348369999999989
11
119.8102919999999898
21
-151.8678139999999814
0
LINE
8
BLACK
6
CONTINUOUS
10
119.8102919999999898
20
-151.8678139999999814
11
120.0229749999999882
21
-151.9702369999999974
0
LINE
8
BLACK
6
CONTINUOUS
10
120.0229749999999882
20
-151.9702369999999974
11
120.2485469999999879
21
-152.0398169999999993
0
LINE
8
BLACK
6
CONTINUOUS
10
120.2485469999999879
20
-152.0398169999999993
11
120.4819699999999898
21
-152.0749999999999886
0
LINE
8
BLACK
6
CONTINUOUS
10
120.4819699999999898
20
-152.0749999999999886
11
120.5999999999999943
21
-152.0749999999999886
0
LINE
8
BLACK
6
CONTINUOUS
10
120.5999999999999943
20
-152.0749999999999886
11
122.3999999999999915
21
-152.0749999999999886
0
LINE
8
BLACK
6
CONTINUOUS
10
122.3999999999999915
20
-152.0749999999999886
11
122.518029999999996
21
-152.0749999999999886
0
LINE
8
BLACK
6
CONTINUOUS
10
122.518029999999996
20
-152.0749999999999886
11
122.7514529999999979
21
-152.0398169999999993
0
LINE
8
BLACK
6
CONTINUOUS
10
122.7514529999999979
20
-152.0398169999999993
11
122.9770249999999976
21
-151.9702369999999974
0
LINE
8
BLACK
6
CONTINUOUS
10
122.9770249999999976
20
-151.9702369999999974
11
123.189707999999996
21
-151.8678139999999814
0
LINE
8
BLACK
6
CONTINUOUS
10
123.189707999999996
20
-151.8678139999999814
11
123.3847499999999968
21
-151.7348369999999989
0
LINE
8
BLACK
6
CONTINUOUS
10
123.3847499999999968
20
-151.7348369999999989
11
123.5577940000000012
21
-151.5742759999999976
0
LINE
8
BLACK
6
CONTINUOUS
10
123.5577940000000012
20
-151.5742759999999976
11
123.7049749999999904
21
-151.3897169999999903
0
LINE
8
BLACK
6
CONTINUOUS
10
123.7049749999999904
20
-151.3897169999999903
11
123.8230049999999949
21
-151.1852829999999983
0
LINE
8
BLACK
6
CONTINUOUS
10
123.8230049999999949
20
-151.1852829999999983
11
123.9092469999999935
21
-150.9655410000000018
0
LINE
8
BLACK
6
CONTINUOUS
10
123.9092469999999935
20
-150.9655410000000018
11
123.9617749999999887
21
-150.7353999999999985
0
LINE
8
BLACK
6
CONTINUOUS
10
123.9617749999999887
20
-150.7353999999999985
11
123.9794160000000005
21
-150.5
0
LINE
8
BLACK
6
CONTINUOUS
10
123.9794160000000005
20
-150.5
11
123.9617749999999887
21
-150.2646000000000015
0
LINE
8
BLACK
6
CONTINUOUS
10
123.9617749999999887
20
-150.2646000000000015
11
123.9092469999999935
21
-150.0344589999999982
0
LINE
8
BLACK
6
CONTINUOUS
10
123.9092469999999935
20
-150.0344589999999982
11
123.8230049999999949
21
-149.8147170000000017
0
LINE
8
BLACK
6
CONTINUOUS
10
123.8230049999999949
20
-149.8147170000000017
11
123.7049749999999904
21
-149.6102829999999813
0
LINE
8
BLACK
6
CONTINUOUS
10
123.7049749999999904
20
-149.6102829999999813
11
123.5577940000000012
21
-149.4257240000000024
0
LINE
8
BLACK
6
CONTINUOUS
10
123.5577940000000012
20
-149.4257240000000024
11
123.3847499999999968
21
-149.2651630000000011
0
LINE
8
BLACK
6
CONTINUOUS
10
123.3847499999999968
20
-149.2651630000000011
11
123.189707999999996
21
-149.1321859999999901
0
LINE
8
BLACK
6
CONTINUOUS
10
123.189707999999996
20
-149.1321859999999901
11
122.9770249999999976
21
-149.0297630000000026
0
LINE
8
BLACK
6
CONTINUOUS
10
122.9770249999999976
20
-149.0297630000000026
11
122.7514529999999979
21
-148.9601830000000007
0
LINE
8
BLACK
6
CONTINUOUS
10
122.7514529999999979
20
-148.9601830000000007
11
122.518029999999996
21
-148.9249999999999829
0
LINE
8
BLACK
6
CONTINUOUS
10
122.518029999999996
20
-148.9249999999999829
11
122.3999999999999915
21
-148.9249999999999829
0
LINE
8
BLACK
6
CONTINUOUS
10
122.3999999999999915
20
-148.9249999999999829
11
120.5999999999999943
21
-148.9249999999999829
0
LINE
8
BLACK
6
CONTINUOUS
10
157.9000000000000057
20
-148.875
11
158.1421939999999893
21
-148.8931499999999915
0
LINE
8
BLACK
6
CONTINUOUS
10
158.1421939999999893
20
-148.8931499999999915
11
158.3789769999999919
21
-148.9471939999999961
0
LINE
8
BLACK
6
CONTINUOUS
10
158.3789769999999919
20
-148.9471939999999961
11
158.6050610000000063
21
-149.0359259999999892
0
LINE
8
BLACK
6
CONTINUOUS
10
158.6050610000000063
20
-149.0359259999999892
11
158.8153949999999952
21
-149.1573620000000062
0
LINE
8
BLACK
6
CONTINUOUS
10
158.8153949999999952
20
-149.1573620000000062
11
159.0052809999999965
21
-149.3087909999999852
0
LINE
8
BLACK
6
CONTINUOUS
10
159.0052809999999965
20
-149.3087909999999852
11
159.1704759999999794
21
-149.4868290000000002
0
LINE
8
BLACK
6
CONTINUOUS
10
159.1704759999999794
20
-149.4868290000000002
11
159.3072909999999922
21
-149.6875
0
LINE
8
BLACK
6
CONTINUOUS
10
159.3072909999999922
20
-149.6875
11
159.4126699999999914
21
-149.9063209999999913
0
LINE
8
BLACK
6
CONTINUOUS
10
159.4126699999999914
20
-149.9063209999999913
11
159.4842579999999828
21
-150.1384029999999825
0
LINE
8
BLACK
6
CONTINUOUS
10
159.4842579999999828
20
-150.1384029999999825
11
159.5204559999999958
21
-150.378563999999983
0
LINE
8
BLACK
6
CONTINUOUS
10
159.5204559999999958
20
-150.378563999999983
11
159.5204559999999958
21
-150.6214359999999886
0
LINE
8
BLACK
6
CONTINUOUS
10
159.5204559999999958
20
-150.6214359999999886
11
159.4842579999999828
21
-150.8615969999999891
0
LINE
8
BLACK
6
CONTINUOUS
10
159.4842579999999828
20
-150.8615969999999891
11
159.4126699999999914
21
-151.0936789999999803
0
LINE
8
BLACK
6
CONTINUOUS
10
159.4126699999999914
20
-151.0936789999999803
11
159.3072909999999922
21
-151.3125
0
LINE
8
BLACK
6
CONTINUOUS
10
159.3072909999999922
20
-151.3125
11
159.1704759999999794
21
-151.5131709999999998
0
LINE
8
BLACK
6
CONTINUOUS
10
159.1704759999999794
20
-151.5131709999999998
11
159.0052809999999965
21
-151.6912089999999864
0
LINE
8
BLACK
6
CONTINUOUS
10
159.0052809999999965
20
-151.6912089999999864
11
158.8153949999999952
21
-151.8426379999999938
0
LINE
8
BLACK
6
CONTINUOUS
10
158.8153949999999952
20
-151.8426379999999938
11
158.6050610000000063
21
-151.9640739999999823
0
LINE
8
BLACK
6
CONTINUOUS
10
158.6050610000000063
20
-151.9640739999999823
11
158.3789769999999919
21
-152.0528060000000039
0
LINE
8
BLACK
6
CONTINUOUS
10
158.3789769999999919
20
-152.0528060000000039
11
158.1421939999999893
21
-152.1068499999999801
0
LINE
8
BLACK
6
CONTINUOUS
10
158.1421939999999893
20
-152.1068499999999801
11
157.9000000000000057
21
-152.125
0
LINE
8
BLACK
6
CONTINUOUS
10
157.9000000000000057
20
-152.125
11
156.0999999999999943
21
-152.125
0
LINE
8
BLACK
6
CONTINUOUS
10
156.0999999999999943
20
-152.125
11
155.8578059999999823
21
-152.1068499999999801
0
LINE
8
BLACK
6
CONTINUOUS
10
155.8578059999999823
20
-152.1068499999999801
11
155.6210229999999797
21
-152.0528060000000039
0
LINE
8
BLACK
6
CONTINUOUS
10
155.6210229999999797
20
-152.0528060000000039
11
155.3949389999999937
21
-151.9640739999999823
0
LINE
8
BLACK
6
CONTINUOUS
10
155.3949389999999937
20
-151.9640739999999823
11
155.1846050000000048
21
-151.8426379999999938
0
LINE
8
BLACK
6
CONTINUOUS
10
155.1846050000000048
20
-151.8426379999999938
11
154.9947190000000035
21
-151.6912089999999864
0
LINE
8
BLACK
6
CONTINUOUS
10
154.9947190000000035
20
-151.6912089999999864
11
154.8295239999999922
21
-151.5131709999999998
0
LINE
8
BLACK
6
CONTINUOUS
10
154.8295239999999922
20
-151.5131709999999998
11
154.6927089999999794
21
-151.3125
0
LINE
8
BLACK
6
CONTINUOUS
10
154.6927089999999794
20
-151.3125
11
154.5873299999999801
21
-151.0936789999999803
0
LINE
8
BLACK
6
CONTINUOUS
10
154.5873299999999801
20
-151.0936789999999803
11
154.5157419999999888
21
-150.8615969999999891
0
LINE
8
BLACK
6
CONTINUOUS
10
154.5157419999999888
20
-150.8615969999999891
11
154.4795440000000042
21
-150.6214359999999886
0
LINE
8
BLACK
6
CONTINUOUS
10
154.4795440000000042
20
-150.6214359999999886
11
154.4795440000000042
21
-150.378563999999983
0
LINE
8
BLACK
6
CONTINUOUS
10
154.4795440000000042
20
-150.378563999999983
11
154.5157419999999888
21
-150.1384029999999825
0
LINE
8
BLACK
6
CONTINUOUS
10
154.5157419999999888
20
-150.1384029999999825
11
154.5873299999999801
21
-149.9063209999999913
0
LINE
8
BLACK
6
CONTINUOUS
10
154.5873299999999801
20
-149.9063209999999913
11
154.6927089999999794
21
-149.6875
0
LINE
8
BLACK
6
CONTINUOUS
10
154.6927089999999794
20
-149.6875
11
154.8295239999999922
21
-149.4868290000000002
0
LINE
8
BLACK
6
CONTINUOUS
10
154.8295239999999922
20
-149.4868290000000002
11
154.9947190000000035
21
-149.3087909999999852
0
LINE
8
BLACK
6
CONTINUOUS
10
154.9947190000000035
20
-149.3087909999999852
11
155.1846050000000048
21
-149.1573620000000062
0
LINE
8
BLACK
6
CONTINUOUS
10
155.1846050000000048
20
-149.1573620000000062
11
155.3949389999999937
21
-149.0359259999999892
0
LINE
8
BLACK
6
CONTINUOUS
10
155.3949389999999937
20
-149.0359259999999892
11
155.6210229999999797
21
-148.9471939999999961
0
LINE
8
BLACK
6
CONTINUOUS
10
155.6210229999999797
20
-148.9471939999999961
11
155.8578059999999823
21
-148.8931499999999915
0
LINE
8
BLACK
6
CONTINUOUS
10
155.8578059999999823
20
-148.8931499999999915
11
156.0999999999999943
21
-148.875
0
LINE
8
BLACK
6
CONTINUOUS
10
156.0999999999999943
20
-148.875
11
157.9000000000000057
21
-148.875
0
LINE
8
BLACK
6
CONTINUOUS
10
156.0999999999999943
20
-148.9249999999999829
11
155.9819699999999898
21
-148.9249999999999829
0
LINE
8
BLACK
6
CONTINUOUS
10
155.9819699999999898
20
-148.9249999999999829
11
155.7485470000000021
21
-148.9601830000000007
0
LINE
8
BLACK
6
CONTINUOUS
10
155.7485470000000021
20
-148.9601830000000007
11
155.5229750000000024
21
-149.0297630000000026
0
LINE
8
BLACK
6
CONTINUOUS
10
155.5229750000000024
20
-149.0297630000000026
11
155.310292000000004
21
-149.1321859999999901
0
LINE
8
BLACK
6
CONTINUOUS
10
155.310292000000004
20
-149.1321859999999901
11
155.1152500000000032
21
-149.2651630000000011
0
LINE
8
BLACK
6
CONTINUOUS
10
155.1152500000000032
20
-149.2651630000000011
11
154.9422059999999988
21
-149.4257240000000024
0
LINE
8
BLACK
6
CONTINUOUS
10
154.9422059999999988
20
-149.4257240000000024
11
154.7950249999999812
21
-149.6102829999999813
0
LINE
8
BLACK
6
CONTINUOUS
10
154.7950249999999812
20
-149.6102829999999813
11
154.6769950000000051
21
-149.8147170000000017
0
LINE
8
BLACK
6
CONTINUOUS
10
154.6769950000000051
20
-149.8147170000000017
11
154.5907530000000065
21
-150.0344589999999982
0
LINE
8
BLACK
6
CONTINUOUS
10
154.5907530000000065
20
-150.0344589999999982
11
154.5382249999999829
21
-150.2646000000000015
0
LINE
8
BLACK
6
CONTINUOUS
10
154.5382249999999829
20
-150.2646000000000015
11
154.5205839999999853
21
-150.5
0
LINE
8
BLACK
6
CONTINUOUS
10
154.5205839999999853
20
-150.5
11
154.5382249999999829
21
-150.7353999999999985
0
LINE
8
BLACK
6
CONTINUOUS
10
154.5382249999999829
20
-150.7353999999999985
11
154.5907530000000065
21
-150.9655410000000018
0
LINE
8
BLACK
6
CONTINUOUS
10
154.5907530000000065
20
-150.9655410000000018
11
154.6769950000000051
21
-151.1852829999999983
0
LINE
8
BLACK
6
CONTINUOUS
10
154.6769950000000051
20
-151.1852829999999983
11
154.7950249999999812
21
-151.3897169999999903
0
LINE
8
BLACK
6
CONTINUOUS
10
154.7950249999999812
20
-151.3897169999999903
11
154.9422059999999988
21
-151.5742759999999976
0
LINE
8
BLACK
6
CONTINUOUS
10
154.9422059999999988
20
-151.5742759999999976
11
155.1152500000000032
21
-151.7348369999999989
0
LINE
8
BLACK
6
CONTINUOUS
10
155.1152500000000032
20
-151.7348369999999989
11
155.310292000000004
21
-151.8678139999999814
0
LINE
8
BLACK
6
CONTINUOUS
10
155.310292000000004
20
-151.8678139999999814
11
155.5229750000000024
21
-151.9702369999999974
0
LINE
8
BLACK
6
CONTINUOUS
10
155.5229750000000024
20
-151.9702369999999974
11
155.7485470000000021
21
-152.0398169999999993
0
LINE
8
BLACK
6
CONTINUOUS
10
155.7485470000000021
20
-152.0398169999999993
11
155.9819699999999898
21
-152.0749999999999886
0
LINE
8
BLACK
6
CONTINUOUS
10
155.9819699999999898
20
-152.0749999999999886
11
156.0999999999999943
21
-152.0749999999999886
0
LINE
8
BLACK
6
CONTINUOUS
10
156.0999999999999943
20
-152.0749999999999886
11
157.9000000000000057
21
-152.0749999999999886
0
LINE
8
BLACK
6
CONTINUOUS
10
157.9000000000000057
20
-152.0749999999999886
11
158.0180299999999818
21
-152.0749999999999886
0
LINE
8
BLACK
6
CONTINUOUS
10
158.0180299999999818
20
-152.0749999999999886
11
158.2514529999999979
21
-152.0398169999999993
0
LINE
8
BLACK
6
CONTINUOUS
10
158.2514529999999979
20
-152.0398169999999993
11
158.4770249999999976
21
-151.9702369999999974
0
LINE
8
BLACK
6
CONTINUOUS
10
158.4770249999999976
20
-151.9702369999999974
11
158.689707999999996
21
-151.8678139999999814
0
LINE
8
BLACK
6
CONTINUOUS
10
158.689707999999996
20
-151.8678139999999814
11
158.8847499999999968
21
-151.7348369999999989
0
LINE
8
BLACK
6
CONTINUOUS
10
158.8847499999999968
20
-151.7348369999999989
11
159.0577940000000012
21
-151.5742759999999976
0
LINE
8
BLACK
6
CONTINUOUS
10
159.0577940000000012
20
-151.5742759999999976
11
159.2049749999999904
21
-151.3897169999999903
0
LINE
8
BLACK
6
CONTINUOUS
10
159.2049749999999904
20
-151.3897169999999903
11
159.3230049999999949
21
-151.1852829999999983
0
LINE
8
BLACK
6
CONTINUOUS
10
159.3230049999999949
20
-151.1852829999999983
11
159.4092469999999935
21
-150.9655410000000018
0
LINE
8
BLACK
6
CONTINUOUS
10
159.4092469999999935
20
-150.9655410000000018
11
159.4617749999999887
21
-150.7353999999999985
0
LINE
8
BLACK
6
CONTINUOUS
10
159.4617749999999887
20
-150.7353999999999985
11
159.4794159999999863
21
-150.5
0
LINE
8
BLACK
6
CONTINUOUS
10
159.4794159999999863
20
-150.5
11
159.4617749999999887
21
-150.2646000000000015
0
LINE
8
BLACK
6
CONTINUOUS
10
159.4617749999999887
20
-150.2646000000000015
11
159.4092469999999935
21
-150.0344589999999982
0
LINE
8
BLACK
6
CONTINUOUS
10
159.4092469999999935
20
-150.0344589999999982
11
159.3230049999999949
21
-149.8147170000000017
0
LINE
8
BLACK
6
CONTINUOUS
10
159.3230049999999949
20
-149.8147170000000017
11
159.2049749999999904
21
-149.6102829999999813
0
LINE
8
BLACK
6
CONTINUOUS
10
159.2049749999999904
20
-149.6102829999999813
11
159.0577940000000012
21
-149.4257240000000024
0
LINE
8
BLACK
6
CONTINUOUS
10
159.0577940000000012
20
-149.4257240000000024
11
158.8847499999999968
21
-149.2651630000000011
0
LINE
8
BLACK
6
CONTINUOUS
10
158.8847499999999968
20
-149.2651630000000011
11
158.689707999999996
21
-149.1321859999999901
0
LINE
8
BLACK
6
CONTINUOUS
10
158.689707999999996
20
-149.1321859999999901
11
158.4770249999999976
21
-149.0297630000000026
0
LINE
8
BLACK
6
CONTINUOUS
10
158.4770249999999976
20
-149.0297630000000026
11
158.2514529999999979
21
-148.9601830000000007
0
LINE
8
BLACK
6
CONTINUOUS
10
158.2514529999999979
20
-148.9601830000000007
11
158.0180299999999818
21
-148.9249999999999829
0
LINE
8
BLACK
6
CONTINUOUS
10
158.0180299999999818
20
-148.9249999999999829
11
157.9000000000000057
21
-148.9249999999999829
0
LINE
8
BLACK
6
CONTINUOUS
10
157.9000000000000057
20
-148.9249999999999829
11
156.0999999999999943
21
-148.9249999999999829
0
LINE
8
BLACK
6
CONTINUOUS
10
154.0640679999999918
20
-130.5679549999999836
11
154.4336810000000071
21
-130.6439129999999977
0
LINE
8
BLACK
6
CONTINUOUS
10
154.4336810000000071
20
-130.6439129999999977
11
154.7937119999999993
21
-130.7568729999999846
0
LINE
8
BLACK
6
CONTINUOUS
10
154.7937119999999993
20
-130.7568729999999846
11
155.1404679999999985
21
-130.9056779999999947
0
LINE
8
BLACK
6
CONTINUOUS
10
155.1404679999999985
20
-130.9056779999999947
11
155.4703910000000064
21
-131.088799999999992
0
LINE
8
BLACK
6
CONTINUOUS
10
155.4703910000000064
20
-131.088799999999992
11
155.7800949999999887
21
-131.3043600000000026
0
LINE
8
BLACK
6
CONTINUOUS
10
155.7800949999999887
20
-131.3043600000000026
11
156.0664019999999823
21
-131.5501469999999813
0
LINE
8
BLACK
6
CONTINUOUS
10
156.0664019999999823
20
-131.5501469999999813
11
156.3263739999999871
21
-131.8236379999999883
0
LINE
8
BLACK
6
CONTINUOUS
10
156.3263739999999871
20
-131.8236379999999883
11
156.5573440000000005
21
-132.1220260000000053
0
LINE
8
BLACK
6
CONTINUOUS
10
156.5573440000000005
20
-132.1220260000000053
11
156.7569409999999834
21
-132.4422500000000014
0
LINE
8
BLACK
6
CONTINUOUS
10
156.7569409999999834
20
-132.4422500000000014
11
156.9231179999999881
21
-132.7810240000000022
0
LINE
8
BLACK
6
CONTINUOUS
10
156.9231179999999881
20
-132.7810240000000022
11
157.0541690000000017
21
-133.1348720000000014
0
LINE
8
BLACK
6
CONTINUOUS
10
157.0541690000000017
20
-133.1348720000000014
11
157.1487489999999809
21
-133.5001629999999864
0
LINE
8
BLACK
6
CONTINUOUS
10
157.1487489999999809
20
-133.5001629999999864
11
157.2058879999999874
21
-133.8731479999999863
0
LINE
8
BLACK
6
CONTINUOUS
10
157.2058879999999874
20
-133.8731479999999863
11
157.2249999999999943
21
-134.25
0
LINE
8
BLACK
6
CONTINUOUS
10
157.2249999999999943
20
-134.25
11
157.2058879999999874
21
-134.6268519999999853
0
LINE
8
BLACK
6
CONTINUOUS
10
157.2058879999999874
20
-134.6268519999999853
11
157.1487489999999809
21
-134.9998369999999852
0
LINE
8
BLACK
6
CONTINUOUS
10
157.1487489999999809
20
-134.9998369999999852
11
157.0541690000000017
21
-135.3651279999999986
0
LINE
8
BLACK
6
CONTINUOUS
10
157.0541690000000017
20
-135.3651279999999986
11
156.9231179999999881
21
-135.7189759999999978
0
LINE
8
BLACK
6
CONTINUOUS
10
156.9231179999999881
20
-135.7189759999999978
11
156.7569409999999834
21
-136.0577499999999986
0
LINE
8
BLACK
6
CONTINUOUS
10
156.7569409999999834
20
-136.0577499999999986
11
156.5573440000000005
21
-136.3779739999999947
0
LINE
8
BLACK
6
CONTINUOUS
10
156.5573440000000005
20
-136.3779739999999947
11
156.3263739999999871
21
-136.6763619999999833
0
LINE
8
BLACK
6
CONTINUOUS
10
156.3263739999999871
20
-136.6763619999999833
11
156.0664019999999823
21
-136.9498529999999903
0
LINE
8
BLACK
6
CONTINUOUS
10
156.0664019999999823
20
-136.9498529999999903
11
155.7800949999999887
21
-137.1956399999999974
0
LINE
8
BLACK
6
CONTINUOUS
10
155.7800949999999887
20
-137.1956399999999974
11
155.4703910000000064
21
-137.4111999999999796
0
LINE
8
BLACK
6
CONTINUOUS
10
155.4703910000000064
20
-137.4111999999999796
11
155.1404679999999985
21
-137.5943220000000053
0
LINE
8
BLACK
6
CONTINUOUS
10
155.1404679999999985
20
-137.5943220000000053
11
154.7937119999999993
21
-137.743126999999987
0
LINE
8
BLACK
6
CONTINUOUS
10
154.7937119999999993
20
-137.743126999999987
11
154.4336810000000071
21
-137.8560870000000023
0
LINE
8
BLACK
6
CONTINUOUS
10
154.4336810000000071
20
-137.8560870000000023
11
154.0640679999999918
21
-137.932044999999988
0
LINE
8
BLACK
6
CONTINUOUS
10
154.0640679999999918
20
-137.932044999999988
11
153.6886680000000069
21
-137.970218999999986
0
LINE
8
BLACK
6
CONTINUOUS
10
153.6886680000000069
20
-137.970218999999986
11
153.3113319999999931
21
-137.970218999999986
0
LINE
8
BLACK
6
CONTINUOUS
10
153.3113319999999931
20
-137.970218999999986
11
152.9359319999999798
21
-137.932044999999988
0
LINE
8
BLACK
6
CONTINUOUS
10
152.9359319999999798
20
-137.932044999999988
11
152.5663189999999929
21
-137.8560870000000023
0
LINE
8
BLACK
6
CONTINUOUS
10
152.5663189999999929
20
-137.8560870000000023
11
152.2062880000000007
21
-137.743126999999987
0
LINE
8
BLACK
6
CONTINUOUS
10
152.2062880000000007
20
-137.743126999999987
11
151.8595320000000015
21
-137.5943220000000053
0
LINE
8
BLACK
6
CONTINUOUS
10
151.8595320000000015
20
-137.5943220000000053
11
151.5296089999999936
21
-137.4111999999999796
0
LINE
8
BLACK
6
CONTINUOUS
10
151.5296089999999936
20
-137.4111999999999796
11
151.2199049999999829
21
-137.1956399999999974
0
LINE
8
BLACK
6
CONTINUOUS
10
151.2199049999999829
20
-137.1956399999999974
11
150.9335979999999893
21
-136.9498529999999903
0
LINE
8
BLACK
6
CONTINUOUS
10
150.9335979999999893
20
-136.9498529999999903
11
150.6736259999999845
21
-136.6763619999999833
0
LINE
8
BLACK
6
CONTINUOUS
10
150.6736259999999845
20
-136.6763619999999833
11
150.4426559999999995
21
-136.3779739999999947
0
LINE
8
BLACK
6
CONTINUOUS
10
150.4426559999999995
20
-136.3779739999999947
11
150.2430589999999881
21
-136.0577499999999986
0
LINE
8
BLACK
6
CONTINUOUS
10
150.2430589999999881
20
-136.0577499999999986
11
150.0768819999999835
21
-135.7189759999999978
0
LINE
8
BLACK
6
CONTINUOUS
10
150.0768819999999835
20
-135.7189759999999978
11
149.9458309999999983
21
-135.3651279999999986
0
LINE
8
BLACK
6
CONTINUOUS
10
149.9458309999999983
20
-135.3651279999999986
11
149.8512509999999907
21
-134.9998369999999852
0
LINE
8
BLACK
6
CONTINUOUS
10
149.8512509999999907
20
-134.9998369999999852
11
149.7941119999999842
21
-134.6268519999999853
0
LINE
8
BLACK
6
CONTINUOUS
10
149.7941119999999842
20
-134.6268519999999853
11
149.7750000000000057
21
-134.25
0
LINE
8
BLACK
6
CONTINUOUS
10
149.7750000000000057
20
-134.25
11
149.7941119999999842
21
-133.8731479999999863
0
LINE
8
BLACK
6
CONTINUOUS
10
149.7941119999999842
20
-133.8731479999999863
11
149.8512509999999907
21
-133.5001629999999864
0
LINE
8
BLACK
6
CONTINUOUS
10
149.8512509999999907
20
-133.5001629999999864
11
149.9458309999999983
21
-133.1348720000000014
0
LINE
8
BLACK
6
CONTINUOUS
10
149.9458309999999983
20
-133.1348720000000014
11
150.0768819999999835
21
-132.7810240000000022
0
LINE
8
BLACK
6
CONTINUOUS
10
150.0768819999999835
20
-132.7810240000000022
11
150.2430589999999881
21
-132.4422500000000014
0
LINE
8
BLACK
6
CONTINUOUS
10
150.2430589999999881
20
-132.4422500000000014
11
150.4426559999999995
21
-132.1220260000000053
0
LINE
8
BLACK
6
CONTINUOUS
10
150.4426559999999995
20
-132.1220260000000053
11
150.6736259999999845
21
-131.8236379999999883
0
LINE
8
BLACK
6
CONTINUOUS
10
150.6736259999999845
20
-131.8236379999999883
11
150.9335979999999893
21
-131.5501469999999813
0
LINE
8
BLACK
6
CONTINUOUS
10
150.9335979999999893
20
-131.5501469999999813
11
151.2199049999999829
21
-131.3043600000000026
0
LINE
8
BLACK
6
CONTINUOUS
10
151.2199049999999829
20
-131.3043600000000026
11
151.5296089999999936
21
-131.088799999999992
0
LINE
8
BLACK
6
CONTINUOUS
10
151.5296089999999936
20
-131.088799999999992
11
151.8595320000000015
21
-130.9056779999999947
0
LINE
8
BLACK
6
CONTINUOUS
10
151.8595320000000015
20
-130.9056779999999947
11
152.2062880000000007
21
-130.7568729999999846
0
LINE
8
BLACK
6
CONTINUOUS
10
152.2062880000000007
20
-130.7568729999999846
11
152.5663189999999929
21
-130.6439129999999977
0
LINE
8
BLACK
6
CONTINUOUS
10
152.5663189999999929
20
-130.6439129999999977
11
152.9359319999999798
21
-130.5679549999999836
0
LINE
8
BLACK
6
CONTINUOUS
10
152.9359319999999798
20
-130.5679549999999836
11
153.3113319999999931
21
-130.5297809999999856
0
LINE
8
BLACK
6
CONTINUOUS
10
153.3113319999999931
20
-130.5297809999999856
11
153.6886680000000069
21
-130.5297809999999856
0
LINE
8
BLACK
6
CONTINUOUS
10
153.6886680000000069
20
-130.5297809999999856
11
154.0640679999999918
21
-130.5679549999999836
0
LINE
8
BLACK
6
CONTINUOUS
10
149.8401169999999922
20
-134.6346690000000024
11
149.9003749999999968
21
-135.0151239999999859
0
LINE
8
BLACK
6
CONTINUOUS
10
149.9003749999999968
20
-135.0151239999999859
11
150.0000709999999913
21
-135.3871959999999888
0
LINE
8
BLACK
6
CONTINUOUS
10
150.0000709999999913
20
-135.3871959999999888
11
150.1381130000000041
21
-135.7468079999999873
0
LINE
8
BLACK
6
CONTINUOUS
10
150.1381130000000041
20
-135.7468079999999873
11
150.3129889999999875
21
-136.0900220000000047
0
LINE
8
BLACK
6
CONTINUOUS
10
150.3129889999999875
20
-136.0900220000000047
11
150.522783000000004
21
-136.4130749999999921
0
LINE
8
BLACK
6
CONTINUOUS
10
150.522783000000004
20
-136.4130749999999921
11
150.7651950000000056
21
-136.712428999999986
0
LINE
8
BLACK
6
CONTINUOUS
10
150.7651950000000056
20
-136.712428999999986
11
151.0375709999999856
21
-136.9848049999999944
0
LINE
8
BLACK
6
CONTINUOUS
10
151.0375709999999856
20
-136.9848049999999944
11
151.3369249999999795
21
-137.227216999999996
0
LINE
8
BLACK
6
CONTINUOUS
10
151.3369249999999795
20
-137.227216999999996
11
151.6599779999999953
21
-137.4370109999999841
0
LINE
8
BLACK
6
CONTINUOUS
10
151.6599779999999953
20
-137.4370109999999841
11
152.0031919999999843
21
-137.6118869999999959
0
LINE
8
BLACK
6
CONTINUOUS
10
152.0031919999999843
20
-137.6118869999999959
11
152.3628039999999828
21
-137.7499289999999803
0
LINE
8
BLACK
6
CONTINUOUS
10
152.3628039999999828
20
-137.7499289999999803
11
152.7348759999999857
21
-137.8496250000000032
0
LINE
8
BLACK
6
CONTINUOUS
10
152.7348759999999857
20
-137.8496250000000032
11
153.1153309999999976
21
-137.9098830000000078
0
LINE
8
BLACK
6
CONTINUOUS
10
153.1153309999999976
20
-137.9098830000000078
11
153.5
21
-137.9300429999999835
0
LINE
8
BLACK
6
CONTINUOUS
10
153.5
20
-137.9300429999999835
11
153.8846690000000024
21
-137.9098830000000078
0
LINE
8
BLACK
6
CONTINUOUS
10
153.8846690000000024
20
-137.9098830000000078
11
154.2651239999999859
21
-137.8496250000000032
0
LINE
8
BLACK
6
CONTINUOUS
10
154.2651239999999859
20
-137.8496250000000032
11
154.6371959999999888
21
-137.7499289999999803
0
LINE
8
BLACK
6
CONTINUOUS
10
154.6371959999999888
20
-137.7499289999999803
11
154.9968079999999873
21
-137.6118869999999959
0
LINE
8
BLACK
6
CONTINUOUS
10
154.9968079999999873
20
-137.6118869999999959
11
155.3400220000000047
21
-137.4370109999999841
0
LINE
8
BLACK
6
CONTINUOUS
10
155.3400220000000047
20
-137.4370109999999841
11
155.6630749999999921
21
-137.227216999999996
0
LINE
8
BLACK
6
CONTINUOUS
10
155.6630749999999921
20
-137.227216999999996
11
155.962428999999986
21
-136.9848049999999944
0
LINE
8
BLACK
6
CONTINUOUS
10
155.962428999999986
20
-136.9848049999999944
11
156.2348049999999944
21
-136.712428999999986
0
LINE
8
BLACK
6
CONTINUOUS
10
156.2348049999999944
20
-136.712428999999986
11
156.477216999999996
21
-136.4130749999999921
0
LINE
8
BLACK
6
CONTINUOUS
10
156.477216999999996
20
-136.4130749999999921
11
156.6870109999999841
21
-136.0900220000000047
0
LINE
8
BLACK
6
CONTINUOUS
10
156.6870109999999841
20
-136.0900220000000047
11
156.8618869999999959
21
-135.7468079999999873
0
LINE
8
BLACK
6
CONTINUOUS
10
156.8618869999999959
20
-135.7468079999999873
11
156.9999289999999803
21
-135.3871959999999888
0
LINE
8
BLACK
6
CONTINUOUS
10
156.9999289999999803
20
-135.3871959999999888
11
157.0996250000000032
21
-135.0151239999999859
0
LINE
8
BLACK
6
CONTINUOUS
10
157.0996250000000032
20
-135.0151239999999859
11
157.1598829999999793
21
-134.6346690000000024
0
LINE
8
BLACK
6
CONTINUOUS
10
157.1598829999999793
20
-134.6346690000000024
11
157.1800429999999835
21
-134.25
0
LINE
8
BLACK
6
CONTINUOUS
10
157.1800429999999835
20
-134.25
11
157.1598829999999793
21
-133.8653309999999976
0
LINE
8
BLACK
6
CONTINUOUS
10
157.1598829999999793
20
-133.8653309999999976
11
157.0996250000000032
21
-133.4848759999999857
0
LINE
8
BLACK
6
CONTINUOUS
10
157.0996250000000032
20
-133.4848759999999857
11
156.9999289999999803
21
-133.1128039999999828
0
LINE
8
BLACK
6
CONTINUOUS
10
156.9999289999999803
20
-133.1128039999999828
11
156.8618869999999959
21
-132.7531919999999843
0
LINE
8
BLACK
6
CONTINUOUS
10
156.8618869999999959
20
-132.7531919999999843
11
156.6870109999999841
21
-132.4099789999999928
0
LINE
8
BLACK
6
CONTINUOUS
10
156.6870109999999841
20
-132.4099789999999928
11
156.477216999999996
21
-132.0869250000000079
0
LINE
8
BLACK
6
CONTINUOUS
10
156.477216999999996
20
-132.0869250000000079
11
156.2348049999999944
21
-131.7875709999999856
0
LINE
8
BLACK
6
CONTINUOUS
10
156.2348049999999944
20
-131.7875709999999856
11
155.962428999999986
21
-131.5151950000000056
0
LINE
8
BLACK
6
CONTINUOUS
10
155.962428999999986
20
-131.5151950000000056
11
155.6630749999999921
21
-131.272783000000004
0
LINE
8
BLACK
6
CONTINUOUS
10
155.6630749999999921
20
-131.272783000000004
11
155.3400220000000047
21
-131.0629889999999875
0
LINE
8
BLACK
6
CONTINUOUS
10
155.3400220000000047
20
-131.0629889999999875
11
154.9968079999999873
21
-130.8881130000000041
0
LINE
8
BLACK
6
CONTINUOUS
10
154.9968079999999873
20
-130.8881130000000041
11
154.6371959999999888
21
-130.7500709999999913
0
LINE
8
BLACK
6
CONTINUOUS
10
154.6371959999999888
20
-130.7500709999999913
11
154.2651239999999859
21
-130.6503749999999968
0
LINE
8
BLACK
6
CONTINUOUS
10
154.2651239999999859
20
-130.6503749999999968
11
153.8846690000000024
21
-130.5901169999999922
0
LINE
8
BLACK
6
CONTINUOUS
10
153.8846690000000024
20
-130.5901169999999922
11
153.5
21
-130.5699569999999881
0
LINE
8
BLACK
6
CONTINUOUS
10
153.5
20
-130.5699569999999881
11
153.1153309999999976
21
-130.5901169999999922
0
LINE
8
BLACK
6
CONTINUOUS
10
153.1153309999999976
20
-130.5901169999999922
11
152.7348759999999857
21
-130.6503749999999968
0
LINE
8
BLACK
6
CONTINUOUS
10
152.7348759999999857
20
-130.6503749999999968
11
152.3628039999999828
21
-130.7500709999999913
0
LINE
8
BLACK
6
CONTINUOUS
10
152.3628039999999828
20
-130.7500709999999913
11
152.0031919999999843
21
-130.8881130000000041
0
LINE
8
BLACK
6
CONTINUOUS
10
152.0031919999999843
20
-130.8881130000000041
11
151.6599789999999928
21
-131.0629889999999875
0
LINE
8
BLACK
6
CONTINUOUS
10
151.6599789999999928
20
-131.0629889999999875
11
151.3369249999999795
21
-131.272783000000004
0
LINE
8
BLACK
6
CONTINUOUS
10
151.3369249999999795
20
-131.272783000000004
11
151.0375709999999856
21
-131.5151950000000056
0
LINE
8
BLACK
6
CONTINUOUS
10
151.0375709999999856
20
-131.5151950000000056
11
150.7651950000000056
21
-131.7875709999999856
0
LINE
8
BLACK
6
CONTINUOUS
10
150.7651950000000056
20
-131.7875709999999856
11
150.522783000000004
21
-132.0869250000000079
0
LINE
8
BLACK
6
CONTINUOUS
10
150.522783000000004
20
-132.0869250000000079
11
150.3129889999999875
21
-132.4099789999999928
0
LINE
8
BLACK
6
CONTINUOUS
10
150.3129889999999875
20
-132.4099789999999928
11
150.1381130000000041
21
-132.7531919999999843
0
LINE
8
BLACK
6
CONTINUOUS
10
150.1381130000000041
20
-132.7531919999999843
11
150.0000709999999913
21
-133.1128039999999828
0
LINE
8
BLACK
6
CONTINUOUS
10
150.0000709999999913
20
-133.1128039999999828
11
149.9003749999999968
21
-133.4848759999999857
0
LINE
8
BLACK
6
CONTINUOUS
10
149.9003749999999968
20
-133.4848759999999857
11
149.8401169999999922
21
-133.8653309999999976
0
LINE
8
BLACK
6
CONTINUOUS
10
149.8401169999999922
20
-133.8653309999999976
11
149.8199569999999881
21
-134.25
0
LINE
8
BLACK
6
CONTINUOUS
10
149.8199569999999881
20
-134.25
11
149.8401169999999922
21
-134.6346690000000024
0
LINE
8
BLACK
6
CONTINUOUS
10
125.3498889999999903
20
-131.1446489999999869
11
125.6953779999999909
21
-131.2033500000000004
0
LINE
8
BLACK
6
CONTINUOUS
10
125.6953779999999909
20
-131.2033500000000004
11
126.0321220000000011
21
-131.3003649999999993
0
LINE
8
BLACK
6
CONTINUOUS
10
126.0321220000000011
20
-131.3003649999999993
11
126.3558869999999956
21
-131.4344719999999995
0
LINE
8
BLACK
6
CONTINUOUS
10
126.3558869999999956
20
-131.4344719999999995
11
126.6625999999999976
21
-131.6039869999999894
0
LINE
8
BLACK
6
CONTINUOUS
10
126.6625999999999976
20
-131.6039869999999894
11
126.9484059999999914
21
-131.8067769999999825
0
LINE
8
BLACK
6
CONTINUOUS
10
126.9484059999999914
20
-131.8067769999999825
11
127.2097089999999895
21
-132.0402909999999963
0
LINE
8
BLACK
6
CONTINUOUS
10
127.2097089999999895
20
-132.0402909999999963
11
127.443222999999989
21
-132.3015939999999944
0
LINE
8
BLACK
6
CONTINUOUS
10
127.443222999999989
20
-132.3015939999999944
11
127.6460129999999964
21
-132.5874000000000024
0
LINE
8
BLACK
6
CONTINUOUS
10
127.6460129999999964
20
-132.5874000000000024
11
127.8155280000000005
21
-132.8941130000000044
0
LINE
8
BLACK
6
CONTINUOUS
10
127.8155280000000005
20
-132.8941130000000044
11
127.9496350000000007
21
-133.2178779999999847
0
LINE
8
BLACK
6
CONTINUOUS
10
127.9496350000000007
20
-133.2178779999999847
11
128.0466499999999996
21
-133.5546219999999948
0
LINE
8
BLACK
6
CONTINUOUS
10
128.0466499999999996
20
-133.5546219999999948
11
128.1053509999999847
21
-133.9001109999999812
0
LINE
8
BLACK
6
CONTINUOUS
10
128.1053509999999847
20
-133.9001109999999812
11
128.125
21
-134.25
0
LINE
8
BLACK
6
CONTINUOUS
10
128.125
20
-134.25
11
128.1053509999999847
21
-134.5998889999999903
0
LINE
8
BLACK
6
CONTINUOUS
10
128.1053509999999847
20
-134.5998889999999903
11
128.0466499999999996
21
-134.9453780000000052
0
LINE
8
BLACK
6
CONTINUOUS
10
128.0466499999999996
20
-134.9453780000000052
11
127.9496350000000007
21
-135.2821219999999869
0
LINE
8
BLACK
6
CONTINUOUS
10
127.9496350000000007
20
-135.2821219999999869
11
127.8155280000000005
21
-135.6058869999999956
0
LINE
8
BLACK
6
CONTINUOUS
10
127.8155280000000005
20
-135.6058869999999956
11
127.6460129999999964
21
-135.9125999999999976
0
LINE
8
BLACK
6
CONTINUOUS
10
127.6460129999999964
20
-135.9125999999999976
11
127.443222999999989
21
-136.1984060000000056
0
LINE
8
BLACK
6
CONTINUOUS
10
127.443222999999989
20
-136.1984060000000056
11
127.2097089999999895
21
-136.4597090000000037
0
LINE
8
BLACK
6
CONTINUOUS
10
127.2097089999999895
20
-136.4597090000000037
11
126.9484059999999914
21
-136.693222999999989
0
LINE
8
BLACK
6
CONTINUOUS
10
126.9484059999999914
20
-136.693222999999989
11
126.6625999999999976
21
-136.8960129999999822
0
LINE
8
BLACK
6
CONTINUOUS
10
126.6625999999999976
20
-136.8960129999999822
11
126.3558869999999956
21
-137.0655280000000005
0
LINE
8
BLACK
6
CONTINUOUS
10
126.3558869999999956
20
-137.0655280000000005
11
126.0321220000000011
21
-137.1996350000000007
0
LINE
8
BLACK
6
CONTINUOUS
10
126.0321220000000011
20
-137.1996350000000007
11
125.6953779999999909
21
-137.2966499999999996
0
LINE
8
BLACK
6
CONTINUOUS
10
125.6953779999999909
20
-137.2966499999999996
11
125.3498889999999903
21
-137.3553509999999847
0
LINE
8
BLACK
6
CONTINUOUS
10
125.3498889999999903
20
-137.3553509999999847
11
125.
21
-137.375
0
LINE
8
BLACK
6
CONTINUOUS
10
125.
20
-137.375
11
124.6501109999999954
21
-137.3553509999999847
0
LINE
8
BLACK
6
CONTINUOUS
10
124.6501109999999954
20
-137.3553509999999847
11
124.3046219999999948
21
-137.2966499999999996
0
LINE
8
BLACK
6
CONTINUOUS
10
124.3046219999999948
20
-137.2966499999999996
11
123.9678779999999989
21
-137.1996350000000007
0
LINE
8
BLACK
6
CONTINUOUS
10
123.9678779999999989
20
-137.1996350000000007
11
123.6441129999999902
21
-137.0655280000000005
0
LINE
8
BLACK
6
CONTINUOUS
10
123.6441129999999902
20
-137.0655280000000005
11
123.3373999999999882
21
-136.8960129999999822
0
LINE
8
BLACK
6
CONTINUOUS
10
123.3373999999999882
20
-136.8960129999999822
11
123.0515939999999944
21
-136.693222999999989
0
LINE
8
BLACK
6
CONTINUOUS
10
123.0515939999999944
20
-136.693222999999989
11
122.7902909999999963
21
-136.4597090000000037
0
LINE
8
BLACK
6
CONTINUOUS
10
122.7902909999999963
20
-136.4597090000000037
11
122.5567769999999967
21
-136.1984060000000056
0
LINE
8
BLACK
6
CONTINUOUS
10
122.5567769999999967
20
-136.1984060000000056
11
122.3539869999999894
21
-135.9125999999999976
0
LINE
8
BLACK
6
CONTINUOUS
10
122.3539869999999894
20
-135.9125999999999976
11
122.1844719999999995
21
-135.6058869999999956
0
LINE
8
BLACK
6
CONTINUOUS
10
122.1844719999999995
20
-135.6058869999999956
11
122.0503649999999993
21
-135.2821219999999869
0
LINE
8
BLACK
6
CONTINUOUS
10
122.0503649999999993
20
-135.2821219999999869
11
121.9533500000000004
21
-134.9453780000000052
0
LINE
8
BLACK
6
CONTINUOUS
10
121.9533500000000004
20
-134.9453780000000052
11
121.8946490000000011
21
-134.5998889999999903
0
LINE
8
BLACK
6
CONTINUOUS
10
121.8946490000000011
20
-134.5998889999999903
11
121.875
21
-134.25
0
LINE
8
BLACK
6
CONTINUOUS
10
121.875
20
-134.25
11
121.8946490000000011
21
-133.9001109999999812
0
LINE
8
BLACK
6
CONTINUOUS
10
121.8946490000000011
20
-133.9001109999999812
11
121.9533500000000004
21
-133.5546219999999948
0
LINE
8
BLACK
6
CONTINUOUS
10
121.9533500000000004
20
-133.5546219999999948
11
122.0503649999999993
21
-133.2178779999999847
0
LINE
8
BLACK
6
CONTINUOUS
10
122.0503649999999993
20
-133.2178779999999847
11
122.1844719999999995
21
-132.8941130000000044
0
LINE
8
BLACK
6
CONTINUOUS
10
122.1844719999999995
20
-132.8941130000000044
11
122.3539869999999894
21
-132.5874000000000024
0
LINE
8
BLACK
6
CONTINUOUS
10
122.3539869999999894
20
-132.5874000000000024
11
122.5567769999999967
21
-132.3015939999999944
0
LINE
8
BLACK
6
CONTINUOUS
10
122.5567769999999967
20
-132.3015939999999944
11
122.7902909999999963
21
-132.0402909999999963
0
LINE
8
BLACK
6
CONTINUOUS
10
122.7902909999999963
20
-132.0402909999999963
11
123.0515939999999944
21
-131.8067769999999825
0
LINE
8
BLACK
6
CONTINUOUS
10
123.0515939999999944
20
-131.8067769999999825
11
123.3373999999999882
21
-131.6039869999999894
0
LINE
8
BLACK
6
CONTINUOUS
10
123.3373999999999882
20
-131.6039869999999894
11
123.6441129999999902
21
-131.4344719999999995
0
LINE
8
BLACK
6
CONTINUOUS
10
123.6441129999999902
20
-131.4344719999999995
11
123.9678779999999989
21
-131.3003649999999993
0
LINE
8
BLACK
6
CONTINUOUS
10
123.9678779999999989
20
-131.3003649999999993
11
124.3046219999999948
21
-131.2033500000000004
0
LINE
8
BLACK
6
CONTINUOUS
10
124.3046219999999948
20
-131.2033500000000004
11
124.6501109999999954
21
-131.1446489999999869
0
LINE
8
BLACK
6
CONTINUOUS
10
124.6501109999999954
20
-131.1446489999999869
11
125.
21
-131.125
0
LINE
8
BLACK
6
CONTINUOUS
10
125.
20
-131.125
11
125.3498889999999903
21
-131.1446489999999869
0
LINE
8
BLACK
6
CONTINUOUS
10
121.9395199999999875
20
-134.5948329999999942
11
121.9973729999999961
21
-134.9353299999999933
0
LINE
8
BLACK
6
CONTINUOUS
10
121.9973729999999961
20
-134.9353299999999933
11
122.0929859999999962
21
-135.2672079999999823
0
LINE
8
BLACK
6
CONTINUOUS
10
122.0929859999999962
20
-135.2672079999999823
11
122.2251559999999984
21
-135.5862950000000069
0
LINE
8
BLACK
6
CONTINUOUS
10
122.2251559999999984
20
-135.5862950000000069
11
122.3922209999999922
21
-135.8885760000000005
0
LINE
8
BLACK
6
CONTINUOUS
10
122.3922209999999922
20
-135.8885760000000005
11
122.5920799999999957
21
-136.170252000000005
0
LINE
8
BLACK
6
CONTINUOUS
10
122.5920799999999957
20
-136.170252000000005
11
122.822220999999999
21
-136.4277789999999868
0
LINE
8
BLACK
6
CONTINUOUS
10
122.822220999999999
20
-136.4277789999999868
11
123.079747999999995
21
-136.6579199999999901
0
LINE
8
BLACK
6
CONTINUOUS
10
123.079747999999995
20
-136.6579199999999901
11
123.3614239999999995
21
-136.8577789999999936
0
LINE
8
BLACK
6
CONTINUOUS
10
123.3614239999999995
20
-136.8577789999999936
11
123.6637049999999931
21
-137.0248440000000016
0
LINE
8
BLACK
6
CONTINUOUS
10
123.6637049999999931
20
-137.0248440000000016
11
123.9827919999999892
21
-137.1570140000000038
0
LINE
8
BLACK
6
CONTINUOUS
10
123.9827919999999892
20
-137.1570140000000038
11
124.3146699999999925
21
-137.2526269999999897
0
LINE
8
BLACK
6
CONTINUOUS
10
124.3146699999999925
20
-137.2526269999999897
11
124.6551669999999916
21
-137.3104799999999841
0
LINE
8
BLACK
6
CONTINUOUS
10
124.6551669999999916
20
-137.3104799999999841
11
125.
21
-137.3298450000000059
0
LINE
8
BLACK
6
CONTINUOUS
10
125.
20
-137.3298450000000059
11
125.3448329999999942
21
-137.3104799999999841
0
LINE
8
BLACK
6
CONTINUOUS
10
125.3448329999999942
20
-137.3104799999999841
11
125.6853299999999933
21
-137.2526269999999897
0
LINE
8
BLACK
6
CONTINUOUS
10
125.6853299999999933
20
-137.2526269999999897
11
126.0172079999999966
21
-137.1570140000000038
0
LINE
8
BLACK
6
CONTINUOUS
10
126.0172079999999966
20
-137.1570140000000038
11
126.3362949999999927
21
-137.0248440000000016
0
LINE
8
BLACK
6
CONTINUOUS
10
126.3362949999999927
20
-137.0248440000000016
11
126.6385760000000005
21
-136.8577789999999936
0
LINE
8
BLACK
6
CONTINUOUS
10
126.6385760000000005
20
-136.8577789999999936
11
126.9202519999999907
21
-136.6579199999999901
0
LINE
8
BLACK
6
CONTINUOUS
10
126.9202519999999907
20
-136.6579199999999901
11
127.177779000000001
21
-136.4277789999999868
0
LINE
8
BLACK
6
CONTINUOUS
10
127.177779000000001
20
-136.4277789999999868
11
127.4079199999999901
21
-136.170252000000005
0
LINE
8
BLACK
6
CONTINUOUS
10
127.4079199999999901
20
-136.170252000000005
11
127.6077789999999936
21
-135.8885760000000005
0
LINE
8
BLACK
6
CONTINUOUS
10
127.6077789999999936
20
-135.8885760000000005
11
127.7748439999999874
21
-135.5862950000000069
0
LINE
8
BLACK
6
CONTINUOUS
10
127.7748439999999874
20
-135.5862950000000069
11
127.9070139999999896
21
-135.2672079999999823
0
LINE
8
BLACK
6
CONTINUOUS
10
127.9070139999999896
20
-135.2672079999999823
11
128.0026269999999897
21
-134.9353299999999933
0
LINE
8
BLACK
6
CONTINUOUS
10
128.0026269999999897
20
-134.9353299999999933
11
128.0604799999999841
21
-134.5948329999999942
0
LINE
8
BLACK
6
CONTINUOUS
10
128.0604799999999841
20
-134.5948329999999942
11
128.0798450000000059
21
-134.25
0
LINE
8
BLACK
6
CONTINUOUS
10
128.0798450000000059
20
-134.25
11
128.0604799999999841
21
-133.9051670000000058
0
LINE
8
BLACK
6
CONTINUOUS
10
128.0604799999999841
20
-133.9051670000000058
11
128.0026269999999897
21
-133.5646700000000067
0
LINE
8
BLACK
6
CONTINUOUS
10
128.0026269999999897
20
-133.5646700000000067
11
127.9070139999999896
21
-133.2327919999999892
0
LINE
8
BLACK
6
CONTINUOUS
10
127.9070139999999896
20
-133.2327919999999892
11
127.7748439999999874
21
-132.9137049999999931
0
LINE
8
BLACK
6
CONTINUOUS
10
127.7748439999999874
20
-132.9137049999999931
11
127.6077789999999936
21
-132.6114239999999995
0
LINE
8
BLACK
6
CONTINUOUS
10
127.6077789999999936
20
-132.6114239999999995
11
127.4079199999999901
21
-132.329747999999995
0
LINE
8
BLACK
6
CONTINUOUS
10
127.4079199999999901
20
-132.329747999999995
11
127.177779000000001
21
-132.0722209999999848
0
LINE
8
BLACK
6
CONTINUOUS
10
127.177779000000001
20
-132.0722209999999848
11
126.9202519999999907
21
-131.8420799999999815
0
LINE
8
BLACK
6
CONTINUOUS
10
126.9202519999999907
20
-131.8420799999999815
11
126.6385760000000005
21
-131.6422210000000064
0
LINE
8
BLACK
6
CONTINUOUS
10
126.6385760000000005
20
-131.6422210000000064
11
126.3362949999999927
21
-131.4751559999999984
0
LINE
8
BLACK
6
CONTINUOUS
10
126.3362949999999927
20
-131.4751559999999984
11
126.0172079999999966
21
-131.3429859999999962
0
LINE
8
BLACK
6
CONTINUOUS
10
126.0172079999999966
20
-131.3429859999999962
11
125.6853299999999933
21
-131.2473729999999819
0
LINE
8
BLACK
6
CONTINUOUS
10
125.6853299999999933
20
-131.2473729999999819
11
125.3448329999999942
21
-131.1895199999999875
0
LINE
8
BLACK
6
CONTINUOUS
10
125.3448329999999942
20
-131.1895199999999875
11
125.
21
-131.1701549999999941
0
LINE
8
BLACK
6
CONTINUOUS
10
125.
20
-131.1701549999999941
11
124.6551669999999916
21
-131.1895199999999875
0
LINE
8
BLACK
6
CONTINUOUS
10
124.6551669999999916
20
-131.1895199999999875
11
124.3146699999999925
21
-131.2473729999999819
0
LINE
8
BLACK
6
CONTINUOUS
10
124.3146699999999925
20
-131.2473729999999819
11
123.9827919999999892
21
-131.3429859999999962
0
LINE
8
BLACK
6
CONTINUOUS
10
123.9827919999999892
20
-131.3429859999999962
11
123.6637049999999931
21
-131.4751559999999984
0
LINE
8
BLACK
6
CONTINUOUS
10
123.6637049999999931
20
-131.4751559999999984
11
123.3614239999999995
21
-131.6422210000000064
0
LINE
8
BLACK
6
CONTINUOUS
10
123.3614239999999995
20
-131.6422210000000064
11
123.079747999999995
21
-131.8420799999999815
0
LINE
8
BLACK
6
CONTINUOUS
10
123.079747999999995
20
-131.8420799999999815
11
122.822220999999999
21
-132.0722209999999848
0
LINE
8
BLACK
6
CONTINUOUS
10
122.822220999999999
20
-132.0722209999999848
11
122.5920799999999957
21
-132.329747999999995
0
LINE
8
BLACK
6
CONTINUOUS
10
122.5920799999999957
20
-132.329747999999995
11
122.3922209999999922
21
-132.6114239999999995
0
LINE
8
BLACK
6
CONTINUOUS
10
122.3922209999999922
20
-132.6114239999999995
11
122.2251559999999984
21
-132.9137049999999931
0
LINE
8
BLACK
6
CONTINUOUS
10
122.2251559999999984
20
-132.9137049999999931
11
122.0929859999999962
21
-133.2327919999999892
0
LINE
8
BLACK
6
CONTINUOUS
10
122.0929859999999962
20
-133.2327919999999892
11
121.9973729999999961
21
-133.5646700000000067
0
LINE
8
BLACK
6
CONTINUOUS
10
121.9973729999999961
20
-133.5646700000000067
11
121.9395199999999875
21
-133.9051670000000058
0
LINE
8
BLACK
6
CONTINUOUS
10
121.9395199999999875
20
-133.9051670000000058
11
121.9201549999999941
21
-134.25
0
LINE
8
BLACK
6
CONTINUOUS
10
121.9201549999999941
20
-134.25
11
121.9395199999999875
21
-134.5948329999999942
0
LINE
8
BLACK
6
CONTINUOUS
10
140.5781169999999918
20
-44.269090999999996
11
141.4606399999999837
21
-44.3473949999999988
0
LINE
8
BLACK
6
CONTINUOUS
10
141.4606399999999837
20
-44.3473949999999988
11
142.3388349999999889
21
-44.4646589999999975
0
LINE
8
BLACK
6
CONTINUOUS
10
142.3388349999999889
20
-44.4646589999999975
11
143.2109829999999988
21
-44.6206539999999947
0
LINE
8
BLACK
6
CONTINUOUS
10
143.2109829999999988
20
-44.6206539999999947
11
144.0753780000000006
21
-44.8150739999999956
0
LINE
8
BLACK
6
CONTINUOUS
10
144.0753780000000006
20
-44.8150739999999956
11
144.9303270000000055
21
-45.0475390000000004
0
LINE
8
BLACK
6
CONTINUOUS
10
144.9303270000000055
20
-45.0475390000000004
11
145.774156000000005
21
-45.3175939999999997
0
LINE
8
BLACK
6
CONTINUOUS
10
145.774156000000005
20
-45.3175939999999997
11
146.6052139999999895
21
-45.6247100000000003
0
LINE
8
BLACK
6
CONTINUOUS
10
146.6052139999999895
20
-45.6247100000000003
11
147.4218740000000025
21
-45.9682849999999945
0
LINE
8
BLACK
6
CONTINUOUS
10
147.4218740000000025
20
-45.9682849999999945
11
148.2225369999999884
21
-46.3476479999999995
0
LINE
8
BLACK
6
CONTINUOUS
10
148.2225369999999884
20
-46.3476479999999995
11
149.0056359999999813
21
-46.7620560000000012
0
LINE
8
BLACK
6
CONTINUOUS
10
149.0056359999999813
20
-46.7620560000000012
11
149.7696379999999863
21
-47.2106969999999961
0
LINE
8
BLACK
6
CONTINUOUS
10
149.7696379999999863
20
-47.2106969999999961
11
150.5130470000000003
21
-47.6926939999999959
0
LINE
8
BLACK
6
CONTINUOUS
10
150.5130470000000003
20
-47.6926939999999959
11
151.2344080000000019
21
-48.207101999999999
0
LINE
8
BLACK
6
CONTINUOUS
10
151.2344080000000019
20
-48.207101999999999
11
151.9323090000000036
21
-48.752913999999997
0
LINE
8
BLACK
6
CONTINUOUS
10
151.9323090000000036
20
-48.752913999999997
11
152.6053839999999866
21
-49.3290639999999954
0
LINE
8
BLACK
6
CONTINUOUS
10
152.6053839999999866
20
-49.3290639999999954
11
153.2523149999999816
21
-49.9344210000000004
0
LINE
8
BLACK
6
CONTINUOUS
10
153.2523149999999816
20
-49.9344210000000004
11
153.8718360000000018
21
-50.5678020000000004
0
LINE
8
BLACK
6
CONTINUOUS
10
153.8718360000000018
20
-50.5678020000000004
11
154.4627339999999833
21
-51.2279669999999996
0
LINE
8
BLACK
6
CONTINUOUS
10
154.4627339999999833
20
-51.2279669999999996
11
155.0238520000000051
21
-51.9136219999999966
0
LINE
8
BLACK
6
CONTINUOUS
10
155.0238520000000051
20
-51.9136219999999966
11
155.5540919999999971
21
-52.6234269999999995
0
LINE
8
BLACK
6
CONTINUOUS
10
155.5540919999999971
20
-52.6234269999999995
11
156.0524169999999913
21
-53.3559920000000005
0
LINE
8
BLACK
6
CONTINUOUS
10
156.0524169999999913
20
-53.3559920000000005
11
156.517848999999984
21
-54.1098809999999943
0
LINE
8
BLACK
6
CONTINUOUS
10
156.517848999999984
20
-54.1098809999999943
11
156.9494789999999966
21
-54.883620999999998
0
LINE
8
BLACK
6
CONTINUOUS
10
156.9494789999999966
20
-54.883620999999998
11
157.3464620000000025
21
-55.675695999999995
0
LINE
8
BLACK
6
CONTINUOUS
10
157.3464620000000025
20
-55.675695999999995
11
157.7080200000000048
21
-56.4845550000000003
0
LINE
8
BLACK
6
CONTINUOUS
10
157.7080200000000048
20
-56.4845550000000003
11
158.0334450000000004
21
-57.3086160000000007
0
LINE
8
BLACK
6
CONTINUOUS
10
158.0334450000000004
20
-57.3086160000000007
11
158.3221010000000035
21
-58.1462639999999951
0
LINE
8
BLACK
6
CONTINUOUS
10
158.3221010000000035
20
-58.1462639999999951
11
158.5734219999999937
21
-58.9958619999999954
0
LINE
8
BLACK
6
CONTINUOUS
10
158.5734219999999937
20
-58.9958619999999954
11
158.7869169999999883
21
-59.8557439999999943
0
LINE
8
BLACK
6
CONTINUOUS
10
158.7869169999999883
20
-59.8557439999999943
11
158.9621679999999913
21
-60.7242279999999965
0
LINE
8
BLACK
6
CONTINUOUS
10
158.9621679999999913
20
-60.7242279999999965
11
159.0988309999999899
21
-61.5996139999999954
0
LINE
8
BLACK
6
CONTINUOUS
10
159.0988309999999899
20
-61.5996139999999954
11
159.1966390000000047
21
-62.4801879999999983
0
LINE
8
BLACK
6
CONTINUOUS
10
159.1966390000000047
20
-62.4801879999999983
11
159.2553999999999803
21
-63.3642269999999996
0
LINE
8
BLACK
6
CONTINUOUS
10
159.2553999999999803
20
-63.3642269999999996
11
159.2750000000000057
21
-64.25
0
LINE
8
BLACK
6
CONTINUOUS
10
159.2750000000000057
20
-64.25
11
159.2553999999999803
21
-65.1357730000000004
0
LINE
8
BLACK
6
CONTINUOUS
10
159.2553999999999803
20
-65.1357730000000004
11
159.1966390000000047
21
-66.0198120000000017
0
LINE
8
BLACK
6
CONTINUOUS
10
159.1966390000000047
20
-66.0198120000000017
11
159.0988309999999899
21
-66.9003859999999975
0
LINE
8
BLACK
6
CONTINUOUS
10
159.0988309999999899
20
-66.9003859999999975
11
158.9621679999999913
21
-67.7757720000000035
0
LINE
8
BLACK
6
CONTINUOUS
10
158.9621679999999913
20
-67.7757720000000035
11
158.7869169999999883
21
-68.6442559999999986
0
LINE
8
BLACK
6
CONTINUOUS
10
158.7869169999999883
20
-68.6442559999999986
11
158.5734219999999937
21
-69.5041379999999975
0
LINE
8
BLACK
6
CONTINUOUS
10
158.5734219999999937
20
-69.5041379999999975
11
158.3221010000000035
21
-70.3537359999999978
0
LINE
8
BLACK
6
CONTINUOUS
10
158.3221010000000035
20
-70.3537359999999978
11
158.0334450000000004
21
-71.1913839999999993
0
LINE
8
BLACK
6
CONTINUOUS
10
158.0334450000000004
20
-71.1913839999999993
11
157.7080200000000048
21
-72.0154449999999997
0
LINE
8
BLACK
6
CONTINUOUS
10
157.7080200000000048
20
-72.0154449999999997
11
157.3464620000000025
21
-72.8243039999999979
0
LINE
8
BLACK
6
CONTINUOUS
10
157.3464620000000025
20
-72.8243039999999979
11
156.9494789999999966
21
-73.6163789999999949
0
LINE
8
BLACK
6
CONTINUOUS
10
156.9494789999999966
20
-73.6163789999999949
11
156.517848999999984
21
-74.3901189999999986
0
LINE
8
BLACK
6
CONTINUOUS
10
156.517848999999984
20
-74.3901189999999986
11
156.0524169999999913
21
-75.1440079999999995
0
LINE
8
BLACK
6
CONTINUOUS
10
156.0524169999999913
20
-75.1440079999999995
11
155.5540919999999971
21
-75.8765729999999934
0
LINE
8
BLACK
6
CONTINUOUS
10
155.5540919999999971
20
-75.8765729999999934
11
155.0238520000000051
21
-76.5863779999999963
0
LINE
8
BLACK
6
CONTINUOUS
10
155.0238520000000051
20
-76.5863779999999963
11
154.4627339999999833
21
-77.2720329999999933
0
LINE
8
BLACK
6
CONTINUOUS
10
154.4627339999999833
20
-77.2720329999999933
11
153.8718360000000018
21
-77.9321979999999996
0
LINE
8
BLACK
6
CONTINUOUS
10
153.8718360000000018
20
-77.9321979999999996
11
153.2523149999999816
21
-78.5655789999999996
0
LINE
8
BLACK
6
CONTINUOUS
10
153.2523149999999816
20
-78.5655789999999996
11
152.6053839999999866
21
-79.1709359999999975
0
LINE
8
BLACK
6
CONTINUOUS
10
152.6053839999999866
20
-79.1709359999999975
11
151.9323090000000036
21
-79.7470859999999959
0
LINE
8
BLACK
6
CONTINUOUS
10
151.9323090000000036
20
-79.7470859999999959
11
151.2344080000000019
21
-80.2928979999999939
0
LINE
8
BLACK
6
CONTINUOUS
10
151.2344080000000019
20
-80.2928979999999939
11
150.5130470000000003
21
-80.807305999999997
0
LINE
8
BLACK
6
CONTINUOUS
10
150.5130470000000003
20
-80.807305999999997
11
149.7696379999999863
21
-81.2893029999999897
0
LINE
8
BLACK
6
CONTINUOUS
10
149.7696379999999863
20
-81.2893029999999897
11
149.0056359999999813
21
-81.7379439999999988
0
LINE
8
BLACK
6
CONTINUOUS
10
149.0056359999999813
20
-81.7379439999999988
11
148.2225369999999884
21
-82.1523519999999934
0
LINE
8
BLACK
6
CONTINUOUS
10
148.2225369999999884
20
-82.1523519999999934
11
147.4218740000000025
21
-82.5317149999999913
0
LINE
8
BLACK
6
CONTINUOUS
10
147.4218740000000025
20
-82.5317149999999913
11
146.6052139999999895
21
-82.8752899999999926
0
LINE
8
BLACK
6
CONTINUOUS
10
146.6052139999999895
20
-82.8752899999999926
11
145.774156000000005
21
-83.1824060000000003
0
LINE
8
BLACK
6
CONTINUOUS
10
145.774156000000005
20
-83.1824060000000003
11
144.9303270000000055
21
-83.4524609999999996
0
LINE
8
BLACK
6
CONTINUOUS
10
144.9303270000000055
20
-83.4524609999999996
11
144.0753780000000006
21
-83.6849259999999902
0
LINE
8
BLACK
6
CONTINUOUS
10
144.0753780000000006
20
-83.6849259999999902
11
143.2109829999999988
21
-83.8793459999999982
0
LINE
8
BLACK
6
CONTINUOUS
10
143.2109829999999988
20
-83.8793459999999982
11
142.3388349999999889
21
-84.0353410000000025
0
LINE
8
BLACK
6
CONTINUOUS
10
142.3388349999999889
20
-84.0353410000000025
11
141.4606399999999837
21
-84.1526049999999941
0
LINE
8
BLACK
6
CONTINUOUS
10
141.4606399999999837
20
-84.1526049999999941
11
140.5781169999999918
21
-84.2309089999999969
0
LINE
8
BLACK
6
CONTINUOUS
10
140.5781169999999918
20
-84.2309089999999969
11
139.6929949999999963
21
-84.2700990000000019
0
LINE
8
BLACK
6
CONTINUOUS
10
139.6929949999999963
20
-84.2700990000000019
11
138.8070050000000037
21
-84.2700990000000019
0
LINE
8
BLACK
6
CONTINUOUS
10
138.8070050000000037
20
-84.2700990000000019
11
137.9218829999999798
21
-84.2309089999999969
0
LINE
8
BLACK
6
CONTINUOUS
10
137.9218829999999798
20
-84.2309089999999969
11
137.0393599999999878
21
-84.1526049999999941
0
LINE
8
BLACK
6
CONTINUOUS
10
137.0393599999999878
20
-84.1526049999999941
11
136.1611649999999827
21
-84.0353410000000025
0
LINE
8
BLACK
6
CONTINUOUS
10
136.1611649999999827
20
-84.0353410000000025
11
135.2890170000000012
21
-83.8793459999999982
0
LINE
8
BLACK
6
CONTINUOUS
10
135.2890170000000012
20
-83.8793459999999982
11
134.4246219999999994
21
-83.6849259999999902
0
LINE
8
BLACK
6
CONTINUOUS
10
134.4246219999999994
20
-83.6849259999999902
11
133.5696729999999945
21
-83.4524609999999996
0
LINE
8
BLACK
6
CONTINUOUS
10
133.5696729999999945
20
-83.4524609999999996
11
132.725843999999995
21
-83.1824060000000003
0
LINE
8
BLACK
6
CONTINUOUS
10
132.725843999999995
20
-83.1824060000000003
11
131.8947859999999821
21
-82.8752899999999926
0
LINE
8
BLACK
6
CONTINUOUS
10
131.8947859999999821
20
-82.8752899999999926
11
131.0781259999999975
21
-82.5317149999999913
0
LINE
8
BLACK
6
CONTINUOUS
10
131.0781259999999975
20
-82.5317149999999913
11
130.2774629999999831
21
-82.1523519999999934
0
LINE
8
BLACK
6
CONTINUOUS
10
130.2774629999999831
20
-82.1523519999999934
11
129.4943639999999903
21
-81.7379439999999988
0
LINE
8
BLACK
6
CONTINUOUS
10
129.4943639999999903
20
-81.7379439999999988
11
128.7303619999999853
21
-81.2893029999999897
0
LINE
8
BLACK
6
CONTINUOUS
10
128.7303619999999853
20
-81.2893029999999897
11
127.9869529999999997
21
-80.807305999999997
0
LINE
8
BLACK
6
CONTINUOUS
10
127.9869529999999997
20
-80.807305999999997
11
127.2655919999999981
21
-80.2928979999999939
0
LINE
8
BLACK
6
CONTINUOUS
10
127.2655919999999981
20
-80.2928979999999939
11
126.5676909999999964
21
-79.7470859999999959
0
LINE
8
BLACK
6
CONTINUOUS
10
126.5676909999999964
20
-79.7470859999999959
11
125.8946159999999992
21
-79.1709359999999975
0
LINE
8
BLACK
6
CONTINUOUS
10
125.8946159999999992
20
-79.1709359999999975
11
125.2476849999999899
21
-78.5655789999999996
0
LINE
8
BLACK
6
CONTINUOUS
10
125.2476849999999899
20
-78.5655789999999996
11
124.6281639999999982
21
-77.9321979999999996
0
LINE
8
BLACK
6
CONTINUOUS
10
124.6281639999999982
20
-77.9321979999999996
11
124.0372659999999883
21
-77.2720329999999933
0
LINE
8
BLACK
6
CONTINUOUS
10
124.0372659999999883
20
-77.2720329999999933
11
123.4761479999999949
21
-76.5863779999999963
0
LINE
8
BLACK
6
CONTINUOUS
10
123.4761479999999949
20
-76.5863779999999963
11
122.9459079999999886
21
-75.8765729999999934
0
LINE
8
BLACK
6
CONTINUOUS
10
122.9459079999999886
20
-75.8765729999999934
11
122.4475829999999945
21
-75.1440079999999995
0
LINE
8
BLACK
6
CONTINUOUS
10
122.4475829999999945
20
-75.1440079999999995
11
121.9821509999999876
21
-74.3901189999999986
0
LINE
8
BLACK
6
CONTINUOUS
10
121.9821509999999876
20
-74.3901189999999986
11
121.5505209999999892
21
-73.6163789999999949
0
LINE
8
BLACK
6
CONTINUOUS
10
121.5505209999999892
20
-73.6163789999999949
11
121.1535379999999975
21
-72.8243039999999979
0
LINE
8
BLACK
6
CONTINUOUS
10
121.1535379999999975
20
-72.8243039999999979
11
120.7919799999999952
21
-72.0154449999999997
0
LINE
8
BLACK
6
CONTINUOUS
10
120.7919799999999952
20
-72.0154449999999997
11
120.4665549999999996
21
-71.1913839999999993
0
LINE
8
BLACK
6
CONTINUOUS
10
120.4665549999999996
20
-71.1913839999999993
11
120.1778989999999965
21
-70.3537359999999978
0
LINE
8
BLACK
6
CONTINUOUS
10
120.1778989999999965
20
-70.3537359999999978
11
119.9265779999999921
21
-69.5041379999999975
0
LINE
8
BLACK
6
CONTINUOUS
10
119.9265779999999921
20
-69.5041379999999975
11
119.7130829999999975
21
-68.6442559999999986
0
LINE
8
BLACK
6
CONTINUOUS
10
119.7130829999999975
20
-68.6442559999999986
11
119.5378319999999945
21
-67.7757720000000035
0
LINE
8
BLACK
6
CONTINUOUS
10
119.5378319999999945
20
-67.7757720000000035
11
119.4011689999999959
21
-66.9003859999999975
0
LINE
8
BLACK
6
CONTINUOUS
10
119.4011689999999959
20
-66.9003859999999975
11
119.3033609999999953
21
-66.0198120000000017
0
LINE
8
BLACK
6
CONTINUOUS
10
119.3033609999999953
20
-66.0198120000000017
11
119.2445999999999913
21
-65.1357730000000004
0
LINE
8
BLACK
6
CONTINUOUS
10
119.2445999999999913
20
-65.1357730000000004
11
119.2249999999999943
21
-64.25
0
LINE
8
BLACK
6
CONTINUOUS
10
119.2249999999999943
20
-64.25
11
119.2445999999999913
21
-63.3642269999999996
0
LINE
8
BLACK
6
CONTINUOUS
10
119.2445999999999913
20
-63.3642269999999996
11
119.3033609999999953
21
-62.4801879999999983
0
LINE
8
BLACK
6
CONTINUOUS
10
119.3033609999999953
20
-62.4801879999999983
11
119.4011689999999959
21
-61.5996139999999954
0
LINE
8
BLACK
6
CONTINUOUS
10
119.4011689999999959
20
-61.5996139999999954
11
119.5378319999999945
21
-60.7242279999999965
0
LINE
8
BLACK
6
CONTINUOUS
10
119.5378319999999945
20
-60.7242279999999965
11
119.7130829999999975
21
-59.8557439999999943
0
LINE
8
BLACK
6
CONTINUOUS
10
119.7130829999999975
20
-59.8557439999999943
11
119.9265779999999921
21
-58.9958619999999954
0
LINE
8
BLACK
6
CONTINUOUS
10
119.9265779999999921
20
-58.9958619999999954
11
120.1778989999999965
21
-58.1462639999999951
0
LINE
8
BLACK
6
CONTINUOUS
10
120.1778989999999965
20
-58.1462639999999951
11
120.4665549999999996
21
-57.3086160000000007
0
LINE
8
BLACK
6
CONTINUOUS
10
120.4665549999999996
20
-57.3086160000000007
11
120.7919799999999952
21
-56.4845550000000003
0
LINE
8
BLACK
6
CONTINUOUS
10
120.7919799999999952
20
-56.4845550000000003
11
121.1535379999999975
21
-55.675695999999995
0
LINE
8
BLACK
6
CONTINUOUS
10
121.1535379999999975
20
-55.675695999999995
11
121.5505209999999892
21
-54.883620999999998
0
LINE
8
BLACK
6
CONTINUOUS
10
121.5505209999999892
20
-54.883620999999998
11
121.9821509999999876
21
-54.1098809999999943
0
LINE
8
BLACK
6
CONTINUOUS
10
121.9821509999999876
20
-54.1098809999999943
11
122.4475829999999945
21
-53.3559920000000005
0
LINE
8
BLACK
6
CONTINUOUS
10
122.4475829999999945
20
-53.3559920000000005
11
122.9459079999999886
21
-52.6234269999999995
0
LINE
8
BLACK
6
CONTINUOUS
10
122.9459079999999886
20
-52.6234269999999995
11
123.4761479999999949
21
-51.9136219999999966
0
LINE
8
BLACK
6
CONTINUOUS
10
123.4761479999999949
20
-51.9136219999999966
11
124.0372659999999883
21
-51.2279669999999996
0
LINE
8
BLACK
6
CONTINUOUS
10
124.0372659999999883
20
-51.2279669999999996
11
124.6281639999999982
21
-50.5678020000000004
0
LINE
8
BLACK
6
CONTINUOUS
10
124.6281639999999982
20
-50.5678020000000004
11
125.2476849999999899
21
-49.9344210000000004
0
LINE
8
BLACK
6
CONTINUOUS
10
125.2476849999999899
20
-49.9344210000000004
11
125.8946159999999992
21
-49.3290639999999954
0
LINE
8
BLACK
6
CONTINUOUS
10
125.8946159999999992
20
-49.3290639999999954
11
126.5676909999999964
21
-48.752913999999997
0
LINE
8
BLACK
6
CONTINUOUS
10
126.5676909999999964
20
-48.752913999999997
11
127.2655919999999981
21
-48.207101999999999
0
LINE
8
BLACK
6
CONTINUOUS
10
127.2655919999999981
20
-48.207101999999999
11
127.9869529999999997
21
-47.6926939999999959
0
LINE
8
BLACK
6
CONTINUOUS
10
127.9869529999999997
20
-47.6926939999999959
11
128.7303619999999853
21
-47.2106969999999961
0
LINE
8
BLACK
6
CONTINUOUS
10
128.7303619999999853
20
-47.2106969999999961
11
129.4943639999999903
21
-46.7620560000000012
0
LINE
8
BLACK
6
CONTINUOUS
10
129.4943639999999903
20
-46.7620560000000012
11
130.2774629999999831
21
-46.3476479999999995
0
LINE
8
BLACK
6
CONTINUOUS
10
130.2774629999999831
20
-46.3476479999999995
11
131.0781259999999975
21
-45.9682849999999945
0
LINE
8
BLACK
6
CONTINUOUS
10
131.0781259999999975
20
-45.9682849999999945
11
131.8947859999999821
21
-45.6247100000000003
0
LINE
8
BLACK
6
CONTINUOUS
10
131.8947859999999821
20
-45.6247100000000003
11
132.725843999999995
21
-45.3175939999999997
0
LINE
8
BLACK
6
CONTINUOUS
10
132.725843999999995
20
-45.3175939999999997
11
133.5696729999999945
21
-45.0475390000000004
0
LINE
8
BLACK
6
CONTINUOUS
10
133.5696729999999945
20
-45.0475390000000004
11
134.4246219999999994
21
-44.8150739999999956
0
LINE
8
BLACK
6
CONTINUOUS
10
134.4246219999999994
20
-44.8150739999999956
11
135.2890170000000012
21
-44.6206539999999947
0
LINE
8
BLACK
6
CONTINUOUS
10
135.2890170000000012
20
-44.6206539999999947
11
136.1611649999999827
21
-44.4646589999999975
0
LINE
8
BLACK
6
CONTINUOUS
10
136.1611649999999827
20
-44.4646589999999975
11
137.0393599999999878
21
-44.3473949999999988
0
LINE
8
BLACK
6
CONTINUOUS
10
137.0393599999999878
20
-44.3473949999999988
11
137.9218829999999798
21
-44.269090999999996
0
LINE
8
BLACK
6
CONTINUOUS
10
137.9218829999999798
20
-44.269090999999996
11
138.8070050000000037
21
-44.2299009999999981
0
LINE
8
BLACK
6
CONTINUOUS
10
138.8070050000000037
20
-44.2299009999999981
11
139.6929949999999963
21
-44.2299009999999981
0
LINE
8
BLACK
6
CONTINUOUS
10
139.6929949999999963
20
-44.2299009999999981
11
140.5781169999999918
21
-44.269090999999996
0
LINE
8
BLACK
6
CONTINUOUS
10
119.2900889999999947
20
-65.1464009999999973
11
119.3504039999999975
21
-66.0409959999999927
0
LINE
8
BLACK
6
CONTINUOUS
10
119.3504039999999975
20
-66.0409959999999927
11
119.4507939999999877
21
-66.9319849999999974
0
LINE
8
BLACK
6
CONTINUOUS
10
119.4507939999999877
20
-66.9319849999999974
11
119.5910569999999922
21
-67.8175719999999984
0
LINE
8
BLACK
6
CONTINUOUS
10
119.5910569999999922
20
-67.8175719999999984
11
119.7709109999999981
21
-68.69597499999999
0
LINE
8
BLACK
6
CONTINUOUS
10
119.7709109999999981
20
-68.69597499999999
11
119.9899929999999983
21
-69.565423999999993
0
LINE
8
BLACK
6
CONTINUOUS
10
119.9899929999999983
20
-69.565423999999993
11
120.2478619999999978
21
-70.424168999999992
0
LINE
8
BLACK
6
CONTINUOUS
10
120.2478619999999978
20
-70.424168999999992
11
120.5439989999999995
21
-71.2704799999999921
0
LINE
8
BLACK
6
CONTINUOUS
10
120.5439989999999995
20
-71.2704799999999921
11
120.8778079999999875
21
-72.102651999999992
0
LINE
8
BLACK
6
CONTINUOUS
10
120.8778079999999875
20
-72.102651999999992
11
121.2486150000000009
21
-72.9190100000000001
0
LINE
8
BLACK
6
CONTINUOUS
10
121.2486150000000009
20
-72.9190100000000001
11
121.655674999999988
21
-73.7179100000000034
0
LINE
8
BLACK
6
CONTINUOUS
10
121.655674999999988
20
-73.7179100000000034
11
122.0981669999999895
21
-74.4977429999999998
0
LINE
8
BLACK
6
CONTINUOUS
10
122.0981669999999895
20
-74.4977429999999998
11
122.5752009999999927
21
-75.256937999999991
0
LINE
8
BLACK
6
CONTINUOUS
10
122.5752009999999927
20
-75.256937999999991
11
123.0858159999999941
21
-75.9939669999999978
0
LINE
8
BLACK
6
CONTINUOUS
10
123.0858159999999941
20
-75.9939669999999978
11
123.6289839999999884
21
-76.7073449999999895
0
LINE
8
BLACK
6
CONTINUOUS
10
123.6289839999999884
20
-76.7073449999999895
11
124.2036099999999976
21
-77.3956349999999986
0
LINE
8
BLACK
6
CONTINUOUS
10
124.2036099999999976
20
-77.3956349999999986
11
124.8085370000000012
21
-78.0574519999999978
0
LINE
8
BLACK
6
CONTINUOUS
10
124.8085370000000012
20
-78.0574519999999978
11
125.442547999999988
21
-78.6914629999999988
0
LINE
8
BLACK
6
CONTINUOUS
10
125.442547999999988
20
-78.6914629999999988
11
126.1043650000000014
21
-79.2963900000000024
0
LINE
8
BLACK
6
CONTINUOUS
10
126.1043650000000014
20
-79.2963900000000024
11
126.7926549999999963
21
-79.8710159999999973
0
LINE
8
BLACK
6
CONTINUOUS
10
126.7926549999999963
20
-79.8710159999999973
11
127.506032999999988
21
-80.4141839999999917
0
LINE
8
BLACK
6
CONTINUOUS
10
127.506032999999988
20
-80.4141839999999917
11
128.2430619999999806
21
-80.924798999999993
0
LINE
8
BLACK
6
CONTINUOUS
10
128.2430619999999806
20
-80.924798999999993
11
129.002256999999986
21
-81.4018329999999963
0
LINE
8
BLACK
6
CONTINUOUS
10
129.002256999999986
20
-81.4018329999999963
11
129.7820899999999824
21
-81.8443249999999978
0
LINE
8
BLACK
6
CONTINUOUS
10
129.7820899999999824
20
-81.8443249999999978
11
130.5809899999999857
21
-82.2513849999999991
0
LINE
8
BLACK
6
CONTINUOUS
10
130.5809899999999857
20
-82.2513849999999991
11
131.3973479999999938
21
-82.6221919999999983
0
LINE
8
BLACK
6
CONTINUOUS
10
131.3973479999999938
20
-82.6221919999999983
11
132.2295200000000079
21
-82.9560010000000005
0
LINE
8
BLACK
6
CONTINUOUS
10
132.2295200000000079
20
-82.9560010000000005
11
133.0758309999999938
21
-83.2521380000000022
0
LINE
8
BLACK
6
CONTINUOUS
10
133.0758309999999938
20
-83.2521380000000022
11
133.9345759999999927
21
-83.5100070000000017
0
LINE
8
BLACK
6
CONTINUOUS
10
133.9345759999999927
20
-83.5100070000000017
11
134.8040249999999958
21
-83.7290890000000019
0
LINE
8
BLACK
6
CONTINUOUS
10
134.8040249999999958
20
-83.7290890000000019
11
135.6824279999999874
21
-83.9089429999999936
0
LINE
8
BLACK
6
CONTINUOUS
10
135.6824279999999874
20
-83.9089429999999936
11
136.5680150000000026
21
-84.0492059999999981
0
LINE
8
BLACK
6
CONTINUOUS
10
136.5680150000000026
20
-84.0492059999999981
11
137.4590039999999931
21
-84.1495960000000025
0
LINE
8
BLACK
6
CONTINUOUS
10
137.4590039999999931
20
-84.1495960000000025
11
138.3535990000000027
21
-84.2099109999999911
0
LINE
8
BLACK
6
CONTINUOUS
10
138.3535990000000027
20
-84.2099109999999911
11
139.25
21
-84.2300299999999993
0
LINE
8
BLACK
6
CONTINUOUS
10
139.25
20
-84.2300299999999993
11
140.1464009999999973
21
-84.2099109999999911
0
LINE
8
BLACK
6
CONTINUOUS
10
140.1464009999999973
20
-84.2099109999999911
11
141.0409960000000069
21
-84.1495960000000025
0
LINE
8
BLACK
6
CONTINUOUS
10
141.0409960000000069
20
-84.1495960000000025
11
141.9319849999999974
21
-84.0492059999999981
0
LINE
8
BLACK
6
CONTINUOUS
10
141.9319849999999974
20
-84.0492059999999981
11
142.8175719999999842
21
-83.9089429999999936
0
LINE
8
BLACK
6
CONTINUOUS
10
142.8175719999999842
20
-83.9089429999999936
11
143.6959750000000042
21
-83.7290890000000019
0
LINE
8
BLACK
6
CONTINUOUS
10
143.6959750000000042
20
-83.7290890000000019
11
144.5654240000000073
21
-83.5100070000000017
0
LINE
8
BLACK
6
CONTINUOUS
10
144.5654240000000073
20
-83.5100070000000017
11
145.4241690000000062
21
-83.2521380000000022
0
LINE
8
BLACK
6
CONTINUOUS
10
145.4241690000000062
20
-83.2521380000000022
11
146.2704799999999921
21
-82.9560010000000005
0
LINE
8
BLACK
6
CONTINUOUS
10
146.2704799999999921
20
-82.9560010000000005
11
147.1026520000000062
21
-82.6221919999999983
0
LINE
8
BLACK
6
CONTINUOUS
10
147.1026520000000062
20
-82.6221919999999983
11
147.9190099999999859
21
-82.2513849999999991
0
LINE
8
BLACK
6
CONTINUOUS
10
147.9190099999999859
20
-82.2513849999999991
11
148.7179099999999892
21
-81.8443249999999978
0
LINE
8
BLACK
6
CONTINUOUS
10
148.7179099999999892
20
-81.8443249999999978
11
149.4977429999999856
21
-81.4018329999999963
0
LINE
8
BLACK
6
CONTINUOUS
10
149.4977429999999856
20
-81.4018329999999963
11
150.256937999999991
21
-80.924798999999993
0
LINE
8
BLACK
6
CONTINUOUS
10
150.256937999999991
20
-80.924798999999993
11
150.9939669999999978
21
-80.4141839999999917
0
LINE
8
BLACK
6
CONTINUOUS
10
150.9939669999999978
20
-80.4141839999999917
11
151.7073450000000037
21
-79.8710159999999973
0
LINE
8
BLACK
6
CONTINUOUS
10
151.7073450000000037
20
-79.8710159999999973
11
152.3956349999999986
21
-79.2963900000000024
0
LINE
8
BLACK
6
CONTINUOUS
10
152.3956349999999986
20
-79.2963900000000024
11
153.0574519999999836
21
-78.6914629999999988
0
LINE
8
BLACK
6
CONTINUOUS
10
153.0574519999999836
20
-78.6914629999999988
11
153.6914629999999988
21
-78.0574519999999978
0
LINE
8
BLACK
6
CONTINUOUS
10
153.6914629999999988
20
-78.0574519999999978
11
154.2963900000000024
21
-77.3956349999999986
0
LINE
8
BLACK
6
CONTINUOUS
10
154.2963900000000024
20
-77.3956349999999986
11
154.8710159999999973
21
-76.7073449999999895
0
LINE
8
BLACK
6
CONTINUOUS
10
154.8710159999999973
20
-76.7073449999999895
11
155.4141840000000059
21
-75.9939669999999978
0
LINE
8
BLACK
6
CONTINUOUS
10
155.4141840000000059
20
-75.9939669999999978
11
155.9247989999999788
21
-75.256937999999991
0
LINE
8
BLACK
6
CONTINUOUS
10
155.9247989999999788
20
-75.256937999999991
11
156.4018329999999821
21
-74.4977429999999998
0
LINE
8
BLACK
6
CONTINUOUS
10
156.4018329999999821
20
-74.4977429999999998
11
156.8443249999999978
21
-73.7179100000000034
0
LINE
8
BLACK
6
CONTINUOUS
10
156.8443249999999978
20
-73.7179100000000034
11
157.2513849999999991
21
-72.9190100000000001
0
LINE
8
BLACK
6
CONTINUOUS
10
157.2513849999999991
20
-72.9190100000000001
11
157.6221919999999841
21
-72.102651999999992
0
LINE
8
BLACK
6
CONTINUOUS
10
157.6221919999999841
20
-72.102651999999992
11
157.9560009999999863
21
-71.2704799999999921
0
LINE
8
BLACK
6
CONTINUOUS
10
157.9560009999999863
20
-71.2704799999999921
11
158.2521380000000022
21
-70.424168999999992
0
LINE
8
BLACK
6
CONTINUOUS
10
158.2521380000000022
20
-70.424168999999992
11
158.5100070000000017
21
-69.565423999999993
0
LINE
8
BLACK
6
CONTINUOUS
10
158.5100070000000017
20
-69.565423999999993
11
158.7290889999999877
21
-68.69597499999999
0
LINE
8
BLACK
6
CONTINUOUS
10
158.7290889999999877
20
-68.69597499999999
11
158.9089429999999936
21
-67.8175719999999984
0
LINE
8
BLACK
6
CONTINUOUS
10
158.9089429999999936
20
-67.8175719999999984
11
159.0492059999999981
21
-66.9319849999999974
0
LINE
8
BLACK
6
CONTINUOUS
10
159.0492059999999981
20
-66.9319849999999974
11
159.1495960000000025
21
-66.0409959999999927
0
LINE
8
BLACK
6
CONTINUOUS
10
159.1495960000000025
20
-66.0409959999999927
11
159.2099110000000053
21
-65.1464009999999973
0
LINE
8
BLACK
6
CONTINUOUS
10
159.2099110000000053
20
-65.1464009999999973
11
159.2300299999999993
21
-64.25
0
LINE
8
BLACK
6
CONTINUOUS
10
159.2300299999999993
20
-64.25
11
159.2099110000000053
21
-63.3535989999999956
0
LINE
8
BLACK
6
CONTINUOUS
10
159.2099110000000053
20
-63.3535989999999956
11
159.1495960000000025
21
-62.4590040000000002
0
LINE
8
BLACK
6
CONTINUOUS
10
159.1495960000000025
20
-62.4590040000000002
11
159.0492059999999981
21
-61.5680149999999955
0
LINE
8
BLACK
6
CONTINUOUS
10
159.0492059999999981
20
-61.5680149999999955
11
158.9089429999999936
21
-60.6824279999999945
0
LINE
8
BLACK
6
CONTINUOUS
10
158.9089429999999936
20
-60.6824279999999945
11
158.7290889999999877
21
-59.8040249999999958
0
LINE
8
BLACK
6
CONTINUOUS
10
158.7290889999999877
20
-59.8040249999999958
11
158.5100070000000017
21
-58.9345759999999999
0
LINE
8
BLACK
6
CONTINUOUS
10
158.5100070000000017
20
-58.9345759999999999
11
158.2521380000000022
21
-58.0758310000000009
0
LINE
8
BLACK
6
CONTINUOUS
10
158.2521380000000022
20
-58.0758310000000009
11
157.9560009999999863
21
-57.2295200000000008
0
LINE
8
BLACK
6
CONTINUOUS
10
157.9560009999999863
20
-57.2295200000000008
11
157.6221919999999841
21
-56.3973480000000009
0
LINE
8
BLACK
6
CONTINUOUS
10
157.6221919999999841
20
-56.3973480000000009
11
157.2513849999999991
21
-55.5809899999999999
0
LINE
8
BLACK
6
CONTINUOUS
10
157.2513849999999991
20
-55.5809899999999999
11
156.8443249999999978
21
-54.7820899999999966
0
LINE
8
BLACK
6
CONTINUOUS
10
156.8443249999999978
20
-54.7820899999999966
11
156.4018329999999821
21
-54.0022570000000002
0
LINE
8
BLACK
6
CONTINUOUS
10
156.4018329999999821
20
-54.0022570000000002
11
155.9247989999999788
21
-53.2430619999999948
0
LINE
8
BLACK
6
CONTINUOUS
10
155.9247989999999788
20
-53.2430619999999948
11
155.4141840000000059
21
-52.5060329999999951
0
LINE
8
BLACK
6
CONTINUOUS
10
155.4141840000000059
20
-52.5060329999999951
11
154.8710159999999973
21
-51.7926549999999963
0
LINE
8
BLACK
6
CONTINUOUS
10
154.8710159999999973
20
-51.7926549999999963
11
154.2963900000000024
21
-51.1043649999999943
0
LINE
8
BLACK
6
CONTINUOUS
10
154.2963900000000024
20
-51.1043649999999943
11
153.6914629999999988
21
-50.4425479999999951
0
LINE
8
BLACK
6
CONTINUOUS
10
153.6914629999999988
20
-50.4425479999999951
11
153.0574519999999836
21
-49.8085370000000012
0
LINE
8
BLACK
6
CONTINUOUS
10
153.0574519999999836
20
-49.8085370000000012
11
152.3956349999999986
21
-49.2036099999999976
0
LINE
8
BLACK
6
CONTINUOUS
10
152.3956349999999986
20
-49.2036099999999976
11
151.7073450000000037
21
-48.6289839999999955
0
LINE
8
BLACK
6
CONTINUOUS
10
151.7073450000000037
20
-48.6289839999999955
11
150.9939669999999978
21
-48.0858160000000012
0
LINE
8
BLACK
6
CONTINUOUS
10
150.9939669999999978
20
-48.0858160000000012
11
150.256937999999991
21
-47.5752009999999999
0
LINE
8
BLACK
6
CONTINUOUS
10
150.256937999999991
20
-47.5752009999999999
11
149.4977429999999856
21
-47.0981669999999966
0
LINE
8
BLACK
6
CONTINUOUS
10
149.4977429999999856
20
-47.0981669999999966
11
148.7179099999999892
21
-46.6556749999999951
0
LINE
8
BLACK
6
CONTINUOUS
10
148.7179099999999892
20
-46.6556749999999951
11
147.9190099999999859
21
-46.2486150000000009
0
LINE
8
BLACK
6
CONTINUOUS
10
147.9190099999999859
20
-46.2486150000000009
11
147.1026520000000062
21
-45.8778079999999946
0
LINE
8
BLACK
6
CONTINUOUS
10
147.1026520000000062
20
-45.8778079999999946
11
146.2704799999999921
21
-45.5439989999999995
0
LINE
8
BLACK
6
CONTINUOUS
10
146.2704799999999921
20
-45.5439989999999995
11
145.4241690000000062
21
-45.2478619999999978
0
LINE
8
BLACK
6
CONTINUOUS
10
145.4241690000000062
20
-45.2478619999999978
11
144.5654240000000073
21
-44.9899929999999983
0
LINE
8
BLACK
6
CONTINUOUS
10
144.5654240000000073
20
-44.9899929999999983
11
143.6959750000000042
21
-44.7709109999999981
0
LINE
8
BLACK
6
CONTINUOUS
10
143.6959750000000042
20
-44.7709109999999981
11
142.8175719999999842
21
-44.5910569999999993
0
LINE
8
BLACK
6
CONTINUOUS
10
142.8175719999999842
20
-44.5910569999999993
11
141.9319849999999974
21
-44.4507939999999948
0
LINE
8
BLACK
6
CONTINUOUS
10
141.9319849999999974
20
-44.4507939999999948
11
141.0409960000000069
21
-44.3504039999999975
0
LINE
8
BLACK
6
CONTINUOUS
10
141.0409960000000069
20
-44.3504039999999975
11
140.1464009999999973
21
-44.2900889999999947
0
LINE
8
BLACK
6
CONTINUOUS
10
140.1464009999999973
20
-44.2900889999999947
11
139.25
21
-44.2699700000000007
0
LINE
8
BLACK
6
CONTINUOUS
10
139.25
20
-44.2699700000000007
11
138.3535990000000027
21
-44.2900889999999947
0
LINE
8
BLACK
6
CONTINUOUS
10
138.3535990000000027
20
-44.2900889999999947
11
137.4590039999999931
21
-44.3504039999999975
0
LINE
8
BLACK
6
CONTINUOUS
10
137.4590039999999931
20
-44.3504039999999975
11
136.5680150000000026
21
-44.4507939999999948
0
LINE
8
BLACK
6
CONTINUOUS
10
136.5680150000000026
20
-44.4507939999999948
11
135.6824279999999874
21
-44.5910569999999993
0
LINE
8
BLACK
6
CONTINUOUS
10
135.6824279999999874
20
-44.5910569999999993
11
134.8040249999999958
21
-44.7709109999999981
0
LINE
8
BLACK
6
CONTINUOUS
10
134.8040249999999958
20
-44.7709109999999981
11
133.9345759999999927
21
-44.9899929999999983
0
LINE
8
BLACK
6
CONTINUOUS
10
133.9345759999999927
20
-44.9899929999999983
11
133.0758309999999938
21
-45.2478619999999978
0
LINE
8
BLACK
6
CONTINUOUS
10
133.0758309999999938
20
-45.2478619999999978
11
132.2295200000000079
21
-45.5439989999999995
0
LINE
8
BLACK
6
CONTINUOUS
10
132.2295200000000079
20
-45.5439989999999995
11
131.3973479999999938
21
-45.8778079999999946
0
LINE
8
BLACK
6
CONTINUOUS
10
131.3973479999999938
20
-45.8778079999999946
11
130.5809899999999857
21
-46.2486150000000009
0
LINE
8
BLACK
6
CONTINUOUS
10
130.5809899999999857
20
-46.2486150000000009
11
129.7820899999999824
21
-46.6556749999999951
0
LINE
8
BLACK
6
CONTINUOUS
10
129.7820899999999824
20
-46.6556749999999951
11
129.002256999999986
21
-47.0981669999999966
0
LINE
8
BLACK
6
CONTINUOUS
10
129.002256999999986
20
-47.0981669999999966
11
128.2430619999999806
21
-47.5752009999999999
0
LINE
8
BLACK
6
CONTINUOUS
10
128.2430619999999806
20
-47.5752009999999999
11
127.506032999999988
21
-48.0858160000000012
0
LINE
8
BLACK
6
CONTINUOUS
10
127.506032999999988
20
-48.0858160000000012
11
126.7926549999999963
21
-48.6289839999999955
0
LINE
8
BLACK
6
CONTINUOUS
10
126.7926549999999963
20
-48.6289839999999955
11
126.1043650000000014
21
-49.2036099999999976
0
LINE
8
BLACK
6
CONTINUOUS
10
126.1043650000000014
20
-49.2036099999999976
11
125.442547999999988
21
-49.8085370000000012
0
LINE
8
BLACK
6
CONTINUOUS
10
125.442547999999988
20
-49.8085370000000012
11
124.8085370000000012
21
-50.4425479999999951
0
LINE
8
BLACK
6
CONTINUOUS
10
124.8085370000000012
20
-50.4425479999999951
11
124.2036099999999976
21
-51.1043649999999943
0
LINE
8
BLACK
6
CONTINUOUS
10
124.2036099999999976
20
-51.1043649999999943
11
123.6289839999999884
21
-51.7926549999999963
0
LINE
8
BLACK
6
CONTINUOUS
10
123.6289839999999884
20
-51.7926549999999963
11
123.0858159999999941
21
-52.5060329999999951
0
LINE
8
BLACK
6
CONTINUOUS
10
123.0858159999999941
20
-52.5060329999999951
11
122.5752009999999927
21
-53.2430619999999948
0
LINE
8
BLACK
6
CONTINUOUS
10
122.5752009999999927
20
-53.2430619999999948
11
122.0981669999999895
21
-54.0022570000000002
0
LINE
8
BLACK
6
CONTINUOUS
10
122.0981669999999895
20
-54.0022570000000002
11
121.655674999999988
21
-54.7820899999999966
0
LINE
8
BLACK
6
CONTINUOUS
10
121.655674999999988
20
-54.7820899999999966
11
121.2486150000000009
21
-55.5809899999999999
0
LINE
8
BLACK
6
CONTINUOUS
10
121.2486150000000009
20
-55.5809899999999999
11
120.8778079999999875
21
-56.3973480000000009
0
LINE
8
BLACK
6
CONTINUOUS
10
120.8778079999999875
20
-56.3973480000000009
11
120.5439989999999995
21
-57.2295200000000008
0
LINE
8
BLACK
6
CONTINUOUS
10
120.5439989999999995
20
-57.2295200000000008
11
120.2478619999999978
21
-58.0758310000000009
0
LINE
8
BLACK
6
CONTINUOUS
10
120.2478619999999978
20
-58.0758310000000009
11
119.9899929999999983
21
-58.9345759999999999
0
LINE
8
BLACK
6
CONTINUOUS
10
119.9899929999999983
20
-58.9345759999999999
11
119.7709109999999981
21
-59.8040249999999958
0
LINE
8
BLACK
6
CONTINUOUS
10
119.7709109999999981
20
-59.8040249999999958
11
119.5910569999999922
21
-60.6824279999999945
0
LINE
8
BLACK
6
CONTINUOUS
10
119.5910569999999922
20
-60.6824279999999945
11
119.4507939999999877
21
-61.5680149999999955
0
LINE
8
BLACK
6
CONTINUOUS
10
119.4507939999999877
20
-61.5680149999999955
11
119.3504039999999975
21
-62.4590040000000002
0
LINE
8
BLACK
6
CONTINUOUS
10
119.3504039999999975
20
-62.4590040000000002
11
119.2900889999999947
21
-63.3535989999999956
0
LINE
8
BLACK
6
CONTINUOUS
10
119.2900889999999947
20
-63.3535989999999956
11
119.2699700000000007
21
-64.25
0
LINE
8
BLACK
6
CONTINUOUS
10
119.2699700000000007
20
-64.25
11
119.2900889999999947
21
-65.1464009999999973
0
LINE
8
BLACK
6
CONTINUOUS
10
122.3999999999999915
20
-26.375
11
122.6421939999999893
21
-26.3931499999999986
0
LINE
8
BLACK
6
CONTINUOUS
10
122.6421939999999893
20
-26.3931499999999986
11
122.8789769999999919
21
-26.4471939999999996
0
LINE
8
BLACK
6
CONTINUOUS
10
122.8789769999999919
20
-26.4471939999999996
11
123.1050609999999921
21
-26.5359259999999999
0
LINE
8
BLACK
6
CONTINUOUS
10
123.1050609999999921
20
-26.5359259999999999
11
123.3153949999999952
21
-26.6573619999999991
0
LINE
8
BLACK
6
CONTINUOUS
10
123.3153949999999952
20
-26.6573619999999991
11
123.5052809999999965
21
-26.8087909999999994
0
LINE
8
BLACK
6
CONTINUOUS
10
123.5052809999999965
20
-26.8087909999999994
11
123.6704759999999936
21
-26.9868290000000002
0
LINE
8
BLACK
6
CONTINUOUS
10
123.6704759999999936
20
-26.9868290000000002
11
123.8072909999999922
21
-27.1875
0
LINE
8
BLACK
6
CONTINUOUS
10
123.8072909999999922
20
-27.1875
11
123.9126699999999914
21
-27.4063209999999984
0
LINE
8
BLACK
6
CONTINUOUS
10
123.9126699999999914
20
-27.4063209999999984
11
123.984257999999997
21
-27.6384030000000003
0
LINE
8
BLACK
6
CONTINUOUS
10
123.984257999999997
20
-27.6384030000000003
11
124.0204559999999958
21
-27.8785639999999972
0
LINE
8
BLACK
6
CONTINUOUS
10
124.0204559999999958
20
-27.8785639999999972
11
124.0204559999999958
21
-28.1214359999999992
0
LINE
8
BLACK
6
CONTINUOUS
10
124.0204559999999958
20
-28.1214359999999992
11
123.984257999999997
21
-28.3615969999999997
0
LINE
8
BLACK
6
CONTINUOUS
10
123.984257999999997
20
-28.3615969999999997
11
123.9126699999999914
21
-28.5936789999999981
0
LINE
8
BLACK
6
CONTINUOUS
10
123.9126699999999914
20
-28.5936789999999981
11
123.8072909999999922
21
-28.8125
0
LINE
8
BLACK
6
CONTINUOUS
10
123.8072909999999922
20
-28.8125
11
123.6704759999999936
21
-29.0131709999999998
0
LINE
8
BLACK
6
CONTINUOUS
10
123.6704759999999936
20
-29.0131709999999998
11
123.5052809999999965
21
-29.1912089999999971
0
LINE
8
BLACK
6
CONTINUOUS
10
123.5052809999999965
20
-29.1912089999999971
11
123.3153949999999952
21
-29.3426379999999973
0
LINE
8
BLACK
6
CONTINUOUS
10
123.3153949999999952
20
-29.3426379999999973
11
123.1050609999999921
21
-29.4640740000000001
0
LINE
8
BLACK
6
CONTINUOUS
10
123.1050609999999921
20
-29.4640740000000001
11
122.8789769999999919
21
-29.5528060000000004
0
LINE
8
BLACK
6
CONTINUOUS
10
122.8789769999999919
20
-29.5528060000000004
11
122.6421939999999893
21
-29.6068499999999979
0
LINE
8
BLACK
6
CONTINUOUS
10
122.6421939999999893
20
-29.6068499999999979
11
122.3999999999999915
21
-29.625
0
LINE
8
BLACK
6
CONTINUOUS
10
122.3999999999999915
20
-29.625
11
120.5999999999999943
21
-29.625
0
LINE
8
BLACK
6
CONTINUOUS
10
120.5999999999999943
20
-29.625
11
120.3578059999999965
21
-29.6068499999999979
0
LINE
8
BLACK
6
CONTINUOUS
10
120.3578059999999965
20
-29.6068499999999979
11
120.1210229999999939
21
-29.5528060000000004
0
LINE
8
BLACK
6
CONTINUOUS
10
120.1210229999999939
20
-29.5528060000000004
11
119.8949389999999937
21
-29.4640740000000001
0
LINE
8
BLACK
6
CONTINUOUS
10
119.8949389999999937
20
-29.4640740000000001
11
119.6846049999999906
21
-29.3426379999999973
0
LINE
8
BLACK
6
CONTINUOUS
10
119.6846049999999906
20
-29.3426379999999973
11
119.4947189999999893
21
-29.1912089999999971
0
LINE
8
BLACK
6
CONTINUOUS
10
119.4947189999999893
20
-29.1912089999999971
11
119.3295239999999922
21
-29.0131709999999998
0
LINE
8
BLACK
6
CONTINUOUS
10
119.3295239999999922
20
-29.0131709999999998
11
119.1927089999999936
21
-28.8125
0
LINE
8
BLACK
6
CONTINUOUS
10
119.1927089999999936
20
-28.8125
11
119.0873299999999944
21
-28.5936789999999981
0
LINE
8
BLACK
6
CONTINUOUS
10
119.0873299999999944
20
-28.5936789999999981
11
119.0157419999999888
21
-28.3615969999999997
0
LINE
8
BLACK
6
CONTINUOUS
10
119.0157419999999888
20
-28.3615969999999997
11
118.97954399999999
21
-28.1214359999999992
0
LINE
8
BLACK
6
CONTINUOUS
10
118.97954399999999
20
-28.1214359999999992
11
118.97954399999999
21
-27.8785639999999972
0
LINE
8
BLACK
6
CONTINUOUS
10
118.97954399999999
20
-27.8785639999999972
11
119.0157419999999888
21
-27.6384030000000003
0
LINE
8
BLACK
6
CONTINUOUS
10
119.0157419999999888
20
-27.6384030000000003
11
119.0873299999999944
21
-27.4063209999999984
0
LINE
8
BLACK
6
CONTINUOUS
10
119.0873299999999944
20
-27.4063209999999984
11
119.1927089999999936
21
-27.1875
0
LINE
8
BLACK
6
CONTINUOUS
10
119.1927089999999936
20
-27.1875
11
119.3295239999999922
21
-26.9868290000000002
0
LINE
8
BLACK
6
CONTINUOUS
10
119.3295239999999922
20
-26.9868290000000002
11
119.4947189999999893
21
-26.8087909999999994
0
LINE
8
BLACK
6
CONTINUOUS
10
119.4947189999999893
20
-26.8087909999999994
11
119.6846049999999906
21
-26.6573619999999991
0
LINE
8
BLACK
6
CONTINUOUS
10
119.6846049999999906
20
-26.6573619999999991
11
119.8949389999999937
21
-26.5359259999999999
0
LINE
8
BLACK
6
CONTINUOUS
10
119.8949389999999937
20
-26.5359259999999999
11
120.1210229999999939
21
-26.4471939999999996
0
LINE
8
BLACK
6
CONTINUOUS
10
120.1210229999999939
20
-26.4471939999999996
11
120.3578059999999965
21
-26.3931499999999986
0
LINE
8
BLACK
6
CONTINUOUS
10
120.3578059999999965
20
-26.3931499999999986
11
120.5999999999999943
21
-26.375
0
LINE
8
BLACK
6
CONTINUOUS
10
120.5999999999999943
20
-26.375
11
122.3999999999999915
21
-26.375
0
LINE
8
BLACK
6
CONTINUOUS
10
120.5999999999999943
20
-26.4249999999999972
11
120.4819699999999898
21
-26.4249999999999972
0
LINE
8
BLACK
6
CONTINUOUS
10
120.4819699999999898
20
-26.4249999999999972
11
120.2485469999999879
21
-26.4601829999999971
0
LINE
8
BLACK
6
CONTINUOUS
10
120.2485469999999879
20
-26.4601829999999971
11
120.0229749999999882
21
-26.5297629999999991
0
LINE
8
BLACK
6
CONTINUOUS
10
120.0229749999999882
20
-26.5297629999999991
11
119.8102919999999898
21
-26.6321859999999973
0
LINE
8
BLACK
6
CONTINUOUS
10
119.8102919999999898
20
-26.6321859999999973
11
119.615249999999989
21
-26.7651629999999976
0
LINE
8
BLACK
6
CONTINUOUS
10
119.615249999999989
20
-26.7651629999999976
11
119.4422059999999988
21
-26.9257239999999989
0
LINE
8
BLACK
6
CONTINUOUS
10
119.4422059999999988
20
-26.9257239999999989
11
119.2950249999999954
21
-27.110282999999999
0
LINE
8
BLACK
6
CONTINUOUS
10
119.2950249999999954
20
-27.110282999999999
11
119.1769949999999909
21
-27.3147169999999981
0
LINE
8
BLACK
6
CONTINUOUS
10
119.1769949999999909
20
-27.3147169999999981
11
119.0907529999999923
21
-27.5344589999999982
0
LINE
8
BLACK
6
CONTINUOUS
10
119.0907529999999923
20
-27.5344589999999982
11
119.0382249999999971
21
-27.7645999999999979
0
LINE
8
BLACK
6
CONTINUOUS
10
119.0382249999999971
20
-27.7645999999999979
11
119.0205839999999995
21
-28.
0
LINE
8
BLACK
6
CONTINUOUS
10
119.0205839999999995
20
-28.
11
119.0382249999999971
21
-28.2353999999999985
0
LINE
8
BLACK
6
CONTINUOUS
10
119.0382249999999971
20
-28.2353999999999985
11
119.0907529999999923
21
-28.4655409999999982
0
LINE
8
BLACK
6
CONTINUOUS
10
119.0907529999999923
20
-28.4655409999999982
11
119.1769949999999909
21
-28.6852829999999983
0
LINE
8
BLACK
6
CONTINUOUS
10
119.1769949999999909
20
-28.6852829999999983
11
119.2950249999999954
21
-28.8897169999999974
0
LINE
8
BLACK
6
CONTINUOUS
10
119.2950249999999954
20
-28.8897169999999974
11
119.4422059999999988
21
-29.0742759999999976
0
LINE
8
BLACK
6
CONTINUOUS
10
119.4422059999999988
20
-29.0742759999999976
11
119.615249999999989
21
-29.2348369999999989
0
LINE
8
BLACK
6
CONTINUOUS
10
119.615249999999989
20
-29.2348369999999989
11
119.8102919999999898
21
-29.3678139999999992
0
LINE
8
BLACK
6
CONTINUOUS
10
119.8102919999999898
20
-29.3678139999999992
11
120.0229749999999882
21
-29.4702369999999974
0
LINE
8
BLACK
6
CONTINUOUS
10
120.0229749999999882
20
-29.4702369999999974
11
120.2485469999999879
21
-29.5398169999999993
0
LINE
8
BLACK
6
CONTINUOUS
10
120.2485469999999879
20
-29.5398169999999993
11
120.4819699999999898
21
-29.5749999999999993
0
LINE
8
BLACK
6
CONTINUOUS
10
120.4819699999999898
20
-29.5749999999999993
11
120.5999999999999943
21
-29.5749999999999993
0
LINE
8
BLACK
6
CONTINUOUS
10
120.5999999999999943
20
-29.5749999999999993
11
122.3999999999999915
21
-29.5749999999999993
0
LINE
8
BLACK
6
CONTINUOUS
10
122.3999999999999915
20
-29.5749999999999993
11
122.518029999999996
21
-29.5749999999999993
0
LINE
8
BLACK
6
CONTINUOUS
10
122.518029999999996
20
-29.5749999999999993
11
122.7514529999999979
21
-29.5398169999999993
0
LINE
8
BLACK
6
CONTINUOUS
10
122.7514529999999979
20
-29.5398169999999993
11
122.9770249999999976
21
-29.4702369999999974
0
LINE
8
BLACK
6
CONTINUOUS
10
122.9770249999999976
20
-29.4702369999999974
11
123.189707999999996
21
-29.3678139999999992
0
LINE
8
BLACK
6
CONTINUOUS
10
123.189707999999996
20
-29.3678139999999992
11
123.3847499999999968
21
-29.2348369999999989
0
LINE
8
BLACK
6
CONTINUOUS
10
123.3847499999999968
20
-29.2348369999999989
11
123.5577940000000012
21
-29.0742759999999976
0
LINE
8
BLACK
6
CONTINUOUS
10
123.5577940000000012
20
-29.0742759999999976
11
123.7049749999999904
21
-28.8897169999999974
0
LINE
8
BLACK
6
CONTINUOUS
10
123.7049749999999904
20
-28.8897169999999974
11
123.8230049999999949
21
-28.6852829999999983
0
LINE
8
BLACK
6
CONTINUOUS
10
123.8230049999999949
20
-28.6852829999999983
11
123.9092469999999935
21
-28.4655409999999982
0
LINE
8
BLACK
6
CONTINUOUS
10
123.9092469999999935
20
-28.4655409999999982
11
123.9617749999999887
21
-28.2353999999999985
0
LINE
8
BLACK
6
CONTINUOUS
10
123.9617749999999887
20
-28.2353999999999985
11
123.9794160000000005
21
-28.
0
LINE
8
BLACK
6
CONTINUOUS
10
123.9794160000000005
20
-28.
11
123.9617749999999887
21
-27.7645999999999979
0
LINE
8
BLACK
6
CONTINUOUS
10
123.9617749999999887
20
-27.7645999999999979
11
123.9092469999999935
21
-27.5344589999999982
0
LINE
8
BLACK
6
CONTINUOUS
10
123.9092469999999935
20
-27.5344589999999982
11
123.8230049999999949
21
-27.3147169999999981
0
LINE
8
BLACK
6
CONTINUOUS
10
123.8230049999999949
20
-27.3147169999999981
11
123.7049749999999904
21
-27.110282999999999
0
LINE
8
BLACK
6
CONTINUOUS
10
123.7049749999999904
20
-27.110282999999999
11
123.5577940000000012
21
-26.9257239999999989
0
LINE
8
BLACK
6
CONTINUOUS
10
123.5577940000000012
20
-26.9257239999999989
11
123.3847499999999968
21
-26.7651629999999976
0
LINE
8
BLACK
6
CONTINUOUS
10
123.3847499999999968
20
-26.7651629999999976
11
123.189707999999996
21
-26.6321859999999973
0
LINE
8
BLACK
6
CONTINUOUS
10
123.189707999999996
20
-26.6321859999999973
11
122.9770249999999976
21
-26.5297629999999991
0
LINE
8
BLACK
6
CONTINUOUS
10
122.9770249999999976
20
-26.5297629999999991
11
122.7514529999999979
21
-26.4601829999999971
0
LINE
8
BLACK
6
CONTINUOUS
10
122.7514529999999979
20
-26.4601829999999971
11
122.518029999999996
21
-26.4249999999999972
0
LINE
8
BLACK
6
CONTINUOUS
10
122.518029999999996
20
-26.4249999999999972
11
122.3999999999999915
21
-26.4249999999999972
0
LINE
8
BLACK
6
CONTINUOUS
10
122.3999999999999915
20
-26.4249999999999972
11
120.5999999999999943
21
-26.4249999999999972
0
LINE
8
BLACK
6
CONTINUOUS
10
157.9000000000000057
20
-26.375
11
158.1421939999999893
21
-26.3931499999999986
0
LINE
8
BLACK
6
CONTINUOUS
10
158.1421939999999893
20
-26.3931499999999986
11
158.3789769999999919
21
-26.4471939999999996
0
LINE
8
BLACK
6
CONTINUOUS
10
158.3789769999999919
20
-26.4471939999999996
11
158.6050610000000063
21
-26.5359259999999999
0
LINE
8
BLACK
6
CONTINUOUS
10
158.6050610000000063
20
-26.5359259999999999
11
158.8153949999999952
21
-26.6573619999999991
0
LINE
8
BLACK
6
CONTINUOUS
10
158.8153949999999952
20
-26.6573619999999991
11
159.0052809999999965
21
-26.8087909999999994
0
LINE
8
BLACK
6
CONTINUOUS
10
159.0052809999999965
20
-26.8087909999999994
11
159.1704759999999794
21
-26.9868290000000002
0
LINE
8
BLACK
6
CONTINUOUS
10
159.1704759999999794
20
-26.9868290000000002
11
159.3072909999999922
21
-27.1875
0
LINE
8
BLACK
6
CONTINUOUS
10
159.3072909999999922
20
-27.1875
11
159.4126699999999914
21
-27.4063209999999984
0
LINE
8
BLACK
6
CONTINUOUS
10
159.4126699999999914
20
-27.4063209999999984
11
159.4842579999999828
21
-27.6384030000000003
0
LINE
8
BLACK
6
CONTINUOUS
10
159.4842579999999828
20
-27.6384030000000003
11
159.5204559999999958
21
-27.8785639999999972
0
LINE
8
BLACK
6
CONTINUOUS
10
159.5204559999999958
20
-27.8785639999999972
11
159.5204559999999958
21
-28.1214359999999992
0
LINE
8
BLACK
6
CONTINUOUS
10
159.5204559999999958
20
-28.1214359999999992
11
159.4842579999999828
21
-28.3615969999999997
0
LINE
8
BLACK
6
CONTINUOUS
10
159.4842579999999828
20
-28.3615969999999997
11
159.4126699999999914
21
-28.5936789999999981
0
LINE
8
BLACK
6
CONTINUOUS
10
159.4126699999999914
20
-28.5936789999999981
11
159.3072909999999922
21
-28.8125
0
LINE
8
BLACK
6
CONTINUOUS
10
159.3072909999999922
20
-28.8125
11
159.1704759999999794
21
-29.0131709999999998
0
LINE
8
BLACK
6
CONTINUOUS
10
159.1704759999999794
20
-29.0131709999999998
11
159.0052809999999965
21
-29.1912089999999971
0
LINE
8
BLACK
6
CONTINUOUS
10
159.0052809999999965
20
-29.1912089999999971
11
158.8153949999999952
21
-29.3426379999999973
0
LINE
8
BLACK
6
CONTINUOUS
10
158.8153949999999952
20
-29.3426379999999973
11
158.6050610000000063
21
-29.4640740000000001
0
LINE
8
BLACK
6
CONTINUOUS
10
158.6050610000000063
20
-29.4640740000000001
11
158.3789769999999919
21
-29.5528060000000004
0
LINE
8
BLACK
6
CONTINUOUS
10
158.3789769999999919
20
-29.5528060000000004
11
158.1421939999999893
21
-29.6068499999999979
0
LINE
8
BLACK
6
CONTINUOUS
10
158.1421939999999893
20
-29.6068499999999979
11
157.9000000000000057
21
-29.625
0
LINE
8
BLACK
6
CONTINUOUS
10
157.9000000000000057
20
-29.625
11
156.0999999999999943
21
-29.625
0
LINE
8
BLACK
6
CONTINUOUS
10
156.0999999999999943
20
-29.625
11
155.8578059999999823
21
-29.6068499999999979
0
LINE
8
BLACK
6
CONTINUOUS
10
155.8578059999999823
20
-29.6068499999999979
11
155.6210229999999797
21
-29.5528060000000004
0
LINE
8
BLACK
6
CONTINUOUS
10
155.6210229999999797
20
-29.5528060000000004
11
155.3949389999999937
21
-29.4640740000000001
0
LINE
8
BLACK
6
CONTINUOUS
10
155.3949389999999937
20
-29.4640740000000001
11
155.1846050000000048
21
-29.3426379999999973
0
LINE
8
BLACK
6
CONTINUOUS
10
155.1846050000000048
20
-29.3426379999999973
11
154.9947190000000035
21
-29.1912089999999971
0
LINE
8
BLACK
6
CONTINUOUS
10
154.9947190000000035
20
-29.1912089999999971
11
154.8295239999999922
21
-29.0131709999999998
0
LINE
8
BLACK
6
CONTINUOUS
10
154.8295239999999922
20
-29.0131709999999998
11
154.6927089999999794
21
-28.8125
0
LINE
8
BLACK
6
CONTINUOUS
10
154.6927089999999794
20
-28.8125
11
154.5873299999999801
21
-28.5936789999999981
0
LINE
8
BLACK
6
CONTINUOUS
10
154.5873299999999801
20
-28.5936789999999981
11
154.5157419999999888
21
-28.3615969999999997
0
LINE
8
BLACK
6
CONTINUOUS
10
154.5157419999999888
20
-28.3615969999999997
11
154.4795440000000042
21
-28.1214359999999992
0
LINE
8
BLACK
6
CONTINUOUS
10
154.4795440000000042
20
-28.1214359999999992
11
154.4795440000000042
21
-27.8785639999999972
0
LINE
8
BLACK
6
CONTINUOUS
10
154.4795440000000042
20
-27.8785639999999972
11
154.5157419999999888
21
-27.6384030000000003
0
LINE
8
BLACK
6
CONTINUOUS
10
154.5157419999999888
20
-27.6384030000000003
11
154.5873299999999801
21
-27.4063209999999984
0
LINE
8
BLACK
6
CONTINUOUS
10
154.5873299999999801
20
-27.4063209999999984
11
154.6927089999999794
21
-27.1875
0
LINE
8
BLACK
6
CONTINUOUS
10
154.6927089999999794
20
-27.1875
11
154.8295239999999922
21
-26.9868290000000002
0
LINE
8
BLACK
6
CONTINUOUS
10
154.8295239999999922
20
-26.9868290000000002
11
154.9947190000000035
21
-26.8087909999999994
0
LINE
8
BLACK
6
CONTINUOUS
10
154.9947190000000035
20
-26.8087909999999994
11
155.1846050000000048
21
-26.6573619999999991
0
LINE
8
BLACK
6
CONTINUOUS
10
155.1846050000000048
20
-26.6573619999999991
11
155.3949389999999937
21
-26.5359259999999999
0
LINE
8
BLACK
6
CONTINUOUS
10
155.3949389999999937
20
-26.5359259999999999
11
155.6210229999999797
21
-26.4471939999999996
0
LINE
8
BLACK
6
CONTINUOUS
10
155.6210229999999797
20
-26.4471939999999996
11
155.8578059999999823
21
-26.3931499999999986
0
LINE
8
BLACK
6
CONTINUOUS
10
155.8578059999999823
20
-26.3931499999999986
11
156.0999999999999943
21
-26.375
0
LINE
8
BLACK
6
CONTINUOUS
10
156.0999999999999943
20
-26.375
11
157.9000000000000057
21
-26.375
0
LINE
8
BLACK
6
CONTINUOUS
10
156.0999999999999943
20
-26.4249999999999972
11
155.9819699999999898
21
-26.4249999999999972
0
LINE
8
BLACK
6
CONTINUOUS
10
155.9819699999999898
20
-26.4249999999999972
11
155.7485470000000021
21
-26.4601829999999971
0
LINE
8
BLACK
6
CONTINUOUS
10
155.7485470000000021
20
-26.4601829999999971
11
155.5229750000000024
21
-26.5297629999999991
0
LINE
8
BLACK
6
CONTINUOUS
10
155.5229750000000024
20
-26.5297629999999991
11
155.310292000000004
21
-26.6321859999999973
0
LINE
8
BLACK
6
CONTINUOUS
10
155.310292000000004
20
-26.6321859999999973
11
155.1152500000000032
21
-26.7651629999999976
0
LINE
8
BLACK
6
CONTINUOUS
10
155.1152500000000032
20
-26.7651629999999976
11
154.9422059999999988
21
-26.9257239999999989
0
LINE
8
BLACK
6
CONTINUOUS
10
154.9422059999999988
20
-26.9257239999999989
11
154.7950249999999812
21
-27.110282999999999
0
LINE
8
BLACK
6
CONTINUOUS
10
154.7950249999999812
20
-27.110282999999999
11
154.6769950000000051
21
-27.3147169999999981
0
LINE
8
BLACK
6
CONTINUOUS
10
154.6769950000000051
20
-27.3147169999999981
11
154.5907530000000065
21
-27.5344589999999982
0
LINE
8
BLACK
6
CONTINUOUS
10
154.5907530000000065
20
-27.5344589999999982
11
154.5382249999999829
21
-27.7645999999999979
0
LINE
8
BLACK
6
CONTINUOUS
10
154.5382249999999829
20
-27.7645999999999979
11
154.5205839999999853
21
-28.
0
LINE
8
BLACK
6
CONTINUOUS
10
154.5205839999999853
20
-28.
11
154.5382249999999829
21
-28.2353999999999985
0
LINE
8
BLACK
6
CONTINUOUS
10
154.5382249999999829
20
-28.2353999999999985
11
154.5907530000000065
21
-28.4655409999999982
0
LINE
8
BLACK
6
CONTINUOUS
10
154.5907530000000065
20
-28.4655409999999982
11
154.6769950000000051
21
-28.6852829999999983
0
LINE
8
BLACK
6
CONTINUOUS
10
154.6769950000000051
20
-28.6852829999999983
11
154.7950249999999812
21
-28.8897169999999974
0
LINE
8
BLACK
6
CONTINUOUS
10
154.7950249999999812
20
-28.8897169999999974
11
154.9422059999999988
21
-29.0742759999999976
0
LINE
8
BLACK
6
CONTINUOUS
10
154.9422059999999988
20
-29.0742759999999976
11
155.1152500000000032
21
-29.2348369999999989
0
LINE
8
BLACK
6
CONTINUOUS
10
155.1152500000000032
20
-29.2348369999999989
11
155.310292000000004
21
-29.3678139999999992
0
LINE
8
BLACK
6
CONTINUOUS
10
155.310292000000004
20
-29.3678139999999992
11
155.5229750000000024
21
-29.4702369999999974
0
LINE
8
BLACK
6
CONTINUOUS
10
155.5229750000000024
20
-29.4702369999999974
11
155.7485470000000021
21
-29.5398169999999993
0
LINE
8
BLACK
6
CONTINUOUS
10
155.7485470000000021
20
-29.5398169999999993
11
155.9819699999999898
21
-29.5749999999999993
0
LINE
8
BLACK
6
CONTINUOUS
10
155.9819699999999898
20
-29.5749999999999993
11
156.0999999999999943
21
-29.5749999999999993
0
LINE
8
BLACK
6
CONTINUOUS
10
156.0999999999999943
20
-29.5749999999999993
11
157.9000000000000057
21
-29.5749999999999993
0
LINE
8
BLACK
6
CONTINUOUS
10
157.9000000000000057
20
-29.5749999999999993
11
158.0180299999999818
21
-29.5749999999999993
0
LINE
8
BLACK
6
CONTINUOUS
10
158.0180299999999818
20
-29.5749999999999993
11
158.2514529999999979
21
-29.5398169999999993
0
LINE
8
BLACK
6
CONTINUOUS
10
158.2514529999999979
20
-29.5398169999999993
11
158.4770249999999976
21
-29.4702369999999974
0
LINE
8
BLACK
6
CONTINUOUS
10
158.4770249999999976
20
-29.4702369999999974
11
158.689707999999996
21
-29.3678139999999992
0
LINE
8
BLACK
6
CONTINUOUS
10
158.689707999999996
20
-29.3678139999999992
11
158.8847499999999968
21
-29.2348369999999989
0
LINE
8
BLACK
6
CONTINUOUS
10
158.8847499999999968
20
-29.2348369999999989
11
159.0577940000000012
21
-29.0742759999999976
0
LINE
8
BLACK
6
CONTINUOUS
10
159.0577940000000012
20
-29.0742759999999976
11
159.2049749999999904
21
-28.8897169999999974
0
LINE
8
BLACK
6
CONTINUOUS
10
159.2049749999999904
20
-28.8897169999999974
11
159.3230049999999949
21
-28.6852829999999983
0
LINE
8
BLACK
6
CONTINUOUS
10
159.3230049999999949
20
-28.6852829999999983
11
159.4092469999999935
21
-28.4655409999999982
0
LINE
8
BLACK
6
CONTINUOUS
10
159.4092469999999935
20
-28.4655409999999982
11
159.4617749999999887
21
-28.2353999999999985
0
LINE
8
BLACK
6
CONTINUOUS
10
159.4617749999999887
20
-28.2353999999999985
11
159.4794159999999863
21
-28.
0
LINE
8
BLACK
6
CONTINUOUS
10
159.4794159999999863
20
-28.
11
159.4617749999999887
21
-27.7645999999999979
0
LINE
8
BLACK
6
CONTINUOUS
10
159.4617749999999887
20
-27.7645999999999979
11
159.4092469999999935
21
-27.5344589999999982
0
LINE
8
BLACK
6
CONTINUOUS
10
159.4092469999999935
20
-27.5344589999999982
11
159.3230049999999949
21
-27.3147169999999981
0
LINE
8
BLACK
6
CONTINUOUS
10
159.3230049999999949
20
-27.3147169999999981
11
159.2049749999999904
21
-27.110282999999999
0
LINE
8
BLACK
6
CONTINUOUS
10
159.2049749999999904
20
-27.110282999999999
11
159.0577940000000012
21
-26.9257239999999989
0
LINE
8
BLACK
6
CONTINUOUS
10
159.0577940000000012
20
-26.9257239999999989
11
158.8847499999999968
21
-26.7651629999999976
0
LINE
8
BLACK
6
CONTINUOUS
10
158.8847499999999968
20
-26.7651629999999976
11
158.689707999999996
21
-26.6321859999999973
0
LINE
8
BLACK
6
CONTINUOUS
10
158.689707999999996
20
-26.6321859999999973
11
158.4770249999999976
21
-26.5297629999999991
0
LINE
8
BLACK
6
CONTINUOUS
10
158.4770249999999976
20
-26.5297629999999991
11
158.2514529999999979
21
-26.4601829999999971
0
LINE
8
BLACK
6
CONTINUOUS
10
158.2514529999999979
20
-26.4601829999999971
11
158.0180299999999818
21
-26.4249999999999972
0
LINE
8
BLACK
6
CONTINUOUS
10
158.0180299999999818
20
-26.4249999999999972
11
157.9000000000000057
21
-26.4249999999999972
0
LINE
8
BLACK
6
CONTINUOUS
10
157.9000000000000057
20
-26.4249999999999972
11
156.0999999999999943
21
-26.4249999999999972
0
LINE
8
BLACK
6
CONTINUOUS
10
164.5095670000000041
20
-24.9769030000000001
11
164.5230969999999786
21
-24.9904329999999995
0
LINE
8
BLACK
6
CONTINUOUS
10
164.5230969999999786
20
-24.9904329999999995
11
164.5250000000000057
21
-25.
0
LINE
8
BLACK
6
CONTINUOUS
10
164.5250000000000057
20
-25.
11
164.5250000000000057
21
-153.5
0
LINE
8
BLACK
6
CONTINUOUS
10
164.5250000000000057
20
-153.5
11
164.5230969999999786
21
-153.5095670000000041
0
LINE
8
BLACK
6
CONTINUOUS
10
164.5230969999999786
20
-153.5095670000000041
11
164.5095670000000041
21
-153.523097000000007
0
LINE
8
BLACK
6
CONTINUOUS
10
164.5095670000000041
20
-153.523097000000007
11
164.5
21
-153.5250000000000057
0
LINE
8
BLACK
6
CONTINUOUS
10
164.5
20
-153.5250000000000057
11
114.
21
-153.5250000000000057
0
LINE
8
BLACK
6
CONTINUOUS
10
114.
20
-153.5250000000000057
11
113.9904329999999959
21
-153.523097000000007
0
LINE
8
BLACK
6
CONTINUOUS
10
113.9904329999999959
20
-153.523097000000007
11
113.976902999999993
21
-153.5095670000000041
0
LINE
8
BLACK
6
CONTINUOUS
10
113.976902999999993
20
-153.5095670000000041
11
113.9749999999999943
21
-153.5
0
LINE
8
BLACK
6
CONTINUOUS
10
113.9749999999999943
20
-153.5
11
113.9749999999999943
21
-25.
0
LINE
8
BLACK
6
CONTINUOUS
10
113.9749999999999943
20
-25.
11
113.976902999999993
21
-24.9904329999999995
0
LINE
8
BLACK
6
CONTINUOUS
10
113.976902999999993
20
-24.9904329999999995
11
113.9904329999999959
21
-24.9769030000000001
0
LINE
8
BLACK
6
CONTINUOUS
10
113.9904329999999959
20
-24.9769030000000001
11
114.
21
-24.9749999999999979
0
LINE
8
BLACK
6
CONTINUOUS
10
114.
20
-24.9749999999999979
11
164.5
21
-24.9749999999999979
0
LINE
8
BLACK
6
CONTINUOUS
10
164.5
20
-24.9749999999999979
11
164.5095670000000041
21
-24.9769030000000001
0
LINE
8
BLACK
6
CONTINUOUS
10
114.0249999999999915
20
-25.0249999999999986
11
114.0249999999999915
21
-153.4749999999999943
0
LINE
8
BLACK
6
CONTINUOUS
10
114.0249999999999915
20
-153.4749999999999943
11
164.4749999999999943
21
-153.4749999999999943
0
LINE
8
BLACK
6
CONTINUOUS
10
164.4749999999999943
20
-153.4749999999999943
11
164.4749999999999943
21
-25.0249999999999986
0
LINE
8
BLACK
6
CONTINUOUS
10
164.4749999999999943
20
-25.0249999999999986
11
114.0249999999999915
21
-25.0249999999999986
  0
ENDSEC
  0
EOF
